<?xml version="1.0" standalone="no"?>
<!DOCTYPE svg PUBLIC "-//W3C//DTD SVG 1.1//EN" "http://www.w3.org/Graphics/SVG/1.1/DTD/svg11.dtd" >
<svg xmlns="http://www.w3.org/2000/svg" xmlns:xlink="http://www.w3.org/1999/xlink" version="1.1">
<metadata>
Created by FontForge 20170910 at Wed Oct  8 17:09:29 2014
 By Jimmy Wärting
Copyright (c) 2014 by Richard Miller. All rights reserved.
</metadata>
<defs>
<font id="Uniform-Black" horiz-adv-x="620" >
  <font-face 
    font-family="Uniform-Black"
    font-weight="400"
    font-stretch="normal"
    units-per-em="1000"
    panose-1="2 0 0 0 0 0 0 0 0 0"
    ascent="817"
    descent="-183"
    x-height="520"
    cap-height="700"
    bbox="-170 -220.002 1220 950.002"
    underline-thickness="50"
    underline-position="-50"
    unicode-range="U+0020-FB02"
  />
<missing-glyph horiz-adv-x="691" 
d="M20 0v700h651v-700h-651zM381 350l159 158l-36 36l-159 -158l-158 159l-36 -36l158 -159l-159 -159l36 -36l159 159l159 -159l36 36z" />
    <glyph glyph-name="ellipsis" unicode="&#x2e;&#x2e;&#x2e;" horiz-adv-x="1060" 
d="M50 100c0 30.667 10.667 56.667 32 78s47.333 32 78 32s56.667 -10.667 78 -32s32 -47.333 32 -78s-10.667 -56.667 -32 -78s-47.333 -32 -78 -32s-56.667 10.667 -78 32s-32 47.333 -32 78zM420 100c0 30.667 10.667 56.667 32 78s47.333 32 78 32
s56.667 -10.667 78 -32s32 -47.333 32 -78s-10.667 -56.667 -32 -78s-47.333 -32 -78 -32s-56.667 10.667 -78 32s-32 47.333 -32 78zM790 100c0 30.667 10.667 56.667 32 78s47.333 32 78 32s56.667 -10.667 78 -32s32 -47.333 32 -78s-10.667 -56.667 -32 -78
s-47.333 -32 -78 -32s-56.667 10.667 -78 32s-32 47.333 -32 78z" />
    <glyph glyph-name="ff" unicode="ff" horiz-adv-x="820" 
d="M290 510v-20h135v-145h-135v-345h-180v345h-90v145h90v35c0 57.333 16.5 102.5 49.5 135.5s78.167 49.5 135.5 49.5c27.334 0 52.667 -1.66699 76 -5c23.334 -3.33301 39.667 -7 49 -11l15 -5l-20 -135c-18 7.33301 -39.667 11 -65 11c-40 0 -60 -18.333 -60 -55z
M665 500l-0.000976562 -10h135v-145h-135v-345h-180v505c0 65.333 17 115.833 51 151.5s82 53.5 144 53.5c26.668 0 50.835 -1.66699 72.5 -5c21.6699 -3.33301 36.8369 -7 45.501 -11l12 -5l-20 -133c-15.333 6 -35.333 9 -60 9c-43.333 0 -65 -21.667 -65 -65z" />
    <glyph glyph-name="ft" unicode="ft" horiz-adv-x="835" 
d="M290 510v-20h135v-145h-135v-345h-180v345h-90v145h90v35c0 57.333 16.5 102.5 49.5 135.5s78.167 49.5 135.5 49.5c27.334 0 52.667 -1.66699 76 -5c23.334 -3.33301 39.667 -7 49 -11l15 -5l-20 -135c-18 7.33301 -39.667 11 -65 11c-40 0 -60 -18.333 -60 -55z
M665 640l-0.00195312 -120h140v-150h-140v-165c0 -33.333 15 -50 45 -50c10.6699 0 22.3369 0.833008 35.001 2.5c12.6729 1.66699 22.3398 3.16699 29.001 4.5l11 3l20 -150c-40 -16.667 -88.333 -25 -145 -25c-54 0 -96.667 14.5 -128 43.5s-47 69.5 -47 121.5v485h180z
" />
    <glyph glyph-name="rf" unicode="rf" horiz-adv-x="795" 
d="M640 500v-10h135v-145h-135v-345h-180v505c0 65.333 17 115.833 51 151.5s82 53.5 144 53.5c26.6689 0 50.8359 -1.66699 72.5 -5c21.667 -3.33301 36.5 -7 44.5 -11l13 -5l-20 -133c-15.333 6 -35.333 9 -60 9c-43.333 0 -65 -21.667 -65 -65zM230 200v-200h-180v520
h160l9 -93c36.667 68.667 98 103 184 103l-3 -185h-38c-44 0 -77 -11.5 -99 -34.5s-33 -59.833 -33 -110.5z" />
    <glyph glyph-name="rt" unicode="rt" horiz-adv-x="810" 
d="M640 640v-120h140v-150h-140v-165c0 -33.333 15 -50 45 -50c10.6719 0 22.3389 0.833008 35 2.5c12.667 1.66699 22.667 3.16699 30 4.5l10 3l20 -150c-40 -16.667 -88.333 -25 -145 -25c-54 0 -96.667 14.5 -128 43.5s-47 69.5 -47 121.5v485h180zM230 200v-200h-180
v520h160l9 -93c36.667 68.667 98 103 184 103l-3 -185h-38c-44 0 -77 -11.5 -99 -34.5s-33 -59.833 -33 -110.5z" />
    <glyph glyph-name="tf" unicode="tf" horiz-adv-x="825" 
d="M290 640l-0.000976562 -120h140v-145h-140v-170c0 -33.333 15 -50 45 -50c10.667 0 22.334 0.833008 35.001 2.5s22.667 3.16699 30 4.5l10 3l20 -150c-40 -16.667 -88.333 -25 -145 -25c-54 0 -96.667 14.5 -128 43.5s-47 69.5 -47 121.5v220h-90v145h90v120h180z
M669.999 500v-10h135v-145h-135v-345h-180v505c0 65.333 17 115.833 51 151.5s82 53.5 144 53.5c26.668 0 50.835 -1.66699 72.5 -5c21.667 -3.33301 36.5 -7 44.5 -11l13 -5l-20 -133c-15.333 6 -35.333 9 -60 9c-43.333 0 -65 -21.667 -65 -65z" />
    <glyph glyph-name="tt" unicode="tt" horiz-adv-x="840" 
d="M290 640l-0.000976562 -120h140v-145h-140v-170c0 -33.333 15 -50 45 -50c10.667 0 22.334 0.833008 35.001 2.5s22.667 3.16699 30 4.5l10 3l20 -150c-40 -16.667 -88.333 -25 -145 -25c-54 0 -96.667 14.5 -128 43.5s-47 69.5 -47 121.5v220h-90v145h90v120h180z
M669.999 640v-120h140v-145h-140v-170c0 -33.333 15 -50 45 -50c10.6719 0 22.3389 0.833008 35 2.5c12.667 1.66699 22.667 3.16699 30 4.5l10 3l20 -150c-40 -16.667 -88.333 -25 -145 -25c-54 0 -96.667 14.5 -128 43.5s-47 69.5 -47 121.5v485h180z" />
    <glyph glyph-name="rtf" unicode="rtf" horiz-adv-x="1175" 
d="M1020 500l-0.000976562 -10h135v-145h-135v-345h-180v505c0 65.333 17 115.833 51 151.5s82 53.5 144 53.5c26.667 0 50.834 -1.66699 72.501 -5s36.5 -7 44.5 -11l13 -5l-20 -133c-15.333 6 -35.333 9 -60 9c-43.333 0 -65 -21.667 -65 -65zM639.999 640
l0.000976562 -119.996h140v-150h-140v-165v-8c0 -6 1 -11.333 3 -16c0 -0.666992 0.166992 -1.33398 0.5 -2.00098s0.5 -1.33398 0.5 -2.00098l2 -3c0 -0.666992 0.333008 -1.33398 1 -2.00098l3 -4l2 -2c4 -4 7.66699 -6.66699 11 -8c1.33301 0 2.33301 -0.333008 3 -1
c8 -1.33301 14.333 -2 19 -2h8h8c0.666992 0 1.66699 0.166992 3 0.5s2.33301 0.5 3 0.5h5c4 0.666992 9.33301 1.5 16 2.5s10.667 1.5 12 1.5l12 3h2l2 1l4 1l20 -150c-1.33301 -0.666992 -2.33301 -1 -3 -1l-18 -6c-2.66699 -1.33301 -4.66699 -2 -6 -2
c-12 -3.33301 -20.667 -5.33301 -26 -6c-12 -2.66699 -21.667 -4.33398 -29 -5.00098l-10 -2c-2 0 -4.83301 -0.166992 -8.5 -0.5s-6.5 -0.5 -8.5 -0.5c-16 -1.33301 -28 -2 -36 -2c-13.333 0 -26 1 -38 3l-21 4c-12.667 3.33301 -19.334 5.33301 -20.001 6
c-37.334 14 -64.334 39 -81 75c-2.68066 5.33301 -4.34766 9.33301 -5 12c-4.66699 12 -7.33398 23.333 -8 34c-1.33301 9.33301 -2 17 -2 23v8v485h180zM230 200.004v-200h-180v520h160l9 -93c36.667 68.667 98 103 184 103l-3 -185h-38c-44 0 -77 -11.5 -99 -34.5
s-33 -59.833 -33 -110.5z" />
    <glyph glyph-name=".notdef" horiz-adv-x="691" 
d="M20 0v700h651v-700h-651zM381 350l159 158l-36 36l-159 -158l-158 159l-36 -36l158 -159l-159 -159l36 -36l159 159l159 -159l36 36z" />
    <glyph glyph-name="space" unicode=" " horiz-adv-x="292" 
 />
    <glyph glyph-name="exclam" unicode="!" horiz-adv-x="340" 
d="M100 250l-40 450h220l-40 -450h-140zM60 100c0 30.667 10.667 56.667 32 78s47.333 32 78 32s56.667 -10.667 78 -32s32 -47.333 32 -78s-10.667 -56.667 -32 -78s-47.333 -32 -78 -32s-56.667 10.667 -78 32s-32 47.333 -32 78z" />
    <glyph glyph-name="quotedbl" unicode="&#x22;" horiz-adv-x="450" 
d="M190 370h-140v330h140v-330zM400 370h-140v330h140v-330z" />
    <glyph glyph-name="numbersign" unicode="#" 
d="M295 0l28 140h-90l-28 -140h-115l28 140h-78v105h99l22 110h-81v105h102l28 140h115l-28 -140h90l28 140h115l-28 -140h78v-105h-99l-22 -110h81v-105h-102l-28 -140h-115zM276 355l-22 -110h90l22 110h-90z" />
    <glyph glyph-name="dollar" unicode="$" horiz-adv-x="575" 
d="M346 189c0 16 -9.16309 31.833 -27.4961 47.5s-51.5 35.5 -99.5 59.5c-101.333 51.333 -152 122 -152 212c0 50 16.5 92.167 49.5 126.5s76.5 56.166 130.5 65.499v100h100v-99c25.333 -3.33301 49 -9.83301 71 -19.5s39.833 -19.834 53.5 -30.501
s25.5 -21.167 35.5 -31.5s17 -18.833 21 -25.5l7 -11l-130 -93c-1.33301 2 -3 4.33301 -5 7s-6.33301 7.83398 -13 15.501c-6.66797 7.6709 -13.835 14.3379 -21.5 20.001c-7.66797 5.6748 -17.335 10.8418 -29 15.5c-11.667 4.66699 -23.5 7 -35.5 7
c-14.667 0 -26.5 -3.66699 -35.5 -11s-13.5 -17 -13.5 -29c0 -15.333 7 -29.166 21 -41.499s40.333 -28.5 79 -48.5c119.333 -61.333 179 -135.666 179 -222.999c0 -52.667 -16.833 -97 -50.5 -133s-78.167 -59 -133.5 -69v-100h-100v97
c-29.333 3.33301 -56.833 10.166 -82.5 20.499s-46.334 22 -62.001 35s-29.334 25.667 -41.001 38s-19.834 22.833 -24.501 31.5l-7 12l131 93c1.33301 -2 3.5 -4.83301 6.5 -8.5s9 -10.334 18 -20.001s18.167 -18 27.5 -25s21.166 -13.5 35.499 -19.5s28.5 -9 42.5 -9
c16.667 0 30 4 40 12s15 18.667 15 32z" />
    <glyph glyph-name="percent" unicode="%" horiz-adv-x="780" 
d="M127 0l410 600h116l-410 -600h-116zM40 452c0 45.333 15.667 82.999 47 112.999s70 45 116 45s84.333 -14.667 115 -44s46 -66.666 46 -111.999s-15.667 -83 -47 -113s-70 -45 -116 -45s-84.333 14.667 -115 44c-30.667 29.334 -46 66.667 -46 112zM152 452.999
c0 -15.333 4.66699 -27.833 14 -37.5s21.333 -14.5 36 -14.5s26.667 4.83301 36 14.5s14 22.167 14 37.5s-4.66699 27.833 -14 37.5s-21.333 14.5 -36 14.5s-26.667 -4.83301 -36 -14.5s-14 -22.167 -14 -37.5zM416 145.999c0 45.333 15.667 83 47 113s70 45 116 45
s84.333 -14.667 115 -44s46 -66.666 46 -111.999s-15.667 -83 -47 -113s-70 -45 -116 -45s-84.333 14.667 -115 44s-46 66.666 -46 111.999zM528 146.999c0 -15.333 4.66699 -27.833 14 -37.5s21.333 -14.5 36 -14.5s26.667 4.83301 36 14.5s14 22.167 14 37.5
s-4.66699 27.833 -14 37.5s-21.333 14.5 -36 14.5s-26.667 -4.83301 -36 -14.5s-14 -22.167 -14 -37.5z" />
    <glyph glyph-name="ampersand" unicode="&#x26;" horiz-adv-x="750" 
d="M30 193c0 40.667 10.498 77.499 31.498 110.499s55.833 64.167 104.5 93.5c-40.667 50 -61 97.667 -61 143c0 47.333 19.333 87.5 58 120.5s90.334 49.5 155.001 49.5c65.334 0 116.167 -16.667 152.5 -50c36.333 -33.334 54.5 -72.667 54.5 -118
c0 -67.333 -41.333 -126.666 -124 -177.999l66 -71l93 107h180l-175 -213l175 -187h-195l-76 78c-34 -33.333 -66.833 -56.333 -98.5 -69s-69.167 -19 -112.5 -19c-61.333 0 -114.666 19.5 -159.999 58.5s-68 87.167 -68 144.5zM277.998 139.999c30.667 0 61 14.333 91 43
l-111 116c-38.667 -27.333 -58 -56 -58 -86c0 -21.333 7.33301 -38.833 22 -52.5s33.334 -20.5 56 -20.5zM269.998 533.999c0 -18.667 14.667 -44 44 -76c40.667 20.667 61 44.667 61 72c0 14 -4.66699 25.833 -14 35.5s-22.333 14.5 -39 14.5
c-15.333 0 -27.833 -4.66699 -37.5 -14s-14.5 -20 -14.5 -32z" />
    <glyph glyph-name="quotesingle" unicode="'" horiz-adv-x="240" 
d="M190 370h-140v330h140v-330z" />
    <glyph glyph-name="parenleft" unicode="(" horiz-adv-x="435" 
d="M225 350c0 -43.333 6.5 -84.165 19.5 -122.498s28.833 -69.333 47.5 -93s37.334 -44.167 56.001 -61.5s34.667 -29.666 48 -36.999l19 -11l-81 -125c-4 1.33301 -9.33301 3.66602 -16 7c-6.66699 3.33301 -19.834 11 -39.5 23c-19.667 12 -38.5 25.167 -56.5 39.5
s-38 34.166 -60 59.499s-40.833 52.5 -56.5 81.5s-28.834 64.167 -39.501 105.5s-16 85 -16 131s5.16699 89.833 15.5 131.5s23.833 77.167 40.5 106.5s35.167 56.666 55.5 81.999s40.666 45.833 60.999 61.5s38.833 29.167 55.5 40.5s30 19.333 40 24l16 7l81 -125
c-5.33301 -2.66699 -12.166 -6.5 -20.499 -11.5s-23.5 -17 -45.5 -36s-41.333 -39.833 -58 -62.5s-31.834 -53.334 -45.5 -92.001c-13.667 -38.667 -20.5 -79.667 -20.5 -123z" />
    <glyph glyph-name="parenright" unicode=")" horiz-adv-x="435" 
d="M210 350c0 43.334 -6.49805 84.165 -19.498 122.498s-28.833 69.333 -47.5 93s-37.334 44.167 -56.001 61.5s-34.334 29.666 -47.001 36.999l-20 11l81 125c4 -1.35742 9.33301 -3.69043 16 -6.99902c6.66699 -3.33301 19.834 -11 39.501 -23s38.5 -25.167 56.5 -39.5
c18 -14.3359 38 -34.1689 60 -59.5c22 -25.333 40.833 -52.5 56.5 -81.5s28.834 -64.167 39.501 -105.5s16 -85 16 -131s-5.16699 -89.833 -15.5 -131.5s-23.833 -77.167 -40.5 -106.5s-35.167 -56.666 -55.5 -81.999c-20.334 -25.333 -40.667 -45.833 -61 -61.5
s-38.833 -29.167 -55.5 -40.5s-30.334 -19.333 -41.001 -24l-15 -7l-81 125c5.33301 2.66699 12.166 6.5 20.499 11.5s23.5 17 45.5 36s41.333 39.833 58 62.5s31.834 53.334 45.5 92.001c13.667 38.667 20.5 79.667 20.5 123z" />
    <glyph glyph-name="asterisk" unicode="*" horiz-adv-x="510" 
d="M320 700l-14 -135l124 55l40 -123l-133 -29l91 -101l-105 -76l-68 117l-68 -117l-105 76l90 101l-132 29l40 123l123 -55l-13 135h130z" />
    <glyph glyph-name="plus" unicode="+" 
d="M238 90v195h-188v140h188v195h144v-195h188v-140h-188v-195h-144z" />
    <glyph glyph-name="comma" unicode="," horiz-adv-x="300" 
d="M180 -130h-140l30 330h190z" />
    <glyph glyph-name="hyphen" unicode="-" horiz-adv-x="420" 
d="M370 275h-320v160h320v-160z" />
    <glyph glyph-name="period" unicode="." horiz-adv-x="320" 
d="M50 100c0 30.667 10.667 56.667 32 78s47.333 32 78 32s56.667 -10.667 78 -32s32 -47.333 32 -78s-10.667 -56.667 -32 -78s-47.333 -32 -78 -32s-56.667 10.667 -78 32s-32 47.333 -32 78z" />
    <glyph glyph-name="slash" unicode="/" horiz-adv-x="560" 
d="M0 -80l410 860h150l-410 -860h-150z" />
    <glyph glyph-name="zero" unicode="0" 
d="M50 247v200c0 81.333 24.833 145.5 74.5 192.5s112.5 70.5 188.5 70.5s137.833 -22.5 185.5 -67.5s71.5 -108.167 71.5 -189.5v-200c0 -81.333 -24.833 -145.5 -74.5 -192.5s-112.5 -70.5 -188.5 -70.5s-137.833 22.5 -185.5 67.5s-71.5 108.167 -71.5 189.5zM230 465
v-230c0 -23.333 7.5 -42.5 22.5 -57.5s34.167 -22.5 57.5 -22.5s42.5 7.5 57.5 22.5s22.5 34.167 22.5 57.5v230c0 23.333 -7.5 42.5 -22.5 57.5s-34.167 22.5 -57.5 22.5s-42.5 -7.5 -57.5 -22.5s-22.5 -34.167 -22.5 -57.5z" />
    <glyph glyph-name="one" unicode="1" horiz-adv-x="510" 
d="M10 520l260 180h150v-700h-180v492l-145 -92z" />
    <glyph glyph-name="two" unicode="2" horiz-adv-x="570" 
d="M45 140l229.998 220.003c26.667 25.333 45 46.333 55 63s15 35.667 15 57c0 20 -6.83301 36.667 -20.5 50s-31.834 20 -54.5 20c-13.333 0 -26.166 -2.66699 -38.499 -8c-12.334 -5.33301 -22.667 -12 -31 -20c-8.33398 -8 -15.667 -16 -22 -24
c-6.33398 -8 -11.167 -14.667 -14.5 -20l-4 -8l-130 85c1.33301 4 3.66602 9.5 6.99902 16.5s12 19.5 26 37.5s29.833 33.667 47.5 47s42.334 25.666 74.001 36.999s66.167 17 103.5 17c68.667 0 125.334 -19.833 170.001 -59.5s67 -88.834 67 -147.501
c0 -48 -10 -89.833 -30 -125.5s-53.333 -74.834 -100 -117.501l-115 -105h240v-155h-475v140z" />
    <glyph glyph-name="three" unicode="3" horiz-adv-x="565" 
d="M170 290l0.00585938 135.003h70c53.333 0 80 21.667 80 65c0 20 -6.66699 35.833 -20 47.5s-30 17.5 -50 17.5c-12.667 0 -24.334 -1.83301 -35.001 -5.5s-18.834 -8.16699 -24.501 -13.5s-10.667 -10.833 -15 -16.5c-4.33398 -5.66699 -7.16699 -10.167 -8.5 -13.5
l-2 -6l-130 75c1.33301 3.33301 3.66602 8.16602 6.99902 14.499s11.166 17.166 23.499 32.499s26.5 29 42.5 41s38 22.833 66 32.5s58.333 14.5 91 14.5c65.333 0 120.833 -17.833 166.5 -53.5s68.5 -81.834 68.5 -138.501c0 -64 -29.667 -115.333 -89 -154
c72.667 -36 109 -92 109 -168c0 -62 -24.5 -111.833 -73.5 -149.5s-111.5 -56.5 -187.5 -56.5c-35.333 0 -68 5 -98 15s-53.833 22 -71.5 36s-32.834 28.167 -45.501 42.5s-21.334 26.5 -26.001 36.5l-8 15l135 80c0.668945 -2 1.83594 -4.5 3.5 -7.5
c1.66699 -3 5.66699 -8.5 12 -16.5s13.333 -15.167 21 -21.5s18 -12 31 -17s27.167 -7.5 42.5 -7.5c25.333 0 45.833 7 61.5 21s23.5 31 23.5 51c0 22 -8.16699 39.667 -24.5 53s-41.5 20 -75.5 20h-70z" />
    <glyph glyph-name="four" unicode="4" 
d="M325 0v140h-300v145l295 415h175v-420h100v-140h-100v-140h-170zM173 280h152v213z" />
    <glyph glyph-name="five" unicode="5" horiz-adv-x="600" 
d="M75 275v424.998h445v-155h-285v-103c28.667 18.667 61.334 28 98.001 28c66.667 0 120.334 -21.667 161.001 -65s61 -96.666 61 -159.999c0 -74.667 -24.5 -135.834 -73.5 -183.501s-112.833 -71.5 -191.5 -71.5c-32.667 0 -63.5 4.83301 -92.5 14.5
s-52.333 21.334 -70 35.001s-33 27.334 -46 41.001s-22.167 25.5 -27.5 35.5l-9 14l135 95c0.666992 -2 2 -4.5 4 -7.5s6.16699 -8.5 12.5 -16.5s13.166 -15.167 20.499 -21.5s17.333 -12 30 -17s26 -7.5 40 -7.5c27.333 0 48.833 7.83301 64.5 23.5s23.5 36.167 23.5 61.5
c0 20 -6.83301 37.5 -20.5 52.5s-32.5 22.5 -56.5 22.5c-14.667 0 -27.667 -3.33301 -39 -10s-18.833 -12.667 -22.5 -18s-5.83398 -9.33301 -6.50098 -12h-155z" />
    <glyph glyph-name="six" unicode="6" 
d="M45 242c0 67.333 21.999 134.666 65.999 201.999l169 256h200l-159 -233c10 2 20.667 3 32 3c60.667 0 112.834 -20.5 156.501 -61.5s65.5 -92.833 65.5 -155.5c0 -77.333 -26 -140.5 -78 -189.5s-115.333 -73.5 -190 -73.5c-72 0 -133.667 23.833 -185 71.5
s-77 107.834 -77 180.501zM224.999 245c0 -26 7.66699 -47.5 23 -64.5s36 -25.5 62 -25.5s46.667 8.5 62 25.5s23 38.5 23 64.5s-7.66699 47.5 -23 64.5s-36 25.5 -62 25.5s-46.667 -8.5 -62 -25.5s-23 -38.5 -23 -64.5z" />
    <glyph glyph-name="seven" unicode="7" horiz-adv-x="540" 
d="M55 0l253 540h-278v160h480v-125l-260 -575h-195z" />
    <glyph glyph-name="eight" unicode="8" 
d="M70 507c0 59.333 23 108 69 146s104 57 174 57s127 -18.167 171 -54.5s66 -83.833 66 -142.5c0 -53.333 -22.667 -99.333 -68 -138c62 -42.667 93 -96.667 93 -162c0 -64 -25.333 -117.167 -76 -159.5s-114.667 -63.5 -192 -63.5s-140.333 20.167 -189 60.5
s-73 92.5 -73 156.5c0 65.334 30.667 119.667 92 163c-44.667 37.333 -67 83 -67 137zM225 225c0 -24.667 7.83301 -45 23.5 -61s36.167 -24 61.5 -24s45.833 8 61.5 24s23.5 36.333 23.5 61s-7.83301 45 -23.5 61s-36.167 24 -61.5 24s-45.833 -8 -61.5 -24
s-23.5 -36.333 -23.5 -61zM245 495c0 -19.333 6 -35 18 -47s27.667 -18 47 -18s35 6 47 18s18 27.667 18 47s-6 35 -18 47s-27.667 18 -47 18s-35 -6 -47 -18s-18 -27.667 -18 -47z" />
    <glyph glyph-name="nine" unicode="9" 
d="M575 458c0 -67.333 -21.999 -134.666 -65.999 -201.999l-169 -256h-200l159 233c-10 -2 -20.667 -3 -32 -3c-60.667 0 -112.834 20.5 -156.501 61.5s-65.5 92.833 -65.5 155.5c0 77.333 26 140.5 78 189.5s115.333 73.5 190 73.5c72 0 133.667 -23.833 185 -71.5
s77 -107.834 77 -180.501zM395.001 455c0 26 -7.66699 47.5 -23 64.5s-36 25.5 -62 25.5s-46.667 -8.5 -62 -25.5s-23 -38.5 -23 -64.5s7.66699 -47.5 23 -64.5s36 -25.5 62 -25.5s46.667 8.5 62 25.5s23 38.5 23 64.5z" />
    <glyph glyph-name="colon" unicode=":" horiz-adv-x="320" 
d="M50 100c0 30.667 10.667 56.667 32 78s47.333 32 78 32s56.667 -10.667 78 -32s32 -47.333 32 -78s-10.667 -56.667 -32 -78s-47.333 -32 -78 -32s-56.667 10.667 -78 32s-32 47.333 -32 78zM50 420c0 30.667 10.667 56.667 32 78s47.333 32 78 32s56.667 -10.667 78 -32
s32 -47.333 32 -78s-10.667 -56.667 -32 -78s-47.333 -32 -78 -32s-56.667 10.667 -78 32s-32 47.333 -32 78z" />
    <glyph glyph-name="semicolon" unicode=";" horiz-adv-x="320" 
d="M180 -130h-140l30 330h190zM50 420c0 30.667 10.667 56.667 32 78s47.333 32 78 32s56.667 -10.667 78 -32s32 -47.333 32 -78s-10.667 -56.667 -32 -78s-47.333 -32 -78 -32s-56.667 10.667 -78 32s-32 47.333 -32 78z" />
    <glyph glyph-name="less" unicode="&#x3c;" 
d="M50 430l520 215v-155l-363 -133l363 -132v-160l-520 215v150z" />
    <glyph glyph-name="equal" unicode="=" 
d="M570 165h-520v140h520v-140zM570 385h-520v140h520v-140z" />
    <glyph glyph-name="greater" unicode="&#x3e;" 
d="M50 220l362 132l-362 133v160l520 -215v-150l-520 -215v155z" />
    <glyph glyph-name="question" unicode="?" horiz-adv-x="540" 
d="M150 100c0 30.667 10.667 56.667 32 78s47.333 32 78 32s56.667 -10.667 78 -32s32 -47.333 32 -78s-10.667 -56.667 -32 -78s-47.333 -32 -78 -32s-56.667 10.667 -78 32s-32 47.333 -32 78zM180 250c0 29.333 7.00098 56.334 21.001 81.001s29.333 43.667 46 57
s32 28.5 46 45.5s21 33.5 21 49.5c0 14.667 -5.16699 27.5 -15.5 38.5s-23.5 16.5 -39.5 16.5c-20.667 0 -38.334 -5.83301 -53.001 -17.5s-24 -23.167 -28 -34.5l-7 -18l-141 87c1.33301 4 3.5 9.5 6.5 16.5s10.667 19.5 23 37.5s26.666 33.667 42.999 47
s39.666 25.666 69.999 36.999s63.833 17 100.5 17c64 0 117.833 -19.167 161.5 -57.5s65.5 -84.833 65.5 -139.5c0 -28 -4.5 -53.167 -13.5 -75.5s-20.5 -41 -34.5 -56s-28.167 -28.833 -42.5 -41.5s-28.166 -26.667 -41.499 -42s-22.666 -31.333 -27.999 -48h-160z" />
    <glyph glyph-name="at" unicode="@" horiz-adv-x="976" 
d="M559 -33l31.002 -95c-30 -10.667 -64.667 -16 -104 -16c-128 0 -234.333 40.167 -319 120.5s-127 180.166 -127 299.499c0 121.333 43.167 224 129.5 308s193.166 126 320.499 126c128 0 234.333 -41.167 319 -123.5s127 -184.5 127 -306.5
c0 -85.333 -23 -158.833 -69 -220.5s-104.667 -92.5 -176 -92.5c-42 0 -76.167 13 -102.5 39c-26.3379 26 -39.1709 60.333 -38.5 103c-30.667 -22.667 -67.667 -34 -111 -34c-61.333 0 -110 22 -146 66s-49.667 98.333 -41 163c8 58 32.667 104 74 138
s89.666 51 144.999 51c47.333 0 85 -14 113 -42l13 34h108l18 -20l-47 -337c-2 -15.333 0.5 -27.5 7.5 -36.5s17.5 -13.5 31.5 -13.5c24.668 0 48.335 18.5 71 55.5c22.667 37 34 82.167 34 135.5c0 102.667 -30.5 183.834 -91.5 243.501s-141.167 89.5 -240.5 89.5
c-94.667 0 -173.667 -31.167 -237 -93.5s-95 -139.166 -95 -230.499c0 -90 31.667 -165.667 95 -227s142.333 -92 237 -92c12 0 23.833 0.666992 35.5 2s20.5 2.66602 26.5 3.99902zM402.002 291c-3.33301 -22 1.83301 -41 15.5 -57s31.5 -24 53.5 -24
c21.333 0 38.833 5.83301 52.5 17.5s22.167 28.167 25.5 49.5c3.33301 22 -1.83398 41 -15.501 57s-31.5 24 -53.5 24s-39.667 -6 -53 -18s-21.666 -28.333 -24.999 -49z" />
    <glyph glyph-name="A" unicode="A" horiz-adv-x="740" 
d="M465 700l275 -700h-210l-41 120h-248l-41 -120h-200l275 700h190zM437 270l-72 211l-73 -211h145z" />
    <glyph glyph-name="B" unicode="B" horiz-adv-x="690" 
d="M70 700l328 0.000976562c68.667 0 123.667 -16.833 165 -50.5s62 -77.5 62 -131.5c0 -66 -30.333 -117 -91 -153c38 -14.667 67.667 -36.834 89 -66.5c21.333 -29.667 32 -63.834 32 -102.501c0 -56 -22.167 -102.667 -66.5 -140s-101.5 -56 -171.5 -56h-347v700z
M380 290.001h-120v-145h120c27.333 0 48.333 7 63 21s22 31.333 22 52s-7.33301 37.834 -22 51.5c-14.667 13.667 -35.667 20.5 -63 20.5zM260 425.001h95c25.333 0 45 6.16699 59 18.5s21 27.833 21 46.5s-7 34.167 -21 46.5s-33.667 18.5 -59 18.5h-95v-130z" />
    <glyph glyph-name="C" unicode="C" horiz-adv-x="713" 
d="M558 240l135.001 -120.001c-2 -3.33301 -5.33301 -8 -10 -14s-15.5 -16.5 -32.5 -31.5s-35.667 -28.167 -56 -39.5s-47.333 -21.666 -81 -30.999s-69.167 -14 -106.5 -14c-105.333 0 -192.833 34.167 -262.5 102.5s-104.5 153.166 -104.5 254.499
s35.833 187.166 107.5 257.499s160.167 105.5 265.5 105.5c36 0 70 -4 102 -12s58.167 -17.667 78.5 -29s38 -22.833 53 -34.5s25.5 -21.5 31.5 -29.5l10 -12l-141 -122c-1.33301 2 -3 4.33301 -5 7s-7 7.66699 -15 15s-16.833 13.833 -26.5 19.5
c-9.66699 5.6748 -22.667 10.8418 -39 15.501c-16.333 4.66699 -33.5 7 -51.5 7c-52 0 -95 -17.667 -129 -53s-51 -79.333 -51 -132s17 -96.667 51 -132s77 -53 129 -53c19.334 0 37.667 2.5 54.999 7.5c17.333 5 31.333 11.167 42 18.5s20 14.833 28 22.5
s13.667 13.834 17 18.501z" />
    <glyph glyph-name="D" unicode="D" horiz-adv-x="760" 
d="M70 0v700h263c112.667 0 205.334 -32.833 278.001 -98.5s109 -148.5 109 -248.5s-37.333 -183.833 -112 -251.5s-168.334 -101.5 -281.001 -101.5h-257zM335 535h-75.001v-370h75c56.667 0 103.334 17.333 140.001 52s55 79 55 133s-18.333 98.333 -55 133
s-83.334 52 -140 52z" />
    <glyph glyph-name="E" unicode="E" horiz-adv-x="650" 
d="M610 0h-540v700h530v-165h-340v-100h290v-155h-290v-115h350v-165z" />
    <glyph glyph-name="F" unicode="F" horiz-adv-x="610" 
d="M540 245h-280v-245h-190v700h520v-165h-330v-130h280v-160z" />
    <glyph glyph-name="G" unicode="G" horiz-adv-x="795" 
d="M400 395l351.001 0.00292969c2.66699 -18 4 -35.333 4 -52c0 -100.667 -32 -184.667 -96 -252s-148 -101 -252 -101c-105.333 0 -192.833 34.167 -262.5 102.5s-104.5 153.166 -104.5 254.499s35.833 187.166 107.5 257.499s160.167 105.5 265.5 105.5
c36 0 70 -3.83301 102 -11.5s58.167 -17 78.5 -28s38 -22 53 -33s25.5 -20.167 31.5 -27.5l10 -12l-133 -134c-1.35059 2 -3.18359 4.5 -5.5 7.5c-2.33301 3 -8 8.66699 -17 17c-9 8.33496 -18.667 15.668 -29 21.999c-10.333 6.33301 -23.833 12 -40.5 17
c-16.668 5 -34.335 7.5 -53.001 7.5c-52.667 0 -95.834 -17.667 -129.5 -53c-33.667 -35.333 -50.5 -80 -50.5 -134s17 -98.833 51 -134.5s77 -53.5 129 -53.5c81.333 0 131 33.333 149 100h-159v135z" />
    <glyph glyph-name="H" unicode="H" horiz-adv-x="770" 
d="M510 0v275h-250v-275h-190v700h190v-255h250v255h190v-700h-190z" />
    <glyph glyph-name="I" unicode="I" horiz-adv-x="345" 
d="M75 0v700h195v-700h-195z" />
    <glyph glyph-name="J" unicode="J" horiz-adv-x="510" 
d="M255 285v415.001h195v-427c0 -86 -25.667 -154.667 -77 -206s-118.333 -77 -201 -77c-32 0 -61.5 2.66699 -88.5 8s-46.167 10.666 -57.5 15.999l-16 9l50 167c24 -13.333 55.667 -20 95 -20c30.667 0 55 10.333 73 31s27 48.667 27 84z" />
    <glyph glyph-name="K" unicode="K" horiz-adv-x="725" 
d="M510 0l-250 333v-333h-190v700h190v-313l230 313h225l-270 -330l290 -370h-225z" />
    <glyph glyph-name="L" unicode="L" horiz-adv-x="590" 
d="M580 0h-510v700h190v-530h320v-170z" />
    <glyph glyph-name="M" unicode="M" horiz-adv-x="890" 
d="M395 100l-142 281v-381h-183v700h195l185 -366l185 366h185v-700h-183v381l-142 -281h-100z" />
    <glyph glyph-name="N" unicode="N" horiz-adv-x="790" 
d="M535 0l-280 415v-415h-185v700h195l270 -401v401h185v-700h-185z" />
    <glyph glyph-name="O" unicode="O" horiz-adv-x="820" 
d="M40 347c0 101.333 35.833 187.166 107.5 257.499s160.167 105.5 265.5 105.5s192.833 -34.167 262.5 -102.5s104.5 -153.166 104.5 -254.499s-35.833 -187.166 -107.5 -257.499s-160.167 -105.5 -265.5 -105.5s-192.833 34.167 -262.5 102.5
s-104.5 153.166 -104.5 254.499zM230 350c0 -52.667 17 -96.667 51 -132s77 -53 129 -53s95 17.667 129 53s51 79.333 51 132s-17 96.667 -51 132s-77 53 -129 53s-95 -17.667 -129 -53s-51 -79.333 -51 -132z" />
    <glyph glyph-name="P" unicode="P" horiz-adv-x="690" 
d="M70 0l0.000976562 700h313c82 0 147.833 -22.333 197.499 -67c49.667 -44.667 74.5 -104 74.5 -178c0 -73.333 -25.833 -133.333 -77.5 -180s-118.5 -70 -200.5 -70h-117v-205h-190zM260.001 540v-180.002h105c30 0 54.167 8.33301 72.5 25s27.5 38.334 27.5 65.001
s-9.16699 48.334 -27.5 65.001s-42.5 25 -72.5 25h-105z" />
    <glyph glyph-name="Q" unicode="Q" horiz-adv-x="820" 
d="M40 347c0 101.333 35.833 187.165 107.5 257.498s160.167 105.5 265.5 105.5s192.833 -34.167 262.5 -102.5s104.5 -153.166 104.5 -254.499c0 -61.333 -14.167 -118.166 -42.5 -170.499c-28.335 -52.333 -67.168 -95.166 -116.5 -128.499l124 -174h-215l-77 113
c-14.667 -2 -30 -3 -46 -3c-105.333 0 -192.833 34.167 -262.5 102.5s-104.5 153.166 -104.5 254.499zM230 349.999c0 -52.667 17 -96.667 51 -132s77 -53 129 -53s95 17.667 129 53s51 79.333 51 132s-17 96.667 -51 132s-77 53 -129 53s-95 -17.667 -129 -53
s-51 -79.333 -51 -132z" />
    <glyph glyph-name="R" unicode="R" horiz-adv-x="700" 
d="M70 0v700h323c78 0 141.167 -21.5 189.5 -64.5s72.5 -99.833 72.5 -170.5c0 -48.667 -11.833 -91.334 -35.5 -128c-23.667 -36.667 -56.5 -65 -98.5 -85l164 -252h-220l-137 225h-68v-225h-190zM370 540h-110v-170h110c30 0 53.333 7.66699 70 23s25 36 25 62
s-8.33301 46.667 -25 62s-40 23 -70 23z" />
    <glyph glyph-name="S" unicode="S" horiz-adv-x="590" 
d="M245 517c0 -16 7.33203 -29.835 21.999 -41.502s44.334 -27.167 89.001 -46.5c129.333 -56 194 -129.667 194 -221c0 -62 -24.5 -113.833 -73.5 -155.5s-112.167 -62.5 -189.5 -62.5c-33.333 0 -65.833 3.83301 -97.5 11.5s-57.834 16.834 -78.501 27.501
s-39 21.334 -55 32.001s-27.667 19.667 -35 27l-11 12l110 120c6 -6 14.167 -13.167 24.5 -21.5c10.333 -8.33398 30.833 -19.667 61.5 -34s60.334 -21.5 89.001 -21.5c17.333 0 31.666 4.16699 42.999 12.5s17 18.833 17 31.5c0 16.667 -10 32.667 -30 48
s-58.667 35.333 -116 60c-106 46 -159 115 -159 207c0 60.667 23.333 110.5 70 149.5s107.667 58.5 183 58.5c46 0 89.667 -8 131 -24s71 -32 89 -48l27 -23l-110 -120c-4 4.66699 -10 10.5 -18 17.5s-23.667 16.167 -47 27.5s-46.666 17 -69.999 17
c-18.667 0 -33.334 -3.83301 -44 -11.5c-10.667 -7.66699 -16 -17.167 -16 -28.5z" />
    <glyph glyph-name="T" unicode="T" horiz-adv-x="590" 
d="M580 535h-190v-535h-190v535h-190v165h570v-165z" />
    <glyph glyph-name="U" unicode="U" horiz-adv-x="740" 
d="M493 700h186.998v-407c0 -91.333 -28.833 -164.666 -86.5 -219.999s-133.167 -83 -226.5 -83s-167.833 26.667 -223.5 80s-83.5 125.666 -83.5 216.999v413h193v-405c0 -40 10.833 -71.667 32.5 -95s50.834 -35 87.501 -35s65.834 11.667 87.501 35s32.5 55 32.5 95v405z
" />
    <glyph glyph-name="V" unicode="V" horiz-adv-x="730" 
d="M270 0l-270 700h215l155 -452l155 452h205l-270 -700h-190z" />
    <glyph glyph-name="W" unicode="W" horiz-adv-x="1025" 
d="M235 0l-235 700h210l123 -410l117 410h135l117 -410l123 410h200l-235 -700h-165l-113 384l-112 -384h-165z" />
    <glyph glyph-name="X" unicode="X" horiz-adv-x="750" 
d="M740 700l-254 -342l264 -358h-230l-151 215l-149 -215h-220l263 355l-253 345h230l140 -201l140 201h220z" />
    <glyph glyph-name="Y" unicode="Y" horiz-adv-x="710" 
d="M260 0v250l-260 450h220l140 -268l140 268h210l-260 -450v-250h-190z" />
    <glyph glyph-name="Z" unicode="Z" horiz-adv-x="700" 
d="M650 0h-600v140l345 400h-325v160h580v-140l-345 -400h345v-160z" />
    <glyph glyph-name="bracketleft" unicode="[" horiz-adv-x="435" 
d="M405 -80h-335v860h335v-150h-160v-560h160v-150z" />
    <glyph glyph-name="backslash" unicode="\" horiz-adv-x="560" 
d="M150 780l410 -860h-150l-410 860h150z" />
    <glyph glyph-name="bracketright" unicode="]" horiz-adv-x="435" 
d="M365 -80h-335v150h160v560h-160v150h335v-860z" />
    <glyph glyph-name="asciicircum" unicode="^" horiz-adv-x="600" 
d="M370 700l190 -380h-167l-92 224l-91 -224h-170l190 380h140z" />
    <glyph glyph-name="underscore" unicode="_" horiz-adv-x="600" 
d="M600 -160h-600v110h600v-110z" />
    <glyph glyph-name="grave" unicode="`" horiz-adv-x="370" 
d="M250 740l60 -170h-140l-110 170h190z" />
    <glyph glyph-name="a" unicode="a" horiz-adv-x="575" 
d="M30 147c0 47.333 18.666 86.332 55.999 116.999s86.333 46 147 46c45.333 0 84.333 -8.66699 117 -26v11c0 26 -9.33301 46.667 -28 62s-42.667 23 -72 23c-20.667 0 -41 -3 -61 -9s-35 -11.667 -45 -17l-14 -9l-70 115c6 5.33301 15 11.833 27 19.5s37.833 18 77.5 31
s80.834 19.5 123.501 19.5c74.667 0 133.667 -21.167 177 -63.5s65 -100.166 65 -173.499v-293h-140l-13 39c-38 -32.667 -88 -49 -150 -49c-60.667 0 -108.667 14.333 -144 43s-53 66.667 -53 114zM209.999 154.999c0 -16 6.66699 -29.167 20 -39.5
s30.666 -15.5 51.999 -15.5s38.833 5.33301 52.5 16s20.5 23.667 20.5 39s-6.83301 28.333 -20.5 39s-31.167 16 -52.5 16s-38.666 -5.16699 -51.999 -15.5s-20 -23.5 -20 -39.5z" />
    <glyph glyph-name="b" unicode="b" horiz-adv-x="645" 
d="M50 0v699.998h180v-226c38.667 37.333 84.667 56 138 56c68 0 126.167 -25.667 174.5 -77s72.5 -114.666 72.5 -189.999s-25 -139.666 -75 -192.999s-109.333 -80 -178 -80c-61.333 0 -111 22.667 -149 68l-13 -58h-150zM225 259.998c0 -29.334 10 -54.167 30 -74.5
s45 -30.5 75 -30.5s55 10.167 75 30.5s30 45.166 30 74.499c0 29.334 -10 54.167 -30 74.5s-45 30.5 -75 30.5s-55 -10.167 -75 -30.5s-30 -45.166 -30 -74.499z" />
    <glyph glyph-name="c" unicode="c" horiz-adv-x="534" 
d="M402 202l121.997 -117.003c-2 -2.66699 -4.83301 -6.16699 -8.5 -10.5s-12.167 -11.833 -25.5 -22.5s-27.5 -20.167 -42.5 -28.5s-34.833 -16 -59.5 -23s-50 -10.5 -76 -10.5c-81.333 0 -148.666 25.333 -201.999 76s-80 114.334 -80 191.001s27.667 141.334 83 194.001
s123.666 79 204.999 79c40.667 0 78 -7.33301 112 -22c34 -14.668 58 -29.335 72 -44.001l20 -21l-124 -120c-2 3.33301 -4.83301 7.33301 -8.5 12s-12.667 10.834 -27 18.501s-30.166 11.5 -47.499 11.5c-30 0 -55 -10.167 -75 -30.5s-30 -45.166 -30 -74.499
c0 -29.334 10 -54.167 30 -74.5s45 -30.5 75 -30.5c18.667 0 35.334 3.83301 50.001 11.5s24.334 15.5 29.001 23.5z" />
    <glyph glyph-name="d" unicode="d" horiz-adv-x="645" 
d="M595 700v-699.999h-150l-14 63c-40 -48.667 -91.333 -73 -154 -73c-68 0 -126.167 25.667 -174.5 77s-72.5 114.666 -72.5 189.999c0 75.334 25 139.667 75 193s109.333 80 178 80c52.667 0 96.667 -16.667 132 -50v220h180zM210 260.001c0 -29.334 10 -54.167 30 -74.5
s45 -30.5 75 -30.5s55 10.167 75 30.5s30 45.166 30 74.499c0 29.334 -10 54.167 -30 74.5s-45 30.5 -75 30.5s-55 -10.167 -75 -30.5s-30 -45.166 -30 -74.499z" />
    <glyph glyph-name="e" unicode="e" horiz-adv-x="600" 
d="M565 220l-351.003 0.000976562c6 -22.667 18.833 -40.834 38.5 -54.501s43.834 -20.5 72.501 -20.5c22 0 42.667 3.66699 62 11s33 14.666 41 21.999l12 12l105 -105c-2 -2.66699 -4.83301 -6.16699 -8.5 -10.5s-12.5 -11.833 -26.5 -22.5s-29.167 -20.167 -45.5 -28.5
s-38.166 -16 -65.499 -23s-56.333 -10.5 -87 -10.5c-81.333 0 -148.666 25.333 -201.999 76s-80 114.334 -80 191.001s27.167 141.334 81.5 194.001s121.5 79 201.5 79c73.333 0 135.333 -24.333 186 -73s76 -106.667 76 -174c0 -11.333 -0.833008 -22.333 -2.5 -33
s-3.16699 -18.334 -4.5 -23.001zM309.997 400.001c-24 0 -45 -7.00098 -63 -21.001s-29.667 -32 -35 -54h191c-4 20.667 -14.833 38.334 -32.5 53.001s-37.834 22 -60.5 22z" />
    <glyph glyph-name="f" unicode="f" horiz-adv-x="445" 
d="M290 510v-20h135v-145h-135v-345h-180v345h-90v145h90v35c0 57.333 16.5 102.5 49.5 135.5s78.167 49.5 135.5 49.5c27.334 0 52.667 -1.66699 76 -5c23.334 -3.33301 39.667 -7 49 -11l15 -5l-20 -135c-18 7.33301 -39.667 11 -65 11c-40 0 -60 -18.333 -60 -55z" />
    <glyph glyph-name="g" unicode="g" horiz-adv-x="645" 
d="M30 -90l64.9961 130.004c6.66699 -4.66699 15.5 -10.334 26.5 -17.001s32.833 -15.5 65.5 -26.5s63.667 -16.5 93 -16.5c42 0 75 9.5 99 28.5s36 47.167 36 84.5v2c-33.333 -30 -77.666 -45 -132.999 -45c-71.333 0 -131.166 23 -179.499 69s-72.5 102 -72.5 168
c0 69.333 23.833 127.166 71.5 173.499s109.834 69.5 186.501 69.5c56.667 0 105.334 -18.667 146.001 -56l11 46h150v-387c0 -92.667 -26.167 -166.334 -78.5 -221.001s-125.5 -82 -219.5 -82c-49.333 0 -96.333 6.66699 -141 20s-76.667 26.666 -96 39.999z
M419.996 285.004c0 26.667 -10 49.167 -30 67.5s-45 27.5 -75 27.5s-55 -9.16699 -75 -27.5s-30 -40.833 -30 -67.5s10 -49.167 30 -67.5s45 -27.5 75 -27.5s55 9.16699 75 27.5s30 40.833 30 67.5z" />
    <glyph glyph-name="h" unicode="h" horiz-adv-x="615" 
d="M390 0l0.000976562 269.999c0 31.333 -7 55 -21 71s-33 24 -57 24s-43.5 -7.66699 -58.5 -23s-22.833 -37.666 -23.5 -66.999v-275h-180v700h180v-240c37.333 46.667 86.666 70 147.999 70c55.334 0 101.167 -18.333 137.5 -55s54.5 -85.667 54.5 -147v-328h-180z" />
    <glyph glyph-name="i" unicode="i" horiz-adv-x="292" 
d="M55 0v520h182v-520h-182zM36 660c0 29.333 10.333 53.333 31 72s47 28 79 28s58.333 -9.33301 79 -28s31 -42.667 31 -72s-10.333 -53.333 -31 -72s-47 -28 -79 -28s-58.333 9.33301 -79 28s-31 42.667 -31 72z" />
    <glyph glyph-name="j" unicode="j" horiz-adv-x="292" 
d="M55 520h182.002v-457c0 -76.667 -18.333 -134.667 -55 -174s-89.334 -59 -158.001 -59c-12.667 0 -26 0.833008 -40 2.5s-24.667 3.5 -32 5.5l-12 2l20 148c11.333 -2 23.666 -3 36.999 -3c38.667 0 58 21 58 63v472zM36.002 660c0 29.333 10.333 53.333 31 72
s47 28 79 28s58.333 -9.33301 79 -28s31 -42.667 31 -72s-10.333 -53.333 -31 -72s-47 -28 -79 -28s-58.333 9.33301 -79 28s-31 42.667 -31 72z" />
    <glyph glyph-name="k" unicode="k" horiz-adv-x="610" 
d="M405 0l-175 253v-253h-180v700h180v-404l160 224h210l-195 -235l215 -285h-215z" />
    <glyph glyph-name="l" unicode="l" horiz-adv-x="292" 
d="M55 0v700h182v-700h-182z" />
    <glyph glyph-name="m" unicode="m" horiz-adv-x="935" 
d="M50 0l-0.000976562 520h160l7 -70c36.667 53.333 88.667 80 156 80c76.667 0 131.334 -32.333 164.001 -97c16.667 30.667 39.5 54.5 68.5 71.5s61.5 25.5 97.5 25.5c55.333 0 100.333 -18.167 135 -54.5s52 -85.5 52 -147.5v-328h-180v270c0 63.333 -24.333 95 -73 95
c-22 0 -40 -7.16699 -54 -21.5s-21.667 -35.833 -23 -64.5v-279h-180v270c0 63.333 -24.333 95 -73 95c-22 0 -40 -7.16699 -54 -21.5s-21.667 -35.833 -23 -64.5v-279h-180z" />
    <glyph glyph-name="n" unicode="n" horiz-adv-x="615" 
d="M230 270v-270h-180v520h160l8 -70c37.333 53.333 90.666 80 159.999 80c56.667 0 102.834 -18.167 138.501 -54.5s53.5 -85.5 53.5 -147.5v-328h-180v270c0 31.333 -7 55 -21 71s-33 24 -57 24c-24.667 0 -44.5 -8 -59.5 -24s-22.5 -39.667 -22.5 -71z" />
    <glyph glyph-name="o" unicode="o" horiz-adv-x="630" 
d="M30 257c0 76.667 27.666 141.333 82.999 194s123.666 79 204.999 79c81.334 0 148.667 -25.333 202 -76s80 -114.334 80 -191c0 -76.667 -27.667 -141.334 -83 -194.001s-123.666 -79 -204.999 -79s-148.666 25.333 -201.999 76s-80 114.334 -80 191.001z
M209.999 259.999c0 -29.334 10 -54.167 30 -74.5s45 -30.5 75 -30.5s55 10.167 75 30.5s30 45.166 30 74.499c0 29.334 -10 54.167 -30 74.5s-45 30.5 -75 30.5s-55 -10.167 -75 -30.5s-30 -45.166 -30 -74.499z" />
    <glyph glyph-name="p" unicode="p" horiz-adv-x="645" 
d="M50 -160v679.998h150l14 -63c40 48.667 91.333 73 154 73c68 0 126.167 -25.667 174.5 -77s72.5 -114.666 72.5 -189.999s-25 -139.666 -75 -192.999s-109.333 -80 -178 -80c-52 0 -96 16.333 -132 49v-199h-180zM225 259.998c0 -29.334 10 -54.167 30 -74.5
s45 -30.5 75 -30.5s55 10.167 75 30.5s30 45.166 30 74.499c0 29.334 -10 54.167 -30 74.5s-45 30.5 -75 30.5s-55 -10.167 -75 -30.5s-30 -45.166 -30 -74.499z" />
    <glyph glyph-name="q" unicode="q" horiz-adv-x="645" 
d="M595 520l-0.000976562 -679.999h-180v205c-38 -36.667 -84 -55 -138 -55c-68 0 -126.167 25.667 -174.5 77s-72.5 114.666 -72.5 189.999c0 75.334 25 139.667 75 193s109.333 80 178 80c60.667 0 110.334 -22.667 149.001 -68l13 58h150zM209.999 260.001
c0 -29.334 10 -54.167 30 -74.5s45 -30.5 75 -30.5s55 10.167 75 30.5s30 45.166 30 74.499c0 29.334 -10 54.167 -30 74.5s-45 30.5 -75 30.5s-55 -10.167 -75 -30.5s-30 -45.166 -30 -74.499z" />
    <glyph glyph-name="r" unicode="r" horiz-adv-x="428" 
d="M50 0v520.001h160l9 -93c36.667 68.667 98 103 184 103l-3 -185h-38c-43.333 0 -76 -10.833 -98 -32.5s-33.333 -56.834 -34 -105.501v-207h-180z" />
    <glyph glyph-name="s" unicode="s" horiz-adv-x="480" 
d="M212 375c0 -8 5.33398 -15.999 16.001 -23.999s33 -17.333 67 -28c49.333 -16 87.5 -38.167 114.5 -66.5s40.5 -60.833 40.5 -97.5c0 -51.333 -19 -92.333 -57 -123s-91.333 -46 -160 -46c-40.667 0 -79.667 6.66699 -117 20s-64.333 26.666 -81 39.999l-25 20l75 113
c5.33301 -4.66699 12.5 -10.5 21.5 -17.5s26.333 -16.167 52 -27.5s50.167 -17 73.5 -17c27.333 0 41 8.66699 41 26c0 9.33301 -6.33301 18.333 -19 27s-39 20 -79 34c-93.333 32 -140 85.667 -140 161c0 44.667 18.667 82.667 56 114s88.666 47 153.999 47
c36 0 71 -5.83301 105 -17.5s59.333 -23.167 76 -34.5l24 -18l-75 -115c-4.66699 4 -10.667 9 -18 15s-22 14 -44 24s-43 15 -63 15c-25.333 0 -38 -8 -38 -24z" />
    <glyph glyph-name="t" unicode="t" horiz-adv-x="460" 
d="M290 640l-0.000976562 -120h140v-145h-140v-170c0 -33.333 15 -50 45 -50c10.667 0 22.334 0.833008 35.001 2.5s22.667 3.16699 30 4.5l10 3l20 -150c-40 -16.667 -88.333 -25 -145 -25c-54 0 -96.667 14.5 -128 43.5s-47 69.5 -47 121.5v220h-90v145h90v120h180z" />
    <glyph glyph-name="u" unicode="u" horiz-adv-x="615" 
d="M385 250v270h180v-520h-160l-8 70c-37.333 -53.333 -90.666 -80 -159.999 -80c-56.667 0 -102.834 18.167 -138.501 54.5s-53.5 85.5 -53.5 147.5v328h180v-270c0 -31.333 7 -55 21 -71s33 -24 57 -24c24.667 0 44.5 8 59.5 24s22.5 39.667 22.5 71z" />
    <glyph glyph-name="v" unicode="v" horiz-adv-x="555" 
d="M565 520l-200 -520h-175l-200 520h200l92 -283l93 283h190z" />
    <glyph glyph-name="w" unicode="w" horiz-adv-x="805" 
d="M160 0l-170 520h195l77 -279l78 279h135l76 -273l79 273h185l-170 -520h-170l-73 251l-72 -251h-170z" />
    <glyph glyph-name="x" unicode="x" horiz-adv-x="595" 
d="M595 520l-190 -250l200 -270h-210l-101 146l-104 -146h-200l200 263l-190 257h210l91 -134l94 134h200z" />
    <glyph glyph-name="y" unicode="y" horiz-adv-x="555" 
d="M186 10l-196 510.002h200l92 -301l93 301h190l-200 -525c-21.333 -56.667 -49.833 -98.334 -85.5 -125.001s-80.5 -40 -134.5 -40c-27.333 0 -54 3.33301 -80 10c-26 6.66602 -45 13.333 -57 20l-18 10l56 145c20 -16.667 49.667 -25 89 -25c12 0 22.167 1.66699 30.5 5
s13.833 6.66602 16.5 9.99902z" />
    <glyph glyph-name="z" unicode="z" horiz-adv-x="555" 
d="M40 0v130l230 240h-215v150h460v-130l-230 -240h230v-150h-475z" />
    <glyph glyph-name="braceleft" unicode="{" horiz-adv-x="475" 
d="M305 230v-115.001c0 -17.333 4 -30 12 -38s20.667 -12 38 -12h90v-145h-135c-62.667 0 -108.334 14.333 -137.001 43s-43 74.334 -43 137.001v145c0 26.667 -13.333 40 -40 40h-60v130h60c26.667 0 40 13.333 40 40v145c0 62.668 14.333 108.335 43 137
c28.667 28.667 74.334 43 137.001 43h135v-145h-90c-17.333 0 -30 -4 -38 -12s-12 -20.667 -12 -38v-115c0 -78 -32 -118 -96 -120c64 -2 96 -42 96 -120z" />
    <glyph glyph-name="bar" unicode="|" horiz-adv-x="340" 
d="M100 -100v900h140v-900h-140z" />
    <glyph glyph-name="braceright" unicode="}" horiz-adv-x="475" 
d="M170 470v115.002c0 17.333 -4 30 -12 38s-20.667 12 -38 12h-90v145h135c62.667 0 108.334 -14.333 137.001 -43s43 -74.334 43 -137.001v-145c0 -26.667 13.333 -40 40 -40h60v-130h-60c-26.667 0 -40 -13.333 -40 -40v-145c0 -62.667 -14.333 -108.334 -43 -137.001
s-74.334 -43 -137.001 -43h-135v145h90c17.333 0 30 4 38 12s12 20.667 12 38v115c0 78 31.667 118 95 120c-63.333 2 -95 42 -95 120z" />
    <glyph glyph-name="asciitilde" unicode="~" 
d="M171 221l-131.003 15.999c0 6 0.333008 13.833 1 23.5s4 27 10 52s14.167 47.167 24.5 66.5s26.833 36.833 49.5 52.5s49.334 23.5 80.001 23.5c24.667 0 47.5 -5 68.5 -15s37.5 -20.833 49.5 -32.5s25.167 -22.5 39.5 -32.5s27.833 -15 40.5 -15
c13.333 0 23.833 6.66699 31.5 20c7.66699 13.334 12.167 26.667 13.5 40l1 19l131 -16c0 -3.33301 -0.166992 -7.5 -0.5 -12.5c-0.350586 -5 -1.68359 -15.167 -3.99902 -30.5c-2.33301 -15.333 -5.33301 -29.833 -9 -43.5s-9.66699 -28.834 -18 -45.5
c-8.33496 -16.667 -18.168 -31 -29.499 -43c-11.333 -12 -26 -22.167 -44 -30.5s-38.333 -12.5 -61 -12.5c-24.667 0 -47.334 5 -68 15c-20.667 10 -37 20.833 -49 32.5s-25.167 22.5 -39.5 32.5s-27.833 15 -40.5 15c-13.333 0 -23.833 -6.66699 -31.5 -20
s-12.167 -26.666 -13.5 -39.999z" />
    <glyph glyph-name="exclamdown" unicode="&#xa1;" horiz-adv-x="340" 
d="M240 450l40 -450h-220l40 450h140zM280 600c0 -30.667 -10.667 -56.667 -32 -78s-47.333 -32 -78 -32s-56.667 10.667 -78 32s-32 47.333 -32 78s10.667 56.667 32 78s47.333 32 78 32s56.667 -10.667 78 -32s32 -47.333 32 -78z" />
    <glyph glyph-name="cent" unicode="&#xa2;" horiz-adv-x="564" 
d="M266 80l-0.00488281 98.998c-67.333 11.333 -121.833 40.5 -163.5 87.5s-62.5 103.833 -62.5 170.5c0 66 21 123 63 171s96.333 78.333 163 91v101h100v-98c32.667 -4 62.834 -12.5 90.501 -25.5s47.167 -25.167 58.5 -36.5l17 -17l-124 -120
c-2 3.33301 -4.83301 7.33301 -8.5 12c-3.66699 4.6748 -12.667 10.8418 -27 18.5c-14.333 7.66699 -30.166 11.5 -47.499 11.5c-30 0 -55 -10.167 -75 -30.5s-30 -45.166 -30 -74.499s10 -54.166 30 -74.499s45 -30.5 75 -30.5c18.667 0 35.334 3.83301 50.001 11.5
s24.334 15.5 29.001 23.5l8 12l122 -117c-4 -5.33301 -10.167 -12 -18.5 -20s-27.166 -20 -56.499 -36s-60.333 -26.333 -93 -31v-98h-100z" />
    <glyph glyph-name="sterling" unicode="&#xa3;" horiz-adv-x="610" 
d="M480 290h-190.003v-135h275v-155h-455v290h-80v100h80v67c0 78.667 23.833 140.5 71.5 185.5s108.167 67.5 181.5 67.5c28.667 0 55.834 -4 81.501 -12s46.334 -17.667 62.001 -29c15.668 -11.333 29.335 -22.833 41.001 -34.5c11.6709 -11.667 19.8379 -21.5 24.5 -29.5
l8 -12l-145 -98c-0.666992 1.34082 -1.5 3.17383 -2.5 5.5c-1 2.33301 -3.33301 6.33301 -7 12s-8.16699 10.667 -13.5 15s-12.5 8.33301 -21.5 12s-19.167 5.5 -30.5 5.5c-20.667 0 -37.5 -6.5 -50.5 -19.5s-19.5 -29.833 -19.5 -50.5v-85h190v-100z" />
    <glyph glyph-name="currency" unicode="&#xa4;" horiz-adv-x="680" 
d="M88 348c0 50.667 16 98 48 142l-96 93l67 67l98 -95c41.333 26.667 87 40 137 40c49.333 0 94 -12.667 134 -38l97 93l67 -67l-94 -91c30.667 -42 46 -88.667 46 -140s-16 -99 -48 -143l96 -92l-67 -67l-98 95c-42.667 -26.667 -88.334 -40 -137 -40
c-50 0 -95 12.667 -135 38l-96 -93l-67 67l94 90c-30.667 42 -46 89 -46 141zM240 350c0 -29.333 9.33301 -53.333 28 -72s42.667 -28 72 -28s53.333 9.33301 72 28s28 42.667 28 72s-9.33301 53.333 -28 72s-42.667 28 -72 28s-53.333 -9.33301 -72 -28
s-28 -42.667 -28 -72z" />
    <glyph glyph-name="yen" unicode="&#xa5;" horiz-adv-x="660" 
d="M235 0v175h-205v90h205v35l-14 25h-191v90h140l-160 285h220l105 -234l105 234h210l-161 -285h141v-90h-191l-14 -25v-35h205v-90h-205v-175h-190z" />
    <glyph glyph-name="brokenbar" unicode="&#xa6;" horiz-adv-x="340" 
d="M240 800v-350h-140v350h140zM100 -100v350h140v-350h-140z" />
    <glyph glyph-name="section" unicode="&#xa7;" horiz-adv-x="660" 
d="M345 11c0 24.667 -31.666 47.667 -94.999 69c-75.333 25.333 -129.166 54.166 -161.499 86.499s-48.5 69.166 -48.5 110.499c0 31.333 9.66699 60 29 86s46.666 46.667 81.999 62c-20.667 29.334 -31 61.667 -31 97c0 56 21.333 101.333 64 136s99 52 169 52
c26.667 0 52 -3 76 -9s43.667 -13 59 -21s28.666 -16.167 39.999 -24.5s19.333 -15.5 24 -21.5l8 -9l-110 -110c-2.66699 3.33301 -6.5 7.66602 -11.5 12.999s-15.833 12.333 -32.5 21s-33.667 13 -51 13c-10.667 0 -20 -3.16699 -28 -9.5
c-8 -6.33789 -12 -14.1709 -12 -23.5c0 -24.667 31.667 -47.667 95 -69c75.333 -25.333 129.166 -54.166 161.499 -86.499s48.5 -69.166 48.5 -110.499c0 -32 -9.66699 -61 -29 -87s-47 -46.333 -83 -61c21.333 -30.667 32 -63 32 -97c0 -56 -21.333 -101.333 -64 -136
s-99 -52 -169 -52c-26.667 0 -52 3 -76 9s-43.667 13 -59 21s-28.666 16.167 -39.999 24.5s-19.333 15.5 -24 21.5l-8 9l110 110c2.66699 -3.33301 6.5 -7.66602 11.5 -12.999s15.833 -12.333 32.5 -21s33.667 -13 51 -13c11.333 0 20.833 3 28.5 9s11.5 14 11.5 24z
M303.001 325c-18.667 5.33301 -35.335 11.332 -50.001 17.999c-18.667 -9.33301 -28 -22.333 -28 -39s9.33301 -31.834 28 -45.5c18.667 -13.667 53.334 -28.167 104.001 -43.5c19.334 -6.66699 35.667 -13 49 -19c19.333 10 29 23.333 29 40s-9.33301 31.834 -28 45.501
s-53.334 28.167 -104 43.5z" />
    <glyph glyph-name="dieresis" unicode="&#xa8;" horiz-adv-x="510" 
d="M50 659c0 26 8.66699 47.667 26 65s39 26 65 26s47.333 -8.33301 64 -25s25 -38 25 -64s-8.66699 -47.667 -26 -65s-39 -26 -65 -26s-47.333 8.33301 -64 25s-25 38 -25 64zM280 659c0 26 8.66699 47.667 26 65s39 26 65 26s47.333 -8.33301 64 -25s25 -38 25 -64
s-8.66699 -47.667 -26 -65s-39 -26 -65 -26s-47.333 8.33301 -64 25s-25 38 -25 64z" />
    <glyph glyph-name="copyright" unicode="&#xa9;" horiz-adv-x="826" 
d="M50 348c0 101.333 35.167 187 105.5 257s156.833 105 259.5 105s188.5 -34.333 257.5 -103s103.5 -153.667 103.5 -255s-35.167 -187 -105.5 -257s-156.833 -105 -259.5 -105s-188.5 34.333 -257.5 103s-103.5 153.667 -103.5 255zM146 350c0 -76 25.833 -140 77.5 -192
s114.834 -78 189.501 -78s137.834 26 189.501 78s77.5 116 77.5 192s-25.833 140 -77.5 192s-114.834 78 -189.501 78s-137.834 -26 -189.501 -78s-77.5 -116 -77.5 -192zM505 294l74.001 -68c-1.33301 -2 -3.33301 -4.66699 -6 -8s-8.83398 -9.33301 -18.501 -18
s-20.167 -16.167 -31.5 -22.5c-11.333 -6.33398 -26.333 -12.167 -45 -17.5s-38.334 -8 -59.001 -8c-57.333 0 -104.5 18.667 -141.5 56s-55.5 84 -55.5 140s19 103.333 57 142s85.667 58 143 58c32 0 60.833 -5.66699 86.5 -17s43.5 -22.333 53.5 -33l14 -17l-77 -69
c-1.33301 2.66699 -3.66602 6 -6.99902 10s-11.333 9.16699 -24 15.5s-27 9.5 -43 9.5c-26.667 0 -48.834 -9.33301 -66.5 -28c-17.667 -18.667 -26.5 -41.667 -26.5 -69s8.83301 -50.333 26.5 -69s39.834 -28 66.501 -28c16.667 0 31.667 3.5 45 10.5
c13.334 7 22.667 13.833 27.999 20.5z" />
    <glyph glyph-name="ordfeminine" unicode="&#xaa;" horiz-adv-x="408" 
d="M50 474c0 28.667 11.501 52.167 34.501 70.5s53.5 27.5 91.5 27.5c25.333 0 46.666 -4.33301 63.999 -13v6c0 32.667 -18 49 -54 49c-12.667 0 -25.334 -1.66699 -38.001 -5s-22 -7 -28 -11l-10 -5l-42 69c4 3.33301 9.83301 7.33301 17.5 12
c7.66699 4.67676 23.667 10.8438 48 18.5c24.333 7.66699 49.5 11.5 75.5 11.5c46 0 82.333 -12.5 109 -37.5s40 -59.833 40 -104.5v-176h-89l-9 21c-23.333 -18 -52.666 -27 -87.999 -27c-38 0 -67.833 8.5 -89.5 25.5s-32.5 39.833 -32.5 68.5zM60.001 270v70h298v-70
h-298zM168.001 479c0 -8.66895 3.33301 -16.3359 10 -23.001c6.66699 -6.66699 15.667 -10 27 -10s20.5 3.33301 27.5 10s10.5 14.334 10.5 23.001s-3.5 16.334 -10.5 23.001s-16.167 10 -27.5 10s-20.333 -3.33301 -27 -10c-6.66699 -6.66895 -10 -14.3359 -10 -23.001z
" />
    <glyph glyph-name="guillemotleft" unicode="&#xab;" horiz-adv-x="770" 
d="M385 515l-149 -163l149 -162l-95 -100l-240 230v60l240 230zM710 515l-149 -163l149 -162l-95 -100l-240 230v60l240 230z" />
    <glyph glyph-name="logicalnot" unicode="&#xac;" 
d="M420 160v155h-370v140h520v-295h-150z" />
    <glyph glyph-name="registered" unicode="&#xae;" horiz-adv-x="536" 
d="M50 493c0 60.667 21.167 112 63.5 154s94.166 63 155.499 63s112.833 -20.667 154.5 -62s62.5 -92.333 62.5 -153s-21.167 -112 -63.5 -154s-94.166 -63 -155.499 -63s-112.833 20.667 -154.5 62s-62.5 92.333 -62.5 153zM108 494c0 -45.333 15.5 -83.667 46.5 -115
s68.833 -47 113.5 -47s82.5 15.667 113.5 47c31 31.334 46.5 69.667 46.5 115s-15.5 83.666 -46.5 114.999s-68.833 47 -113.5 47s-82.5 -15.667 -113.5 -47c-31 -31.334 -46.5 -69.667 -46.5 -114.999zM186 388.999v210h97c23.333 0 42.333 -6.5 57 -19.5
s22 -30.167 22 -51.5c0 -30.667 -13.667 -52 -41 -64l50 -75h-66l-42 67h-20v-67h-57zM276 550.999h-33v-51h33c19.333 0 29 8.33301 29 25c0 17.333 -9.66699 26 -29 26z" />
    <glyph glyph-name="macron" unicode="&#xaf;" horiz-adv-x="460" 
d="M50 610v100h360v-100h-360z" />
    <glyph glyph-name="degree" unicode="&#xb0;" horiz-adv-x="446" 
d="M40 529c0 50.667 17.833 93.5 53.5 128.5s79.167 52.5 130.5 52.5s94.5 -17.167 129.5 -51.5s52.5 -76.833 52.5 -127.5s-17.833 -93.5 -53.5 -128.5s-79.167 -52.5 -130.5 -52.5s-94.5 17.167 -129.5 51.5s-52.5 76.833 -52.5 127.5zM143 530
c0 -24 7.5 -43.833 22.5 -59.5s34.167 -23.5 57.5 -23.5s42.5 7.83301 57.5 23.5s22.5 35.5 22.5 59.5s-7.5 43.833 -22.5 59.5s-34.167 23.5 -57.5 23.5s-42.5 -7.83301 -57.5 -23.5s-22.5 -35.5 -22.5 -59.5z" />
    <glyph glyph-name="plusminus" unicode="&#xb1;" 
d="M238 210v165h-188v140h188v165h144v-165h188v-140h-188v-165h-144zM570 20h-520v140h520v-140z" />
    <glyph glyph-name="twosuperior" unicode="&#xb2;" horiz-adv-x="365" 
d="M39 371l136 125c28 26 42 49 42 69c0 10 -3.66699 18.667 -11 26c-7.33398 7.33301 -16.667 11 -28 11c-12.667 0 -24.167 -3.66699 -34.5 -11s-17.5 -15 -21.5 -23l-6 -11l-86 56l5 10c2 4 7.33301 11.333 16 22s18.5 20.167 29.5 28.5s26.167 15.833 45.5 22.5
s40.333 10 63 10c43.333 0 78.5 -12 105.5 -36s40.5 -54 40.5 -90c0 -27.333 -6.5 -51.833 -19.5 -73.5s-34.167 -45.167 -63.5 -70.5l-64 -55h144v-101h-293v91z" />
    <glyph glyph-name="threesuperior" unicode="&#xb3;" horiz-adv-x="364" 
d="M120 453v82.999h42c28 0 42 12.333 42 37c0 10.667 -3.33301 19 -10 25s-15.334 9 -26.001 9s-20 -2.83301 -28 -8.5s-13.333 -11.167 -16 -16.5l-3 -8l-86 48c0.666992 2 2.16699 5 4.5 9s7.33301 10.833 15 20.5s16.5 18.167 26.5 25.5s23.5 14 40.5 20s35.5 9 55.5 9
c42 0 76.667 -10.5 104 -31.5s41 -48.833 41 -83.5c0 -38 -18.667 -69 -56 -93c45.333 -22 68 -55.333 68 -100c0 -38 -14.833 -68.167 -44.5 -90.5s-68.5 -33.5 -116.5 -33.5c-21.333 0 -41 3.16699 -59 9.5s-32.5 13.833 -43.5 22.5s-20.5 17.334 -28.5 26.001
s-13.667 16 -17 22l-5 10l89 51c1.33301 -3.33301 3.33301 -7.33301 6 -12c2.66699 -4.66797 9.33398 -10.835 20.001 -18.5c10.667 -7.66699 22.667 -11.5 36 -11.5c14 0 25 3.66699 33 11s12 16.333 12 27c0 28 -18 42 -54 42h-42z" />
    <glyph glyph-name="acute" unicode="&#xb4;" horiz-adv-x="370" 
d="M60 570l60 170h190l-110 -170h-140z" />
    <glyph glyph-name="mu" unicode="&#xb5;" 
d="M50 -160v680h180v-270c0 -31.333 7 -55 21 -71s33 -24 57 -24s43.5 7.5 58.5 22.5s22.833 37.5 23.5 67.5v275h180v-520h-160l-8 70c-36.667 -53.333 -86.667 -80 -150 -80c-2.66699 0 -6.5 0.166992 -11.5 0.5s-8.5 0.5 -10.5 0.5v-151h-180z" />
    <glyph glyph-name="mu" unicode="&#x3bc;" 
d="M50 -160v680h180v-270c0 -31.333 7 -55 21 -71s33 -24 57 -24s43.5 7.5 58.5 22.5s22.833 37.5 23.5 67.5v275h180v-520h-160l-8 70c-36.667 -53.333 -86.667 -80 -150 -80c-2.66699 0 -6.5 0.166992 -11.5 0.5s-8.5 0.5 -10.5 0.5v-151h-180z" />
    <glyph glyph-name="paragraph" unicode="&#xb6;" horiz-adv-x="820" 
d="M310 0v255h-23c-73.333 0 -132.833 20.5 -178.5 61.5s-68.5 93.833 -68.5 158.5s23.833 118.334 71.5 161c47.667 42.667 108.167 64 181.5 64h437v-700h-160v555h-100v-555h-160z" />
    <glyph glyph-name="periodcentered" unicode="&#xb7;" horiz-adv-x="320" 
d="M50 350c0 30.667 10.667 56.667 32 78s47.333 32 78 32s56.667 -10.667 78 -32s32 -47.333 32 -78s-10.667 -56.667 -32 -78s-47.333 -32 -78 -32s-56.667 10.667 -78 32s-32 47.333 -32 78z" />
    <glyph glyph-name="cedilla" unicode="&#xb8;" horiz-adv-x="355" 
d="M173 0l52.001 70.0029c2.66699 -0.666992 6 -1.83398 10 -3.5c4 -1.66699 11.167 -5.83398 21.5 -12.501s19.5 -14.167 27.5 -22.5s15.167 -19.833 21.5 -34.5s9.5 -30.334 9.5 -47.001c0 -44 -16.5 -79.167 -49.5 -105.5s-71.5 -39.5 -115.5 -39.5
c-18.667 0 -36.667 2.16699 -54 6.5s-30 8.5 -38 12.5l-13 7l35 102c12.667 -8.66699 30 -13 52 -13c17.333 0 31.333 4.16699 42 12.5s16 20.166 16 35.499c0 6.66699 -1.33301 12.667 -4 18s-5.33398 9 -8.00098 11z" />
    <glyph glyph-name="onesuperior" unicode="&#xb9;" horiz-adv-x="322" 
d="M20 592l152 108h100v-420h-118v284l-77 -50z" />
    <glyph glyph-name="ordmasculine" unicode="&#xba;" horiz-adv-x="450" 
d="M50 540c0 46 16.832 84.833 50.499 116.5s75.834 47.5 126.501 47.5c50 0 91.333 -15.167 124 -45.5s49 -68.5 49 -114.5s-16.833 -84.833 -50.5 -116.5s-75.834 -47.5 -126.5 -47.5c-50 0 -91.333 15.167 -124 45.5s-49 68.5 -49 114.5zM167.999 542
c0 -16 5.33496 -29.5 16.002 -40.5s24.334 -16.5 41 -16.5c16.667 0 30.334 5.5 41 16.5c10.667 11 16 24.5 16 40.5s-5.33301 29.5 -16 40.5s-24.334 16.5 -41.001 16.5s-30.334 -5.5 -41.001 -16.5s-16 -24.5 -16 -40.5zM60.001 270v70h330v-70h-330z" />
    <glyph glyph-name="guillemotright" unicode="&#xbb;" horiz-adv-x="770" 
d="M60 185l149 162l-149 163l95 100l240 -230v-60l-240 -230zM385 185l149 162l-149 163l95 100l240 -230v-60l-240 -230z" />
    <glyph glyph-name="onequarter" unicode="&#xbc;" horiz-adv-x="835" 
d="M638 0v81h-183v96l174 243h116v-249h60v-90h-60v-81h-107zM130 0l485 700h115l-485 -700h-115zM20 592l152 108h100v-420h-118v284l-77 -50zM548 171h90v125z" />
    <glyph glyph-name="onehalf" unicode="&#xbd;" horiz-adv-x="889" 
d="M553 91l136 125c28 26 42 49 42 69c0 10 -3.66699 18.667 -11 26c-7.33887 7.33301 -16.6719 11 -28 11c-12.667 0 -24.167 -3.66699 -34.5 -11s-17.5 -15 -21.5 -23l-6 -11l-86 56l5 10c2 4 7.33301 11.333 16 22s18.5 20.167 29.5 28.5s26.167 15.833 45.5 22.5
s40.333 10 63 10c43.333 0 78.5 -12 105.5 -36s40.5 -54 40.5 -90c0 -27.333 -6.5 -51.833 -19.5 -73.5s-34.167 -45.167 -63.5 -70.5l-64 -55h144v-101h-293v91zM130 0l485 700h115l-485 -700h-115zM20 592l152 108h100v-420h-118v284l-77 -50z" />
    <glyph glyph-name="threequarters" unicode="&#xbe;" horiz-adv-x="855" 
d="M658 0v81h-183v96l174 243h116v-249h60v-90h-60v-81h-107zM120 453v82.999h42c28 0 42 12.333 42 37c0 10.667 -3.33301 19 -10 25s-15.334 9 -26.001 9s-20 -2.83301 -28 -8.5s-13.333 -11.167 -16 -16.5l-3 -8l-86 48c0.666992 2 2.16699 5 4.5 9
s7.33301 10.833 15 20.5s16.5 18.167 26.5 25.5s23.5 14 40.5 20s35.5 9 55.5 9c42 0 76.667 -10.5 104 -31.5s41 -48.833 41 -83.5c0 -38 -18.667 -69 -56 -93c45.333 -22 68 -55.333 68 -100c0 -38 -14.833 -68.167 -44.5 -90.5s-68.5 -33.5 -116.5 -33.5
c-21.333 0 -41 3.16699 -59 9.5s-32.5 13.833 -43.5 22.5s-20.5 17.334 -28.5 26.001s-13.667 16 -17 22l-5 10l89 51c1.33301 -3.33301 3.33301 -7.33301 6 -12c2.66699 -4.66797 9.33398 -10.835 20.001 -18.5c10.667 -7.66699 22.667 -11.5 36 -11.5
c14 0 25 3.66699 33 11s12 16.333 12 27c0 28 -18 42 -54 42h-42zM150 -0.000976562l485 700h115l-485 -700h-115zM568 170.999h90v125z" />
    <glyph glyph-name="questiondown" unicode="&#xbf;" horiz-adv-x="540" 
d="M390 600c0 -30.667 -10.667 -56.667 -32 -78s-47.333 -32 -78 -32s-56.667 10.667 -78 32s-32 47.333 -32 78s10.667 56.667 32 78s47.333 32 78 32s56.667 -10.667 78 -32s32 -47.333 32 -78zM360 450c0 -29.333 -7.00098 -56.334 -21.001 -81.001
s-29.333 -43.667 -46 -57s-32 -28.5 -46 -45.5s-21 -33.5 -21 -49.5c0 -14.667 5.16699 -27.5 15.5 -38.5s23.5 -16.5 39.5 -16.5c20.667 0 38.334 5.83301 53.001 17.5s24 23.167 28 34.5l7 18l141 -87c-1.33301 -4 -3.5 -9.5 -6.5 -16.5s-10.667 -19.5 -23 -37.5
s-26.666 -33.667 -42.999 -47s-39.666 -25.666 -69.999 -36.999s-63.833 -17 -100.5 -17c-64 0 -117.833 19.167 -161.5 57.5s-65.5 84.833 -65.5 139.5c0 28 4.5 53.167 13.5 75.5s20.5 41 34.5 56s28.167 28.833 42.5 41.5s28.166 26.667 41.499 42
s22.666 31.333 27.999 48h160z" />
    <glyph glyph-name="Agrave" unicode="&#xc0;" horiz-adv-x="740" 
d="M465 700l275 -700h-210l-41 120h-248l-41 -120h-200l275 700h190zM385 920l60 -170h-140l-110 170h190zM437 270l-72 211l-73 -211h145z" />
    <glyph glyph-name="Aacute" unicode="&#xc1;" horiz-adv-x="740" 
d="M465 700l275 -700h-210l-41 120h-248l-41 -120h-200l275 700h190zM295 750l60 170h190l-110 -170h-140zM437 270l-72 211l-73 -211h145z" />
    <glyph glyph-name="Acircumflex" unicode="&#xc2;" horiz-adv-x="740" 
d="M465 700l275 -700h-210l-41 120h-248l-41 -120h-200l275 700h190zM155 750l135 170h160l135 -170h-153l-65 67l-65 -67h-147zM437 270l-72 211l-73 -211h145z" />
    <glyph glyph-name="Atilde" unicode="&#xc3;" horiz-adv-x="740" 
d="M465 700l275 -700h-210l-41 120h-248l-41 -120h-200l275 700h190zM270 763l-84 9c0 4 0.333008 9.33301 1 16s3.16699 18.5 7.5 35.5s10.166 32 17.499 45s18.5 24.833 33.5 35.5s32.833 16 53.5 16c22 0 41.5 -5.33301 58.5 -16s31.667 -21.334 44 -32.001
c12.335 -10.667 24.168 -16 35.5 -16c8 0 14.667 4.33301 20 13c5.33398 8.66699 8.66699 17 10 25l2 13l84 -9c0 -4 -0.333008 -9.33301 -1 -16s-3.16699 -18.5 -7.5 -35.5c-4.3418 -17 -10.1748 -32 -17.5 -45c-7.33301 -13 -18.666 -24.833 -33.999 -35.5
s-33.333 -16 -54 -16c-21.333 0 -40.5 5.33301 -57.5 16c-17 10.6729 -31.833 21.3398 -44.5 32.001c-12.667 10.667 -24.667 16 -36 16c-8 0 -14.5 -4.33301 -19.5 -13s-8.16699 -17 -9.5 -25zM437 270l-72 211l-73 -211h145z" />
    <glyph glyph-name="Adieresis" unicode="&#xc4;" horiz-adv-x="740" 
d="M465 700l275 -700h-210l-41 120h-248l-41 -120h-200l275 700h190zM165 839c0 26 8.66699 47.667 26 65s39 26 65 26s47.333 -8.33301 64 -25s25 -38 25 -64s-8.66699 -47.667 -26 -65s-39 -26 -65 -26s-47.333 8.33301 -64 25s-25 38 -25 64zM395 839
c0 26 8.66699 47.667 26 65s39 26 65 26s47.333 -8.33301 64 -25s25 -38 25 -64s-8.66699 -47.667 -26 -65s-39 -26 -65 -26s-47.333 8.33301 -64 25s-25 38 -25 64zM437 270l-72 211l-73 -211h145z" />
    <glyph glyph-name="Aring" unicode="&#xc5;" horiz-adv-x="740" 
d="M465 700l275 -700h-210l-41 120h-248l-41 -120h-200l275 700h190zM260 845c0 30.6699 10.333 55.8389 31 75.502c20.667 19.667 47 29.5 79 29.5s58.333 -9.83301 79 -29.5s31 -44.834 31 -75.501s-10.333 -55.834 -31 -75.501s-47 -29.5 -79 -29.5
s-58.333 9.83301 -79 29.5s-31 44.834 -31 75.5zM437 270.002l-72 211l-73 -211h145zM327 845.002c0 -12 3.99902 -22.167 11.999 -30.5s18.333 -12.5 31 -12.5s22.834 4.16699 30.501 12.5s11.5 18.5 11.5 30.5s-3.83301 22 -11.5 30c-7.66797 8 -17.835 12 -30.5 12
c-12.667 0 -23 -4 -31 -12s-12 -18 -12 -30z" />
    <glyph glyph-name="AE" unicode="&#xc6;" horiz-adv-x="1075" 
d="M1035 0h-540v120h-230l-65 -120h-210l405 700h630v-165h-340v-100h290v-155h-290v-115h350v-165zM346 270h149v273z" />
    <glyph glyph-name="Ccedilla" unicode="&#xc7;" horiz-adv-x="713" 
d="M558 240l135.002 -120.001c-2 -2.66699 -4.83301 -6.33398 -8.5 -11c-3.66699 -4.66699 -12 -13.167 -25 -25.5s-27.167 -23.666 -42.5 -33.999s-35.833 -20.833 -61.5 -31.5s-52.5 -18.334 -80.5 -23.001c6 -15.333 9 -30.333 9 -45c0 -44 -16.5 -79.167 -49.5 -105.5
s-71.5 -39.5 -115.5 -39.5c-18.667 0 -36.667 2.16699 -54 6.5s-30.333 8.5 -39 12.5l-12 7l35 102c12.667 -8.66699 30 -13 52 -13c17.333 0 31.333 4.16699 42 12.5s16 20.166 16 35.499c0 9.33301 -3.33301 18 -10 26c-90.667 12.667 -164.834 51.834 -222.501 117.501
s-86.5 144.167 -86.5 235.5c0 101.333 35.833 187.166 107.5 257.499s160.167 105.5 265.5 105.5c36 0 70 -4 102 -12s58.167 -17.667 78.5 -29s38 -22.833 53 -34.5s25.5 -21.5 31.5 -29.5l10 -12l-141 -122c-1.33301 2 -3 4.33301 -5 7s-7 7.66699 -15 15
s-16.833 13.833 -26.5 19.5c-9.66699 5.6748 -22.667 10.8418 -39 15.501c-16.333 4.66699 -33.5 7 -51.5 7c-52 0 -95 -17.667 -129 -53s-51 -79.333 -51 -132s17 -96.667 51 -132s77 -53 129 -53c19.334 0 37.667 2.5 54.999 7.5c17.333 5 31.333 11.167 42 18.5
s20 14.833 28 22.5s13.667 13.834 17 18.501z" />
    <glyph glyph-name="Egrave" unicode="&#xc8;" horiz-adv-x="650" 
d="M610 0h-540v700h530v-165h-340v-100h290v-155h-290v-115h350v-165zM370 920l60 -170h-140l-110 170h190z" />
    <glyph glyph-name="Eacute" unicode="&#xc9;" horiz-adv-x="650" 
d="M610 0h-540v700h530v-165h-340v-100h290v-155h-290v-115h350v-165zM270 750l60 170h190l-110 -170h-140z" />
    <glyph glyph-name="Ecircumflex" unicode="&#xca;" horiz-adv-x="650" 
d="M610 0h-540v700h530v-165h-340v-100h290v-155h-290v-115h350v-165zM120 750l135 170h160l135 -170h-153l-65 67l-65 -67h-147z" />
    <glyph glyph-name="Edieresis" unicode="&#xcb;" horiz-adv-x="650" 
d="M610 0h-540v700h530v-165h-340v-100h290v-155h-290v-115h350v-165zM130 839c0 26 8.66699 47.667 26 65s39 26 65 26s47.333 -8.33301 64 -25s25 -38 25 -64s-8.66699 -47.667 -26 -65s-39 -26 -65 -26s-47.333 8.33301 -64 25s-25 38 -25 64zM360 839
c0 26 8.66699 47.667 26 65s39 26 65 26s47.333 -8.33301 64 -25s25 -38 25 -64s-8.66699 -47.667 -26 -65s-39 -26 -65 -26s-47.333 8.33301 -64 25s-25 38 -25 64z" />
    <glyph glyph-name="Igrave" unicode="&#xcc;" horiz-adv-x="345" 
d="M75 0v700h195v-700h-195zM198 920l60 -170h-140l-110 170h190z" />
    <glyph glyph-name="Iacute" unicode="&#xcd;" horiz-adv-x="345" 
d="M75 0v700h195v-700h-195zM88 750l60 170h190l-110 -170h-140z" />
    <glyph glyph-name="Icircumflex" unicode="&#xce;" horiz-adv-x="345" 
d="M75 0v700h195v-700h-195zM-42 750l135 170h160l135 -170h-153l-65 67l-65 -67h-147z" />
    <glyph glyph-name="Idieresis" unicode="&#xcf;" horiz-adv-x="345" 
d="M75 0v700h195v-700h-195zM-32 839c0 26 8.66699 47.667 26 65s39 26 65 26s47.333 -8.33301 64 -25s25 -38 25 -64s-8.66699 -47.667 -26 -65s-39 -26 -65 -26s-47.333 8.33301 -64 25s-25 38 -25 64zM198 839c0 26 8.66699 47.667 26 65s39 26 65 26
s47.333 -8.33301 64 -25s25 -38 25 -64s-8.66699 -47.667 -26 -65s-39 -26 -65 -26s-47.333 8.33301 -64 25s-25 38 -25 64z" />
    <glyph glyph-name="Eth" unicode="&#xd0;" horiz-adv-x="800" 
d="M110 0v305h-80v100h80v295h263c112.667 0 205.334 -32.833 278.001 -98.5s109 -148.5 109 -248.5s-37.333 -183.833 -112 -251.5s-168.334 -101.5 -281.001 -101.5h-257zM440 305h-140v-140h75c56.667 0 103.334 17.333 140.001 52s55 79 55 133s-18.333 98.333 -55 133
s-83.334 52 -140.001 52h-75v-130h140v-100z" />
    <glyph glyph-name="Ntilde" unicode="&#xd1;" horiz-adv-x="790" 
d="M535 0l-280 415v-415h-185v700h195l270 -401v401h185v-700h-185zM295 763l-84 9c0 4 0.333008 9.33301 1 16s3.16699 18.5 7.5 35.5s10.166 32 17.499 45s18.5 24.833 33.5 35.5s32.833 16 53.5 16c22 0 41.5 -5.33301 58.5 -16s31.667 -21.334 44 -32.001
c12.335 -10.667 24.168 -16 35.5 -16c8 0 14.667 4.33301 20 13c5.34082 8.66699 8.67383 17 10 25l2 13l84 -9c0 -4 -0.333008 -9.33301 -1 -16s-3.16699 -18.5 -7.5 -35.5c-4.3418 -17 -10.1748 -32 -17.5 -45c-7.33789 -13 -18.6709 -24.833 -34 -35.5
c-15.333 -10.667 -33.333 -16 -54 -16c-21.333 0 -40.5 5.33301 -57.5 16c-17 10.6729 -31.833 21.3398 -44.5 32.001c-12.667 10.667 -24.667 16 -36 16c-8 0 -14.667 -4.33301 -20 -13s-8.66602 -17 -9.99902 -25z" />
    <glyph glyph-name="Ograve" unicode="&#xd2;" horiz-adv-x="820" 
d="M40 347c0 101.333 35.833 187.166 107.5 257.499s160.167 105.5 265.5 105.5s192.833 -34.167 262.5 -102.5s104.5 -153.166 104.5 -254.499s-35.833 -187.166 -107.5 -257.499s-160.167 -105.5 -265.5 -105.5s-192.833 34.167 -262.5 102.5
s-104.5 153.166 -104.5 254.499zM230 350c0 -52.667 17 -96.667 51 -132s77 -53 129 -53s95 17.667 129 53s51 79.333 51 132s-17 96.667 -51 132s-77 53 -129 53s-95 -17.667 -129 -53s-51 -79.333 -51 -132zM425 920l60 -170h-140l-110 170h190z" />
    <glyph glyph-name="Oacute" unicode="&#xd3;" horiz-adv-x="820" 
d="M40 347c0 101.333 35.833 187.166 107.5 257.499s160.167 105.5 265.5 105.5s192.833 -34.167 262.5 -102.5s104.5 -153.166 104.5 -254.499s-35.833 -187.166 -107.5 -257.499s-160.167 -105.5 -265.5 -105.5s-192.833 34.167 -262.5 102.5
s-104.5 153.166 -104.5 254.499zM230 350c0 -52.667 17 -96.667 51 -132s77 -53 129 -53s95 17.667 129 53s51 79.333 51 132s-17 96.667 -51 132s-77 53 -129 53s-95 -17.667 -129 -53s-51 -79.333 -51 -132zM335 750l60 170h190l-110 -170h-140z" />
    <glyph glyph-name="Ocircumflex" unicode="&#xd4;" horiz-adv-x="820" 
d="M40 347c0 101.333 35.833 187.166 107.5 257.499s160.167 105.5 265.5 105.5s192.833 -34.167 262.5 -102.5s104.5 -153.166 104.5 -254.499s-35.833 -187.166 -107.5 -257.499s-160.167 -105.5 -265.5 -105.5s-192.833 34.167 -262.5 102.5
s-104.5 153.166 -104.5 254.499zM230 350c0 -52.667 17 -96.667 51 -132s77 -53 129 -53s95 17.667 129 53s51 79.333 51 132s-17 96.667 -51 132s-77 53 -129 53s-95 -17.667 -129 -53s-51 -79.333 -51 -132zM195 750l135 170h160l135 -170h-153l-65 67l-65 -67h-147z" />
    <glyph glyph-name="Otilde" unicode="&#xd5;" horiz-adv-x="820" 
d="M40 347c0 101.333 35.833 187.166 107.5 257.499s160.167 105.5 265.5 105.5s192.833 -34.167 262.5 -102.5s104.5 -153.166 104.5 -254.499s-35.833 -187.166 -107.5 -257.499s-160.167 -105.5 -265.5 -105.5s-192.833 34.167 -262.5 102.5
s-104.5 153.166 -104.5 254.499zM230 350c0 -52.667 17 -96.667 51 -132s77 -53 129 -53s95 17.667 129 53s51 79.333 51 132s-17 96.667 -51 132s-77 53 -129 53s-95 -17.667 -129 -53s-51 -79.333 -51 -132zM310 763l-83.999 9c0 4 0.333008 9.33301 1 16
s3.16699 18.5 7.5 35.5s10.166 32 17.499 45s18.5 24.833 33.5 35.5s32.833 16 53.5 16c22 0 41.5 -5.33301 58.5 -16s31.667 -21.334 44 -32.001c12.335 -10.667 24.168 -16 35.5 -16c8 0 14.667 4.33301 20 13c5.33398 8.66699 8.66699 17 9.99902 25l2 13l84 -9
c0 -4 -0.333008 -9.33301 -1 -16s-3.16699 -18.5 -7.5 -35.5c-4.3418 -17 -10.1748 -32 -17.499 -45c-7.33789 -13 -18.6709 -24.833 -34 -35.5c-15.334 -10.667 -33.334 -16 -54 -16c-21.333 0 -40.5 5.33301 -57.5 16c-17 10.6729 -31.833 21.3398 -44.5 32.001
c-12.667 10.667 -24.667 16 -36 16c-8 0 -14.5 -4.33301 -19.5 -13s-8.16699 -17 -9.5 -25z" />
    <glyph glyph-name="Odieresis" unicode="&#xd6;" horiz-adv-x="820" 
d="M40 347c0 101.333 35.833 187.166 107.5 257.499s160.167 105.5 265.5 105.5s192.833 -34.167 262.5 -102.5s104.5 -153.166 104.5 -254.499s-35.833 -187.166 -107.5 -257.499s-160.167 -105.5 -265.5 -105.5s-192.833 34.167 -262.5 102.5
s-104.5 153.166 -104.5 254.499zM230 350c0 -52.667 17 -96.667 51 -132s77 -53 129 -53s95 17.667 129 53s51 79.333 51 132s-17 96.667 -51 132s-77 53 -129 53s-95 -17.667 -129 -53s-51 -79.333 -51 -132zM205 839c0 26 8.66699 47.667 26 65s39 26 65 26
s47.333 -8.33301 64 -25s25 -38 25 -64s-8.66699 -47.667 -26 -65s-39 -26 -65 -26s-47.333 8.33301 -64 25s-25 38 -25 64zM435 839c0 26 8.66699 47.667 26 65s39 26 65 26s47.333 -8.33301 64 -25s25 -38 25 -64s-8.66699 -47.667 -26 -65s-39 -26 -65 -26
s-47.333 8.33301 -64 25s-25 38 -25 64z" />
    <glyph glyph-name="multiply" unicode="&#xd7;" 
d="M475 86l-165 167l-165 -167l-100 100l167 164l-167 164l100 100l165 -167l165 167l100 -100l-168 -164l168 -164z" />
    <glyph glyph-name="Oslash" unicode="&#xd8;" horiz-adv-x="820" 
d="M40 347c0 101.333 35.834 187.166 107.501 257.499s160.167 105.5 265.5 105.5c72 0 137.333 -17.333 196 -52l61 72h120l-109 -129c66 -68 99 -150.667 99 -248c0 -101.333 -35.833 -187.166 -107.5 -257.499s-160.167 -105.5 -265.5 -105.5
c-72.667 0 -138.334 17.333 -197.001 52l-60 -72h-120l108 129c-65.333 67.333 -98 150 -98 248zM595.001 350c0 40 -10.667 76.667 -32 110l-237 -281c26.667 -12.667 54.667 -19 84 -19c54 0 98.333 18 133 54s52 81.333 52 136zM225.001 350
c0 -42.667 10.667 -79.667 32 -111l237 282c-26.667 12.667 -54.667 19 -84 19c-54 0 -98.333 -18 -133 -54s-52 -81.333 -52 -136z" />
    <glyph glyph-name="Ugrave" unicode="&#xd9;" horiz-adv-x="740" 
d="M493 700h186.998v-407c0 -91.333 -28.833 -164.666 -86.5 -219.999s-133.167 -83 -226.5 -83s-167.833 26.667 -223.5 80s-83.5 125.666 -83.5 216.999v413h193v-405c0 -40 10.833 -71.667 32.5 -95s50.834 -35 87.501 -35s65.834 11.667 87.501 35s32.5 55 32.5 95v405z
M394.998 920l60 -170h-140l-110 170h190z" />
    <glyph glyph-name="Uacute" unicode="&#xda;" horiz-adv-x="740" 
d="M493 700h186.998v-407c0 -91.333 -28.833 -164.666 -86.5 -219.999s-133.167 -83 -226.5 -83s-167.833 26.667 -223.5 80s-83.5 125.666 -83.5 216.999v413h193v-405c0 -40 10.833 -71.667 32.5 -95s50.834 -35 87.501 -35s65.834 11.667 87.501 35s32.5 55 32.5 95v405z
M294.998 750l60 170h190l-110 -170h-140z" />
    <glyph glyph-name="Ucircumflex" unicode="&#xdb;" horiz-adv-x="740" 
d="M493 700h186.998v-407c0 -91.333 -28.833 -164.666 -86.5 -219.999s-133.167 -83 -226.5 -83s-167.833 26.667 -223.5 80s-83.5 125.666 -83.5 216.999v413h193v-405c0 -40 10.833 -71.667 32.5 -95s50.834 -35 87.501 -35s65.834 11.667 87.501 35s32.5 55 32.5 95v405z
M159.998 750l135 170h160l135 -170h-153l-65 67l-65 -67h-147z" />
    <glyph glyph-name="Udieresis" unicode="&#xdc;" horiz-adv-x="740" 
d="M493 700h186.998v-407c0 -91.333 -28.833 -164.666 -86.5 -219.999s-133.167 -83 -226.5 -83s-167.833 26.667 -223.5 80s-83.5 125.666 -83.5 216.999v413h193v-405c0 -40 10.833 -71.667 32.5 -95s50.834 -35 87.501 -35s65.834 11.667 87.501 35s32.5 55 32.5 95v405z
M169.998 839c0 26 8.66699 47.667 26 65s39 26 65 26s47.333 -8.33301 64 -25s25 -38 25 -64s-8.66699 -47.667 -26 -65s-39 -26 -65 -26s-47.333 8.33301 -64 25s-25 38 -25 64zM399.998 839c0 26 8.66699 47.667 26 65s39 26 65 26s47.333 -8.33301 64 -25s25 -38 25 -64
s-8.66699 -47.667 -26 -65s-39 -26 -65 -26s-47.333 8.33301 -64 25s-25 38 -25 64z" />
    <glyph glyph-name="Yacute" unicode="&#xdd;" horiz-adv-x="710" 
d="M260 0v250l-260 450h220l140 -268l140 268h210l-260 -450v-250h-190zM280 750l60 170h190l-110 -170h-140z" />
    <glyph glyph-name="Thorn" unicode="&#xde;" horiz-adv-x="685" 
d="M70 0v700.001h190v-100h123c79.334 0 142.834 -21.833 190.5 -65.5c47.667 -43.667 71.5 -100.834 71.5 -171.5c0 -70.667 -24.833 -128.834 -74.5 -174.501s-114.167 -68.5 -193.5 -68.5h-117v-120h-190zM260 445.001v-170h100c29.333 0 52.5 7.66699 69.5 23
s25.5 36 25.5 62s-8.5 46.667 -25.5 62s-40.167 23 -69.5 23h-100z" />
    <glyph glyph-name="germandbls" unicode="&#xdf;" 
d="M230 478l-0.00292969 -477.999h-180v475c0 70.667 23.333 127.5 70 170.5s108.334 64.5 185.001 64.5c74.667 0 135 -18.667 181 -56s69 -85.333 69 -144c0 -56.667 -21.333 -101.667 -64 -135c69.333 -37.333 104 -94 104 -170c0 -62.667 -23.5 -114.167 -70.5 -154.5
s-106.833 -60.5 -179.5 -60.5c-13.333 0 -25.833 0.666992 -37.5 2s-20.167 2.66602 -25.5 3.99902l-7 1l15 147c12.667 -2.66699 24.334 -4 35.001 -4c27.334 0 49.167 7 65.5 21s24.5 32 24.5 54s-8.16699 40 -24.5 54s-38.166 21 -65.499 21h-30v140h10
c20.667 0 37.5 6 50.5 18s19.5 27.667 19.5 47s-6.5 35 -19.5 47s-29.833 18 -50.5 18c-22.667 0 -40.834 -7.33301 -54.5 -22c-13.667 -14.667 -20.5 -34.667 -20.5 -60z" />
    <glyph glyph-name="agrave" unicode="&#xe0;" horiz-adv-x="575" 
d="M30 147c0 47.333 18.666 86.332 55.999 116.999s86.333 46 147 46c45.333 0 84.333 -8.66699 117 -26v11c0 26 -9.33301 46.667 -28 62s-42.667 23 -72 23c-20.667 0 -41 -3 -61 -9s-35 -11.667 -45 -17l-14 -9l-70 115c6 5.33301 15 11.833 27 19.5s37.833 18 77.5 31
s80.834 19.5 123.501 19.5c74.667 0 133.667 -21.167 177 -63.5s65 -100.166 65 -173.499v-293h-140l-13 39c-38 -32.667 -88 -49 -150 -49c-60.667 0 -108.667 14.333 -144 43s-53 66.667 -53 114zM330.999 739.999l60 -170h-140l-110 170h190zM209.999 154.999
c0 -16 6.66699 -29.167 20 -39.5s30.666 -15.5 51.999 -15.5s38.833 5.33301 52.5 16s20.5 23.667 20.5 39s-6.83301 28.333 -20.5 39s-31.167 16 -52.5 16s-38.666 -5.16699 -51.999 -15.5s-20 -23.5 -20 -39.5z" />
    <glyph glyph-name="aacute" unicode="&#xe1;" horiz-adv-x="575" 
d="M30 147c0 47.333 18.666 86.332 55.999 116.999s86.333 46 147 46c45.333 0 84.333 -8.66699 117 -26v11c0 26 -9.33301 46.667 -28 62s-42.667 23 -72 23c-20.667 0 -41 -3 -61 -9s-35 -11.667 -45 -17l-14 -9l-70 115c6 5.33301 15 11.833 27 19.5s37.833 18 77.5 31
s80.834 19.5 123.501 19.5c74.667 0 133.667 -21.167 177 -63.5s65 -100.166 65 -173.499v-293h-140l-13 39c-38 -32.667 -88 -49 -150 -49c-60.667 0 -108.667 14.333 -144 43s-53 66.667 -53 114zM211.999 569.999l60 170h190l-110 -170h-140zM209.999 154.999
c0 -16 6.66699 -29.167 20 -39.5s30.666 -15.5 51.999 -15.5s38.833 5.33301 52.5 16s20.5 23.667 20.5 39s-6.83301 28.333 -20.5 39s-31.167 16 -52.5 16s-38.666 -5.16699 -51.999 -15.5s-20 -23.5 -20 -39.5z" />
    <glyph glyph-name="acircumflex" unicode="&#xe2;" horiz-adv-x="575" 
d="M30 147c0 47.333 18.666 86.332 55.999 116.999s86.333 46 147 46c45.333 0 84.333 -8.66699 117 -26v11c0 26 -9.33301 46.667 -28 62s-42.667 23 -72 23c-20.667 0 -41 -3 -61 -9s-35 -11.667 -45 -17l-14 -9l-70 115c6 5.33301 15 11.833 27 19.5s37.833 18 77.5 31
s80.834 19.5 123.501 19.5c74.667 0 133.667 -21.167 177 -63.5s65 -100.166 65 -173.499v-293h-140l-13 39c-38 -32.667 -88 -49 -150 -49c-60.667 0 -108.667 14.333 -144 43s-53 66.667 -53 114zM81.999 569.999l135 170h160l135 -170h-153l-65 67l-65 -67h-147z
M209.999 154.999c0 -16 6.66699 -29.167 20 -39.5s30.666 -15.5 51.999 -15.5s38.833 5.33301 52.5 16s20.5 23.667 20.5 39s-6.83301 28.333 -20.5 39s-31.167 16 -52.5 16s-38.666 -5.16699 -51.999 -15.5s-20 -23.5 -20 -39.5z" />
    <glyph glyph-name="atilde" unicode="&#xe3;" horiz-adv-x="575" 
d="M30 147c0 47.333 18.666 86.332 55.999 116.999s86.333 46 147 46c45.333 0 84.333 -8.66699 117 -26v11c0 26 -9.33301 46.667 -28 62s-42.667 23 -72 23c-20.667 0 -41 -3 -61 -9s-35 -11.667 -45 -17l-14 -9l-70 115c6 5.33301 15 11.833 27 19.5s37.833 18 77.5 31
s80.834 19.5 123.501 19.5c74.667 0 133.667 -21.167 177 -63.5s65 -100.166 65 -173.499v-293h-140l-13 39c-38 -32.667 -88 -49 -150 -49c-60.667 0 -108.667 14.333 -144 43s-53 66.667 -53 114zM207.999 582.999l-84 9.00098c0 4 0.333008 9.33301 1 16
s3.16699 18.5 7.5 35.5s10.166 32 17.499 45s18.5 24.833 33.5 35.5s32.833 16 53.5 16c22 0 41.5 -5.33301 58.5 -16s31.667 -21.334 44 -32.001c12.335 -10.667 24.168 -16 35.5 -16c8 0 14.667 4.33301 20 13c5.33594 8.66699 8.66895 17 9.99902 25l2 13l84 -9
c0 -4 -0.333008 -9.33301 -1 -16s-3.16699 -18.5 -7.5 -35.5s-10.166 -32 -17.499 -45s-18.666 -24.833 -33.999 -35.5s-33.333 -16 -54 -16c-21.333 0 -40.5 5.33301 -57.5 16c-17 10.6709 -31.833 21.3379 -44.5 32c-12.667 10.667 -24.667 16 -36 16
c-8 0 -14.5 -4.33301 -19.5 -13s-8.16699 -17 -9.5 -25zM209.999 155c0 -16 6.66699 -29.167 20 -39.5s30.666 -15.5 51.999 -15.5s38.833 5.33301 52.5 16s20.5 23.667 20.5 39s-6.83301 28.333 -20.5 39s-31.167 16 -52.5 16s-38.666 -5.16699 -51.999 -15.5
s-20 -23.5 -20 -39.5z" />
    <glyph glyph-name="adieresis" unicode="&#xe4;" horiz-adv-x="575" 
d="M30 147c0 47.333 18.666 86.332 55.999 116.999s86.333 46 147 46c45.333 0 84.333 -8.66699 117 -26v11c0 26 -9.33301 46.667 -28 62s-42.667 23 -72 23c-20.667 0 -41 -3 -61 -9s-35 -11.667 -45 -17l-14 -9l-70 115c6 5.33301 15 11.833 27 19.5s37.833 18 77.5 31
s80.834 19.5 123.501 19.5c74.667 0 133.667 -21.167 177 -63.5s65 -100.166 65 -173.499v-293h-140l-13 39c-38 -32.667 -88 -49 -150 -49c-60.667 0 -108.667 14.333 -144 43s-53 66.667 -53 114zM321.999 658.999c0 26 8.66699 47.667 26 65s39 26 65 26
s47.333 -8.33301 64 -25s25 -38 25 -64s-8.66699 -47.667 -26 -65s-39 -26 -65 -26s-47.333 8.33301 -64 25s-25 38 -25 64zM91.999 658.999c0 26 8.66699 47.667 26 65s39 26 65 26s47.333 -8.33301 64 -25s25 -38 25 -64s-8.66699 -47.667 -26 -65s-39 -26 -65 -26
s-47.333 8.33301 -64 25s-25 38 -25 64zM209.999 154.999c0 -16 6.66699 -29.167 20 -39.5s30.666 -15.5 51.999 -15.5s38.833 5.33301 52.5 16s20.5 23.667 20.5 39s-6.83301 28.333 -20.5 39s-31.167 16 -52.5 16s-38.666 -5.16699 -51.999 -15.5s-20 -23.5 -20 -39.5z
" />
    <glyph glyph-name="aring" unicode="&#xe5;" horiz-adv-x="575" 
d="M30 147c0 47.333 18.666 86.332 55.999 116.999s86.333 46 147 46c45.333 0 84.333 -8.66699 117 -26v11c0 26 -9.33301 46.667 -28 62s-42.667 23 -72 23c-20.667 0 -41 -3 -61 -9s-35 -11.667 -45 -17l-14 -9l-70 115c6 5.33301 15 11.833 27 19.5s37.833 18 77.5 31
s80.834 19.5 123.501 19.5c74.667 0 133.667 -21.167 177 -63.5s65 -100.166 65 -173.499v-293h-140l-13 39c-38 -32.667 -88 -49 -150 -49c-60.667 0 -108.667 14.333 -144 43s-53 66.667 -53 114zM186.999 664.999c0 30.668 10.333 55.8369 31 75.502
c20.667 19.667 47 29.5 79 29.5s58.333 -9.83301 79 -29.5s31 -44.834 31 -75.501s-10.333 -55.834 -31 -75.501s-47 -29.5 -79 -29.5s-58.333 9.83301 -79 29.5c-20.667 19.668 -31 44.835 -31 75.5zM209.999 155.001c0 -16 6.66699 -29.167 20 -39.5
s30.666 -15.5 51.999 -15.5s38.833 5.33301 52.5 16s20.5 23.667 20.5 39s-6.83301 28.333 -20.5 39s-31.167 16 -52.5 16s-38.666 -5.16699 -51.999 -15.5s-20 -23.5 -20 -39.5zM253.999 665.001c0 -12 3.99902 -22.167 11.999 -30.5s18.333 -12.5 31 -12.5
s22.834 4.16699 30.501 12.5s11.5 18.5 11.5 30.5s-3.83301 22 -11.5 30c-7.66797 8 -17.835 12 -30.5 12c-12.667 0 -23 -4 -31 -12s-12 -18 -12 -30z" />
    <glyph glyph-name="ae" unicode="&#xe6;" horiz-adv-x="920" 
d="M30 147c0 47.333 18.6641 86.3359 55.9971 117.003s86.333 46 147 46c45.333 0 84.333 -8.66699 117 -26v11c0 26 -9.33301 46.667 -28 62s-42.667 23 -72 23c-20.667 0 -41 -3 -61 -9s-35 -11.667 -45 -17l-14 -9l-70 115c6 5.33301 15 11.833 27 19.5
s37.833 18 77.5 31s80.834 19.5 123.501 19.5c71.333 0 127.333 -24 168 -72c51.333 48 110.333 72 177 72c73.333 0 135.333 -24.333 186 -73s76 -106.667 76 -174c0 -11.333 -0.833008 -22.333 -2.5 -33s-3.16699 -18.334 -4.5 -23.001l-3 -7h-351
c6 -22.667 18.833 -40.834 38.5 -54.501s43.834 -20.5 72.5 -20.5c22 0 42.667 3.66699 62 11s33 14.666 41 21.999l12 12l105 -105c-2 -2.66699 -4.83301 -6.16699 -8.5 -10.5s-12.5 -11.833 -26.5 -22.5s-29.167 -20.167 -45.5 -28.5
c-16.3359 -8.33301 -38.1689 -16 -65.499 -23c-27.333 -7 -56.333 -10.5 -87 -10.5c-74.667 0 -137 26 -187 78c-42.667 -52 -107 -78 -193 -78c-69.333 0 -123.666 14.333 -162.999 43s-59 66.667 -59 114zM209.997 155.003c0 -16 6.66699 -29.167 20 -39.5
s30.666 -15.5 51.999 -15.5s38.833 5.33301 52.5 16s20.5 23.667 20.5 39s-6.83301 28.333 -20.5 39s-31.167 16 -52.5 16s-38.666 -5.16699 -51.999 -15.5s-20 -23.5 -20 -39.5zM629.997 400.003c-24 0 -44.999 -7.00098 -62.999 -21.001s-29.667 -32 -35 -54h191
c-4 20.667 -14.833 38.334 -32.5 53.001s-37.834 22 -60.501 22z" />
    <glyph glyph-name="ccedilla" unicode="&#xe7;" horiz-adv-x="534" 
d="M402 202l121.999 -117c-4 -5.33301 -9.66699 -11.833 -17 -19.5s-24 -19.5 -50 -35.5s-53.667 -27 -83 -33c6.66699 -15.333 10 -31 10 -47c0 -44 -16.5 -79.167 -49.5 -105.5s-71.5 -39.5 -115.5 -39.5c-18.667 0 -36.667 2.16699 -54 6.5s-30.333 8.5 -39 12.5l-12 7
l35 102c12.667 -8.66699 30 -13 52 -13c17.333 0 31.333 4.16699 42 12.5s16 20.166 16 35.499c0 10.667 -4.33301 20.334 -13 29.001c-64.667 13.333 -116.834 43.666 -156.501 90.999s-59.5 103.666 -59.5 168.999c0 76.667 27.667 141.334 83 194.001
s123.666 79 204.999 79c40.667 0 78 -7.33301 112 -22c34 -14.668 58 -29.335 72 -44.001l20 -21l-124 -120c-2 3.33301 -4.83301 7.33301 -8.5 12s-12.667 10.834 -27 18.501s-30.166 11.5 -47.499 11.5c-30 0 -55 -10.167 -75 -30.5s-30 -45.166 -30 -74.499
c0 -29.334 10 -54.167 30 -74.5s45 -30.5 75 -30.5c18.667 0 35.334 3.83301 50.001 11.5s24.334 15.5 29.001 23.5z" />
    <glyph glyph-name="egrave" unicode="&#xe8;" horiz-adv-x="600" 
d="M565 220l-351.003 0.000976562c6 -22.667 18.833 -40.834 38.5 -54.501s43.834 -20.5 72.501 -20.5c22 0 42.667 3.66699 62 11s33 14.666 41 21.999l12 12l105 -105c-2 -2.66699 -4.83301 -6.16699 -8.5 -10.5s-12.5 -11.833 -26.5 -22.5s-29.167 -20.167 -45.5 -28.5
s-38.166 -16 -65.499 -23s-56.333 -10.5 -87 -10.5c-81.333 0 -148.666 25.333 -201.999 76s-80 114.334 -80 191.001s27.167 141.334 81.5 194.001s121.5 79 201.5 79c73.333 0 135.333 -24.333 186 -73s76 -106.667 76 -174c0 -11.333 -0.833008 -22.333 -2.5 -33
s-3.16699 -18.334 -4.5 -23.001zM344.997 740.001l60 -170h-140l-110 170h190zM309.997 400.001c-24 0 -45 -7.00098 -63 -21.001s-29.667 -32 -35 -54h191c-4 20.667 -14.833 38.334 -32.5 53.001s-37.834 22 -60.5 22z" />
    <glyph glyph-name="eacute" unicode="&#xe9;" horiz-adv-x="600" 
d="M565 220l-351.003 0.000976562c6 -22.667 18.833 -40.834 38.5 -54.501s43.834 -20.5 72.501 -20.5c22 0 42.667 3.66699 62 11s33 14.666 41 21.999l12 12l105 -105c-2 -2.66699 -4.83301 -6.16699 -8.5 -10.5s-12.5 -11.833 -26.5 -22.5s-29.167 -20.167 -45.5 -28.5
s-38.166 -16 -65.499 -23s-56.333 -10.5 -87 -10.5c-81.333 0 -148.666 25.333 -201.999 76s-80 114.334 -80 191.001s27.167 141.334 81.5 194.001s121.5 79 201.5 79c73.333 0 135.333 -24.333 186 -73s76 -106.667 76 -174c0 -11.333 -0.833008 -22.333 -2.5 -33
s-3.16699 -18.334 -4.5 -23.001zM254.997 570.001l60 170h190l-110 -170h-140zM309.997 400.001c-24 0 -45 -7.00098 -63 -21.001s-29.667 -32 -35 -54h191c-4 20.667 -14.833 38.334 -32.5 53.001s-37.834 22 -60.5 22z" />
    <glyph glyph-name="ecircumflex" unicode="&#xea;" horiz-adv-x="600" 
d="M565 220l-351.003 0.000976562c6 -22.667 18.833 -40.834 38.5 -54.501s43.834 -20.5 72.501 -20.5c22 0 42.667 3.66699 62 11s33 14.666 41 21.999l12 12l105 -105c-2 -2.66699 -4.83301 -6.16699 -8.5 -10.5s-12.5 -11.833 -26.5 -22.5s-29.167 -20.167 -45.5 -28.5
s-38.166 -16 -65.499 -23s-56.333 -10.5 -87 -10.5c-81.333 0 -148.666 25.333 -201.999 76s-80 114.334 -80 191.001s27.167 141.334 81.5 194.001s121.5 79 201.5 79c73.333 0 135.333 -24.333 186 -73s76 -106.667 76 -174c0 -11.333 -0.833008 -22.333 -2.5 -33
s-3.16699 -18.334 -4.5 -23.001zM94.9971 570.001l135 170h160l135 -170h-153l-65 67l-65 -67h-147zM309.997 400.001c-24 0 -45 -7.00098 -63 -21.001s-29.667 -32 -35 -54h191c-4 20.667 -14.833 38.334 -32.5 53.001s-37.834 22 -60.5 22z" />
    <glyph glyph-name="edieresis" unicode="&#xeb;" horiz-adv-x="600" 
d="M565 220l-351.003 0.000976562c6 -22.667 18.833 -40.834 38.5 -54.501s43.834 -20.5 72.501 -20.5c22 0 42.667 3.66699 62 11s33 14.666 41 21.999l12 12l105 -105c-2 -2.66699 -4.83301 -6.16699 -8.5 -10.5s-12.5 -11.833 -26.5 -22.5s-29.167 -20.167 -45.5 -28.5
s-38.166 -16 -65.499 -23s-56.333 -10.5 -87 -10.5c-81.333 0 -148.666 25.333 -201.999 76s-80 114.334 -80 191.001s27.167 141.334 81.5 194.001s121.5 79 201.5 79c73.333 0 135.333 -24.333 186 -73s76 -106.667 76 -174c0 -11.333 -0.833008 -22.333 -2.5 -33
s-3.16699 -18.334 -4.5 -23.001zM104.997 659.001c0 26 8.66699 47.667 26 65s39 26 65 26s47.333 -8.33301 64 -25s25 -38 25 -64s-8.66699 -47.667 -26 -65s-39 -26 -65 -26s-47.333 8.33301 -64 25s-25 38 -25 64zM334.997 659.001c0 26 8.66699 47.667 26 65
s39 26 65 26s47.333 -8.33301 64 -25s25 -38 25 -64s-8.66699 -47.667 -26 -65s-39 -26 -65 -26s-47.333 8.33301 -64 25s-25 38 -25 64zM309.997 400.001c-24 0 -45 -7.00098 -63 -21.001s-29.667 -32 -35 -54h191c-4 20.667 -14.833 38.334 -32.5 53.001
s-37.834 22 -60.5 22z" />
    <glyph glyph-name="igrave" unicode="&#xec;" horiz-adv-x="292" 
d="M161 740l60 -170h-140l-110 170h190zM55 0v520h182v-520h-182z" />
    <glyph glyph-name="iacute" unicode="&#xed;" horiz-adv-x="292" 
d="M71 570l60 170h190l-110 -170h-140zM55 0v520h182v-520h-182z" />
    <glyph glyph-name="icircumflex" unicode="&#xee;" horiz-adv-x="292" 
d="M55 0v520h182v-520h-182zM-69 570l135 170h160l135 -170h-153l-65 67l-65 -67h-147z" />
    <glyph glyph-name="idieresis" unicode="&#xef;" horiz-adv-x="292" 
d="M-59 659c0 26 8.66699 47.667 26 65s39 26 65 26s47.333 -8.33301 64 -25s25 -38 25 -64s-8.66699 -47.667 -26 -65s-39 -26 -65 -26s-47.333 8.33301 -64 25s-25 38 -25 64zM171 659c0 26 8.66699 47.667 26 65s39 26 65 26s47.333 -8.33301 64 -25s25 -38 25 -64
s-8.66699 -47.667 -26 -65s-39 -26 -65 -26s-47.333 8.33301 -64 25s-25 38 -25 64zM55 0v520h182v-520h-182z" />
    <glyph glyph-name="eth" unicode="&#xf0;" horiz-adv-x="630" 
d="M556 615l-114 -25l86 -122c48 -67.333 72 -136.666 72 -207.999c0 -76.667 -28.833 -140.834 -86.5 -192.501s-124.834 -77.5 -201.5 -77.5c-80 0 -147 24.167 -201 72.5s-81 113.166 -81 194.499c0 68.667 24.833 126.334 74.5 173.001s107.5 70 173.5 70
c10 0 23.667 -2 41 -6l-44 59l-151 -33v90l93 20l-52 70h200l22 -32l169 37v-90zM210 260c0 -29.334 10 -54.167 30 -74.5s45 -30.5 75 -30.5s55 10.167 75 30.5s30 45.166 30 74.499c0 29.334 -10 54.167 -30 74.5s-45 30.5 -75 30.5s-55 -10.167 -75 -30.5
s-30 -45.166 -30 -74.499z" />
    <glyph glyph-name="ntilde" unicode="&#xf1;" horiz-adv-x="615" 
d="M230 270v-270h-180v520h160l8 -70c37.333 53.333 90.666 80 159.999 80c56.667 0 102.834 -18.167 138.501 -54.5s53.5 -85.5 53.5 -147.5v-328h-180v270c0 31.333 -7 55 -21 71s-33 24 -57 24c-24.667 0 -44.5 -8 -59.5 -24s-22.5 -39.667 -22.5 -71zM208 583
l-84 9.00098c0 4 0.333008 9.33301 1 16s3.16699 18.5 7.5 35.5s10.166 32 17.499 45s18.5 24.833 33.5 35.5s32.833 16 53.5 16c22 0 41.5 -5.33301 58.5 -16s31.667 -21.334 44 -32.001c12.335 -10.667 24.168 -16 35.5 -16c8 0 14.667 4.33301 20 13
c5.33594 8.66699 8.66895 17 9.99902 25l2 13l84 -9c0 -4 -0.333008 -9.33301 -1 -16s-3.16699 -18.5 -7.5 -35.5s-10.166 -32 -17.499 -45s-18.666 -24.833 -33.999 -35.5s-33.333 -16 -54 -16c-21.333 0 -40.5 5.33301 -57.5 16c-17 10.6709 -31.833 21.3379 -44.5 32
c-12.667 10.667 -24.667 16 -36 16c-8 0 -14.5 -4.33301 -19.5 -13s-8.16699 -17 -9.5 -25z" />
    <glyph glyph-name="ograve" unicode="&#xf2;" horiz-adv-x="630" 
d="M30 257c0 76.667 27.666 141.333 82.999 194s123.666 79 204.999 79c81.334 0 148.667 -25.333 202 -76s80 -114.334 80 -191c0 -76.667 -27.667 -141.334 -83 -194.001s-123.666 -79 -204.999 -79s-148.666 25.333 -201.999 76s-80 114.334 -80 191.001z
M209.999 259.999c0 -29.334 10 -54.167 30 -74.5s45 -30.5 75 -30.5s55 10.167 75 30.5s30 45.166 30 74.499c0 29.334 -10 54.167 -30 74.5s-45 30.5 -75 30.5s-55 -10.167 -75 -30.5s-30 -45.166 -30 -74.499zM339.999 739.999l60 -170h-140l-110 170h190z" />
    <glyph glyph-name="oacute" unicode="&#xf3;" horiz-adv-x="630" 
d="M30 257c0 76.667 27.666 141.333 82.999 194s123.666 79 204.999 79c81.334 0 148.667 -25.333 202 -76s80 -114.334 80 -191c0 -76.667 -27.667 -141.334 -83 -194.001s-123.666 -79 -204.999 -79s-148.666 25.333 -201.999 76s-80 114.334 -80 191.001z
M209.999 259.999c0 -29.334 10 -54.167 30 -74.5s45 -30.5 75 -30.5s55 10.167 75 30.5s30 45.166 30 74.499c0 29.334 -10 54.167 -30 74.5s-45 30.5 -75 30.5s-55 -10.167 -75 -30.5s-30 -45.166 -30 -74.499zM229.999 569.999l60 170h190l-110 -170h-140z" />
    <glyph glyph-name="ocircumflex" unicode="&#xf4;" horiz-adv-x="630" 
d="M30 257c0 76.667 27.666 141.333 82.999 194s123.666 79 204.999 79c81.334 0 148.667 -25.333 202 -76s80 -114.334 80 -191c0 -76.667 -27.667 -141.334 -83 -194.001s-123.666 -79 -204.999 -79s-148.666 25.333 -201.999 76s-80 114.334 -80 191.001zM99.999 569.999
l135 170h160l135 -170h-153l-65 67l-65 -67h-147zM209.999 259.999c0 -29.334 10 -54.167 30 -74.5s45 -30.5 75 -30.5s55 10.167 75 30.5s30 45.166 30 74.499c0 29.334 -10 54.167 -30 74.5s-45 30.5 -75 30.5s-55 -10.167 -75 -30.5s-30 -45.166 -30 -74.499z" />
    <glyph glyph-name="otilde" unicode="&#xf5;" horiz-adv-x="630" 
d="M30 257c0 76.667 27.666 141.333 82.999 194s123.666 79 204.999 79c81.334 0 148.667 -25.333 202 -76s80 -114.334 80 -191c0 -76.667 -27.667 -141.334 -83 -194.001s-123.666 -79 -204.999 -79s-148.666 25.333 -201.999 76s-80 114.334 -80 191.001z
M209.999 259.999c0 -29.334 10 -54.167 30 -74.5s45 -30.5 75 -30.5s55 10.167 75 30.5s30 45.166 30 74.499c0 29.334 -10 54.167 -30 74.5s-45 30.5 -75 30.5s-55 -10.167 -75 -30.5s-30 -45.166 -30 -74.499zM214.999 582.999l-84.001 9.00098c0 4 0.333008 9.33301 1 16
s3.16699 18.5 7.5 35.5s10.166 32 17.499 45s18.5 24.833 33.5 35.5s32.833 16 53.5 16c22 0 41.5 -5.33301 58.5 -16s31.667 -21.334 44 -32.001c12.335 -10.667 24.168 -16 35.5 -16c8 0 14.667 4.33301 20 13c5.33984 8.66699 8.67285 17 10 25l2 13l84 -9
c0 -4 -0.333008 -9.33301 -1 -16s-3.16699 -18.5 -7.5 -35.5s-10.166 -32 -17.499 -45s-18.666 -24.833 -33.999 -35.5s-33.333 -16 -54 -16c-21.333 0 -40.5 5.33301 -57.5 16c-17 10.6709 -31.833 21.3379 -44.5 32c-12.667 10.667 -24.667 16 -36 16
c-8 0 -14.667 -4.33301 -20 -13c-5.33496 -8.66699 -8.66797 -17 -10 -25z" />
    <glyph glyph-name="odieresis" unicode="&#xf6;" horiz-adv-x="630" 
d="M30 257c0 76.667 27.666 141.333 82.999 194s123.666 79 204.999 79c81.334 0 148.667 -25.333 202 -76s80 -114.334 80 -191c0 -76.667 -27.667 -141.334 -83 -194.001s-123.666 -79 -204.999 -79s-148.666 25.333 -201.999 76s-80 114.334 -80 191.001z
M209.999 259.999c0 -29.334 10 -54.167 30 -74.5s45 -30.5 75 -30.5s55 10.167 75 30.5s30 45.166 30 74.499c0 29.334 -10 54.167 -30 74.5s-45 30.5 -75 30.5s-55 -10.167 -75 -30.5s-30 -45.166 -30 -74.499zM109.999 658.999c0 26 8.66699 47.667 26 65s39 26 65 26
s47.333 -8.33301 64 -25s25 -38 25 -64s-8.66699 -47.667 -26 -65s-39 -26 -65 -26s-47.333 8.33301 -64 25s-25 38 -25 64zM339.999 658.999c0 26 8.66699 47.667 26 65s39 26 65 26s47.333 -8.33301 64 -25s25 -38 25 -64s-8.66699 -47.667 -26 -65s-39 -26 -65 -26
s-47.333 8.33301 -64 25s-25 38 -25 64z" />
    <glyph glyph-name="divide" unicode="&#xf7;" 
d="M211 574c0 27.333 9.66504 50.667 28.998 70c19.334 19.333 42.667 29 70 29c27.334 0 50.667 -9.66699 70 -29c19.333 -19.3359 29 -42.6689 29 -70c0 -27.335 -9.66699 -50.668 -29 -69.999c-19.333 -19.333 -42.666 -29 -69.999 -29s-50.666 9.66699 -69.999 29
s-29 42.666 -29 69.999zM210.998 136.001c0 27.333 9.66504 50.666 28.998 69.999c19.334 19.333 42.667 29 70 29c27.334 0 50.667 -9.66699 70 -29s29 -42.666 29 -69.999s-9.66699 -50.666 -29 -69.999s-42.666 -29 -69.999 -29s-50.666 9.66699 -69.999 29
s-29 42.666 -29 69.999zM569.996 280.001h-520v150h520v-150z" />
    <glyph glyph-name="oslash" unicode="&#xf8;" horiz-adv-x="630" 
d="M30 257c0 76.667 27.667 141.334 83 194.001s123.666 79 204.999 79c46.667 0 91 -9.66699 133 -29l39 49h110l-78 -98c52 -50.667 78 -113.667 78 -189c0 -76.667 -27.667 -141.334 -83 -194.001s-123.666 -79 -204.999 -79c-48.667 0 -93 9.66699 -133 29l-39 -49h-110
l78 98c-52 50 -78 113 -78 189zM195 260c0 -24 5.33398 -44.667 16.001 -62l140 177c-12 3.33301 -24 5 -36 5c-34.667 0 -63.334 -11.5 -86.001 -34.5s-34 -51.5 -34 -85.5zM435.001 260c0 21.334 -5.33398 41.667 -16.001 61l-140 -176c12 -3.33301 24 -5 36 -5
c34.667 0 63.334 11.5 86.001 34.5s34 51.5 34 85.5z" />
    <glyph glyph-name="ugrave" unicode="&#xf9;" horiz-adv-x="615" 
d="M385 250v270h180v-520h-160l-8 70c-37.333 -53.333 -90.666 -80 -159.999 -80c-56.667 0 -102.834 18.167 -138.501 54.5s-53.5 85.5 -53.5 147.5v328h180v-270c0 -31.333 7 -55 21 -71s33 -24 57 -24c24.667 0 44.5 8 59.5 24s22.5 39.667 22.5 71zM322 740l60 -170
h-140l-110 170h190z" />
    <glyph glyph-name="uacute" unicode="&#xfa;" horiz-adv-x="615" 
d="M385 250v270h180v-520h-160l-8 70c-37.333 -53.333 -90.666 -80 -159.999 -80c-56.667 0 -102.834 18.167 -138.501 54.5s-53.5 85.5 -53.5 147.5v328h180v-270c0 -31.333 7 -55 21 -71s33 -24 57 -24c24.667 0 44.5 8 59.5 24s22.5 39.667 22.5 71zM232 570l60 170h190
l-110 -170h-140z" />
    <glyph glyph-name="ucircumflex" unicode="&#xfb;" horiz-adv-x="615" 
d="M565 520v-520h-160l-8 70c-37.333 -53.333 -90.666 -80 -159.999 -80c-56.667 0 -102.834 18.167 -138.501 54.5s-53.5 85.5 -53.5 147.5v328h180v-270c0 -31.333 7 -55 21 -71s33 -24 57 -24s43.5 7.5 58.5 22.5s22.833 37.5 23.5 67.5v275h180zM92 570l135 170h160
l135 -170h-153l-65 67l-65 -67h-147z" />
    <glyph glyph-name="udieresis" unicode="&#xfc;" horiz-adv-x="615" 
d="M385 250v270h180v-520h-160l-8 70c-37.333 -53.333 -90.666 -80 -159.999 -80c-56.667 0 -102.834 18.167 -138.501 54.5s-53.5 85.5 -53.5 147.5v328h180v-270c0 -31.333 7 -55 21 -71s33 -24 57 -24c24.667 0 44.5 8 59.5 24s22.5 39.667 22.5 71zM332 659
c0 26 8.66699 47.667 26 65s39 26 65 26s47.333 -8.33301 64 -25s25 -38 25 -64s-8.66699 -47.667 -26 -65s-39 -26 -65 -26s-47.333 8.33301 -64 25s-25 38 -25 64zM102 659c0 26 8.66699 47.667 26 65s39 26 65 26s47.333 -8.33301 64 -25s25 -38 25 -64
s-8.66699 -47.667 -26 -65s-39 -26 -65 -26s-47.333 8.33301 -64 25s-25 38 -25 64z" />
    <glyph glyph-name="yacute" unicode="&#xfd;" horiz-adv-x="555" 
d="M186 10l-196 510.002h200l92 -301l93 301h190l-200 -525c-21.333 -56.667 -49.833 -98.334 -85.5 -125.001s-80.5 -40 -134.5 -40c-27.333 0 -54 3.33301 -80 10c-26 6.66602 -45 13.333 -57 20l-18 10l56 145c20 -16.667 49.667 -25 89 -25c12 0 22.167 1.66699 30.5 5
s13.833 6.66602 16.5 9.99902zM212 570.002l60 170h190l-110 -170h-140z" />
    <glyph glyph-name="thorn" unicode="&#xfe;" horiz-adv-x="645" 
d="M50 -160v859.998h180v-226c38.667 37.333 84.667 56 138 56c68 0 126.167 -25.667 174.5 -77s72.5 -114.666 72.5 -189.999s-25 -139.666 -75 -192.999s-109.333 -80 -178 -80c-52 0 -96 16.333 -132 49v-199h-180zM225 259.998c0 -29.334 10 -54.167 30 -74.5
s45 -30.5 75 -30.5s55 10.167 75 30.5s30 45.166 30 74.499c0 29.334 -10 54.167 -30 74.5s-45 30.5 -75 30.5s-55 -10.167 -75 -30.5s-30 -45.166 -30 -74.499z" />
    <glyph glyph-name="ydieresis" unicode="&#xff;" horiz-adv-x="555" 
d="M186 10l-196 510.002h200l92 -301l93 301h190l-200 -525c-21.333 -56.667 -49.833 -98.334 -85.5 -125.001s-80.5 -40 -134.5 -40c-27.333 0 -54 3.33301 -80 10c-26 6.66602 -45 13.333 -57 20l-18 10l56 145c20 -16.667 49.667 -25 89 -25c12 0 22.167 1.66699 30.5 5
s13.833 6.66602 16.5 9.99902zM307 659.002c0 26 8.66699 47.667 26 65s39 26 65 26s47.333 -8.33301 64 -25s25 -38 25 -64s-8.66699 -47.667 -26 -65s-39 -26 -65 -26s-47.333 8.33301 -64 25s-25 38 -25 64zM77 659.002c0 26 8.66699 47.667 26 65s39 26 65 26
s47.333 -8.33301 64 -25s25 -38 25 -64s-8.66699 -47.667 -26 -65s-39 -26 -65 -26s-47.333 8.33301 -64 25s-25 38 -25 64z" />
    <glyph glyph-name="Amacron" unicode="&#x100;" horiz-adv-x="740" 
d="M465 700l275 -700h-210l-41 120h-248l-41 -120h-200l275 700h190zM190 790v100h360v-100h-360zM365 481l-73 -211h145z" />
    <glyph glyph-name="amacron" unicode="&#x101;" horiz-adv-x="575" 
d="M30 147c0 47.333 18.666 86.332 55.999 116.999s86.333 46 147 46c45.333 0 84.333 -8.66699 117 -26v11c0 26 -9.33301 46.667 -28 62s-42.667 23 -72 23c-20.667 0 -41 -3 -61 -9s-35 -11.667 -45 -17l-14 -9l-70 115c6 5.33301 15 11.833 27 19.5s37.833 18 77.5 31
s80.834 19.5 123.501 19.5c74.667 0 133.667 -21.167 177 -63.5s65 -100.166 65 -173.499v-293h-140l-13 39c-38 -32.667 -88 -49 -150 -49c-60.667 0 -108.667 14.333 -144 43s-53 66.667 -53 114zM116.999 609.999v100h360v-100h-360zM209.999 154.999
c0 -16 6.66699 -29.167 20 -39.5s30.666 -15.5 51.999 -15.5s38.833 5.33301 52.5 16s20.5 23.667 20.5 39s-6.83301 28.333 -20.5 39s-31.167 16 -52.5 16s-38.666 -5.16699 -51.999 -15.5s-20 -23.5 -20 -39.5z" />
    <glyph glyph-name="Abreve" unicode="&#x102;" horiz-adv-x="740" 
d="M465 700l275 -700h-210l-41 120h-248l-41 -120h-200l275 700h190zM194 920l120 0.000976562v-15c0 -16 5 -29 15 -39s24 -15 42 -15c17.333 0 30.833 4.83301 40.5 14.5c9.66699 9.66992 14.5 22.8369 14.5 39.5v15h120v-5c0 -49.335 -16.5 -89.168 -49.5 -119.5
c-33 -30.333 -75.167 -45.5 -126.5 -45.5s-93.5 15.167 -126.5 45.5s-49.5 70.166 -49.5 119.499v5zM437 270.001l-72 211l-73 -211h145z" />
    <glyph glyph-name="abreve" unicode="&#x103;" horiz-adv-x="575" 
d="M30 147c0 47.333 18.666 86.332 55.999 116.999s86.333 46 147 46c45.333 0 84.333 -8.66699 117 -26v11c0 26 -9.33301 46.667 -28 62s-42.667 23 -72 23c-20.667 0 -41 -3 -61 -9s-35 -11.667 -45 -17l-14 -9l-70 115c6 5.33301 15 11.833 27 19.5s37.833 18 77.5 31
s80.834 19.5 123.501 19.5c74.667 0 133.667 -21.167 177 -63.5s65 -100.166 65 -173.499v-293h-140l-13 39c-38 -32.667 -88 -49 -150 -49c-60.667 0 -108.667 14.333 -144 43s-53 66.667 -53 114zM120.999 739.999l120 0.000976562v-15c0 -16 5 -29 15 -39s24 -15 42 -15
c17.333 0 30.833 4.83301 40.5 14.5c9.66699 9.66895 14.5 22.8359 14.5 39.5v15h120v-5c0 -49.335 -16.5 -89.168 -49.5 -119.5c-33 -30.333 -75.167 -45.5 -126.5 -45.5s-93.5 15.167 -126.5 45.5s-49.5 70.166 -49.5 119.499v5zM209.999 155
c0 -16 6.66699 -29.167 20 -39.5s30.666 -15.5 51.999 -15.5s38.833 5.33301 52.5 16s20.5 23.667 20.5 39s-6.83301 28.333 -20.5 39s-31.167 16 -52.5 16s-38.666 -5.16699 -51.999 -15.5s-20 -23.5 -20 -39.5z" />
    <glyph glyph-name="Aogonek" unicode="&#x104;" horiz-adv-x="740" 
d="M465 700l275 -699.999h-94c-0.666992 0 -2.16699 -1 -4.5 -3s-4.83301 -5.66699 -7.5 -11s-4 -11.333 -4 -18c0 -10.667 4.33301 -19.667 13 -27c8.66797 -7.33301 20.335 -11 35 -11c8.67188 0 16.8389 1 24.5 3c7.66699 2 13.5 3.66699 17.5 5l5 3l25 -100
c-21.333 -17.333 -51.333 -26 -90 -26c-40.667 0 -75 12.167 -103 36.5s-42 57.166 -42 98.499c0 20.667 4.33301 39 13 55l-39 115h-248l-41 -120h-200l275 700h190zM437 270.001l-72 211l-73 -211h145z" />
    <glyph glyph-name="aogonek" unicode="&#x105;" horiz-adv-x="575" 
d="M30 147c0 47.333 18.6641 86.332 55.9971 116.999s86.333 46 147 46c45.333 0 84.333 -8.66699 117 -26v11c0 26 -9.33301 46.667 -28 62s-42.667 23 -72 23c-20.667 0 -41 -3 -61 -9s-35 -11.667 -45 -17l-14 -9l-70 115c6 5.33301 15 11.833 27 19.5s37.833 18 77.5 31
s80.834 19.5 123.501 19.5c74.667 0 133.667 -21.167 177 -63.5s65 -100.166 65 -173.499v-293h-54c-0.666992 0 -2.16699 -1 -4.5 -3s-4.83301 -5.66699 -7.5 -11s-4 -11.333 -4 -18c0 -10.667 4.33301 -19.667 13 -27s20.334 -11 35.001 -11c8.6709 0 16.8379 1 24.501 3
c7.66699 2 13.5 3.66699 17.5 5l5 3l25 -100c-21.333 -17.333 -51.333 -26 -90 -26c-40.667 0 -75 12.167 -103 36.5s-42 57.166 -42 98.499c0 32.667 11.333 60.334 34 83.001l-2 6c-38 -32.667 -88 -49 -150 -49c-60.667 0 -108.667 14.333 -144 43s-53 66.667 -53 114z
M209.997 154.999c0 -16 6.66699 -29.167 20 -39.5s30.666 -15.5 51.999 -15.5s38.833 5.33301 52.5 16s20.5 23.667 20.5 39s-6.83301 28.333 -20.5 39s-31.167 16 -52.5 16s-38.666 -5.16699 -51.999 -15.5s-20 -23.5 -20 -39.5z" />
    <glyph glyph-name="Cacute" unicode="&#x106;" horiz-adv-x="713" 
d="M558 240l135.001 -120.001c-2 -3.33301 -5.33301 -8 -10 -14s-15.5 -16.5 -32.5 -31.5s-35.667 -28.167 -56 -39.5s-47.333 -21.666 -81 -30.999s-69.167 -14 -106.5 -14c-105.333 0 -192.833 34.167 -262.5 102.5s-104.5 153.166 -104.5 254.499
s35.833 187.166 107.5 257.499s160.167 105.5 265.5 105.5c36 0 70 -4 102 -12s58.167 -17.667 78.5 -29s38 -22.833 53 -34.5s25.5 -21.5 31.5 -29.5l10 -12l-141 -122c-1.33301 2 -3 4.33301 -5 7s-7 7.66699 -15 15s-16.833 13.833 -26.5 19.5
c-9.66699 5.6748 -22.667 10.8418 -39 15.501c-16.333 4.66699 -33.5 7 -51.5 7c-52 0 -95 -17.667 -129 -53s-51 -79.333 -51 -132s17 -96.667 51 -132s77 -53 129 -53c19.334 0 37.667 2.5 54.999 7.5c17.333 5 31.333 11.167 42 18.5s20 14.833 28 22.5
s13.667 13.834 17 18.501zM331.001 749.999l60 170h190l-110 -170h-140z" />
    <glyph glyph-name="cacute" unicode="&#x107;" horiz-adv-x="534" 
d="M402 202l121.997 -117.003c-2 -2.66699 -4.83301 -6.16699 -8.5 -10.5s-12.167 -11.833 -25.5 -22.5s-27.5 -20.167 -42.5 -28.5s-34.833 -16 -59.5 -23s-50 -10.5 -76 -10.5c-81.333 0 -148.666 25.333 -201.999 76s-80 114.334 -80 191.001s27.667 141.334 83 194.001
s123.666 79 204.999 79c40.667 0 78 -7.33301 112 -22c34 -14.668 58 -29.335 72 -44.001l20 -21l-124 -120c-2 3.33301 -4.83301 7.33301 -8.5 12s-12.667 10.834 -27 18.501s-30.166 11.5 -47.499 11.5c-30 0 -55 -10.167 -75 -30.5s-30 -45.166 -30 -74.499
c0 -29.334 10 -54.167 30 -74.5s45 -30.5 75 -30.5c18.667 0 35.334 3.83301 50.001 11.5s24.334 15.5 29.001 23.5zM241.997 569.997l60 170h190l-110 -170h-140z" />
    <glyph glyph-name="Ccircumflex" unicode="&#x108;" horiz-adv-x="713" 
d="M558 240l135.001 -120.001c-2 -3.33301 -5.33301 -8 -10 -14s-15.5 -16.5 -32.5 -31.5s-35.667 -28.167 -56 -39.5s-47.333 -21.666 -81 -30.999s-69.167 -14 -106.5 -14c-105.333 0 -192.833 34.167 -262.5 102.5s-104.5 153.166 -104.5 254.499
s35.833 187.166 107.5 257.499s160.167 105.5 265.5 105.5c36 0 70 -4 102 -12s58.167 -17.667 78.5 -29s38 -22.833 53 -34.5s25.5 -21.5 31.5 -29.5l10 -12l-141 -122c-1.33301 2 -3 4.33301 -5 7s-7 7.66699 -15 15s-16.833 13.833 -26.5 19.5
c-9.66699 5.6748 -22.667 10.8418 -39 15.501c-16.333 4.66699 -33.5 7 -51.5 7c-52 0 -95 -17.667 -129 -53s-51 -79.333 -51 -132s17 -96.667 51 -132s77 -53 129 -53c19.334 0 37.667 2.5 54.999 7.5c17.333 5 31.333 11.167 42 18.5s20 14.833 28 22.5
s13.667 13.834 17 18.501zM195.001 749.999l135 170h160l135 -170h-153l-65 67l-65 -67h-147z" />
    <glyph glyph-name="ccircumflex" unicode="&#x109;" horiz-adv-x="534" 
d="M402 202l121.997 -117.003c-2 -2.66699 -4.83301 -6.16699 -8.5 -10.5s-12.167 -11.833 -25.5 -22.5s-27.5 -20.167 -42.5 -28.5s-34.833 -16 -59.5 -23s-50 -10.5 -76 -10.5c-81.333 0 -148.666 25.333 -201.999 76s-80 114.334 -80 191.001s27.667 141.334 83 194.001
s123.666 79 204.999 79c40.667 0 78 -7.33301 112 -22c34 -14.668 58 -29.335 72 -44.001l20 -21l-124 -120c-2 3.33301 -4.83301 7.33301 -8.5 12s-12.667 10.834 -27 18.501s-30.166 11.5 -47.499 11.5c-30 0 -55 -10.167 -75 -30.5s-30 -45.166 -30 -74.499
c0 -29.334 10 -54.167 30 -74.5s45 -30.5 75 -30.5c18.667 0 35.334 3.83301 50.001 11.5s24.334 15.5 29.001 23.5zM101.997 569.997l135 170h160l135 -170h-153l-65 67l-65 -67h-147z" />
    <glyph glyph-name="Cdotaccent" unicode="&#x10a;" horiz-adv-x="713" 
d="M558 240l135.001 -120.001c-2 -3.33301 -5.33301 -8 -10 -14s-15.5 -16.5 -32.5 -31.5s-35.667 -28.167 -56 -39.5s-47.333 -21.666 -81 -30.999s-69.167 -14 -106.5 -14c-105.333 0 -192.833 34.167 -262.5 102.5s-104.5 153.166 -104.5 254.499
s35.833 187.166 107.5 257.499s160.167 105.5 265.5 105.5c36 0 70 -4 102 -12s58.167 -17.667 78.5 -29s38 -22.833 53 -34.5s25.5 -21.5 31.5 -29.5l10 -12l-141 -122c-1.33301 2 -3 4.33301 -5 7s-7 7.66699 -15 15s-16.833 13.833 -26.5 19.5
c-9.66699 5.6748 -22.667 10.8418 -39 15.501c-16.333 4.66699 -33.5 7 -51.5 7c-52 0 -95 -17.667 -129 -53s-51 -79.333 -51 -132s17 -96.667 51 -132s77 -53 129 -53c19.334 0 37.667 2.5 54.999 7.5c17.333 5 31.333 11.167 42 18.5s20 14.833 28 22.5
s13.667 13.834 17 18.501zM320.001 838.999c0 26 8.66699 47.667 26 65s39 26 65 26s47.333 -8.33301 64 -25s25 -38 25 -64s-8.66699 -47.667 -26 -65s-39 -26 -65 -26s-47.333 8.33301 -64 25s-25 38 -25 64z" />
    <glyph glyph-name="cdotaccent" unicode="&#x10b;" horiz-adv-x="534" 
d="M402 202l121.997 -117.003c-2 -2.66699 -4.83301 -6.16699 -8.5 -10.5s-12.167 -11.833 -25.5 -22.5s-27.5 -20.167 -42.5 -28.5s-34.833 -16 -59.5 -23s-50 -10.5 -76 -10.5c-81.333 0 -148.666 25.333 -201.999 76s-80 114.334 -80 191.001s27.667 141.334 83 194.001
s123.666 79 204.999 79c40.667 0 78 -7.33301 112 -22c34 -14.668 58 -29.335 72 -44.001l20 -21l-124 -120c-2 3.33301 -4.83301 7.33301 -8.5 12s-12.667 10.834 -27 18.501s-30.166 11.5 -47.499 11.5c-30 0 -55 -10.167 -75 -30.5s-30 -45.166 -30 -74.499
c0 -29.334 10 -54.167 30 -74.5s45 -30.5 75 -30.5c18.667 0 35.334 3.83301 50.001 11.5s24.334 15.5 29.001 23.5zM226.997 658.997c0 26 8.66699 47.667 26 65s39 26 65 26s47.333 -8.33301 64 -25s25 -38 25 -64s-8.66699 -47.667 -26 -65s-39 -26 -65 -26
s-47.333 8.33301 -64 25s-25 38 -25 64z" />
    <glyph glyph-name="Ccaron" unicode="&#x10c;" horiz-adv-x="713" 
d="M558 240l135.001 -120.001c-2 -3.33301 -5.33301 -8 -10 -14s-15.5 -16.5 -32.5 -31.5s-35.667 -28.167 -56 -39.5s-47.333 -21.666 -81 -30.999s-69.167 -14 -106.5 -14c-105.333 0 -192.833 34.167 -262.5 102.5s-104.5 153.166 -104.5 254.499
s35.833 187.166 107.5 257.499s160.167 105.5 265.5 105.5c36 0 70 -4 102 -12s58.167 -17.667 78.5 -29s38 -22.833 53 -34.5s25.5 -21.5 31.5 -29.5l10 -12l-141 -122c-1.33301 2 -3 4.33301 -5 7s-7 7.66699 -15 15s-16.833 13.833 -26.5 19.5
c-9.66699 5.6748 -22.667 10.8418 -39 15.501c-16.333 4.66699 -33.5 7 -51.5 7c-52 0 -95 -17.667 -129 -53s-51 -79.333 -51 -132s17 -96.667 51 -132s77 -53 129 -53c19.334 0 37.667 2.5 54.999 7.5c17.333 5 31.333 11.167 42 18.5s20 14.833 28 22.5
s13.667 13.834 17 18.501zM621.001 919.999l-135 -170h-160l-135 170h153l65 -68l65 68h147z" />
    <glyph glyph-name="ccaron" unicode="&#x10d;" horiz-adv-x="534" 
d="M402 202l121.997 -117.003c-2 -2.66699 -4.83301 -6.16699 -8.5 -10.5s-12.167 -11.833 -25.5 -22.5s-27.5 -20.167 -42.5 -28.5s-34.833 -16 -59.5 -23s-50 -10.5 -76 -10.5c-81.333 0 -148.666 25.333 -201.999 76s-80 114.334 -80 191.001s27.667 141.334 83 194.001
s123.666 79 204.999 79c40.667 0 78 -7.33301 112 -22c34 -14.668 58 -29.335 72 -44.001l20 -21l-124 -120c-2 3.33301 -4.83301 7.33301 -8.5 12s-12.667 10.834 -27 18.501s-30.166 11.5 -47.499 11.5c-30 0 -55 -10.167 -75 -30.5s-30 -45.166 -30 -74.499
c0 -29.334 10 -54.167 30 -74.5s45 -30.5 75 -30.5c18.667 0 35.334 3.83301 50.001 11.5s24.334 15.5 29.001 23.5zM531.997 739.997l-135 -170h-160l-135 170h153l65 -68l65 68h147z" />
    <glyph glyph-name="Dcaron" unicode="&#x10e;" horiz-adv-x="760" 
d="M70 0v700h263c112.667 0 205.334 -32.833 278.001 -98.5s109 -148.5 109 -248.5s-37.333 -183.833 -112 -251.5s-168.334 -101.5 -281.001 -101.5h-257zM335 535h-75.001v-370h75c56.667 0 103.334 17.333 140.001 52s55 79 55 133s-18.333 98.333 -55 133
s-83.334 52 -140 52zM584.999 920l-135 -170h-160l-135 170h153l65 -68l65 68h147z" />
    <glyph glyph-name="dcaron" unicode="&#x10f;" horiz-adv-x="855" 
d="M595 700v-699.999h-150l-14 63c-40 -48.667 -91.333 -73 -154 -73c-68 0 -126.167 25.667 -174.5 77s-72.5 114.666 -72.5 189.999c0 75.334 25 139.667 75 193s109.333 80 178 80c52.667 0 96.667 -16.667 132 -50v220h180zM775 430.001h-130l30 270h180zM210 260.001
c0 -29.334 10 -54.167 30 -74.5s45 -30.5 75 -30.5s55 10.167 75 30.5s30 45.166 30 74.499c0 29.334 -10 54.167 -30 74.5s-45 30.5 -75 30.5s-55 -10.167 -75 -30.5s-30 -45.166 -30 -74.499z" />
    <glyph glyph-name="Dcroat" unicode="&#x110;" horiz-adv-x="800" 
d="M110 0v305h-80v100h80v295h263c112.667 0 205.334 -32.833 278.001 -98.5s109 -148.5 109 -248.5s-37.333 -183.833 -112 -251.5s-168.334 -101.5 -281.001 -101.5h-257zM440 305h-140v-140h75c56.667 0 103.334 17.333 140.001 52s55 79 55 133s-18.333 98.333 -55 133
s-83.334 52 -140.001 52h-75v-130h140v-100z" />
    <glyph glyph-name="dcroat" unicode="&#x111;" horiz-adv-x="685" 
d="M595 700v-39.999h70v-100h-70v-560h-150l-14 63c-40 -48.667 -91.333 -73 -154 -73c-68 0 -126.167 25.667 -174.5 77s-72.5 114.666 -72.5 189.999c0 75.334 25 139.667 75 193s109.333 80 178 80c52.667 0 96.667 -16.667 132 -50v80h-110v100h110v40h180zM210 260.001
c0 -29.334 10 -54.167 30 -74.5s45 -30.5 75 -30.5s55 10.167 75 30.5s30 45.166 30 74.499c0 29.334 -10 54.167 -30 74.5s-45 30.5 -75 30.5s-55 -10.167 -75 -30.5s-30 -45.166 -30 -74.499z" />
    <glyph glyph-name="Emacron" unicode="&#x112;" horiz-adv-x="650" 
d="M610 0h-540v700h530v-165h-340v-100h290v-155h-290v-115h350v-165zM155 790v100h360v-100h-360z" />
    <glyph glyph-name="emacron" unicode="&#x113;" horiz-adv-x="600" 
d="M565 220l-351.003 0.000976562c6 -22.667 18.833 -40.834 38.5 -54.501s43.834 -20.5 72.501 -20.5c22 0 42.667 3.66699 62 11s33 14.666 41 21.999l12 12l105 -105c-2 -2.66699 -4.83301 -6.16699 -8.5 -10.5s-12.5 -11.833 -26.5 -22.5s-29.167 -20.167 -45.5 -28.5
s-38.166 -16 -65.499 -23s-56.333 -10.5 -87 -10.5c-81.333 0 -148.666 25.333 -201.999 76s-80 114.334 -80 191.001s27.167 141.334 81.5 194.001s121.5 79 201.5 79c73.333 0 135.333 -24.333 186 -73s76 -106.667 76 -174c0 -11.333 -0.833008 -22.333 -2.5 -33
s-3.16699 -18.334 -4.5 -23.001zM129.997 610.001v100h360v-100h-360zM309.997 400.001c-24 0 -45 -7.00098 -63 -21.001s-29.667 -32 -35 -54h191c-4 20.667 -14.833 38.334 -32.5 53.001s-37.834 22 -60.5 22z" />
    <glyph glyph-name="Ebreve" unicode="&#x114;" horiz-adv-x="650" 
d="M610 0h-540v700h530v-165h-340v-100h290v-155h-290v-115h350v-165zM159 920l120 0.000976562v-15c0 -16 5 -29 15 -39s24 -15 42 -15c17.333 0 30.833 4.83301 40.5 14.5c9.66699 9.66992 14.5 22.8369 14.5 39.5v15h120v-5c0 -49.335 -16.5 -89.168 -49.5 -119.5
c-33 -30.333 -75.167 -45.5 -126.5 -45.5s-93.5 15.167 -126.5 45.5s-49.5 70.166 -49.5 119.499v5z" />
    <glyph glyph-name="ebreve" unicode="&#x115;" horiz-adv-x="600" 
d="M565 220l-351.003 0.000976562c6 -22.667 18.833 -40.834 38.5 -54.501s43.834 -20.5 72.501 -20.5c22 0 42.667 3.66699 62 11s33 14.666 41 21.999l12 12l105 -105c-2 -2.66699 -4.83301 -6.16699 -8.5 -10.5s-12.5 -11.833 -26.5 -22.5s-29.167 -20.167 -45.5 -28.5
s-38.166 -16 -65.499 -23s-56.333 -10.5 -87 -10.5c-81.333 0 -148.666 25.333 -201.999 76s-80 114.334 -80 191.001s27.167 141.334 81.5 194.001s121.5 79 201.5 79c73.333 0 135.333 -24.333 186 -73s76 -106.667 76 -174c0 -11.333 -0.833008 -22.333 -2.5 -33
s-3.16699 -18.334 -4.5 -23.001zM133.997 740.001l120 0.000976562v-15c0 -16 5 -29 15 -39s24 -15 42 -15c17.333 0 30.833 4.83301 40.5 14.5c9.66699 9.66895 14.5 22.8359 14.5 39.5v15h120v-5c0 -49.335 -16.5 -89.168 -49.5 -119.5
c-33 -30.333 -75.167 -45.5 -126.5 -45.5s-93.5 15.167 -126.5 45.5s-49.5 70.166 -49.5 119.499v5zM309.997 400.002c-24 0 -45 -7.00098 -63 -21.001s-29.667 -32 -35 -54h191c-4 20.667 -14.833 38.334 -32.5 53.001s-37.834 22 -60.5 22z" />
    <glyph glyph-name="Edotaccent" unicode="&#x116;" horiz-adv-x="650" 
d="M610 0h-540v700h530v-165h-340v-100h290v-155h-290v-115h350v-165zM245 839c0 26 8.66699 47.667 26 65s39 26 65 26s47.333 -8.33301 64 -25s25 -38 25 -64s-8.66699 -47.667 -26 -65s-39 -26 -65 -26s-47.333 8.33301 -64 25s-25 38 -25 64z" />
    <glyph glyph-name="edotaccent" unicode="&#x117;" horiz-adv-x="600" 
d="M565 220l-351.003 0.000976562c6 -22.667 18.833 -40.834 38.5 -54.501s43.834 -20.5 72.501 -20.5c22 0 42.667 3.66699 62 11s33 14.666 41 21.999l12 12l105 -105c-2 -2.66699 -4.83301 -6.16699 -8.5 -10.5s-12.5 -11.833 -26.5 -22.5s-29.167 -20.167 -45.5 -28.5
s-38.166 -16 -65.499 -23s-56.333 -10.5 -87 -10.5c-81.333 0 -148.666 25.333 -201.999 76s-80 114.334 -80 191.001s27.167 141.334 81.5 194.001s121.5 79 201.5 79c73.333 0 135.333 -24.333 186 -73s76 -106.667 76 -174c0 -11.333 -0.833008 -22.333 -2.5 -33
s-3.16699 -18.334 -4.5 -23.001zM219.997 659.001c0 26 8.66699 47.667 26 65s39 26 65 26s47.333 -8.33301 64 -25s25 -38 25 -64s-8.66699 -47.667 -26 -65s-39 -26 -65 -26s-47.333 8.33301 -64 25s-25 38 -25 64zM309.997 400.001c-24 0 -45 -7.00098 -63 -21.001
s-29.667 -32 -35 -54h191c-4 20.667 -14.833 38.334 -32.5 53.001s-37.834 22 -60.5 22z" />
    <glyph glyph-name="Eogonek" unicode="&#x118;" horiz-adv-x="650" 
d="M610 0l-93.001 0.00195312c-11.333 -6.66699 -17 -17.334 -17 -32.001c0 -10.667 4.33301 -19.667 13 -27c8.66797 -7.33301 20.335 -11 35.001 -11c8.6709 0 16.8379 1 24.5 3c7.66699 2 13.5 3.66699 17.5 5l5 3l25 -100c-21.333 -17.333 -51.333 -26 -90 -26
c-40.667 0 -75 12.167 -103 36.5s-42 57.166 -42 98.499c0 18 3.33301 34.667 10 50h-325v700h530v-165h-340v-100h290v-155h-290v-115h350v-165z" />
    <glyph glyph-name="eogonek" unicode="&#x119;" horiz-adv-x="600" 
d="M565 220l-351.003 0.00292969c6 -22.667 18.833 -40.834 38.5 -54.501s43.834 -20.5 72.501 -20.5c22 0 42.667 3.66699 62 11s33 14.666 41 21.999l12 12l105 -105c-4 -5.33301 -9.83301 -11.833 -17.5 -19.5s-25.5 -19.5 -53.5 -35.5s-58.667 -27 -92 -33
c-8 -8 -12 -17.667 -12 -29c0 -10.667 4.33301 -19.667 13 -27s20.334 -11 35.001 -11c8.66699 0 16.834 1 24.501 3s13.5 3.66699 17.5 5l5 3l25 -100c-21.333 -17.333 -51.333 -26 -90 -26c-40.667 0 -75 12.167 -103 36.5s-42 57.166 -42 98.499
c0 15.333 2.66699 30 8 44c-69.333 10 -125.5 39.167 -168.5 87.5s-64.5 106.833 -64.5 175.5c0 76.667 27.167 141.334 81.5 194.001s121.5 79 201.5 79c73.333 0 135.333 -24.333 186 -73s76 -106.667 76 -174c0 -11.333 -0.833008 -22.333 -2.5 -33
s-3.16699 -18.334 -4.5 -23.001zM309.997 400.003c-24 0 -45 -7.00098 -63 -21.001s-29.667 -32 -35 -54h191c-4 20.667 -14.833 38.334 -32.5 53.001s-37.834 22 -60.5 22z" />
    <glyph glyph-name="Ecaron" unicode="&#x11a;" horiz-adv-x="650" 
d="M610 0h-540v700h530v-165h-340v-100h290v-155h-290v-115h350v-165zM550 920l-135 -170h-160l-135 170h153l65 -68l65 68h147z" />
    <glyph glyph-name="ecaron" unicode="&#x11b;" horiz-adv-x="600" 
d="M565 220l-351.003 0.000976562c6 -22.667 18.833 -40.834 38.5 -54.501s43.834 -20.5 72.501 -20.5c22 0 42.667 3.66699 62 11s33 14.666 41 21.999l12 12l105 -105c-2 -2.66699 -4.83301 -6.16699 -8.5 -10.5s-12.5 -11.833 -26.5 -22.5s-29.167 -20.167 -45.5 -28.5
s-38.166 -16 -65.499 -23s-56.333 -10.5 -87 -10.5c-81.333 0 -148.666 25.333 -201.999 76s-80 114.334 -80 191.001s27.167 141.334 81.5 194.001s121.5 79 201.5 79c73.333 0 135.333 -24.333 186 -73s76 -106.667 76 -174c0 -11.333 -0.833008 -22.333 -2.5 -33
s-3.16699 -18.334 -4.5 -23.001zM524.997 740.001l-135 -170h-160l-135 170h153l65 -68l65 68h147zM309.997 400.001c-24 0 -45 -7.00098 -63 -21.001s-29.667 -32 -35 -54h191c-4 20.667 -14.833 38.334 -32.5 53.001s-37.834 22 -60.5 22z" />
    <glyph glyph-name="Gcircumflex" unicode="&#x11c;" horiz-adv-x="795" 
d="M400 395l351.001 0.00292969c2.66699 -18 4 -35.333 4 -52c0 -100.667 -32 -184.667 -96 -252s-148 -101 -252 -101c-105.333 0 -192.833 34.167 -262.5 102.5s-104.5 153.166 -104.5 254.499s35.833 187.166 107.5 257.499s160.167 105.5 265.5 105.5
c36 0 70 -3.83301 102 -11.5s58.167 -17 78.5 -28s38 -22 53 -33s25.5 -20.167 31.5 -27.5l10 -12l-133 -134c-1.35059 2 -3.18359 4.5 -5.5 7.5c-2.33301 3 -8 8.66699 -17 17c-9 8.33496 -18.667 15.668 -29 21.999c-10.333 6.33301 -23.833 12 -40.5 17
c-16.668 5 -34.335 7.5 -53.001 7.5c-52.667 0 -95.834 -17.667 -129.5 -53c-33.667 -35.333 -50.5 -80 -50.5 -134s17 -98.833 51 -134.5s77 -53.5 129 -53.5c81.333 0 131 33.333 149 100h-159v135zM197.001 750.003l135 170h160l135 -170h-153l-65 67l-65 -67h-147z" />
    <glyph glyph-name="gcircumflex" unicode="&#x11d;" horiz-adv-x="645" 
d="M30 -90l64.9961 130.004c6.66699 -4.66699 15.5 -10.334 26.5 -17.001s32.833 -15.5 65.5 -26.5s63.667 -16.5 93 -16.5c42 0 75 9.5 99 28.5s36 47.167 36 84.5v2c-33.333 -30 -77.666 -45 -132.999 -45c-71.333 0 -131.166 23 -179.499 69s-72.5 102 -72.5 168
c0 69.333 23.833 127.166 71.5 173.499s109.834 69.5 186.501 69.5c56.667 0 105.334 -18.667 146.001 -56l11 46h150v-387c0 -92.667 -26.167 -166.334 -78.5 -221.001s-125.5 -82 -219.5 -82c-49.333 0 -96.333 6.66699 -141 20s-76.667 26.666 -96 39.999z
M106.996 570.004l135 170h160l135 -170h-153l-65 67l-65 -67h-147zM419.996 285.004c0 26.667 -10 49.167 -30 67.5s-45 27.5 -75 27.5s-55 -9.16699 -75 -27.5s-30 -40.833 -30 -67.5s10 -49.167 30 -67.5s45 -27.5 75 -27.5s55 9.16699 75 27.5s30 40.833 30 67.5z" />
    <glyph glyph-name="Gbreve" unicode="&#x11e;" horiz-adv-x="795" 
d="M400 395l351.001 0.00292969c2.66699 -18 4 -35.333 4 -52c0 -100.667 -32 -184.667 -96 -252s-148 -101 -252 -101c-105.333 0 -192.833 34.167 -262.5 102.5s-104.5 153.166 -104.5 254.499s35.833 187.166 107.5 257.499s160.167 105.5 265.5 105.5
c36 0 70 -3.83301 102 -11.5s58.167 -17 78.5 -28s38 -22 53 -33s25.5 -20.167 31.5 -27.5l10 -12l-133 -134c-1.35059 2 -3.18359 4.5 -5.5 7.5c-2.33301 3 -8 8.66699 -17 17c-9 8.33496 -18.667 15.668 -29 21.999c-10.333 6.33301 -23.833 12 -40.5 17
c-16.668 5 -34.335 7.5 -53.001 7.5c-52.667 0 -95.834 -17.667 -129.5 -53c-33.667 -35.333 -50.5 -80 -50.5 -134s17 -98.833 51 -134.5s77 -53.5 129 -53.5c81.333 0 131 33.333 149 100h-159v135zM236.001 920.003l120 0.000976562v-15c0 -16 5 -29 15 -39
s24 -15 42 -15c17.333 0 30.833 4.83301 40.5 14.5c9.66699 9.66992 14.5 22.8369 14.5 39.5v15h120v-5c0 -49.335 -16.5 -89.168 -49.5 -119.5c-33 -30.333 -75.167 -45.5 -126.5 -45.5s-93.5 15.167 -126.5 45.5s-49.5 70.166 -49.5 119.499v5z" />
    <glyph glyph-name="gbreve" unicode="&#x11f;" horiz-adv-x="645" 
d="M30 -90l64.9961 130.004c6.66699 -4.66699 15.5 -10.334 26.5 -17.001s32.833 -15.5 65.5 -26.5s63.667 -16.5 93 -16.5c42 0 75 9.5 99 28.5s36 47.167 36 84.5v2c-33.333 -30 -77.666 -45 -132.999 -45c-71.333 0 -131.166 23 -179.499 69s-72.5 102 -72.5 168
c0 69.333 23.833 127.166 71.5 173.499s109.834 69.5 186.501 69.5c56.667 0 105.334 -18.667 146.001 -56l11 46h150v-387c0 -92.667 -26.167 -166.334 -78.5 -221.001s-125.5 -82 -219.5 -82c-49.333 0 -96.333 6.66699 -141 20s-76.667 26.666 -96 39.999z
M145.996 740.004l120 0.000976562v-15c0 -16 5 -29 15 -39s24 -15 42 -15c17.333 0 30.833 4.83301 40.5 14.5c9.66699 9.66895 14.5 22.8359 14.5 39.5v15h120v-5c0 -49.335 -16.5 -89.168 -49.5 -119.5c-33 -30.333 -75.167 -45.5 -126.5 -45.5s-93.5 15.167 -126.5 45.5
s-49.5 70.166 -49.5 119.499v5zM419.996 285.005c0 26.667 -10 49.167 -30 67.5s-45 27.5 -75 27.5s-55 -9.16699 -75 -27.5s-30 -40.833 -30 -67.5s10 -49.167 30 -67.5s45 -27.5 75 -27.5s55 9.16699 75 27.5s30 40.833 30 67.5z" />
    <glyph glyph-name="Gdotaccent" unicode="&#x120;" horiz-adv-x="795" 
d="M400 395l351.001 0.00292969c2.66699 -18 4 -35.333 4 -52c0 -100.667 -32 -184.667 -96 -252s-148 -101 -252 -101c-105.333 0 -192.833 34.167 -262.5 102.5s-104.5 153.166 -104.5 254.499s35.833 187.166 107.5 257.499s160.167 105.5 265.5 105.5
c36 0 70 -3.83301 102 -11.5s58.167 -17 78.5 -28s38 -22 53 -33s25.5 -20.167 31.5 -27.5l10 -12l-133 -134c-1.35059 2 -3.18359 4.5 -5.5 7.5c-2.33301 3 -8 8.66699 -17 17c-9 8.33496 -18.667 15.668 -29 21.999c-10.333 6.33301 -23.833 12 -40.5 17
c-16.668 5 -34.335 7.5 -53.001 7.5c-52.667 0 -95.834 -17.667 -129.5 -53c-33.667 -35.333 -50.5 -80 -50.5 -134s17 -98.833 51 -134.5s77 -53.5 129 -53.5c81.333 0 131 33.333 149 100h-159v135zM322.001 839.003c0 26 8.66699 47.667 26 65s39 26 65 26
s47.333 -8.33301 64 -25s25 -38 25 -64s-8.66699 -47.667 -26 -65s-39 -26 -65 -26s-47.333 8.33301 -64 25s-25 38 -25 64z" />
    <glyph glyph-name="gdotaccent" unicode="&#x121;" horiz-adv-x="645" 
d="M30 -90l64.9961 130.004c6.66699 -4.66699 15.5 -10.334 26.5 -17.001s32.833 -15.5 65.5 -26.5s63.667 -16.5 93 -16.5c42 0 75 9.5 99 28.5s36 47.167 36 84.5v2c-33.333 -30 -77.666 -45 -132.999 -45c-71.333 0 -131.166 23 -179.499 69s-72.5 102 -72.5 168
c0 69.333 23.833 127.166 71.5 173.499s109.834 69.5 186.501 69.5c56.667 0 105.334 -18.667 146.001 -56l11 46h150v-387c0 -92.667 -26.167 -166.334 -78.5 -221.001s-125.5 -82 -219.5 -82c-49.333 0 -96.333 6.66699 -141 20s-76.667 26.666 -96 39.999z
M419.996 285.004c0 26.667 -10 49.167 -30 67.5s-45 27.5 -75 27.5s-55 -9.16699 -75 -27.5s-30 -40.833 -30 -67.5s10 -49.167 30 -67.5s45 -27.5 75 -27.5s55 9.16699 75 27.5s30 40.833 30 67.5zM231.996 659.004c0 26 8.66699 47.667 26 65s39 26 65 26
s47.333 -8.33301 64 -25s25 -38 25 -64s-8.66699 -47.667 -26 -65s-39 -26 -65 -26s-47.333 8.33301 -64 25s-25 38 -25 64z" />
    <glyph glyph-name="Gcommaaccent" unicode="&#x122;" horiz-adv-x="795" 
d="M400 395l351.001 0.00292969c2.66699 -18 4 -35.333 4 -52c0 -100.667 -32 -184.667 -96 -252s-148 -101 -252 -101c-105.333 0 -192.833 34.167 -262.5 102.5s-104.5 153.166 -104.5 254.499s35.833 187.166 107.5 257.499s160.167 105.5 265.5 105.5
c36 0 70 -3.83301 102 -11.5s58.167 -17 78.5 -28s38 -22 53 -33s25.5 -20.167 31.5 -27.5l10 -12l-133 -134c-1.35059 2 -3.18359 4.5 -5.5 7.5c-2.33301 3 -8 8.66699 -17 17c-9 8.33496 -18.667 15.668 -29 21.999c-10.333 6.33301 -23.833 12 -40.5 17
c-16.668 5 -34.335 7.5 -53.001 7.5c-52.667 0 -95.834 -17.667 -129.5 -53c-33.667 -35.333 -50.5 -80 -50.5 -134s17 -98.833 51 -134.5s77 -53.5 129 -53.5c81.333 0 131 33.333 149 100h-159v135zM250.001 -219.997l60 170h190l-110 -170h-140z" />
    <glyph glyph-name="gcommaaccent" unicode="&#x123;" horiz-adv-x="645" 
d="M30 -90l64.9961 130.004c6.66699 -4.66699 15.5 -10.334 26.5 -17.001s32.833 -15.5 65.5 -26.5s63.667 -16.5 93 -16.5c42 0 75 9.5 99 28.5s36 47.167 36 84.5v2c-33.333 -30 -77.666 -45 -132.999 -45c-71.333 0 -131.166 23 -179.499 69s-72.5 102 -72.5 168
c0 69.333 23.833 127.166 71.5 173.499s109.834 69.5 186.501 69.5c56.667 0 105.334 -18.667 146.001 -56l11 46h150v-387c0 -92.667 -26.167 -166.334 -78.5 -221.001s-125.5 -82 -219.5 -82c-49.333 0 -96.333 6.66699 -141 20s-76.667 26.666 -96 39.999z
M419.996 285.004c0 26.667 -10 49.167 -30 67.5s-45 27.5 -75 27.5s-55 -9.16699 -75 -27.5s-30 -40.833 -30 -67.5s10 -49.167 30 -67.5s45 -27.5 75 -27.5s55 9.16699 75 27.5s30 40.833 30 67.5zM484.996 740.004l-60 -170h-190l110 170h140z" />
    <glyph glyph-name="Hcircumflex" unicode="&#x124;" horiz-adv-x="770" 
d="M510 0v275h-250v-275h-190v700h190v-255h250v255h190v-700h-190zM170 750l135 170h160l135 -170h-153l-65 67l-65 -67h-147z" />
    <glyph glyph-name="hcircumflex" unicode="&#x125;" horiz-adv-x="615" 
d="M390 0l0.000976562 269.999c0 31.333 -7 55 -21 71s-33 24 -57 24s-43.5 -7.66699 -58.5 -23s-22.833 -37.666 -23.5 -66.999v-275h-180v700h180v-240c37.333 46.667 86.666 70 147.999 70c55.334 0 101.167 -18.333 137.5 -55s54.5 -85.667 54.5 -147v-328h-180z
M100.001 749.999l135 170h160l135 -170h-153l-65 67l-65 -67h-147z" />
    <glyph glyph-name="Hbar" unicode="&#x126;" horiz-adv-x="850" 
d="M110 0v520h-80v100h80v80h190v-80h250v80h190v-80h80v-100h-80v-520h-190v275h-250v-275h-190zM300 520v-75h250v75h-250z" />
    <glyph glyph-name="hbar" unicode="&#x127;" horiz-adv-x="655" 
d="M90 0l0.000976562 559.999h-70v100h70v40h180v-40h110v-100h-110v-100c37.334 46.667 86.667 70 148 70c55.333 0 101.166 -18.333 137.499 -55s54.5 -85.667 54.5 -147v-328h-180v270c0 31.333 -7 55 -21 71s-33 24 -57 24s-43.5 -7.66699 -58.5 -23
s-22.833 -37.666 -23.5 -66.999v-275h-180z" />
    <glyph glyph-name="Itilde" unicode="&#x128;" horiz-adv-x="345" 
d="M75 0v700h195v-700h-195zM73 763l-84 9c0 4 0.333008 9.33301 1 16s3.16699 18.5 7.5 35.5s10.166 32 17.499 45s18.5 24.833 33.5 35.5s32.833 16 53.5 16c22 0 41.5 -5.33301 58.5 -16s31.667 -21.334 44 -32.001s24.166 -16 35.499 -16c8 0 14.667 4.33301 20 13
c5.33789 8.66699 8.6709 17 10 25l2 13l84 -9c0 -4 -0.333008 -9.33301 -1 -16s-3.16699 -18.5 -7.5 -35.5s-10.166 -32 -17.499 -45s-18.666 -24.833 -33.999 -35.5s-33.333 -16 -54 -16c-21.333 0 -40.5 5.33301 -57.5 16c-17 10.6729 -31.833 21.3398 -44.5 32.001
c-12.667 10.667 -24.667 16 -36 16c-8 0 -14.5 -4.33301 -19.5 -13s-8.16699 -17 -9.5 -25z" />
    <glyph glyph-name="itilde" unicode="&#x129;" horiz-adv-x="292" 
d="M47 583l-83.999 9.00098c0 4 0.333008 9.33301 1 16s3.16699 18.5 7.5 35.5s10.166 32 17.499 45s18.5 24.833 33.5 35.5s32.833 16 53.5 16c22 0 41.5 -5.33301 58.5 -16s31.667 -21.334 44 -32.001s24.166 -16 35.499 -16c8 0 14.667 4.33301 20 13
s8.66602 17 9.99902 25l2 13l84 -9c0 -4 -0.333008 -9.33301 -1 -16s-3.16699 -18.5 -7.5 -35.5s-10.166 -32 -17.499 -45s-18.666 -24.833 -33.999 -35.5s-33.333 -16 -54 -16c-21.333 0 -40.5 5.33301 -57.5 16c-17 10.6709 -31.833 21.3379 -44.5 32
c-12.667 10.667 -24.667 16 -36 16c-8 0 -14.5 -4.33301 -19.5 -13s-8.16699 -17 -9.5 -25zM55.001 0.000976562v520h182v-520h-182z" />
    <glyph glyph-name="Imacron" unicode="&#x12a;" horiz-adv-x="345" 
d="M75 0v700h195v-700h-195zM-7 790v100h360v-100h-360z" />
    <glyph glyph-name="imacron" unicode="&#x12b;" horiz-adv-x="292" 
d="M-34 610v100h360v-100h-360zM55 0v520h182v-520h-182z" />
    <glyph glyph-name="Ibreve" unicode="&#x12c;" horiz-adv-x="345" 
d="M75 0v700h195v-700h-195zM-3 920l120 0.000976562v-15c0 -16 5 -29 15 -39s24 -15 42 -15c17.333 0 30.833 4.83301 40.5 14.5c9.66699 9.66992 14.5 22.8369 14.5 39.5v15h120v-5c0 -49.335 -16.5 -89.168 -49.5 -119.5c-33 -30.333 -75.167 -45.5 -126.5 -45.5
s-93.5 15.167 -126.5 45.5s-49.5 70.166 -49.5 119.499v5z" />
    <glyph glyph-name="ibreve" unicode="&#x12d;" horiz-adv-x="292" 
d="M-30 740l120 0.000976562v-15c0 -16 5 -29 15 -39s24 -15 42 -15c17.333 0 30.833 4.83301 40.5 14.5c9.66699 9.66895 14.5 22.8359 14.5 39.5v15h120v-5c0 -49.335 -16.5 -89.168 -49.5 -119.5c-33 -30.333 -75.167 -45.5 -126.5 -45.5s-93.5 15.167 -126.5 45.5
s-49.5 70.166 -49.5 119.499v5zM55 0.000976562v520h182v-520h-182z" />
    <glyph glyph-name="Iogonek" unicode="&#x12e;" horiz-adv-x="345" 
d="M270 0l-94 0.000976562c-0.666992 0 -2.16699 -1 -4.5 -3s-4.83301 -5.66699 -7.5 -11s-4 -11.333 -4 -18c0 -10.667 4.33301 -19.667 13 -27s20.334 -11 35 -11c8.66699 0 16.834 1 24.5 3c7.66699 2 13.5 3.66699 17.5 5l5 3l25 -100
c-21.333 -17.333 -51.333 -26 -90 -26c-40.667 0 -75 12.167 -103 36.5s-42 57.166 -42 98.499c0 30 10 56.333 30 79v671h195v-700z" />
    <glyph glyph-name="iogonek" unicode="&#x12f;" horiz-adv-x="292" 
d="M237 0l-93 0.000976562c-11.333 -6.66699 -17 -17.334 -17 -32.001c0 -10.667 4.33301 -19.667 13 -27s20.334 -11 35 -11c8.66699 0 16.834 1 24.5 3c7.66699 2 13.167 3.66699 16.5 5l6 3l25 -100c-21.333 -17.333 -51.333 -26 -90 -26c-40.667 0 -75 12.167 -103 36.5
s-42 57.166 -42 98.499c0 36.667 14.333 67.334 43 92.001v478h182v-520zM36 660.001c0 29.333 10.333 53.333 31 72s47 28 79 28s58.333 -9.33301 79 -28s31 -42.667 31 -72s-10.333 -53.333 -31 -72s-47 -28 -79 -28s-58.333 9.33301 -79 28s-31 42.667 -31 72z" />
    <glyph glyph-name="Idotaccent" unicode="&#x130;" horiz-adv-x="345" 
d="M75 0v700h195v-700h-195zM82 839c0 26 8.66699 47.667 26 65s39 26 65 26s47.333 -8.33301 64 -25s25 -38 25 -64s-8.66699 -47.667 -26 -65s-39 -26 -65 -26s-47.333 8.33301 -64 25s-25 38 -25 64z" />
    <glyph glyph-name="dotlessi" unicode="&#x131;" horiz-adv-x="292" 
d="M55 0v520h182v-520h-182z" />
    <glyph glyph-name="IJ" unicode="&#x132;" horiz-adv-x="835" 
d="M75 0v700h195v-700h-195zM580 285v415.001h195v-427c0 -86 -25.833 -154.667 -77.5 -206s-118.5 -77 -200.5 -77c-32 0 -61.5 2.66699 -88.5 8s-45.833 10.666 -56.5 15.999l-17 9l50 167c24 -13.333 55.667 -20 95 -20c30.667 0 55 10.333 73 31s27 48.667 27 84z" />
    <glyph glyph-name="ij" unicode="&#x133;" horiz-adv-x="574" 
d="M337 520h182.001v-457c0 -76.667 -18.833 -134.667 -56.5 -174s-91.5 -59 -161.5 -59c-12.667 0 -26 1 -40 3s-25 4 -33 6l-11 3l25 138c11.333 -3.33301 23.666 -5 36.999 -5c38.667 0 58 21 58 63v482zM318.001 660c0 29.333 10.333 53.333 31 72s47 28 79 28
s58.333 -9.33301 79 -28s31 -42.667 31 -72s-10.333 -53.333 -31 -72s-47 -28 -79 -28s-58.333 9.33301 -79 28s-31 42.667 -31 72zM55.001 0v520h182v-520h-182zM36.001 660c0 29.333 10.333 53.333 31 72s47 28 79 28s58.333 -9.33301 79 -28s31 -42.667 31 -72
s-10.333 -53.333 -31 -72s-47 -28 -79 -28s-58.333 9.33301 -79 28s-31 42.667 -31 72z" />
    <glyph glyph-name="Jcircumflex" unicode="&#x134;" horiz-adv-x="510" 
d="M255 285v415.001h195v-427c0 -86 -25.667 -154.667 -77 -206s-118.333 -77 -201 -77c-32 0 -61.5 2.66699 -88.5 8s-46.167 10.666 -57.5 15.999l-16 9l50 167c24 -13.333 55.667 -20 95 -20c30.667 0 55 10.333 73 31s27 48.667 27 84zM138 750.001l135 170h160
l135 -170h-153l-65 67l-65 -67h-147z" />
    <glyph glyph-name="jcircumflex" unicode="&#x135;" horiz-adv-x="292" 
d="M55 520h182.001v-457c0 -76.667 -18.833 -134.667 -56.5 -174s-91.5 -59 -161.5 -59c-12.667 0 -26 1 -40 3s-25 4 -33 6l-11 3l25 148c11.333 -3.33301 23.666 -5 36.999 -5c38.667 0 58 21 58 63v472zM-68.999 570l135 170h160l135 -170h-153l-65 67l-65 -67h-147z" />
    <glyph glyph-name="Kcommaaccent" unicode="&#x136;" horiz-adv-x="725" 
d="M510 0l-250 333v-333h-190v700h190v-313l230 313h225l-270 -330l290 -370h-225zM230 -220l60 170h190l-110 -170h-140z" />
    <glyph glyph-name="kcommaaccent" unicode="&#x137;" horiz-adv-x="610" 
d="M405 0l-175 253v-253h-180v700h180v-404l160 224h210l-195 -235l215 -285h-215zM170 -220l60 170h190l-110 -170h-140z" />
    <glyph glyph-name="Lacute" unicode="&#x139;" horiz-adv-x="590" 
d="M580 0h-510v700h190v-530h320v-170zM90 750l60 170h190l-110 -170h-140z" />
    <glyph glyph-name="lacute" unicode="&#x13a;" horiz-adv-x="292" 
d="M55 0v700h182v-700h-182zM80 750l60 170h190l-110 -170h-140z" />
    <glyph glyph-name="Lcommaaccent" unicode="&#x13b;" horiz-adv-x="590" 
d="M580 0h-510v700h190v-530h320v-170zM200 -220l60 170h190l-110 -170h-140z" />
    <glyph glyph-name="lcommaaccent" unicode="&#x13c;" horiz-adv-x="292" 
d="M55 0v700h182v-700h-182zM-10 -220l60 170h190l-110 -170h-140z" />
    <glyph glyph-name="Lcaron" unicode="&#x13d;" horiz-adv-x="590" 
d="M580 0h-510v700h190v-530h320v-170zM480 430h-130l30 270h180z" />
    <glyph glyph-name="lcaron" unicode="&#x13e;" horiz-adv-x="497" 
d="M417 430h-130l30 270h180zM55 0v700h182v-700h-182z" />
    <glyph glyph-name="Ldot" unicode="&#x13f;" horiz-adv-x="590" 
d="M580 0h-510v700h190v-530h320v-170zM325 410c0 30.667 10.667 56.667 32 78s47.333 32 78 32s56.667 -10.667 78 -32s32 -47.333 32 -78s-10.667 -56.667 -32 -78s-47.333 -32 -78 -32s-56.667 10.667 -78 32s-32 47.333 -32 78z" />
    <glyph glyph-name="ldot" unicode="&#x140;" horiz-adv-x="527" 
d="M55 0v700h182v-700h-182zM287 350c0 30.667 10.667 56.667 32 78s47.333 32 78 32s56.667 -10.667 78 -32s32 -47.333 32 -78s-10.667 -56.667 -32 -78s-47.333 -32 -78 -32s-56.667 10.667 -78 32s-32 47.333 -32 78z" />
    <glyph glyph-name="Lslash" unicode="&#x141;" horiz-adv-x="630" 
d="M620 0h-510v301l-80 -11v100l80 11v299h190v-272l220 32v-100l-220 -32v-158h320v-170z" />
    <glyph glyph-name="lslash" unicode="&#x142;" horiz-adv-x="392" 
d="M100 0v305l-70 -15v100l70 15v295h182v-257l80 17v-100l-80 -17v-343h-182z" />
    <glyph glyph-name="Nacute" unicode="&#x143;" horiz-adv-x="790" 
d="M535 0l-280 415v-415h-185v700h195l270 -401v401h185v-700h-185zM320 750l60 170h190l-110 -170h-140z" />
    <glyph glyph-name="nacute" unicode="&#x144;" horiz-adv-x="615" 
d="M50 0v519.999h160l8 -70c37.333 53.333 90.666 80 159.999 80c56.667 0 102.834 -18.167 138.501 -54.5s53.5 -85.5 53.5 -147.5v-328h-180v270c0 31.333 -7 55 -21 71s-33 24 -57 24s-43.5 -7.66699 -58.5 -23s-22.833 -37.666 -23.5 -66.999v-275h-180zM212 569.999
l60 170h190l-110 -170h-140z" />
    <glyph glyph-name="Ncommaaccent" unicode="&#x145;" horiz-adv-x="790" 
d="M535 0l-280 415v-415h-185v700h195l270 -401v401h185v-700h-185zM250 -220l60 170h190l-110 -170h-140z" />
    <glyph glyph-name="ncommaaccent" unicode="&#x146;" horiz-adv-x="615" 
d="M230 270v-270h-180v520h160l8 -70c37.333 53.333 90.666 80 159.999 80c56.667 0 102.834 -18.167 138.501 -54.5s53.5 -85.5 53.5 -147.5v-328h-180v270c0 31.333 -7 55 -21 71s-33 24 -57 24c-24.667 0 -44.5 -8 -59.5 -24s-22.5 -39.667 -22.5 -71zM160 -220l60 170
h190l-110 -170h-140z" />
    <glyph glyph-name="Ncaron" unicode="&#x147;" horiz-adv-x="790" 
d="M535 0l-280 415v-415h-185v700h195l270 -401v401h185v-700h-185zM610 920l-135 -170h-160l-135 170h153l65 -68l65 68h147z" />
    <glyph glyph-name="ncaron" unicode="&#x148;" horiz-adv-x="615" 
d="M50 0v519.999h160l8 -70c37.333 53.333 90.666 80 159.999 80c56.667 0 102.834 -18.167 138.501 -54.5s53.5 -85.5 53.5 -147.5v-328h-180v270c0 31.333 -7 55 -21 71s-33 24 -57 24s-43.5 -7.66699 -58.5 -23s-22.833 -37.666 -23.5 -66.999v-275h-180zM522 739.999
l-135 -170h-160l-135 170h153l65 -68l65 68h147z" />
    <glyph glyph-name="Eng" unicode="&#x14a;" horiz-adv-x="790" 
d="M265 700l270 -401v401h185v-647c0 -69.333 -19.167 -123.833 -57.5 -163.5c-38.334 -39.667 -90.167 -59.5 -155.5 -59.5c-23.333 0 -44.333 2 -63 6c-18.668 4 -31.335 8 -38 12l-11 5l35 137c16 -6.66699 34 -10 54 -10c21.333 0 38 6.66699 50 20l-279 415v-415h-185
v700h195z" />
    <glyph glyph-name="eng" unicode="&#x14b;" horiz-adv-x="615" 
d="M230 270v-269.999h-180v520h160l8 -70c37.333 53.333 90.666 80 159.999 80c56.667 0 102.834 -18.167 138.501 -54.5s53.5 -85.5 53.5 -147.5v-265c0 -76.667 -18.5 -134.667 -55.5 -174s-90.5 -59 -160.5 -59c-11.333 0 -22.333 0.666992 -33 2
c-10.668 1.33301 -18.335 2.66602 -23 3.99902l-8 2l15 150c6.66699 -2 15.667 -3 27 -3c38.667 0 58 21 58 63v222c0 31.333 -7 55 -21 71s-33 24 -57 24c-24.667 0 -44.5 -8 -59.5 -24s-22.5 -39.667 -22.5 -71z" />
    <glyph glyph-name="Omacron" unicode="&#x14c;" horiz-adv-x="820" 
d="M40 347c0 101.333 35.833 187.166 107.5 257.499s160.167 105.5 265.5 105.5s192.833 -34.167 262.5 -102.5s104.5 -153.166 104.5 -254.499s-35.833 -187.166 -107.5 -257.499s-160.167 -105.5 -265.5 -105.5s-192.833 34.167 -262.5 102.5
s-104.5 153.166 -104.5 254.499zM230 350c0 -52.667 17 -96.667 51 -132s77 -53 129 -53s95 17.667 129 53s51 79.333 51 132s-17 96.667 -51 132s-77 53 -129 53s-95 -17.667 -129 -53s-51 -79.333 -51 -132zM230 790v100h360v-100h-360z" />
    <glyph glyph-name="omacron" unicode="&#x14d;" horiz-adv-x="630" 
d="M30 257c0 76.667 27.666 141.333 82.999 194s123.666 79 204.999 79c81.334 0 148.667 -25.333 202 -76s80 -114.334 80 -191c0 -76.667 -27.667 -141.334 -83 -194.001s-123.666 -79 -204.999 -79s-148.666 25.333 -201.999 76s-80 114.334 -80 191.001z
M209.999 259.999c0 -29.334 10 -54.167 30 -74.5s45 -30.5 75 -30.5s55 10.167 75 30.5s30 45.166 30 74.499c0 29.334 -10 54.167 -30 74.5s-45 30.5 -75 30.5s-55 -10.167 -75 -30.5s-30 -45.166 -30 -74.499zM134.999 609.999v100h360v-100h-360z" />
    <glyph glyph-name="Obreve" unicode="&#x14e;" horiz-adv-x="820" 
d="M40 347c0 101.333 35.833 187.166 107.5 257.499s160.167 105.5 265.5 105.5s192.833 -34.167 262.5 -102.5s104.5 -153.166 104.5 -254.499s-35.833 -187.166 -107.5 -257.499s-160.167 -105.5 -265.5 -105.5s-192.833 34.167 -262.5 102.5
s-104.5 153.166 -104.5 254.499zM230 350c0 -52.667 17 -96.667 51 -132s77 -53 129 -53s95 17.667 129 53s51 79.333 51 132s-17 96.667 -51 132s-77 53 -129 53s-95 -17.667 -129 -53s-51 -79.333 -51 -132zM234 920l120 0.000976562v-15c0 -16 5 -29 15 -39
s24 -15 42 -15c17.333 0 30.833 4.83301 40.5 14.5c9.66699 9.66992 14.5 22.8369 14.5 39.5v15h120v-5c0 -49.335 -16.5 -89.168 -49.5 -119.5c-33 -30.333 -75.167 -45.5 -126.5 -45.5s-93.5 15.167 -126.5 45.5s-49.5 70.166 -49.5 119.499v5z" />
    <glyph glyph-name="obreve" unicode="&#x14f;" horiz-adv-x="630" 
d="M30 257c0 76.667 27.666 141.333 82.999 194s123.666 79 204.999 79c81.334 0 148.667 -25.333 202 -76s80 -114.334 80 -191c0 -76.667 -27.667 -141.334 -83 -194.001s-123.666 -79 -204.999 -79s-148.666 25.333 -201.999 76s-80 114.334 -80 191.001z
M209.999 259.999c0 -29.334 10 -54.167 30 -74.5s45 -30.5 75 -30.5s55 10.167 75 30.5s30 45.166 30 74.499c0 29.334 -10 54.167 -30 74.5s-45 30.5 -75 30.5s-55 -10.167 -75 -30.5s-30 -45.166 -30 -74.499zM138.999 739.999l120 0.000976562v-15c0 -16 5 -29 15 -39
s24 -15 42 -15c17.333 0 30.833 4.83301 40.5 14.5c9.66699 9.66895 14.5 22.8359 14.5 39.5v15h120v-5c0 -49.335 -16.5 -89.168 -49.5 -119.5c-33 -30.333 -75.167 -45.5 -126.5 -45.5s-93.5 15.167 -126.5 45.5s-49.5 70.166 -49.5 119.499v5z" />
    <glyph glyph-name="Ohungarumlaut" unicode="&#x150;" horiz-adv-x="820" 
d="M40 347c0 101.333 35.833 187.166 107.5 257.499s160.167 105.5 265.5 105.5s192.833 -34.167 262.5 -102.5s104.5 -153.166 104.5 -254.499s-35.833 -187.166 -107.5 -257.499s-160.167 -105.5 -265.5 -105.5s-192.833 34.167 -262.5 102.5
s-104.5 153.166 -104.5 254.499zM230 350c0 -52.667 17 -96.667 51 -132s77 -53 129 -53s95 17.667 129 53s51 79.333 51 132s-17 96.667 -51 132s-77 53 -129 53s-95 -17.667 -129 -53s-51 -79.333 -51 -132zM230 750l50 170h185l-100 -170h-135zM455 750l50 170h185
l-100 -170h-135z" />
    <glyph glyph-name="ohungarumlaut" unicode="&#x151;" horiz-adv-x="630" 
d="M30 257c0 76.667 27.666 141.333 82.999 194s123.666 79 204.999 79c81.334 0 148.667 -25.333 202 -76s80 -114.334 80 -191c0 -76.667 -27.667 -141.334 -83 -194.001s-123.666 -79 -204.999 -79s-148.666 25.333 -201.999 76s-80 114.334 -80 191.001z
M209.999 259.999c0 -29.334 10 -54.167 30 -74.5s45 -30.5 75 -30.5s55 10.167 75 30.5s30 45.166 30 74.499c0 29.334 -10 54.167 -30 74.5s-45 30.5 -75 30.5s-55 -10.167 -75 -30.5s-30 -45.166 -30 -74.499zM144.999 569.999l50 170h185l-100 -170h-135z
M369.999 569.999l50 170h185l-100 -170h-135z" />
    <glyph glyph-name="OE" unicode="&#x152;" horiz-adv-x="1060" 
d="M1010 535l-340 0.000976562v-100h290v-155h-290v-115h350v-165h-593c-112.667 0 -205.334 32.833 -278.001 98.5s-109 148.5 -109 248.5s37.333 183.833 112 251.499c74.667 67.667 168.334 101.5 281.001 101.5h577v-165zM425 165.001h55v370h-55
c-56.667 0 -103.334 -17.333 -140.001 -52s-55 -79 -55 -133s18.333 -98.333 55 -133s83.334 -52 140.001 -52z" />
    <glyph glyph-name="oe" unicode="&#x153;" horiz-adv-x="990" 
d="M30 257c0 76.667 27.668 141.335 83.001 194.002s123.666 79 204.999 79c78 0 142.333 -28 193 -84c50.667 56 113 84 187 84s136.167 -24 186.5 -72s75.5 -106.333 75.5 -175c0 -11.333 -0.833008 -22.333 -2.5 -33s-3.5 -18.334 -5.5 -23.001l-2 -7h-346
c6 -22.667 18.333 -40.834 37 -54.501s41.667 -20.5 69 -20.5c22 0 42.667 3.66699 62 11s33 14.666 41 21.999l12 12l105 -105c-2 -2.66699 -4.83301 -6.16699 -8.5 -10.5s-12.5 -11.833 -26.5 -22.5s-29.167 -20.167 -45.5 -28.5
c-16.3369 -8.33301 -38.1699 -16 -65.5 -23c-27.333 -7 -56.333 -10.5 -87 -10.5c-76.667 0 -140.334 28 -191.001 84c-52 -56 -116.667 -84 -194 -84c-81.333 0 -148.666 25.333 -201.999 76s-80 114.334 -80 191.001zM210.001 260.001c0 -29.334 10 -54.167 30 -74.5
s45 -30.5 75 -30.5s55 10.167 75 30.5s30 45.166 30 74.499c0 29.334 -10 54.167 -30 74.5s-45 30.5 -75 30.5s-55 -10.167 -75 -30.5s-30 -45.166 -30 -74.499zM695.001 400.001c-23.333 0 -43.332 -7.00098 -59.999 -21.001s-27.667 -32 -33 -54h186
c-4 20.667 -14.833 38.334 -32.5 53.001s-37.834 22 -60.501 22z" />
    <glyph glyph-name="Racute" unicode="&#x154;" horiz-adv-x="720" 
d="M70 0v700h323c78 0 141.167 -21.5 189.5 -64.5s72.5 -99.833 72.5 -170.5c0 -48.667 -11.833 -91.334 -35.5 -128c-23.667 -36.667 -56.5 -65 -98.5 -85l164 -252h-220l-137 225h-68v-225h-190zM370 540h-110v-170h110c30 0 53.333 7.66699 70 23s25 36 25 62
s-8.33301 46.667 -25 62s-40 23 -70 23zM265 750l60 170h190l-110 -170h-140z" />
    <glyph glyph-name="racute" unicode="&#x155;" horiz-adv-x="428" 
d="M50 0v520.001h160l9 -93c36.667 68.667 98 103 184 103l-3 -185h-38c-43.333 0 -76 -10.833 -98 -32.5s-33.333 -56.834 -34 -105.501v-207h-180zM149 570.001l60 170h190l-110 -170h-140z" />
    <glyph glyph-name="Rcommaaccent" unicode="&#x156;" horiz-adv-x="720" 
d="M70 0v700h323c78 0 141.167 -21.5 189.5 -64.5s72.5 -99.833 72.5 -170.5c0 -48.667 -11.833 -91.334 -35.5 -128c-23.667 -36.667 -56.5 -65 -98.5 -85l164 -252h-220l-137 225h-68v-225h-190zM370 540h-110v-170h110c30 0 53.333 7.66699 70 23s25 36 25 62
s-8.33301 46.667 -25 62s-40 23 -70 23zM220 -220l60 170h190l-110 -170h-140z" />
    <glyph glyph-name="rcommaaccent" unicode="&#x157;" horiz-adv-x="428" 
d="M50 0v520.001h160l9 -93c36.667 68.667 98 103 184 103l-3 -185h-38c-43.333 0 -76 -10.833 -98 -32.5s-33.333 -56.834 -34 -105.501v-207h-180zM-5 -219.999l60 170h190l-110 -170h-140z" />
    <glyph glyph-name="Rcaron" unicode="&#x158;" horiz-adv-x="720" 
d="M70 0v700h323c78 0 141.167 -21.5 189.5 -64.5s72.5 -99.833 72.5 -170.5c0 -48.667 -11.833 -91.334 -35.5 -128c-23.667 -36.667 -56.5 -65 -98.5 -85l164 -252h-220l-137 225h-68v-225h-190zM565 920l-135 -170h-160l-135 170h153l65 -68l65 68h147zM370 540h-110
v-170h110c30 0 53.333 7.66699 70 23s25 36 25 62s-8.33301 46.667 -25 62s-40 23 -70 23z" />
    <glyph glyph-name="rcaron" unicode="&#x159;" horiz-adv-x="428" 
d="M50 0v520.001h160l9 -93c36.667 68.667 98 103 184 103l-3 -185h-38c-43.333 0 -76 -10.833 -98 -32.5s-33.333 -56.834 -34 -105.501v-207h-180zM429 740.001l-135 -170h-160l-135 170h153l65 -68l65 68h147z" />
    <glyph glyph-name="Sacute" unicode="&#x15a;" horiz-adv-x="590" 
d="M245 517c0 -16 7.33203 -29.835 21.999 -41.502s44.334 -27.167 89.001 -46.5c129.333 -56 194 -129.667 194 -221c0 -62 -24.5 -113.833 -73.5 -155.5s-112.167 -62.5 -189.5 -62.5c-33.333 0 -65.833 3.83301 -97.5 11.5s-57.834 16.834 -78.501 27.501
s-39 21.334 -55 32.001s-27.667 19.667 -35 27l-11 12l110 120c6 -6 14.167 -13.167 24.5 -21.5c10.333 -8.33398 30.833 -19.667 61.5 -34s60.334 -21.5 89.001 -21.5c17.333 0 31.666 4.16699 42.999 12.5s17 18.833 17 31.5c0 16.667 -10 32.667 -30 48
s-58.667 35.333 -116 60c-106 46 -159 115 -159 207c0 60.667 23.333 110.5 70 149.5s107.667 58.5 183 58.5c46 0 89.667 -8 131 -24s71 -32 89 -48l27 -23l-110 -120c-4 4.66699 -10 10.5 -18 17.5s-23.667 16.167 -47 27.5s-46.666 17 -69.999 17
c-18.667 0 -33.334 -3.83301 -44 -11.5c-10.667 -7.66699 -16 -17.167 -16 -28.5zM219.999 749.998l60 170h190l-110 -170h-140z" />
    <glyph glyph-name="sacute" unicode="&#x15b;" horiz-adv-x="480" 
d="M212 375c0 -8 5.33398 -15.999 16.001 -23.999s33 -17.333 67 -28c49.333 -16 87.5 -38.167 114.5 -66.5s40.5 -60.833 40.5 -97.5c0 -51.333 -19 -92.333 -57 -123s-91.333 -46 -160 -46c-40.667 0 -79.667 6.66699 -117 20s-64.333 26.666 -81 39.999l-25 20l75 113
c5.33301 -4.66699 12.5 -10.5 21.5 -17.5s26.333 -16.167 52 -27.5s50.167 -17 73.5 -17c27.333 0 41 8.66699 41 26c0 9.33301 -6.33301 18.333 -19 27s-39 20 -79 34c-93.333 32 -140 85.667 -140 161c0 44.667 18.667 82.667 56 114s88.666 47 153.999 47
c36 0 71 -5.83301 105 -17.5s59.333 -23.167 76 -34.5l24 -18l-75 -115c-4.66699 4 -10.667 9 -18 15s-22 14 -44 24s-43 15 -63 15c-25.333 0 -38 -8 -38 -24zM165.001 570.001l60 170h190l-110 -170h-140z" />
    <glyph glyph-name="Scircumflex" unicode="&#x15c;" horiz-adv-x="590" 
d="M245 517c0 -16 7.33203 -29.835 21.999 -41.502s44.334 -27.167 89.001 -46.5c129.333 -56 194 -129.667 194 -221c0 -62 -24.5 -113.833 -73.5 -155.5s-112.167 -62.5 -189.5 -62.5c-33.333 0 -65.833 3.83301 -97.5 11.5s-57.834 16.834 -78.501 27.501
s-39 21.334 -55 32.001s-27.667 19.667 -35 27l-11 12l110 120c6 -6 14.167 -13.167 24.5 -21.5c10.333 -8.33398 30.833 -19.667 61.5 -34s60.334 -21.5 89.001 -21.5c17.333 0 31.666 4.16699 42.999 12.5s17 18.833 17 31.5c0 16.667 -10 32.667 -30 48
s-58.667 35.333 -116 60c-106 46 -159 115 -159 207c0 60.667 23.333 110.5 70 149.5s107.667 58.5 183 58.5c46 0 89.667 -8 131 -24s71 -32 89 -48l27 -23l-110 -120c-4 4.66699 -10 10.5 -18 17.5s-23.667 16.167 -47 27.5s-46.666 17 -69.999 17
c-18.667 0 -33.334 -3.83301 -44 -11.5c-10.667 -7.66699 -16 -17.167 -16 -28.5zM89.999 749.998l135 170h160l135 -170h-153l-65 67l-65 -67h-147z" />
    <glyph glyph-name="scircumflex" unicode="&#x15d;" horiz-adv-x="480" 
d="M212 375c0 -8 5.33398 -15.999 16.001 -23.999s33 -17.333 67 -28c49.333 -16 87.5 -38.167 114.5 -66.5s40.5 -60.833 40.5 -97.5c0 -51.333 -19 -92.333 -57 -123s-91.333 -46 -160 -46c-40.667 0 -79.667 6.66699 -117 20s-64.333 26.666 -81 39.999l-25 20l75 113
c5.33301 -4.66699 12.5 -10.5 21.5 -17.5s26.333 -16.167 52 -27.5s50.167 -17 73.5 -17c27.333 0 41 8.66699 41 26c0 9.33301 -6.33301 18.333 -19 27s-39 20 -79 34c-93.333 32 -140 85.667 -140 161c0 44.667 18.667 82.667 56 114s88.666 47 153.999 47
c36 0 71 -5.83301 105 -17.5s59.333 -23.167 76 -34.5l24 -18l-75 -115c-4.66699 4 -10.667 9 -18 15s-22 14 -44 24s-43 15 -63 15c-25.333 0 -38 -8 -38 -24zM35.001 570.001l135 170h160l135 -170h-153l-65 67l-65 -67h-147z" />
    <glyph glyph-name="Scedilla" unicode="&#x15e;" horiz-adv-x="590" 
d="M245 517c0 -16 7.33203 -29.834 21.999 -41.501s44.334 -27.167 89.001 -46.5c129.333 -56 194 -129.667 194 -221c0 -52 -17.833 -97.5 -53.5 -136.5s-83.5 -64.167 -143.5 -75.5c6 -13.333 9 -28.666 9 -45.999c0 -44 -16.5 -79.167 -49.5 -105.5
s-71.5 -39.5 -115.5 -39.5c-18.667 0 -36.667 2.16699 -54 6.5s-30.333 8.5 -39 12.5l-12 7l35 102c12.667 -8.66699 30 -13 52 -13c17.333 0 31.333 4.16699 42 12.5s16 20.166 16 35.499c0 9.33301 -3.33301 18 -10 26c-26.667 4 -52.334 10.333 -77.001 19
s-45 17.834 -61 27.501s-30.333 19 -43 28s-22 16.5 -28 22.5l-8 9l110 120c6 -6 14.167 -13.167 24.5 -21.5c10.333 -8.33398 30.833 -19.667 61.5 -34s60.334 -21.5 89.001 -21.5c17.333 0 31.666 4.16699 42.999 12.5s17 18.833 17 31.5c0 16.667 -10 32.667 -30 48
s-58.667 35.333 -116 60c-106 46 -159 115 -159 207c0 60.667 23.333 110.5 70 149.5s107.667 58.5 183 58.5c46 0 89.667 -8 131 -24s71 -32 89 -48l27 -23l-110 -120c-4 4.66699 -10 10.5 -18 17.5s-23.667 16.167 -47 27.5s-46.666 17 -69.999 17
c-18.667 0 -33.334 -3.83301 -44 -11.5c-10.667 -7.66699 -16 -17.167 -16 -28.5z" />
    <glyph glyph-name="scedilla" unicode="&#x15f;" horiz-adv-x="480" 
d="M212 375c0 -8 5.33398 -15.998 16.001 -23.998s33 -17.333 67 -28c49.333 -16 87.5 -38.167 114.5 -66.5s40.5 -60.833 40.5 -97.5c0 -42 -13.167 -77.5 -39.5 -106.5s-63.833 -47.833 -112.5 -56.5c6 -16.667 9 -32 9 -46c0 -44 -16.5 -79.167 -49.5 -105.5
s-71.5 -39.5 -115.5 -39.5c-18.667 0 -36.667 2.16699 -54 6.5s-30 8.5 -38 12.5l-13 7l35 102c12.667 -8.66699 30 -13 52 -13c17.333 0 31.333 4.16699 42 12.5s16 20.166 16 35.499c0 10.667 -4 20 -12 28c-30 5.33301 -58.333 14.166 -85 26.499s-45.667 23.5 -57 33.5
l-18 14l75 113c5.33301 -4.66699 12.5 -10.5 21.5 -17.5s26.333 -16.167 52 -27.5s50.167 -17 73.5 -17c27.333 0 41 8.66699 41 26c0 9.33301 -6.33301 18.333 -19 27s-39 20 -79 34c-93.333 32 -140 85.667 -140 161c0 44.667 18.667 82.667 56 114s88.666 47 153.999 47
c36 0 71 -5.83301 105 -17.5s59.333 -23.167 76 -34.5l24 -18l-75 -115c-4.66699 4 -10.667 9 -18 15s-22 14 -44 24s-43 15 -63 15c-25.333 0 -38 -8 -38 -24z" />
    <glyph glyph-name="Scaron" unicode="&#x160;" horiz-adv-x="590" 
d="M245 517c0 -16 7.33203 -29.835 21.999 -41.502s44.334 -27.167 89.001 -46.5c129.333 -56 194 -129.667 194 -221c0 -62 -24.5 -113.833 -73.5 -155.5s-112.167 -62.5 -189.5 -62.5c-33.333 0 -65.833 3.83301 -97.5 11.5s-57.834 16.834 -78.501 27.501
s-39 21.334 -55 32.001s-27.667 19.667 -35 27l-11 12l110 120c6 -6 14.167 -13.167 24.5 -21.5c10.333 -8.33398 30.833 -19.667 61.5 -34s60.334 -21.5 89.001 -21.5c17.333 0 31.666 4.16699 42.999 12.5s17 18.833 17 31.5c0 16.667 -10 32.667 -30 48
s-58.667 35.333 -116 60c-106 46 -159 115 -159 207c0 60.667 23.333 110.5 70 149.5s107.667 58.5 183 58.5c46 0 89.667 -8 131 -24s71 -32 89 -48l27 -23l-110 -120c-4 4.66699 -10 10.5 -18 17.5s-23.667 16.167 -47 27.5s-46.666 17 -69.999 17
c-18.667 0 -33.334 -3.83301 -44 -11.5c-10.667 -7.66699 -16 -17.167 -16 -28.5zM509.999 919.998l-135 -170h-160l-135 170h153l65 -68l65 68h147z" />
    <glyph glyph-name="scaron" unicode="&#x161;" horiz-adv-x="480" 
d="M212 375c0 -8 5.33398 -15.999 16.001 -23.999s33 -17.333 67 -28c49.333 -16 87.5 -38.167 114.5 -66.5s40.5 -60.833 40.5 -97.5c0 -51.333 -19 -92.333 -57 -123s-91.333 -46 -160 -46c-40.667 0 -79.667 6.66699 -117 20s-64.333 26.666 -81 39.999l-25 20l75 113
c5.33301 -4.66699 12.5 -10.5 21.5 -17.5s26.333 -16.167 52 -27.5s50.167 -17 73.5 -17c27.333 0 41 8.66699 41 26c0 9.33301 -6.33301 18.333 -19 27s-39 20 -79 34c-93.333 32 -140 85.667 -140 161c0 44.667 18.667 82.667 56 114s88.666 47 153.999 47
c36 0 71 -5.83301 105 -17.5s59.333 -23.167 76 -34.5l24 -18l-75 -115c-4.66699 4 -10.667 9 -18 15s-22 14 -44 24s-43 15 -63 15c-25.333 0 -38 -8 -38 -24zM460.001 740.001l-135 -170h-160l-135 170h153l65 -68l65 68h147z" />
    <glyph glyph-name="Tcommaaccent" unicode="&#x162;" horiz-adv-x="590" 
d="M580 535h-190v-535h-190v535h-190v165h570v-165zM150 -220l60 170h190l-110 -170h-140z" />
    <glyph glyph-name="tcommaaccent" unicode="&#x163;" horiz-adv-x="460" 
d="M290 640l-0.000976562 -120h140v-145h-140v-170c0 -33.333 15 -50 45 -50c10.667 0 22.334 0.833008 35.001 2.5s22.667 3.16699 30 4.5l10 3l20 -150c-40 -16.667 -88.333 -25 -145 -25c-54 0 -96.667 14.5 -128 43.5s-47 69.5 -47 121.5v220h-90v145h90v120h180z
M119.999 -220l60 170h190l-110 -170h-140z" />
    <glyph glyph-name="Tcaron" unicode="&#x164;" horiz-adv-x="590" 
d="M580 535h-190v-535h-190v535h-190v165h570v-165zM510 920l-135 -170h-160l-135 170h153l65 -68l65 68h147z" />
    <glyph glyph-name="tcaron" unicode="&#x165;" horiz-adv-x="490" 
d="M290 640l-0.000976562 -120h140v-145h-140v-170c0 -33.333 15 -50 45 -50c10.667 0 22.334 0.833008 35.001 2.5s22.667 3.16699 30 4.5l10 3l20 -150c-40 -16.667 -88.333 -25 -145 -25c-54 0 -96.667 14.5 -128 43.5s-47 69.5 -47 121.5v220h-90v145h90v120h180z
M464.999 570h-130l30 220h180z" />
    <glyph glyph-name="Tbar" unicode="&#x166;" horiz-adv-x="590" 
d="M580 535h-190v-145h170v-100h-170v-290h-190v290h-170v100h170v145h-190v165h570v-165z" />
    <glyph glyph-name="tbar" unicode="&#x167;" horiz-adv-x="460" 
d="M290 640l-0.000976562 -120h140v-140h-140v-62h140v-100h-140v-18c0 -33.333 15 -50 45 -50c10.667 0 22.334 0.833008 35.001 2.5s22.667 3.5 30 5.5l10 2l20 -145c-40 -16.667 -88.333 -25 -145 -25c-54 0 -96.667 14.5 -128 43.5s-47 69.5 -47 121.5v63h-90v100h90v62
h-90v140h90v120h180z" />
    <glyph glyph-name="Utilde" unicode="&#x168;" horiz-adv-x="740" 
d="M493 700h186.998v-407c0 -91.333 -28.833 -164.666 -86.5 -219.999s-133.167 -83 -226.5 -83s-167.833 26.667 -223.5 80s-83.5 125.666 -83.5 216.999v413h193v-405c0 -40 10.833 -71.667 32.5 -95s50.834 -35 87.501 -35s65.834 11.667 87.501 35s32.5 55 32.5 95v405z
M269.998 763l-84 9c0 4 0.333008 9.33301 1 16s3.16699 18.5 7.5 35.5s10.166 32 17.499 45s18.5 24.833 33.5 35.5s32.833 16 53.5 16c22 0 41.5 -5.33301 58.5 -16s31.667 -21.334 44 -32.001c12.335 -10.667 24.168 -16 35.5 -16c8 0 14.667 4.33301 20 13
c5.33398 8.66699 8.66699 17 10 25l2 13l84 -9c0 -4 -0.333008 -9.33301 -1 -16s-3.16699 -18.5 -7.5 -35.5c-4.3418 -17 -10.1748 -32 -17.5 -45c-7.33301 -13 -18.666 -24.833 -33.999 -35.5s-33.333 -16 -54 -16c-21.333 0 -40.5 5.33301 -57.5 16
c-17 10.6729 -31.833 21.3398 -44.5 32.001c-12.667 10.667 -24.667 16 -36 16c-8 0 -14.5 -4.33301 -19.5 -13s-8.16699 -17 -9.5 -25z" />
    <glyph glyph-name="utilde" unicode="&#x169;" horiz-adv-x="615" 
d="M385 250v270h180v-520h-160l-8 70c-37.333 -53.333 -90.666 -80 -159.999 -80c-56.667 0 -102.834 18.167 -138.501 54.5s-53.5 85.5 -53.5 147.5v328h180v-270c0 -31.333 7 -55 21 -71s33 -24 57 -24c24.667 0 44.5 8 59.5 24s22.5 39.667 22.5 71zM208 583l-84 9.00098
c0 4 0.333008 9.33301 1 16s3.16699 18.5 7.5 35.5s10.166 32 17.499 45s18.5 24.833 33.5 35.5s32.833 16 53.5 16c22 0 41.5 -5.33301 58.5 -16s31.667 -21.334 44 -32.001c12.335 -10.667 24.168 -16 35.5 -16c8 0 14.667 4.33301 20 13
c5.33594 8.66699 8.66895 17 9.99902 25l2 13l84 -9c0 -4 -0.333008 -9.33301 -1 -16s-3.16699 -18.5 -7.5 -35.5s-10.166 -32 -17.499 -45s-18.666 -24.833 -33.999 -35.5s-33.333 -16 -54 -16c-21.333 0 -40.5 5.33301 -57.5 16c-17 10.6709 -31.833 21.3379 -44.5 32
c-12.667 10.667 -24.667 16 -36 16c-8 0 -14.5 -4.33301 -19.5 -13s-8.16699 -17 -9.5 -25z" />
    <glyph glyph-name="Umacron" unicode="&#x16a;" horiz-adv-x="740" 
d="M493 700h186.998v-407c0 -91.333 -28.833 -164.666 -86.5 -219.999s-133.167 -83 -226.5 -83s-167.833 26.667 -223.5 80s-83.5 125.666 -83.5 216.999v413h193v-405c0 -40 10.833 -71.667 32.5 -95s50.834 -35 87.501 -35s65.834 11.667 87.501 35s32.5 55 32.5 95v405z
M189.998 790v100h360v-100h-360z" />
    <glyph glyph-name="umacron" unicode="&#x16b;" horiz-adv-x="615" 
d="M385 250v270h180v-520h-160l-8 70c-37.333 -53.333 -90.666 -80 -159.999 -80c-56.667 0 -102.834 18.167 -138.501 54.5s-53.5 85.5 -53.5 147.5v328h180v-270c0 -31.333 7 -55 21 -71s33 -24 57 -24c24.667 0 44.5 8 59.5 24s22.5 39.667 22.5 71zM127 610v100h360
v-100h-360z" />
    <glyph glyph-name="Ubreve" unicode="&#x16c;" horiz-adv-x="740" 
d="M493 700h186.998v-407c0 -91.333 -28.833 -164.666 -86.5 -219.999s-133.167 -83 -226.5 -83s-167.833 26.667 -223.5 80s-83.5 125.666 -83.5 216.999v413h193v-405c0 -40 10.833 -71.667 32.5 -95s50.834 -35 87.501 -35s65.834 11.667 87.501 35s32.5 55 32.5 95v405z
M193.998 920l120 0.000976562v-15c0 -16 5 -29 15 -39s24 -15 42 -15c17.333 0 30.833 4.83301 40.5 14.5c9.66699 9.66992 14.5 22.8369 14.5 39.5v15h120v-5c0 -49.335 -16.5 -89.168 -49.5 -119.5c-33 -30.333 -75.167 -45.5 -126.5 -45.5s-93.5 15.167 -126.5 45.5
s-49.5 70.166 -49.5 119.499v5z" />
    <glyph glyph-name="ubreve" unicode="&#x16d;" horiz-adv-x="615" 
d="M565 520v-520h-160l-8 70c-37.333 -53.333 -90.666 -80 -159.999 -80c-56.667 0 -102.834 18.167 -138.501 54.5s-53.5 85.5 -53.5 147.5v328h180v-270c0 -31.333 7 -55 21 -71s33 -24 57 -24s43.5 7.5 58.5 22.5s22.833 37.5 23.5 67.5v275h180zM131 740
l120 0.000976562v-15c0 -16 5 -29 15 -39s24 -15 42 -15c17.333 0 30.833 4.83301 40.5 14.5c9.66699 9.66895 14.5 22.8359 14.5 39.5v15h120v-5c0 -49.335 -16.5 -89.168 -49.5 -119.5c-33 -30.333 -75.167 -45.5 -126.5 -45.5s-93.5 15.167 -126.5 45.5
s-49.5 70.166 -49.5 119.499v5z" />
    <glyph glyph-name="Uring" unicode="&#x16e;" horiz-adv-x="740" 
d="M493 700h186.998v-407c0 -91.333 -28.833 -164.666 -86.5 -219.999s-133.167 -83 -226.5 -83s-167.833 26.667 -223.5 80s-83.5 125.666 -83.5 216.999v413h193v-405c0 -40 10.833 -71.667 32.5 -95s50.834 -35 87.501 -35s65.834 11.667 87.501 35s32.5 55 32.5 95v405z
M259.998 845c0 30.6699 10.333 55.8389 31 75.502c20.667 19.667 47 29.5 79 29.5s58.333 -9.83301 79 -29.5s31 -44.834 31 -75.501s-10.333 -55.834 -31 -75.501s-47 -29.5 -79 -29.5s-58.333 9.83301 -79 29.5s-31 44.834 -31 75.5zM326.998 845.002
c0 -12 3.99902 -22.167 11.999 -30.5s18.333 -12.5 31 -12.5s22.834 4.16699 30.501 12.5s11.5 18.5 11.5 30.5s-3.83301 22 -11.5 30c-7.66797 8 -17.835 12 -30.5 12c-12.667 0 -23 -4 -31 -12s-12 -18 -12 -30z" />
    <glyph glyph-name="uring" unicode="&#x16f;" horiz-adv-x="615" 
d="M565 520v-520h-160l-8 70c-37.333 -53.333 -90.666 -80 -159.999 -80c-56.667 0 -102.834 18.167 -138.501 54.5s-53.5 85.5 -53.5 147.5v328h180v-270c0 -31.333 7 -55 21 -71s33 -24 57 -24s43.5 7.5 58.5 22.5s22.833 37.5 23.5 67.5v275h180zM197 665
c0 30.668 10.333 55.8369 31 75.502c20.667 19.667 47 29.5 79 29.5s58.333 -9.83301 79 -29.5s31 -44.834 31 -75.501s-10.333 -55.834 -31 -75.501s-47 -29.5 -79 -29.5s-58.333 9.83301 -79 29.5c-20.667 19.668 -31 44.835 -31 75.5zM264 665.002
c0 -12 3.99902 -22.167 11.999 -30.5s18.333 -12.5 31 -12.5s22.834 4.16699 30.501 12.5s11.5 18.5 11.5 30.5s-3.83301 22 -11.5 30c-7.66797 8 -17.835 12 -30.5 12c-12.667 0 -23 -4 -31 -12s-12 -18 -12 -30z" />
    <glyph glyph-name="Uhungarumlaut" unicode="&#x170;" horiz-adv-x="740" 
d="M493 700h186.998v-407c0 -91.333 -28.833 -164.666 -86.5 -219.999s-133.167 -83 -226.5 -83s-167.833 26.667 -223.5 80s-83.5 125.666 -83.5 216.999v413h193v-405c0 -40 10.833 -71.667 32.5 -95s50.834 -35 87.501 -35s65.834 11.667 87.501 35s32.5 55 32.5 95v405z
M184.998 750l50 170h185l-100 -170h-135zM409.998 750l50 170h185l-100 -170h-135z" />
    <glyph glyph-name="uhungarumlaut" unicode="&#x171;" horiz-adv-x="615" 
d="M385 250v270h180v-520h-160l-8 70c-37.333 -53.333 -90.666 -80 -159.999 -80c-56.667 0 -102.834 18.167 -138.501 54.5s-53.5 85.5 -53.5 147.5v328h180v-270c0 -31.333 7 -55 21 -71s33 -24 57 -24c24.667 0 44.5 8 59.5 24s22.5 39.667 22.5 71zM342 570l50 170h185
l-100 -170h-135zM117 570l50 170h185l-100 -170h-135z" />
    <glyph glyph-name="Uogonek" unicode="&#x172;" horiz-adv-x="740" 
d="M493 700l186.997 0.00195312v-407c0 -76.667 -20.833 -141 -62.5 -193s-97.834 -85.667 -168.501 -101c-9.33301 -6.66699 -14 -17 -14 -31c0 -10.667 4.33301 -19.667 13 -27s20.334 -11 35.001 -11c8.66699 0 16.834 1 24.501 3s13.167 3.66699 16.5 5l6 3l25 -100
c-21.333 -17.333 -51.333 -26 -90 -26c-40.667 0 -75 12.167 -103 36.5s-42 57.166 -42 98.499c0 14 2.33301 28 7 42c-82 7.33301 -147 37.166 -195 89.499s-72 120.833 -72 205.5v413h193v-405c0 -40 10.833 -71.667 32.5 -95s50.834 -35 87.501 -35
s65.834 11.667 87.501 35s32.5 55 32.5 95v405z" />
    <glyph glyph-name="uogonek" unicode="&#x173;" horiz-adv-x="615" 
d="M565 520l-0.000976562 -519.998h-73c-11.333 -6.66699 -17 -17.334 -17 -32.001c0 -10.667 4.33301 -19.667 13 -27s20.334 -11 35.001 -11c8.6709 0 16.8379 1 24.5 3c7.66699 2 13.167 3.66699 16.5 5l6 3l25 -100c-21.333 -17.333 -51.333 -26 -90 -26
c-40.667 0 -75 12.167 -103 36.5s-42 57.166 -42 98.499c0 36 13.333 66 40 90l-3 30c-37.333 -53.333 -90.666 -80 -159.999 -80c-56.667 0 -102.834 18.167 -138.501 54.5s-53.5 85.5 -53.5 147.5v328h180v-270c0 -31.333 7 -55 21 -71s33 -24 57 -24s43.5 7.5 58.5 22.5
s22.833 37.5 23.5 67.5v275h180z" />
    <glyph glyph-name="Wcircumflex" unicode="&#x174;" horiz-adv-x="1025" 
d="M235 0l-235 700h210l123 -410l117 410h135l117 -410l123 410h200l-235 -700h-165l-113 384l-112 -384h-165zM302 750l135 170h160l135 -170h-153l-65 67l-65 -67h-147z" />
    <glyph glyph-name="wcircumflex" unicode="&#x175;" horiz-adv-x="805" 
d="M160 0l-170 520h195l77 -279l78 279h135l76 -273l79 273h185l-170 -520h-170l-73 251l-72 -251h-170zM192 570l135 170h160l135 -170h-153l-65 67l-65 -67h-147z" />
    <glyph glyph-name="Ycircumflex" unicode="&#x176;" horiz-adv-x="710" 
d="M260 0v250l-260 450h220l140 -268l140 268h210l-260 -450v-250h-190zM145 750l135 170h160l135 -170h-153l-65 67l-65 -67h-147z" />
    <glyph glyph-name="ycircumflex" unicode="&#x177;" horiz-adv-x="555" 
d="M186 10l-196 510.002h200l92 -301l93 301h190l-200 -525c-21.333 -56.667 -49.833 -98.334 -85.5 -125.001s-80.5 -40 -134.5 -40c-27.333 0 -54 3.33301 -80 10c-26 6.66602 -45 13.333 -57 20l-18 10l56 145c20 -16.667 49.667 -25 89 -25c12 0 22.167 1.66699 30.5 5
s13.833 6.66602 16.5 9.99902zM67 570.002l135 170h160l135 -170h-153l-65 67l-65 -67h-147z" />
    <glyph glyph-name="Ydieresis" unicode="&#x178;" horiz-adv-x="710" 
d="M260 0v250l-260 450h220l140 -268l140 268h210l-260 -450v-250h-190zM385 839c0 26 8.66699 47.667 26 65s39 26 65 26c26.001 0 47.334 -8.33301 64 -25c16.667 -16.667 25 -38 25 -64s-8.66699 -47.667 -26 -65c-17.334 -17.333 -39.001 -26 -65 -26
c-26 0 -47.333 8.33301 -64 25s-25 38 -25 64zM155 839c0 26 8.66699 47.667 26 65s39 26 65 26s47.333 -8.33301 64 -25s25 -38 25 -64s-8.66699 -47.667 -26 -65s-39 -26 -65 -26s-47.333 8.33301 -64 25s-25 38 -25 64z" />
    <glyph glyph-name="Zacute" unicode="&#x179;" horiz-adv-x="700" 
d="M650 0h-600v140l345 400h-325v160h580v-140l-345 -400h345v-160zM275 750l60 170h190l-110 -170h-140z" />
    <glyph glyph-name="zacute" unicode="&#x17a;" horiz-adv-x="555" 
d="M40 0v130l230 240h-215v150h460v-130l-230 -240h230v-150h-475zM212 570l60 170h190l-110 -170h-140z" />
    <glyph glyph-name="Zdotaccent" unicode="&#x17b;" horiz-adv-x="700" 
d="M650 0h-600v140l345 400h-325v160h580v-140l-345 -400h345v-160zM270 839c0 26 8.66699 47.667 26 65s39 26 65 26s47.333 -8.33301 64 -25s25 -38 25 -64s-8.66699 -47.667 -26 -65s-39 -26 -65 -26s-47.333 8.33301 -64 25s-25 38 -25 64z" />
    <glyph glyph-name="zdotaccent" unicode="&#x17c;" horiz-adv-x="555" 
d="M40 0v130l230 240h-215v150h460v-130l-230 -240h230v-150h-475zM197 659c0 26 8.66699 47.667 26 65s39 26 65 26s47.333 -8.33301 64 -25s25 -38 25 -64s-8.66699 -47.667 -26 -65s-39 -26 -65 -26s-47.333 8.33301 -64 25s-25 38 -25 64z" />
    <glyph glyph-name="Zcaron" unicode="&#x17d;" horiz-adv-x="700" 
d="M650 0h-600v140l345 400h-325v160h580v-140l-345 -400h345v-160zM565 920l-135 -170h-160l-135 170h153l65 -68l65 68h147z" />
    <glyph glyph-name="zcaron" unicode="&#x17e;" horiz-adv-x="555" 
d="M40 0v130l230 240h-215v150h460v-130l-230 -240h230v-150h-475zM492 740l-135 -170h-160l-135 170h153l65 -68l65 68h147z" />
    <glyph glyph-name="florin" unicode="&#x192;" 
d="M290 -160h-180.002l34 435h-114v105h122l8 100c6 73.333 30 130 72 170s97.333 60 166 60c28 0 54 -4.16699 78 -12.5c24.001 -8.33301 43.334 -18.5 58 -30.5c14.667 -12 27.167 -24 37.5 -36s17.833 -22.333 22.5 -31l6 -12l-130 -88
c-1.33301 3.33301 -3.16602 7.5 -5.49902 12.5s-9.16602 11.667 -20.499 20s-24.333 12.5 -39 12.5c-20 0 -35.5 -5.83301 -46.5 -17.5s-17.167 -27.5 -18.5 -47.5l-8 -100h168v-105h-176z" />
    <glyph glyph-name="Aringacute" unicode="&#x1fa;" horiz-adv-x="740" 
d="M260 745c0 44.668 20 76.3359 60 95.001l25 80h190l-77 -111c14.667 -18 22 -39.333 22 -64c0 -18.667 -4.33301 -36 -13 -52l273 -693h-210l-41 120h-248l-41 -120h-200l272 693c-8 15.333 -12 32.666 -12 51.999zM365 481.001l-73 -211h145zM327 745.001
c0 -12 3.99902 -22.167 11.999 -30.5s18.333 -12.5 31 -12.5s22.834 4.16699 30.501 12.5s11.5 18.5 11.5 30.5s-3.83301 22 -11.5 30c-7.66797 8 -17.835 12 -30.5 12c-12.667 0 -23 -4 -31 -12s-12 -18 -12 -30z" />
    <glyph glyph-name="aringacute" unicode="&#x1fb;" horiz-adv-x="575" 
d="M187 575c0 22 5.66699 41.5 17 58.5s27 29.5 47 37.5l21 69h190l-73 -105c12 -18.667 18 -38.667 18 -60c0 -22.667 -6.33301 -43 -19 -61c44.667 -16 79.5 -43.167 104.5 -81.5s37.5 -84.833 37.5 -139.5v-293h-140l-13 39c-38 -32.667 -88 -49 -150 -49
c-60.667 0 -108.667 14.333 -144 43s-53 66.667 -53 114s18.667 86.333 56 117s86.333 46 147 46c45.333 0 84.333 -8.66699 117 -26v11c0 26 -9.33301 46.667 -28 62s-42.667 23 -72 23c-20.667 0 -41 -3 -61 -9s-35 -11.667 -45 -17l-14 -9l-70 115
c34 28 81 48.333 141 61c-9.33301 15.333 -14 33.333 -14 54zM210 155c0 -16 6.66699 -29.167 20 -39.5s30.666 -15.5 51.999 -15.5s38.833 5.33301 52.5 16s20.5 23.667 20.5 39s-6.83301 28.333 -20.5 39s-31.167 16 -52.5 16s-38.666 -5.16699 -51.999 -15.5
s-20 -23.5 -20 -39.5zM254 575c0 -12 3.99902 -22.167 11.999 -30.5s18.333 -12.5 31 -12.5s22.834 4.16699 30.501 12.5s11.5 18.5 11.5 30.5s-3.83301 22 -11.5 30c-7.66797 8 -17.835 12 -30.5 12c-12.667 0 -23 -4 -31 -12s-12 -18 -12 -30z" />
    <glyph glyph-name="AEacute" unicode="&#x1fc;" horiz-adv-x="1075" 
d="M1035 0h-540v120h-230l-65 -120h-210l405 700h630v-165h-340v-100h290v-155h-290v-115h350v-165zM630 750l60 170h190l-110 -170h-140zM346 270h149v273z" />
    <glyph glyph-name="aeacute" unicode="&#x1fd;" horiz-adv-x="920" 
d="M30 147c0 47.333 18.6641 86.3359 55.9971 117.003s86.333 46 147 46c45.333 0 84.333 -8.66699 117 -26v11c0 26 -9.33301 46.667 -28 62s-42.667 23 -72 23c-20.667 0 -41 -3 -61 -9s-35 -11.667 -45 -17l-14 -9l-70 115c6 5.33301 15 11.833 27 19.5
s37.833 18 77.5 31s80.834 19.5 123.501 19.5c71.333 0 127.333 -24 168 -72c51.333 48 110.333 72 177 72c73.333 0 135.333 -24.333 186 -73s76 -106.667 76 -174c0 -11.333 -0.833008 -22.333 -2.5 -33s-3.16699 -18.334 -4.5 -23.001l-3 -7h-351
c6 -22.667 18.833 -40.834 38.5 -54.501s43.834 -20.5 72.5 -20.5c22 0 42.667 3.66699 62 11s33 14.666 41 21.999l12 12l105 -105c-2 -2.66699 -4.83301 -6.16699 -8.5 -10.5s-12.5 -11.833 -26.5 -22.5s-29.167 -20.167 -45.5 -28.5
c-16.3359 -8.33301 -38.1689 -16 -65.499 -23c-27.333 -7 -56.333 -10.5 -87 -10.5c-74.667 0 -137 26 -187 78c-42.667 -52 -107 -78 -193 -78c-69.333 0 -123.666 14.333 -162.999 43s-59 66.667 -59 114zM391.997 570.003l60 170h190l-110 -170h-140zM209.997 155.003
c0 -16 6.66699 -29.167 20 -39.5s30.666 -15.5 51.999 -15.5s38.833 5.33301 52.5 16s20.5 23.667 20.5 39s-6.83301 28.333 -20.5 39s-31.167 16 -52.5 16s-38.666 -5.16699 -51.999 -15.5s-20 -23.5 -20 -39.5zM629.997 400.003c-24 0 -44.999 -7.00098 -62.999 -21.001
s-29.667 -32 -35 -54h191c-4 20.667 -14.833 38.334 -32.5 53.001s-37.834 22 -60.501 22z" />
    <glyph glyph-name="Oslashacute" unicode="&#x1fe;" horiz-adv-x="820" 
d="M40 347c0 101.333 35.834 187.166 107.501 257.499s160.167 105.5 265.5 105.5c72 0 137.333 -17.333 196 -52l61 72h120l-109 -129c66 -68 99 -150.667 99 -248c0 -101.333 -35.833 -187.166 -107.5 -257.499s-160.167 -105.5 -265.5 -105.5
c-72.667 0 -138.334 17.333 -197.001 52l-60 -72h-120l108 129c-65.333 67.333 -98 150 -98 248zM225.001 350c0 -42.667 10.667 -79.667 32 -111l237 282c-26.667 12.667 -54.667 19 -84 19c-54 0 -98.333 -18 -133 -54s-52 -81.333 -52 -136zM595.001 350
c0 40 -10.667 76.667 -32 110l-237 -281c26.667 -12.667 54.667 -19 84 -19c54 0 98.333 18 133 54s52 81.333 52 136zM335.001 750l60 170h190l-110 -170h-140z" />
    <glyph glyph-name="oslashacute" unicode="&#x1ff;" horiz-adv-x="630" 
d="M30 257c0 76.667 27.667 141.334 83 194.001s123.666 79 204.999 79c46.667 0 91 -9.66699 133 -29l39 49h110l-78 -98c52 -50.667 78 -113.667 78 -189c0 -76.667 -27.667 -141.334 -83 -194.001s-123.666 -79 -204.999 -79c-48.667 0 -93 9.66699 -133 29l-39 -49h-110
l78 98c-52 50 -78 113 -78 189zM230 570l60 170h190l-110 -170h-140zM195 260c0 -24 5.33398 -44.667 16.001 -62l140 177c-12 3.33301 -24 5 -36 5c-34.667 0 -63.334 -11.5 -86.001 -34.5s-34 -51.5 -34 -85.5zM435.001 260c0 21.334 -5.33398 41.667 -16.001 61
l-140 -176c12 -3.33301 24 -5 36 -5c34.667 0 63.334 11.5 86.001 34.5s34 51.5 34 85.5z" />
    <glyph glyph-name="Scommaaccent" unicode="&#x218;" horiz-adv-x="590" 
d="M245 517c0 -16 7.33203 -29.835 21.999 -41.502s44.334 -27.167 89.001 -46.5c129.333 -56 194 -129.667 194 -221c0 -62 -24.5 -113.833 -73.5 -155.5s-112.167 -62.5 -189.5 -62.5c-33.333 0 -65.833 3.83301 -97.5 11.5s-57.834 16.834 -78.501 27.501
s-39 21.334 -55 32.001s-27.667 19.667 -35 27l-11 12l110 120c6 -6 14.167 -13.167 24.5 -21.5c10.333 -8.33398 30.833 -19.667 61.5 -34s60.334 -21.5 89.001 -21.5c17.333 0 31.666 4.16699 42.999 12.5s17 18.833 17 31.5c0 16.667 -10 32.667 -30 48
s-58.667 35.333 -116 60c-106 46 -159 115 -159 207c0 60.667 23.333 110.5 70 149.5s107.667 58.5 183 58.5c46 0 89.667 -8 131 -24s71 -32 89 -48l27 -23l-110 -120c-4 4.66699 -10 10.5 -18 17.5s-23.667 16.167 -47 27.5s-46.666 17 -69.999 17
c-18.667 0 -33.334 -3.83301 -44 -11.5c-10.667 -7.66699 -16 -17.167 -16 -28.5zM119.999 -220.002l60 170h190l-110 -170h-140z" />
    <glyph glyph-name="scommaaccent" unicode="&#x219;" horiz-adv-x="480" 
d="M212 375c0 -8 5.33398 -15.999 16.001 -23.999s33 -17.333 67 -28c49.333 -16 87.5 -38.167 114.5 -66.5s40.5 -60.833 40.5 -97.5c0 -51.333 -19 -92.333 -57 -123s-91.333 -46 -160 -46c-40.667 0 -79.667 6.66699 -117 20s-64.333 26.666 -81 39.999l-25 20l75 113
c5.33301 -4.66699 12.5 -10.5 21.5 -17.5s26.333 -16.167 52 -27.5s50.167 -17 73.5 -17c27.333 0 41 8.66699 41 26c0 9.33301 -6.33301 18.333 -19 27s-39 20 -79 34c-93.333 32 -140 85.667 -140 161c0 44.667 18.667 82.667 56 114s88.666 47 153.999 47
c36 0 71 -5.83301 105 -17.5s59.333 -23.167 76 -34.5l24 -18l-75 -115c-4.66699 4 -10.667 9 -18 15s-22 14 -44 24s-43 15 -63 15c-25.333 0 -38 -8 -38 -24zM70.001 -219.999l60 170h190l-110 -170h-140z" />
    <glyph glyph-name="circumflex" unicode="&#x2c6;" horiz-adv-x="530" 
d="M50 570l135 170h160l135 -170h-153l-65 67l-65 -67h-147z" />
    <glyph glyph-name="caron" unicode="&#x2c7;" horiz-adv-x="530" 
d="M480 740l-135 -170h-160l-135 170h153l65 -68l65 68h147z" />
    <glyph glyph-name="breve" unicode="&#x2d8;" horiz-adv-x="452" 
d="M50 740l120 0.000976562v-15c0 -16 5 -29 15 -39s24 -15 42 -15c17.333 0 30.833 4.83301 40.5 14.5c9.66699 9.66895 14.5 22.8359 14.5 39.5v15h120v-5c0 -49.335 -16.5 -89.168 -49.5 -119.5c-33 -30.333 -75.167 -45.5 -126.5 -45.5s-93.5 15.167 -126.5 45.5
s-49.5 70.166 -49.5 119.499v5z" />
    <glyph glyph-name="dotaccent" unicode="&#x2d9;" horiz-adv-x="279" 
d="M50 659c0 26 8.66699 47.667 26 65s39 26 65 26s47.333 -8.33301 64 -25s25 -38 25 -64s-8.66699 -47.667 -26 -65s-39 -26 -65 -26s-47.333 8.33301 -64 25s-25 38 -25 64z" />
    <glyph glyph-name="ring" unicode="&#x2da;" horiz-adv-x="320" 
d="M50 665c0 30.668 10.333 55.8369 31 75.502c20.667 19.667 47 29.5 79 29.5s58.333 -9.83301 79 -29.5s31 -44.834 31 -75.501s-10.333 -55.834 -31 -75.501s-47 -29.5 -79 -29.5s-58.333 9.83301 -79 29.5c-20.667 19.668 -31 44.835 -31 75.5zM117 665.002
c0 -12 4.00098 -22.167 12.001 -30.5s18.333 -12.5 31 -12.5s22.834 4.16699 30.5 12.5c7.66699 8.33301 11.5 18.5 11.5 30.5s-3.83301 22 -11.5 30s-17.834 12 -30.501 12s-23 -4 -31 -12s-12 -18 -12 -30z" />
    <glyph glyph-name="ogonek" unicode="&#x2db;" horiz-adv-x="345" 
d="M140 70l41.998 -69.998c-11.333 -6.66699 -17 -17.334 -17 -32.001c0 -10.667 4.33301 -19.667 13 -27s20.334 -11 35.001 -11c8.66699 0 16.834 1 24.5 3c7.66699 2 13.167 3.66699 16.5 5l6 3l25 -100c-21.333 -17.333 -51.333 -26 -90 -26
c-40.667 0 -75 12.167 -103 36.5s-42 57.166 -42 98.499c0 16.667 3.16699 32.167 9.5 46.5s13.833 25.833 22.5 34.5s17.334 16.167 26.001 22.5s16 10.5 22 12.5z" />
    <glyph glyph-name="tilde" unicode="&#x2dc;" horiz-adv-x="467" 
d="M134 583l-84 9.00098c0 4 0.333008 9.33301 1 16s3.16699 18.5 7.5 35.5s10.166 32 17.499 45s18.5 24.833 33.5 35.5s32.833 16 53.5 16c22 0 41.5 -5.33301 58.5 -16s31.667 -21.334 44 -32.001c12.334 -10.667 24.167 -16 35.499 -16c8 0 14.667 4.33301 20 13
c5.33398 8.66699 8.66699 17 10 25l2 13l84 -9c0 -4 -0.333008 -9.33301 -1 -16s-3.16699 -18.5 -7.5 -35.5s-10.166 -32 -17.499 -45s-18.666 -24.833 -33.999 -35.5s-33.333 -16 -54 -16c-21.333 0 -40.5 5.33301 -57.5 16c-17 10.6709 -31.833 21.3379 -44.5 32
c-12.667 10.667 -24.667 16 -36 16c-8 0 -14.5 -4.33301 -19.5 -13s-8.16699 -17 -9.5 -25z" />
    <glyph glyph-name="hungarumlaut" unicode="&#x2dd;" horiz-adv-x="570" 
d="M55 570l50 170h185l-100 -170h-135zM280 570l50 170h185l-100 -170h-135z" />
    <glyph glyph-name="Delta" unicode="&#x394;" horiz-adv-x="750" 
d="M470 700l280 -700h-750l280 700h190zM370 485l-111 -315h221z" />
    <glyph glyph-name="Delta" unicode="&#x2206;" horiz-adv-x="750" 
d="M470 700l280 -700h-750l280 700h190zM370 485l-111 -315h221z" />
    <glyph glyph-name="pi" unicode="&#x3c0;" horiz-adv-x="720" 
d="M20 370l0.00292969 150.001h670v-150h-110v-180c0 -26.667 13.333 -40 40 -40c8 0 15.667 0.666992 23 2s12.666 2.66602 15.999 3.99902l5 1l26 -142c-26.667 -16.667 -68.334 -25 -125.001 -25c-50.667 0 -90.834 13.5 -120.501 40.5s-44.5 65.167 -44.5 114.5v225
h-100v-370h-180v370h-100z" />
    <glyph glyph-name="Wgrave" unicode="&#x1e80;" horiz-adv-x="1025" 
d="M235 0l-235 700h210l123 -410l117 410h135l117 -410l123 410h200l-235 -700h-165l-113 384l-112 -384h-165zM527 920l60 -170h-140l-110 170h190z" />
    <glyph glyph-name="wgrave" unicode="&#x1e81;" horiz-adv-x="805" 
d="M160 0l-170 520h195l77 -279l78 279h135l76 -273l79 273h185l-170 -520h-170l-73 251l-72 -251h-170zM412 740l60 -170h-140l-110 170h190z" />
    <glyph glyph-name="Wacute" unicode="&#x1e82;" horiz-adv-x="1025" 
d="M235 0l-235 700h210l123 -410l117 410h135l117 -410l123 410h200l-235 -700h-165l-113 384l-112 -384h-165zM447 750l60 170h190l-110 -170h-140z" />
    <glyph glyph-name="wacute" unicode="&#x1e83;" horiz-adv-x="805" 
d="M160 0l-170 520h195l77 -279l78 279h135l76 -273l79 273h185l-170 -520h-170l-73 251l-72 -251h-170zM332 570l60 170h190l-110 -170h-140z" />
    <glyph glyph-name="Wdieresis" unicode="&#x1e84;" horiz-adv-x="1025" 
d="M235 0l-235 700h210l123 -410l117 410h135l117 -410l123 410h200l-235 -700h-165l-113 384l-112 -384h-165zM312 839c0 26 8.66699 47.667 26 65s39 26 65 26s47.333 -8.33301 64 -25s25 -38 25 -64s-8.66699 -47.667 -26 -65s-39 -26 -65 -26s-47.333 8.33301 -64 25
s-25 38 -25 64zM542 839c0 26 8.66699 47.667 26 65s39 26 65 26s47.333 -8.33301 64 -25s25 -38 25 -64s-8.66699 -47.667 -26 -65s-39 -26 -65 -26s-47.333 8.33301 -64 25s-25 38 -25 64z" />
    <glyph glyph-name="wdieresis" unicode="&#x1e85;" horiz-adv-x="805" 
d="M160 0l-170 520h195l77 -279l78 279h135l76 -273l79 273h185l-170 -520h-170l-73 251l-72 -251h-170zM202 659c0 26 8.66699 47.667 26 65s39 26 65 26s47.333 -8.33301 64 -25s25 -38 25 -64s-8.66699 -47.667 -26 -65s-39 -26 -65 -26s-47.333 8.33301 -64 25
s-25 38 -25 64zM432 659c0 26 8.66699 47.667 26 65s39 26 65 26s47.333 -8.33301 64 -25s25 -38 25 -64s-8.66699 -47.667 -26 -65s-39 -26 -65 -26s-47.333 8.33301 -64 25s-25 38 -25 64z" />
    <glyph glyph-name="uni1E9E" unicode="&#x1e9e;" horiz-adv-x="715" 
d="M340 310l0.00195312 119.997l82 106c-15.333 6 -32.666 9 -51.999 9c-36.667 0 -65.834 -12.333 -87.501 -37s-32.5 -59 -32.5 -103v-405h-190v397c0 95.333 28.667 171.333 86 228s133 85 227 85c32.667 0 64.667 -3.66699 96 -11c31.334 -7.33301 57.334 -16 78 -26
c20.667 -10 39.167 -20.167 55.5 -30.5c16.333 -10.3379 28.166 -19.1709 35.499 -26.499l12 -11l-130 -168c50 -17.333 89.167 -44.166 117.5 -80.499s42.5 -79.166 42.5 -128.499c0 -68 -24.833 -124.667 -74.5 -170s-114.834 -68 -195.501 -68
c-16 0 -32.333 0.833008 -49 2.5s-29.334 3.5 -38 5.5l-13 2l25 162c19.333 -4.66699 38.333 -7 57 -7c31.333 0 55.5 7.33301 72.5 22s25.5 34 25.5 58c0 21.334 -8.83301 39.167 -26.5 53.5s-42.167 21.5 -73.5 21.5h-50z" />
    <glyph glyph-name="Ygrave" unicode="&#x1ef2;" horiz-adv-x="710" 
d="M260 0v250l-260 450h220l140 -268l140 268h210l-260 -450v-250h-190zM370 920l60 -170h-140l-110 170h190z" />
    <glyph glyph-name="ygrave" unicode="&#x1ef3;" horiz-adv-x="555" 
d="M186 10l-196 510.002h200l92 -301l93 301h190l-200 -525c-21.333 -56.667 -49.833 -98.334 -85.5 -125.001s-80.5 -40 -134.5 -40c-27.333 0 -54 3.33301 -80 10c-26 6.66602 -45 13.333 -57 20l-18 10l56 145c20 -16.667 49.667 -25 89 -25c12 0 22.167 1.66699 30.5 5
s13.833 6.66602 16.5 9.99902zM292 740.002l60 -170h-140l-110 170h190z" />
    <glyph glyph-name="endash" unicode="&#x2013;" horiz-adv-x="570" 
d="M520 275h-470v160h470v-160z" />
    <glyph glyph-name="emdash" unicode="&#x2014;" horiz-adv-x="900" 
d="M850 275h-800v160h800v-160z" />
    <glyph glyph-name="quoteleft" unicode="&#x2018;" horiz-adv-x="300" 
d="M120 700h140l-30 -330h-190z" />
    <glyph glyph-name="quoteright" unicode="&#x2019;" horiz-adv-x="300" 
d="M180 370h-140l30 330h190z" />
    <glyph glyph-name="quotesinglbase" unicode="&#x201a;" horiz-adv-x="300" 
d="M180 -130h-140l30 330h190z" />
    <glyph glyph-name="quotedblleft" unicode="&#x201c;" horiz-adv-x="550" 
d="M120 700h140l-30 -330h-190zM370 700h140l-30 -330h-190z" />
    <glyph glyph-name="quotedblright" unicode="&#x201d;" horiz-adv-x="550" 
d="M180 370h-140l30 330h190zM430 370h-140l30 330h190z" />
    <glyph glyph-name="quotedblbase" unicode="&#x201e;" horiz-adv-x="550" 
d="M180 -130h-140l30 330h190zM430 -130h-140l30 330h190z" />
    <glyph glyph-name="dagger" unicode="&#x2020;" horiz-adv-x="420" 
d="M380 480h-110v-220h-120v220h-110v110h110v110h120v-110h110v-110z" />
    <glyph glyph-name="daggerdbl" unicode="&#x2021;" horiz-adv-x="420" 
d="M40 370h110v110h-110v110h110v110h120v-110h110v-110h-110v-110h110v-110h-110v-110h-120v110h-110v110z" />
    <glyph glyph-name="bullet" unicode="&#x2022;" horiz-adv-x="440" 
d="M50 349c0 48.667 16.333 89.333 49 122s73.334 49 122.001 49s89 -16 121 -48s48 -72.333 48 -121s-16.333 -89.334 -49 -122c-32.667 -32.667 -73.334 -49 -122.001 -49s-89 16 -121 48s-48 72.333 -48 121z" />
    <glyph glyph-name="perthousand" unicode="&#x2030;" horiz-adv-x="1130" 
d="M127 0l410 600h116l-410 -600h-116zM40 452c0 45.333 15.667 82.999 47 112.999s70 45 116 45s84.333 -14.667 115 -44s46 -66.666 46 -111.999s-15.667 -83 -47 -113s-70 -45 -116 -45s-84.333 14.667 -115 44c-30.667 29.334 -46 66.667 -46 112zM152 452.999
c0 -15.333 4.66699 -27.833 14 -37.5s21.333 -14.5 36 -14.5s26.667 4.83301 36 14.5s14 22.167 14 37.5s-4.66699 27.833 -14 37.5s-21.333 14.5 -36 14.5s-26.667 -4.83301 -36 -14.5s-14 -22.167 -14 -37.5zM416 145.999c0 45.333 15.667 83 47 113s70 45 116 45
s84.333 -14.667 115 -44s46 -66.666 46 -111.999s-15.667 -83 -47 -113s-70 -45 -116 -45s-84.333 14.667 -115 44s-46 66.666 -46 111.999zM528 146.999c0 -15.333 4.66699 -27.833 14 -37.5s21.333 -14.5 36 -14.5s26.667 4.83301 36 14.5s14 22.167 14 37.5
s-4.66699 27.833 -14 37.5s-21.333 14.5 -36 14.5s-26.667 -4.83301 -36 -14.5s-14 -22.167 -14 -37.5zM766 145.999c0 45.333 15.667 83 47 113s70 45 116 45s84.333 -14.667 115 -44s46 -66.666 46 -111.999s-15.667 -83 -47 -113s-70 -45 -116 -45
s-84.333 14.667 -115 44s-46 66.666 -46 111.999zM878 146.999c0 -15.333 4.66699 -27.833 14 -37.5s21.333 -14.5 36 -14.5s26.667 4.83301 36 14.5s14 22.167 14 37.5s-4.66699 27.833 -14 37.5s-21.333 14.5 -36 14.5s-26.667 -4.83301 -36 -14.5s-14 -22.167 -14 -37.5z
" />
    <glyph glyph-name="guilsinglleft" unicode="&#x2039;" horiz-adv-x="445" 
d="M385 515l-149 -163l149 -162l-95 -100l-240 230v60l240 230z" />
    <glyph glyph-name="guilsinglright" unicode="&#x203a;" horiz-adv-x="445" 
d="M60 185l149 162l-149 163l95 100l240 -230v-60l-240 -230z" />
    <glyph glyph-name="fraction" unicode="&#x2044;" horiz-adv-x="240" 
d="M-170 0l485 700h115l-485 -700h-115z" />
    <glyph glyph-name="zerosuperior" unicode="&#x2070;" horiz-adv-x="400" 
d="M40 432v112c0 50.668 15.167 90.335 45.5 119c30.333 28.667 69.166 43 116.499 43s85.5 -13.667 114.5 -41s43.5 -66.333 43.5 -117v-112c0 -50.667 -15.167 -90.334 -45.5 -119c-30.333 -28.667 -69.166 -43 -116.499 -43s-85.5 13.667 -114.5 41
s-43.5 66.333 -43.5 117zM158 553l0.00195312 -126c0 -14 3.83301 -25.167 11.5 -33.5s17.834 -12.5 30.5 -12.5c12.667 0 22.834 4.16699 30.5 12.5c7.66699 8.33301 11.5 19.5 11.5 33.5v126c0 14 -3.83301 25.167 -11.5 33.5s-17.834 12.5 -30.501 12.5
s-22.834 -4.16699 -30.501 -12.5s-11.5 -19.5 -11.5 -33.5z" />
    <glyph glyph-name="foursuperior" unicode="&#x2074;" horiz-adv-x="390" 
d="M203 280v81h-183v96l174 243h116v-249h60v-90h-60v-81h-107zM113 451h90v125z" />
    <glyph glyph-name="fivesuperior" unicode="&#x2075;" horiz-adv-x="374" 
d="M48 441l-0.000976562 258.999h275v-101h-171v-55c16.667 12 36.667 18 60 18c38.667 0 70.334 -13.167 95.001 -39.5s37 -58.166 37 -95.499c0 -46 -14.833 -83 -44.5 -111s-69.167 -42 -118.5 -42c-20 0 -38.833 2.83301 -56.5 8.5s-32 12.667 -43 21
c-11 8.33496 -20.667 16.668 -29 25c-8.33301 8.33301 -14.166 15.5 -17.499 21.5l-5 8l85 63c1.33398 -2.66992 3.66699 -6.33691 7 -11c3.33301 -4.66699 10.5 -10.667 21.5 -18s22.833 -11 35.5 -11c31.333 0 47 14.333 47 43c0 10.667 -3.5 20.167 -10.5 28.5
s-16.833 12.5 -29.5 12.5c-8.66699 0 -16.334 -2 -23.001 -6s-11.167 -7.5 -13.5 -10.5s-3.83301 -5.5 -4.5 -7.5h-97z" />
    <glyph glyph-name="sixsuperior" unicode="&#x2076;" horiz-adv-x="386" 
d="M30 425c0 39.334 13.334 79.667 40.001 121l101 154h128l-97 -140c8 1.33301 15 2 21 2c36.667 0 68 -12.333 94 -37s39 -55.667 39 -93c0 -46.667 -15.833 -84.667 -47.5 -114s-70.834 -44 -117.501 -44c-44.667 0 -82.667 14.333 -114 43s-47 64.667 -47 108z
M148.001 427c0 -14 4 -25.5 12 -34.5s19 -13.5 33 -13.5s25 4.5 33 13.5s12 20.5 12 34.5s-4 25.5 -12 34.5s-19 13.5 -33 13.5s-25 -4.5 -33 -13.5s-12 -20.5 -12 -34.5z" />
    <glyph glyph-name="sevensuperior" unicode="&#x2077;" horiz-adv-x="342" 
d="M34 280l152 316h-161v104h292v-83l-156 -337h-127z" />
    <glyph glyph-name="eightsuperior" unicode="&#x2078;" horiz-adv-x="386" 
d="M45 584c0 36 14 65.334 42 88.001s64 34 108 34c43.333 0 78.5 -10.833 105.5 -32.5s40.5 -50.167 40.5 -85.5c0 -32.667 -14 -60.334 -42 -83.001c38 -26 57 -58.333 57 -97s-15.5 -70.667 -46.5 -96s-70.5 -38 -118.5 -38s-86.833 12 -116.5 36s-44.5 55.333 -44.5 94
c0 40 18.667 72.667 56 98c-27.333 22 -41 49.333 -41 82zM146 415.001c0 -13.333 4.5 -24.667 13.5 -34s20.167 -14 33.5 -14s24.5 4.66699 33.5 14c9 9.33496 13.5 20.668 13.5 34c0 14.667 -4.66699 26.5 -14 35.5s-20.333 13.5 -33 13.5
c-13.333 0 -24.5 -4.83301 -33.5 -14.5s-13.5 -21.167 -13.5 -34.5zM158 577c0 -10 3.33301 -18.667 10 -26s15 -11 25 -11s18.333 3.66699 25 11s10 16 10 26s-3.33301 18.5 -10 25.5s-15 10.5 -25 10.5s-18.333 -3.5 -25 -10.5s-10 -15.5 -10 -25.5z" />
    <glyph glyph-name="ninesuperior" unicode="&#x2079;" horiz-adv-x="386" 
d="M356 555c0 -39.333 -13.334 -79.667 -40.001 -121l-101 -154h-128l97 140c-4.66699 -1.33301 -11.667 -2 -21 -2c-36.667 0 -68 12.333 -94 37s-39 55.667 -39 93c0 46.667 15.833 84.667 47.5 114s70.834 44 117.501 44c44.667 0 82.667 -14.333 114 -43
s47 -64.667 47 -108zM237.999 552.999c0 14 -4 25.5 -12 34.5s-19 13.5 -33 13.5s-25 -4.5 -33 -13.5s-12 -20.5 -12 -34.5s4 -25.5 12 -34.5s19 -13.5 33 -13.5s25 4.5 33 13.5s12 20.5 12 34.5z" />
    <glyph glyph-name="zeroinferior" unicode="&#x2080;" horiz-adv-x="400" 
d="M40 152v112c0 50.667 15.167 90.334 45.5 119.001s69.166 43 116.499 43s85.5 -13.667 114.5 -41s43.5 -66.333 43.5 -117v-112c0 -50.667 -15.167 -90.334 -45.5 -119.001s-69.166 -43 -116.499 -43s-85.5 13.667 -114.5 41s-43.5 66.333 -43.5 117zM158 273
l0.00195312 -126c0 -14 3.83301 -25.167 11.5 -33.5s17.834 -12.5 30.5 -12.5c12.667 0 22.834 4.16699 30.5 12.5c7.66699 8.33301 11.5 19.5 11.5 33.5v126c0 14 -3.83301 25.167 -11.5 33.5s-17.834 12.5 -30.501 12.5s-22.834 -4.16699 -30.501 -12.5
s-11.5 -19.5 -11.5 -33.5z" />
    <glyph glyph-name="oneinferior" unicode="&#x2081;" horiz-adv-x="322" 
d="M20 312l152 108h100v-420h-118v284l-77 -50z" />
    <glyph glyph-name="twoinferior" unicode="&#x2082;" horiz-adv-x="365" 
d="M39 91l136 125c28 26 42 49 42 69c0 10 -3.66699 18.667 -11 26c-7.33398 7.33301 -16.667 11 -28 11c-12.667 0 -24.167 -3.66699 -34.5 -11s-17.5 -15 -21.5 -23l-6 -11l-86 56l5 10c2 4 7.33301 11.333 16 22s18.5 20.167 29.5 28.5s26.167 15.833 45.5 22.5
s40.333 10 63 10c43.333 0 78.5 -12 105.5 -36s40.5 -54 40.5 -90c0 -27.333 -6.5 -51.833 -19.5 -73.5s-34.167 -45.167 -63.5 -70.5l-64 -55h144v-101h-293v91z" />
    <glyph glyph-name="threeinferior" unicode="&#x2083;" horiz-adv-x="364" 
d="M120 173v83h42c28 0 42 12.333 42 37c0 10.667 -3.33301 19 -10 25s-15.334 9 -26.001 9s-20 -2.83301 -28 -8.5s-13.333 -11.167 -16 -16.5l-3 -8l-86 48c0.666992 2 2.16699 5 4.5 9s7.33301 10.833 15 20.5s16.5 18.167 26.5 25.5s23.5 14 40.5 20s35.5 9 55.5 9
c42 0 76.667 -10.5 104 -31.5s41 -48.833 41 -83.5c0 -38 -18.667 -69 -56 -93c45.333 -22 68 -55.333 68 -100c0 -38 -14.833 -68.167 -44.5 -90.5s-68.5 -33.5 -116.5 -33.5c-21.333 0 -41 3.16699 -59 9.5s-32.5 13.833 -43.5 22.5s-20.5 17.334 -28.5 26.001
s-13.667 16 -17 22l-5 10l89 51c1.33301 -3.33301 3.33301 -7.33301 6 -12s9.33398 -10.834 20.001 -18.501s22.667 -11.5 36 -11.5c14 0 25 3.66699 33 11s12 16.333 12 27c0 28 -18 42 -54 42h-42z" />
    <glyph glyph-name="fourinferior" unicode="&#x2084;" horiz-adv-x="390" 
d="M203 0v81h-183v96l174 243h116v-249h60v-90h-60v-81h-107zM113 171h90v125z" />
    <glyph glyph-name="fiveinferior" unicode="&#x2085;" horiz-adv-x="374" 
d="M48 161l-0.000976562 259.001h275v-101h-171v-55c16.667 12 36.667 18 60 18c38.667 0 70.334 -13.167 95.001 -39.5s37 -58.166 37 -95.499c0 -46 -14.833 -83 -44.5 -111s-69.167 -42 -118.5 -42c-20 0 -38.833 2.83301 -56.5 8.5s-32 12.667 -43 21
s-20.667 16.666 -29 24.999s-14.166 15.5 -17.499 21.5l-5 8l85 63c1.33398 -2.66699 3.66699 -6.33398 7 -11.001s10.5 -10.667 21.5 -18s22.833 -11 35.5 -11c31.333 0 47 14.333 47 43c0 10.667 -3.5 20.167 -10.5 28.5s-16.833 12.5 -29.5 12.5
c-8.66699 0 -16.334 -2 -23.001 -6s-11.167 -7.5 -13.5 -10.5s-3.83301 -5.5 -4.5 -7.5h-97z" />
    <glyph glyph-name="sixinferior" unicode="&#x2086;" horiz-adv-x="386" 
d="M30 145c0 39.333 13.334 79.667 40.001 121l101 154h128l-97 -140c8 1.33301 15 2 21 2c36.667 0 68 -12.333 94 -37s39 -55.667 39 -93c0 -46.667 -15.833 -84.667 -47.5 -114s-70.834 -44 -117.501 -44c-44.667 0 -82.667 14.333 -114 43s-47 64.667 -47 108z
M148.001 147.001c0 -14 4 -25.5 12 -34.5s19 -13.5 33 -13.5s25 4.5 33 13.5s12 20.5 12 34.5s-4 25.5 -12 34.5s-19 13.5 -33 13.5s-25 -4.5 -33 -13.5s-12 -20.5 -12 -34.5z" />
    <glyph glyph-name="seveninferior" unicode="&#x2087;" horiz-adv-x="342" 
d="M34 0l152 316h-161v104h292v-83l-156 -337h-127z" />
    <glyph glyph-name="eightinferior" unicode="&#x2088;" horiz-adv-x="386" 
d="M45 304c0 36 14 65.334 42 88.001s64 34 108 34c43.333 0 78.5 -10.833 105.5 -32.5s40.5 -50.167 40.5 -85.5c0 -32.667 -14 -60.334 -42 -83.001c38 -26 57 -58.333 57 -97s-15.5 -70.667 -46.5 -96s-70.5 -38 -118.5 -38s-86.833 12 -116.5 36s-44.5 55.333 -44.5 94
c0 40 18.667 72.667 56 98c-27.333 22 -41 49.333 -41 82zM146 135.001c0 -13.333 4.5 -24.666 13.5 -33.999s20.167 -14 33.5 -14s24.5 4.66699 33.5 14s13.5 20.666 13.5 33.999c0 14.667 -4.66699 26.5 -14 35.5s-20.333 13.5 -33 13.5
c-13.333 0 -24.5 -4.83301 -33.5 -14.5s-13.5 -21.167 -13.5 -34.5zM158 297.001c0 -10 3.33301 -18.667 10 -26s15 -11 25 -11s18.333 3.66699 25 11s10 16 10 26s-3.33301 18.5 -10 25.5s-15 10.5 -25 10.5s-18.333 -3.5 -25 -10.5s-10 -15.5 -10 -25.5z" />
    <glyph glyph-name="nineinferior" unicode="&#x2089;" horiz-adv-x="386" 
d="M356 275c0 -39.333 -13.334 -79.667 -40.001 -121l-101 -154h-128l97 140c-4.66699 -1.33301 -11.667 -2 -21 -2c-36.667 0 -68 12.333 -94 37s-39 55.667 -39 93c0 46.667 15.833 84.667 47.5 114s70.834 44 117.501 44c44.667 0 82.667 -14.333 114 -43
s47 -64.667 47 -108zM237.999 272.999c0 14 -4 25.5 -12 34.5s-19 13.5 -33 13.5s-25 -4.5 -33 -13.5s-12 -20.5 -12 -34.5s4 -25.5 12 -34.5s19 -13.5 33 -13.5s25 4.5 33 13.5s12 20.5 12 34.5z" />
    <glyph glyph-name="Euro" unicode="&#x20ac;" 
d="M500 235l-214.999 0.00195312c0 -24.667 7.83301 -45 23.5 -61s36.167 -24 61.5 -24c18 0 34 4.16699 48 12.5s23.667 16.833 29 25.5l8 12l145 -80c-1.35156 -3.33301 -3.68457 -8 -7 -14c-3.33301 -6 -11.333 -16.5 -24 -31.5s-26.834 -28.167 -42.501 -39.5
c-15.668 -11.333 -37.335 -21.666 -65.001 -30.999c-27.667 -9.33301 -57.5 -14 -89.5 -14c-77.333 0 -140.166 21.5 -188.499 64.5s-72.833 103.167 -73.5 180.5h-80v90h80v50h-80v90h80c2 75.333 28.167 135 78.5 179s113.5 66 189.5 66c32 0 61.5 -4.5 88.5 -13.5
c27.001 -9 48.334 -19.833 64 -32.5c15.667 -12.667 29 -25.334 40 -38.001s18.833 -23.334 23.5 -32.001l6 -14l-145 -80c-0.666992 1.34082 -1.66699 3.17383 -3 5.49902c-1.33301 2.33301 -4.33301 6.33301 -9 12s-10 10.667 -16 15s-14 8.33301 -24 12s-21 5.5 -33 5.5
c-25.333 0 -45.833 -8 -61.5 -24s-23.5 -36.333 -23.5 -61h235v-90h-235v-50h215v-90z" />
    <glyph glyph-name="trademark" unicode="&#x2122;" horiz-adv-x="793" 
d="M532 432l-66 117v-164h-95v315h101l86 -154l87 154h98v-315h-97v162l-65 -115h-49zM325 611h-87v-226h-100v226h-88v89h275v-89z" />
    <glyph glyph-name="minus" unicode="&#x2212;" 
d="M570 275h-520v160h520v-160z" />
    <glyph glyph-name="fi" unicode="&#xfb01;" horiz-adv-x="737" 
d="M290 510v-20h135v-145h-135v-345h-180v345h-90v145h90v35c0 57.333 16.5 102.5 49.5 135.5s78.167 49.5 135.5 49.5c27.334 0 52.667 -1.66699 76 -5c23.334 -3.33301 39.667 -7 49 -11l15 -5l-20 -135c-18 7.33301 -39.667 11 -65 11c-40 0 -60 -18.333 -60 -55zM500 0
v520h182v-520h-182zM481 660c0 29.333 10.333 53.333 31 72s47 28 79 28s58.333 -9.33301 79 -28s31 -42.667 31 -72s-10.333 -53.333 -31 -72s-47 -28 -79 -28s-58.333 9.33301 -79 28s-31 42.667 -31 72z" />
    <glyph glyph-name="fl" unicode="&#xfb02;" horiz-adv-x="737" 
d="M290 510v-20h135v-145h-135v-345h-180v345h-90v145h90v35c0 57.333 16.5 102.5 49.5 135.5s78.167 49.5 135.5 49.5c27.334 0 52.667 -1.66699 76 -5c23.334 -3.33301 39.667 -7 49 -11l15 -5l-20 -135c-18 7.33301 -39.667 11 -65 11c-40 0 -60 -18.333 -60 -55zM500 0
v700h182v-700h-182z" />
    <glyph glyph-name=".null" horiz-adv-x="0" 
 />
    <glyph glyph-name="nonmarkingreturn" horiz-adv-x="333" 
 />
    <glyph glyph-name="one.onum" horiz-adv-x="490" 
d="M10 465l255 175h145v-640h-175v433l-140 -88z" />
    <glyph glyph-name="two.onum" horiz-adv-x="530" 
d="M35 135l229.998 205.002c36.667 32 55 61.667 55 89c0 19.334 -6.33301 35.167 -19 47.499c-12.667 12.333 -29.667 18.5 -51 18.5c-19.333 0 -37.333 -5.83301 -54 -17.5s-28.667 -23.5 -36 -35.5l-10 -17l-130 70c1.33301 4 3.5 9.5 6.5 16.5s11.167 19.5 24.5 37.5
s28.333 33.667 45 47s40.334 25.666 71.001 36.999s64.334 17 101.001 17c65.333 0 119.5 -19 162.5 -57s64.5 -85 64.5 -141c0 -39.333 -10.167 -75.5 -30.5 -108.5s-51.833 -67.5 -94.5 -103.5l-106 -90h226v-150h-455v135z" />
    <glyph glyph-name="three.onum" horiz-adv-x="545" 
d="M190 265l0.00585938 115.998h50c24 0 42.5 5.83301 55.5 17.5s19.5 27.167 19.5 46.5s-5.83301 34.5 -17.5 45.5s-25.834 16.5 -42.5 16.5c-16.667 0 -30.834 -4.83301 -42.501 -14.5s-19.167 -19.167 -22.5 -28.5l-5 -14l-140 55c1.33301 4 3.33301 9.16699 6 15.5
s9.66699 17.833 21 34.5s24.333 31.5 39 44.5s35.667 24.667 63 35s57.666 15.5 90.999 15.5c62 0 115 -16.5 159 -49.5s66 -76.167 66 -129.5c0 -59.333 -27.333 -106.333 -82 -141c68 -29.333 102 -79.666 102 -150.999c0 -57.333 -23.5 -103.166 -70.5 -137.499
s-107.167 -51.5 -180.5 -51.5c-35.333 0 -67.833 5.33301 -97.5 16s-52.834 23.5 -69.501 38.5s-30.834 30.167 -42.501 45.5s-19.5 28.333 -23.5 39l-6 16l145 60c0.666992 -2 1.66699 -4.66699 3 -8s4.66602 -9 9.99902 -17s11.166 -15.167 17.499 -21.5
c6.33301 -6.33398 15.333 -12.167 27 -17.5s24.167 -8 37.5 -8c24 0 42.5 6.16699 55.5 18.5s19.5 27.833 19.5 46.5c0 19.333 -7.83301 35.333 -23.5 48s-39.5 19 -71.5 19h-50z" />
    <glyph glyph-name="four.onum" horiz-adv-x="580" 
d="M300 0v125h-285v130l280 385h170v-390h100v-125h-100v-125h-165zM157 250h143v196z" />
    <glyph glyph-name="five.onum" horiz-adv-x="560" 
d="M65 250l-0.000976562 390h425v-150h-270v-90c26.667 16.667 57.667 25 93 25c62.667 0 113.667 -19 153 -57s59 -85 59 -141c0 -70.667 -23.667 -127.834 -71 -171.501s-108.666 -65.5 -183.999 -65.5c-31.333 0 -61 4.83301 -89 14.5s-50.5 21.334 -67.5 35.001
s-31.667 27.334 -44 41.001s-21.166 25.5 -26.499 35.5l-8 14l132 81c0.666992 -2 2 -4.5 4 -7.5s6.16699 -8.66699 12.5 -17c6.33301 -8.33398 13.166 -15.667 20.499 -22s17 -12 29 -17s24.333 -7.5 37 -7.5c25.333 0 45 6.66699 59 20s21 31.666 21 54.999
c0 19.333 -6.66699 35.833 -20 49.5s-30.333 20.5 -51 20.5c-30 0 -52.667 -11.667 -68 -35h-146z" />
    <glyph glyph-name="six.onum" horiz-adv-x="580" 
d="M35 227c0 36.667 5.83203 69.832 17.499 99.499s30.5 62.834 56.5 99.501l151 214h195l-157 -207c14 4.66699 27.333 7 40 7c56.667 0 105.334 -18.833 146.001 -56.5s61 -86.167 61 -145.5c0 -72 -25.667 -131.333 -77 -178s-111.666 -70 -180.999 -70
c-66.667 0 -125.334 22.5 -176.001 67.5s-76 101.5 -76 169.5zM209.999 229.998c0 -22.667 7.33301 -41.333 22 -56s34 -22 58 -22s43.333 7.33301 58 22s22 33.334 22 56c0 22.667 -7.33301 41.334 -22 56.001s-34 22 -58 22s-43.333 -7.33301 -58 -22
s-22 -33.334 -22 -56.001z" />
    <glyph glyph-name="seven.onum" horiz-adv-x="500" 
d="M60 0l224 485h-264v155h460v-120l-230 -520h-190z" />
    <glyph glyph-name="eight.onum" horiz-adv-x="580" 
d="M60 464c0 54.667 22.001 99.334 66.001 134c44 34.667 99.667 52 167 52s122 -16.5 164 -49.5s63 -76.5 63 -130.5c0 -48.667 -21.667 -90.334 -65 -125c60 -39.333 90 -89 90 -149c0 -59.333 -24.333 -108.5 -73 -147.5s-110.334 -58.5 -185 -58.5
c-74.667 0 -135.334 18.5 -182.001 55.5s-70 85.167 -70 144.5s30 109.333 90 150c-43.333 32 -65 73.333 -65 124zM210.001 207c0 -22 7.5 -40.667 22.5 -56s34.167 -23 57.5 -23s42.5 7.66699 57.5 23s22.5 34 22.5 56s-7.5 40.667 -22.5 56s-34.167 23 -57.5 23
s-42.5 -7.66699 -57.5 -23s-22.5 -34 -22.5 -56zM230.001 453c0 -16.667 5.5 -30.667 16.5 -42s25.5 -17 43.5 -17s32.5 5.66699 43.5 17s16.5 25.333 16.5 42s-5.5 30.667 -16.5 42s-25.5 17 -43.5 17s-32.5 -5.66699 -43.5 -17s-16.5 -25.333 -16.5 -42z" />
    <glyph glyph-name="nine.onum" horiz-adv-x="580" 
d="M545 413c0 -36.667 -5.83301 -69.832 -17.5 -99.498c-11.667 -29.667 -30.5 -62.834 -56.5 -99.501l-151 -214h-195l157 207c-11.333 -4.66699 -24.666 -7 -39.999 -7c-56.667 0 -105.334 18.833 -146.001 56.5s-61 86.167 -61 145.5c0 72 25.667 131.333 77 177.999
c51.333 46.667 111.666 70 180.999 70c66.667 0 125.334 -22.5 176.001 -67.5s76 -101.5 76 -169.5zM370 410.002c0 22.667 -7.33301 41.333 -22 56s-34 22 -58 22s-43.333 -7.33301 -58 -22c-14.667 -14.668 -22 -33.335 -22 -56.001c0 -22.667 7.33301 -41.334 22 -56
c14.667 -14.667 34 -22 58 -22s43.333 7.33301 58 22s22 33.334 22 56.001z" />
    <glyph glyph-name="zero.onum" horiz-adv-x="580" 
d="M40 237v160c0 78.667 23.833 140.5 71.5 185.5s108.167 67.5 181.5 67.5s132.833 -21.5 178.5 -64.5s68.5 -103.833 68.5 -182.5v-160c0 -78.667 -23.833 -140.5 -71.5 -185.5s-108.167 -67.5 -181.5 -67.5s-132.833 21.5 -178.5 64.5s-68.5 103.833 -68.5 182.5z
M215 415v-190c0 -22 7 -40 21 -54s32 -21 54 -21s40 7 54 21s21 32 21 54v190c0 22 -7 40 -21 54s-32 21 -54 21s-40 -7 -54 -21s-21 -32 -21 -54z" />
    <glyph glyph-name="numbersign.onum" horiz-adv-x="610" 
d="M290 0l27 125h-90l-27 -125h-115l27 125h-77v105h99l22 100h-81v105h103l27 125h115l-27 -125h90l27 125h115l-27 -125h77v-105h-99l-22 -100h81v-105h-103l-27 -125h-115zM271 330l-22 -100h90l22 100h-90z" />
    <glyph glyph-name="cent.onum" horiz-adv-x="524" 
d="M246 40l-0.00292969 99.999c-64 11.333 -116 39.833 -156 85.5s-60 99.5 -60 161.5c0 61.334 20.333 115.167 61 161.5s92.334 76.166 155.001 89.499v102h100v-98c20 -2.66699 39 -7.16699 57 -13.5s32.833 -13 44.5 -20s21.834 -14 30.501 -21s14.667 -12.833 18 -17.5
l6 -7l-119 -113c-2 2.66699 -4.83301 6.33398 -8.5 11.001s-12.167 10.667 -25.5 18s-28 11 -44 11c-28 0 -51.667 -9.83301 -71 -29.5s-29 -43.167 -29 -70.5s9.66699 -50.833 29 -70.5s43 -29.5 71 -29.5c18 0 33.833 3.66699 47.5 11s22.834 15 27.501 23l7 11l117 -110
c-1.33301 -2 -3.33301 -4.5 -6 -7.5c-2.66895 -3 -8.83594 -8.83301 -18.501 -17.5c-9.66699 -8.66699 -20.167 -16.667 -31.5 -24c-11.333 -7.33398 -26.166 -14.667 -44.499 -22s-37.5 -12.666 -57.5 -15.999v-98h-100z" />
    <glyph glyph-name="dollar.onum" horiz-adv-x="530" 
d="M323 171c0 14 -6.99902 27.002 -20.999 39.002s-43 27.333 -87 46c-47.333 20.667 -86 48.167 -116 82.5s-45 73.833 -45 118.5c0 48 15.5 88.333 46.5 121c31 32.6689 72.167 53.3359 123.5 62v100h100v-99c23.333 -3.33301 45.333 -9.33301 66 -18
s37.5 -17.834 50.5 -27.501s24.167 -19.167 33.5 -28.5s16 -17 20 -23l6 -10l-121 -87c-2.66992 4.66699 -6.83691 10.5 -12.501 17.5c-5.66699 7 -17.5 16.167 -35.5 27.5s-36.333 17 -55 17c-14.667 0 -26.334 -3.66699 -35.001 -11s-13 -16.333 -13 -27
c0 -14.668 5.83301 -27.335 17.5 -38.001c11.667 -10.667 34.834 -23.667 69.501 -39c121.333 -53.333 182 -120.666 182 -201.999c0 -49.333 -15.833 -91.166 -47.5 -125.499s-73.5 -56.5 -125.5 -66.5v-100h-100v97c-27.333 3.33301 -52.833 9.83301 -76.5 19.5
s-43 20.167 -58 31.5s-28 22.666 -39 33.999s-18.833 20.666 -23.5 27.999l-7 11l123 88c4 -6 9.5 -13.333 16.5 -22s21.5 -20.167 43.5 -34.5s44.333 -21.5 67 -21.5c16.667 0 29.667 3.66699 39 11s14 17 14 29z" />
    <glyph glyph-name="sterling.onum" horiz-adv-x="570" 
d="M450 260l-175.001 0.000976562v-110h260v-150h-435v260h-80v100h80v47c0 75.333 23 134.666 69 177.999s104 65 174 65c28 0 54.333 -3.83301 79 -11.5s44.334 -17 59.001 -28s27.5 -22 38.5 -33s18.833 -20.167 23.5 -27.5l7 -12l-140 -93c0 1.33301 -0.5 3 -1.5 5
s-3.16699 5.5 -6.5 10.5s-7.33301 9.5 -12 13.5s-11.5 7.66699 -20.5 11s-18.833 5 -29.5 5c-18.667 0 -34.167 -6 -46.5 -18s-18.5 -27.667 -18.5 -47v-65h175v-100z" />
    <glyph glyph-name="Euro.onum" horiz-adv-x="590" 
d="M470 215l-200.001 -0.00195312c0 -23.333 7.5 -42.5 22.5 -57.5s34.167 -22.5 57.5 -22.5c17.334 0 32.667 4.5 46 13.5s22.333 18.167 27 27.5l7 14l140 -65c-1.35059 -3.33301 -3.68359 -8.16602 -7 -14.499c-3.33789 -6.33301 -11.1709 -17.166 -23.5 -32.499
c-12.335 -15.333 -26.168 -29 -41.499 -41c-15.333 -12 -36.5 -22.833 -63.5 -32.5s-56.167 -14.5 -87.5 -14.5c-71.333 0 -130 20 -176 60s-69.667 95 -71 165h-80v85h80v40h-80v85h80c2.66699 68 28 122.5 76 163.5s107 61.5 177 61.5c22.667 0 44.167 -2.5 64.5 -7.5
c20.334 -5 37.667 -11.5 51.999 -19.5c14.333 -8 27.5 -16.667 39.5 -26s21.667 -18.833 29 -28.5s13.5 -18.5 18.5 -26.5s8.5 -14.667 10.5 -20l3 -7l-140 -65c-0.666992 1.33301 -1.5 3.33301 -2.5 6s-3.66699 7.16699 -8 13.5s-9.16602 11.833 -14.499 16.5s-13 9 -23 13
s-20.667 6 -32 6c-23.333 0 -42.5 -7.5 -57.5 -22.5s-22.5 -34.167 -22.5 -57.5h220v-85h-220v-40h200v-85z" />
    <glyph glyph-name="yen.onum" horiz-adv-x="630" 
d="M225 0v115h-195v90h195v35l-14 25h-181v90h133l-153 285h215l95 -232l95 232h205l-153 -285h133v-90h-182l-13 -25v-35h195v-90h-195v-115h-180z" />
    <glyph glyph-name="florin.onum" horiz-adv-x="590" 
d="M280 -160l-174.999 -0.000976562l28 370h-113v105h121l9 110c5.33301 72 28.333 127.5 69 166.5s93.667 58.5 159 58.5c27.334 0 52.667 -4 76 -12c23.334 -8 41.667 -17.667 54.999 -29c13.333 -11.333 25 -22.833 35 -34.5s16.667 -21.5 20 -29.5l6 -12l-130 -83
c-0.679688 2.66699 -1.84668 6.33398 -3.5 11.001c-1.66699 4.66699 -7.16699 10.667 -16.5 18s-21 11 -35 11c-36.667 0 -56.667 -21.667 -60 -65l-9 -110h169v-105h-177z" />
    <glyph glyph-name="percent.onum" horiz-adv-x="780" 
d="M127 0l410 560h116l-410 -560h-116zM40 414c0 44.667 15.5 81.833 46.5 111.5s69.167 44.5 114.5 44.5s83.166 -14.5 113.499 -43.5s45.5 -65.833 45.5 -110.5s-15.5 -81.834 -46.5 -111.5c-31 -29.667 -69.167 -44.5 -114.5 -44.5s-83.166 14.5 -113.499 43.5
s-45.5 65.833 -45.5 110.5zM150 414.999c0 -15.333 4.66699 -27.833 14 -37.5s21.333 -14.5 36 -14.5s26.667 4.83301 36 14.5s14 22.167 14 37.5s-4.66699 27.833 -14 37.5s-21.333 14.5 -36 14.5s-26.667 -4.83301 -36 -14.5s-14 -22.167 -14 -37.5zM420 143.999
c0 44.667 15.5 81.834 46.5 111.501s69.167 44.5 114.5 44.5s83.166 -14.5 113.499 -43.5s45.5 -65.833 45.5 -110.5s-15.5 -81.834 -46.5 -111.501s-69.167 -44.5 -114.5 -44.5s-83.166 14.5 -113.499 43.5s-45.5 65.833 -45.5 110.5zM530 144.999
c0 -15.333 4.66699 -27.833 14 -37.5s21.333 -14.5 36 -14.5s26.667 4.83301 36 14.5s14 22.167 14 37.5s-4.66699 27.833 -14 37.5s-21.333 14.5 -36 14.5s-26.667 -4.83301 -36 -14.5s-14 -22.167 -14 -37.5z" />
    <glyph glyph-name="perthousand.onum" horiz-adv-x="1130" 
d="M127 0l410 560h116l-410 -560h-116zM40 414c0 44.667 15.5 81.833 46.5 111.5s69.167 44.5 114.5 44.5s83.166 -14.5 113.499 -43.5s45.5 -65.833 45.5 -110.5s-15.5 -81.834 -46.5 -111.5c-31 -29.667 -69.167 -44.5 -114.5 -44.5s-83.166 14.5 -113.499 43.5
s-45.5 65.833 -45.5 110.5zM150 414.999c0 -15.333 4.66699 -27.833 14 -37.5s21.333 -14.5 36 -14.5s26.667 4.83301 36 14.5s14 22.167 14 37.5s-4.66699 27.833 -14 37.5s-21.333 14.5 -36 14.5s-26.667 -4.83301 -36 -14.5s-14 -22.167 -14 -37.5zM420 143.999
c0 44.667 15.5 81.834 46.5 111.501s69.167 44.5 114.5 44.5s83.166 -14.5 113.499 -43.5s45.5 -65.833 45.5 -110.5s-15.5 -81.834 -46.5 -111.501s-69.167 -44.5 -114.5 -44.5s-83.166 14.5 -113.499 43.5s-45.5 65.833 -45.5 110.5zM530 144.999
c0 -15.333 4.66699 -27.833 14 -37.5s21.333 -14.5 36 -14.5s26.667 4.83301 36 14.5s14 22.167 14 37.5s-4.66699 27.833 -14 37.5s-21.333 14.5 -36 14.5s-26.667 -4.83301 -36 -14.5s-14 -22.167 -14 -37.5zM770 143.999c0 44.667 15.5 81.834 46.5 111.501
s69.167 44.5 114.5 44.5s83.166 -14.5 113.499 -43.5s45.5 -65.833 45.5 -110.5s-15.5 -81.834 -46.5 -111.501s-69.167 -44.5 -114.5 -44.5c-45.334 0 -83.167 14.5 -113.499 43.5c-30.333 29 -45.5 65.833 -45.5 110.5zM880 144.999c0 -15.333 4.66699 -27.833 14 -37.5
s21.333 -14.5 36 -14.5s26.667 4.83301 36 14.5s14 22.167 14 37.5s-4.66699 27.833 -14 37.5s-21.333 14.5 -36 14.5s-26.667 -4.83301 -36 -14.5s-14 -22.167 -14 -37.5z" />
    <glyph glyph-name="one.lnum" 
d="M50 530l240 170h150v-555h155v-145h-520v145h185v346l-125 -81z" />
    <glyph glyph-name="two.lnum" 
d="M65 140l229.999 204.998c30 26.667 50.833 49.334 62.5 68.001s17.5 39.334 17.5 62.001c0 20.667 -7.5 38.334 -22.5 53.001s-35.833 22 -62.5 22c-13.333 0 -26.166 -2.66699 -38.499 -8c-12.334 -5.33301 -22.667 -12 -31 -20c-8.33398 -8 -15.667 -16 -22 -24
c-6.33398 -8 -11.167 -14.667 -14.5 -20l-4 -8l-130 85c1.33301 4 3.66602 9.5 6.99902 16.5s12 19.5 26 37.5s29.833 33.667 47.5 47s42.334 25.666 74.001 36.999s66.167 17 103.5 17c72 0 131.167 -20.667 177.5 -62s69.5 -91.333 69.5 -150
c0 -50 -11.167 -94.5 -33.5 -133.5s-59.5 -80.5 -111.5 -124.5l-100 -85h240v-155h-485v140z" />
    <glyph glyph-name="three.lnum" 
d="M200 290l0.00292969 135.001h75c60 0 90 21.667 90 65c0 20 -7.33301 35.833 -22 47.5s-34 17.5 -58 17.5c-21.333 0 -40 -5.5 -56 -16.5s-26.333 -21.833 -31 -32.5l-8 -16l-130 75c1.33301 4 3.66602 9.16699 6.99902 15.5s11.666 17.833 24.999 34.5
s28.333 31.5 45 44.5s39.5 24.667 68.5 35s60.5 15.5 94.5 15.5c68 0 125.833 -17.833 173.5 -53.5s71.5 -81.834 71.5 -138.501c0 -64 -31 -115.333 -93 -154c75.333 -36 113 -92 113 -168c0 -62 -25.333 -111.833 -76 -149.5s-115.667 -56.5 -195 -56.5
c-36.667 0 -70.5 5.33301 -101.5 16s-55.833 23.5 -74.5 38.5s-34.5 30.167 -47.5 45.5s-22.167 28.333 -27.5 39l-8 16l135 80c0.666992 -2 2 -4.83301 4 -8.5s6.5 -10.167 13.5 -19.5s14.667 -17.5 23 -24.5s19.666 -13.333 33.999 -19s29.5 -8.5 45.5 -8.5
c29.333 0 52.5 7 69.5 21s25.5 31 25.5 51c0 48.667 -36.667 73 -110 73h-75z" />
    <glyph glyph-name="four.lnum" 
d="M325 0v140h-300v145l295 415h175v-420h100v-140h-100v-140h-170zM173 280h152v213z" />
    <glyph glyph-name="five.lnum" 
d="M80 275l-0.00195312 424.999h455v-155h-295v-105c30 20 64.333 30 103 30c66.667 0 121.167 -21.833 163.5 -65.5s63.5 -96.834 63.5 -159.5c0 -74.667 -25 -135.834 -75 -183.501s-115 -71.5 -195 -71.5c-32.667 0 -63.667 4.83301 -93 14.5
s-53.166 21.334 -71.499 35.001s-34.333 27.334 -48 41.001s-23.5 25.5 -29.5 35.5l-8 14l135 95c0.666992 -2 2 -4.5 4 -7.5s6.5 -8.5 13.5 -16.5s14.5 -15.167 22.5 -21.5s18.5 -12 31.5 -17s26.5 -7.5 40.5 -7.5c28.667 0 51.334 7.83301 68.001 23.5s25 36.167 25 61.5
c0 20 -7.33301 37.5 -22 52.5s-34.667 22.5 -60 22.5c-15.333 0 -29 -3.33301 -41 -10s-19.833 -12.334 -23.5 -17c-3.66699 -4.66699 -6.5 -9 -8.5 -13h-155z" />
    <glyph glyph-name="six.lnum" 
d="M45 242c0 67.333 21.999 134.666 65.999 201.999l169 256h200l-159 -233c10 2 20.667 3 32 3c60.667 0 112.834 -20.5 156.501 -61.5s65.5 -92.833 65.5 -155.5c0 -77.333 -26 -140.5 -78 -189.5s-115.333 -73.5 -190 -73.5c-72 0 -133.667 23.833 -185 71.5
s-77 107.834 -77 180.501zM224.999 245c0 -26 7.66699 -47.5 23 -64.5s36 -25.5 62 -25.5s46.667 8.5 62 25.5s23 38.5 23 64.5s-7.66699 47.5 -23 64.5s-36 25.5 -62 25.5s-46.667 -8.5 -62 -25.5s-23 -38.5 -23 -64.5z" />
    <glyph glyph-name="seven.lnum" 
d="M95 0l281 540h-326v160h530v-125l-290 -575h-195z" />
    <glyph glyph-name="eight.lnum" 
d="M70 507c0 59.333 23 108 69 146s104 57 174 57s127 -18.167 171 -54.5s66 -83.833 66 -142.5c0 -53.333 -22.667 -99.333 -68 -138c62 -42.667 93 -96.667 93 -162c0 -64 -25.333 -117.167 -76 -159.5s-114.667 -63.5 -192 -63.5s-140.333 20.167 -189 60.5
s-73 92.5 -73 156.5c0 65.334 30.667 119.667 92 163c-44.667 37.333 -67 83 -67 137zM225 225c0 -24.667 7.83301 -45 23.5 -61s36.167 -24 61.5 -24s45.833 8 61.5 24s23.5 36.333 23.5 61s-7.83301 45 -23.5 61s-36.167 24 -61.5 24s-45.833 -8 -61.5 -24
s-23.5 -36.333 -23.5 -61zM245 495c0 -19.333 6 -35 18 -47s27.667 -18 47 -18s35 6 47 18s18 27.667 18 47s-6 35 -18 47s-27.667 18 -47 18s-35 -6 -47 -18s-18 -27.667 -18 -47z" />
    <glyph glyph-name="nine.lnum" 
d="M575 458c0 -67.333 -21.999 -134.666 -65.999 -201.999l-169 -256h-200l159 233c-10 -2 -20.667 -3 -32 -3c-60.667 0 -112.834 20.5 -156.501 61.5s-65.5 92.833 -65.5 155.5c0 77.333 26 140.5 78 189.5s115.333 73.5 190 73.5c72 0 133.667 -23.833 185 -71.5
s77 -107.834 77 -180.501zM395.001 455c0 26 -7.66699 47.5 -23 64.5s-36 25.5 -62 25.5s-46.667 -8.5 -62 -25.5s-23 -38.5 -23 -64.5s7.66699 -47.5 23 -64.5s36 -25.5 62 -25.5s46.667 8.5 62 25.5s23 38.5 23 64.5z" />
    <glyph glyph-name="zero.lnum" 
d="M50 247v200c0 81.333 24.833 145.5 74.5 192.5s112.5 70.5 188.5 70.5s137.833 -22.5 185.5 -67.5s71.5 -108.167 71.5 -189.5v-200c0 -81.333 -24.833 -145.5 -74.5 -192.5s-112.5 -70.5 -188.5 -70.5s-137.833 22.5 -185.5 67.5s-71.5 108.167 -71.5 189.5zM230 465
v-230c0 -23.333 7.5 -42.5 22.5 -57.5s34.167 -22.5 57.5 -22.5s42.5 7.5 57.5 22.5s22.5 34.167 22.5 57.5v230c0 23.333 -7.5 42.5 -22.5 57.5s-34.167 22.5 -57.5 22.5s-42.5 -7.5 -57.5 -22.5s-22.5 -34.167 -22.5 -57.5z" />
    <glyph glyph-name="numbersign.lnum" 
d="M295 0l31 185h-90l-31 -185h-115l31 185h-81v105h99l21 120h-80v105h98l32 185h115l-32 -185h90l32 185h115l-32 -185h82v-105h-100l-21 -120h81v-105h-99l-31 -185h-115zM275 410l-21 -120h90l21 120h-90z" />
    <glyph glyph-name="cent.lnum" 
d="M291 60v99c-72.667 10.667 -131 40.167 -175 88.5c-44 48.334 -66 108.167 -66 179.5c0 70 22.167 129.833 66.5 179.5s102.5 80.5 174.5 92.5v101h100v-98c33.333 -4 64.333 -12.5 93 -25.5s49 -25.167 61 -36.5l18 -17l-125 -120c-2 3.33301 -5.33301 7.33301 -10 12
c-4.66699 4.6748 -14.5 10.8418 -29.5 18.5c-15 7.66699 -31.167 11.5 -48.5 11.5c-36 0 -65 -10.667 -87 -32s-33 -49 -33 -83s11 -61.667 33 -83s51 -32 87 -32c18.667 0 35.667 3.83301 51 11.5s26 15.5 32 23.5l9 12l123 -117c-4.66699 -5.33301 -11.5 -12 -20.5 -20
s-28.5 -20 -58.5 -36s-61.667 -26.333 -95 -31v-98h-100z" />
    <glyph glyph-name="dollar.lnum" 
d="M371 189c0 16 -9.16211 31.833 -27.4951 47.5s-51.5 35.5 -99.5 59.5c-101.333 51.333 -152 122 -152 212c0 50 16.5 92.167 49.5 126.5s76.5 56.166 130.5 65.499v100h100v-99c25.333 -3.33301 49 -9.83301 71 -19.5s39.833 -19.834 53.5 -30.501
s25.5 -21.167 35.5 -31.5s17.333 -18.833 22 -25.5l6 -11l-130 -93c-1.33301 2 -3 4.33301 -5 7s-6.33301 7.83398 -13 15.501c-6.66992 7.6709 -13.8369 14.3379 -21.501 20.001c-7.66797 5.6748 -17.335 10.8418 -29 15.5c-11.667 4.66699 -23.5 7 -35.5 7
c-14.667 0 -26.5 -3.66699 -35.5 -11s-13.5 -17 -13.5 -29c0 -15.333 7 -29.166 21 -41.499s40.333 -28.5 79 -48.5c119.333 -61.333 179 -135.666 179 -222.999c0 -52.667 -16.833 -97 -50.5 -133s-78.167 -59 -133.5 -69v-100h-100v97
c-29.333 3.33301 -56.833 10.166 -82.5 20.499s-46.334 22 -62.001 35s-29.334 25.667 -41.001 38s-19.834 22.833 -24.501 31.5l-7 12l131 93c1.33301 -2 3.5 -4.83301 6.5 -8.5s9 -10.334 18 -20.001s18.167 -18 27.5 -25s21.166 -13.5 35.499 -19.5s28.5 -9 42.5 -9
c16.667 0 30 4 40 12s15 18.667 15 32z" />
    <glyph glyph-name="sterling.lnum" 
d="M480 290h-190.003v-135h275v-155h-455v290h-80v100h80v67c0 78.667 23.833 140.5 71.5 185.5s108.167 67.5 181.5 67.5c28.667 0 55.834 -4 81.501 -12s46.334 -17.667 62.001 -29c15.668 -11.333 29.335 -22.833 41.001 -34.5c11.6709 -11.667 19.8379 -21.5 24.5 -29.5
l8 -12l-145 -98c-0.666992 1.34082 -1.5 3.17383 -2.5 5.5c-1 2.33301 -3.33301 6.33301 -7 12s-8.16699 10.667 -13.5 15s-12.5 8.33301 -21.5 12s-19.167 5.5 -30.5 5.5c-20.667 0 -37.5 -6.5 -50.5 -19.5s-19.5 -29.833 -19.5 -50.5v-85h190v-100z" />
    <glyph glyph-name="Euro.lnum" 
d="M500 235l-214.999 0.00195312c0 -24.667 7.83301 -45 23.5 -61s36.167 -24 61.5 -24c18 0 34 4.16699 48 12.5s23.667 16.833 29 25.5l8 12l145 -80c-1.35156 -3.33301 -3.68457 -8 -7 -14c-3.33301 -6 -11.333 -16.5 -24 -31.5s-26.834 -28.167 -42.501 -39.5
c-15.668 -11.333 -37.335 -21.666 -65.001 -30.999c-27.667 -9.33301 -57.5 -14 -89.5 -14c-77.333 0 -140.166 21.5 -188.499 64.5s-72.833 103.167 -73.5 180.5h-80v90h80v50h-80v90h80c2 75.333 28.167 135 78.5 179s113.5 66 189.5 66c32 0 61.5 -4.5 88.5 -13.5
c27.001 -9 48.334 -19.833 64 -32.5c15.667 -12.667 29 -25.334 40 -38.001s18.833 -23.334 23.5 -32.001l6 -14l-145 -80c-0.666992 1.34082 -1.66699 3.17383 -3 5.49902c-1.33301 2.33301 -4.33301 6.33301 -9 12s-10 10.667 -16 15s-14 8.33301 -24 12s-21 5.5 -33 5.5
c-25.333 0 -45.833 -8 -61.5 -24s-23.5 -36.333 -23.5 -61h235v-90h-235v-50h215v-90z" />
    <glyph glyph-name="yen.lnum" 
d="M215 0v175h-185v90h185v35l-13 25h-172v90h126l-146 285h215l90 -219l90 219h205l-146 -285h126v-90h-172l-13 -25v-35h185v-90h-185v-175h-190z" />
    <glyph glyph-name="florin.lnum" 
d="M290 -160h-180.002l34 435h-114v105h122l8 100c6 73.333 30 130 72 170s97.333 60 166 60c28 0 54 -4.16699 78 -12.5c24.001 -8.33301 43.334 -18.5 58 -30.5c14.667 -12 27.167 -24 37.5 -36s17.833 -22.333 22.5 -31l6 -12l-130 -88
c-1.33301 3.33301 -3.16602 7.5 -5.49902 12.5s-9.16602 11.667 -20.499 20s-24.333 12.5 -39 12.5c-20 0 -35.5 -5.83301 -46.5 -17.5s-17.167 -27.5 -18.5 -47.5l-8 -100h168v-105h-176z" />
    <glyph glyph-name="percent.lnum" horiz-adv-x="860" 
d="M127 0l485 700h121l-485 -700h-121zM157 533c0 -19.334 6.16699 -35.334 18.5 -48c12.333 -12.667 27.833 -19 46.5 -19s34.167 6.33301 46.5 19s18.5 28.667 18.5 48s-6.16699 35.333 -18.5 48s-27.833 19 -46.5 19s-34.167 -6.33301 -46.5 -19s-18.5 -28.667 -18.5 -48
zM40 532c0 52 17.332 94.667 51.999 128s78.334 50 131.001 50s96 -16.5 130 -49.5s51 -75.167 51 -126.5c0 -52 -17.333 -94.667 -52 -128s-78.334 -50 -131 -50c-52.667 0 -96 16.5 -130 49.5s-51 75.167 -51 126.5zM572.999 167c0 -19.333 6.16699 -35.333 18.5 -48
s27.833 -19 46.5 -19s34.167 6.33301 46.5 19s18.5 28.667 18.5 48s-6.16699 35.333 -18.5 48s-27.833 19 -46.5 19s-34.167 -6.33301 -46.5 -19s-18.5 -28.667 -18.5 -48zM455.999 166c0 52 17.333 94.667 52 128c34.668 33.333 78.335 50 131.001 50
c52.667 0 96 -16.5 130 -49.5s51 -75.167 51 -126.5c0 -52 -17.333 -94.667 -52 -128s-78.334 -50 -131.001 -50s-96 16.5 -130 49.5s-51 75.167 -51 126.5z" />
    </font>
</defs>
</svg>
