<?xml version="1.0" standalone="no"?>
<!DOCTYPE svg PUBLIC "-//W3C//DTD SVG 1.1//EN" "http://www.w3.org/Graphics/SVG/1.1/DTD/svg11.dtd" >
<svg xmlns="http://www.w3.org/2000/svg" xmlns:xlink="http://www.w3.org/1999/xlink" version="1.1">
<metadata>
Created by FontForge 20170910 at Wed Oct  8 17:09:29 2014
 By Jimmy Wärting
Copyright (c) 2014 by Richard Miller. All rights reserved.
</metadata>
<defs>
<font id="Uniform-Ultra" horiz-adv-x="625" >
  <font-face 
    font-family="Uniform-Ultra"
    font-weight="400"
    font-stretch="normal"
    units-per-em="1000"
    panose-1="0 0 0 0 0 0 0 0 0 0"
    ascent="820"
    descent="-180"
    x-height="521.999"
    cap-height="700"
    bbox="-190 -224.002 1221 948.001"
    underline-thickness="50"
    underline-position="-50"
    unicode-range="U+0020-FB02"
  />
<missing-glyph horiz-adv-x="691" 
d="M20 0v700h651v-700h-651zM381 350l159 158l-36 36l-159 -158l-158 159l-36 -36l158 -159l-159 -159l36 -36l159 159l159 -159l36 36z" />
    <glyph glyph-name="ellipsis" unicode="&#x2e;&#x2e;&#x2e;" horiz-adv-x="1171" 
d="M994 246c36.667 0 67 -12.332 91 -36.999s36 -55.334 36 -92.001c0 -35.333 -12.167 -65.333 -36.5 -90s-54.5 -37 -90.5 -37c-35.335 0 -65.668 12.5 -90.999 37.5c-25.333 25 -38 54.833 -38 89.5c0 36 12.667 66.5 38 91.5s55.666 37.5 90.999 37.5zM179 246.001
c36.667 0 67 -12.332 91 -36.999s36 -55.334 36 -92.001c0 -35.333 -12.167 -65.333 -36.5 -90s-54.5 -37 -90.5 -37c-35.333 0 -65.666 12.5 -90.999 37.5s-38 54.833 -38 89.5c0 36 12.667 66.5 38 91.5s55.666 37.5 90.999 37.5zM588 246.002
c35.333 0 65.333 -12.5 90 -37.5s37 -55.5 37 -91.5c0 -35.333 -12.5 -65.333 -37.5 -90s-54.833 -37 -89.5 -37c-36.667 0 -67.834 12.333 -93.501 37s-38.5 54.667 -38.5 90c0 36 12.833 66.5 38.5 91.5c25.6689 25 56.8359 37.5 93.501 37.5z" />
    <glyph glyph-name="ff" unicode="ff" horiz-adv-x="840" 
d="M320 502v-10.001h115v-167h-115v-325h-215v325h-85v167h85v29c0 58.667 16.833 104.834 50.5 138.5c33.667 33.667 80.167 50.5 139.5 50.5c29.333 0 56.5 -2 81.5 -6s42.833 -8 53.5 -12l15 -5l-23 -154c-14.667 5.33301 -33 8 -55 8c-15.333 0 -27 -3.66699 -35 -11
c-8 -7.33691 -12 -16.6699 -12 -27.999zM705 498.999l0.000976562 -7h115v-167h-115v-325h-215v501c0 66.667 17.833 118.167 53.5 154.5s86.167 54.5 151.5 54.5c29.333 0 55.166 -2 77.499 -6s37.5 -8 45.5 -12l12 -5l-23 -154c-13.333 5.33301 -31 8 -53 8
c-32.667 0 -49 -14 -49 -42z" />
    <glyph glyph-name="ft" unicode="ft" horiz-adv-x="855" 
d="M705 640l0.00292969 -118h120v-167h-120v-133c0 -23.333 11.333 -35 34 -35c9.33301 0 19.166 0.5 29.499 1.5s18.5 2.16699 24.5 3.5l9 2l23 -178c-44.667 -17.333 -95.334 -26 -152.001 -26s-101.334 14.5 -134.001 43.5s-49 69.833 -49 122.5v484h215zM320.003 502
v-10.001h115v-167h-115v-325h-215v325h-85v167h85v29c0 58.667 16.833 104.834 50.5 138.5c33.667 33.667 80.167 50.5 139.5 50.5c29.333 0 56.5 -2 81.5 -6s42.833 -8 53.5 -12l15 -5l-23 -154c-14.667 5.33301 -33 8 -55 8c-15.333 0 -27 -3.66699 -35 -11
c-8 -7.33691 -12 -16.6699 -12 -27.999z" />
    <glyph glyph-name="rf" unicode="rf" horiz-adv-x="815" 
d="M680 499l0.000976562 -7h115v-167h-115v-325h-215v501c0 66.667 17.833 118.167 53.5 154.5s86.167 54.5 151.5 54.5c29.333 0 55.166 -2 77.499 -6s37.5 -8 45.5 -12l12 -5l-23 -154c-13.333 5.33301 -31 8 -53 8c-32.667 0 -49 -14 -49 -42zM40.001 0v522h191l10 -84
c35.333 62.667 93.333 94 174 94l-2 -220h-46c-38 0 -66.167 -8.5 -84.5 -25.5s-27.5 -45.5 -27.5 -85.5v-201h-215z" />
    <glyph glyph-name="rt" unicode="rt" horiz-adv-x="830" 
d="M680 640l0.00292969 -118h120v-167h-120v-133c0 -23.333 11.333 -35 34 -35c9.33301 0 19.166 0.5 29.499 1.5s18.5 2.16699 24.5 3.5l9 2l23 -178c-44.667 -17.333 -95.334 -26 -152.001 -26s-101.334 14.5 -134.001 43.5s-49 69.833 -49 122.5v484h215zM40.0029 0v522
h191l10 -84c35.333 62.667 93.333 94 174 94l-2 -220h-46c-38 0 -66.167 -8.5 -84.5 -25.5s-27.5 -45.5 -27.5 -85.5v-201h-215z" />
    <glyph glyph-name="tf" unicode="tf" horiz-adv-x="845" 
d="M710 499l0.000976562 -7h115v-167h-115v-325h-215v501c0.000976562 66.667 17.834 118.167 53.5 154.5c35.667 36.333 86.167 54.5 151.5 54.5c29.333 0 55.166 -2 77.499 -6s37.5 -8 45.5 -12l12 -5l-23 -154c-13.333 5.33301 -31 8 -53 8c-32.667 0 -49 -14 -49 -42z
M320.001 640l0.000976562 -118h120v-167h-120v-133c0 -23.333 11.333 -35 34 -35c9.33398 0 19.167 0.5 29.5 1.5s18.5 2.16699 24.5 3.5l9 2l23 -178c-44.667 -17.333 -95.334 -26 -152 -26c-56.667 0 -101.334 14.5 -134.001 43.5s-49 69.833 -49 122.5v199h-85v167h85
v118h215z" />
    <glyph glyph-name="tt" unicode="tt" horiz-adv-x="860" 
d="M320 640l0.000976562 -118h120v-167h-120v-133c0 -23.333 11.333 -35 34 -35c9.33398 0 19.167 0.5 29.5 1.5s18.5 2.16699 24.5 3.5l9 2l23 -178c-44.667 -17.333 -95.334 -26 -152 -26c-56.667 0 -101.334 14.5 -134.001 43.5s-49 69.833 -49 122.5v199h-85v167h85v118
h215zM710.001 640l0.00292969 -118h120v-167h-120v-133c0 -23.333 11.333 -35 34 -35c9.33301 0 19.166 0.5 29.499 1.5s18.5 2.16699 24.5 3.5l9 2l23 -178c-44.667 -17.333 -95.334 -26 -152.001 -26s-101.334 14.5 -134.001 43.5s-49 69.833 -49 122.5v484h215z" />
    <glyph glyph-name="rtf" unicode="rtf" horiz-adv-x="1205" 
d="M680 640l0.00292969 -118h120v-167h-120v-133c0 -23.333 11.333 -35 34 -35c9.33301 0 19.166 0.5 29.499 1.5s18.5 2.16699 24.5 3.5l9 2l23 -178c-44.667 -17.333 -95.334 -26 -152.001 -26s-101.334 14.5 -134.001 43.5s-49 69.833 -49 122.5v484h215zM40.0029 0v522
h191l10 -84c35.333 62.667 93.333 94 174 94l-2 -220h-46c-38 0 -66.167 -8.5 -84.5 -25.5s-27.5 -45.5 -27.5 -85.5v-201h-215zM1070 499v-7h115v-167h-115v-325h-215v501c0 66.667 17.833 118.167 53.5 154.5s86.167 54.5 151.5 54.5c29.3379 0 55.1709 -2 77.5 -6
c22.333 -4 37.5 -8 45.5 -12l12 -5l-23 -154c-13.333 5.33301 -31 8 -53 8c-32.667 0 -49 -14 -49 -42z" />
    <glyph glyph-name=".notdef" horiz-adv-x="691" 
d="M20 0v700h651v-700h-651zM381 350l159 158l-36 36l-159 -158l-158 159l-36 -36l158 -159l-159 -159l36 -36l159 159l159 -159l36 36z" />
    <glyph glyph-name="space" unicode=" " horiz-adv-x="307" 
 />
    <glyph glyph-name="exclam" unicode="!" horiz-adv-x="359" 
d="M180 246c35.333 0 65.5 -12.5 90.5 -37.5s37.5 -55.5 37.5 -91.5s-12.5 -66.167 -37.5 -90.5s-55.167 -36.5 -90.5 -36.5c-36.667 0 -67.334 12 -92.001 36s-37 54.333 -37 91c0 36 12.333 66.5 37 91.5s55.334 37.5 92.001 37.5zM96 271l-47 429h261l-47 -429h-167z" />
    <glyph glyph-name="quotedbl" unicode="&#x22;" horiz-adv-x="501" 
d="M451 340h-168v360h168v-360zM218 340h-168v360h168v-360z" />
    <glyph glyph-name="numbersign" unicode="#" 
d="M287 346l-17 -90h70l17 90h-70zM289 0l25 131h-70l-25 -131h-135l26 131h-70v125h95l18 90h-73v125h98l26 129h135l-26 -129h70l26 129h135l-26 -129h67v-125h-92l-18 -90h70v-125h-95l-26 -131h-135z" />
    <glyph glyph-name="dollar" unicode="$" horiz-adv-x="587" 
d="M218 279c-52.667 27.334 -91.5029 58.168 -116.503 92.501c-25 34.334 -37.5 76.167 -37.5 125.5c0 51.333 16.667 95 50 131s77.333 59.333 132 70v102h116v-101c25.334 -4 49.167 -10.833 71.5 -20.5s40.5 -20 54.5 -31s26 -21.833 36 -32.5s17.333 -19.667 22 -27
l6 -10l-152 -107c-2.66699 4.66699 -6.66699 10.167 -12 16.5s-15.666 15 -30.999 26s-30.666 16.5 -45.999 16.5c-7.33301 0 -13.5 -2.16699 -18.5 -6.5s-7.5 -9.83301 -7.5 -16.5c0 -10.6689 6 -21.3359 18 -32.001c12 -10.668 34.333 -24.335 67 -41.001
c118.667 -60.667 178 -134.667 178 -222c0 -54 -17.167 -99.5 -51.5 -136.5s-79.166 -60.833 -134.499 -71.5v-104h-116v99c-30 3.33301 -58 10.333 -84 21s-47 22.5 -63 35.5s-29.833 25.667 -41.5 38s-20.167 22.5 -25.5 30.5l-7 13l153 107
c4.66699 -6 10.667 -13.167 18 -21.5s21.5 -19.666 42.5 -33.999s40.167 -21.5 57.5 -21.5c19.333 0 29 8 29 24c0 22 -35.667 51.333 -107 88z" />
    <glyph glyph-name="percent" unicode="%" horiz-adv-x="770" 
d="M112 0l410 600h136l-410 -600h-136zM159 450c0 -10.667 3.5 -19.667 10.5 -27s16.167 -11 27.5 -11s20.5 3.66699 27.5 11s10.5 16.333 10.5 27s-3.5 19.667 -10.5 27s-16.167 11 -27.5 11s-20.5 -3.66699 -27.5 -11s-10.5 -16.333 -10.5 -27zM30 448
c0 45.333 16.5 83.666 49.5 114.999s72.833 47 119.5 47s85.834 -15 117.501 -45s47.5 -67.667 47.5 -113s-16.5 -83.666 -49.5 -114.999s-72.833 -47 -119.5 -47s-85.834 15 -117.501 45s-47.5 67.667 -47.5 113zM535 150c0 -10.667 3.5 -19.667 10.5 -27
s16.167 -11 27.5 -11s20.5 3.66699 27.5 11s10.5 16.333 10.5 27s-3.5 19.667 -10.5 27s-16.167 11 -27.5 11s-20.5 -3.66699 -27.5 -11s-10.5 -16.333 -10.5 -27zM406 148c0 45.333 16.501 83.666 49.501 114.999s72.833 47 119.499 47c46.667 0 85.834 -15 117.501 -45
s47.5 -67.667 47.5 -113s-16.5 -83.666 -49.5 -114.999s-72.833 -47 -119.5 -47s-85.834 15 -117.501 45s-47.5 67.667 -47.5 113z" />
    <glyph glyph-name="ampersand" unicode="&#x26;" horiz-adv-x="755" 
d="M540 400h215l-174 -207l174 -193h-230l-58 62c-32.667 -28 -63.834 -47 -93.5 -57c-29.667 -10 -66.5 -15 -110.5 -15c-62.667 0 -118 19.833 -166 59.5s-72 88.167 -72 145.5c0 40.667 9.16699 77.167 27.5 109.5c18.333 32.334 51.166 63.167 98.499 92.5
c-34 42 -51 87.667 -51 137c0 48 20.333 89.333 61 124s95.334 52 164.001 52c70 0 123.5 -17.167 160.5 -51.5c37 -34.334 55.5 -74.167 55.5 -119.5c0 -67.333 -36.667 -127.333 -110 -180l36 -40zM289 168c22.667 0 42.332 6.33203 58.999 18.999l-91 97
c-20.667 -17.333 -31 -36.666 -31 -57.999c0 -17.333 5.83301 -31.333 17.5 -42s26.834 -16 45.501 -16zM295.998 527.999c0 -16.667 11 -34.667 33 -54c25.333 14 38 31 38 51c0 10.6709 -3.33301 19.3379 -10 26c-6.66699 6.66699 -15.667 10 -27 10
c-10 0 -18.167 -3.16699 -24.5 -9.5c-6.33301 -6.33789 -9.5 -14.1709 -9.5 -23.5z" />
    <glyph glyph-name="quotesingle" unicode="'" horiz-adv-x="268" 
d="M218 340h-168v360h168v-360z" />
    <glyph glyph-name="parenleft" unicode="(" horiz-adv-x="438" 
d="M423 48l-95.9971 -147.996c-4 1.33301 -9.33301 3.5 -16 6.5s-19.834 10.5 -39.5 22.5c-19.667 12 -38.334 25.167 -56.001 39.5s-37.334 34 -59.001 59s-40.334 52 -56.001 81s-28.834 64.167 -39.501 105.5s-16 85 -16 131s5.16699 90 15.5 132
s23.833 77.833 40.5 107.5s35 57 55 82s40 45.5 60 61.5s38.333 29.667 55 41s30.334 19.333 41.001 24l15 7l96 -148c-4.66699 -2.66699 -10.834 -6.33398 -18.5 -11.001c-7.66699 -4.66699 -21.167 -15.834 -40.5 -33.501s-36.333 -37 -51 -58s-28.167 -49.5 -40.5 -85.5
s-18.5 -74 -18.5 -114c0 -40.667 5.83301 -78.834 17.5 -114.501s25.667 -64.334 42 -86.001s32.833 -40.667 49.5 -57s31 -27.833 43 -34.5z" />
    <glyph glyph-name="parenright" unicode=")" horiz-adv-x="438" 
d="M15 652l95.998 147.998c4 -1.33301 9.33301 -3.5 16 -6.5s19.834 -10.5 39.5 -22.5c19.667 -12 38.334 -25.167 56 -39.5c17.667 -14.333 37.334 -34 59.001 -59s40.334 -52 56.001 -81s28.834 -64.167 39.501 -105.5s16 -85 16 -131s-5.16699 -90 -15.5 -132
s-23.833 -77.833 -40.5 -107.5s-35 -57 -55 -82s-40 -45.5 -60 -61.5s-38.333 -29.667 -55 -41s-30.334 -19.333 -41.001 -24l-15 -7l-96 148c4.66699 2.66699 10.834 6.33398 18.501 11.001s21.167 15.834 40.5 33.501s36.333 37 51 58s28.167 49.5 40.5 85.5
s18.5 74 18.5 114c0 29.333 -3.16699 57.5 -9.5 84.5s-14.333 50.333 -24 70s-20.5 38 -32.5 55s-24.167 31 -36.5 42s-23.333 20.5 -33 28.5s-17.834 13.667 -24.501 17z" />
    <glyph glyph-name="asterisk" unicode="*" horiz-adv-x="502" 
d="M327 700l-14 -127l112 54l47 -144l-123 -24l86 -92l-125 -89l-59 111l-62 -111l-120 89l85 92l-124 24l47 144l113 -54l-15 127h152z" />
    <glyph glyph-name="plus" unicode="+" 
d="M400 620v-182h175v-168h-175v-182h-170v182h-180v168h180v182h170z" />
    <glyph glyph-name="comma" unicode="," horiz-adv-x="336" 
d="M205 -130h-165l30 360h226z" />
    <glyph glyph-name="hyphen" unicode="-" horiz-adv-x="420" 
d="M370 257h-320v190h320v-190z" />
    <glyph glyph-name="period" unicode="." horiz-adv-x="356" 
d="M179 242c35.333 0 65.333 -12.167 90 -36.5s37 -54.5 37 -90.5s-12.333 -65.833 -37 -89.5s-54.667 -35.5 -90 -35.5c-36.667 0 -67.334 11.833 -92.001 35.5s-37 53.5 -37 89.5s12.333 66.167 37 90.5s55.334 36.5 92.001 36.5z" />
    <glyph glyph-name="slash" unicode="/" horiz-adv-x="589" 
d="M0 -80l410 860h179l-410 -860h-179z" />
    <glyph glyph-name="zero" unicode="0" 
d="M257 454v-208c0 -18.667 4.83301 -33.167 14.5 -43.5s23.167 -15.5 40.5 -15.5s30.833 5.16699 40.5 15.5s14.5 24.833 14.5 43.5v208c0 18.667 -4.83301 33.167 -14.5 43.5s-23.167 15.5 -40.5 15.5s-30.833 -5.16699 -40.5 -15.5s-14.5 -24.833 -14.5 -43.5zM42 254
v185c0 84 25.667 150.167 77 198.5s116.333 72.5 195 72.5c79.333 0 143.833 -23 193.5 -69s74.5 -111 74.5 -195v-185c0 -84 -26 -150.167 -78 -198.5s-117.667 -72.5 -197 -72.5c-78.667 0 -142.5 23 -191.5 69s-73.5 111 -73.5 195z" />
    <glyph glyph-name="one" unicode="1" horiz-adv-x="530" 
d="M5 516l265 184h180v-700h-215v452l-131 -79z" />
    <glyph glyph-name="two" unicode="2" horiz-adv-x="579" 
d="M49 169l224 209c22 20.667 36.833 37.5 44.5 50.5s11.5 26.833 11.5 41.5c0 13.333 -4.83301 25 -14.5 35s-23.167 15 -40.5 15c-16 0 -32 -6 -48 -18s-28 -24 -36 -36l-11 -17l-149 101c1.33301 4.66699 3.83301 10.5 7.5 17.5s12.5 19.667 26.5 38
s30.167 34.5 48.5 48.5s43.833 26.833 76.5 38.5s68.667 17.5 108 17.5c71.333 0 130.333 -20.667 177 -62s70 -92.333 70 -153c0 -48.667 -11.167 -91.834 -33.5 -129.5c-22.333 -37.667 -57.833 -76.5 -106.5 -116.5l-78 -64h213v-185h-490v169z" />
    <glyph glyph-name="three" unicode="3" horiz-adv-x="570" 
d="M169 427l66.999 0.00292969c39.333 0 59 16.667 59 50c0 14 -4.83301 25.333 -14.5 34s-21.5 13 -35.5 13c-15.333 0 -28.833 -4 -40.5 -12s-19.167 -16 -22.5 -24l-6 -11l-151 90c1.33301 4 3.66602 9.16699 6.99902 15.5s11.5 17.666 24.5 33.999
s27.833 30.833 44.5 43.5s39.834 24.167 69.501 34.5s62.167 15.5 97.5 15.5c66.667 0 123.667 -17.833 171 -53.5s71 -82.834 71 -141.501c0 -62 -26.333 -112.667 -79 -152c66 -38 99 -93 99 -165c0 -64 -24.667 -114.667 -74 -152s-113.333 -56 -192 -56
c-37.333 0 -71.833 5.33301 -103.5 16s-56.667 23.667 -75 39s-34 30.666 -47 45.999s-21.833 28.333 -26.5 39l-8 16l155 93c0.668945 -2 1.83594 -4.5 3.5 -7.5c1.66699 -3 5.33398 -8.16699 11 -15.5c5.66699 -7.33301 12 -14 19 -20s16.333 -11.333 28 -16
s23.834 -7 36.501 -7c18 0 32.167 4.83301 42.5 14.5s15.5 21.167 15.5 34.5c0 38 -25 57 -75 57h-71v148z" />
    <glyph glyph-name="four" unicode="4" 
d="M191 293h112v163zM17 296l280 404h210v-407h100v-168h-100v-125h-204v125h-286v171z" />
    <glyph glyph-name="five" unicode="5" horiz-adv-x="605" 
d="M70 268l-0.00390625 432h460v-185h-268v-62c21.333 13.333 49.333 20 84 20c66.667 0 119.834 -21.833 159.501 -65.5s59.5 -96.5 59.5 -158.5c0 -77.333 -24.667 -139.833 -74 -187.5s-115 -71.5 -197 -71.5c-34.667 0 -67 5.16699 -97 15.5s-54.167 23 -72.5 38
s-34.166 30 -47.499 45s-23 27.5 -29 37.5l-8 16l151 109c2.66699 -4.66699 6.5 -10.5 11.5 -17.5s16 -16.5 33 -28.5s34.833 -18 53.5 -18c20 0 35.5 5.5 46.5 16.5s16.5 25.167 16.5 42.5c0 15.333 -5.16699 28 -15.5 38s-24.166 15 -41.499 15
c-11.333 0 -21.666 -2.5 -30.999 -7.5c-9.33398 -5 -15.667 -10.167 -19 -15.5l-5 -8h-170z" />
    <glyph glyph-name="six" unicode="6" 
d="M108 462l157 238.001h238l-159 -233c7.33301 1.33301 14.333 2 21 2c60 0 111.667 -20.5 155 -61.5s65 -91.833 65 -152.5c0 -78.667 -26.833 -142.5 -80.5 -191.5s-118.834 -73.5 -195.5 -73.5c-73.333 0 -136.5 24.167 -189.5 72.5s-79.5 110.166 -79.5 185.499
c0 74.667 22.667 146 68 214zM250 250.001c0 -18.667 5.66602 -33.834 16.999 -45.501s26.333 -17.5 45 -17.5s33.834 5.83301 45.501 17.5s17.5 26.834 17.5 45.501s-5.83301 34 -17.5 46s-26.834 18 -45.5 18c-18.667 0 -33.667 -6 -45 -18s-17 -27.333 -17 -46z" />
    <glyph glyph-name="seven" unicode="7" horiz-adv-x="545" 
d="M40 0l236 509h-249v191h490v-150l-244 -550h-233z" />
    <glyph glyph-name="eight" unicode="8" 
d="M312 440c13.333 0 24.333 4.16699 33 12.5s13 19.5 13 33.5s-4.33301 25.167 -13 33.5s-19.667 12.5 -33 12.5s-24.333 -4.16699 -33 -12.5s-13 -19.5 -13 -33.5s4.33301 -25.167 13 -33.5s19.667 -12.5 33 -12.5zM316 710c73.333 0 132.333 -18.332 177 -54.999
s67 -85.667 67 -147c0 -45.333 -19.333 -89 -58 -131c55.333 -48 83 -101 83 -159c0 -66 -26.167 -120.5 -78.5 -163.5s-118.166 -64.5 -197.499 -64.5c-80.667 0 -145.667 20.333 -195 61s-74 94 -74 160c0 57.333 26.333 110.666 79 159.999
c-36.667 38.667 -55 82 -55 130c0 60.667 23.667 110.667 71 150s107.666 59 180.999 59zM312 170.001c18 0 33.167 6.16699 45.5 18.5s18.5 27.5 18.5 45.5c0 19.333 -6.16699 35 -18.5 47s-27.5 18 -45.5 18s-33.167 -6 -45.5 -18s-18.5 -27.667 -18.5 -47
c0 -18 6.16699 -33.167 18.5 -45.5s27.5 -18.5 45.5 -18.5z" />
    <glyph glyph-name="nine" unicode="9" 
d="M517 238l-157.001 -238h-238l159 233c-7.33301 -1.33301 -14.333 -2 -21 -2c-60 0 -111.667 20.5 -155 61.5s-65 91.833 -65 152.5c0 78.667 26.833 142.5 80.5 191.5s118.834 73.5 195.501 73.5c73.333 0 136.5 -24.167 189.5 -72.5
c53 -48.334 79.5 -110.167 79.5 -185.5c0 -74.667 -22.667 -146 -68 -214zM374.999 450c0 18.667 -5.66797 33.834 -17.001 45.501s-26.333 17.5 -45 17.5s-33.834 -5.83301 -45.5 -17.5c-11.667 -11.6689 -17.5 -26.8359 -17.5 -45.501c0 -18.667 5.83301 -34 17.5 -46
s26.834 -18 45.501 -18s33.667 6 45 18s17 27.333 17 46z" />
    <glyph glyph-name="colon" unicode=":" horiz-adv-x="356" 
d="M179 528c35.333 0 65.333 -12.167 90 -36.5s37 -54.5 37 -90.5s-12.333 -65.833 -37 -89.5s-54.667 -35.5 -90 -35.5c-36.667 0 -67.334 11.833 -92.001 35.5s-37 53.5 -37 89.5s12.333 66.167 37 90.5s55.334 36.5 92.001 36.5zM179 242
c35.333 0 65.333 -12.167 90 -36.5s37 -54.5 37 -90.5s-12.333 -65.833 -37 -89.5s-54.667 -35.5 -90 -35.5c-36.667 0 -67.334 11.833 -92.001 35.5s-37 53.5 -37 89.5s12.333 66.167 37 90.5s55.334 36.5 92.001 36.5z" />
    <glyph glyph-name="semicolon" unicode=";" horiz-adv-x="356" 
d="M205 -130h-165l30 360h226zM179 528c35.333 0 65.333 -12.167 90 -36.5s37 -54.5 37 -90.5s-12.333 -65.833 -37 -89.5s-54.667 -35.5 -90 -35.5c-36.667 0 -67.334 11.833 -92.001 35.5s-37 53.5 -37 89.5s12.333 66.167 37 90.5s55.334 36.5 92.001 36.5z" />
    <glyph glyph-name="less" unicode="&#x3c;" 
d="M575 474l-341 -115l341 -117v-191l-525 214v180l525 211v-182z" />
    <glyph glyph-name="equal" unicode="=" 
d="M575 375h-525v168h525v-168zM575 149h-525v166h525v-166z" />
    <glyph glyph-name="greater" unicode="&#x3e;" 
d="M50 235l341 115l-341 117v191l525 -214v-180l-525 -211v182z" />
    <glyph glyph-name="question" unicode="?" horiz-adv-x="540" 
d="M286 474c0 9.33301 -3.16699 17.3311 -9.5 23.998s-15.166 10 -26.499 10c-15.333 0 -29 -5 -41 -15s-20.333 -19.667 -25 -29l-6 -15l-160 101c1.33301 4.66699 3.5 10.5 6.5 17.5s10.833 19.667 23.5 38s27.667 34.5 45 48.5s42 26.833 74 38.5s67.333 17.5 106 17.5
c65.334 0 121.167 -19.833 167.5 -59.5s69.5 -86.5 69.5 -140.5c0 -26.667 -4.33301 -50.667 -13 -72c-8.66895 -21.333 -19.8359 -39 -33.501 -53c-13.667 -14 -27.5 -26.667 -41.5 -38s-27.333 -23.5 -40 -36.5s-21.667 -26.167 -27 -39.5h-190
c0 27.333 6.33301 52.333 19 75s26.5 39.834 41.5 51.501s28.833 24.334 41.5 38.001s19 26.5 19 38.5zM257 245.998c35.333 0 65.333 -12.5 90 -37.5s37 -55.5 37 -91.5s-12.333 -66.167 -37 -90.5s-54.667 -36.5 -90 -36.5c-36.667 0 -67.334 12 -92.001 36
s-37 54.333 -37 91c0 36 12.333 66.5 37 91.5s55.334 37.5 92.001 37.5z" />
    <glyph glyph-name="at" unicode="@" horiz-adv-x="971" 
d="M550 -16l37 -112.001c-26.667 -11.333 -61.334 -17 -104.001 -17c-130 0 -237.167 40.5 -321.5 121.5s-126.5 181.167 -126.5 300.5c0 122 43.167 224.667 129.5 308s194.166 125 323.499 125c130 0 237.167 -40.5 321.5 -121.5s126.5 -183.167 126.5 -306.5
c0 -54 -10 -105 -30 -153s-50.167 -87.5 -90.5 -118.5c-40.335 -31 -86.168 -46.5 -137.5 -46.5c-42.667 0 -78.167 13.333 -106.5 40c-28.335 26.667 -42.168 62 -41.499 106c-28.667 -23.333 -63.667 -35 -105 -35c-59.333 0 -105.833 22 -139.5 66s-46.167 99 -37.5 165
c8 58 32 103.667 72 137s86 50 138 50c42 0 76.333 -12.667 103 -38l13 30h129l22 -23l-48 -333c-1.3125 -11.333 0.854492 -20.333 6.50098 -27c5.66699 -6.66699 14.167 -10 25.5 -10c21.333 0 42 17.5 62 52.5s30 76.833 30 125.5c0 100 -28.333 177.5 -85 232.5
s-134 82.5 -232 82.5c-90 0 -164.833 -29.167 -224.5 -87.5s-89.5 -130.5 -89.5 -216.5c0 -87.333 29.833 -160.166 89.5 -218.499s134.5 -87.5 224.5 -87.5c12.667 0 24.5 0.666992 35.5 2s18.833 3 23.5 5zM477 334.999c-14.667 0 -26.668 -4.00098 -36.001 -12.001
s-14.666 -18.667 -15.999 -32c-1.33301 -16 2.16699 -29.167 10.5 -39.5s20.5 -15.5 36.5 -15.5c30.667 0 48 15 52 45c2 14.667 -1.33301 27.334 -10 38.001s-21 16 -37 16z" />
    <glyph glyph-name="A" unicode="A" horiz-adv-x="740" 
d="M364 439l-53 -172h105zM482 700l268 -700h-252l-29 96h-212l-29 -96h-238l266 700h226z" />
    <glyph glyph-name="B" unicode="B" horiz-adv-x="690" 
d="M289 435h60c38.667 0 58 15.333 58 46c0 31.333 -19.333 47 -58 47h-60v-93zM60 700l342.002 0.000976562c71.333 0 128.166 -17 170.499 -51s63.5 -78.667 63.5 -134c0 -62.667 -28.333 -113 -85 -151c36 -15.333 64 -37.5 84 -66.5s30 -62.167 30 -99.5
c0 -56.667 -22.833 -103.834 -68.5 -141.501s-103.834 -56.5 -174.501 -56.5h-362v700zM289.002 277.001l-0.000976562 -107.998h87c20.667 0 36.334 5.16699 47.001 15.5s16 23.166 16 38.499s-5.33301 28.166 -16 38.499s-26.334 15.5 -47 15.5h-87z" />
    <glyph glyph-name="C" unicode="C" horiz-adv-x="701" 
d="M35 345c0 102 36.0049 188.332 108.005 258.998c72 70.667 161.333 106 268 106c27.333 0 53.5 -2.16699 78.5 -6.5s46.667 -10 65 -17s35.166 -14.833 50.499 -23.5s28.166 -17.167 38.499 -25.5s19.166 -16 26.499 -23s12.666 -12.5 15.999 -16.5l4 -7l-166 -146
c-2.66699 4 -6.66699 8.83301 -12 14.5s-17.833 13.167 -37.5 22.5s-41.5 14 -65.5 14c-43.333 0 -78.333 -13.667 -105 -41s-40 -62.666 -40 -105.999s13.333 -78.833 40 -106.5s61.667 -41.5 105 -41.5c16 0 31.333 2.16699 46 6.5s26.667 9.66602 36 15.999
s17.5 12.5 24.5 18.5s11.833 11.333 14.5 16l5 6l161 -139c-2 -3.33301 -5.33301 -8.16602 -10 -14.499s-15.5 -17.166 -32.5 -32.499s-35.667 -29 -56 -41s-47.833 -22.833 -82.5 -32.5s-71.667 -14.5 -111 -14.5c-106.667 0 -194.834 33.833 -264.501 101.5
s-104.5 152.167 -104.5 253.5z" />
    <glyph glyph-name="D" unicode="D" horiz-adv-x="760" 
d="M289 503v-305.999h50c46.667 0 85 14.167 115 42.5s45 65.166 45 110.499c0 45.334 -15 82.167 -45 110.5s-68.333 42.5 -115 42.5h-50zM60 700.001h276.001c112 0 204.833 -32.833 278.499 -98.5c73.667 -65.667 110.5 -148.5 110.5 -248.5s-38 -183.833 -114 -251.5
s-170 -101.5 -282 -101.5h-269v700z" />
    <glyph glyph-name="E" unicode="E" horiz-adv-x="650" 
d="M615 0h-555v700h545v-197h-316v-67h266v-166h-266v-73h326v-197z" />
    <glyph glyph-name="F" unicode="F" horiz-adv-x="610" 
d="M545 235h-256v-235h-229v700h535v-197h-306v-93h256v-175z" />
    <glyph glyph-name="G" unicode="G" horiz-adv-x="786" 
d="M393 407l352.001 -0.00195312c4 -18.667 6 -39.334 6 -62c0 -100.667 -31.167 -185 -93.5 -253s-146.833 -102 -253.5 -102c-106 0 -194 34.333 -264 103s-105 153.667 -105 255s36.167 187 108.5 257s161.5 105 267.5 105c37.333 0 72.5 -3.83301 105.5 -11.5
s59.667 -17.167 80 -28.5c20.333 -11.3379 38 -22.6709 53 -33.999c15 -11.3379 25.833 -20.6709 32.5 -28l9 -12l-154 -156c-3.33301 4 -8.33301 9.33301 -15 16s-21.334 15.334 -44.001 26.001s-46.667 16 -72 16c-42 0 -76.667 -14.5 -104 -43.5s-41 -65.833 -41 -110.5
s13.667 -81.5 41 -110.5s62.333 -43.5 105 -43.5c28 0 52 5.66699 72 17s33 22.333 39 33l10 17h-135v150z" />
    <glyph glyph-name="H" unicode="H" horiz-adv-x="770" 
d="M484 0v255h-195v-255h-229v700h229v-241h195v241h226v-700h-226z" />
    <glyph glyph-name="I" unicode="I" horiz-adv-x="363" 
d="M65 0v700h233v-700h-233z" />
    <glyph glyph-name="J" unicode="J" horiz-adv-x="514" 
d="M232 303v397h232v-415c0 -89.333 -26.5 -160.833 -79.5 -214.5s-122.833 -80.5 -209.5 -80.5c-34 0 -65.667 2.83301 -95 8.5s-50 11.5 -62 17.5l-18 9l53 196c20.667 -10 48.667 -15 84 -15c30 0 53.333 8.83301 70 26.5s25 41.167 25 70.5z" />
    <glyph glyph-name="K" unicode="K" horiz-adv-x="754" 
d="M492 0l-203 329v-329h-229v700h229v-307l183 307h267l-232 -326l252 -374h-267z" />
    <glyph glyph-name="L" unicode="L" horiz-adv-x="590" 
d="M585 0h-525v700h229v-496h296v-204z" />
    <glyph glyph-name="M" unicode="M" horiz-adv-x="890" 
d="M388 95l-111 229v-324h-217v700h233l158 -326l156 326h223v-700h-219v324l-111 -229h-112z" />
    <glyph glyph-name="N" unicode="N" horiz-adv-x="790" 
d="M507 0l-226 358v-358h-221v700h234l213 -340v340h223v-700h-223z" />
    <glyph glyph-name="O" unicode="O" horiz-adv-x="815" 
d="M411 710c106 0 194.001 -34.1689 264.001 -102.502s105 -153.166 105 -254.499s-36.167 -187.166 -108.5 -257.499s-161.5 -105.5 -267.5 -105.5c-106.667 0 -194.834 34 -264.501 102s-104.5 152.667 -104.5 254c0 102 36 188.167 108 258.5s161.333 105.5 268 105.5z
M262.001 349.998c0 -42 14 -77.5 42 -106.5s62.333 -43.5 103 -43.5s75 14.5 103 43.5s42 64.5 42 106.5s-14 77.5 -42 106.5s-62.333 43.5 -103 43.5s-75 -14.5 -103 -43.5s-42 -64.5 -42 -106.5z" />
    <glyph glyph-name="P" unicode="P" horiz-adv-x="695" 
d="M289 512v-144h70c24.667 0 44.167 6.5 58.5 19.5s21.5 30.5 21.5 52.5s-7.16699 39.5 -21.5 52.5s-33.833 19.5 -58.5 19.5h-70zM60 0l-0.000976562 700h323c86.667 0 155.334 -22.833 206.001 -68.5s76 -107.167 76 -184.5c0 -76.667 -26.833 -139.334 -80.5 -188
c-53.667 -48.667 -123.167 -73 -208.5 -73h-87v-186h-229z" />
    <glyph glyph-name="Q" unicode="Q" horiz-adv-x="815" 
d="M411 710c106 0 194.001 -34.332 264.001 -102.999s105 -153.667 105 -255c0 -118 -48.333 -213.667 -145 -287l124 -185h-254l-71 111c-6 -0.666992 -16 -1 -30 -1c-106.667 0 -194.834 33.833 -264.501 101.5s-104.5 152.167 -104.5 253.5c0 102 36 188.333 108 258.999
c72 70.667 161.333 106 268 106zM262.001 350.001c0 -42 14 -77.5 42 -106.5s62.333 -43.5 103 -43.5s75 14.5 103 43.5s42 64.5 42 106.5s-14 77.5 -42 106.5s-62.333 43.5 -103 43.5s-75 -14.5 -103 -43.5s-42 -64.5 -42 -106.5z" />
    <glyph glyph-name="R" unicode="R" horiz-adv-x="710" 
d="M363 512l-74 -0.00195312v-132h74c24 0 42.667 5.83301 56 17.5s20 27.834 20 48.501s-6.66699 36.834 -20 48.501s-32 17.5 -56 17.5zM60 -0.00195312v700h335c80 0 145 -22.167 195 -66.5s75 -102.5 75 -174.5c0 -91.333 -38 -161 -114 -209l144 -250h-261l-107 209
h-38v-209h-229z" />
    <glyph glyph-name="S" unicode="S" horiz-adv-x="605" 
d="M382 441c125.333 -57.333 188.003 -131.668 188.003 -223.001c0 -63.333 -25.833 -117.166 -77.5 -161.499s-116.834 -66.5 -195.5 -66.5c-34.667 0 -68.334 4 -101.001 12s-59.834 17.5 -81.501 28.5s-40.667 22.167 -57 33.5s-28.166 21 -35.499 29l-12 12l132 143
c6 -6 13.833 -13.167 23.5 -21.5s28.667 -19.5 57 -33.5s54.833 -21 79.5 -21c10 0 18.167 2.33301 24.5 7s9.5 10.334 9.5 17c0 10.667 -7.66699 21.834 -23 33.5c-15.333 11.667 -47 27.5 -95 47.5c-109.333 47.333 -164 118.666 -164 213.999
c0 64.667 24.167 117.334 72.5 158c48.333 40.667 111.833 61 190.5 61c30 0 59.333 -3.5 88 -10.5s52.667 -15.333 72 -25s36.666 -19.334 51.999 -29.001s26.666 -18.167 33.999 -25.5l11 -10l-132 -141c-4 4.66699 -9.83301 10.167 -17.5 16.5s-22.167 15 -43.5 26
s-42 16.5 -62 16.5c-22 0 -33 -7.33301 -33 -22c0 -9.33301 5.5 -17.666 16.5 -24.999s37.5 -20.666 79.5 -39.999z" />
    <glyph glyph-name="T" unicode="T" horiz-adv-x="590" 
d="M585 501h-176v-501h-226v501h-178v199h580v-199z" />
    <glyph glyph-name="U" unicode="U" horiz-adv-x="740" 
d="M466 700l224.001 0.000976562v-404c0 -92.667 -29.5 -166.834 -88.5 -222.501s-136.833 -83.5 -233.5 -83.5c-98.667 0 -176.334 26.667 -233.001 80s-85 126.333 -85 219v411h231v-402c0 -30.667 8 -55 24 -73s38.667 -27 68 -27c29.334 0 52.167 9 68.5 27
s24.5 42.333 24.5 73v402z" />
    <glyph glyph-name="V" unicode="V" horiz-adv-x="730" 
d="M251 0l-261 700h258l123 -403l123 403h246l-263 -700h-226z" />
    <glyph glyph-name="W" unicode="W" horiz-adv-x="1025" 
d="M222 0l-232 700h250l101 -354l95 354h163l97 -354l99 354h240l-234 -700h-195l-94 324l-90 -324h-200z" />
    <glyph glyph-name="X" unicode="X" horiz-adv-x="760" 
d="M497 0l-125 186l-121 -186h-261l257 354l-250 346h278l112 -173l113 173h263l-251 -344l258 -356h-273z" />
    <glyph glyph-name="Y" unicode="Y" horiz-adv-x="710" 
d="M241 0v240l-251 460h261l110 -241l108 241h251l-253 -460v-240h-226z" />
    <glyph glyph-name="Z" unicode="Z" horiz-adv-x="700" 
d="M660 0h-620v169l315 340h-295v191h600v-167l-315 -340h315v-193z" />
    <glyph glyph-name="bracketleft" unicode="[" horiz-adv-x="435" 
d="M410 -80h-350v860h350v-179h-141v-504h141v-177z" />
    <glyph glyph-name="backslash" unicode="\" horiz-adv-x="589" 
d="M179 780l410 -860h-179l-410 860h179z" />
    <glyph glyph-name="bracketright" unicode="]" horiz-adv-x="435" 
d="M375 -80h-350v177h141v504h-141v179h350v-860z" />
    <glyph glyph-name="asciicircum" unicode="^" horiz-adv-x="610" 
d="M376 320l-71 196l-68 -196h-202l185 380h169l186 -380h-199z" />
    <glyph glyph-name="underscore" unicode="_" horiz-adv-x="600" 
d="M600 -182h-600v132h600v-132z" />
    <glyph glyph-name="grave" unicode="`" horiz-adv-x="370" 
d="M275 740l55 -174h-166l-114 174h225z" />
    <glyph glyph-name="a" unicode="a" horiz-adv-x="580" 
d="M220 311c39.334 0 72.6631 -5.66699 99.9961 -17v2c0 16 -8 29.5 -24 40.5s-36 16.5 -60 16.5c-18 0 -36 -2.33301 -54 -7c-18 -4.66895 -31.333 -9.33594 -40 -14l-14 -7l-83 137c6.66699 5.33301 16.334 11.833 29.001 19.5s39.834 18 81.501 31
s84.834 19.5 129.501 19.5c76 0 136.667 -21.5 182 -64.5s68 -101.5 68 -175.5v-292h-169l-13 32c-39.333 -28 -86.666 -42 -141.999 -42c-60.667 0 -108.5 14.167 -143.5 42.5s-52.5 66.5 -52.5 114.5s19 87.333 57 118s87.333 46 148 46zM229.996 156
c0 -11.334 4.33301 -20.665 13 -27.998s20 -11 34 -11s25.5 3.66699 34.5 11s13.5 16.666 13.5 27.999s-4.5 20.666 -13.5 27.999s-20.5 11 -34.5 11s-25.333 -3.66699 -34 -11c-8.66699 -7.33398 -13 -16.667 -13 -28z" />
    <glyph glyph-name="b" unicode="b" horiz-adv-x="643" 
d="M40 0l-0.000976562 700h215v-206c33.334 25.333 71.667 38 115 38c68.667 0 127.167 -25.333 175.5 -76s72.5 -114.334 72.5 -191c0 -78 -24.667 -143.333 -74 -196s-109.666 -79 -180.999 -79c-50 0 -93 17.333 -129 52l-13 -42h-181zM249.999 261
c0 -22 7.16699 -40.167 21.5 -54.5s32.5 -21.5 54.5 -21.5s40.333 7.16699 55 21.5s22 32.5 22 54.5s-7.33301 40.333 -22 55s-33 22 -55 22s-40.167 -7.33301 -54.5 -22s-21.5 -33 -21.5 -55z" />
    <glyph glyph-name="c" unicode="c" horiz-adv-x="526" 
d="M381 222l145.001 -135.999c-2 -2.66699 -4.83301 -6.16699 -8.5 -10.5s-12.167 -12 -25.5 -23s-27.666 -20.667 -42.999 -29s-35.333 -16 -60 -23s-50.334 -10.5 -77.001 -10.5c-83.333 0 -152 25.5 -206 76.5s-81 114.833 -81 191.5s28.167 141.5 84.5 194.5
s126.166 79.5 209.499 79.5c41.334 0 79.167 -7.33301 113.5 -22c34.334 -14.668 58.167 -29.335 71.5 -44.001l21 -21l-146 -142c-13.333 21.333 -35 32 -65 32c-21.333 0 -39 -7 -53 -21s-21 -31.667 -21 -53s7 -39 21 -53s31.667 -21 53 -21
c14.667 0 27.5 2.83301 38.5 8.5s18.5 11.5 22.5 17.5z" />
    <glyph glyph-name="d" unicode="d" horiz-adv-x="643" 
d="M603 700l0.000976562 -700.001h-181l-14 49c-39.333 -39.333 -84.333 -59 -135 -59c-68.667 0 -127.167 25.333 -175.5 76s-72.5 114.334 -72.5 191.001c0 78 24.667 143.333 74 196s109.666 79 180.999 79c40.667 0 76.667 -10.333 108 -31v199h215zM393.001 260.999
c0 22 -7.16699 40.333 -21.5 55s-32.5 22 -54.5 22s-40.333 -7.33301 -55 -22s-22 -33 -22 -55s7.33301 -40.167 22 -54.5s33 -21.5 55 -21.5s40.167 7.16699 54.5 21.5s21.5 32.5 21.5 54.5z" />
    <glyph glyph-name="e" unicode="e" horiz-adv-x="608" 
d="M569 218l-329.001 0.00292969c6 -13.333 17.167 -24.833 33.5 -34.5s35.5 -14.5 57.5 -14.5c18 0 35 3 51 9s27.333 12 34 18l11 9l121 -127c-2 -2.66699 -4.83301 -5.83398 -8.5 -9.50098s-12.5 -10.667 -26.5 -21s-29.333 -19.333 -46 -27
c-16.668 -7.66699 -38.835 -14.667 -66.501 -21c-27.667 -6.33301 -57.167 -9.5 -88.5 -9.5c-83.333 0 -152 25.667 -206 77s-81 115.666 -81 192.999c0 76.667 27.833 141.167 83.5 193.5s124.834 78.5 207.501 78.5c74.667 0 137.834 -23.333 189.501 -70
s77.5 -102.334 77.5 -167.001c0 -14.667 -1.16699 -28.334 -3.5 -41c-2.33301 -12.667 -4.83301 -22 -7.5 -28zM310.999 384.003c-18.667 0 -34.168 -5.83398 -46.501 -17.501c-12.333 -11.668 -19.5 -25.835 -21.5 -42.5h135
c-1.33301 16.667 -8.16602 30.834 -20.499 42.501s-27.833 17.5 -46.5 17.5z" />
    <glyph glyph-name="f" unicode="f" horiz-adv-x="455" 
d="M320 502v-10.001h115v-167h-115v-325h-215v325h-85v167h85v29c0 58.667 16.833 104.834 50.5 138.5c33.667 33.667 80.167 50.5 139.5 50.5c29.333 0 56.5 -2 81.5 -6s42.833 -8 53.5 -12l15 -5l-23 -154c-14.667 5.33301 -33 8 -55 8c-15.333 0 -27 -3.66699 -35 -11
c-8 -7.33691 -12 -16.6699 -12 -27.999z" />
    <glyph glyph-name="g" unicode="g" horiz-adv-x="643" 
d="M20 -87l80 150.997c6 -4 14.5 -9.16699 25.5 -15.5s32 -14.666 63 -24.999s60.833 -15.5 89.5 -15.5c73.333 0 110 24 110 72v4c-28 -19.333 -65.333 -29 -112 -29c-70.667 0 -130.167 22.833 -178.5 68.5s-72.5 100.834 -72.5 165.501
c0 70.667 23.5 128.834 70.5 174.501s108.833 68.5 185.5 68.5c25.333 0 49.666 -4.33301 72.999 -13c23.334 -8.66699 41.667 -19 55 -31l13 34h181v-385c0 -93.333 -27 -167.833 -81 -223.5s-128.667 -83.5 -224 -83.5c-51.333 0 -100.166 7 -146.499 21
s-79.833 27.667 -100.5 41zM240 287.997c0 -20 7.16699 -36.333 21.5 -49s32.5 -19 54.5 -19s40.333 6.33301 55 19s22 29 22 49s-7.33301 36.5 -22 49.5s-33 19.5 -55 19.5s-40.167 -6.33301 -54.5 -19s-21.5 -29.334 -21.5 -50z" />
    <glyph glyph-name="h" unicode="h" horiz-adv-x="615" 
d="M40 0l-0.000976562 699.999h215v-226c36.667 38.667 81.334 58 134.001 58c56 0 101.833 -17.5 137.5 -52.5s53.5 -81.5 53.5 -139.5v-340h-215v275c0 40 -17.667 60 -53 60c-18 0 -32 -5.16699 -42 -15.5s-15 -25.166 -15 -44.499v-275h-215z" />
    <glyph glyph-name="i" unicode="i" horiz-adv-x="307" 
d="M45 0v522h217v-522h-217zM24 660c0 33.333 12.3311 61 36.998 83s55.334 33 92.001 33s67.5 -11 92.5 -33s37.5 -49.667 37.5 -83c0 -32.667 -12.333 -60 -37 -82s-55.667 -33 -93 -33s-68.166 11 -92.499 33s-36.5 49.333 -36.5 82z" />
    <glyph glyph-name="j" unicode="j" horiz-adv-x="307" 
d="M45 522l217 0.00195312v-440c0 -82.667 -19.667 -145.334 -59 -188.001s-97 -64 -173 -64c-12.667 0 -26.5 0.666992 -41.5 2s-26.5 2.66602 -34.5 3.99902l-13 2l22 178c10 -2 21 -3 33 -3c32.667 0 49 17.667 49 53v456zM24 660.002c0 33.333 12.3311 61 36.998 83
s55.334 33 92.001 33s67.5 -11 92.5 -33s37.5 -49.667 37.5 -83c0 -32.667 -12.333 -60 -37 -82s-55.667 -33 -93 -33s-68.166 11 -92.499 33s-36.5 49.333 -36.5 82z" />
    <glyph glyph-name="k" unicode="k" horiz-adv-x="656" 
d="M60 0v700h215v-399l122 221h244l-159 -234l179 -288h-249l-137 249v-249h-215z" />
    <glyph glyph-name="l" unicode="l" horiz-adv-x="307" 
d="M45 0v700h217v-700h-217z" />
    <glyph glyph-name="m" unicode="m" horiz-adv-x="920" 
d="M40 0l0.000976562 522h193l6 -60c36 46.667 84.333 70 145 70c73.333 0 127.333 -28 162 -84c16 25.334 37.667 45.667 65 60.999c27.333 15.333 56.666 23 87.999 23c54.668 0 99.335 -17.667 134 -53c34.667 -35.333 52 -81.666 52 -138.999v-340h-215v280
c0 36.667 -16 55 -48 55c-16 0 -28.667 -4.83301 -38 -14.5s-14 -23.167 -14 -40.5v-280h-215v280c0 36.667 -16 55 -48 55c-16 0 -28.667 -4.83301 -38 -14.5s-14 -23.167 -14 -40.5v-280h-215z" />
    <glyph glyph-name="n" unicode="n" horiz-adv-x="615" 
d="M255 275v-275.001h-215v522h193l7 -59c37.333 46 87 69 149 69c56 0 101.833 -17.5 137.5 -52.5s53.5 -81.5 53.5 -139.5v-340h-215v275c0 40 -17.667 60 -53 60c-18 0 -32 -5.16699 -42 -15.5s-15 -25.166 -15 -44.499z" />
    <glyph glyph-name="o" unicode="o" horiz-adv-x="631" 
d="M319 532c83.333 0 152 -25.333 206 -76s81 -114.334 81 -191c0 -76.667 -28.167 -141.667 -84.5 -195s-126.166 -80 -209.499 -80s-152 25.5 -206 76.5s-81 114.833 -81 191.5s28.167 141.5 84.5 194.5s126.166 79.5 209.499 79.5zM239 261
c0 -22 7.16699 -40.167 21.5 -54.5s32.5 -21.5 54.5 -21.5s40.333 7.16699 55 21.5s22 32.5 22 54.5s-7.33301 40.333 -22 55s-33 22 -55 22s-40.167 -7.33301 -54.5 -22s-21.5 -33 -21.5 -55z" />
    <glyph glyph-name="p" unicode="p" horiz-adv-x="643" 
d="M40 -160l-0.000976562 682h181l14 -49c38 39.333 83 59 135 59c68.667 0 127.167 -25.333 175.5 -76s72.5 -114.334 72.5 -191c0 -78 -24.667 -143.333 -74 -196s-109.666 -79 -180.999 -79c-40.667 0 -76.667 9.33301 -108 28v-178h-215zM249.999 261
c0 -22 7.16699 -40.167 21.5 -54.5s32.5 -21.5 54.5 -21.5s40.333 7.16699 55 21.5s22 32.5 22 54.5s-7.33301 40.333 -22 55s-33 22 -55 22s-40.167 -7.33301 -54.5 -22s-21.5 -33 -21.5 -55z" />
    <glyph glyph-name="q" unicode="q" horiz-adv-x="643" 
d="M603 522l0.000976562 -682.001h-215v185c-36 -23.333 -74.333 -35 -115 -35c-68.667 0 -127.167 25.333 -175.5 76s-72.5 114.334 -72.5 191.001c0 78 24.667 143.333 74 196s109.666 79 180.999 79c48 0 90 -17.333 126 -52l16 42h181zM393.001 260.999
c0 22 -7.16699 40.333 -21.5 55s-32.5 22 -54.5 22s-40.333 -7.33301 -55 -22s-22 -33 -22 -55s7.33301 -40.167 22 -54.5s33 -21.5 55 -21.5s40.167 7.16699 54.5 21.5s21.5 32.5 21.5 54.5z" />
    <glyph glyph-name="r" unicode="r" horiz-adv-x="440" 
d="M40 0v522h191l10 -84c35.333 62.667 93.333 94 174 94l-2 -220h-46c-38 0 -66.167 -8.5 -84.5 -25.5s-27.5 -45.5 -27.5 -85.5v-201h-215z" />
    <glyph glyph-name="s" unicode="s" horiz-adv-x="493" 
d="M314 331c48 -17.333 85.665 -40.499 112.998 -69.499s41 -61.167 41 -96.5c0 -54 -20 -96.667 -60 -128s-95.667 -47 -167 -47c-43.333 0 -84.666 7.16699 -123.999 21.5s-67.666 28.5 -84.999 42.5l-27 21l85 124c6 -4.66699 13.833 -10.334 23.5 -17.001
s27.334 -15.5 53.001 -26.5s48.834 -16.5 69.5 -16.5c12.667 0 19 4 19 12c0 10 -27 25 -81 45c-94 34.667 -141 91 -141 169c0 46.667 19.5 86.167 58.5 118.5s92.167 48.5 159.5 48.5c37.333 0 74.333 -6.33301 111 -19s64 -25 82 -37l26 -19l-82 -127
c-46.667 35.333 -89.334 53 -128.001 53c-12.667 0 -19 -3.66699 -19 -11c0 -10 24.333 -23.667 73 -41z" />
    <glyph glyph-name="t" unicode="t" horiz-adv-x="470" 
d="M320 640l0.000976562 -118h120v-167h-120v-133c0 -23.333 11.333 -35 34 -35c9.33398 0 19.167 0.5 29.5 1.5s18.5 2.16699 24.5 3.5l9 2l23 -178c-44.667 -17.333 -95.334 -26 -152 -26c-56.667 0 -101.334 14.5 -134.001 43.5s-49 69.833 -49 122.5v199h-85v167h85v118
h215z" />
    <glyph glyph-name="u" unicode="u" horiz-adv-x="615" 
d="M360 247v275.001h215v-522h-193l-7 59c-37.333 -46 -87 -69 -149 -69c-56 0 -101.833 17.5 -137.5 52.5s-53.5 81.5 -53.5 139.5v340h215v-275c0 -40 17.667 -60 53 -60c18 0 32 5.16699 42 15.5s15 25.166 15 44.499z" />
    <glyph glyph-name="v" unicode="v" horiz-adv-x="566" 
d="M179 0l-194 522h239l67 -247l65 247h225l-194 -522h-208z" />
    <glyph glyph-name="w" unicode="w" horiz-adv-x="815" 
d="M151 0l-166 522h231l57 -245l60 245h161l56 -239l58 239h222l-166 -522h-203l-53 204l-54 -204h-203z" />
    <glyph glyph-name="x" unicode="x" horiz-adv-x="611" 
d="M616 522l-182 -251l192 -271h-249l-75 123l-80 -123h-237l192 264l-182 258h249l65 -111l70 111h237z" />
    <glyph glyph-name="y" unicode="y" horiz-adv-x="566" 
d="M171 22l-186.001 499.999h239l67 -270l65 270h225l-193 -527c-20.667 -57.333 -49.167 -99.166 -85.5 -125.499s-83.5 -39.5 -141.5 -39.5c-30.667 0 -60.667 3.83301 -90 11.5s-51 15.167 -65 22.5l-21 12l63 167c30.667 -16.667 63.334 -25 98.001 -25z" />
    <glyph glyph-name="z" unicode="z" horiz-adv-x="555" 
d="M30 156l203 191h-188v175h480v-154l-201 -188h201v-180h-495v156z" />
    <glyph glyph-name="braceleft" unicode="{" horiz-adv-x="475" 
d="M329 220v-89.001c0 -26.667 13.333 -40 40 -40h81v-171h-136c-67.333 0 -116.5 15.333 -147.5 46s-46.5 79.334 -46.5 146.001v127c0 10 -2.66699 18.167 -8 24.5s-13 9.5 -23 9.5h-64v154h64c20.667 0 31 10.333 31 31v128c0 67.333 15.5 116.5 46.5 147.5
s80.167 46.5 147.5 46.5h136v-174h-81c-26.667 0 -40 -13.333 -40 -40v-88c0 -83.333 -33.333 -126 -100 -128c66.667 -4 100 -47.333 100 -130z" />
    <glyph glyph-name="bar" unicode="|" horiz-adv-x="345" 
d="M90 -100v900h165v-900h-165z" />
    <glyph glyph-name="braceright" unicode="}" horiz-adv-x="475" 
d="M146 480v89.001c0 26.667 -13.333 40 -40 40h-81v171h136c67.333 0 116.5 -15.333 147.5 -46s46.5 -79.334 46.5 -146.001v-127c0 -10 2.66699 -18.167 8 -24.5s13 -9.5 23 -9.5h64v-154h-64c-20.667 0 -31 -10.333 -31 -31v-128c0 -67.333 -15.5 -116.5 -46.5 -147.5
s-80.167 -46.5 -147.5 -46.5h-136v174h81c26.667 0 40 13.333 40 40v88c0 83.333 33.333 126 100 128c-66.667 4 -100 47.333 -100 130z" />
    <glyph glyph-name="asciitilde" unicode="~" 
d="M194 210l-153.999 19c0 3.33301 0.166992 7.83301 0.5 13.5s1.66602 16.667 3.99902 33s5.5 31.833 9.5 46.5s10.333 31 19 49s18.834 33.5 30.501 46.5s27 24 46 33s40.167 13.5 63.5 13.5c24 0 46 -4.33301 66 -13s35.667 -18 47 -28s23.333 -19.333 36 -28
s24.334 -13 35.001 -13c10 0 17.833 5.83301 23.5 17.5s8.83398 23.167 9.50098 34.5l1 18l154 -19c0 -3.33301 -0.166992 -7.83301 -0.5 -13.5c-0.351562 -5.66699 -1.68457 -16.667 -4 -33c-2.33301 -16.333 -5.5 -31.833 -9.5 -46.5s-10.333 -31 -19 -49
s-18.834 -33.5 -30.501 -46.5s-27 -24 -46 -33s-40.167 -13.5 -63.5 -13.5c-24 0 -46 4.33301 -66 13s-35.667 18 -47 28s-23.333 19.333 -36 28s-24.334 13 -35.001 13c-10 0 -17.833 -5.83301 -23.5 -17.5s-8.83398 -23.167 -9.50098 -34.5z" />
    <glyph glyph-name="exclamdown" unicode="&#xa1;" horiz-adv-x="359" 
d="M179 454c-35.333 0 -65.5 12.5 -90.5 37.5s-37.5 55.5 -37.5 91.5s12.5 66.167 37.5 90.5s55.167 36.5 90.5 36.5c36.667 0 67.334 -12 92.001 -36s37 -54.333 37 -91c0 -36 -12.333 -66.5 -37 -91.5s-55.334 -37.5 -92.001 -37.5zM263 429l47 -429h-261l47 429h167z" />
    <glyph glyph-name="cent" unicode="&#xa2;" horiz-adv-x="561" 
d="M391 399l145.001 -136.001c-4 -5.33301 -10 -12.166 -18 -20.499c-8 -8.33398 -25.667 -20.667 -53 -37s-56.333 -27.5 -87 -33.5v-97h-116v97c-68 12 -122.833 42.167 -164.5 90.5s-62.5 105.833 -62.5 172.5c0 66 21 123.5 63 172.5s96.667 80.5 164 94.5v98h116v-95
c31.334 -4.66699 60.167 -14 86.499 -28c26.333 -14 44.833 -26.667 55.5 -38l15 -17l-146 -142c-13.333 21.333 -35 32 -65 32c-21.333 0 -39 -7 -53 -21s-21 -31.667 -21 -53s7 -39 21 -53s31.667 -21 53 -21c14.667 0 27.5 3 38.5 9s18.5 11.667 22.5 17z" />
    <glyph glyph-name="sterling" unicode="&#xa3;" horiz-adv-x="614" 
d="M575 0l-474.999 0.000976562v281h-75v115h75v53c0 81.333 25.333 145.166 76 191.499s113.667 69.5 189 69.5c29.333 0 57 -4.16699 83 -12.5s47.167 -18.333 63.5 -30s30.666 -23.167 42.999 -34.5s21.166 -21 26.499 -29l8 -13l-167 -113
c-0.666992 2.66699 -2.16699 6 -4.5 10s-8.16602 9.16699 -17.499 15.5s-20.333 9.5 -33 9.5c-16 0 -28.667 -5 -38 -15s-14 -23 -14 -39v-63h175v-115h-175v-96h260v-185z" />
    <glyph glyph-name="currency" unicode="&#xa4;" horiz-adv-x="684" 
d="M341 277c21.333 0 38.999 6.83301 52.999 20.5s21 31.167 21 52.5s-7 38.833 -21 52.5s-31.667 20.5 -53 20.5s-38.666 -6.83301 -51.999 -20.5s-20 -31.167 -20 -52.5s6.66699 -38.833 20 -52.5c13.334 -13.667 30.667 -20.5 52 -20.5zM131.999 484l-97 94l77 77l99 -96
c46 24 90.667 36 134 36c42.667 0 85 -11.333 127 -34l100 94l77 -77l-96 -90c28 -41.333 42 -86 42 -134c0 -46.667 -14.333 -93 -43 -139l97 -93l-77 -77l-101 98c-37.333 -25.333 -81.333 -38 -132 -38c-50 0 -93.333 11.333 -130 34l-97 -94l-77 77l96 91
c-28 39.333 -42 84.333 -42 135c0 50 14.333 95.333 43 136z" />
    <glyph glyph-name="yen" unicode="&#xa5;" horiz-adv-x="670" 
d="M220 0v172h-195v104h195v15l-14 31h-181v104h123l-143 274h266l70 -208l75 208h249l-143 -274h123v-104h-181l-14 -31v-15h195v-104h-195v-172h-230z" />
    <glyph glyph-name="brokenbar" unicode="&#xa6;" horiz-adv-x="345" 
d="M255 800v-355h-165v355h165zM90 -100v355h165v-355h-165z" />
    <glyph glyph-name="section" unicode="&#xa7;" horiz-adv-x="670" 
d="M635 267c0 -63.333 -32.999 -112.668 -98.999 -148.001c12 -30 18 -60.333 18 -91c0 -60 -22.667 -108 -68 -144s-104 -54 -176 -54c-28 0 -54.833 3.5 -80.5 10.5s-47 15.333 -64 25s-31.833 19.334 -44.5 29.001s-22 18.167 -28 25.5l-9 10l121 122
c30.667 -33.333 61.667 -50 93 -50c18 0 27 6 27 18c0 15.333 -28.667 33 -86 53c-74.667 26.667 -127.334 56.334 -158.001 89.001s-46 69.667 -46 111c0 64 32.667 113.333 98 148c-12 30 -18 60.333 -18 91c0 60 22.667 108 68 144s104 54 176 54
c28 0 54.833 -3.5 80.5 -10.5s47 -15.333 64 -25s31.833 -19.334 44.5 -29.001s22 -18.167 28 -25.5l9 -10l-121 -122c-30.667 33.333 -61.667 50 -93 50c-18 0 -27 -6 -27 -18c0 -15.333 28.667 -33 86 -53c74.667 -26.667 127.5 -56.334 158.5 -89
c31 -32.667 46.5 -69.667 46.5 -111zM420.001 212.998c4.66699 4.66699 6.99902 11.001 6.99902 19.001c0 12.667 -9 25 -27 37s-51 25 -99 39c-19.333 5.33301 -35.666 12 -48.999 20c-4.66699 -4 -7 -10.333 -7 -19c0 -26.667 42 -52 126 -76
c18.667 -4.66699 35 -11.334 49 -20.001z" />
    <glyph glyph-name="dieresis" unicode="&#xa8;" horiz-adv-x="510" 
d="M133 768c30 0 54.833 -9.83301 74.5 -29.5s29.5 -44.5 29.5 -74.5s-10 -55 -30 -75s-45 -30 -75 -30s-54.833 9.83301 -74.5 29.5s-29.5 44.5 -29.5 74.5s10 55 30 75s45 30 75 30zM376 768c30 0 54.833 -9.83301 74.5 -29.5s29.5 -44.5 29.5 -74.5s-10 -55 -30 -75
s-45 -30 -75 -30s-54.833 9.83301 -74.5 29.5s-29.5 44.5 -29.5 74.5s10 55 30 75s45 30 75 30z" />
    <glyph glyph-name="copyright" unicode="&#xa9;" horiz-adv-x="826" 
d="M492 303l87 -79.001c-4 -5.33301 -9.66699 -12 -17 -20s-24.833 -18.667 -52.5 -32s-58.167 -20 -91.5 -20c-58 0 -105.5 18.667 -142.5 56s-55.5 84 -55.5 140s19 103.333 57 142s86 58 144 58c32 0 60.833 -5.66699 86.5 -17s43.5 -22.333 53.5 -33l15 -17l-87 -80
c-12.667 20 -34 30 -64 30c-23.333 0 -42.333 -7.83301 -57 -23.5s-22 -34.834 -22 -57.5c0 -23.333 7.33301 -42.666 22 -57.999s33.667 -23 57 -23c13.333 0 25.5 2.83301 36.5 8.5s18.833 11.167 23.5 16.5zM415 709.999c102.667 0 188.5 -34.333 257.5 -103
s103.5 -153.667 103.5 -255s-35.167 -187 -105.5 -257s-156.833 -105 -259.5 -105s-188.5 34.333 -257.5 103s-103.5 153.667 -103.5 255s35.167 187 105.5 257s156.833 105 259.5 105zM413 92.999c70.667 0 130.5 24.832 179.5 74.499s73.5 110.5 73.5 182.5
c0 71.334 -24.5 131.667 -73.5 181s-108.833 74 -179.5 74s-130.5 -24.667 -179.5 -74s-73.5 -109.666 -73.5 -180.999c0 -72 24.5 -132.833 73.5 -182.5s108.833 -74.5 179.5 -74.5z" />
    <glyph glyph-name="ordfeminine" unicode="&#xaa;" horiz-adv-x="396" 
d="M165 569c20.667 0 38.667 -3 54 -9v6c0 24 -13.667 36 -41 36c-12 0 -23.833 -1.66699 -35.5 -5s-20.5 -6.33301 -26.5 -9l-9 -5l-48 78c4 3.33301 10 7.33301 18 12s24.667 11 50 19s51.333 12 78 12c46 0 82.667 -12.667 110 -38s41 -60 41 -104v-176h-101l-11 19
c-24.667 -16.667 -52.667 -25 -84 -25c-38 0 -67.5 8.33301 -88.5 25s-31.5 39 -31.5 67c0 29.334 11.167 52.834 33.5 70.5c22.333 17.667 52.833 26.5 91.5 26.5zM50 269v77h306v-77h-306zM168 480c0 -8 2.66699 -14.167 8 -18.5s12 -6.5 20 -6.5s14.667 2.16699 20 6.5
s8 10.5 8 18.5s-2.66699 14.167 -8 18.5s-12 6.5 -20 6.5s-14.667 -2.16699 -20 -6.5s-8 -10.5 -8 -18.5z" />
    <glyph glyph-name="guillemotleft" unicode="&#xab;" horiz-adv-x="803" 
d="M718 500l-123 -148l123 -145l-111 -118l-233 226v70l233 229zM394 500l-123 -148l123 -145l-111 -118l-233 226v70l233 229z" />
    <glyph glyph-name="logicalnot" unicode="&#xac;" 
d="M395 160v141h-345v165h525v-306h-180z" />
    <glyph glyph-name="registered" unicode="&#xae;" horiz-adv-x="536" 
d="M274 545h-28v-45h28c16.667 0 25 7.33301 25 22c0 15.333 -8.33301 23 -25 23zM269 710c61.333 0 112.833 -20.667 154.5 -62s62.5 -92.333 62.5 -153s-21.167 -112 -63.5 -154s-94.166 -63 -155.499 -63s-112.833 20.667 -154.5 62s-62.5 92.333 -62.5 153
s21.167 112 63.5 154s94.166 63 155.499 63zM268 335c42 0 78.333 15.5 109 46.5s46 68.5 46 112.5c0 43.333 -15.333 80.166 -46 110.499s-67 45.5 -109 45.5c-42.667 0 -79.167 -15.167 -109.5 -45.5c-30.333 -30.334 -45.5 -67.167 -45.5 -110.499
c0 -44 15.167 -81.5 45.5 -112.5s66.833 -46.5 109.5 -46.5zM185 389v209.998h98c23.333 0 42.333 -6.66699 57 -20c14.667 -13.335 22 -30.668 22 -51.999c0 -31.333 -12.333 -52.666 -37 -63.999l46 -74h-72l-37 63h-16v-63h-61z" />
    <glyph glyph-name="macron" unicode="&#xaf;" horiz-adv-x="460" 
d="M50 600v120h360v-120h-360z" />
    <glyph glyph-name="degree" unicode="&#xb0;" horiz-adv-x="459" 
d="M231 448c20 0 36.834 7 50.501 21s20.5 32 20.5 54s-6.83301 40 -20.5 54s-30.5 21 -50.5 21c-20.667 0 -37.834 -7 -51.501 -21s-20.5 -32 -20.5 -54s6.83301 -40 20.5 -54s30.834 -21 51.5 -21zM232.001 710c53.333 0 97.834 -17.832 133.501 -53.499
s53.5 -80.167 53.5 -133.5c0 -52 -18.333 -96.167 -55 -132.5s-81.334 -54.5 -134 -54.5c-53.333 0 -98.333 17.833 -135 53.5s-55 79.5 -55 131.5c0 53.333 18.667 98.166 56 134.499s82.666 54.5 135.999 54.5z" />
    <glyph glyph-name="plusminus" unicode="&#xb1;" 
d="M400 689v-151h175v-168h-175v-156h-173v156h-177v168h177v151h173zM575 14h-525v168h525v-168z" />
    <glyph glyph-name="twosuperior" unicode="&#xb2;" horiz-adv-x="356" 
d="M33 387l126.001 116c26 24 39 43.333 39 58c0 6.67578 -2.5 12.3428 -7.5 17.001c-5 4.66699 -11.833 7 -20.5 7c-9.33301 0 -18.333 -3.33301 -27 -10s-15 -13.334 -19 -20.001l-6 -10l-98 65c1.33301 2.66699 3 6.16699 5 10.5s7.5 12 16.5 23s19.167 20.667 30.5 29
s27 16 47 23s42 10.5 66 10.5c46 0 82.667 -12.667 110 -38c27.333 -25.335 41 -56.668 41 -94c0 -28.667 -6.83301 -54 -20.5 -76s-35.834 -44.667 -66.501 -68l-43 -32h127v-118h-300v107z" />
    <glyph glyph-name="threesuperior" unicode="&#xb3;" horiz-adv-x="364" 
d="M123 537h42c10.667 0 18.834 2.66699 24.5 8c5.66699 5.33301 8.5 11.666 8.5 18.999c0 8 -2.83301 14.5 -8.5 19.5s-12.5 7.5 -20.5 7.5s-15.167 -2.16699 -21.5 -6.5s-10.833 -8.83301 -13.5 -13.5l-3 -7l-96 50l5 10c2 4 7.16699 11.333 15.5 22s17.666 20 27.999 28
s24.666 15.333 42.999 22s37.833 10 58.5 10c42.667 0 77.834 -10.5 105.501 -31.5s41.5 -49.5 41.5 -85.5c0 -37.333 -17.333 -67.333 -52 -90c42.667 -22.667 64 -55.334 64 -98c0 -40 -14.833 -71.167 -44.5 -93.5s-69.834 -33.5 -120.501 -33.5
c-22 0 -42.667 3.33301 -62 10s-34.666 15 -45.999 25s-21 19.833 -29 29.5s-13.667 17.834 -17 24.501l-5 10l99 54c1.33301 -2.66699 3.33301 -6.16699 6 -10.5s8.83398 -10 18.501 -17s20.5 -10.5 32.5 -10.5c10.667 0 19 2.83301 25 8.5s9 12.167 9 19.5
c0 20 -13.667 30 -41 30h-46v90z" />
    <glyph glyph-name="acute" unicode="&#xb4;" horiz-adv-x="370" 
d="M40 566l55 174h225l-114 -174h-166z" />
    <glyph glyph-name="mu" unicode="&#xb5;" horiz-adv-x="620" 
d="M40 -160v682.001h215v-275c0 -40 17.667 -60 53 -60c18 0 32 5.16699 42 15.5s15 25.166 15 44.499v275h215v-522h-188l-12 62c-32 -48 -69.667 -72 -113 -72l-12 1v-151h-215z" />
    <glyph glyph-name="mu" unicode="&#x3bc;" horiz-adv-x="620" 
d="M40 -160v682.001h215v-275c0 -40 17.667 -60 53 -60c18 0 32 5.16699 42 15.5s15 25.166 15 44.499v275h215v-522h-188l-12 62c-32 -48 -69.667 -72 -113 -72l-12 1v-151h-215z" />
    <glyph glyph-name="paragraph" unicode="&#xb6;" horiz-adv-x="843" 
d="M308 0v240h-25c-74 0 -134.667 21 -182 63s-71 96.667 -71 164c0 66 25 121.333 75 166s111.667 67 185 67h473v-700h-190v526h-75v-526h-190z" />
    <glyph glyph-name="periodcentered" unicode="&#xb7;" horiz-adv-x="356" 
d="M179 473c35.333 0 65.333 -12.167 90 -36.5s37 -54.5 37 -90.5s-12.333 -65.833 -37 -89.5s-54.667 -35.5 -90 -35.5c-36.667 0 -67.334 11.833 -92.001 35.5s-37 53.5 -37 89.5s12.333 66.167 37 90.5s55.334 36.5 92.001 36.5z" />
    <glyph glyph-name="cedilla" unicode="&#xb8;" horiz-adv-x="355" 
d="M169 0l58.002 83.998c2.66699 -0.666992 6.16699 -1.83398 10.5 -3.5c4.33301 -1.66699 11.833 -6 22.5 -13s20.167 -14.667 28.5 -23s16 -20.166 23 -35.499s10.5 -31.666 10.5 -48.999c0 -46.667 -17.5 -84.167 -52.5 -112.5s-75.5 -42.5 -121.5 -42.5
c-18.667 0 -36.834 2.16699 -54.501 6.5s-30.834 8.5 -39.501 12.5l-12 6l40 120c10 -6.66699 24 -10 42 -10c14 0 25.833 3.5 35.5 10.5s14.5 17.5 14.5 31.5c0 4 -0.333008 7.5 -1 10.5s-1.66699 4.83301 -3 5.5z" />
    <glyph glyph-name="onesuperior" unicode="&#xb9;" horiz-adv-x="323" 
d="M10 589l157 111h116v-420h-138v261l-69 -41z" />
    <glyph glyph-name="ordmasculine" unicode="&#xba;" horiz-adv-x="434" 
d="M219 704c51.333 0 93.333 -15.167 126 -45.5s49 -68.5 49 -114.5s-16.833 -84.833 -50.5 -116.5s-76.5 -47.5 -128.5 -47.5c-50 0 -91.667 15.333 -125 46s-50 68.667 -50 114c0 46 17.167 84.833 51.5 116.5s76.833 47.5 127.5 47.5zM50 269v77h334v-77h-334zM179 543
c0 -11.3369 3.66797 -20.6699 11.001 -27.999c7.33301 -7.33301 16.666 -11 27.999 -11s20.833 3.66699 28.5 11s11.5 16.666 11.5 27.999s-3.83301 20.833 -11.5 28.5s-17.167 11.5 -28.5 11.5c-11.334 0 -20.667 -3.83301 -28 -11.5s-11 -17.167 -11 -28.5z" />
    <glyph glyph-name="guillemotright" unicode="&#xbb;" horiz-adv-x="803" 
d="M409 200l123 148l-123 145l111 118l233 -226v-70l-233 -229zM85 200l123 148l-123 145l111 118l233 -226v-70l-233 -229z" />
    <glyph glyph-name="onequarter" unicode="&#xbc;" horiz-adv-x="848" 
d="M130 0l478 700h132l-473 -700h-137zM10 589l157 111h116v-420h-138v261l-69 -41zM576 179h68v97zM465 187l167 233h138v-241h58v-104h-58v-75h-126v75h-179v112z" />
    <glyph glyph-name="onehalf" unicode="&#xbd;" horiz-adv-x="890" 
d="M130 0l478 700h132l-473 -700h-137zM10 589l157 111h116v-420h-138v261l-69 -41zM547 107l126.001 115.999c26 24 39 43.333 39 58c0 6.66699 -2.5 12.334 -7.5 17.001s-11.833 7 -20.5 7c-9.33301 0 -18.333 -3.33301 -27 -10
c-8.66699 -6.66797 -15 -13.335 -19 -20.001l-6 -10l-98 65c1.33301 2.66699 3 6.16699 5 10.5s7.5 12 16.5 23s19.167 20.667 30.5 29s27 16 47 23s42 10.5 66 10.5c46 0 82.667 -12.667 110 -38s41 -56.666 41 -93.999c0 -28.667 -6.83301 -54 -20.5 -76
s-35.834 -44.667 -66.501 -68l-43 -32h127v-118h-300v107z" />
    <glyph glyph-name="threequarters" unicode="&#xbe;" horiz-adv-x="868" 
d="M150 0l478 700h132l-473 -700h-137zM596 179h68v97zM485 187l167 233h138v-241h58v-104h-58v-75h-126v75h-179v112zM123 537h42c10.667 0 18.834 2.66699 24.5 8c5.66699 5.33301 8.5 11.666 8.5 18.999c0 8 -2.83301 14.5 -8.5 19.5s-12.5 7.5 -20.5 7.5
s-15.167 -2.16699 -21.5 -6.5s-10.833 -8.83301 -13.5 -13.5l-3 -7l-96 50l5 10c2 4 7.16699 11.333 15.5 22s17.666 20 27.999 28s24.666 15.333 42.999 22s37.833 10 58.5 10c42.667 0 77.834 -10.5 105.501 -31.5s41.5 -49.5 41.5 -85.5
c0 -37.333 -17.333 -67.333 -52 -90c42.667 -22.667 64 -55.334 64 -98c0 -40 -14.833 -71.167 -44.5 -93.5s-69.834 -33.5 -120.501 -33.5c-22 0 -42.667 3.33301 -62 10s-34.666 15 -45.999 25s-21 19.833 -29 29.5s-13.667 17.834 -17 24.501l-5 10l99 54
c1.33301 -2.66699 3.33301 -6.16699 6 -10.5s8.83398 -10 18.501 -17s20.5 -10.5 32.5 -10.5c10.667 0 19 2.83301 25 8.5s9 12.167 9 19.5c0 20 -13.667 30 -41 30h-46v90z" />
    <glyph glyph-name="questiondown" unicode="&#xbf;" horiz-adv-x="540" 
d="M254 226c0.00195312 -9.33301 3.16797 -17.332 9.49902 -23.999c6.33398 -6.66699 15.167 -10 26.499 -10c15.333 0 29 5 41 15s20.333 19.667 25 29l6 15l160 -101c-1.33301 -4.66699 -3.5 -10.5 -6.5 -17.5s-10.833 -19.667 -23.5 -38s-27.667 -34.5 -45 -48.5
s-42 -26.833 -74 -38.5s-67.333 -17.5 -106 -17.5c-65.333 0 -121.166 19.833 -167.499 59.5s-69.5 86.5 -69.5 140.5c0 26.667 4.33301 50.667 13 72s19.834 39 33.501 53s27.5 26.667 41.5 38s27.333 23.5 40 36.5s21.667 26.167 27 39.5h190
c0 -27.333 -6.33301 -52.333 -19 -75s-26.5 -39.834 -41.5 -51.5c-15 -11.668 -28.833 -24.335 -41.5 -38.001c-12.667 -13.667 -19 -26.5 -19 -38.5zM282.999 454.001c-35.333 0 -65.334 12.5 -90.001 37.5s-37 55.5 -37 91.5s12.333 66.167 37 90.5s54.667 36.5 90 36.5
c36.667 0 67.334 -12 92.001 -36s37 -54.333 37 -91c0 -36 -12.333 -66.5 -37 -91.5s-55.334 -37.5 -92 -37.5z" />
    <glyph glyph-name="Agrave" unicode="&#xc0;" horiz-adv-x="740" 
d="M364 439l-53 -172h105zM482 700l268 -700h-252l-29 96h-212l-29 -96h-238l266 700h226zM395 920l55 -174h-166l-114 174h225z" />
    <glyph glyph-name="Aacute" unicode="&#xc1;" horiz-adv-x="740" 
d="M364 439l-53 -172h105zM482 700l268 -700h-252l-29 96h-212l-29 -96h-238l266 700h226zM290 746l55 174h225l-114 -174h-166z" />
    <glyph glyph-name="Acircumflex" unicode="&#xc2;" horiz-adv-x="740" 
d="M364 439l-53 -172h105zM482 700l268 -700h-252l-29 96h-212l-29 -96h-238l266 700h226zM145 746l130 174h190l130 -174h-184l-46 52l-48 -52h-172z" />
    <glyph glyph-name="Atilde" unicode="&#xc3;" horiz-adv-x="740" 
d="M364 439l-53 -172h105zM482 700l268 -700h-252l-29 96h-212l-29 -96h-238l266 700h226zM278 755l-96.002 12c0 4 0.333008 9.66699 1 17c0.667969 7.33301 3.33496 20 8 38c4.66699 18 10.834 34 18.5 48c7.66699 14 19.667 26.667 36 38
c16.334 11.333 35.167 17 56.5 17c21.334 0 40.167 -4.5 56.5 -13.5c16.334 -9 30.167 -18 41.5 -27s22 -13.5 32 -13.5c6.66699 0 12.334 3.66699 17.001 11s7.66699 14.666 9 21.999l1 11l96 -12c0 -4 -0.333008 -9.66699 -1 -17s-3.33398 -20 -8.00098 -38
s-10.834 -34 -18.501 -48s-19.667 -26.667 -36 -38s-35.166 -17 -56.499 -17s-40.166 4.5 -56.499 13.5s-30.166 18 -41.499 27s-22 13.5 -32 13.5c-6.66699 0 -12.334 -3.66699 -17 -11c-4.66895 -7.33887 -7.33594 -14.6719 -8 -21.999z" />
    <glyph glyph-name="Adieresis" unicode="&#xc4;" horiz-adv-x="740" 
d="M364 439l-53 -172h105zM482 700l268 -700h-252l-29 96h-212l-29 -96h-238l266 700h226zM248 948c30 0 54.833 -9.83301 74.5 -29.5s29.5 -44.5 29.5 -74.5s-10 -55 -30 -75s-45 -30 -75 -30s-54.833 9.83301 -74.5 29.5s-29.5 44.5 -29.5 74.5s10 55 30 75s45 30 75 30z
M491 948c30 0 54.833 -9.83301 74.5 -29.5s29.5 -44.5 29.5 -74.5s-10 -55 -30 -75s-45 -30 -75 -30s-54.833 9.83301 -74.5 29.5s-29.5 44.5 -29.5 74.5s10 55 30 75s45 30 75 30z" />
    <glyph glyph-name="Aring" unicode="&#xc5;" horiz-adv-x="740" 
d="M364 439l-53 -172h105zM482 700l268 -700h-252l-29 96h-212l-29 -96h-238l266 700h226zM370 947c33.333 0 60.5 -9.99902 81.5 -29.999s31.5 -45.333 31.5 -76c0 -31.335 -10.5 -57.168 -31.5 -77.5c-21 -20.333 -48.167 -30.5 -81.5 -30.5s-60.333 10.167 -81 30.5
s-31 46.166 -31 77.499c0 30.667 10.333 56 31 76s47.667 30 81 30zM370 804.001c11.333 0 20.332 3.33301 26.999 10s10 15 10 25s-3.33301 18.5 -10 25.5s-15.667 10.5 -27 10.5s-20.166 -3.5 -26.499 -10.5s-9.5 -15.5 -9.5 -25.5s3.16699 -18.333 9.5 -25
c6.33496 -6.66699 15.168 -10 26.5 -10z" />
    <glyph glyph-name="AE" unicode="&#xc6;" horiz-adv-x="1075" 
d="M364 267h121v247zM1030 503h-316v-67h266v-166h-266v-73h326v-197h-555v96h-205l-48 -96h-252l385 700h665v-197z" />
    <glyph glyph-name="Ccedilla" unicode="&#xc7;" horiz-adv-x="701" 
d="M35 345c0 102 36.0049 188.336 108.005 259.002c72 70.667 161.333 106 268 106c27.333 0 53.5 -2.16699 78.5 -6.5s46.667 -10 65 -17s35.166 -14.833 50.499 -23.5s28.166 -17.167 38.499 -25.5s19.166 -16 26.499 -23s12.666 -12.5 15.999 -16.5l4 -7l-166 -146
c-2.66699 4 -6.66699 8.83301 -12 14.5s-17.833 13.167 -37.5 22.5s-41.5 14 -65.5 14c-43.333 0 -78.333 -13.667 -105 -41s-40 -62.666 -40 -105.999s13.333 -78.833 40 -106.5s61.667 -41.5 105 -41.5c16 0 31.333 2.16699 46 6.5s26.667 9.66602 36 15.999
s17.5 12.5 24.5 18.5s11.833 11.333 14.5 16l5 6l161 -139c-2 -2.66699 -4.66699 -6.33398 -8 -11c-3.33301 -4.66699 -11.5 -13.334 -24.5 -26.001s-27 -24.334 -42 -35.001s-35.333 -21.5 -61 -32.5s-52.834 -18.833 -81.501 -23.5c4 -10.667 6 -23 6 -37
c0 -46.667 -17.5 -84.167 -52.5 -112.5s-75.5 -42.5 -121.5 -42.5c-18.667 0 -36.834 2.16699 -54.5 6.5c-17.667 4.33301 -30.5 8.5 -38.5 12.5l-13 6l40 120c10 -6.66699 24 -10 42 -10c14 0 25.833 3.5 35.5 10.5s14.5 17.5 14.5 31.5c0 3.33301 -1 8 -3 14
c-89.333 14 -161.5 53.167 -216.5 117.5s-82.5 141.5 -82.5 231.5z" />
    <glyph glyph-name="Egrave" unicode="&#xc8;" horiz-adv-x="650" 
d="M615 0h-555v700h545v-197h-316v-67h266v-166h-266v-73h326v-197zM375 920l55 -174h-166l-114 174h225z" />
    <glyph glyph-name="Eacute" unicode="&#xc9;" horiz-adv-x="650" 
d="M615 0h-555v700h545v-197h-316v-67h266v-166h-266v-73h326v-197zM250 746l55 174h225l-114 -174h-166z" />
    <glyph glyph-name="Ecircumflex" unicode="&#xca;" horiz-adv-x="650" 
d="M615 0h-555v700h545v-197h-316v-67h266v-166h-266v-73h326v-197zM105 746l130 174h190l130 -174h-184l-46 52l-48 -52h-172z" />
    <glyph glyph-name="Edieresis" unicode="&#xcb;" horiz-adv-x="650" 
d="M615 0h-555v700h545v-197h-316v-67h266v-166h-266v-73h326v-197zM208 948c30 0 54.833 -9.83301 74.5 -29.5s29.5 -44.5 29.5 -74.5s-10 -55 -30 -75s-45 -30 -75 -30s-54.833 9.83301 -74.5 29.5s-29.5 44.5 -29.5 74.5s10 55 30 75s45 30 75 30zM451 948
c30 0 54.833 -9.83301 74.5 -29.5s29.5 -44.5 29.5 -74.5s-10 -55 -30 -75s-45 -30 -75 -30s-54.833 9.83301 -74.5 29.5s-29.5 44.5 -29.5 74.5s10 55 30 75s45 30 75 30z" />
    <glyph glyph-name="Igrave" unicode="&#xcc;" horiz-adv-x="363" 
d="M65 0v700h233v-700h-233zM210 920l55 -174h-166l-114 174h225z" />
    <glyph glyph-name="Iacute" unicode="&#xcd;" horiz-adv-x="363" 
d="M65 0v700h233v-700h-233zM98 746l55 174h225l-114 -174h-166z" />
    <glyph glyph-name="Icircumflex" unicode="&#xce;" horiz-adv-x="363" 
d="M65 0v700h233v-700h-233zM-44 746l130 174h190l130 -174h-184l-46 52l-48 -52h-172z" />
    <glyph glyph-name="Idieresis" unicode="&#xcf;" horiz-adv-x="363" 
d="M65 0v700h233v-700h-233zM60 948c30 0 54.833 -9.83301 74.5 -29.5s29.5 -44.5 29.5 -74.5s-10 -55 -30 -75s-45 -30 -75 -30s-54.833 9.83301 -74.5 29.5s-29.5 44.5 -29.5 74.5s10 55 30 75s45 30 75 30zM303 948c30 0 54.833 -9.83301 74.5 -29.5
s29.5 -44.5 29.5 -74.5s-10 -55 -30 -75s-45 -30 -75 -30s-54.833 9.83301 -74.5 29.5s-29.5 44.5 -29.5 74.5s10 55 30 75s45 30 75 30z" />
    <glyph glyph-name="Eth" unicode="&#xd0;" horiz-adv-x="801" 
d="M440 295l-110 0.000976562v-98h50c46.667 0 85 14.167 115 42.5s45 65.166 45 110.499c0 45.334 -15 82.167 -45 110.5s-68.333 42.5 -115 42.5h-50v-93h110v-115zM101 0.000976562v295h-71v115h71v290h276c112 0 204.833 -33 278.5 -99s110.5 -149 110.5 -249
c0 -99.333 -38 -182.833 -114 -250.5s-170 -101.5 -282 -101.5h-269z" />
    <glyph glyph-name="Ntilde" unicode="&#xd1;" horiz-adv-x="790" 
d="M507 0l-226 358v-358h-221v700h234l213 -340v340h223v-700h-223zM303 755l-96.0029 12c0 4 0.333008 9.66699 1 17s3.33398 20 8 38c4.66699 18 10.834 34 18.501 48s19.667 26.667 36 38c16.334 11.333 35.167 17 56.5 17c21.334 0 40.167 -4.5 56.5 -13.5
c16.334 -9 30.167 -18 41.5 -27s22 -13.5 32 -13.5c6.66699 0 12.334 3.66699 17.001 11s7.33398 14.666 8.00098 21.999l2 11l96 -12c0 -4 -0.333008 -9.66699 -1 -17s-3.33398 -20 -8.00098 -38s-10.834 -34 -18.501 -48s-19.667 -26.667 -36 -38s-35.166 -17 -56.499 -17
s-40.166 4.5 -56.499 13.5s-30.166 18 -41.499 27s-22 13.5 -32 13.5c-6.66699 0 -12.334 -3.66699 -17.001 -11c-4.66699 -7.33887 -7.66699 -14.6719 -9 -21.999z" />
    <glyph glyph-name="Ograve" unicode="&#xd2;" horiz-adv-x="815" 
d="M411 710c106 0 194.001 -34.1689 264.001 -102.502s105 -153.166 105 -254.499s-36.167 -187.166 -108.5 -257.499s-161.5 -105.5 -267.5 -105.5c-106.667 0 -194.834 34 -264.501 102s-104.5 152.667 -104.5 254c0 102 36 188.167 108 258.5s161.333 105.5 268 105.5z
M262.001 349.998c0 -42 14 -77.5 42 -106.5s62.333 -43.5 103 -43.5s75 14.5 103 43.5s42 64.5 42 106.5s-14 77.5 -42 106.5s-62.333 43.5 -103 43.5s-75 -14.5 -103 -43.5s-42 -64.5 -42 -106.5zM436.001 919.998l55 -174h-166l-114 174h225z" />
    <glyph glyph-name="Oacute" unicode="&#xd3;" horiz-adv-x="815" 
d="M411 710c106 0 194.001 -34.1689 264.001 -102.502s105 -153.166 105 -254.499s-36.167 -187.166 -108.5 -257.499s-161.5 -105.5 -267.5 -105.5c-106.667 0 -194.834 34 -264.501 102s-104.5 152.667 -104.5 254c0 102 36 188.167 108 258.5s161.333 105.5 268 105.5z
M262.001 349.998c0 -42 14 -77.5 42 -106.5s62.333 -43.5 103 -43.5s75 14.5 103 43.5s42 64.5 42 106.5s-14 77.5 -42 106.5s-62.333 43.5 -103 43.5s-75 -14.5 -103 -43.5s-42 -64.5 -42 -106.5zM321.001 745.998l55 174h225l-114 -174h-166z" />
    <glyph glyph-name="Ocircumflex" unicode="&#xd4;" horiz-adv-x="815" 
d="M411 710c106 0 194.001 -34.1689 264.001 -102.502s105 -153.166 105 -254.499s-36.167 -187.166 -108.5 -257.499s-161.5 -105.5 -267.5 -105.5c-106.667 0 -194.834 34 -264.501 102s-104.5 152.667 -104.5 254c0 102 36 188.167 108 258.5s161.333 105.5 268 105.5z
M262.001 349.998c0 -42 14 -77.5 42 -106.5s62.333 -43.5 103 -43.5s75 14.5 103 43.5s42 64.5 42 106.5s-14 77.5 -42 106.5s-62.333 43.5 -103 43.5s-75 -14.5 -103 -43.5s-42 -64.5 -42 -106.5zM181.001 745.998l130 174h190l130 -174h-184l-46 52l-48 -52h-172z" />
    <glyph glyph-name="Otilde" unicode="&#xd5;" horiz-adv-x="815" 
d="M411 710c106 0 194.001 -34.1689 264.001 -102.502s105 -153.166 105 -254.499s-36.167 -187.166 -108.5 -257.499s-161.5 -105.5 -267.5 -105.5c-106.667 0 -194.834 34 -264.501 102s-104.5 152.667 -104.5 254c0 102 36 188.167 108 258.5s161.333 105.5 268 105.5z
M262.001 349.998c0 -42 14 -77.5 42 -106.5s62.333 -43.5 103 -43.5s75 14.5 103 43.5s42 64.5 42 106.5s-14 77.5 -42 106.5s-62.333 43.5 -103 43.5s-75 -14.5 -103 -43.5s-42 -64.5 -42 -106.5zM317.001 754.998l-96.0049 12c0 4 0.333008 9.66699 1 17
s3.33398 20 8.00098 38c4.66797 18 10.835 34 18.501 48c7.66699 14 19.667 26.667 36 38c16.334 11.333 35.167 17 56.5 17c21.334 0 40.167 -4.5 56.5 -13.5c16.335 -9 30.168 -18 41.5 -27c11.333 -9 22 -13.5 32 -13.5c6.66699 0 12.334 3.66699 17.001 11
s7.33398 14.666 8.00098 21.999l2 11l96 -12c0 -4 -0.333008 -9.66699 -1 -17s-3.33398 -20 -8.00098 -38s-10.834 -34 -18.501 -48s-19.667 -26.667 -36 -38s-35.166 -17 -56.499 -17s-40.166 4.5 -56.499 13.5s-30.166 18 -41.499 27s-22 13.5 -32 13.5
c-6.66895 0 -12.3359 -3.66699 -17 -11c-4.66699 -7.33887 -7.66699 -14.6719 -9 -21.999z" />
    <glyph glyph-name="Odieresis" unicode="&#xd6;" horiz-adv-x="815" 
d="M411 710c106 0 194.001 -34.1689 264.001 -102.502s105 -153.166 105 -254.499s-36.167 -187.166 -108.5 -257.499s-161.5 -105.5 -267.5 -105.5c-106.667 0 -194.834 34 -264.501 102s-104.5 152.667 -104.5 254c0 102 36 188.167 108 258.5s161.333 105.5 268 105.5z
M262.001 349.998c0 -42 14 -77.5 42 -106.5s62.333 -43.5 103 -43.5s75 14.5 103 43.5s42 64.5 42 106.5s-14 77.5 -42 106.5s-62.333 43.5 -103 43.5s-75 -14.5 -103 -43.5s-42 -64.5 -42 -106.5zM286.001 947.998c30 0 54.833 -9.83301 74.5 -29.5s29.5 -44.5 29.5 -74.5
s-10 -55 -30 -75s-45 -30 -75 -30s-54.833 9.83301 -74.5 29.5s-29.5 44.5 -29.5 74.5s10 55 30 75s45 30 75 30zM529.001 947.998c30 0 54.833 -9.83301 74.5 -29.5s29.5 -44.5 29.5 -74.5s-10 -55 -30 -75s-45 -30 -75 -30s-54.833 9.83301 -74.5 29.5
s-29.5 44.5 -29.5 74.5s10 55 30 75s45 30 75 30z" />
    <glyph glyph-name="multiply" unicode="&#xd7;" 
d="M470 77l-159 156l-154 -156l-119 117l158 153l-158 156l119 119l154 -158l159 158l117 -119l-159 -156l159 -153z" />
    <glyph glyph-name="Oslash" unicode="&#xd8;" horiz-adv-x="815" 
d="M411 710c68 0 130.334 -15.6689 187 -47.002l56 67h137l-108 -131c64.667 -66.667 97 -148.667 97 -246c0 -101.333 -36.167 -187.166 -108.5 -257.499s-161.5 -105.5 -267.5 -105.5c-68.667 0 -131 15 -187 45l-54 -65h-142l109 131
c-63.333 66.667 -95 148.334 -95 245.001c0 102 36 188.167 108 258.5s161.333 105.5 268 105.5zM256.001 349.998c0 -28 6 -53.667 18 -77l185 223c-18 6.66699 -35.333 10 -52 10c-42.667 0 -78.5 -15 -107.5 -45s-43.5 -67 -43.5 -111zM558.001 349.998
c0 25.334 -6 50.667 -18 76l-185 -223c16 -6 33.333 -9 52 -9c42.667 0 78.5 15 107.5 45s43.5 67 43.5 111z" />
    <glyph glyph-name="Ugrave" unicode="&#xd9;" horiz-adv-x="740" 
d="M466 700l224.001 0.000976562v-404c0 -92.667 -29.5 -166.834 -88.5 -222.501s-136.833 -83.5 -233.5 -83.5c-98.667 0 -176.334 26.667 -233.001 80s-85 126.333 -85 219v411h231v-402c0 -30.667 8 -55 24 -73s38.667 -27 68 -27c29.334 0 52.167 9 68.5 27
s24.5 42.333 24.5 73v402zM405.001 920.001l55 -174h-166l-114 174h225z" />
    <glyph glyph-name="Uacute" unicode="&#xda;" horiz-adv-x="740" 
d="M466 700l224.001 0.000976562v-404c0 -92.667 -29.5 -166.834 -88.5 -222.501s-136.833 -83.5 -233.5 -83.5c-98.667 0 -176.334 26.667 -233.001 80s-85 126.333 -85 219v411h231v-402c0 -30.667 8 -55 24 -73s38.667 -27 68 -27c29.334 0 52.167 9 68.5 27
s24.5 42.333 24.5 73v402zM295.001 746.001l55 174h225l-114 -174h-166z" />
    <glyph glyph-name="Ucircumflex" unicode="&#xdb;" horiz-adv-x="740" 
d="M148 746l130 174h190l130 -174h-184l-46 52l-48 -52h-172zM466 700l224.001 0.000976562v-404c0 -92.667 -29.5 -166.834 -88.5 -222.501s-136.833 -83.5 -233.5 -83.5c-98.667 0 -176.334 26.667 -233.001 80s-85 126.333 -85 219v411h231v-402c0 -30.667 8 -55 24 -73
s38.667 -27 68 -27c29.334 0 52.167 9 68.5 27s24.5 42.333 24.5 73v402z" />
    <glyph glyph-name="Udieresis" unicode="&#xdc;" horiz-adv-x="740" 
d="M466 700l224.001 0.000976562v-404c0 -92.667 -29.5 -166.834 -88.5 -222.501s-136.833 -83.5 -233.5 -83.5c-98.667 0 -176.334 26.667 -233.001 80s-85 126.333 -85 219v411h231v-402c0 -30.667 8 -55 24 -73s38.667 -27 68 -27c29.334 0 52.167 9 68.5 27
s24.5 42.333 24.5 73v402zM253.001 948.001c30 0 54.833 -9.83301 74.5 -29.5s29.5 -44.5 29.5 -74.5s-10 -55 -30 -75s-45 -30 -75 -30s-54.833 9.83301 -74.5 29.5s-29.5 44.5 -29.5 74.5s10 55 30 75s45 30 75 30zM496.001 948.001c30 0 54.833 -9.83301 74.5 -29.5
s29.5 -44.5 29.5 -74.5s-10 -55 -30 -75s-45 -30 -75 -30s-54.833 9.83301 -74.5 29.5s-29.5 44.5 -29.5 74.5s10 55 30 75s45 30 75 30z" />
    <glyph glyph-name="Yacute" unicode="&#xdd;" horiz-adv-x="710" 
d="M241 0v240l-251 460h261l110 -241l108 241h251l-253 -460v-240h-226zM280 746l55 174h225l-114 -174h-166z" />
    <glyph glyph-name="Thorn" unicode="&#xde;" horiz-adv-x="690" 
d="M289 415v-126h68c48 0 72 21 72 63c0 19.334 -6.33301 34.667 -19 46s-30.334 17 -53 17h-68zM60 -6l0.000976562 700h229v-94h97c82 0 147.333 -22.5 195.999 -67.5c48.667 -45 73 -104.5 73 -178.5s-25.5 -134.167 -76.5 -180.5s-117.5 -69.5 -199.5 -69.5h-90v-110
h-229z" />
    <glyph glyph-name="germandbls" unicode="&#xdf;" 
d="M255 476l-0.000976562 -476h-215v476c0 70 24.333 126.5 73 169.5s112.334 64.5 191.001 64.5s141.834 -19 189.501 -57s71.5 -87.333 71.5 -148c0 -52.667 -18 -95.667 -54 -129c62.667 -40 94 -95.333 94 -166c0 -64 -24.667 -116.667 -74 -158s-112 -62 -188 -62
c-12 0 -23.333 0.5 -34 1.5c-10.668 1 -18.335 1.83301 -23.001 2.5l-6 2l15 176c7.33301 -1.33301 16.333 -2 27 -2c21.333 0 38 5.33301 50 16s18 24.667 18 42s-5.83301 31 -17.5 41s-28.167 15 -49.5 15h-28v154h9c14 0 25.167 4.5 33.5 13.5s12.5 20.167 12.5 33.5
s-4.16699 24.5 -12.5 33.5s-19.5 13.5 -33.5 13.5c-32.667 0 -49 -18.667 -49 -56z" />
    <glyph glyph-name="agrave" unicode="&#xe0;" horiz-adv-x="580" 
d="M220 311c39.334 0 72.6631 -5.66699 99.9961 -17v2c0 16 -8 29.5 -24 40.5s-36 16.5 -60 16.5c-18 0 -36 -2.33301 -54 -7c-18 -4.66895 -31.333 -9.33594 -40 -14l-14 -7l-83 137c6.66699 5.33301 16.334 11.833 29.001 19.5s39.834 18 81.501 31
s84.834 19.5 129.501 19.5c76 0 136.667 -21.5 182 -64.5s68 -101.5 68 -175.5v-292h-169l-13 32c-39.333 -28 -86.666 -42 -141.999 -42c-60.667 0 -108.5 14.167 -143.5 42.5s-52.5 66.5 -52.5 114.5s19 87.333 57 118s87.333 46 148 46zM229.996 156
c0 -11.334 4.33301 -20.665 13 -27.998s20 -11 34 -11s25.5 3.66699 34.5 11s13.5 16.666 13.5 27.999s-4.5 20.666 -13.5 27.999s-20.5 11 -34.5 11s-25.333 -3.66699 -34 -11c-8.66699 -7.33398 -13 -16.667 -13 -28zM335.996 740.002l55 -174h-166l-114 174h225z" />
    <glyph glyph-name="aacute" unicode="&#xe1;" horiz-adv-x="580" 
d="M220 311c39.334 0 72.6631 -5.66699 99.9961 -17v2c0 16 -8 29.5 -24 40.5s-36 16.5 -60 16.5c-18 0 -36 -2.33301 -54 -7c-18 -4.66895 -31.333 -9.33594 -40 -14l-14 -7l-83 137c6.66699 5.33301 16.334 11.833 29.001 19.5s39.834 18 81.501 31
s84.834 19.5 129.501 19.5c76 0 136.667 -21.5 182 -64.5s68 -101.5 68 -175.5v-292h-169l-13 32c-39.333 -28 -86.666 -42 -141.999 -42c-60.667 0 -108.5 14.167 -143.5 42.5s-52.5 66.5 -52.5 114.5s19 87.333 57 118s87.333 46 148 46zM229.996 156
c0 -11.334 4.33301 -20.665 13 -27.998s20 -11 34 -11s25.5 3.66699 34.5 11s13.5 16.666 13.5 27.999s-4.5 20.666 -13.5 27.999s-20.5 11 -34.5 11s-25.333 -3.66699 -34 -11c-8.66699 -7.33398 -13 -16.667 -13 -28zM201.996 566.002l55 174h225l-114 -174h-166z" />
    <glyph glyph-name="acircumflex" unicode="&#xe2;" horiz-adv-x="580" 
d="M220 311c39.334 0 72.6631 -5.66699 99.9961 -17v2c0 16 -8 29.5 -24 40.5s-36 16.5 -60 16.5c-18 0 -36 -2.33301 -54 -7c-18 -4.66895 -31.333 -9.33594 -40 -14l-14 -7l-83 137c6.66699 5.33301 16.334 11.833 29.001 19.5s39.834 18 81.501 31
s84.834 19.5 129.501 19.5c76 0 136.667 -21.5 182 -64.5s68 -101.5 68 -175.5v-292h-169l-13 32c-39.333 -28 -86.666 -42 -141.999 -42c-60.667 0 -108.5 14.167 -143.5 42.5s-52.5 66.5 -52.5 114.5s19 87.333 57 118s87.333 46 148 46zM229.996 156
c0 -11.334 4.33301 -20.665 13 -27.998s20 -11 34 -11s25.5 3.66699 34.5 11s13.5 16.666 13.5 27.999s-4.5 20.666 -13.5 27.999s-20.5 11 -34.5 11s-25.333 -3.66699 -34 -11c-8.66699 -7.33398 -13 -16.667 -13 -28zM66.9961 566.002l130 174h190l130 -174h-184l-46 52
l-48 -52h-172z" />
    <glyph glyph-name="atilde" unicode="&#xe3;" horiz-adv-x="580" 
d="M220 311c39.334 0 72.6631 -5.66699 99.9961 -17v2c0 16 -8 29.5 -24 40.5s-36 16.5 -60 16.5c-18 0 -36 -2.33301 -54 -7c-18 -4.66895 -31.333 -9.33594 -40 -14l-14 -7l-83 137c6.66699 5.33301 16.334 11.833 29.001 19.5s39.834 18 81.501 31
s84.834 19.5 129.501 19.5c76 0 136.667 -21.5 182 -64.5s68 -101.5 68 -175.5v-292h-169l-13 32c-39.333 -28 -86.666 -42 -141.999 -42c-60.667 0 -108.5 14.167 -143.5 42.5s-52.5 66.5 -52.5 114.5s19 87.333 57 118s87.333 46 148 46zM229.996 156
c0 -11.334 4.33301 -20.665 13 -27.998s20 -11 34 -11s25.5 3.66699 34.5 11s13.5 16.666 13.5 27.999s-4.5 20.666 -13.5 27.999s-20.5 11 -34.5 11s-25.333 -3.66699 -34 -11c-8.66699 -7.33398 -13 -16.667 -13 -28zM205.996 575.002l-96.002 12.001
c0 4 0.333008 9.66699 1 17s3.33398 20 8.00098 38s10.834 34 18.501 48s19.667 26.667 36 38s35.166 17 56.499 17s40.166 -4.5 56.499 -13.5c16.334 -9 30.167 -18 41.5 -27s22 -13.5 32 -13.5c6.66699 0 12.334 3.66699 17.001 11s7.66699 14.666 9 21.999l1 11l96 -12
c0 -4 -0.333008 -9.66699 -1 -17s-3.33398 -20 -8 -38c-4.66992 -18 -10.8369 -34 -18.5 -48c-7.66699 -14 -19.667 -26.667 -36 -38s-35.166 -17 -56.499 -17s-40.166 4.5 -56.499 13.5s-30.166 18 -41.499 27s-22 13.5 -32 13.5c-6.66699 0 -12.334 -3.66699 -17.001 -11
c-4.66699 -7.33789 -7.33398 -14.6709 -8.00098 -22z" />
    <glyph glyph-name="adieresis" unicode="&#xe4;" horiz-adv-x="580" 
d="M220 311c39.334 0 72.6631 -5.66699 99.9961 -17v2c0 16 -8 29.5 -24 40.5s-36 16.5 -60 16.5c-18 0 -36 -2.33301 -54 -7c-18 -4.66895 -31.333 -9.33594 -40 -14l-14 -7l-83 137c6.66699 5.33301 16.334 11.833 29.001 19.5s39.834 18 81.501 31
s84.834 19.5 129.501 19.5c76 0 136.667 -21.5 182 -64.5s68 -101.5 68 -175.5v-292h-169l-13 32c-39.333 -28 -86.666 -42 -141.999 -42c-60.667 0 -108.5 14.167 -143.5 42.5s-52.5 66.5 -52.5 114.5s19 87.333 57 118s87.333 46 148 46zM229.996 156
c0 -11.334 4.33301 -20.665 13 -27.998s20 -11 34 -11s25.5 3.66699 34.5 11s13.5 16.666 13.5 27.999s-4.5 20.666 -13.5 27.999s-20.5 11 -34.5 11s-25.333 -3.66699 -34 -11c-8.66699 -7.33398 -13 -16.667 -13 -28zM174.996 768.002c30 0 54.833 -9.83301 74.5 -29.5
s29.5 -44.5 29.5 -74.5s-10 -55 -30 -75s-45 -30 -75 -30s-54.833 9.83301 -74.5 29.5s-29.5 44.5 -29.5 74.5s10 55 30 75s45 30 75 30zM417.996 768.002c30 0 54.833 -9.83301 74.5 -29.5s29.5 -44.5 29.5 -74.5s-10 -55 -30 -75s-45 -30 -75 -30
s-54.833 9.83301 -74.5 29.5s-29.5 44.5 -29.5 74.5s10 55 30 75s45 30 75 30z" />
    <glyph glyph-name="aring" unicode="&#xe5;" horiz-adv-x="580" 
d="M220 311c39.334 0 72.6631 -5.66699 99.9961 -17v2c0 16 -8 29.5 -24 40.5s-36 16.5 -60 16.5c-18 0 -36 -2.33301 -54 -7c-18 -4.66895 -31.333 -9.33594 -40 -14l-14 -7l-83 137c6.66699 5.33301 16.334 11.833 29.001 19.5s39.834 18 81.501 31
s84.834 19.5 129.501 19.5c76 0 136.667 -21.5 182 -64.5s68 -101.5 68 -175.5v-292h-169l-13 32c-39.333 -28 -86.666 -42 -141.999 -42c-60.667 0 -108.5 14.167 -143.5 42.5s-52.5 66.5 -52.5 114.5s19 87.333 57 118s87.333 46 148 46zM229.996 156
c0 -11.334 4.33301 -20.665 13 -27.998s20 -11 34 -11s25.5 3.66699 34.5 11s13.5 16.666 13.5 27.999s-4.5 20.666 -13.5 27.999s-20.5 11 -34.5 11s-25.333 -3.66699 -34 -11c-8.66699 -7.33398 -13 -16.667 -13 -28zM296.996 767.002
c33.333 0 60.5 -9.99902 81.5 -29.999s31.5 -45.333 31.5 -76c0 -31.3359 -10.5 -57.1689 -31.5 -77.5c-21 -20.333 -48.167 -30.5 -81.5 -30.5s-60.333 10.167 -81 30.5s-31 46.166 -31 77.499c0 30.667 10.333 56 31 76s47.667 30 81 30zM296.996 624.003
c11.333 0 20.333 3.33301 27 10s10 15 10 25s-3.33301 18.5 -10 25.5s-15.667 10.5 -27 10.5s-20.166 -3.5 -26.499 -10.5s-9.5 -15.5 -9.5 -25.5s3.16699 -18.333 9.5 -25c6.33398 -6.66699 15.167 -10 26.499 -10z" />
    <glyph glyph-name="ae" unicode="&#xe6;" horiz-adv-x="903" 
d="M220 311c39.334 0 72.668 -5.66504 100.001 -16.998v1c0 16.667 -7.83301 30.5 -23.5 41.5s-35.834 16.5 -60.5 16.5c-18 0 -36 -2.33301 -54 -7c-18 -4.66895 -31.333 -9.33594 -40 -14l-14 -7l-83 137c6.66699 5.33301 16.334 11.833 29.001 19.5s40.167 18 82.5 31
s86.166 19.5 131.499 19.5c60 0 111.333 -17 154 -51c46.667 34 103 51 169 51c74.667 0 137.834 -23.333 189.5 -70c51.667 -46.667 77.5 -102.334 77.5 -167.001c0 -14.667 -1.16699 -28.334 -3.5 -41c-2.33301 -12.667 -4.5 -22 -6.5 -28l-4 -8h-329
c6 -13.333 17.167 -24.833 33.5 -34.5s35.5 -14.5 57.5 -14.5c18 0 35 3 51 9s27.667 12 35 18l10 9l121 -127c-2 -2.66699 -4.83301 -5.83398 -8.5 -9.50098s-12.5 -10.667 -26.5 -21s-29.333 -19.333 -46 -27s-38.834 -14.667 -66.501 -21s-57.167 -9.5 -88.5 -9.5
c-78 0 -138 20 -180 60c-50.667 -40 -112.334 -60 -185 -60c-70.667 0 -126.167 14.5 -166.5 43.5s-60.5 67.5 -60.5 115.5s19 87 57 117s87.333 45 148 45zM230.001 156.002c0 -11.334 4.33301 -20.665 13 -27.998s20 -11 34 -11s25.5 3.66699 34.5 11
s13.5 16.666 13.5 27.999s-4.5 20.666 -13.5 27.999s-20.5 11 -34.5 11s-25.333 -3.66699 -34 -11c-8.66699 -7.33398 -13 -16.667 -13 -28zM606.001 384.004c-18.667 0 -34.167 -5.83398 -46.5 -17.501c-12.333 -11.668 -19.5 -25.835 -21.5 -42.5h135
c-1.33887 16.667 -8.17188 30.834 -20.5 42.501c-12.333 11.667 -27.833 17.5 -46.5 17.5z" />
    <glyph glyph-name="ccedilla" unicode="&#xe7;" horiz-adv-x="526" 
d="M381 222l145.003 -135.999c-4 -4.66699 -9.5 -10.667 -16.5 -18s-22.833 -18.833 -47.5 -34.5s-50.667 -27.167 -78 -34.5c4 -12 6 -25 6 -39c0 -46.667 -17.5 -84.167 -52.5 -112.5s-75.5 -42.5 -121.5 -42.5c-18.667 0 -36.834 2.16699 -54.501 6.5
s-30.834 8.5 -39.501 12.5l-12 6l40 120c10 -6.66699 24 -10 42 -10c14 0 25.833 3.5 35.5 10.5s14.5 17.5 14.5 31.5c0 6.66699 -1 12 -3 16c-64.667 14 -116.5 44.667 -155.5 92s-58.5 103.333 -58.5 168c0 76.667 28.167 141.5 84.5 194.5s126.166 79.5 209.499 79.5
c41.334 0 79.167 -7.33301 113.5 -22c34.334 -14.668 58.167 -29.335 71.5 -44.001l21 -21l-146 -142c-13.333 21.333 -35 32 -65 32c-21.333 0 -39 -7 -53 -21s-21 -31.667 -21 -53s7 -39 21 -53s31.667 -21 53 -21c14.667 0 27.5 2.83301 38.5 8.5s18.5 11.5 22.5 17.5z
" />
    <glyph glyph-name="egrave" unicode="&#xe8;" horiz-adv-x="608" 
d="M569 218l-329.001 0.00292969c6 -13.333 17.167 -24.833 33.5 -34.5s35.5 -14.5 57.5 -14.5c18 0 35 3 51 9s27.333 12 34 18l11 9l121 -127c-2 -2.66699 -4.83301 -5.83398 -8.5 -9.50098s-12.5 -10.667 -26.5 -21s-29.333 -19.333 -46 -27
c-16.668 -7.66699 -38.835 -14.667 -66.501 -21c-27.667 -6.33301 -57.167 -9.5 -88.5 -9.5c-83.333 0 -152 25.667 -206 77s-81 115.666 -81 192.999c0 76.667 27.833 141.167 83.5 193.5s124.834 78.5 207.501 78.5c74.667 0 137.834 -23.333 189.501 -70
s77.5 -102.334 77.5 -167.001c0 -14.667 -1.16699 -28.334 -3.5 -41c-2.33301 -12.667 -4.83301 -22 -7.5 -28zM310.999 384.003c-18.667 0 -34.168 -5.83398 -46.501 -17.501c-12.333 -11.668 -19.5 -25.835 -21.5 -42.5h135
c-1.33301 16.667 -8.16602 30.834 -20.499 42.501s-27.833 17.5 -46.5 17.5zM344.998 740.002l55 -174h-166l-114 174h225z" />
    <glyph glyph-name="eacute" unicode="&#xe9;" horiz-adv-x="608" 
d="M569 218l-329.001 0.00292969c6 -13.333 17.167 -24.833 33.5 -34.5s35.5 -14.5 57.5 -14.5c18 0 35 3 51 9s27.333 12 34 18l11 9l121 -127c-2 -2.66699 -4.83301 -5.83398 -8.5 -9.50098s-12.5 -10.667 -26.5 -21s-29.333 -19.333 -46 -27
c-16.668 -7.66699 -38.835 -14.667 -66.501 -21c-27.667 -6.33301 -57.167 -9.5 -88.5 -9.5c-83.333 0 -152 25.667 -206 77s-81 115.666 -81 192.999c0 76.667 27.833 141.167 83.5 193.5s124.834 78.5 207.501 78.5c74.667 0 137.834 -23.333 189.501 -70
s77.5 -102.334 77.5 -167.001c0 -14.667 -1.16699 -28.334 -3.5 -41c-2.33301 -12.667 -4.83301 -22 -7.5 -28zM310.999 384.003c-18.667 0 -34.168 -5.83398 -46.501 -17.501c-12.333 -11.668 -19.5 -25.835 -21.5 -42.5h135
c-1.33301 16.667 -8.16602 30.834 -20.499 42.501s-27.833 17.5 -46.5 17.5zM249.998 566.002l55 174h225l-114 -174h-166z" />
    <glyph glyph-name="ecircumflex" unicode="&#xea;" horiz-adv-x="608" 
d="M569 218l-329.001 0.00292969c6 -13.333 17.167 -24.833 33.5 -34.5s35.5 -14.5 57.5 -14.5c18 0 35 3 51 9s27.333 12 34 18l11 9l121 -127c-2 -2.66699 -4.83301 -5.83398 -8.5 -9.50098s-12.5 -10.667 -26.5 -21s-29.333 -19.333 -46 -27
c-16.668 -7.66699 -38.835 -14.667 -66.501 -21c-27.667 -6.33301 -57.167 -9.5 -88.5 -9.5c-83.333 0 -152 25.667 -206 77s-81 115.666 -81 192.999c0 76.667 27.833 141.167 83.5 193.5s124.834 78.5 207.501 78.5c74.667 0 137.834 -23.333 189.501 -70
s77.5 -102.334 77.5 -167.001c0 -14.667 -1.16699 -28.334 -3.5 -41c-2.33301 -12.667 -4.83301 -22 -7.5 -28zM310.999 384.003c-18.667 0 -34.168 -5.83398 -46.501 -17.501c-12.333 -11.668 -19.5 -25.835 -21.5 -42.5h135
c-1.33301 16.667 -8.16602 30.834 -20.499 42.501s-27.833 17.5 -46.5 17.5zM87.998 566.002l130 174h190l130 -174h-184l-46 52l-48 -52h-172z" />
    <glyph glyph-name="edieresis" unicode="&#xeb;" horiz-adv-x="608" 
d="M569 218l-329.001 0.00292969c6 -13.333 17.167 -24.833 33.5 -34.5s35.5 -14.5 57.5 -14.5c18 0 35 3 51 9s27.333 12 34 18l11 9l121 -127c-2 -2.66699 -4.83301 -5.83398 -8.5 -9.50098s-12.5 -10.667 -26.5 -21s-29.333 -19.333 -46 -27
c-16.668 -7.66699 -38.835 -14.667 -66.501 -21c-27.667 -6.33301 -57.167 -9.5 -88.5 -9.5c-83.333 0 -152 25.667 -206 77s-81 115.666 -81 192.999c0 76.667 27.833 141.167 83.5 193.5s124.834 78.5 207.501 78.5c74.667 0 137.834 -23.333 189.501 -70
s77.5 -102.334 77.5 -167.001c0 -14.667 -1.16699 -28.334 -3.5 -41c-2.33301 -12.667 -4.83301 -22 -7.5 -28zM310.999 384.003c-18.667 0 -34.168 -5.83398 -46.501 -17.501c-12.333 -11.668 -19.5 -25.835 -21.5 -42.5h135
c-1.33301 16.667 -8.16602 30.834 -20.499 42.501s-27.833 17.5 -46.5 17.5zM192.998 768.002c30 0 54.833 -9.83301 74.5 -29.5s29.5 -44.5 29.5 -74.5s-10 -55 -30 -75s-45 -30 -75 -30s-54.833 9.83301 -74.5 29.5s-29.5 44.5 -29.5 74.5s10 55 30 75s45 30 75 30z
M435.998 768.002c30 0 54.833 -9.83301 74.5 -29.5s29.5 -44.5 29.5 -74.5s-10 -55 -30 -75s-45 -30 -75 -30s-54.833 9.83301 -74.5 29.5s-29.5 44.5 -29.5 74.5s10 55 30 75s45 30 75 30z" />
    <glyph glyph-name="igrave" unicode="&#xec;" horiz-adv-x="307" 
d="M185 740l55 -174h-166l-114 174h225zM45 0v522h217v-522h-217z" />
    <glyph glyph-name="iacute" unicode="&#xed;" horiz-adv-x="307" 
d="M67 566l55 174h225l-114 -174h-166zM45 0v522h217v-522h-217z" />
    <glyph glyph-name="icircumflex" unicode="&#xee;" horiz-adv-x="307" 
d="M45 0v522h217v-522h-217zM-71 566l130 174h190l130 -174h-184l-46 52l-48 -52h-172z" />
    <glyph glyph-name="idieresis" unicode="&#xef;" horiz-adv-x="307" 
d="M33 768c30 0 54.833 -9.83301 74.5 -29.5s29.5 -44.5 29.5 -74.5s-10 -55 -30 -75s-45 -30 -75 -30s-54.833 9.83301 -74.5 29.5s-29.5 44.5 -29.5 74.5s10 55 30 75s45 30 75 30zM276 768c30 0 54.833 -9.83301 74.5 -29.5s29.5 -44.5 29.5 -74.5s-10 -55 -30 -75
s-45 -30 -75 -30s-54.833 9.83301 -74.5 29.5s-29.5 44.5 -29.5 74.5s10 55 30 75s45 30 75 30zM45 0v522h217v-522h-217z" />
    <glyph glyph-name="eth" unicode="&#xf0;" horiz-adv-x="631" 
d="M269 501c9.33301 0 17.332 -1.33203 23.999 -3.99902l-39 48l-140 -31v101l72 19l-52 66h240l13 -24l179 39v-101l-113 -25l63 -88c60 -82.667 90 -163.334 90 -242.001c0 -76.667 -29.667 -140.667 -89 -192s-127.666 -77 -204.999 -77c-82 0 -150.333 24.167 -205 72.5
s-82 114.5 -82 198.5c0 68 24.667 125 74 171s106 69 170 69zM238.999 261.001c0 -22 7.16699 -40.167 21.5 -54.5s32.5 -21.5 54.5 -21.5s40.333 7.16699 55 21.5s22 32.5 22 54.5s-7.33301 40.333 -22 55s-33 22 -55 22s-40.167 -7.33301 -54.5 -22s-21.5 -33 -21.5 -55z
" />
    <glyph glyph-name="ntilde" unicode="&#xf1;" horiz-adv-x="615" 
d="M255 275v-275.001h-215v522h193l7 -59c37.333 46 87 69 149 69c56 0 101.833 -17.5 137.5 -52.5s53.5 -81.5 53.5 -139.5v-340h-215v275c0 40 -17.667 60 -53 60c-18 0 -32 -5.16699 -42 -15.5s-15 -25.166 -15 -44.499zM216 574.999l-96.001 12.001
c0 4 0.333008 9.66699 1 17s3.33398 20 8.00098 38s10.834 34 18.501 48s19.667 26.667 36 38s35.166 17 56.499 17c21.334 0 40.167 -4.5 56.5 -13.5s30.166 -18 41.499 -27s22 -13.5 32 -13.5c6.66699 0 12.334 3.66699 17.001 11s7.66699 14.666 9 21.999l1 11l96 -12
c0 -4 -0.333008 -9.66699 -1 -17c-0.669922 -7.33301 -3.33691 -20 -8 -38c-4.66895 -18 -10.8359 -34 -18.501 -48c-7.66699 -14 -19.667 -26.667 -36 -38s-35.166 -17 -56.499 -17s-40.166 4.5 -56.499 13.5s-30.166 18 -41.499 27s-22 13.5 -32 13.5
c-6.66699 0 -12.334 -3.66699 -17.001 -11c-4.66699 -7.33789 -7.33398 -14.6709 -8.00098 -22z" />
    <glyph glyph-name="ograve" unicode="&#xf2;" horiz-adv-x="631" 
d="M319 532c83.333 0 152 -25.333 206 -76s81 -114.334 81 -191c0 -76.667 -28.167 -141.667 -84.5 -195s-126.166 -80 -209.499 -80s-152 25.5 -206 76.5s-81 114.833 -81 191.5s28.167 141.5 84.5 194.5s126.166 79.5 209.499 79.5zM239 261
c0 -22 7.16699 -40.167 21.5 -54.5s32.5 -21.5 54.5 -21.5s40.333 7.16699 55 21.5s22 32.5 22 54.5s-7.33301 40.333 -22 55s-33 22 -55 22s-40.167 -7.33301 -54.5 -22s-21.5 -33 -21.5 -55zM345 740l55 -174h-166l-114 174h225z" />
    <glyph glyph-name="oacute" unicode="&#xf3;" horiz-adv-x="631" 
d="M319 532c83.333 0 152 -25.333 206 -76s81 -114.334 81 -191c0 -76.667 -28.167 -141.667 -84.5 -195s-126.166 -80 -209.499 -80s-152 25.5 -206 76.5s-81 114.833 -81 191.5s28.167 141.5 84.5 194.5s126.166 79.5 209.499 79.5zM239 261
c0 -22 7.16699 -40.167 21.5 -54.5s32.5 -21.5 54.5 -21.5s40.333 7.16699 55 21.5s22 32.5 22 54.5s-7.33301 40.333 -22 55s-33 22 -55 22s-40.167 -7.33301 -54.5 -22s-21.5 -33 -21.5 -55zM230 566l55 174h225l-114 -174h-166z" />
    <glyph glyph-name="ocircumflex" unicode="&#xf4;" horiz-adv-x="631" 
d="M319 532c83.333 0 152 -25.333 206 -76s81 -114.334 81 -191c0 -76.667 -28.167 -141.667 -84.5 -195s-126.166 -80 -209.499 -80s-152 25.5 -206 76.5s-81 114.833 -81 191.5s28.167 141.5 84.5 194.5s126.166 79.5 209.499 79.5zM239 261
c0 -22 7.16699 -40.167 21.5 -54.5s32.5 -21.5 54.5 -21.5s40.333 7.16699 55 21.5s22 32.5 22 54.5s-7.33301 40.333 -22 55s-33 22 -55 22s-40.167 -7.33301 -54.5 -22s-21.5 -33 -21.5 -55zM93 566l130 174h190l130 -174h-184l-46 52l-48 -52h-172z" />
    <glyph glyph-name="otilde" unicode="&#xf5;" horiz-adv-x="631" 
d="M319 532c83.333 0 152 -25.333 206 -76s81 -114.334 81 -191c0 -76.667 -28.167 -141.667 -84.5 -195s-126.166 -80 -209.499 -80s-152 25.5 -206 76.5s-81 114.833 -81 191.5s28.167 141.5 84.5 194.5s126.166 79.5 209.499 79.5zM239 261
c0 -22 7.16699 -40.167 21.5 -54.5s32.5 -21.5 54.5 -21.5s40.333 7.16699 55 21.5s22 32.5 22 54.5s-7.33301 40.333 -22 55s-33 22 -55 22s-40.167 -7.33301 -54.5 -22s-21.5 -33 -21.5 -55zM225 575l-96.0029 12.001c0 4 0.333008 9.66699 1 17s3.33398 20 8 38
c4.66699 18 10.834 34 18.5 48c7.66699 14 19.667 26.667 36 38s35.166 17 56.499 17c21.334 0 40.167 -4.5 56.5 -13.5c16.334 -9 30.167 -18 41.5 -27s22 -13.5 32 -13.5c6.66699 0 12.334 3.66699 17.001 11s7.33398 14.666 8.00098 21.999l2 11l96 -12
c0 -4 -0.333008 -9.66699 -1 -17c-0.673828 -7.33301 -3.34082 -20 -8 -38c-4.66992 -18 -10.8369 -34 -18.5 -48c-7.66699 -14 -19.667 -26.667 -36 -38s-35.166 -17 -56.499 -17s-40.166 4.5 -56.499 13.5s-30.166 18 -41.499 27s-22 13.5 -32 13.5
c-6.66699 0 -12.334 -3.66699 -17.001 -11c-4.66699 -7.33789 -7.66699 -14.6709 -9 -22z" />
    <glyph glyph-name="odieresis" unicode="&#xf6;" horiz-adv-x="631" 
d="M319 532c83.333 0 152 -25.333 206 -76s81 -114.334 81 -191c0 -76.667 -28.167 -141.667 -84.5 -195s-126.166 -80 -209.499 -80s-152 25.5 -206 76.5s-81 114.833 -81 191.5s28.167 141.5 84.5 194.5s126.166 79.5 209.499 79.5zM239 261
c0 -22 7.16699 -40.167 21.5 -54.5s32.5 -21.5 54.5 -21.5s40.333 7.16699 55 21.5s22 32.5 22 54.5s-7.33301 40.333 -22 55s-33 22 -55 22s-40.167 -7.33301 -54.5 -22s-21.5 -33 -21.5 -55zM195 768c30 0 54.833 -9.83301 74.5 -29.5s29.5 -44.5 29.5 -74.5
s-10 -55 -30 -75s-45 -30 -75 -30s-54.833 9.83301 -74.5 29.5s-29.5 44.5 -29.5 74.5s10 55 30 75s45 30 75 30zM438 768c30 0 54.833 -9.83301 74.5 -29.5s29.5 -44.5 29.5 -74.5s-10 -55 -30 -75s-45 -30 -75 -30s-54.833 9.83301 -74.5 29.5s-29.5 44.5 -29.5 74.5
s10 55 30 75s45 30 75 30z" />
    <glyph glyph-name="divide" unicode="&#xf7;" 
d="M311 691c32 0 59.167 -11.167 81.5 -33.5s33.5 -49.5 33.5 -81.5s-11.167 -59.167 -33.5 -81.5s-49.5 -33.5 -81.5 -33.5s-59.167 11.167 -81.5 33.5s-33.5 49.5 -33.5 81.5s11.167 59.167 33.5 81.5s49.5 33.5 81.5 33.5zM575 262h-525v182h525v-182zM311 245
c32 0 59.167 -11.167 81.5 -33.5s33.5 -49.5 33.5 -81.5s-11.167 -59.167 -33.5 -81.5s-49.5 -33.5 -81.5 -33.5s-59.167 11.167 -81.5 33.5s-33.5 49.5 -33.5 81.5s11.167 59.167 33.5 81.5s49.5 33.5 81.5 33.5z" />
    <glyph glyph-name="oslash" unicode="&#xf8;" horiz-adv-x="631" 
d="M319 532c43.333 0 84.334 -8.00098 123.001 -24.001l36 47h123l-75 -100c53.333 -50 80 -113.333 80 -190s-28.167 -141.667 -84.5 -195s-126.166 -80 -209.499 -80c-40.667 0 -81.334 7.66699 -122.001 23l-32 -43h-128l74 97c-52.667 50.667 -79 114.334 -79 191.001
s28.167 141.5 84.5 194.5s126.166 79.5 209.499 79.5zM210.001 260.999c0 -16.667 2.99902 -31.333 8.99902 -44l112 147c-3.33301 0.666992 -8.66602 1 -15.999 1c-30 0 -55 -9.83301 -75 -29.5s-30 -44.5 -30 -74.5zM420 261c0 15.334 -3 29.668 -9 43l-110 -146h14
c30 0 55 9.66699 75 29s30 44 30 74z" />
    <glyph glyph-name="ugrave" unicode="&#xf9;" horiz-adv-x="615" 
d="M360 247v275.001h215v-522h-193l-7 59c-37.333 -46 -87 -69 -149 -69c-56 0 -101.833 17.5 -137.5 52.5s-53.5 81.5 -53.5 139.5v340h215v-275c0 -40 17.667 -60 53 -60c18 0 32 5.16699 42 15.5s15 25.166 15 44.499zM337 740.001l55 -174h-166l-114 174h225z" />
    <glyph glyph-name="uacute" unicode="&#xfa;" horiz-adv-x="615" 
d="M360 247v275.001h215v-522h-193l-7 59c-37.333 -46 -87 -69 -149 -69c-56 0 -101.833 17.5 -137.5 52.5s-53.5 81.5 -53.5 139.5v340h215v-275c0 -40 17.667 -60 53 -60c18 0 32 5.16699 42 15.5s15 25.166 15 44.499zM232 566.001l55 174h225l-114 -174h-166z" />
    <glyph glyph-name="ucircumflex" unicode="&#xfb;" horiz-adv-x="615" 
d="M360 247v275.001h215v-522h-193l-7 59c-37.333 -46 -87 -69 -149 -69c-56 0 -101.833 17.5 -137.5 52.5s-53.5 81.5 -53.5 139.5v340h215v-275c0 -40 17.667 -60 53 -60c18 0 32 5.16699 42 15.5s15 25.166 15 44.499zM82 566.001l130 174h190l130 -174h-184l-46 52
l-48 -52h-172z" />
    <glyph glyph-name="udieresis" unicode="&#xfc;" horiz-adv-x="615" 
d="M360 247v275.001h215v-522h-193l-7 59c-37.333 -46 -87 -69 -149 -69c-56 0 -101.833 17.5 -137.5 52.5s-53.5 81.5 -53.5 139.5v340h215v-275c0 -40 17.667 -60 53 -60c18 0 32 5.16699 42 15.5s15 25.166 15 44.499zM185 768.001c30 0 54.833 -9.83301 74.5 -29.5
s29.5 -44.5 29.5 -74.5s-10 -55 -30 -75s-45 -30 -75 -30s-54.833 9.83301 -74.5 29.5s-29.5 44.5 -29.5 74.5s10 55 30 75s45 30 75 30zM428 768.001c30 0 54.833 -9.83301 74.5 -29.5s29.5 -44.5 29.5 -74.5s-10 -55 -30 -75s-45 -30 -75 -30s-54.833 9.83301 -74.5 29.5
s-29.5 44.5 -29.5 74.5s10 55 30 75s45 30 75 30z" />
    <glyph glyph-name="yacute" unicode="&#xfd;" horiz-adv-x="566" 
d="M171 22l-186.001 499.999h239l67 -270l65 270h225l-193 -527c-20.667 -57.333 -49.167 -99.166 -85.5 -125.499s-83.5 -39.5 -141.5 -39.5c-30.667 0 -60.667 3.83301 -90 11.5s-51 15.167 -65 22.5l-21 12l63 167c30.667 -16.667 63.334 -25 98.001 -25z
M207.999 565.999l55 174h225l-114 -174h-166z" />
    <glyph glyph-name="thorn" unicode="&#xfe;" horiz-adv-x="643" 
d="M40 -160l-0.000976562 860h215v-206c33.334 25.333 71.667 38 115 38c68.667 0 127.167 -25.333 175.5 -76s72.5 -114.334 72.5 -191c0 -78 -24.667 -143.333 -74 -196s-109.666 -79 -180.999 -79c-41.333 0 -77.333 11.333 -108 34v-184h-215zM249.999 261
c0 -22 7.16699 -40.167 21.5 -54.5s32.5 -21.5 54.5 -21.5s40.333 7.16699 55 21.5s22 32.5 22 54.5s-7.33301 40.333 -22 55s-33 22 -55 22s-40.167 -7.33301 -54.5 -22s-21.5 -33 -21.5 -55z" />
    <glyph glyph-name="ydieresis" unicode="&#xff;" horiz-adv-x="566" 
d="M171 22l-186.001 499.999h239l67 -270l65 270h225l-193 -527c-20.667 -57.333 -49.167 -99.166 -85.5 -125.499s-83.5 -39.5 -141.5 -39.5c-30.667 0 -60.667 3.83301 -90 11.5s-51 15.167 -65 22.5l-21 12l63 167c30.667 -16.667 63.334 -25 98.001 -25z
M169.999 767.999c30 0 54.833 -9.83301 74.5 -29.5s29.5 -44.5 29.5 -74.5s-10 -55 -30 -75s-45 -30 -75 -30s-54.833 9.83301 -74.5 29.5s-29.5 44.5 -29.5 74.5s10 55 30 75s45 30 75 30zM412.999 767.999c30 0 54.833 -9.83301 74.5 -29.5s29.5 -44.5 29.5 -74.5
s-10 -55 -30 -75s-45 -30 -75 -30s-54.833 9.83301 -74.5 29.5s-29.5 44.5 -29.5 74.5s10 55 30 75s45 30 75 30z" />
    <glyph glyph-name="Amacron" unicode="&#x100;" horiz-adv-x="740" 
d="M364 439l-53 -172h105zM482 700l268 -700h-252l-29 96h-212l-29 -96h-238l266 700h226zM190 778v120h360v-120h-360z" />
    <glyph glyph-name="amacron" unicode="&#x101;" horiz-adv-x="580" 
d="M220 311c39.334 0 72.6631 -5.66699 99.9961 -17v2c0 16 -8 29.5 -24 40.5s-36 16.5 -60 16.5c-18 0 -36 -2.33301 -54 -7c-18 -4.66895 -31.333 -9.33594 -40 -14l-14 -7l-83 137c6.66699 5.33301 16.334 11.833 29.001 19.5s39.834 18 81.501 31
s84.834 19.5 129.501 19.5c76 0 136.667 -21.5 182 -64.5s68 -101.5 68 -175.5v-292h-169l-13 32c-39.333 -28 -86.666 -42 -141.999 -42c-60.667 0 -108.5 14.167 -143.5 42.5s-52.5 66.5 -52.5 114.5s19 87.333 57 118s87.333 46 148 46zM229.996 156
c0 -11.334 4.33301 -20.665 13 -27.998s20 -11 34 -11s25.5 3.66699 34.5 11s13.5 16.666 13.5 27.999s-4.5 20.666 -13.5 27.999s-20.5 11 -34.5 11s-25.333 -3.66699 -34 -11c-8.66699 -7.33398 -13 -16.667 -13 -28zM115.996 600.002v120h360v-120h-360z" />
    <glyph glyph-name="Abreve" unicode="&#x102;" horiz-adv-x="740" 
d="M364 439l-53 -172h105zM482 700l268 -700h-252l-29 96h-212l-29 -96h-238l266 700h226zM189 920h139v-15c0 -11.333 3.5 -20.833 10.5 -28.5s17.167 -11.5 30.5 -11.5c26.667 0 40 13.333 40 40v15h142v-5c0 -50.667 -16.833 -91.5 -50.5 -122.5
s-77.167 -46.5 -130.5 -46.5s-96.833 15.5 -130.5 46.5s-50.5 71.833 -50.5 122.5v5z" />
    <glyph glyph-name="abreve" unicode="&#x103;" horiz-adv-x="580" 
d="M220 311c39.334 0 72.6631 -5.66699 99.9961 -17v2c0 16 -8 29.5 -24 40.5s-36 16.5 -60 16.5c-18 0 -36 -2.33301 -54 -7c-18 -4.66895 -31.333 -9.33594 -40 -14l-14 -7l-83 137c6.66699 5.33301 16.334 11.833 29.001 19.5s39.834 18 81.501 31
s84.834 19.5 129.501 19.5c76 0 136.667 -21.5 182 -64.5s68 -101.5 68 -175.5v-292h-169l-13 32c-39.333 -28 -86.666 -42 -141.999 -42c-60.667 0 -108.5 14.167 -143.5 42.5s-52.5 66.5 -52.5 114.5s19 87.333 57 118s87.333 46 148 46zM229.996 156
c0 -11.334 4.33301 -20.665 13 -27.998s20 -11 34 -11s25.5 3.66699 34.5 11s13.5 16.666 13.5 27.999s-4.5 20.666 -13.5 27.999s-20.5 11 -34.5 11s-25.333 -3.66699 -34 -11c-8.66699 -7.33398 -13 -16.667 -13 -28zM114.996 740.002h139v-15
c0 -11.333 3.5 -20.833 10.5 -28.5s17.167 -11.5 30.5 -11.5c26.667 0 40 13.333 40 40v15h142v-5c0 -50.667 -16.833 -91.5 -50.5 -122.5s-77.167 -46.5 -130.5 -46.5s-96.833 15.5 -130.5 46.5s-50.5 71.833 -50.5 122.5v5z" />
    <glyph glyph-name="Aogonek" unicode="&#x104;" horiz-adv-x="740" 
d="M482 700l268.001 -699.998h-121c-0.666992 0 -2 -0.666992 -4 -2s-4 -4 -6 -8s-3 -8.66699 -3 -14c0 -8 3.16699 -14.667 9.5 -20s15.166 -8 26.499 -8c6.67676 0 13.3438 0.666992 20 2c6.67676 1.33301 11.3438 2.66602 14 3.99902l5 2l39 -112
c-26 -20.667 -60 -31 -102 -31c-41.333 0 -76.333 12.5 -105 37.5s-43 59.5 -43 103.5c0 23.333 4.66699 42.666 14 57.999l-25 84h-212l-29 -96h-238l266 700h226zM364.001 439.002l-53 -172h105z" />
    <glyph glyph-name="aogonek" unicode="&#x105;" horiz-adv-x="580" 
d="M220 311c39.334 0 72.6631 -5.66504 99.9961 -16.998v2c0 16 -8 29.5 -24 40.5s-36 16.5 -60 16.5c-18 0 -36 -2.33301 -54 -7c-18 -4.66895 -31.333 -9.33594 -40 -14l-14 -7l-83 137c6.66699 5.33301 16.334 11.833 29.001 19.5s39.834 18 81.501 31
s84.834 19.5 129.501 19.5c76 0 136.667 -21.5 182 -64.5s68 -101.5 68 -175.5v-292h-50c-9.33301 -4.66699 -14 -12.667 -14 -24c0 -8 3.16699 -14.667 9.5 -20c6.33496 -5.33301 15.168 -8 26.499 -8c6.6709 0 13.3379 0.666992 20.001 2
c6.66699 1.33301 11.667 2.66602 15 3.99902l4 2l39 -112c-26 -20.667 -60 -31 -102 -31c-41.333 0 -76.333 12.5 -105 37.5s-43 59.5 -43 103.5c0 25.333 7 48.666 21 69.999l-3 8c-39.333 -28 -86.666 -42 -141.999 -42c-60.667 0 -108.5 14.167 -143.5 42.5
s-52.5 66.5 -52.5 114.5s19 87.333 57 118s87.333 46 148 46zM229.996 156.002c0 -11.334 4.33301 -20.665 13 -27.998s20 -11 34 -11s25.5 3.66699 34.5 11s13.5 16.666 13.5 27.999s-4.5 20.666 -13.5 27.999s-20.5 11 -34.5 11s-25.333 -3.66699 -34 -11
c-8.66699 -7.33398 -13 -16.667 -13 -28z" />
    <glyph glyph-name="Cacute" unicode="&#x106;" horiz-adv-x="701" 
d="M35 345c0 102 36.0049 188.332 108.005 258.998c72 70.667 161.333 106 268 106c27.333 0 53.5 -2.16699 78.5 -6.5s46.667 -10 65 -17s35.166 -14.833 50.499 -23.5s28.166 -17.167 38.499 -25.5s19.166 -16 26.499 -23s12.666 -12.5 15.999 -16.5l4 -7l-166 -146
c-2.66699 4 -6.66699 8.83301 -12 14.5s-17.833 13.167 -37.5 22.5s-41.5 14 -65.5 14c-43.333 0 -78.333 -13.667 -105 -41s-40 -62.666 -40 -105.999s13.333 -78.833 40 -106.5s61.667 -41.5 105 -41.5c16 0 31.333 2.16699 46 6.5s26.667 9.66602 36 15.999
s17.5 12.5 24.5 18.5s11.833 11.333 14.5 16l5 6l161 -139c-2 -3.33301 -5.33301 -8.16602 -10 -14.499s-15.5 -17.166 -32.5 -32.499s-35.667 -29 -56 -41s-47.833 -22.833 -82.5 -32.5s-71.667 -14.5 -111 -14.5c-106.667 0 -194.834 33.833 -264.501 101.5
s-104.5 152.167 -104.5 253.5zM315.005 745.999l55 174h225l-114 -174h-166z" />
    <glyph glyph-name="cacute" unicode="&#x107;" horiz-adv-x="526" 
d="M381 222l145.001 -135.999c-2 -2.66699 -4.83301 -6.16699 -8.5 -10.5s-12.167 -12 -25.5 -23s-27.666 -20.667 -42.999 -29s-35.333 -16 -60 -23s-50.334 -10.5 -77.001 -10.5c-83.333 0 -152 25.5 -206 76.5s-81 114.833 -81 191.5s28.167 141.5 84.5 194.5
s126.166 79.5 209.499 79.5c41.334 0 79.167 -7.33301 113.5 -22c34.334 -14.668 58.167 -29.335 71.5 -44.001l21 -21l-146 -142c-13.333 21.333 -35 32 -65 32c-21.333 0 -39 -7 -53 -21s-21 -31.667 -21 -53s7 -39 21 -53s31.667 -21 53 -21
c14.667 0 27.5 2.83301 38.5 8.5s18.5 11.5 22.5 17.5zM225.001 566.001l55 174h225l-114 -174h-166z" />
    <glyph glyph-name="Ccircumflex" unicode="&#x108;" horiz-adv-x="701" 
d="M35 345c0 102 36.0049 188.332 108.005 258.998c72 70.667 161.333 106 268 106c27.333 0 53.5 -2.16699 78.5 -6.5s46.667 -10 65 -17s35.166 -14.833 50.499 -23.5s28.166 -17.167 38.499 -25.5s19.166 -16 26.499 -23s12.666 -12.5 15.999 -16.5l4 -7l-166 -146
c-2.66699 4 -6.66699 8.83301 -12 14.5s-17.833 13.167 -37.5 22.5s-41.5 14 -65.5 14c-43.333 0 -78.333 -13.667 -105 -41s-40 -62.666 -40 -105.999s13.333 -78.833 40 -106.5s61.667 -41.5 105 -41.5c16 0 31.333 2.16699 46 6.5s26.667 9.66602 36 15.999
s17.5 12.5 24.5 18.5s11.833 11.333 14.5 16l5 6l161 -139c-2 -3.33301 -5.33301 -8.16602 -10 -14.499s-15.5 -17.166 -32.5 -32.499s-35.667 -29 -56 -41s-47.833 -22.833 -82.5 -32.5s-71.667 -14.5 -111 -14.5c-106.667 0 -194.834 33.833 -264.501 101.5
s-104.5 152.167 -104.5 253.5zM180.005 745.999l130 174h190l130 -174h-184l-46 52l-48 -52h-172z" />
    <glyph glyph-name="ccircumflex" unicode="&#x109;" horiz-adv-x="526" 
d="M381 222l145.001 -135.999c-2 -2.66699 -4.83301 -6.16699 -8.5 -10.5s-12.167 -12 -25.5 -23s-27.666 -20.667 -42.999 -29s-35.333 -16 -60 -23s-50.334 -10.5 -77.001 -10.5c-83.333 0 -152 25.5 -206 76.5s-81 114.833 -81 191.5s28.167 141.5 84.5 194.5
s126.166 79.5 209.499 79.5c41.334 0 79.167 -7.33301 113.5 -22c34.334 -14.668 58.167 -29.335 71.5 -44.001l21 -21l-146 -142c-13.333 21.333 -35 32 -65 32c-21.333 0 -39 -7 -53 -21s-21 -31.667 -21 -53s7 -39 21 -53s31.667 -21 53 -21
c14.667 0 27.5 2.83301 38.5 8.5s18.5 11.5 22.5 17.5zM93.001 566.001l130 174h190l130 -174h-184l-46 52l-48 -52h-172z" />
    <glyph glyph-name="Cdotaccent" unicode="&#x10a;" horiz-adv-x="701" 
d="M35 345c0 102 36.0049 188.332 108.005 258.998c72 70.667 161.333 106 268 106c27.333 0 53.5 -2.16699 78.5 -6.5s46.667 -10 65 -17s35.166 -14.833 50.499 -23.5s28.166 -17.167 38.499 -25.5s19.166 -16 26.499 -23s12.666 -12.5 15.999 -16.5l4 -7l-166 -146
c-2.66699 4 -6.66699 8.83301 -12 14.5s-17.833 13.167 -37.5 22.5s-41.5 14 -65.5 14c-43.333 0 -78.333 -13.667 -105 -41s-40 -62.666 -40 -105.999s13.333 -78.833 40 -106.5s61.667 -41.5 105 -41.5c16 0 31.333 2.16699 46 6.5s26.667 9.66602 36 15.999
s17.5 12.5 24.5 18.5s11.833 11.333 14.5 16l5 6l161 -139c-2 -3.33301 -5.33301 -8.16602 -10 -14.499s-15.5 -17.166 -32.5 -32.499s-35.667 -29 -56 -41s-47.833 -22.833 -82.5 -32.5s-71.667 -14.5 -111 -14.5c-106.667 0 -194.834 33.833 -264.501 101.5
s-104.5 152.167 -104.5 253.5zM305.005 836.999c0 28.667 10.001 52.667 30.001 72s44.667 29 74 29s54.166 -9.66699 74.499 -29s30.5 -43.333 30.5 -72s-10 -52.5 -30 -71.5s-45 -28.5 -75 -28.5c-29.333 0 -54 9.5 -74 28.5s-30 42.833 -30 71.5z" />
    <glyph glyph-name="cdotaccent" unicode="&#x10b;" horiz-adv-x="526" 
d="M381 222l145.001 -135.999c-2 -2.66699 -4.83301 -6.16699 -8.5 -10.5s-12.167 -12 -25.5 -23s-27.666 -20.667 -42.999 -29s-35.333 -16 -60 -23s-50.334 -10.5 -77.001 -10.5c-83.333 0 -152 25.5 -206 76.5s-81 114.833 -81 191.5s28.167 141.5 84.5 194.5
s126.166 79.5 209.499 79.5c41.334 0 79.167 -7.33301 113.5 -22c34.334 -14.668 58.167 -29.335 71.5 -44.001l21 -21l-146 -142c-13.333 21.333 -35 32 -65 32c-21.333 0 -39 -7 -53 -21s-21 -31.667 -21 -53s7 -39 21 -53s31.667 -21 53 -21
c14.667 0 27.5 2.83301 38.5 8.5s18.5 11.5 22.5 17.5zM205.001 659.001c0 28.667 10.001 52.667 30.001 72s44.667 29 74 29s54.166 -9.66699 74.499 -29s30.5 -43.333 30.5 -72s-10 -52.5 -30 -71.5s-45 -28.5 -75 -28.5c-29.333 0 -54 9.5 -74 28.5s-30 42.833 -30 71.5z
" />
    <glyph glyph-name="Ccaron" unicode="&#x10c;" horiz-adv-x="701" 
d="M35 345c0 102 36.0049 188.332 108.005 258.998c72 70.667 161.333 106 268 106c27.333 0 53.5 -2.16699 78.5 -6.5s46.667 -10 65 -17s35.166 -14.833 50.499 -23.5s28.166 -17.167 38.499 -25.5s19.166 -16 26.499 -23s12.666 -12.5 15.999 -16.5l4 -7l-166 -146
c-2.66699 4 -6.66699 8.83301 -12 14.5s-17.833 13.167 -37.5 22.5s-41.5 14 -65.5 14c-43.333 0 -78.333 -13.667 -105 -41s-40 -62.666 -40 -105.999s13.333 -78.833 40 -106.5s61.667 -41.5 105 -41.5c16 0 31.333 2.16699 46 6.5s26.667 9.66602 36 15.999
s17.5 12.5 24.5 18.5s11.833 11.333 14.5 16l5 6l161 -139c-2 -3.33301 -5.33301 -8.16602 -10 -14.499s-15.5 -17.166 -32.5 -32.499s-35.667 -29 -56 -41s-47.833 -22.833 -82.5 -32.5s-71.667 -14.5 -111 -14.5c-106.667 0 -194.834 33.833 -264.501 101.5
s-104.5 152.167 -104.5 253.5zM630.005 919.999l-130 -174h-190l-130 174h184l46 -52l48 52h172z" />
    <glyph glyph-name="ccaron" unicode="&#x10d;" horiz-adv-x="526" 
d="M381 222l145.001 -135.999c-2 -2.66699 -4.83301 -6.16699 -8.5 -10.5s-12.167 -12 -25.5 -23s-27.666 -20.667 -42.999 -29s-35.333 -16 -60 -23s-50.334 -10.5 -77.001 -10.5c-83.333 0 -152 25.5 -206 76.5s-81 114.833 -81 191.5s28.167 141.5 84.5 194.5
s126.166 79.5 209.499 79.5c41.334 0 79.167 -7.33301 113.5 -22c34.334 -14.668 58.167 -29.335 71.5 -44.001l21 -21l-146 -142c-13.333 21.333 -35 32 -65 32c-21.333 0 -39 -7 -53 -21s-21 -31.667 -21 -53s7 -39 21 -53s31.667 -21 53 -21
c14.667 0 27.5 2.83301 38.5 8.5s18.5 11.5 22.5 17.5zM533.001 740.001l-130 -174h-190l-130 174h184l46 -52l48 52h172z" />
    <glyph glyph-name="Dcaron" unicode="&#x10e;" horiz-adv-x="760" 
d="M289 503v-305.999h50c46.667 0 85 14.167 115 42.5s45 65.166 45 110.499c0 45.334 -15 82.167 -45 110.5s-68.333 42.5 -115 42.5h-50zM60 700.001h276.001c112 0 204.833 -32.833 278.499 -98.5c73.667 -65.667 110.5 -148.5 110.5 -248.5s-38 -183.833 -114 -251.5
s-170 -101.5 -282 -101.5h-269v700zM605.001 920.001l-130 -174h-190l-130 174h184l46 -52l48 52h172z" />
    <glyph glyph-name="dcaron" unicode="&#x10f;" horiz-adv-x="881" 
d="M796 416h-155l26 284h214zM603 700l0.000976562 -700.001h-181l-14 49c-39.333 -39.333 -84.333 -59 -135 -59c-68.667 0 -127.167 25.333 -175.5 76s-72.5 114.334 -72.5 191.001c0 78 24.667 143.333 74 196s109.666 79 180.999 79c40.667 0 76.667 -10.333 108 -31
v199h215zM393.001 260.999c0 22 -7.16699 40.333 -21.5 55s-32.5 22 -54.5 22s-40.333 -7.33301 -55 -22s-22 -33 -22 -55s7.33301 -40.167 22 -54.5s33 -21.5 55 -21.5s40.167 7.16699 54.5 21.5s21.5 32.5 21.5 54.5z" />
    <glyph glyph-name="Dcroat" unicode="&#x110;" horiz-adv-x="801" 
d="M440 295l-110 0.000976562v-98h50c46.667 0 85 14.167 115 42.5s45 65.166 45 110.499c0 45.334 -15 82.167 -45 110.5s-68.333 42.5 -115 42.5h-50v-93h110v-115zM101 0.000976562v295h-71v115h71v290h276c112 0 204.833 -33 278.5 -99s110.5 -149 110.5 -249
c0 -99.333 -38 -182.833 -114 -250.5s-170 -101.5 -282 -101.5h-269z" />
    <glyph glyph-name="dcroat" unicode="&#x111;" horiz-adv-x="692" 
d="M603 700l0.000976562 -31.001h69v-115h-69v-554h-181l-14 49c-39.333 -39.333 -84.333 -59 -135 -59c-68.667 0 -127.167 25.333 -175.5 76s-72.5 114.334 -72.5 191.001c0 78 24.667 143.333 74 196s109.666 79 180.999 79c40.667 0 76.667 -10.333 108 -31v53h-93v115
h93v31h215zM393.001 260.999c0 22 -7.16699 40.333 -21.5 55s-32.5 22 -54.5 22s-40.333 -7.33301 -55 -22s-22 -33 -22 -55s7.33301 -40.167 22 -54.5s33 -21.5 55 -21.5s40.167 7.16699 54.5 21.5s21.5 32.5 21.5 54.5z" />
    <glyph glyph-name="Emacron" unicode="&#x112;" horiz-adv-x="650" 
d="M615 0h-555v700h545v-197h-316v-67h266v-166h-266v-73h326v-197zM165 778v120h360v-120h-360z" />
    <glyph glyph-name="emacron" unicode="&#x113;" horiz-adv-x="608" 
d="M569 218l-329.001 0.00292969c6 -13.333 17.167 -24.833 33.5 -34.5s35.5 -14.5 57.5 -14.5c18 0 35 3 51 9s27.333 12 34 18l11 9l121 -127c-2 -2.66699 -4.83301 -5.83398 -8.5 -9.50098s-12.5 -10.667 -26.5 -21s-29.333 -19.333 -46 -27
c-16.668 -7.66699 -38.835 -14.667 -66.501 -21c-27.667 -6.33301 -57.167 -9.5 -88.5 -9.5c-83.333 0 -152 25.667 -206 77s-81 115.666 -81 192.999c0 76.667 27.833 141.167 83.5 193.5s124.834 78.5 207.501 78.5c74.667 0 137.834 -23.333 189.501 -70
s77.5 -102.334 77.5 -167.001c0 -14.667 -1.16699 -28.334 -3.5 -41c-2.33301 -12.667 -4.83301 -22 -7.5 -28zM310.999 384.003c-18.667 0 -34.168 -5.83398 -46.501 -17.501c-12.333 -11.668 -19.5 -25.835 -21.5 -42.5h135
c-1.33301 16.667 -8.16602 30.834 -20.499 42.501s-27.833 17.5 -46.5 17.5zM134.998 600.002v120h360v-120h-360z" />
    <glyph glyph-name="Ebreve" unicode="&#x114;" horiz-adv-x="650" 
d="M615 0h-555v700h545v-197h-316v-67h266v-166h-266v-73h326v-197zM164 920h139v-15c0 -11.333 3.5 -20.833 10.5 -28.5s17.167 -11.5 30.5 -11.5c26.667 0 40 13.333 40 40v15h142v-5c0 -50.667 -16.833 -91.5 -50.5 -122.5s-77.167 -46.5 -130.5 -46.5
s-96.833 15.5 -130.5 46.5s-50.5 71.833 -50.5 122.5v5z" />
    <glyph glyph-name="ebreve" unicode="&#x115;" horiz-adv-x="608" 
d="M569 218l-329.001 0.00292969c6 -13.333 17.167 -24.833 33.5 -34.5s35.5 -14.5 57.5 -14.5c18 0 35 3 51 9s27.333 12 34 18l11 9l121 -127c-2 -2.66699 -4.83301 -5.83398 -8.5 -9.50098s-12.5 -10.667 -26.5 -21s-29.333 -19.333 -46 -27
c-16.668 -7.66699 -38.835 -14.667 -66.501 -21c-27.667 -6.33301 -57.167 -9.5 -88.5 -9.5c-83.333 0 -152 25.667 -206 77s-81 115.666 -81 192.999c0 76.667 27.833 141.167 83.5 193.5s124.834 78.5 207.501 78.5c74.667 0 137.834 -23.333 189.501 -70
s77.5 -102.334 77.5 -167.001c0 -14.667 -1.16699 -28.334 -3.5 -41c-2.33301 -12.667 -4.83301 -22 -7.5 -28zM310.999 384.003c-18.667 0 -34.168 -5.83398 -46.501 -17.501c-12.333 -11.668 -19.5 -25.835 -21.5 -42.5h135
c-1.33301 16.667 -8.16602 30.834 -20.499 42.501s-27.833 17.5 -46.5 17.5zM133.998 740.002h139v-15c0 -11.333 3.5 -20.833 10.5 -28.5s17.167 -11.5 30.5 -11.5c26.667 0 40 13.333 40 40v15h142v-5c0 -50.667 -16.833 -91.5 -50.5 -122.5s-77.167 -46.5 -130.5 -46.5
s-96.833 15.5 -130.5 46.5s-50.5 71.833 -50.5 122.5v5z" />
    <glyph glyph-name="Edotaccent" unicode="&#x116;" horiz-adv-x="650" 
d="M615 0h-555v700h545v-197h-316v-67h266v-166h-266v-73h326v-197zM240 837c0 28.667 10.001 52.667 30.001 72s44.667 29 74 29s54.166 -9.66699 74.499 -29s30.5 -43.333 30.5 -72s-10 -52.5 -30 -71.5s-45 -28.5 -75 -28.5c-29.333 0 -54 9.5 -74 28.5
s-30 42.833 -30 71.5z" />
    <glyph glyph-name="edotaccent" unicode="&#x117;" horiz-adv-x="608" 
d="M569 218l-329.001 0.00292969c6 -13.333 17.167 -24.833 33.5 -34.5s35.5 -14.5 57.5 -14.5c18 0 35 3 51 9s27.333 12 34 18l11 9l121 -127c-2 -2.66699 -4.83301 -5.83398 -8.5 -9.50098s-12.5 -10.667 -26.5 -21s-29.333 -19.333 -46 -27
c-16.668 -7.66699 -38.835 -14.667 -66.501 -21c-27.667 -6.33301 -57.167 -9.5 -88.5 -9.5c-83.333 0 -152 25.667 -206 77s-81 115.666 -81 192.999c0 76.667 27.833 141.167 83.5 193.5s124.834 78.5 207.501 78.5c74.667 0 137.834 -23.333 189.501 -70
s77.5 -102.334 77.5 -167.001c0 -14.667 -1.16699 -28.334 -3.5 -41c-2.33301 -12.667 -4.83301 -22 -7.5 -28zM310.999 384.003c-18.667 0 -34.168 -5.83398 -46.501 -17.501c-12.333 -11.668 -19.5 -25.835 -21.5 -42.5h135
c-1.33301 16.667 -8.16602 30.834 -20.499 42.501s-27.833 17.5 -46.5 17.5zM209.998 659.002c0 28.667 10 52.667 30 72s44.667 29 74 29c29.334 0 54.167 -9.66699 74.5 -29s30.5 -43.333 30.5 -72s-10 -52.5 -30 -71.5s-45 -28.5 -75 -28.5c-29.333 0 -54 9.5 -74 28.5
s-30 42.833 -30 71.5z" />
    <glyph glyph-name="Eogonek" unicode="&#x118;" horiz-adv-x="650" 
d="M615 0l-95.001 0.000976562c-9.33301 -4.66699 -14 -12.667 -14 -24c0 -8 3.16699 -14.667 9.5 -20s15.166 -8 26.499 -8c6.66895 0 13.3359 0.666992 20.001 2c6.67578 1.33301 11.3428 2.66602 14.001 3.99902l5 2l39 -112c-26 -20.667 -60 -31 -102 -31
c-41.333 0 -76.333 12.5 -105 37.5s-43 59.5 -43 103.5c0 16.667 2.66699 32 8 46h-318v700h545v-197h-316v-67h266v-166h-266v-73h326v-197z" />
    <glyph glyph-name="eogonek" unicode="&#x119;" horiz-adv-x="608" 
d="M569 218l-329.004 0.00292969c6 -13.333 17.167 -24.833 33.5 -34.5s35.5 -14.5 57.5 -14.5c18 0 35 3 51 9s27.333 12 34 18l11 9l121 -127c-3.3418 -4.66699 -8.6748 -10.334 -16 -17.001c-7.33301 -6.66699 -24.333 -17.334 -51 -32.001s-55.667 -25 -87 -31
c-6.66699 -5.33301 -10 -12.666 -10 -21.999c0 -8 3.16699 -14.667 9.5 -20c6.33496 -5.33301 15.168 -8 26.5 -8c6.66699 0 13.334 0.666992 20.001 2s11.334 2.66602 14.001 3.99902l5 2l39 -112c-26 -20.667 -60 -31 -102 -31c-41.333 0 -76.333 12.5 -105 37.5
s-43 59.5 -43 103.5c0 15.333 2 29 6 41c-68.667 11.333 -124 41.5 -166 90.5s-63 107.167 -63 174.5c0 76.667 27.833 141.167 83.5 193.5s124.834 78.5 207.501 78.5c74.667 0 137.834 -23.333 189.501 -70s77.5 -102.334 77.5 -167.001
c0 -14.667 -1.16699 -28.334 -3.5 -41c-2.33301 -12.667 -4.83301 -22 -7.5 -28zM310.996 384.003c-18.667 0 -34.168 -5.83398 -46.501 -17.501c-12.333 -11.668 -19.5 -25.835 -21.5 -42.5h135c-1.33301 16.667 -8.16602 30.834 -20.499 42.501s-27.833 17.5 -46.5 17.5z
" />
    <glyph glyph-name="Ecaron" unicode="&#x11a;" horiz-adv-x="650" 
d="M615 0h-555v700h545v-197h-316v-67h266v-166h-266v-73h326v-197zM570 920l-130 -174h-190l-130 174h184l46 -52l48 52h172z" />
    <glyph glyph-name="ecaron" unicode="&#x11b;" horiz-adv-x="608" 
d="M569 218l-329.001 0.00292969c6 -13.333 17.167 -24.833 33.5 -34.5s35.5 -14.5 57.5 -14.5c18 0 35 3 51 9s27.333 12 34 18l11 9l121 -127c-2 -2.66699 -4.83301 -5.83398 -8.5 -9.50098s-12.5 -10.667 -26.5 -21s-29.333 -19.333 -46 -27
c-16.668 -7.66699 -38.835 -14.667 -66.501 -21c-27.667 -6.33301 -57.167 -9.5 -88.5 -9.5c-83.333 0 -152 25.667 -206 77s-81 115.666 -81 192.999c0 76.667 27.833 141.167 83.5 193.5s124.834 78.5 207.501 78.5c74.667 0 137.834 -23.333 189.501 -70
s77.5 -102.334 77.5 -167.001c0 -14.667 -1.16699 -28.334 -3.5 -41c-2.33301 -12.667 -4.83301 -22 -7.5 -28zM310.999 384.003c-18.667 0 -34.168 -5.83398 -46.501 -17.501c-12.333 -11.668 -19.5 -25.835 -21.5 -42.5h135
c-1.33301 16.667 -8.16602 30.834 -20.499 42.501s-27.833 17.5 -46.5 17.5zM539.998 740.002l-130 -174h-190l-130 174h184l46 -52l48 52h172z" />
    <glyph glyph-name="Gcircumflex" unicode="&#x11c;" horiz-adv-x="786" 
d="M393 407l352.001 -0.00195312c4 -18.667 6 -39.334 6 -62c0 -100.667 -31.167 -185 -93.5 -253s-146.833 -102 -253.5 -102c-106 0 -194 34.333 -264 103s-105 153.667 -105 255s36.167 187 108.5 257s161.5 105 267.5 105c37.333 0 72.5 -3.83301 105.5 -11.5
s59.667 -17.167 80 -28.5c20.333 -11.3379 38 -22.6709 53 -33.999c15 -11.3379 25.833 -20.6709 32.5 -28l9 -12l-154 -156c-3.33301 4 -8.33301 9.33301 -15 16s-21.334 15.334 -44.001 26.001s-46.667 16 -72 16c-42 0 -76.667 -14.5 -104 -43.5s-41 -65.833 -41 -110.5
s13.667 -81.5 41 -110.5s62.333 -43.5 105 -43.5c28 0 52 5.66699 72 17s33 22.333 39 33l10 17h-135v150zM174.001 745.998l130 174h190l130 -174h-184l-46 52l-48 -52h-172z" />
    <glyph glyph-name="gcircumflex" unicode="&#x11d;" horiz-adv-x="643" 
d="M20 -87l80 150.997c6 -4 14.5 -9.16699 25.5 -15.5s32 -14.666 63 -24.999s60.833 -15.5 89.5 -15.5c73.333 0 110 24 110 72v4c-28 -19.333 -65.333 -29 -112 -29c-70.667 0 -130.167 22.833 -178.5 68.5s-72.5 100.834 -72.5 165.501
c0 70.667 23.5 128.834 70.5 174.501s108.833 68.5 185.5 68.5c25.333 0 49.666 -4.33301 72.999 -13c23.334 -8.66699 41.667 -19 55 -31l13 34h181v-385c0 -93.333 -27 -167.833 -81 -223.5s-128.667 -83.5 -224 -83.5c-51.333 0 -100.166 7 -146.499 21
s-79.833 27.667 -100.5 41zM240 287.997c0 -20 7.16699 -36.333 21.5 -49s32.5 -19 54.5 -19s40.333 6.33301 55 19s22 29 22 49s-7.33301 36.5 -22 49.5s-33 19.5 -55 19.5s-40.167 -6.33301 -54.5 -19s-21.5 -29.334 -21.5 -50zM105 565.997l130 174h190l130 -174h-184
l-46 52l-48 -52h-172z" />
    <glyph glyph-name="Gbreve" unicode="&#x11e;" horiz-adv-x="786" 
d="M393 407l352.001 -0.00195312c4 -18.667 6 -39.334 6 -62c0 -100.667 -31.167 -185 -93.5 -253s-146.833 -102 -253.5 -102c-106 0 -194 34.333 -264 103s-105 153.667 -105 255s36.167 187 108.5 257s161.5 105 267.5 105c37.333 0 72.5 -3.83301 105.5 -11.5
s59.667 -17.167 80 -28.5c20.333 -11.3379 38 -22.6709 53 -33.999c15 -11.3379 25.833 -20.6709 32.5 -28l9 -12l-154 -156c-3.33301 4 -8.33301 9.33301 -15 16s-21.334 15.334 -44.001 26.001s-46.667 16 -72 16c-42 0 -76.667 -14.5 -104 -43.5s-41 -65.833 -41 -110.5
s13.667 -81.5 41 -110.5s62.333 -43.5 105 -43.5c28 0 52 5.66699 72 17s33 22.333 39 33l10 17h-135v150zM218.001 919.998h139v-15c0 -11.333 3.5 -20.833 10.5 -28.5s17.167 -11.5 30.5 -11.5c26.667 0 40 13.333 40 40v15h142v-5c0 -50.667 -16.833 -91.5 -50.5 -122.5
s-77.167 -46.5 -130.5 -46.5s-96.833 15.5 -130.5 46.5s-50.5 71.833 -50.5 122.5v5z" />
    <glyph glyph-name="gbreve" unicode="&#x11f;" horiz-adv-x="643" 
d="M20 -87l80 150.997c6 -4 14.5 -9.16699 25.5 -15.5s32 -14.666 63 -24.999s60.833 -15.5 89.5 -15.5c73.333 0 110 24 110 72v4c-28 -19.333 -65.333 -29 -112 -29c-70.667 0 -130.167 22.833 -178.5 68.5s-72.5 100.834 -72.5 165.501
c0 70.667 23.5 128.834 70.5 174.501s108.833 68.5 185.5 68.5c25.333 0 49.666 -4.33301 72.999 -13c23.334 -8.66699 41.667 -19 55 -31l13 34h181v-385c0 -93.333 -27 -167.833 -81 -223.5s-128.667 -83.5 -224 -83.5c-51.333 0 -100.166 7 -146.499 21
s-79.833 27.667 -100.5 41zM240 287.997c0 -20 7.16699 -36.333 21.5 -49s32.5 -19 54.5 -19s40.333 6.33301 55 19s22 29 22 49s-7.33301 36.5 -22 49.5s-33 19.5 -55 19.5s-40.167 -6.33301 -54.5 -19s-21.5 -29.334 -21.5 -50zM149 739.997h139v-15
c0 -11.333 3.5 -20.833 10.5 -28.5s17.167 -11.5 30.5 -11.5c26.667 0 40 13.333 40 40v15h142v-5c0 -50.667 -16.833 -91.5 -50.5 -122.5s-77.167 -46.5 -130.5 -46.5s-96.833 15.5 -130.5 46.5s-50.5 71.833 -50.5 122.5v5z" />
    <glyph glyph-name="Gdotaccent" unicode="&#x120;" horiz-adv-x="786" 
d="M393 407l352.001 -0.00195312c4 -18.667 6 -39.334 6 -62c0 -100.667 -31.167 -185 -93.5 -253s-146.833 -102 -253.5 -102c-106 0 -194 34.333 -264 103s-105 153.667 -105 255s36.167 187 108.5 257s161.5 105 267.5 105c37.333 0 72.5 -3.83301 105.5 -11.5
s59.667 -17.167 80 -28.5c20.333 -11.3379 38 -22.6709 53 -33.999c15 -11.3379 25.833 -20.6709 32.5 -28l9 -12l-154 -156c-3.33301 4 -8.33301 9.33301 -15 16s-21.334 15.334 -44.001 26.001s-46.667 16 -72 16c-42 0 -76.667 -14.5 -104 -43.5s-41 -65.833 -41 -110.5
s13.667 -81.5 41 -110.5s62.333 -43.5 105 -43.5c28 0 52 5.66699 72 17s33 22.333 39 33l10 17h-135v150zM294.001 836.998c0 28.667 10.001 52.667 30.001 72s44.667 29 74 29c29.334 0 54.167 -9.66699 74.499 -29c20.333 -19.333 30.5 -43.333 30.5 -72
s-10 -52.5 -30 -71.5s-45 -28.5 -75 -28.5c-29.333 0 -54 9.5 -74 28.5s-30 42.833 -30 71.5z" />
    <glyph glyph-name="gdotaccent" unicode="&#x121;" horiz-adv-x="643" 
d="M20 -87l80 150.997c6 -4 14.5 -9.16699 25.5 -15.5s32 -14.666 63 -24.999s60.833 -15.5 89.5 -15.5c73.333 0 110 24 110 72v4c-28 -19.333 -65.333 -29 -112 -29c-70.667 0 -130.167 22.833 -178.5 68.5s-72.5 100.834 -72.5 165.501
c0 70.667 23.5 128.834 70.5 174.501s108.833 68.5 185.5 68.5c25.333 0 49.666 -4.33301 72.999 -13c23.334 -8.66699 41.667 -19 55 -31l13 34h181v-385c0 -93.333 -27 -167.833 -81 -223.5s-128.667 -83.5 -224 -83.5c-51.333 0 -100.166 7 -146.499 21
s-79.833 27.667 -100.5 41zM240 287.997c0 -20 7.16699 -36.333 21.5 -49s32.5 -19 54.5 -19s40.333 6.33301 55 19s22 29 22 49s-7.33301 36.5 -22 49.5s-33 19.5 -55 19.5s-40.167 -6.33301 -54.5 -19s-21.5 -29.334 -21.5 -50zM225 658.997c0 28.667 10 52.667 30 72
s44.667 29 74 29c29.334 0 54.167 -9.66699 74.5 -29s30.5 -43.333 30.5 -72s-10 -52.5 -30 -71.5s-45 -28.5 -75 -28.5c-29.333 0 -54 9.5 -74 28.5s-30 42.833 -30 71.5z" />
    <glyph glyph-name="Gcommaaccent" unicode="&#x122;" horiz-adv-x="786" 
d="M393 407l352.001 -0.00195312c4 -18.667 6 -39.334 6 -62c0 -100.667 -31.167 -185 -93.5 -253s-146.833 -102 -253.5 -102c-106 0 -194 34.333 -264 103s-105 153.667 -105 255s36.167 187 108.5 257s161.5 105 267.5 105c37.333 0 72.5 -3.83301 105.5 -11.5
s59.667 -17.167 80 -28.5c20.333 -11.3379 38 -22.6709 53 -33.999c15 -11.3379 25.833 -20.6709 32.5 -28l9 -12l-154 -156c-3.33301 4 -8.33301 9.33301 -15 16s-21.334 15.334 -44.001 26.001s-46.667 16 -72 16c-42 0 -76.667 -14.5 -104 -43.5s-41 -65.833 -41 -110.5
s13.667 -81.5 41 -110.5s62.333 -43.5 105 -43.5c28 0 52 5.66699 72 17s33 22.333 39 33l10 17h-135v150zM230.001 -224.002l55 174h225l-114 -174h-166z" />
    <glyph glyph-name="gcommaaccent" unicode="&#x123;" horiz-adv-x="643" 
d="M20 -87l80 150.997c6 -4 14.5 -9.16699 25.5 -15.5s32 -14.666 63 -24.999s60.833 -15.5 89.5 -15.5c73.333 0 110 24 110 72v4c-28 -19.333 -65.333 -29 -112 -29c-70.667 0 -130.167 22.833 -178.5 68.5s-72.5 100.834 -72.5 165.501
c0 70.667 23.5 128.834 70.5 174.501s108.833 68.5 185.5 68.5c25.333 0 49.666 -4.33301 72.999 -13c23.334 -8.66699 41.667 -19 55 -31l13 34h181v-385c0 -93.333 -27 -167.833 -81 -223.5s-128.667 -83.5 -224 -83.5c-51.333 0 -100.166 7 -146.499 21
s-79.833 27.667 -100.5 41zM240 287.997c0 -20 7.16699 -36.333 21.5 -49s32.5 -19 54.5 -19s40.333 6.33301 55 19s22 29 22 49s-7.33301 36.5 -22 49.5s-33 19.5 -55 19.5s-40.167 -6.33301 -54.5 -19s-21.5 -29.334 -21.5 -50zM463 739.997l-55 -174h-225l114 174h166z
" />
    <glyph glyph-name="Hcircumflex" unicode="&#x124;" horiz-adv-x="770" 
d="M484 0v255h-195v-255h-229v700h229v-241h195v241h226v-700h-226zM160 746l130 174h190l130 -174h-184l-46 52l-48 -52h-172z" />
    <glyph glyph-name="hcircumflex" unicode="&#x125;" horiz-adv-x="615" 
d="M40 0l-0.000976562 699.999h215v-226c36.667 38.667 81.334 58 134.001 58c56 0 101.833 -17.5 137.5 -52.5s53.5 -81.5 53.5 -139.5v-340h-215v275c0 40 -17.667 60 -53 60c-18 0 -32 -5.16699 -42 -15.5s-15 -25.166 -15 -44.499v-275h-215zM81.999 745.999l130 174
h190l130 -174h-184l-46 52l-48 -52h-172z" />
    <glyph glyph-name="Hbar" unicode="&#x126;" horiz-adv-x="852" 
d="M330 517v-58h195v58h-195zM101 0v517h-71v120h71v63h229v-63h195v63h226v-63h71v-120h-71v-517h-226v255h-195v-255h-229z" />
    <glyph glyph-name="hbar" unicode="&#x127;" horiz-adv-x="664" 
d="M89 0v553.999h-69v115h69v31h215v-31h93v-115h-93v-80c36.667 38.667 81.334 58 134.001 58c56 0 101.833 -17.5 137.499 -52.5c35.667 -35 53.5 -81.5 53.5 -139.5v-340h-215v275c0 40 -17.667 60 -53 60c-18 0 -32 -5.16699 -42 -15.5s-15 -25.166 -15 -44.499v-275
h-215z" />
    <glyph glyph-name="Itilde" unicode="&#x128;" horiz-adv-x="363" 
d="M65 0v700h233v-700h-233zM91 755l-96.001 12c0 4 0.333008 9.66699 1 17s3.33398 20 8.00098 38s10.834 34 18.501 48s19.667 26.667 36 38s35.166 17 56.499 17s40.166 -4.5 56.499 -13.5s30.166 -18 41.499 -27s22 -13.5 32 -13.5c6.66699 0 12.334 3.66699 17.001 11
s7.33398 14.666 8.00098 21.999l2 11l96 -12c0 -4 -0.333008 -9.66699 -1 -17c-0.671875 -7.33301 -3.33887 -20 -8 -38c-4.66699 -18 -10.834 -34 -18.501 -48s-19.667 -26.667 -36 -38s-35.166 -17 -56.499 -17c-21.334 0 -40.167 4.5 -56.5 13.5s-30.166 18 -41.499 27
s-22 13.5 -32 13.5c-6.66699 0 -12.334 -3.66699 -17.001 -11c-4.66699 -7.33887 -7.66699 -14.6719 -9 -21.999z" />
    <glyph glyph-name="itilde" unicode="&#x129;" horiz-adv-x="307" 
d="M63 575l-96.001 12.001c0 4 0.333008 9.66699 1 17s3.33398 20 8.00098 38s10.834 34 18.501 48s19.667 26.667 36 38s35.166 17 56.499 17s40.166 -4.5 56.499 -13.5s30.166 -18 41.499 -27s22 -13.5 32 -13.5c6.66797 0 12.335 3.66699 17.001 11
c4.66699 7.33301 7.33398 14.666 8.00098 21.999l2 11l96 -12c0 -4 -0.333008 -9.66699 -1 -17c-0.671875 -7.33301 -3.33887 -20 -8 -38c-4.66797 -18 -10.835 -34 -18.5 -48c-7.66699 -14 -19.667 -26.667 -36 -38s-35.166 -17 -56.499 -17
c-21.334 0 -40.167 4.5 -56.5 13.5c-16.334 9 -30.167 18 -41.5 27s-22 13.5 -32 13.5c-6.66699 0 -12.334 -3.66699 -17.001 -11c-4.66699 -7.33789 -7.66699 -14.6709 -9 -22zM44.999 0.000976562v522h217v-522h-217z" />
    <glyph glyph-name="Imacron" unicode="&#x12a;" horiz-adv-x="363" 
d="M65 0v700h233v-700h-233zM2 778v120h360v-120h-360z" />
    <glyph glyph-name="imacron" unicode="&#x12b;" horiz-adv-x="307" 
d="M-26 600v120h360v-120h-360zM45 0v522h217v-522h-217z" />
    <glyph glyph-name="Ibreve" unicode="&#x12c;" horiz-adv-x="363" 
d="M65 0v700h233v-700h-233zM1 920h139v-15c0 -11.333 3.5 -20.833 10.5 -28.5s17.167 -11.5 30.5 -11.5c26.667 0 40 13.333 40 40v15h142v-5c0 -50.667 -16.833 -91.5 -50.5 -122.5s-77.167 -46.5 -130.5 -46.5s-96.833 15.5 -130.5 46.5s-50.5 71.833 -50.5 122.5v5z" />
    <glyph glyph-name="ibreve" unicode="&#x12d;" horiz-adv-x="307" 
d="M-27 740h139v-15c0 -11.333 3.5 -20.833 10.5 -28.5s17.167 -11.5 30.5 -11.5c26.667 0 40 13.333 40 40v15h142v-5c0 -50.667 -16.833 -91.5 -50.5 -122.5s-77.167 -46.5 -130.5 -46.5s-96.833 15.5 -130.5 46.5s-50.5 71.833 -50.5 122.5v5zM45 0v522h217v-522h-217z
" />
    <glyph glyph-name="Iogonek" unicode="&#x12e;" horiz-adv-x="363" 
d="M298 0l-101.001 0.000976562c-0.666992 0 -2 -0.666992 -4 -2s-4 -4 -6 -8s-3 -8.66699 -3 -14c0 -8 3.16699 -14.667 9.5 -20s15.166 -8 26.499 -8c6.66797 0 13.335 0.666992 20.001 2c6.66797 1.33301 11.335 2.66602 14.001 3.99902l5 2l39 -112
c-26 -20.667 -60 -31 -102 -31c-41.333 0 -76.333 12.5 -105 37.5s-43 59.5 -43 103.5c0 22.667 5.66699 43.667 17 63v683h233v-700z" />
    <glyph glyph-name="iogonek" unicode="&#x12f;" horiz-adv-x="307" 
d="M262 0l-95.999 0.000976562c-0.666992 0 -2 -0.666992 -4 -2s-4 -4 -6 -8s-3 -8.66699 -3 -14c0 -8 3.16699 -14.667 9.5 -20s15.166 -8 26.499 -8c6.66699 0 13.334 0.666992 20 2c6.66699 1.33301 11.667 2.66602 15 3.99902l4 2l39 -112c-26 -20.667 -60 -31 -102 -31
c-41.333 0 -76.333 12.5 -105 37.5s-43 59.5 -43 103.5c0 30 9.33301 56 28 78v490h217v-522zM24.001 660.001c0 33.333 12.3311 61 36.998 83s55.334 33 92.001 33s67.5 -11 92.5 -33s37.5 -49.667 37.5 -83c0 -32.667 -12.333 -60 -37 -82s-55.667 -33 -93 -33
s-68.166 11 -92.499 33s-36.5 49.333 -36.5 82z" />
    <glyph glyph-name="Idotaccent" unicode="&#x130;" horiz-adv-x="363" 
d="M65 0v700h233v-700h-233zM76 837c0 28.667 10.001 52.667 30.001 72s44.667 29 74 29s54.166 -9.66699 74.499 -29s30.5 -43.333 30.5 -72s-10 -52.5 -30 -71.5s-45 -28.5 -75 -28.5c-29.333 0 -54 9.5 -74 28.5s-30 42.833 -30 71.5z" />
    <glyph glyph-name="dotlessi" unicode="&#x131;" horiz-adv-x="307" 
d="M45 0v522h217v-522h-217z" />
    <glyph glyph-name="IJ" unicode="&#x132;" horiz-adv-x="877" 
d="M65 0v700h233v-700h-233zM595 303v397h232v-415c0 -89.333 -26.5 -160.833 -79.5 -214.5s-122.833 -80.5 -209.5 -80.5c-34 0 -65.667 2.83301 -95 8.5s-50 11.5 -62 17.5l-18 9l53 196c20.667 -10 48.667 -15 84 -15c30 0 53.333 8.83301 70 26.5s25 41.167 25 70.5z
" />
    <glyph glyph-name="ij" unicode="&#x133;" horiz-adv-x="614" 
d="M352 522l217 0.00195312v-440c0 -82.667 -19.667 -145.334 -59 -188.001s-97 -64 -173 -64c-12.667 0 -25.834 0.666992 -39.5 2c-13.667 1.33301 -24.167 2.66602 -31.5 3.99902l-10 1l22 178c4.66699 -1.33301 13 -2 25 -2c32.667 0 49 17.667 49 53v456zM331 660.002
c0 33.333 12.3311 61 36.998 83s55.334 33 92.001 33s67.5 -11 92.5 -33s37.5 -49.667 37.5 -83c0 -32.667 -12.333 -60 -37 -82s-55.667 -33 -93 -33s-68.166 11 -92.499 33s-36.5 49.333 -36.5 82zM44.998 0.00195312v522h217v-522h-217zM23.998 660.002
c0 33.333 12.3311 61 36.998 83s55.334 33 92.001 33s67.5 -11 92.5 -33s37.5 -49.667 37.5 -83c0 -32.667 -12.333 -60 -37 -82s-55.667 -33 -93 -33s-68.166 11 -92.499 33s-36.5 49.333 -36.5 82z" />
    <glyph glyph-name="Jcircumflex" unicode="&#x134;" horiz-adv-x="514" 
d="M232 303v397h232v-415c0 -89.333 -26.5 -160.833 -79.5 -214.5s-122.833 -80.5 -209.5 -80.5c-34 0 -65.667 2.83301 -95 8.5s-50 11.5 -62 17.5l-18 9l53 196c20.667 -10 48.667 -15 84 -15c30 0 53.333 8.83301 70 26.5s25 41.167 25 70.5zM128 746l130 174h190
l130 -174h-184l-46 52l-48 -52h-172z" />
    <glyph glyph-name="jcircumflex" unicode="&#x135;" horiz-adv-x="307" 
d="M45 522l217 0.00195312v-440c0 -82.667 -19.667 -145.334 -59 -188.001s-97 -64 -173 -64c-12.667 0 -26.5 0.666992 -41.5 2s-26.5 2.66602 -34.5 3.99902l-13 1l22 177c10 -0.666992 21 -1 33 -1c32.667 0 49 17.667 49 53v456zM-71 566.002l130 174h190l130 -174h-184
l-46 52l-48 -52h-172z" />
    <glyph glyph-name="Kcommaaccent" unicode="&#x136;" horiz-adv-x="754" 
d="M492 0l-203 329v-329h-229v700h229v-307l183 307h267l-232 -326l252 -374h-267zM220 -224l55 174h225l-114 -174h-166z" />
    <glyph glyph-name="kcommaaccent" unicode="&#x137;" horiz-adv-x="656" 
d="M60 0v700h215v-399l122 221h244l-159 -234l179 -288h-249l-137 249v-249h-215zM185 -224l55 174h225l-114 -174h-166z" />
    <glyph glyph-name="Lacute" unicode="&#x139;" horiz-adv-x="590" 
d="M585 0h-525v700h229v-496h296v-204zM85 746l55 174h225l-114 -174h-166z" />
    <glyph glyph-name="lacute" unicode="&#x13a;" horiz-adv-x="307" 
d="M45 0v700h217v-700h-217zM67 746l55 174h225l-114 -174h-166z" />
    <glyph glyph-name="Lcommaaccent" unicode="&#x13b;" horiz-adv-x="590" 
d="M585 0h-525v700h229v-496h296v-204zM150 -224l55 174h225l-114 -174h-166z" />
    <glyph glyph-name="lcommaaccent" unicode="&#x13c;" horiz-adv-x="307" 
d="M45 0v700h217v-700h-217zM-15 -224l55 174h225l-114 -174h-166z" />
    <glyph glyph-name="Lcaron" unicode="&#x13d;" horiz-adv-x="590" 
d="M490 416h-155l29 284h214zM585 0h-525v700h229v-496h296v-204z" />
    <glyph glyph-name="lcaron" unicode="&#x13e;" horiz-adv-x="545" 
d="M457 416h-155l26 284h217zM45 0v700h217v-700h-217z" />
    <glyph glyph-name="Ldot" unicode="&#x13f;" horiz-adv-x="590" 
d="M454 519c30.667 0 56.667 -10.667 78 -32s32 -47.333 32 -78c0 -30 -10.667 -55.667 -32 -77s-47.333 -32 -78 -32s-56.5 10.667 -77.5 32s-31.5 47 -31.5 77c0 30.667 10.5 56.667 31.5 78s46.833 32 77.5 32zM585 0h-525v700h229v-496h296v-204z" />
    <glyph glyph-name="ldot" unicode="&#x140;" horiz-adv-x="564" 
d="M45 0v700h217v-700h-217zM427 473c35.333 0 65.332 -12.167 89.999 -36.5s37 -54.5 37 -90.5s-12.333 -65.833 -37 -89.5s-54.667 -35.5 -90 -35.5c-36.667 0 -67.334 11.833 -92 35.5c-24.667 23.667 -37 53.5 -37 89.5s12.333 66.167 37 90.5s55.334 36.5 92.001 36.5z
" />
    <glyph glyph-name="Lslash" unicode="&#x141;" horiz-adv-x="631" 
d="M626 0h-525v294l-71 -10v116l71 9v291h229v-259l201 27v-118l-201 -26v-120h296v-204z" />
    <glyph glyph-name="lslash" unicode="&#x142;" horiz-adv-x="416" 
d="M97 0v296l-67 -13v113l67 15v289h217v-243l72 16v-118l-72 -15v-340h-217z" />
    <glyph glyph-name="Nacute" unicode="&#x143;" horiz-adv-x="790" 
d="M507 0l-226 358v-358h-221v700h234l213 -340v340h223v-700h-223zM315 746l55 174h225l-114 -174h-166z" />
    <glyph glyph-name="nacute" unicode="&#x144;" horiz-adv-x="615" 
d="M255 275v-275.001h-215v522h193l7 -59c37.333 46 87 69 149 69c56 0 101.833 -17.5 137.5 -52.5s53.5 -81.5 53.5 -139.5v-340h-215v275c0 40 -17.667 60 -53 60c-18 0 -32 -5.16699 -42 -15.5s-15 -25.166 -15 -44.499zM222 565.999l55 174h225l-114 -174h-166z" />
    <glyph glyph-name="Ncommaaccent" unicode="&#x145;" horiz-adv-x="790" 
d="M507 0l-226 358v-358h-221v700h234l213 -340v340h223v-700h-223zM250 -224l55 174h225l-114 -174h-166z" />
    <glyph glyph-name="ncommaaccent" unicode="&#x146;" horiz-adv-x="615" 
d="M255 275v-275.001h-215v522h193l7 -59c37.333 46 87 69 149 69c56 0 101.833 -17.5 137.5 -52.5s53.5 -81.5 53.5 -139.5v-340h-215v275c0 40 -17.667 60 -53 60c-18 0 -32 -5.16699 -42 -15.5s-15 -25.166 -15 -44.499zM155 -224.001l55 174h225l-114 -174h-166z" />
    <glyph glyph-name="Ncaron" unicode="&#x147;" horiz-adv-x="790" 
d="M507 0l-226 358v-358h-221v700h234l213 -340v340h223v-700h-223zM620 920l-130 -174h-190l-130 174h184l46 -52l48 52h172z" />
    <glyph glyph-name="ncaron" unicode="&#x148;" horiz-adv-x="615" 
d="M255 275v-275.001h-215v522h193l7 -59c37.333 46 87 69 149 69c56 0 101.833 -17.5 137.5 -52.5s53.5 -81.5 53.5 -139.5v-340h-215v275c0 40 -17.667 60 -53 60c-18 0 -32 -5.16699 -42 -15.5s-15 -25.166 -15 -44.499zM536 739.999l-130 -174h-190l-130 174h184l46 -52
l48 52h172z" />
    <glyph glyph-name="Eng" unicode="&#x14a;" horiz-adv-x="790" 
d="M294 700l213.001 -339.999v340h223v-636c0 -72.667 -19.833 -129.834 -59.5 -171.501s-93.834 -62.5 -162.501 -62.5c-24.668 0 -46.835 2 -66.501 6c-19.667 4 -33.5 8 -41.5 12l-11 6l40 163c14.667 -4.66699 31.334 -7 50.001 -7l20 3l-218 345v-358h-221v700h234z
" />
    <glyph glyph-name="eng" unicode="&#x14b;" horiz-adv-x="615" 
d="M255 275l-0.000976562 -275h-215v522h193l7 -59c37.333 46 87 69 149 69c56 0 101.833 -17.5 137.5 -52.5s53.5 -81.5 53.5 -139.5v-255c0 -84 -20.167 -147.5 -60.5 -190.5s-99.166 -64.5 -176.499 -64.5c-12 0 -23.5 0.666992 -34.5 2s-19.167 2.66602 -24.5 3.99902
l-7 3l15 179c5.33301 -1.33301 13 -2 23 -2c16.667 0 29.167 3.83301 37.5 11.5s12.5 21.167 12.5 40.5v207c0 40 -17.667 60 -53 60c-18 0 -32 -5.16699 -42 -15.5s-15 -25.166 -15 -44.499z" />
    <glyph glyph-name="Omacron" unicode="&#x14c;" horiz-adv-x="815" 
d="M411 710c106 0 194.001 -34.1689 264.001 -102.502s105 -153.166 105 -254.499s-36.167 -187.166 -108.5 -257.499s-161.5 -105.5 -267.5 -105.5c-106.667 0 -194.834 34 -264.501 102s-104.5 152.667 -104.5 254c0 102 36 188.167 108 258.5s161.333 105.5 268 105.5z
M262.001 349.998c0 -42 14 -77.5 42 -106.5s62.333 -43.5 103 -43.5s75 14.5 103 43.5s42 64.5 42 106.5s-14 77.5 -42 106.5s-62.333 43.5 -103 43.5s-75 -14.5 -103 -43.5s-42 -64.5 -42 -106.5zM226.001 777.998v120h360v-120h-360z" />
    <glyph glyph-name="omacron" unicode="&#x14d;" horiz-adv-x="631" 
d="M319 532c83.333 0 152 -25.333 206 -76s81 -114.334 81 -191c0 -76.667 -28.167 -141.667 -84.5 -195s-126.166 -80 -209.499 -80s-152 25.5 -206 76.5s-81 114.833 -81 191.5s28.167 141.5 84.5 194.5s126.166 79.5 209.499 79.5zM239 261
c0 -22 7.16699 -40.167 21.5 -54.5s32.5 -21.5 54.5 -21.5s40.333 7.16699 55 21.5s22 32.5 22 54.5s-7.33301 40.333 -22 55s-33 22 -55 22s-40.167 -7.33301 -54.5 -22s-21.5 -33 -21.5 -55zM135 600v120h360v-120h-360z" />
    <glyph glyph-name="Obreve" unicode="&#x14e;" horiz-adv-x="815" 
d="M411 710c106 0 194.001 -34.1689 264.001 -102.502s105 -153.166 105 -254.499s-36.167 -187.166 -108.5 -257.499s-161.5 -105.5 -267.5 -105.5c-106.667 0 -194.834 34 -264.501 102s-104.5 152.667 -104.5 254c0 102 36 188.167 108 258.5s161.333 105.5 268 105.5z
M262.001 349.998c0 -42 14 -77.5 42 -106.5s62.333 -43.5 103 -43.5s75 14.5 103 43.5s42 64.5 42 106.5s-14 77.5 -42 106.5s-62.333 43.5 -103 43.5s-75 -14.5 -103 -43.5s-42 -64.5 -42 -106.5zM225.001 919.998h139v-15c0 -11.333 3.5 -20.833 10.5 -28.5
s17.167 -11.5 30.5 -11.5c26.667 0 40 13.333 40 40v15h142v-5c0 -50.667 -16.833 -91.5 -50.5 -122.5s-77.167 -46.5 -130.5 -46.5s-96.833 15.5 -130.5 46.5s-50.5 71.833 -50.5 122.5v5z" />
    <glyph glyph-name="obreve" unicode="&#x14f;" horiz-adv-x="631" 
d="M319 532c83.333 0 152 -25.333 206 -76s81 -114.334 81 -191c0 -76.667 -28.167 -141.667 -84.5 -195s-126.166 -80 -209.499 -80s-152 25.5 -206 76.5s-81 114.833 -81 191.5s28.167 141.5 84.5 194.5s126.166 79.5 209.499 79.5zM239 261
c0 -22 7.16699 -40.167 21.5 -54.5s32.5 -21.5 54.5 -21.5s40.333 7.16699 55 21.5s22 32.5 22 54.5s-7.33301 40.333 -22 55s-33 22 -55 22s-40.167 -7.33301 -54.5 -22s-21.5 -33 -21.5 -55zM134 740h139v-15c0 -11.333 3.5 -20.833 10.5 -28.5s17.167 -11.5 30.5 -11.5
c26.667 0 40 13.333 40 40v15h142v-5c0 -50.667 -16.833 -91.5 -50.5 -122.5s-77.167 -46.5 -130.5 -46.5s-96.833 15.5 -130.5 46.5s-50.5 71.833 -50.5 122.5v5z" />
    <glyph glyph-name="Ohungarumlaut" unicode="&#x150;" horiz-adv-x="815" 
d="M411 710c106 0 194.001 -34.1689 264.001 -102.502s105 -153.166 105 -254.499s-36.167 -187.166 -108.5 -257.499s-161.5 -105.5 -267.5 -105.5c-106.667 0 -194.834 34 -264.501 102s-104.5 152.667 -104.5 254c0 102 36 188.167 108 258.5s161.333 105.5 268 105.5z
M262.001 349.998c0 -42 14 -77.5 42 -106.5s62.333 -43.5 103 -43.5s75 14.5 103 43.5s42 64.5 42 106.5s-14 77.5 -42 106.5s-62.333 43.5 -103 43.5s-75 -14.5 -103 -43.5s-42 -64.5 -42 -106.5zM455.001 745.998l45 174h220l-105 -174h-160zM215.001 745.998l46 174h220
l-106 -174h-160z" />
    <glyph glyph-name="ohungarumlaut" unicode="&#x151;" horiz-adv-x="631" 
d="M319 532c83.333 0 152 -25.333 206 -76s81 -114.334 81 -191c0 -76.667 -28.167 -141.667 -84.5 -195s-126.166 -80 -209.499 -80s-152 25.5 -206 76.5s-81 114.833 -81 191.5s28.167 141.5 84.5 194.5s126.166 79.5 209.499 79.5zM239 261
c0 -22 7.16699 -40.167 21.5 -54.5s32.5 -21.5 54.5 -21.5s40.333 7.16699 55 21.5s22 32.5 22 54.5s-7.33301 40.333 -22 55s-33 22 -55 22s-40.167 -7.33301 -54.5 -22s-21.5 -33 -21.5 -55zM353 566l45 174h220l-105 -174h-160zM113 566l46 174h220l-106 -174h-160z" />
    <glyph glyph-name="OE" unicode="&#x152;" horiz-adv-x="1041" 
d="M1006 0l-582 0.000976562c-112 0 -204.833 32.833 -278.5 98.5s-110.5 148.5 -110.5 248.5s38 183.833 114 251.499c76 67.667 170 101.5 282 101.5h565v-197h-316v-67h266v-166h-266v-73h326v-197zM451 197.001v305.998h-30c-46.667 0 -85 -14.167 -115 -42.5
s-45 -65.166 -45 -110.499s15 -82.166 45 -110.499s68.333 -42.5 115 -42.5h30z" />
    <glyph glyph-name="oe" unicode="&#x153;" horiz-adv-x="975" 
d="M936 218l-329 0.00195312c6 -13.333 17.167 -24.833 33.5 -34.5s35.5 -14.5 57.5 -14.5c18 0 35 3 51 9s27.667 12 35 18l10 9l121 -127c-2 -2.66699 -4.83301 -5.83398 -8.5 -9.50098s-12.5 -10.667 -26.5 -21s-29.333 -19.333 -46 -27s-38.834 -14.667 -66.501 -21
s-57.167 -9.5 -88.5 -9.5c-74.667 0 -135.667 22 -183 66c-49.333 -44 -110.666 -66 -183.999 -66c-83.333 0 -152 25.5 -206 76.5s-81 114.833 -81 191.5s28.167 141.5 84.5 194.5s126.166 79.5 209.499 79.5c74.667 0 135.334 -21.667 182.001 -65
c48.667 43.333 109.334 65 182 65c74.667 0 137.834 -23.333 189.5 -70c51.667 -46.667 77.5 -102.334 77.5 -167.001c0 -14.667 -1.16699 -28.334 -3.5 -41c-2.33301 -12.667 -4.5 -22 -6.5 -28zM239 261.002c0 -22 7.16699 -40.167 21.5 -54.5s32.5 -21.5 54.5 -21.5
s40.333 7.16699 55 21.5s22 32.5 22 54.5s-7.33301 40.333 -22 55s-33 22 -55 22s-40.167 -7.33301 -54.5 -22s-21.5 -33 -21.5 -55zM678 384.002c-18.667 0 -34.167 -5.83398 -46.5 -17.501c-12.333 -11.668 -19.5 -25.835 -21.5 -42.5h135
c-1.33887 16.667 -8.17188 30.834 -20.5 42.501c-12.333 11.667 -27.833 17.5 -46.5 17.5z" />
    <glyph glyph-name="Racute" unicode="&#x154;" horiz-adv-x="710" 
d="M363 512l-74 -0.00195312v-132h74c24 0 42.667 5.83301 56 17.5s20 27.834 20 48.501s-6.66699 36.834 -20 48.501s-32 17.5 -56 17.5zM60 -0.00195312v700h335c80 0 145 -22.167 195 -66.5s75 -102.5 75 -174.5c0 -91.333 -38 -161 -114 -209l144 -250h-261l-107 209
h-38v-209h-229zM271 745.998l55 174h225l-114 -174h-166z" />
    <glyph glyph-name="racute" unicode="&#x155;" horiz-adv-x="440" 
d="M40 0v522h191l10 -84c35.333 62.667 93.333 94 174 94l-2 -220h-46c-38 0 -66.167 -8.5 -84.5 -25.5s-27.5 -45.5 -27.5 -85.5v-201h-215zM140 566l55 174h225l-114 -174h-166z" />
    <glyph glyph-name="Rcommaaccent" unicode="&#x156;" horiz-adv-x="710" 
d="M363 512l-74 -0.00195312v-132h74c24 0 42.667 5.83301 56 17.5s20 27.834 20 48.501s-6.66699 36.834 -20 48.501s-32 17.5 -56 17.5zM60 -0.00195312v700h335c80 0 145 -22.167 195 -66.5s75 -102.5 75 -174.5c0 -91.333 -38 -161 -114 -209l144 -250h-261l-107 209
h-38v-209h-229zM205 -224.002l55 174h225l-114 -174h-166z" />
    <glyph glyph-name="rcommaaccent" unicode="&#x157;" horiz-adv-x="440" 
d="M40 0v522h191l10 -84c35.333 62.667 93.333 94 174 94l-2 -220h-46c-38 0 -66.167 -8.5 -84.5 -25.5s-27.5 -45.5 -27.5 -85.5v-201h-215zM-20 -224l55 174h225l-114 -174h-166z" />
    <glyph glyph-name="Rcaron" unicode="&#x158;" horiz-adv-x="710" 
d="M363 512l-74 -0.00195312v-132h74c24 0 42.667 5.83301 56 17.5s20 27.834 20 48.501s-6.66699 36.834 -20 48.501s-32 17.5 -56 17.5zM60 -0.00195312v700h335c80 0 145 -22.167 195 -66.5s75 -102.5 75 -174.5c0 -91.333 -38 -161 -114 -209l144 -250h-261l-107 209
h-38v-209h-229zM571 919.998l-130 -174h-190l-130 174h184l46 -52l48 52h172z" />
    <glyph glyph-name="rcaron" unicode="&#x159;" horiz-adv-x="440" 
d="M40 0v522h191l10 -84c35.333 62.667 93.333 94 174 94l-2 -220h-46c-38 0 -66.167 -8.5 -84.5 -25.5s-27.5 -45.5 -27.5 -85.5v-201h-215zM444 740l-130 -174h-190l-130 174h184l46 -52l48 52h172z" />
    <glyph glyph-name="Sacute" unicode="&#x15a;" horiz-adv-x="605" 
d="M382 441c125.333 -57.333 188.003 -131.668 188.003 -223.001c0 -63.333 -25.833 -117.166 -77.5 -161.499s-116.834 -66.5 -195.5 -66.5c-34.667 0 -68.334 4 -101.001 12s-59.834 17.5 -81.501 28.5s-40.667 22.167 -57 33.5s-28.166 21 -35.499 29l-12 12l132 143
c6 -6 13.833 -13.167 23.5 -21.5s28.667 -19.5 57 -33.5s54.833 -21 79.5 -21c10 0 18.167 2.33301 24.5 7s9.5 10.334 9.5 17c0 10.667 -7.66699 21.834 -23 33.5c-15.333 11.667 -47 27.5 -95 47.5c-109.333 47.333 -164 118.666 -164 213.999
c0 64.667 24.167 117.334 72.5 158c48.333 40.667 111.833 61 190.5 61c30 0 59.333 -3.5 88 -10.5s52.667 -15.333 72 -25s36.666 -19.334 51.999 -29.001s26.666 -18.167 33.999 -25.5l11 -10l-132 -141c-4 4.66699 -9.83301 10.167 -17.5 16.5s-22.167 15 -43.5 26
s-42 16.5 -62 16.5c-22 0 -33 -7.33301 -33 -22c0 -9.33301 5.5 -17.666 16.5 -24.999s37.5 -20.666 79.5 -39.999zM227.003 745.998l55 174h225l-114 -174h-166z" />
    <glyph glyph-name="sacute" unicode="&#x15b;" horiz-adv-x="493" 
d="M314 331c48 -17.333 85.665 -40.499 112.998 -69.499s41 -61.167 41 -96.5c0 -54 -20 -96.667 -60 -128s-95.667 -47 -167 -47c-43.333 0 -84.666 7.16699 -123.999 21.5s-67.666 28.5 -84.999 42.5l-27 21l85 124c6 -4.66699 13.833 -10.334 23.5 -17.001
s27.334 -15.5 53.001 -26.5s48.834 -16.5 69.5 -16.5c12.667 0 19 4 19 12c0 10 -27 25 -81 45c-94 34.667 -141 91 -141 169c0 46.667 19.5 86.167 58.5 118.5s92.167 48.5 159.5 48.5c37.333 0 74.333 -6.33301 111 -19s64 -25 82 -37l26 -19l-82 -127
c-46.667 35.333 -89.334 53 -128.001 53c-12.667 0 -19 -3.66699 -19 -11c0 -10 24.333 -23.667 73 -41zM154.998 566.001l55 174h225l-114 -174h-166z" />
    <glyph glyph-name="Scircumflex" unicode="&#x15c;" horiz-adv-x="605" 
d="M382 441c125.333 -57.333 188.003 -131.668 188.003 -223.001c0 -63.333 -25.833 -117.166 -77.5 -161.499s-116.834 -66.5 -195.5 -66.5c-34.667 0 -68.334 4 -101.001 12s-59.834 17.5 -81.501 28.5s-40.667 22.167 -57 33.5s-28.166 21 -35.499 29l-12 12l132 143
c6 -6 13.833 -13.167 23.5 -21.5s28.667 -19.5 57 -33.5s54.833 -21 79.5 -21c10 0 18.167 2.33301 24.5 7s9.5 10.334 9.5 17c0 10.667 -7.66699 21.834 -23 33.5c-15.333 11.667 -47 27.5 -95 47.5c-109.333 47.333 -164 118.666 -164 213.999
c0 64.667 24.167 117.334 72.5 158c48.333 40.667 111.833 61 190.5 61c30 0 59.333 -3.5 88 -10.5s52.667 -15.333 72 -25s36.666 -19.334 51.999 -29.001s26.666 -18.167 33.999 -25.5l11 -10l-132 -141c-4 4.66699 -9.83301 10.167 -17.5 16.5s-22.167 15 -43.5 26
s-42 16.5 -62 16.5c-22 0 -33 -7.33301 -33 -22c0 -9.33301 5.5 -17.666 16.5 -24.999s37.5 -20.666 79.5 -39.999zM92.0029 745.998l130 174h190l130 -174h-184l-46 52l-48 -52h-172z" />
    <glyph glyph-name="scircumflex" unicode="&#x15d;" horiz-adv-x="493" 
d="M314 331c48 -17.333 85.665 -40.499 112.998 -69.499s41 -61.167 41 -96.5c0 -54 -20 -96.667 -60 -128s-95.667 -47 -167 -47c-43.333 0 -84.666 7.16699 -123.999 21.5s-67.666 28.5 -84.999 42.5l-27 21l85 124c6 -4.66699 13.833 -10.334 23.5 -17.001
s27.334 -15.5 53.001 -26.5s48.834 -16.5 69.5 -16.5c12.667 0 19 4 19 12c0 10 -27 25 -81 45c-94 34.667 -141 91 -141 169c0 46.667 19.5 86.167 58.5 118.5s92.167 48.5 159.5 48.5c37.333 0 74.333 -6.33301 111 -19s64 -25 82 -37l26 -19l-82 -127
c-46.667 35.333 -89.334 53 -128.001 53c-12.667 0 -19 -3.66699 -19 -11c0 -10 24.333 -23.667 73 -41zM26.998 566.001l130 174h190l130 -174h-184l-46 52l-48 -52h-172z" />
    <glyph glyph-name="Scedilla" unicode="&#x15e;" horiz-adv-x="605" 
d="M382 441c125.333 -57.333 188.003 -131.666 188.003 -222.999c0 -52.667 -18.5 -99.334 -55.5 -140.001s-85.5 -67.334 -145.5 -80.001c4 -12 6 -24.667 6 -38c0 -46.667 -17.5 -84.167 -52.5 -112.5s-75.5 -42.5 -121.5 -42.5c-18.667 0 -36.834 2.16699 -54.501 6.5
s-30.5 8.5 -38.5 12.5l-13 6l40 120c10 -6.66699 24 -10 42 -10c14 0 25.833 3.5 35.5 10.5s14.5 17.5 14.5 31.5c0 6.66699 -1 11.334 -3 14.001c-41.333 6.66699 -79.833 19.167 -115.5 37.5s-61.167 34.833 -76.5 49.5l-22 22l132 143c6 -6 13.833 -13.167 23.5 -21.5
s28.667 -19.5 57 -33.5s54.833 -21 79.5 -21c10 0 18.167 2.33301 24.5 7s9.5 10.334 9.5 17c0 10.667 -7.66699 21.834 -23 33.5c-15.333 11.667 -47 27.5 -95 47.5c-109.333 47.333 -164 118.666 -164 213.999c0 64.667 24.167 117.334 72.5 158
c48.333 40.667 111.833 61 190.5 61c30 0 59.333 -3.5 88 -10.5s52.667 -15.333 72 -25s36.666 -19.334 51.999 -29.001s26.666 -18.167 33.999 -25.5l11 -10l-132 -141c-4 4.66699 -9.83301 10.167 -17.5 16.5s-22.167 15 -43.5 26s-42 16.5 -62 16.5
c-22 0 -33 -7.33301 -33 -22c0 -9.33301 5.5 -17.666 16.5 -24.999s37.5 -20.666 79.5 -39.999z" />
    <glyph glyph-name="scedilla" unicode="&#x15f;" horiz-adv-x="493" 
d="M314 331c48 -17.333 85.668 -40.498 113.001 -69.498s41 -61.167 41 -96.5c0 -42 -12.667 -77.5 -38 -106.5s-61 -48.833 -107 -59.5c4 -12 6 -25 6 -39c0 -46.667 -17.5 -84.167 -52.5 -112.5s-75.5 -42.5 -121.5 -42.5c-18.667 0 -36.834 2.16699 -54.501 6.5
s-30.5 8.5 -38.5 12.5l-13 6l40 120c10 -6.66699 24 -10 42 -10c14 0 25.833 3.5 35.5 10.5s14.5 17.5 14.5 31.5c0 4.66699 -0.666992 9 -2 13c-32 5.33301 -62.5 14.666 -91.5 27.999s-50.167 25.333 -63.5 36l-19 16l85 124c6 -4.66699 13.833 -10.334 23.5 -17.001
s27.334 -15.5 53.001 -26.5s48.834 -16.5 69.5 -16.5c12.667 0 19 4 19 12c0 10 -27 25 -81 45c-94 34.667 -141 91 -141 169c0 46.667 19.5 86.167 58.5 118.5s92.167 48.5 159.5 48.5c37.333 0 74.333 -6.33301 111 -19s64 -25 82 -37l26 -19l-82 -127
c-46.667 35.333 -89.334 53 -128.001 53c-12.667 0 -19 -3.66699 -19 -11c0 -10 24.333 -23.667 73 -41z" />
    <glyph glyph-name="Scaron" unicode="&#x160;" horiz-adv-x="605" 
d="M382 441c125.333 -57.333 188.003 -131.668 188.003 -223.001c0 -63.333 -25.833 -117.166 -77.5 -161.499s-116.834 -66.5 -195.5 -66.5c-34.667 0 -68.334 4 -101.001 12s-59.834 17.5 -81.501 28.5s-40.667 22.167 -57 33.5s-28.166 21 -35.499 29l-12 12l132 143
c6 -6 13.833 -13.167 23.5 -21.5s28.667 -19.5 57 -33.5s54.833 -21 79.5 -21c10 0 18.167 2.33301 24.5 7s9.5 10.334 9.5 17c0 10.667 -7.66699 21.834 -23 33.5c-15.333 11.667 -47 27.5 -95 47.5c-109.333 47.333 -164 118.666 -164 213.999
c0 64.667 24.167 117.334 72.5 158c48.333 40.667 111.833 61 190.5 61c30 0 59.333 -3.5 88 -10.5s52.667 -15.333 72 -25s36.666 -19.334 51.999 -29.001s26.666 -18.167 33.999 -25.5l11 -10l-132 -141c-4 4.66699 -9.83301 10.167 -17.5 16.5s-22.167 15 -43.5 26
s-42 16.5 -62 16.5c-22 0 -33 -7.33301 -33 -22c0 -9.33301 5.5 -17.666 16.5 -24.999s37.5 -20.666 79.5 -39.999zM535.003 919.998l-130 -174h-190l-130 174h184l46 -52l48 52h172z" />
    <glyph glyph-name="scaron" unicode="&#x161;" horiz-adv-x="495" 
d="M314 331c48 -17.333 85.665 -40.499 112.998 -69.499s41 -61.167 41 -96.5c0 -54 -20 -96.667 -60 -128s-95.667 -47 -167 -47c-43.333 0 -84.666 7.16699 -123.999 21.5s-67.666 28.5 -84.999 42.5l-27 21l85 124c6 -4.66699 13.833 -10.334 23.5 -17.001
s27.334 -15.5 53.001 -26.5s48.834 -16.5 69.5 -16.5c12.667 0 19 4 19 12c0 10 -27 25 -81 45c-94 34.667 -141 91 -141 169c0 46.667 19.5 86.167 58.5 118.5s92.167 48.5 159.5 48.5c37.333 0 74.333 -6.33301 111 -19s64 -25 82 -37l26 -19l-82 -127
c-46.667 35.333 -89.334 53 -128.001 53c-12.667 0 -19 -3.66699 -19 -11c0 -10 24.333 -23.667 73 -41zM479.998 740.001l-130 -174h-190l-130 174h184l46 -52l48 52h172z" />
    <glyph glyph-name="Tcommaaccent" unicode="&#x162;" horiz-adv-x="590" 
d="M585 501h-176v-501h-226v501h-178v199h580v-199zM128 -224l55 174h225l-114 -174h-166z" />
    <glyph glyph-name="tcommaaccent" unicode="&#x163;" horiz-adv-x="470" 
d="M320 640l0.000976562 -118h120v-167h-120v-133c0 -23.333 11.333 -35 34 -35c9.33398 0 19.167 0.5 29.5 1.5s18.5 2.16699 24.5 3.5l9 2l23 -178c-44.667 -17.333 -95.334 -26 -152 -26c-56.667 0 -101.334 14.5 -134.001 43.5s-49 69.833 -49 122.5v199h-85v167h85v118
h215zM118.001 -224l55 174h225l-114 -174h-166z" />
    <glyph glyph-name="Tcaron" unicode="&#x164;" horiz-adv-x="590" 
d="M585 501h-176v-501h-226v501h-178v199h580v-199zM520 920l-130 -174h-190l-130 174h184l46 -52l48 52h172z" />
    <glyph glyph-name="tcaron" unicode="&#x165;" horiz-adv-x="530" 
d="M320 640l0.000976562 -118h120v-167h-120v-133c0 -23.333 11.333 -35 34 -35c9.33398 0 19.167 0.5 29.5 1.5s18.5 2.16699 24.5 3.5l9 2l23 -178c-44.667 -17.333 -95.334 -26 -152 -26c-56.667 0 -101.334 14.5 -134.001 43.5s-49 69.833 -49 122.5v199h-85v167h85v118
h215zM505.001 570h-155l30 220h210z" />
    <glyph glyph-name="Tbar" unicode="&#x166;" horiz-adv-x="590" 
d="M585 501h-176v-112h157v-115h-157v-274h-226v274h-159v115h159v112h-178v199h580v-199z" />
    <glyph glyph-name="tbar" unicode="&#x167;" horiz-adv-x="470" 
d="M320 640l0.000976562 -117.999h120v-160h-120v-33h120v-117h-120v-3c0 -18.667 10.333 -28 31 -28c9.33301 0 19.5 0.833008 30.5 2.5s19.833 3.16699 26.5 4.5l9 2l23 -172c-42.667 -18.667 -93.334 -28 -152 -28c-56.667 0 -101.334 14.667 -134.001 44
s-49 70.666 -49 123.999v54h-85v117h85v33h-85v160h85v118h215z" />
    <glyph glyph-name="Utilde" unicode="&#x168;" horiz-adv-x="740" 
d="M466 700l224.001 0.000976562v-404c0 -92.667 -29.5 -166.834 -88.5 -222.501s-136.833 -83.5 -233.5 -83.5c-98.667 0 -176.334 26.667 -233.001 80s-85 126.333 -85 219v411h231v-402c0 -30.667 8 -55 24 -73s38.667 -27 68 -27c29.334 0 52.167 9 68.5 27
s24.5 42.333 24.5 73v402zM283.001 755.001l-96.0029 12c0 4 0.333008 9.66699 1 17s3.33398 20 8 38c4.66699 18 10.834 34 18.5 48c7.66699 14 19.667 26.667 36 38c16.334 11.333 35.167 17 56.5 17c21.334 0 40.167 -4.5 56.5 -13.5c16.334 -9 30.167 -18 41.5 -27
s22 -13.5 32 -13.5c6.66699 0 12.334 3.66699 17.001 11s7.33398 14.666 8.00098 21.999l2 11l96 -12c0 -4 -0.333008 -9.66699 -1 -17s-3.33398 -20 -8.00098 -38s-10.834 -34 -18.501 -48s-19.667 -26.667 -36 -38s-35.166 -17 -56.499 -17s-40.166 4.5 -56.499 13.5
s-30.166 18 -41.499 27s-22 13.5 -32 13.5c-6.66797 0 -12.335 -3.66699 -17 -11c-4.66699 -7.33887 -7.66699 -14.6719 -9 -21.999z" />
    <glyph glyph-name="utilde" unicode="&#x169;" horiz-adv-x="615" 
d="M360 247v275.001h215v-522h-193l-7 59c-37.333 -46 -87 -69 -149 -69c-56 0 -101.833 17.5 -137.5 52.5s-53.5 81.5 -53.5 139.5v340h215v-275c0 -40 17.667 -60 53 -60c18 0 32 5.16699 42 15.5s15 25.166 15 44.499zM218 575.001l-96.001 12.001
c0 4 0.333008 9.66699 1 17s3.33398 20 8.00098 38s10.834 34 18.5 48c7.66699 14 19.667 26.667 36 38s35.166 17 56.499 17c21.334 0 40.167 -4.5 56.5 -13.5c16.334 -9 30.167 -18 41.5 -27s22 -13.5 32 -13.5c6.66699 0 12.334 3.66699 17.001 11
s7.66699 14.666 9 21.999l1 11l96 -12c0 -4 -0.333008 -9.66699 -1 -17c-0.668945 -7.33301 -3.33594 -20 -8.00098 -38c-4.66992 -18 -10.8369 -34 -18.5 -48c-7.66699 -14 -19.667 -26.667 -36 -38s-35.166 -17 -56.499 -17s-40.166 4.5 -56.499 13.5
s-30.166 18 -41.499 27s-22 13.5 -32 13.5c-6.66699 0 -12.334 -3.66699 -17.001 -11c-4.66699 -7.33789 -7.33398 -14.6709 -8.00098 -22z" />
    <glyph glyph-name="Umacron" unicode="&#x16a;" horiz-adv-x="740" 
d="M466 700l224.001 0.000976562v-404c0 -92.667 -29.5 -166.834 -88.5 -222.501s-136.833 -83.5 -233.5 -83.5c-98.667 0 -176.334 26.667 -233.001 80s-85 126.333 -85 219v411h231v-402c0 -30.667 8 -55 24 -73s38.667 -27 68 -27c29.334 0 52.167 9 68.5 27
s24.5 42.333 24.5 73v402zM193.001 778.001v120h360v-120h-360z" />
    <glyph glyph-name="umacron" unicode="&#x16b;" horiz-adv-x="615" 
d="M360 247v275.001h215v-522h-193l-7 59c-37.333 -46 -87 -69 -149 -69c-56 0 -101.833 17.5 -137.5 52.5s-53.5 81.5 -53.5 139.5v340h215v-275c0 -40 17.667 -60 53 -60c18 0 32 5.16699 42 15.5s15 25.166 15 44.499zM127 600.001v120h360v-120h-360z" />
    <glyph glyph-name="Ubreve" unicode="&#x16c;" horiz-adv-x="740" 
d="M466 700l224.001 0.000976562v-404c0 -92.667 -29.5 -166.834 -88.5 -222.501s-136.833 -83.5 -233.5 -83.5c-98.667 0 -176.334 26.667 -233.001 80s-85 126.333 -85 219v411h231v-402c0 -30.667 8 -55 24 -73s38.667 -27 68 -27c29.334 0 52.167 9 68.5 27
s24.5 42.333 24.5 73v402zM191.001 920.001h139v-15c0 -11.333 3.5 -20.833 10.5 -28.5s17.167 -11.5 30.5 -11.5c26.667 0 40 13.333 40 40v15h142v-5c0 -50.667 -16.833 -91.5 -50.5 -122.5s-77.167 -46.5 -130.5 -46.5s-96.833 15.5 -130.5 46.5
s-50.5 71.833 -50.5 122.5v5z" />
    <glyph glyph-name="ubreve" unicode="&#x16d;" horiz-adv-x="615" 
d="M360 247v275.001h215v-522h-193l-7 59c-37.333 -46 -87 -69 -149 -69c-56 0 -101.833 17.5 -137.5 52.5s-53.5 81.5 -53.5 139.5v340h215v-275c0 -40 17.667 -60 53 -60c18 0 32 5.16699 42 15.5s15 25.166 15 44.499zM126 740.001h139v-15
c0 -11.333 3.5 -20.833 10.5 -28.5s17.167 -11.5 30.5 -11.5c26.667 0 40 13.333 40 40v15h142v-5c0 -50.667 -16.833 -91.5 -50.5 -122.5s-77.167 -46.5 -130.5 -46.5s-96.833 15.5 -130.5 46.5s-50.5 71.833 -50.5 122.5v5z" />
    <glyph glyph-name="Uring" unicode="&#x16e;" horiz-adv-x="740" 
d="M466 700l224.001 0.000976562v-404c0 -92.667 -29.5 -166.834 -88.5 -222.501s-136.833 -83.5 -233.5 -83.5c-98.667 0 -176.334 26.667 -233.001 80s-85 126.333 -85 219v411h231v-402c0 -30.667 8 -55 24 -73s38.667 -27 68 -27c29.334 0 52.167 9 68.5 27
s24.5 42.333 24.5 73v402zM374.001 945.001c33.333 0 60.5 -10 81.5 -30s31.5 -45.333 31.5 -76c0 -31.3359 -10.5 -57.1689 -31.5 -77.499c-21 -20.333 -48.167 -30.5 -81.5 -30.5s-60.333 10.167 -81 30.5s-31 46.166 -31 77.499c0 30.667 10.333 56 31 76
s47.667 30 81 30zM374.001 802.001c11.333 0 20.332 3.33301 26.999 10s10 15 10 25s-3.33301 18.5 -10 25.5s-15.667 10.5 -27 10.5s-20.166 -3.5 -26.499 -10.5s-9.5 -15.5 -9.5 -25.5s3.16699 -18.333 9.5 -25c6.33496 -6.66699 15.168 -10 26.5 -10z" />
    <glyph glyph-name="uring" unicode="&#x16f;" horiz-adv-x="615" 
d="M360 247v275.001h215v-522h-193l-7 59c-37.333 -46 -87 -69 -149 -69c-56 0 -101.833 17.5 -137.5 52.5s-53.5 81.5 -53.5 139.5v340h215v-275c0 -40 17.667 -60 53 -60c18 0 32 5.16699 42 15.5s15 25.166 15 44.499zM305 767.001c33.333 0 60.5 -9.99902 81.5 -29.999
s31.5 -45.333 31.5 -76c0 -31.3359 -10.5 -57.1689 -31.5 -77.5c-21 -20.333 -48.167 -30.5 -81.5 -30.5s-60.333 10.167 -81 30.5s-31 46.166 -31 77.499c0 30.667 10.333 56 31 76s47.667 30 81 30zM305 624.002c11.333 0 20.333 3.33301 27 10s10 15 10 25
s-3.33301 18.5 -10 25.5s-15.667 10.5 -27 10.5s-20.166 -3.5 -26.499 -10.5s-9.5 -15.5 -9.5 -25.5s3.16699 -18.333 9.5 -25c6.33398 -6.66699 15.167 -10 26.499 -10z" />
    <glyph glyph-name="Uhungarumlaut" unicode="&#x170;" horiz-adv-x="740" 
d="M466 700l224.001 0.000976562v-404c0 -92.667 -29.5 -166.834 -88.5 -222.501s-136.833 -83.5 -233.5 -83.5c-98.667 0 -176.334 26.667 -233.001 80s-85 126.333 -85 219v411h231v-402c0 -30.667 8 -55 24 -73s38.667 -27 68 -27c29.334 0 52.167 9 68.5 27
s24.5 42.333 24.5 73v402zM409.001 746.001l45 174h220l-105 -174h-160zM169.001 746.001l46 174h220l-106 -174h-160z" />
    <glyph glyph-name="uhungarumlaut" unicode="&#x171;" horiz-adv-x="615" 
d="M360 247v275.001h215v-522h-193l-7 59c-37.333 -46 -87 -69 -149 -69c-56 0 -101.833 17.5 -137.5 52.5s-53.5 81.5 -53.5 139.5v340h215v-275c0 -40 17.667 -60 53 -60c18 0 32 5.16699 42 15.5s15 25.166 15 44.499zM349 566.001l45 174h220l-105 -174h-160z
M109 566.001l46 174h220l-106 -174h-160z" />
    <glyph glyph-name="Uogonek" unicode="&#x172;" horiz-adv-x="740" 
d="M466 700l223.999 0.00195312v-404c0 -78 -21.333 -143.333 -64 -196s-100.667 -86.334 -174 -101.001c-7.33301 -5.33301 -11 -13 -11 -23c0 -8 3.16699 -14.667 9.5 -20c6.33496 -5.33301 15.168 -8 26.5 -8c6.66699 0 13.334 0.666992 20.001 2
s11.667 2.66602 15 3.99902l4 2l39 -112c-26 -20.667 -60 -31 -102 -31c-41.333 0 -76.333 12.5 -105 37.5s-43 59.5 -43 103.5c0 14.667 2 28 6 40c-82 9.33301 -146 40 -192 92s-69 119.667 -69 203v411h231v-402c0 -30.667 8 -55 24 -73s38.667 -27 68 -27
c29.334 0 52.167 9 68.5 27s24.5 42.333 24.5 73v402z" />
    <glyph glyph-name="uogonek" unicode="&#x173;" horiz-adv-x="615" 
d="M360 247l0.000976562 275.002h215v-522h-70c-9.33301 -4.66699 -14 -12.667 -14 -24c0 -8 3.16699 -14.667 9.5 -20s15.166 -8 26.499 -8c6.6709 0 13.3379 0.666992 20 2c6.66699 1.33301 11.667 2.66602 15 3.99902l4 2l39 -112c-26 -20.667 -60 -31 -102 -31
c-41.333 0 -76.333 12.5 -105 37.5s-43 59.5 -43 103.5c0 28 8 52.333 24 73l-4 32c-37.333 -46 -87 -69 -149 -69c-56 0 -101.833 17.5 -137.5 52.5s-53.5 81.5 -53.5 139.5v340h215v-275c0 -40 17.667 -60 53 -60c18 0 32 5.16699 42 15.5s15 25.166 15 44.499z" />
    <glyph glyph-name="Wcircumflex" unicode="&#x174;" horiz-adv-x="1025" 
d="M222 0l-232 700h250l101 -354l95 354h163l97 -354l99 354h240l-234 -700h-195l-94 324l-90 -324h-200zM291 746l130 174h190l130 -174h-184l-46 52l-48 -52h-172z" />
    <glyph glyph-name="wcircumflex" unicode="&#x175;" horiz-adv-x="815" 
d="M151 0l-166 522h231l57 -245l60 245h161l56 -239l58 239h222l-166 -522h-203l-53 204l-54 -204h-203zM182 566l130 174h190l130 -174h-184l-46 52l-48 -52h-172z" />
    <glyph glyph-name="Ycircumflex" unicode="&#x176;" horiz-adv-x="710" 
d="M241 0v240l-251 460h261l110 -241l108 241h251l-253 -460v-240h-226zM136 746l130 174h190l130 -174h-184l-46 52l-48 -52h-172z" />
    <glyph glyph-name="ycircumflex" unicode="&#x177;" horiz-adv-x="566" 
d="M171 22l-186.001 499.999h239l67 -270l65 270h225l-193 -527c-20.667 -57.333 -49.167 -99.166 -85.5 -125.499s-83.5 -39.5 -141.5 -39.5c-30.667 0 -60.667 3.83301 -90 11.5s-51 15.167 -65 22.5l-21 12l63 167c30.667 -16.667 63.334 -25 98.001 -25zM65.999 565.999
l130 174h190l130 -174h-184l-46 52l-48 -52h-172z" />
    <glyph glyph-name="Ydieresis" unicode="&#x178;" horiz-adv-x="710" 
d="M241 0v240l-251 460h261l110 -241l108 241h251l-253 -460v-240h-226zM240 948c30 0 54.833 -9.83301 74.5 -29.5s29.5 -44.5 29.5 -74.5s-10 -55 -30 -75s-45 -30 -75 -30s-54.833 9.83301 -74.5 29.5s-29.5 44.5 -29.5 74.5s10 55 30 75s45 30 75 30zM483 948
c30 0 54.833 -9.83301 74.5 -29.5s29.5 -44.5 29.5 -74.5s-10 -55 -30 -75s-45 -30 -75 -30s-54.833 9.83301 -74.5 29.5s-29.5 44.5 -29.5 74.5s10 55 30 75s45 30 75 30z" />
    <glyph glyph-name="Zacute" unicode="&#x179;" horiz-adv-x="700" 
d="M660 0h-620v169l315 340h-295v191h600v-167l-315 -340h315v-193zM275 746l55 174h225l-114 -174h-166z" />
    <glyph glyph-name="zacute" unicode="&#x17a;" horiz-adv-x="555" 
d="M30 156l203 191h-188v175h480v-154l-201 -188h201v-180h-495v156zM202 566l55 174h225l-114 -174h-166z" />
    <glyph glyph-name="Zdotaccent" unicode="&#x17b;" horiz-adv-x="700" 
d="M660 0h-620v169l315 340h-295v191h600v-167l-315 -340h315v-193zM265 837c0 28.667 10 52.667 30 72s44.667 29 74 29c29.334 0 54.167 -9.66699 74.5 -29s30.5 -43.333 30.5 -72s-10 -52.5 -30 -71.5s-45 -28.5 -75 -28.5c-29.333 0 -54 9.5 -74 28.5
s-30 42.833 -30 71.5z" />
    <glyph glyph-name="zdotaccent" unicode="&#x17c;" horiz-adv-x="555" 
d="M30 156l203 191h-188v175h480v-154l-201 -188h201v-180h-495v156zM187 659c0 28.667 10 52.667 30 72s44.667 29 74 29c29.334 0 54.167 -9.66699 74.5 -29s30.5 -43.333 30.5 -72s-10 -52.5 -30 -71.5s-45 -28.5 -75 -28.5c-29.333 0 -54 9.5 -74 28.5
s-30 42.833 -30 71.5z" />
    <glyph glyph-name="Zcaron" unicode="&#x17d;" horiz-adv-x="700" 
d="M660 0h-620v169l315 340h-295v191h600v-167l-315 -340h315v-193zM585 920l-130 -174h-190l-130 174h184l46 -52l48 52h172z" />
    <glyph glyph-name="zcaron" unicode="&#x17e;" horiz-adv-x="555" 
d="M30 156l203 191h-188v175h480v-154l-201 -188h201v-180h-495v156zM505 740l-130 -174h-190l-130 174h184l46 -52l48 52h172z" />
    <glyph glyph-name="florin" unicode="&#x192;" 
d="M315 -160h-215.001l33 423h-108v126h117l7 83c6.66699 76.667 32 135.5 76 176.5s102.333 61.5 175 61.5c28.667 0 55.334 -4.16699 80.001 -12.5s44.667 -18.5 60 -30.5s28.5 -24 39.5 -36s18.833 -22.333 23.5 -31l7 -12l-151 -105c-9.33301 20 -25.333 30 -48 30
c-29.333 0 -45.333 -16 -48 -48l-7 -76h154v-126h-162z" />
    <glyph glyph-name="Aringacute" unicode="&#x1fa;" horiz-adv-x="740" 
d="M482 700l268 -699.999h-252l-29 96h-212l-29 -96h-238l266 700h8c-4 10.6719 -6 23.3389 -6 38c0 35.333 13 63 39 83l29 99h225l-83 -128c10 -16 15 -34 15 -54c0 -14.667 -2 -27.334 -6 -38.001h5zM364 439.001l-53 -172h105zM370 701.001
c11.333 0 20.332 3.33301 26.999 10s10 15 10 25s-3.33301 18.5 -10 25.5s-15.667 10.5 -27 10.5s-20.166 -3.5 -26.499 -10.5s-9.5 -15.5 -9.5 -25.5s3.16699 -18.333 9.5 -25c6.33496 -6.66699 15.168 -10 26.5 -10z" />
    <glyph glyph-name="aringacute" unicode="&#x1fb;" horiz-adv-x="580" 
d="M220 311c39.334 0 72.665 -5.66602 99.998 -16.999v2c0 16 -8 29.5 -24 40.5s-36 16.5 -60 16.5c-18 0 -36 -2.33301 -54 -7c-18 -4.66895 -31.333 -9.33594 -40 -14l-14 -7l-83 137c40.667 31.333 95.334 52.666 164.001 63.999c-9.33301 16.6689 -14 35.3359 -14 56
c0 39.333 16 69 48 89l20 69h225l-76 -117c5.33301 -14 8 -27.667 8 -41c0 -26.667 -8.33301 -50 -25 -70c44 -17.333 78.333 -44.833 103 -82.5s37 -83.5 37 -137.5v-292h-169l-13 32c-39.333 -28 -86.666 -42 -141.999 -42c-60.667 0 -108.5 14.167 -143.5 42.5
s-52.5 66.5 -52.5 114.5s19 87.333 57 118s87.333 46 148 46zM229.998 156.001c0 -11.334 4.33301 -20.665 13 -27.998s20 -11 34 -11s25.5 3.66699 34.5 11s13.5 16.666 13.5 27.999s-4.5 20.666 -13.5 27.999s-20.5 11 -34.5 11s-25.333 -3.66699 -34 -11
c-8.66699 -7.33398 -13 -16.667 -13 -28zM306.998 545.003c11.333 0 20.333 3.33301 27 10s10 15 10 25s-3.33301 18.5 -10 25.5s-15.667 10.5 -27 10.5s-20.166 -3.5 -26.499 -10.5s-9.5 -15.5 -9.5 -25.5s3.16699 -18.333 9.5 -25c6.33398 -6.66699 15.167 -10 26.499 -10
z" />
    <glyph glyph-name="AEacute" unicode="&#x1fc;" horiz-adv-x="1075" 
d="M364 267h121v247zM1030 503h-316v-67h266v-166h-266v-73h326v-197h-555v96h-205l-48 -96h-252l385 700h665v-197zM628 746l55 174h225l-114 -174h-166z" />
    <glyph glyph-name="aeacute" unicode="&#x1fd;" horiz-adv-x="903" 
d="M220 311c39.334 0 72.668 -5.66504 100.001 -16.998v1c0 16.667 -7.83301 30.5 -23.5 41.5s-35.834 16.5 -60.5 16.5c-18 0 -36 -2.33301 -54 -7c-18 -4.66895 -31.333 -9.33594 -40 -14l-14 -7l-83 137c6.66699 5.33301 16.334 11.833 29.001 19.5s40.167 18 82.5 31
s86.166 19.5 131.499 19.5c60 0 111.333 -17 154 -51c46.667 34 103 51 169 51c74.667 0 137.834 -23.333 189.5 -70c51.667 -46.667 77.5 -102.334 77.5 -167.001c0 -14.667 -1.16699 -28.334 -3.5 -41c-2.33301 -12.667 -4.5 -22 -6.5 -28l-4 -8h-329
c6 -13.333 17.167 -24.833 33.5 -34.5s35.5 -14.5 57.5 -14.5c18 0 35 3 51 9s27.667 12 35 18l10 9l121 -127c-2 -2.66699 -4.83301 -5.83398 -8.5 -9.50098s-12.5 -10.667 -26.5 -21s-29.333 -19.333 -46 -27s-38.834 -14.667 -66.501 -21s-57.167 -9.5 -88.5 -9.5
c-78 0 -138 20 -180 60c-50.667 -40 -112.334 -60 -185 -60c-70.667 0 -126.167 14.5 -166.5 43.5s-60.5 67.5 -60.5 115.5s19 87 57 117s87.333 45 148 45zM230.001 156.002c0 -11.334 4.33301 -20.665 13 -27.998s20 -11 34 -11s25.5 3.66699 34.5 11
s13.5 16.666 13.5 27.999s-4.5 20.666 -13.5 27.999s-20.5 11 -34.5 11s-25.333 -3.66699 -34 -11c-8.66699 -7.33398 -13 -16.667 -13 -28zM606.001 384.004c-18.667 0 -34.167 -5.83398 -46.5 -17.501c-12.333 -11.668 -19.5 -25.835 -21.5 -42.5h135
c-1.33887 16.667 -8.17188 30.834 -20.5 42.501c-12.333 11.667 -27.833 17.5 -46.5 17.5zM360.001 566.003l55 174h225l-114 -174h-166z" />
    <glyph glyph-name="Oslashacute" unicode="&#x1fe;" horiz-adv-x="815" 
d="M411 710c68 0 130.334 -15.6689 187 -47.002l56 67h137l-108 -131c64.667 -66.667 97 -148.667 97 -246c0 -101.333 -36.167 -187.166 -108.5 -257.499s-161.5 -105.5 -267.5 -105.5c-68.667 0 -131 15 -187 45l-54 -65h-142l109 131
c-63.333 66.667 -95 148.334 -95 245.001c0 102 36 188.167 108 258.5s161.333 105.5 268 105.5zM256.001 349.998c0 -28 6 -53.667 18 -77l185 223c-18 6.66699 -35.333 10 -52 10c-42.667 0 -78.5 -15 -107.5 -45s-43.5 -67 -43.5 -111zM558.001 349.998
c0 25.334 -6 50.667 -18 76l-185 -223c16 -6 33.333 -9 52 -9c42.667 0 78.5 15 107.5 45s43.5 67 43.5 111zM321.001 745.998l55 174h225l-114 -174h-166z" />
    <glyph glyph-name="oslashacute" unicode="&#x1ff;" horiz-adv-x="631" 
d="M319 532c43.333 0 84.334 -8.00098 123.001 -24.001l36 47h123l-75 -100c53.333 -50 80 -113.333 80 -190s-28.167 -141.667 -84.5 -195s-126.166 -80 -209.499 -80c-40.667 0 -81.334 7.66699 -122.001 23l-32 -43h-128l74 97c-52.667 50.667 -79 114.334 -79 191.001
s28.167 141.5 84.5 194.5s126.166 79.5 209.499 79.5zM210.001 260.999c0 -16.667 2.99902 -31.333 8.99902 -44l112 147c-3.33301 0.666992 -8.66602 1 -15.999 1c-30 0 -55 -9.83301 -75 -29.5s-30 -44.5 -30 -74.5zM420 261c0 15.334 -3 29.668 -9 43l-110 -146h14
c30 0 55 9.66699 75 29s30 44 30 74zM230 566.001l55 174h225l-114 -174h-166z" />
    <glyph glyph-name="Scommaaccent" unicode="&#x218;" horiz-adv-x="605" 
d="M382 441c125.333 -57.333 188.003 -131.668 188.003 -223.001c0 -63.333 -25.833 -117.166 -77.5 -161.499s-116.834 -66.5 -195.5 -66.5c-34.667 0 -68.334 4 -101.001 12s-59.834 17.5 -81.501 28.5s-40.667 22.167 -57 33.5s-28.166 21 -35.499 29l-12 12l132 143
c6 -6 13.833 -13.167 23.5 -21.5s28.667 -19.5 57 -33.5s54.833 -21 79.5 -21c10 0 18.167 2.33301 24.5 7s9.5 10.334 9.5 17c0 10.667 -7.66699 21.834 -23 33.5c-15.333 11.667 -47 27.5 -95 47.5c-109.333 47.333 -164 118.666 -164 213.999
c0 64.667 24.167 117.334 72.5 158c48.333 40.667 111.833 61 190.5 61c30 0 59.333 -3.5 88 -10.5s52.667 -15.333 72 -25s36.666 -19.334 51.999 -29.001s26.666 -18.167 33.999 -25.5l11 -10l-132 -141c-4 4.66699 -9.83301 10.167 -17.5 16.5s-22.167 15 -43.5 26
s-42 16.5 -62 16.5c-22 0 -33 -7.33301 -33 -22c0 -9.33301 5.5 -17.666 16.5 -24.999s37.5 -20.666 79.5 -39.999zM138.003 -224.002l55 174h225l-114 -174h-166z" />
    <glyph glyph-name="scommaaccent" unicode="&#x219;" horiz-adv-x="493" 
d="M314 331c48 -17.333 85.665 -40.499 112.998 -69.499s41 -61.167 41 -96.5c0 -54 -20 -96.667 -60 -128s-95.667 -47 -167 -47c-43.333 0 -84.666 7.16699 -123.999 21.5s-67.666 28.5 -84.999 42.5l-27 21l85 124c6 -4.66699 13.833 -10.334 23.5 -17.001
s27.334 -15.5 53.001 -26.5s48.834 -16.5 69.5 -16.5c12.667 0 19 4 19 12c0 10 -27 25 -81 45c-94 34.667 -141 91 -141 169c0 46.667 19.5 86.167 58.5 118.5s92.167 48.5 159.5 48.5c37.333 0 74.333 -6.33301 111 -19s64 -25 82 -37l26 -19l-82 -127
c-46.667 35.333 -89.334 53 -128.001 53c-12.667 0 -19 -3.66699 -19 -11c0 -10 24.333 -23.667 73 -41zM69.998 -223.999l55 174h225l-114 -174h-166z" />
    <glyph glyph-name="circumflex" unicode="&#x2c6;" horiz-adv-x="530" 
d="M40 566l130 174h190l130 -174h-184l-46 52l-48 -52h-172z" />
    <glyph glyph-name="caron" unicode="&#x2c7;" horiz-adv-x="530" 
d="M490 740l-130 -174h-190l-130 174h184l46 -52l48 52h172z" />
    <glyph glyph-name="breve" unicode="&#x2d8;" horiz-adv-x="452" 
d="M45 740h139v-15c0 -11.333 3.5 -20.833 10.5 -28.5s17.167 -11.5 30.5 -11.5c26.667 0 40 13.333 40 40v15h142v-5c0 -50.667 -16.833 -91.5 -50.5 -122.5s-77.167 -46.5 -130.5 -46.5s-96.833 15.5 -130.5 46.5s-50.5 71.833 -50.5 122.5v5z" />
    <glyph glyph-name="dotaccent" unicode="&#x2d9;" horiz-adv-x="279" 
d="M35 659c0 28.667 10.001 52.667 30.001 72s44.667 29 74 29s54.166 -9.66699 74.499 -29s30.5 -43.333 30.5 -72s-10 -52.5 -30 -71.5s-45 -28.5 -75 -28.5c-29.333 0 -54 9.5 -74 28.5s-30 42.833 -30 71.5z" />
    <glyph glyph-name="ring" unicode="&#x2da;" horiz-adv-x="320" 
d="M160 767c33.333 0 60.5 -9.99902 81.5 -29.999s31.5 -45.333 31.5 -76c0 -31.3359 -10.5 -57.1689 -31.5 -77.5c-21 -20.333 -48.167 -30.5 -81.5 -30.5s-60.333 10.167 -81 30.5s-31 46.166 -31 77.499c0 30.667 10.333 56 31 76s47.667 30 81 30zM160 624.001
c11.333 0 20.333 3.33301 27 10s10 15 10 25s-3.33301 18.5 -10 25.5s-15.667 10.5 -27 10.5s-20.166 -3.5 -26.499 -10.5s-9.5 -15.5 -9.5 -25.5s3.16699 -18.333 9.5 -25s15.166 -10 26.499 -10z" />
    <glyph glyph-name="ogonek" unicode="&#x2db;" horiz-adv-x="345" 
d="M155 79l50 -78.999c-9.33301 -4.66699 -14 -12.667 -14 -24c0 -8 3.16699 -14.667 9.5 -20s15.166 -8 26.499 -8c6.66699 0 13.334 0.666992 20 2c6.66797 1.33301 11.668 2.66602 15 3.99902l4 2l39 -112c-26 -20.667 -60 -31 -102 -31
c-41.333 0 -76.333 12.5 -105 37.5s-43 59.5 -43 103.5c0 18 3.5 34.667 10.5 50s15.333 27.5 25 36.5s19.334 16.5 29.001 22.5s17.834 10.333 24.5 13z" />
    <glyph glyph-name="tilde" unicode="&#x2dc;" horiz-adv-x="467" 
d="M142 575l-95.999 12.001c0 4 0.333008 9.66699 1 17s3.33398 20 8.00098 38s10.834 34 18.501 48s19.667 26.667 36 38s35.166 17 56.499 17s40.166 -4.5 56.499 -13.5s30.166 -18 41.499 -27s22 -13.5 32 -13.5c6.66699 0 12.334 3.66699 17.001 11
s7.66699 14.666 9 21.999l1 11l96 -12c0 -4 -0.333008 -9.66699 -1 -17s-3.33398 -20 -8 -38c-4.66992 -18 -10.8369 -34 -18.501 -48c-7.66699 -14 -19.667 -26.667 -36 -38s-35.166 -17 -56.499 -17s-40.166 4.5 -56.499 13.5c-16.334 9 -30.167 18 -41.5 27
s-22 13.5 -32 13.5c-6.66699 0 -12.334 -3.66699 -17.001 -11c-4.66699 -7.33789 -7.33398 -14.6709 -8.00098 -22z" />
    <glyph glyph-name="hungarumlaut" unicode="&#x2dd;" horiz-adv-x="570" 
d="M274 566l45 174h220l-105 -174h-160zM34 566l46 174h220l-106 -174h-160z" />
    <glyph glyph-name="Delta" unicode="&#x394;" horiz-adv-x="750" 
d="M369 442l-66 -238h136zM-10 0l273 700h229l268 -700h-770z" />
    <glyph glyph-name="Delta" unicode="&#x2206;" horiz-adv-x="750" 
d="M369 442l-66 -238h136zM-10 0l273 700h229l268 -700h-770z" />
    <glyph glyph-name="pi" unicode="&#x3c0;" horiz-adv-x="730" 
d="M20 350l-0.000976562 172h680v-172h-95v-140c0 -19.333 10.333 -29 31 -29l34 5l30 -171c-30 -16.667 -75.333 -25 -136 -25c-53.333 0 -95.666 14.167 -126.999 42.5s-47 68.5 -47 120.5v197h-60v-350h-215v350h-95z" />
    <glyph glyph-name="Wgrave" unicode="&#x1e80;" horiz-adv-x="1025" 
d="M222 0l-232 700h250l101 -354l95 354h163l97 -354l99 354h240l-234 -700h-195l-94 324l-90 -324h-200zM537 920l55 -174h-166l-114 174h225z" />
    <glyph glyph-name="wgrave" unicode="&#x1e81;" horiz-adv-x="815" 
d="M151 0l-166 522h231l57 -245l60 245h161l56 -239l58 239h222l-166 -522h-203l-53 204l-54 -204h-203zM437 740l55 -174h-166l-114 174h225z" />
    <glyph glyph-name="Wacute" unicode="&#x1e82;" horiz-adv-x="1025" 
d="M222 0l-232 700h250l101 -354l95 354h163l97 -354l99 354h240l-234 -700h-195l-94 324l-90 -324h-200zM442 746l55 174h225l-114 -174h-166z" />
    <glyph glyph-name="wacute" unicode="&#x1e83;" horiz-adv-x="815" 
d="M151 0l-166 522h231l57 -245l60 245h161l56 -239l58 239h222l-166 -522h-203l-53 204l-54 -204h-203zM337 566l55 174h225l-114 -174h-166z" />
    <glyph glyph-name="Wdieresis" unicode="&#x1e84;" horiz-adv-x="1025" 
d="M222 0l-232 700h250l101 -354l95 354h163l97 -354l99 354h240l-234 -700h-195l-94 324l-90 -324h-200zM395 948c30 0 54.833 -9.83301 74.5 -29.5s29.5 -44.5 29.5 -74.5s-10 -55 -30 -75s-45 -30 -75 -30s-54.833 9.83301 -74.5 29.5s-29.5 44.5 -29.5 74.5s10 55 30 75
s45 30 75 30zM638 948c30 0 54.833 -9.83301 74.5 -29.5s29.5 -44.5 29.5 -74.5s-10 -55 -30 -75s-45 -30 -75 -30s-54.833 9.83301 -74.5 29.5s-29.5 44.5 -29.5 74.5s10 55 30 75s45 30 75 30z" />
    <glyph glyph-name="wdieresis" unicode="&#x1e85;" horiz-adv-x="815" 
d="M151 0l-166 522h231l57 -245l60 245h161l56 -239l58 239h222l-166 -522h-203l-53 204l-54 -204h-203zM285 768c30 0 54.833 -9.83301 74.5 -29.5s29.5 -44.5 29.5 -74.5s-10 -55 -30 -75s-45 -30 -75 -30s-54.833 9.83301 -74.5 29.5s-29.5 44.5 -29.5 74.5s10 55 30 75
s45 30 75 30zM528 768c30 0 54.833 -9.83301 74.5 -29.5s29.5 -44.5 29.5 -74.5s-10 -55 -30 -75s-45 -30 -75 -30s-54.833 9.83301 -74.5 29.5s-29.5 44.5 -29.5 74.5s10 55 30 75s45 30 75 30z" />
    <glyph glyph-name="uni1E9E" unicode="&#x1e9e;" horiz-adv-x="715" 
d="M660 605l-113.999 -168.002c92.667 -41.333 139 -109.666 139 -204.999c0 -70 -24.833 -127.833 -74.5 -173.5s-116.5 -68.5 -200.5 -68.5c-14.667 0 -30.5 0.666992 -47.5 2s-30.5 2.66602 -40.5 3.99902l-14 2l27 195c20.667 -4.66699 38 -7 52 -7
c48 0 72 17.667 72 53c0 13.333 -6.16699 24.333 -18.5 33s-30.5 13 -54.5 13h-52v139l56 91c-6 2 -12.667 3 -20 3c-28 0 -50.167 -9.66699 -66.5 -29s-24.5 -47.666 -24.5 -84.999v-404h-229v390c0 98 29.833 175.833 89.5 233.5s138.167 86.5 235.5 86.5
c34 0 67.167 -3.66699 99.5 -11s59.166 -16 80.499 -26s40.333 -20.167 57 -30.5c16.667 -10.3379 28.667 -19.1709 36 -26.499z" />
    <glyph glyph-name="Ygrave" unicode="&#x1ef2;" horiz-adv-x="710" 
d="M241 0v240l-251 460h261l110 -241l108 241h251l-253 -460v-240h-226zM385 920l55 -174h-166l-114 174h225z" />
    <glyph glyph-name="ygrave" unicode="&#x1ef3;" horiz-adv-x="566" 
d="M171 22l-186.001 499.999h239l67 -270l65 270h225l-193 -527c-20.667 -57.333 -49.167 -99.166 -85.5 -125.499s-83.5 -39.5 -141.5 -39.5c-30.667 0 -60.667 3.83301 -90 11.5s-51 15.167 -65 22.5l-21 12l63 167c30.667 -16.667 63.334 -25 98.001 -25z
M317.999 739.999l55 -174h-166l-114 174h225z" />
    <glyph glyph-name="endash" unicode="&#x2013;" horiz-adv-x="570" 
d="M520 257h-470v190h470v-190z" />
    <glyph glyph-name="emdash" unicode="&#x2014;" horiz-adv-x="900" 
d="M850 257h-800v190h800v-190z" />
    <glyph glyph-name="quoteleft" unicode="&#x2018;" horiz-adv-x="336" 
d="M131 700h165l-30 -360h-226z" />
    <glyph glyph-name="quoteright" unicode="&#x2019;" horiz-adv-x="336" 
d="M205 340h-165l30 360h226z" />
    <glyph glyph-name="quotesinglbase" unicode="&#x201a;" horiz-adv-x="336" 
d="M205 -130h-165l30 360h226z" />
    <glyph glyph-name="quotedblleft" unicode="&#x201c;" horiz-adv-x="619" 
d="M414 700h165l-30 -360h-226zM131 700h165l-30 -360h-226z" />
    <glyph glyph-name="quotedblright" unicode="&#x201d;" horiz-adv-x="619" 
d="M488 340h-165l30 360h226zM205 340h-165l30 360h226z" />
    <glyph glyph-name="quotedblbase" unicode="&#x201e;" horiz-adv-x="619" 
d="M488 -130h-165l30 360h226zM205 -130h-165l30 360h226z" />
    <glyph glyph-name="dagger" unicode="&#x2020;" horiz-adv-x="425" 
d="M385 473h-104v-213h-140v213h-101v124h101v103h140v-103h104v-124z" />
    <glyph glyph-name="daggerdbl" unicode="&#x2021;" horiz-adv-x="425" 
d="M385 473h-104v-96h104v-123h-104v-104h-140v104h-101v123h101v96h-101v124h101v103h140v-103h104v-124z" />
    <glyph glyph-name="bullet" unicode="&#x2022;" horiz-adv-x="464" 
d="M234 541c54.667 0 99.999 -18 135.999 -54s54 -81.333 54 -136s-18.333 -100.667 -55 -138s-82.334 -56 -137 -56c-55.333 0 -101.166 18.167 -137.499 54.5s-54.5 82.166 -54.5 137.499c0 54.667 18.667 100.334 56 137.001s83.333 55 138 55z" />
    <glyph glyph-name="perthousand" unicode="&#x2030;" horiz-adv-x="1120" 
d="M112 0l410 600h136l-410 -600h-136zM159 450c0 -10.667 3.5 -19.667 10.5 -27s16.167 -11 27.5 -11s20.5 3.66699 27.5 11s10.5 16.333 10.5 27s-3.5 19.667 -10.5 27s-16.167 11 -27.5 11s-20.5 -3.66699 -27.5 -11s-10.5 -16.333 -10.5 -27zM30 448
c0 45.333 16.5 83.666 49.5 114.999s72.833 47 119.5 47s85.834 -15 117.501 -45s47.5 -67.667 47.5 -113s-16.5 -83.666 -49.5 -114.999s-72.833 -47 -119.5 -47s-85.834 15 -117.501 45s-47.5 67.667 -47.5 113zM535 150c0 -10.667 3.5 -19.667 10.5 -27
s16.167 -11 27.5 -11s20.5 3.66699 27.5 11s10.5 16.333 10.5 27s-3.5 19.667 -10.5 27s-16.167 11 -27.5 11s-20.5 -3.66699 -27.5 -11s-10.5 -16.333 -10.5 -27zM406 148c0 45.333 16.501 83.666 49.501 114.999s72.833 47 119.499 47c46.667 0 85.834 -15 117.501 -45
s47.5 -67.667 47.5 -113s-16.5 -83.666 -49.5 -114.999s-72.833 -47 -119.5 -47s-85.834 15 -117.501 45s-47.5 67.667 -47.5 113zM885.001 150c0 -10.667 3.5 -19.667 10.5 -27s16.167 -11 27.5 -11s20.5 3.66699 27.5 11s10.5 16.333 10.5 27s-3.5 19.667 -10.5 27
s-16.167 11 -27.5 11s-20.5 -3.66699 -27.5 -11s-10.5 -16.333 -10.5 -27zM756.001 148c0 45.333 16.5 83.666 49.5 114.999s72.833 47 119.5 47c46.668 0 85.835 -15 117.501 -45c31.667 -30 47.5 -67.667 47.5 -113s-16.5 -83.666 -49.5 -114.999s-72.833 -47 -119.5 -47
s-85.834 15 -117.501 45s-47.5 67.667 -47.5 113z" />
    <glyph glyph-name="guilsinglleft" unicode="&#x2039;" horiz-adv-x="479" 
d="M394 500l-123 -148l123 -145l-111 -118l-233 226v70l233 229z" />
    <glyph glyph-name="guilsinglright" unicode="&#x203a;" horiz-adv-x="479" 
d="M85 200l123 148l-123 145l111 118l233 -226v-70l-233 -229z" />
    <glyph glyph-name="fraction" unicode="&#x2044;" horiz-adv-x="230" 
d="M-190 0l478 700h132l-473 -700h-137z" />
    <glyph glyph-name="zerosuperior" unicode="&#x2070;" horiz-adv-x="393" 
d="M169 553v-121c0 -20.667 9 -31 27 -31c18.667 0 28 10.333 28 31v121c0 20.667 -9.33301 31 -28 31c-18 0 -27 -10.333 -27 -31zM30 438l-0.00195312 101c0 52.667 16 93.667 48 123s72 44 120 44c50 0 90 -13.667 120 -41s45 -67.333 45 -120v-104
c0 -50.667 -16.167 -91.167 -48.5 -121.5s-72.166 -45.5 -119.499 -45.5c-49.333 0 -89.166 14.167 -119.499 42.5s-45.5 68.833 -45.5 121.5z" />
    <glyph glyph-name="foursuperior" unicode="&#x2074;" horiz-adv-x="383" 
d="M121 459h68v97zM10 467l167 233h138v-241h58v-104h-58v-75h-126v75h-179v112z" />
    <glyph glyph-name="fivesuperior" unicode="&#x2075;" horiz-adv-x="365" 
d="M39 438l-0.00195312 262h285v-116h-164v-35c17.333 8.66699 35.333 13 54 13c38.667 0 70.167 -12.667 94.5 -38s36.5 -56 36.5 -92c0 -48 -15.167 -86.333 -45.5 -115s-71.166 -43 -122.499 -43c-21.333 0 -41.166 3.16699 -59.499 9.5s-33.166 14 -44.499 23
s-21.333 18 -30 27s-14.667 16.5 -18 22.5l-5 10l100 66c1.33301 -2.66699 3.33301 -6.16699 6 -10.5s8.83398 -10 18.5 -17c9.66699 -7 20.167 -10.5 31.5 -10.5s20.166 3.16699 26.499 9.5s9.5 14.5 9.5 24.5c0 7.33301 -2.66699 14 -8 20c-5.33398 6 -12.667 9 -22 9
c-6.66699 0 -12.5 -1.5 -17.5 -4.5s-8.5 -6.16699 -10.5 -9.5l-3 -5h-112z" />
    <glyph glyph-name="sixsuperior" unicode="&#x2076;" horiz-adv-x="373" 
d="M224 563c35.334 0 65.667 -12.001 91 -36.001s38 -54.333 38 -91c0 -49.333 -16 -88.666 -48 -117.999s-72 -44 -120 -44c-45.333 0 -84.166 14.5 -116.499 43.5s-48.5 65.5 -48.5 109.5c0 42.667 14 85.667 42 129l93 144h148l-95 -139
c5.33301 1.33301 10.666 2 15.999 2zM152 430.999c0 -10 3.16699 -18.167 9.5 -24.5s14.5 -9.5 24.5 -9.5s18.167 3.16699 24.5 9.5s9.5 14.5 9.5 24.5s-3.16699 18.167 -9.5 24.5s-14.5 9.5 -24.5 9.5s-18.167 -3.16699 -24.5 -9.5s-9.5 -14.5 -9.5 -24.5z" />
    <glyph glyph-name="sevensuperior" unicode="&#x2077;" horiz-adv-x="340" 
d="M24 280l141 300h-144v120h298v-97l-144 -323h-151z" />
    <glyph glyph-name="eightsuperior" unicode="&#x2078;" horiz-adv-x="376" 
d="M191 706c44.667 0 81.001 -10.667 109.001 -32s42 -50.333 42 -87c0 -29.334 -12.667 -56.667 -38 -82c34.667 -25.333 52 -56.333 52 -93c0 -40 -16 -73 -48 -99s-73 -39 -123 -39c-48.667 0 -88.334 12.5 -119.001 37.5s-46 57.5 -46 97.5c0 32.667 16.667 64 50 94
c-22.667 22 -34 49 -34 81c0 37.333 14.167 67 42.5 89s65.833 33 112.5 33zM150.001 421c0 -10.667 3.5 -19.5 10.5 -26.5s16.167 -10.5 27.5 -10.5s20.5 3.5 27.5 10.5s10.5 15.833 10.5 26.5s-3.5 19.5 -10.5 26.5s-16.167 10.5 -27.5 10.5s-20.5 -3.5 -27.5 -10.5
s-10.5 -15.833 -10.5 -26.5zM159.001 574c0 -8 2.83301 -14.667 8.5 -20s12.5 -8 20.5 -8s14.833 2.66699 20.5 8s8.5 12 8.5 20s-2.83301 14.667 -8.5 20s-12.5 8 -20.5 8s-14.833 -2.66699 -20.5 -8s-8.5 -12 -8.5 -20z" />
    <glyph glyph-name="ninesuperior" unicode="&#x2079;" horiz-adv-x="373" 
d="M149 417c-35.333 0 -65.666 12.001 -90.999 36.001s-38 54.333 -38 91c0 49.333 16 88.666 48 117.999s72 44 120 44c45.333 0 84.166 -14.5 116.499 -43.5s48.5 -65.5 48.5 -109.5c0 -42.667 -14 -85.667 -42 -129l-93 -144h-148l95 139
c-5.33398 -1.33301 -10.667 -2 -16 -2zM221 549.001c0 10 -3.16699 18.167 -9.5 24.5s-14.5 9.5 -24.5 9.5s-18.167 -3.16699 -24.5 -9.5s-9.5 -14.5 -9.5 -24.5s3.16699 -18.167 9.5 -24.5s14.5 -9.5 24.5 -9.5s18.167 3.16699 24.5 9.5s9.5 14.5 9.5 24.5z" />
    <glyph glyph-name="zeroinferior" unicode="&#x2080;" horiz-adv-x="393" 
d="M169 273v-121c0 -20.667 9 -31 27 -31c18.667 0 28 10.333 28 31v121c0 20.667 -9.33301 31 -28 31c-18 0 -27 -10.333 -27 -31zM30 158l-0.00195312 101c0 52.667 16 93.667 48 123s72 44 120 44c50 0 90 -13.667 120 -41s45 -67.333 45 -120v-104
c0 -50.667 -16.167 -91.167 -48.5 -121.5s-72.166 -45.5 -119.499 -45.5c-49.333 0 -89.166 14.167 -119.499 42.5s-45.5 68.833 -45.5 121.5z" />
    <glyph glyph-name="oneinferior" unicode="&#x2081;" horiz-adv-x="323" 
d="M10 309l157 111h116v-420h-138v261l-69 -41z" />
    <glyph glyph-name="twoinferior" unicode="&#x2082;" horiz-adv-x="356" 
d="M33 107l126.001 115.999c26 24 39 43.333 39 58c0 6.66699 -2.5 12.334 -7.5 17.001s-11.833 7 -20.5 7c-9.33301 0 -18.333 -3.33301 -27 -10c-8.66699 -6.66797 -15 -13.335 -19 -20.001l-6 -10l-98 65c1.33301 2.66699 3 6.16699 5 10.5s7.5 12 16.5 23
s19.167 20.667 30.5 29s27 16 47 23s42 10.5 66 10.5c46 0 82.667 -12.667 110 -38s41 -56.666 41 -93.999c0 -28.667 -6.83301 -54 -20.5 -76s-35.834 -44.667 -66.501 -68l-43 -32h127v-118h-300v107z" />
    <glyph glyph-name="threeinferior" unicode="&#x2083;" horiz-adv-x="364" 
d="M123 257l42 0.000976562c10.667 0 18.834 2.66699 24.5 8c5.66699 5.33496 8.5 11.668 8.5 18.999c0 8 -2.83301 14.5 -8.5 19.5s-12.5 7.5 -20.5 7.5s-15.167 -2.16699 -21.5 -6.5s-10.833 -8.83301 -13.5 -13.5l-3 -7l-96 50l5 10c2 4 7.16699 11.333 15.5 22
s17.666 20 27.999 28s24.666 15.333 42.999 22s37.833 10 58.5 10c42.667 0 77.834 -10.5 105.501 -31.5s41.5 -49.5 41.5 -85.5c0 -37.333 -17.333 -67.333 -52 -90c42.667 -22.667 64 -55.334 64 -98.001c0 -40 -14.833 -71.167 -44.5 -93.5s-69.834 -33.5 -120.501 -33.5
c-22 0 -42.667 3.33301 -62 10s-34.666 14.834 -45.999 24.501s-21 19.5 -29 29.5s-13.667 18.333 -17 25l-5 10l99 54c1.33301 -2.66699 3.33301 -6.16699 6 -10.5s8.83398 -10 18.501 -17s20.5 -10.5 32.5 -10.5c10.667 0 19 2.83301 25 8.5s9 12.167 9 19.5
c0 20 -13.667 30 -41 30h-46v90z" />
    <glyph glyph-name="fourinferior" unicode="&#x2084;" horiz-adv-x="383" 
d="M121 179h68v97zM10 187l167 233h138v-241h58v-104h-58v-75h-126v75h-179v112z" />
    <glyph glyph-name="fiveinferior" unicode="&#x2085;" horiz-adv-x="365" 
d="M39 158l-0.00195312 262h285v-116h-164v-35c17.333 8.66699 35.333 13 54 13c38.667 0 70.167 -12.667 94.5 -38s36.5 -56 36.5 -92c0 -48 -15.167 -86.333 -45.5 -115s-71.166 -43 -122.499 -43c-21.333 0 -41.166 3.16699 -59.499 9.5s-33.166 14 -44.499 23
s-21.333 18 -30 27s-14.667 16.5 -18 22.5l-5 10l100 66c1.33301 -2.66699 3.33301 -6.16699 6 -10.5s8.83398 -10 18.5 -17c9.66699 -7 20.167 -10.5 31.5 -10.5s20.166 3.16699 26.499 9.5s9.5 14.5 9.5 24.5c0 7.33301 -2.66699 14 -8 20c-5.33398 6 -12.667 9 -22 9
c-6.66699 0 -12.5 -1.5 -17.5 -4.5s-8.5 -6.16699 -10.5 -9.5l-3 -5h-112z" />
    <glyph glyph-name="sixinferior" unicode="&#x2086;" horiz-adv-x="373" 
d="M224 283c35.334 0 65.667 -12.001 91 -36.001s38 -54.333 38 -91c0 -49.333 -16 -88.666 -48 -117.999s-72 -44 -120 -44c-45.333 0 -84.166 14.5 -116.499 43.5s-48.5 65.5 -48.5 109.5c0 42.667 14 85.667 42 129l93 144h148l-95 -139
c5.33301 1.33301 10.666 2 15.999 2zM152 150.999c0 -10 3.16699 -18.167 9.5 -24.5s14.5 -9.5 24.5 -9.5s18.167 3.16699 24.5 9.5s9.5 14.5 9.5 24.5s-3.16699 18.167 -9.5 24.5s-14.5 9.5 -24.5 9.5s-18.167 -3.16699 -24.5 -9.5s-9.5 -14.5 -9.5 -24.5z" />
    <glyph glyph-name="seveninferior" unicode="&#x2087;" horiz-adv-x="340" 
d="M24 0l141 300h-144v120h298v-97l-144 -323h-151z" />
    <glyph glyph-name="eightinferior" unicode="&#x2088;" horiz-adv-x="376" 
d="M191 426c44.667 0 81.001 -10.668 109.001 -32.001s42 -50.333 42 -87c0 -29.333 -12.667 -56.666 -38 -81.999c34.667 -25.333 52 -56.333 52 -93c0 -40 -16 -73 -48 -99s-73 -39 -123 -39c-48.667 0 -88.334 12.5 -119.001 37.5s-46 57.5 -46 97.5
c0 32.667 16.667 64 50 94c-22.667 22 -34 49 -34 81c0 37.333 14.167 67 42.5 89s65.833 33 112.5 33zM150.001 140.999c0 -10.667 3.5 -19.5 10.5 -26.5s16.167 -10.5 27.5 -10.5s20.5 3.5 27.5 10.5s10.5 15.833 10.5 26.5s-3.5 19.5 -10.5 26.5s-16.167 10.5 -27.5 10.5
s-20.5 -3.5 -27.5 -10.5s-10.5 -15.833 -10.5 -26.5zM159.001 293.999c0 -8 2.83301 -14.667 8.5 -20s12.5 -8 20.5 -8s14.833 2.66699 20.5 8s8.5 12 8.5 20s-2.83301 14.667 -8.5 20s-12.5 8 -20.5 8s-14.833 -2.66699 -20.5 -8s-8.5 -12 -8.5 -20z" />
    <glyph glyph-name="nineinferior" unicode="&#x2089;" horiz-adv-x="373" 
d="M149 137c-35.333 0 -65.666 12 -90.999 36s-38 54.333 -38 91c0 49.334 16 88.667 48 118s72 44 120 44c45.333 0 84.166 -14.5 116.499 -43.5s48.5 -65.5 48.5 -109.5c0 -42.667 -14 -85.667 -42 -129l-93 -144h-148l95 139c-5.33398 -1.33301 -10.667 -2 -16 -2z
M221 269c0 10 -3.16699 18.167 -9.5 24.5s-14.5 9.5 -24.5 9.5s-18.167 -3.16699 -24.5 -9.5s-9.5 -14.5 -9.5 -24.5s3.16699 -18.167 9.5 -24.5s14.5 -9.5 24.5 -9.5s18.167 3.16699 24.5 9.5s9.5 14.5 9.5 24.5z" />
    <glyph glyph-name="Euro" unicode="&#x20ac;" 
d="M510 231l-200.002 -0.00195312c1.33301 -15.333 7.83301 -28.333 19.5 -39s26.167 -16 43.5 -16c15.333 0 28.833 3.33301 40.5 10s19.167 13.334 22.5 20l6 9l168 -90c-2 -3.33301 -4.66699 -8.16602 -8 -14.499c-3.33789 -6.33301 -11.6709 -17.166 -25 -32.499
c-13.3379 -15.333 -28.1709 -29 -44.5 -41c-16.333 -12 -38.666 -22.833 -66.999 -32.5s-58.833 -14.5 -91.5 -14.5c-78.667 0 -143.5 21.167 -194.5 63.5s-77.5 101.5 -79.5 177.5h-75v104h75v32h-75v102h75c4.66699 74 33.5 132.667 86.5 176s117.833 65 194.5 65
c32.667 0 62.834 -4.66699 90.501 -14c27.667 -9.33594 49.667 -20.6689 66 -34c16.333 -13.333 30.333 -26.5 42 -39.5c11.6709 -13 19.8379 -24.167 24.5 -33.5l6 -14l-169 -89c0 1.33301 -0.5 2.83301 -1.5 4.5s-3.16699 4.83398 -6.5 9.50098s-7.33301 8.66699 -12 12
s-11.167 6.5 -19.5 9.5s-17.833 4.5 -28.5 4.5c-17.333 0 -31.833 -5.33301 -43.5 -16c-11.667 -10.6689 -18.167 -24.3359 -19.5 -41.001h220v-102h-220v-32h200v-104z" />
    <glyph glyph-name="trademark" unicode="&#x2122;" horiz-adv-x="784" 
d="M525 428l-58 103v-146h-109v315h116l78 -142l79 142h113v-315h-110v145l-57 -102h-52zM320 597h-83v-212h-114v212h-83v103h280v-103z" />
    <glyph glyph-name="minus" unicode="&#x2212;" 
d="M575 259h-525v188h525v-188z" />
    <glyph glyph-name="fi" unicode="&#xfb01;" horiz-adv-x="762" 
d="M320 502v-10.001h115v-167h-115v-325h-215v325h-85v167h85v29c0 58.667 16.833 104.834 50.5 138.5c33.667 33.667 80.167 50.5 139.5 50.5c29.333 0 56.5 -2 81.5 -6s42.833 -8 53.5 -12l15 -5l-23 -154c-14.667 5.33301 -33 8 -55 8c-15.333 0 -27 -3.66699 -35 -11
c-8 -7.33691 -12 -16.6699 -12 -27.999zM500 -0.000976562v522h217v-522h-217zM479 659.999c0 33.333 12.3311 61 36.998 83c24.668 22 55.335 33 92.001 33c36.667 0 67.5 -11 92.5 -33s37.5 -49.667 37.5 -83c0 -32.667 -12.333 -60 -37 -82s-55.667 -33 -93 -33
c-37.334 0 -68.167 11 -92.499 33c-24.333 22 -36.5 49.333 -36.5 82z" />
    <glyph glyph-name="fl" unicode="&#xfb02;" horiz-adv-x="762" 
d="M320 502v-10.001h115v-167h-115v-325h-215v325h-85v167h85v29c0 58.667 16.833 104.834 50.5 138.5c33.667 33.667 80.167 50.5 139.5 50.5c29.333 0 56.5 -2 81.5 -6s42.833 -8 53.5 -12l15 -5l-23 -154c-14.667 5.33301 -33 8 -55 8c-15.333 0 -27 -3.66699 -35 -11
c-8 -7.33691 -12 -16.6699 -12 -27.999zM500 -0.000976562v700h217v-700h-217z" />
    <glyph glyph-name=".null" horiz-adv-x="0" 
 />
    <glyph glyph-name="nonmarkingreturn" horiz-adv-x="333" 
 />
    <glyph glyph-name="one.onum" horiz-adv-x="510" 
d="M5 464l263 176h172v-640h-207v395l-126 -77z" />
    <glyph glyph-name="two.onum" horiz-adv-x="541" 
d="M39 164l221.001 190c30 25.334 45 47.667 45 67c0 12 -4.16699 22.167 -12.5 30.5s-20.5 12.5 -36.5 12.5c-14 0 -27.833 -5 -41.5 -15s-23.834 -19.667 -30.501 -29l-10 -15l-154 85c1.33301 4.66699 3.66602 10.5 6.99902 17.5s11.833 19.667 25.5 38
s29.334 34.5 47.001 48.5s42.667 26.833 75 38.5s67.5 17.5 105.5 17.5c68 0 124 -19.167 168 -57.5s66 -85.833 66 -142.5c0 -80 -43 -152 -129 -216l-74 -55h198v-179h-470v164z" />
    <glyph glyph-name="three.onum" horiz-adv-x="543" 
d="M184 390l45.9951 -0.00195312c18.667 0 33.167 4.5 43.5 13.5s15.5 21.167 15.5 36.5c0 12.667 -4.33301 22.834 -13 30.501s-19.667 11.5 -33 11.5c-12.667 0 -23.5 -4.33301 -32.5 -13s-15.167 -17 -18.5 -25l-4 -13l-159 62c1.33301 4 3.33301 9.66699 6 17
s9.83398 20 21.501 38s25.334 33.833 41.001 47.5s37.834 26.167 66.501 37.5s60.667 17 96 17c63.333 0 118 -16.833 164 -50.5s69 -77.167 69 -130.5c0 -56 -24.333 -103 -73 -141c62 -31.333 93 -80 93 -146c0 -58.667 -24.167 -105.334 -72.5 -140.001
s-110.5 -52 -186.5 -52c-38 0 -72.667 5.83301 -104 17.5s-55.666 25.834 -72.999 42.501s-31.833 33.334 -43.5 50.001s-19.5 30.667 -23.5 42l-6 18l169 66l2.5 -7.5c1 -3 3.66699 -8.5 8 -16.5s9.33301 -15 15 -21s13.334 -11.5 23.001 -16.5s20.167 -7.5 31.5 -7.5
c16 0 28.667 4.83301 38 14.5s14 20.834 14 33.5c0 34 -24.333 51 -73 51h-48v134z" />
    <glyph glyph-name="four.onum" horiz-adv-x="585" 
d="M174 263h106v149zM6 269l269 371h201v-377h100v-149h-100v-114h-196v114h-274v155z" />
    <glyph glyph-name="five.onum" horiz-adv-x="568" 
d="M63 244l-0.000976562 395.998h440v-177h-257v-57c22 13.333 48.667 20 80 20c63.333 0 114.5 -18.667 153.5 -56s58.5 -83.666 58.5 -138.999c0 -72.667 -24.333 -131 -73 -175s-111.334 -66 -188 -66c-33.333 0 -64.666 5.16699 -93.999 15.5s-53 23 -71 38
s-33.5 30 -46.5 45s-22.167 27.5 -27.5 37.5l-8 16l152 91c2 -4.66699 5.33301 -10.667 10 -18s14.834 -17 30.5 -29c15.667 -12 32.5 -18 50.5 -18c17.333 0 31 4.83301 41 14.5s15 22.5 15 38.5c0 12.667 -4.5 23.834 -13.5 33.501s-20.833 14.5 -35.5 14.5
c-10 0 -19 -2.16699 -27 -6.5s-13.667 -8.5 -17 -12.5l-4 -6h-169z" />
    <glyph glyph-name="six.onum" horiz-adv-x="585" 
d="M109 444l136 196.001h232l-156 -204c9.33301 2 19.333 3 30 3c56 0 104 -18.833 144 -56.5s60 -85.834 60 -144.501c0 -74 -26 -133.833 -78 -179.5s-114.667 -68.5 -188 -68.5c-69.333 0 -129.833 22.667 -181.5 68s-77.5 103 -77.5 173c0 38 6.33301 73 19 105
s32.667 68 60 108zM235 238.001c0 -16.667 5.33301 -30.167 16 -40.5s24.334 -15.5 41.001 -15.5c17.333 0 31.333 5.16699 42 15.5s16 23.833 16 40.5s-5.33301 30.167 -16 40.5s-24.667 15.5 -42 15.5c-16.668 0 -30.335 -5.16699 -41.001 -15.5
c-10.667 -10.333 -16 -23.833 -16 -40.5z" />
    <glyph glyph-name="seven.onum" horiz-adv-x="505" 
d="M50 0l207 455h-238v185h470v-142l-212 -498h-227z" />
    <glyph glyph-name="eight.onum" horiz-adv-x="585" 
d="M296 650c70 0 127 -17 171 -51s66 -79 66 -135c0 -45.333 -18.333 -84.333 -55 -117c51.333 -44 77 -93 77 -147c0 -60 -25.167 -110 -75.5 -150s-113.5 -60 -189.5 -60s-138.333 19 -187 57s-73 87 -73 147c0 53.333 26.667 102.333 80 147
c-37.333 28 -56 67.667 -56 119c0 56 22.833 101.667 68.5 137s103.5 53 173.5 53zM249 445c0 -12 4.16699 -21.833 12.5 -29.5s18.5 -11.5 30.5 -11.5c12.667 0 23.167 3.83301 31.5 11.5s12.5 17.5 12.5 29.5s-4.33301 22 -13 30s-19 12 -31 12s-22.167 -4 -30.5 -12
s-12.5 -18 -12.5 -30zM231 216c0 -18 5.66699 -32.667 17 -44s26 -17 44 -17s32.833 5.66699 44.5 17s17.5 26 17.5 44s-5.83301 32.833 -17.5 44.5s-26.5 17.5 -44.5 17.5s-32.667 -5.83301 -44 -17.5s-17 -26.5 -17 -44.5z" />
    <glyph glyph-name="nine.onum" horiz-adv-x="585" 
d="M476 196l-136 -195.999h-232l156 204c-9.33301 -2 -19.333 -3 -30 -3c-56 0 -104 18.833 -144 56.5s-60 85.834 -60 144.501c0 74 26 133.833 78 179.499c52 45.667 114.667 68.5 188 68.5c69.333 0 129.833 -22.667 181.5 -68
c51.667 -45.334 77.5 -103.001 77.5 -173.001c0 -38 -6.33301 -73 -19 -105s-32.667 -68 -60 -108zM350 402.001c0 16.667 -5.33398 30.167 -16.001 40.5c-10.668 10.333 -24.335 15.5 -41 15.5c-17.333 0 -31.333 -5.16699 -42 -15.5s-16 -23.833 -16 -40.5
s5.33301 -30.167 16 -40.5s24.667 -15.5 42 -15.5c16.667 0 30.334 5.16699 41.001 15.5s16 23.833 16 40.5z" />
    <glyph glyph-name="zero.onum" horiz-adv-x="585" 
d="M239 406v-172c0 -16 5 -28.833 15 -38.5s22.333 -14.5 37 -14.5s27 4.83301 37 14.5s15 22.5 15 38.5v172c0 16 -5 28.833 -15 38.5s-22.333 14.5 -37 14.5s-27 -4.83301 -37 -14.5s-15 -22.5 -15 -38.5zM31 244l-0.000976562 145.002
c0 81.333 25.333 145.166 76 191.499s113.667 69.5 189 69.5c75.334 0 136.667 -22 184 -66s71 -106.667 71 -188v-145c0 -80.667 -25 -144.334 -75 -191.001s-112.333 -70 -187 -70c-75.333 0 -137.166 22.333 -185.499 67s-72.5 107 -72.5 187z" />
    <glyph glyph-name="numbersign.onum" horiz-adv-x="615" 
d="M282 321l-17 -80h70l17 80h-70zM284 0l24 116h-70l-24 -116h-135l24 116h-68v125h95l17 80h-72v125h99l25 114h135l-25 -114h70l25 114h135l-25 -114h66v-125h-93l-17 -80h70v-125h-97l-24 -116h-135z" />
    <glyph glyph-name="cent.onum" horiz-adv-x="524" 
d="M239 38l-0.000976562 101.001c-62.667 12 -114 40.667 -154 86s-60 98.666 -60 159.999c0 58.667 20.167 111.167 60.5 157.5s91.5 76.833 153.5 91.5v106h116v-100c30.667 -5.33301 58.834 -14.5 84.501 -27.5s43.5 -24.5 53.5 -34.5l15 -16l-137 -131
c-14 21.333 -35.333 32 -64 32c-20 0 -37.167 -7.33301 -51.5 -22s-21.5 -32 -21.5 -52c0 -19.333 7 -36.166 21 -50.499s31.333 -21.5 52 -21.5c14 0 26.5 2.83301 37.5 8.5s18.5 11.5 22.5 17.5l6 9l136 -128c-4 -5.33301 -9.66699 -11.833 -17 -19.5
s-24.333 -19.334 -51 -35.001s-55.334 -26.167 -86 -31.5v-100h-116z" />
    <glyph glyph-name="dollar.onum" horiz-adv-x="542" 
d="M211 248c-46 21.333 -84.0059 49.0049 -114.006 83.0049s-45 73.333 -45 118c0 49.333 15.333 90.666 46 123.999s72.334 55 125.001 65v102h116v-101c37.333 -6 70.833 -18 100.5 -36s49.834 -34.333 60.501 -49l17 -23l-141 -101
c-3.33301 4 -7.66602 9.16699 -12.999 15.5c-5.33301 6.33398 -16.166 14.667 -32.499 24.999c-16.333 10.333 -32.5 15.5 -48.5 15.5c-7.33301 0 -13.5 -2.16699 -18.5 -6.5s-7.5 -9.5 -7.5 -15.5c0 -8.66699 5 -17 15 -25s30 -19 60 -33
c24 -11.333 45.167 -22.333 63.5 -33c18.333 -10.668 37.333 -24.335 57 -41c19.667 -16.667 34.834 -36 45.501 -58s16 -45.667 16 -71c0 -50.667 -16 -93.834 -48 -129.501s-74 -58.834 -126 -69.501v-104h-116v99c-27.333 4 -53.333 11 -78 21s-44.5 20.833 -59.5 32.5
s-28.167 23 -39.5 34s-19.333 20.167 -24 27.5l-7 11l140 102c4.66699 -5.33301 10.667 -12 18 -20s21.833 -18.833 43.5 -32.5s41.834 -20.5 60.501 -20.5c19.333 0 29 7.33301 29 22c0 9.33301 -6.16699 19.166 -18.5 29.499s-37.833 24.5 -76.5 42.5z" />
    <glyph glyph-name="sterling.onum" horiz-adv-x="574" 
d="M545 0h-455.003v251h-75v115h75v33c0 78 24.333 139.333 73 183.999c48.667 44.667 109.334 67 182.001 67c28 0 54.5 -3.83301 79.5 -11.5s45.333 -17 61 -28s29.334 -21.833 41.001 -32.5s20.167 -20 25.5 -28l7 -11l-164 -109c-0.666992 2 -2 4.83301 -4 8.5
s-7.33301 8.33398 -16 14.001s-19 8.5 -31 8.5c-13.333 0 -24.166 -4.33301 -32.499 -13s-12.5 -20.334 -12.5 -35v-47h161v-115h-161v-72h246v-179z" />
    <glyph glyph-name="Euro.onum" horiz-adv-x="595" 
d="M479 214l-186.002 -0.00390625c4 -36.667 24.667 -55 62 -55c14.667 0 27.334 3.66699 38.001 11s17.667 14.666 21 21.999l4 11l162 -70c-2 -4 -4.66699 -9.16699 -8 -15.5s-11.833 -17.666 -25.5 -33.999s-28.667 -30.833 -45 -43.5s-38.333 -24.167 -66 -34.5
s-57.167 -15.5 -88.5 -15.5c-72 0 -132.333 20.167 -181 60.5s-74 94.833 -76 163.5h-75v92h75v28h-75v92h75c4 67.333 31.167 121.5 81.5 162.5s110.833 61.5 181.5 61.5c22.667 0 44.334 -2.66699 65.001 -8c20.667 -5.33789 38.5 -12.1709 53.5 -20.499
c15 -8.33398 28.833 -17.667 41.5 -28s23 -20.5 31 -30.5s14.833 -19.167 20.5 -27.5c5.66699 -8.33691 9.5 -15.1699 11.5 -20.499l4 -8l-163 -67c0 1.33301 -0.5 2.83301 -1.5 4.5s-3 4.83398 -6 9.50098s-6.66699 8.83398 -11 12.501s-10.333 7 -18 10
s-16.167 4.5 -25.5 4.5c-36.667 0 -57.334 -18.333 -62 -55h207v-92h-207v-28h186v-92z" />
    <glyph glyph-name="yen.onum" horiz-adv-x="639" 
d="M212 0v106h-187v104h187v15l-15 31h-172v104h118l-138 280h258l62 -211l63 211h246l-138 -280h118v-104h-173l-14 -31v-15h187v-104h-187v-106h-215z" />
    <glyph glyph-name="florin.onum" horiz-adv-x="595" 
d="M305 -160h-206.999l24 356h-107v121h116l8 101c6 74 30.333 131.167 73 171.5s98.667 60.5 168 60.5c28 0 54 -4 78 -12s43.167 -17.667 57.5 -29c14.333 -11.335 26.666 -22.668 36.999 -34c10.333 -11.333 17.5 -21 21.5 -29l6 -12l-149 -99
c-0.666992 2 -1.66699 4.5 -3 7.5s-5.5 7.16699 -12.5 12.5s-15.167 8 -24.5 8c-25.333 0 -39.333 -16 -42 -48l-9 -98h158v-121h-166z" />
    <glyph glyph-name="percent.onum" horiz-adv-x="770" 
d="M112 0l414 560h132l-414 -560h-132zM159 412c0 -10.668 3.33496 -19.3369 10.002 -26.002c6.66699 -6.66699 15.334 -10 26 -10c10.667 0 19.334 3.33301 26 10c6.66699 6.66699 10 15.334 10 26.001s-3.33301 19.334 -10 26.001s-15.334 10 -26.001 10
s-19.334 -3.33301 -26.001 -10c-6.66699 -6.66797 -10 -15.335 -10 -26zM30.002 409.998c0 45.333 16.167 83.332 48.5 113.999s71.833 46 118.5 46s85.5 -14.667 116.5 -44s46.5 -66.666 46.5 -111.999s-16.167 -83.333 -48.5 -114s-71.833 -46 -118.5 -46
s-85.5 14.667 -116.5 44c-31 29.334 -46.5 66.667 -46.5 112zM539.002 147.997c0 -10.667 3.33398 -19.332 10.001 -25.999c6.66797 -6.66699 15.335 -10 26.001 -10c10.6709 0 19.3379 3.33301 26 10c6.66699 6.66699 10 15.334 10 26c0 10.667 -3.33301 19.334 -10 26
c-6.66699 6.66699 -15.334 10 -26.001 10s-19.334 -3.33301 -26.001 -10s-10 -15.334 -10 -26.001zM410.003 145.999c0 45.333 16.167 83.333 48.5 114c32.334 30.667 71.834 46 118.5 46c46.667 0 85.5 -14.667 116.5 -44s46.5 -66.666 46.5 -111.999
s-16.167 -83.333 -48.5 -114s-71.833 -46 -118.5 -46s-85.5 14.667 -116.5 44s-46.5 66.666 -46.5 111.999z" />
    <glyph glyph-name="perthousand.onum" horiz-adv-x="1120" 
d="M112 0l414 560h132l-414 -560h-132zM159 412c0 -10.668 3.33496 -19.3369 10.002 -26.002c6.66699 -6.66699 15.334 -10 26 -10c10.667 0 19.334 3.33301 26 10c6.66699 6.66699 10 15.334 10 26.001s-3.33301 19.334 -10 26.001s-15.334 10 -26.001 10
s-19.334 -3.33301 -26.001 -10c-6.66699 -6.66797 -10 -15.335 -10 -26zM30.002 409.998c0 45.333 16.167 83.332 48.5 113.999s71.833 46 118.5 46s85.5 -14.667 116.5 -44s46.5 -66.666 46.5 -111.999s-16.167 -83.333 -48.5 -114s-71.833 -46 -118.5 -46
s-85.5 14.667 -116.5 44c-31 29.334 -46.5 66.667 -46.5 112zM539.002 147.997c0 -10.667 3.33398 -19.332 10.001 -25.999c6.66797 -6.66699 15.335 -10 26.001 -10c10.6709 0 19.3379 3.33301 26 10c6.66699 6.66699 10 15.334 10 26c0 10.667 -3.33301 19.334 -10 26
c-6.66699 6.66699 -15.334 10 -26.001 10s-19.334 -3.33301 -26.001 -10s-10 -15.334 -10 -26.001zM410.003 145.999c0 45.333 16.167 83.333 48.5 114c32.334 30.667 71.834 46 118.5 46c46.667 0 85.5 -14.667 116.5 -44s46.5 -66.666 46.5 -111.999
s-16.167 -83.333 -48.5 -114s-71.833 -46 -118.5 -46s-85.5 14.667 -116.5 44s-46.5 66.666 -46.5 111.999zM889.003 147.999c0 -10.667 3.33398 -19.332 10.001 -25.999c6.67383 -6.66699 15.3408 -10 26.001 -10c10.6738 0 19.3408 3.33301 26 10
c6.66699 6.66699 10 15.334 10 26c0 10.667 -3.33301 19.334 -10 26c-6.66699 6.66699 -15.334 10 -26.001 10s-19.334 -3.33301 -26.001 -10s-10 -15.334 -10 -26.001zM760.004 146.001c0 45.333 16.167 83.333 48.5 114s71.833 46 118.5 46s85.5 -14.667 116.5 -44
s46.5 -66.666 46.5 -111.999s-16.167 -83.333 -48.5 -114s-71.833 -46 -118.5 -46s-85.5 14.667 -116.5 44s-46.5 66.666 -46.5 111.999z" />
    <glyph glyph-name="one.lnum" 
d="M600 0h-536v171h178v281l-108 -65l-99 143l242 170h180v-529h143v-171z" />
    <glyph glyph-name="two.lnum" 
d="M73 167l234 209c37.333 33.333 56 64 56 92c0 14 -5.66699 26.167 -17 36.5s-26.333 15.5 -45 15.5c-18 0 -35.167 -6 -51.5 -18c-16.334 -12 -28.167 -24 -35.5 -36l-11 -17l-149 101c2 4.66699 4.83301 10.5 8.5 17.5s13.167 19.667 28.5 38s32.5 34.5 51.5 48.5
s45.333 26.833 79 38.5s70.167 17.5 109.5 17.5c71.333 0 130.333 -21 177 -63s70 -93.667 70 -155c0 -49.333 -11.167 -92.5 -33.5 -129.5c-22.334 -37 -57.834 -74.833 -106.5 -113.5l-81 -64h216v-185h-500v167z" />
    <glyph glyph-name="three.lnum" 
d="M211 427l76.9961 0.000976562c46 0 69 16.667 69 50c0 14 -5.83301 25.333 -17.5 34s-25.834 13 -42.501 13c-15.333 0 -29.666 -4 -42.999 -12c-13.334 -8 -22.667 -16 -28 -24l-8 -11l-151 90c2 4 4.83301 9.16699 8.5 15.5s12.5 17.666 26.5 33.999
s29.833 30.833 47.5 43.5s41.667 24.167 72 34.5s63.166 15.5 98.499 15.5c68.667 0 127.834 -17.667 177.501 -53c49.667 -35.335 74.5 -82.668 74.5 -142c0 -62.667 -27.333 -113.334 -82 -152c68 -36.667 102 -91.667 102 -165c0 -64.667 -25.667 -115.5 -77 -152.5
s-117.666 -55.5 -198.999 -55.5c-37.333 0 -72.166 5.33301 -104.499 16c-32.334 10.667 -58.167 23.667 -77.5 39s-36 30.666 -50 45.999s-24 28.333 -30 39l-8 16l155 93c2.66699 -4.66699 6.83398 -10.667 12.5 -18c5.66699 -7.33301 17.834 -17.166 36.501 -29.499
s38.334 -18.5 59.001 -18.5c20 0 36.333 4.66699 49 14s19 21 19 35c0 38 -28.333 57 -85 57h-81v148z" />
    <glyph glyph-name="four.lnum" 
d="M190 293h112v163zM16 296l280 404h210v-407h100v-168h-100v-125h-204v125h-286v171z" />
    <glyph glyph-name="five.lnum" 
d="M70 268l-0.000976562 432.001h470v-185h-278v-62c24.667 13.333 54.334 20 89.001 20c68.667 0 123.167 -21.833 163.5 -65.5s60.5 -96.5 60.5 -158.5c0 -77.333 -25.167 -139.833 -75.5 -187.5s-117.166 -71.5 -200.499 -71.5c-34.667 0 -67.167 5.16699 -97.5 15.5
s-54.833 23 -73.5 38s-35 30 -49 45s-24 27.5 -30 37.5l-9 16l155 109c0.666992 -2 2 -4.33301 4 -7s6 -7.66699 12 -15s12.667 -13.833 20 -19.5s16.666 -10.834 27.999 -15.501s23 -7 35 -7c20.667 0 37.167 5.5 49.5 16.5s18.5 25.167 18.5 42.5
c0 15.333 -5.5 28 -16.5 38s-25.5 15 -43.5 15c-12 0 -22.833 -2.5 -32.5 -7.5c-9.66797 -5 -16.168 -10.167 -19.5 -15.5l-6 -8h-174z" />
    <glyph glyph-name="six.lnum" 
d="M108 462l157 238.001h238l-159 -233c7.33301 1.33301 14.333 2 21 2c60 0 111.667 -20.5 155 -61.5s65 -91.833 65 -152.5c0 -78.667 -26.833 -142.5 -80.5 -191.5s-118.834 -73.5 -195.5 -73.5c-73.333 0 -136.5 24.167 -189.5 72.5s-79.5 110.166 -79.5 185.499
c0 74.667 22.667 146 68 214zM250 250.001c0 -18.667 5.66602 -33.834 16.999 -45.501s26.333 -17.5 45 -17.5s33.834 5.83301 45.501 17.5s17.5 26.834 17.5 45.501s-5.83301 34 -17.5 46s-26.834 18 -45.5 18c-18.667 0 -33.667 -6 -45 -18s-17 -27.333 -17 -46z" />
    <glyph glyph-name="seven.lnum" 
d="M71 0l264 507h-295v193h540v-150l-274 -550h-235z" />
    <glyph glyph-name="eight.lnum" 
d="M312 440c13.333 0 24.333 4.16699 33 12.5s13 19.5 13 33.5s-4.33301 25.167 -13 33.5s-19.667 12.5 -33 12.5s-24.333 -4.16699 -33 -12.5s-13 -19.5 -13 -33.5s4.33301 -25.167 13 -33.5s19.667 -12.5 33 -12.5zM316 710c73.333 0 132.333 -18.332 177 -54.999
s67 -85.667 67 -147c0 -45.333 -19.333 -89 -58 -131c55.333 -48 83 -101 83 -159c0 -66 -26.167 -120.5 -78.5 -163.5s-118.166 -64.5 -197.499 -64.5c-80.667 0 -145.667 20.333 -195 61s-74 94 -74 160c0 57.333 26.333 110.666 79 159.999
c-36.667 38.667 -55 82 -55 130c0 60.667 23.667 110.667 71 150s107.666 59 180.999 59zM312 170.001c18 0 33.167 6.16699 45.5 18.5s18.5 27.5 18.5 45.5c0 19.333 -6.16699 35 -18.5 47s-27.5 18 -45.5 18s-33.167 -6 -45.5 -18s-18.5 -27.667 -18.5 -47
c0 -18 6.16699 -33.167 18.5 -45.5s27.5 -18.5 45.5 -18.5z" />
    <glyph glyph-name="nine.lnum" 
d="M507 238l-157.001 -238h-238l159 233c-7.33301 -1.33301 -14.333 -2 -21 -2c-60 0 -111.667 20.5 -155 61.5s-65 91.833 -65 152.5c0 78.667 26.833 142.5 80.5 191.5s118.834 73.5 195.501 73.5c73.333 0 136.5 -24.167 189.5 -72.5
c53 -48.334 79.5 -110.167 79.5 -185.5c0 -74.667 -22.667 -146 -68 -214zM364.999 450c0 18.667 -5.66797 33.834 -17.001 45.501s-26.333 17.5 -45 17.5s-33.834 -5.83301 -45.5 -17.5c-11.667 -11.6689 -17.5 -26.8359 -17.5 -45.501c0 -18.667 5.83301 -34 17.5 -46
s26.834 -18 45.501 -18s33.667 6 45 18s17 27.333 17 46z" />
    <glyph glyph-name="zero.lnum" 
d="M257 454v-208c0 -18.667 4.83301 -33.167 14.5 -43.5s23.167 -15.5 40.5 -15.5s30.833 5.16699 40.5 15.5s14.5 24.833 14.5 43.5v208c0 18.667 -4.83301 33.167 -14.5 43.5s-23.167 15.5 -40.5 15.5s-30.833 -5.16699 -40.5 -15.5s-14.5 -24.833 -14.5 -43.5zM42 254
v185c0 84 25.667 150.167 77 198.5s116.333 72.5 195 72.5c79.333 0 143.833 -23 193.5 -69s74.5 -111 74.5 -195v-185c0 -84 -26 -150.167 -78 -198.5s-117.667 -72.5 -197 -72.5c-78.667 0 -142.5 23 -191.5 69s-73.5 111 -73.5 195z" />
    <glyph glyph-name="numbersign.lnum" 
d="M286 399l-18 -100h70l16 100h-68zM286 0l29 174h-70l-31 -174h-135l31 174h-70v125h91l20 100h-71v125h90l31 176h135l-29 -176h70l29 176h135l-29 -176h73v-125h-94l-18 -100h72v-125h-95l-29 -174h-135z" />
    <glyph glyph-name="cent.lnum" 
d="M291 55l-0.000976562 101c-73.333 11.333 -131.5 40.833 -174.5 88.5s-64.5 107.167 -64.5 178.5c0 70.667 21.833 131.167 65.5 181.5s101.5 81.833 173.5 94.5v101h116v-100c32 -5.33887 62 -14.6719 90 -28c28 -13.333 48 -25.333 60 -36l18 -16l-147 -139
c-16 21.333 -39.333 32 -70 32c-28 0 -50.167 -7.83301 -66.5 -23.5s-24.5 -36.167 -24.5 -61.5s8.16699 -46 24.5 -62s38.5 -24 66.5 -24c14.667 0 28.167 3.16699 40.5 9.5s20.833 12.5 25.5 18.5l8 10l144 -136c-4.66699 -5.33301 -11.5 -12 -20.5 -20
s-28.167 -20.167 -57.5 -36.5c-29.333 -16.334 -59.666 -27.167 -90.999 -32.5v-100h-116z" />
    <glyph glyph-name="dollar.lnum" 
d="M250 279c-52.667 27.334 -91.5029 58.168 -116.503 92.501c-25 34.334 -37.5 76.167 -37.5 125.5c0 51.333 16.667 95 50 131s77.333 59.333 132 70v102h116v-101c25.334 -4 49.167 -10.833 71.5 -20.5s40.5 -20 54.5 -31s26 -21.833 36 -32.5s17.333 -19.667 22 -27
l6 -10l-152 -107c-2.66699 4.66699 -6.66699 10.167 -12 16.5s-15.666 15 -30.999 26s-30.666 16.5 -45.999 16.5c-7.33301 0 -13.5 -2.16699 -18.5 -6.5s-7.5 -9.83301 -7.5 -16.5c0 -10.6689 6 -21.3359 18 -32.001c12 -10.668 34.333 -24.335 67 -41.001
c118.667 -60.667 178 -134.667 178 -222c0 -54 -17.167 -99.5 -51.5 -136.5s-79.166 -60.833 -134.499 -71.5v-104h-116v99c-30 3.33301 -58 10.333 -84 21s-47 22.5 -63 35.5s-29.833 25.667 -41.5 38s-20.167 22.5 -25.5 30.5l-7 13l153 107
c4.66699 -6 10.667 -13.167 18 -21.5s21.5 -19.666 42.5 -33.999s40.167 -21.5 57.5 -21.5c19.333 0 29 8 29 24c0 22 -35.667 51.333 -107 88z" />
    <glyph glyph-name="sterling.lnum" 
d="M575 0l-474.999 0.000976562v281h-75v115h75v53c0 81.333 25.333 145.166 76 191.499s113.667 69.5 189 69.5c29.333 0 57 -4.16699 83 -12.5s47.167 -18.333 63.5 -30s30.666 -23.167 42.999 -34.5s21.166 -21 26.499 -29l8 -13l-167 -113
c-0.666992 2.66699 -2.16699 6 -4.5 10s-8.16602 9.16699 -17.499 15.5s-20.333 9.5 -33 9.5c-16 0 -28.667 -5 -38 -15s-14 -23 -14 -39v-63h175v-115h-175v-96h260v-185z" />
    <glyph glyph-name="Euro.lnum" 
d="M510 231l-200.002 -0.00195312c1.33301 -15.333 7.83301 -28.333 19.5 -39s26.167 -16 43.5 -16c15.333 0 28.833 3.33301 40.5 10s19.167 13.334 22.5 20l6 9l168 -90c-2 -3.33301 -4.66699 -8.16602 -8 -14.499c-3.33789 -6.33301 -11.6709 -17.166 -25 -32.499
c-13.3379 -15.333 -28.1709 -29 -44.5 -41c-16.333 -12 -38.666 -22.833 -66.999 -32.5s-58.833 -14.5 -91.5 -14.5c-78.667 0 -143.5 21.167 -194.5 63.5s-77.5 101.5 -79.5 177.5h-75v104h75v32h-75v102h75c4.66699 74 33.5 132.667 86.5 176s117.833 65 194.5 65
c32.667 0 62.834 -4.66699 90.501 -14c27.667 -9.33594 49.667 -20.6689 66 -34c16.333 -13.333 30.333 -26.5 42 -39.5c11.6709 -13 19.8379 -24.167 24.5 -33.5l6 -14l-169 -89c0 1.33301 -0.5 2.83301 -1.5 4.5s-3.16699 4.83398 -6.5 9.50098s-7.33301 8.66699 -12 12
s-11.167 6.5 -19.5 9.5s-17.833 4.5 -28.5 4.5c-17.333 0 -31.833 -5.33301 -43.5 -16c-11.667 -10.6689 -18.167 -24.3359 -19.5 -41.001h220v-102h-220v-32h200v-104z" />
    <glyph glyph-name="yen.lnum" 
d="M194 0v170h-175v104h175v17l-15 29h-160v104h108l-128 276h255l61 -190l60 190h246l-131 -276h111v-104h-163l-15 -29v-17h178v-104h-178v-170h-229z" />
    <glyph glyph-name="florin.lnum" 
d="M315 -160h-215.001l33 423h-108v126h117l7 83c6.66699 76.667 32 135.5 76 176.5s102.333 61.5 175 61.5c28.667 0 55.334 -4.16699 80.001 -12.5s44.667 -18.5 60 -30.5s28.5 -24 39.5 -36s18.833 -22.333 23.5 -31l7 -12l-151 -105c-9.33301 20 -25.333 30 -48 30
c-29.333 0 -45.333 -16 -48 -48l-7 -76h154v-126h-162z" />
    <glyph glyph-name="percent.lnum" horiz-adv-x="850" 
d="M112 0l485 700h141l-485 -700h-141zM30 529c0 51.333 18 94.333 54 129s80 52 132 52s96 -17.333 132 -52s54 -77.667 54 -129s-18 -94.333 -54 -129s-80 -52 -132 -52s-96 17.333 -132 52s-54 77.667 -54 129zM165 531c0 -15.335 4.66699 -27.835 14 -37.5
c9.33301 -9.66699 21.333 -14.5 36 -14.5s26.667 4.83301 36 14.5s14 22.167 14 37.5s-4.66699 27.833 -14 37.5s-21.333 14.5 -36 14.5s-26.667 -4.83301 -36 -14.5s-14 -22.167 -14 -37.5zM448 171c0 51.333 18 94.333 54 129s80 52 132 52s96 -17.333 132 -52
s54 -77.667 54 -129s-18 -94.333 -54 -129s-80 -52 -132 -52s-96 17.333 -132 52s-54 77.667 -54 129zM583 173c0 -15.333 4.66699 -27.833 14 -37.5s21.333 -14.5 36 -14.5s26.667 4.83301 36 14.5s14 22.167 14 37.5s-4.66699 27.833 -14 37.5s-21.333 14.5 -36 14.5
s-26.667 -4.83301 -36 -14.5s-14 -22.167 -14 -37.5z" />
    <glyph glyph-name="perthousand.lnum" horiz-adv-x="1251" 
d="M112 0l485 700h141l-485 -700h-141zM30 529c0 51.333 18 94.333 54 129s80 52 132 52s96 -17.333 132 -52s54 -77.667 54 -129s-18 -94.333 -54 -129s-80 -52 -132 -52s-96 17.333 -132 52s-54 77.667 -54 129zM165 531c0 -15.335 4.66699 -27.835 14 -37.5
c9.33301 -9.66699 21.333 -14.5 36 -14.5s26.667 4.83301 36 14.5s14 22.167 14 37.5s-4.66699 27.833 -14 37.5s-21.333 14.5 -36 14.5s-26.667 -4.83301 -36 -14.5s-14 -22.167 -14 -37.5zM448 171c0 51.333 18 94.333 54 129s80 52 132 52s96 -17.333 132 -52
s54 -77.667 54 -129s-18 -94.333 -54 -129s-80 -52 -132 -52s-96 17.333 -132 52s-54 77.667 -54 129zM583 173c0 -15.333 4.66699 -27.833 14 -37.5s21.333 -14.5 36 -14.5s26.667 4.83301 36 14.5s14 22.167 14 37.5s-4.66699 27.833 -14 37.5s-21.333 14.5 -36 14.5
s-26.667 -4.83301 -36 -14.5s-14 -22.167 -14 -37.5zM849 171c0 51.333 18 94.333 54 129s80 52 132 52s96 -17.333 132 -52s54 -77.667 54 -129s-18 -94.333 -54 -129s-80 -52 -132 -52s-96 17.333 -132 52s-54 77.667 -54 129zM984 173
c0 -15.333 4.66699 -27.833 14 -37.5s21.333 -14.5 36 -14.5s26.667 4.83301 36 14.5s14 22.167 14 37.5s-4.66699 27.833 -14 37.5s-21.333 14.5 -36 14.5s-26.667 -4.83301 -36 -14.5s-14 -22.167 -14 -37.5z" />
    </font>
</defs>
</svg>
