<?xml version="1.0" standalone="no"?>
<!DOCTYPE svg PUBLIC "-//W3C//DTD SVG 1.1//EN" "http://www.w3.org/Graphics/SVG/1.1/DTD/svg11.dtd" >
<svg>
<metadata>
Created by FontForge 20090622 at Mon Sep  3 11:34:13 2018
 By deploy user
Copyright (c) 2014 by AbdoFonts. All rights reserved.
</metadata>
<defs>
<font id="AbdoMaster-Normal" horiz-adv-x="0" >
  <font-face 
    font-family="AbdoMaster-Normal"
    font-weight="400"
    font-stretch="normal"
    units-per-em="700"
    panose-1="2 0 5 0 3 0 0 2 0 4"
    ascent="524"
    descent="-176"
    x-height="380"
    cap-height="520"
    bbox="-189 -508 1470 787"
    underline-thickness="55"
    underline-position="-46"
    unicode-range="U+0020-U+FEFA"
  />
<missing-glyph horiz-adv-x="592" 
d="M108 365h-21v-47h-37v146h95v-146h-37v47zM490 -40h-37v87h-21v-87h-37v87h-21v-87h-37v106h153v-106zM165 464h37v-40h58v-106h-95v146zM375 318h-95v106h58v40h37v-146zM490 318h-95v106h95v-106zM235 117h-95v106h95v-106zM317 -40h-95v106h95v-106zM350 117h-37v87
h-21v-87h-37v106h95v-106zM107 66h95v-34h-37v15h-21v-68h21v15h37v-34h-95v106zM484 204v-24h58v-63h-95v19h58v25h-58v62h95v-19h-58zM87 164v-47h-37v146h75v-19h-38v-61h38v-19h-38zM407 204v-87h-37v146h37v-40h25v-19h-25zM317 337h21v68h-21v-68zM177 136h21v68h-21
v-68zM202 337h21v68h-21v-68zM259 -21h21v68h-21v-68zM432 337h21v68h-21v-68zM87 384h21v61h-21v-61zM87 -40h-37v29h37v-29z" />
    <glyph glyph-name="hmzyehf" unicode="&#xfe8c;&#xfef2;" horiz-adv-x="845" arabic-form="final" 
d="M251 -205l49 -45l-49 -45l-50 45zM371 -205l49 -45l-49 -45l-50 45zM617 512q-5 -8 -9.5 -14t-9.5 -14q-6 5 -17 9.5t-22 4.5q-19 0 -19 -14q0 -11 12.5 -24t32.5 -19h37v-41h-124v41h29q-26 24 -26 52q0 17 13 28.5t35 11.5q16 0 33.5 -5.5t34.5 -15.5zM325 100
q0 40 15.5 76t41.5 62t61.5 41.5t76.5 15.5h172l26 -112l26 -113h101v-70h-160l-24 113l-26 112h-115q-27 0 -50 -10.5t-39.5 -28t-26 -41t-9.5 -50.5h115q22 0 38.5 -16t16.5 -39v-20q0 -39 -14.5 -72.5t-39.5 -58.5t-58.5 -39.5t-72.5 -14.5h-130q-39 0 -72.5 14.5
t-58.5 39.5t-39.5 58.5t-14.5 72.5v120h70v-120q0 -24 9 -44.5t25 -36.5t36.5 -25t44.5 -9h130q24 0 45 9.5t36.5 26t24.5 38.5t9 46h-115q-23 0 -39 15.5t-16 39.5v20z" />
    <glyph glyph-name="hmzmaksuraf" unicode="&#xfe8c;&#xfef0;" horiz-adv-x="845" arabic-form="final" 
d="M617 512q-5 -8 -9.5 -14t-9.5 -14q-6 5 -17 9.5t-22 4.5q-19 0 -19 -14q0 -11 12.5 -24t32.5 -19h37v-41h-124v41h29q-26 24 -26 52q0 17 13 28.5t35 11.5q16 0 33.5 -5.5t34.5 -15.5zM325 100q0 40 15.5 76t41.5 62t61.5 41.5t76.5 15.5h172l26 -112l26 -113h101v-70
h-160l-24 113l-26 112h-115q-27 0 -50 -10.5t-39.5 -28t-26 -41t-9.5 -50.5h115q22 0 38.5 -16t16.5 -39v-20q0 -39 -14.5 -72.5t-39.5 -58.5t-58.5 -39.5t-72.5 -14.5h-130q-39 0 -72.5 14.5t-58.5 39.5t-39.5 58.5t-14.5 72.5v120h70v-120q0 -24 9 -44.5t25 -36.5
t36.5 -25t44.5 -9h130q24 0 45 9.5t36.5 26t24.5 38.5t9 46h-115q-23 0 -39 15.5t-16 39.5v20z" />
    <glyph glyph-name="tehmaksuraf" unicode="&#xfe98;&#xfef0;" horiz-adv-x="845" arabic-form="final" 
d="M501 495l49 -50l-49 -49l-50 49zM621 495l49 -50l-49 -49l-50 49zM325 100q0 40 15.5 76t41.5 62t61.5 41.5t76.5 15.5h172l26 -112l26 -113h101v-70h-160l-24 113l-26 112h-115q-27 0 -50 -10.5t-39.5 -28t-26 -41t-9.5 -50.5h115q22 0 38.5 -16t16.5 -39v-20
q0 -39 -14.5 -72.5t-39.5 -58.5t-58.5 -39.5t-72.5 -14.5h-130q-39 0 -72.5 14.5t-58.5 39.5t-39.5 58.5t-14.5 72.5v120h70v-120q0 -24 9 -44.5t25 -36.5t36.5 -25t44.5 -9h130q24 0 45 9.5t36.5 26t24.5 38.5t9 46h-115q-23 0 -39 15.5t-16 39.5v20z" />
    <glyph glyph-name="tehyehf" unicode="&#xfe98;&#xfef2;" horiz-adv-x="845" arabic-form="final" 
d="M501 495l49 -50l-49 -49l-50 49zM621 495l49 -50l-49 -49l-50 49zM251 -205l49 -45l-49 -45l-50 45zM371 -205l49 -45l-49 -45l-50 45zM325 100q0 40 15.5 76t41.5 62t61.5 41.5t76.5 15.5h172l26 -112l26 -113h101v-70h-160l-24 113l-26 112h-115q-27 0 -50 -10.5
t-39.5 -28t-26 -41t-9.5 -50.5h115q22 0 38.5 -16t16.5 -39v-20q0 -39 -14.5 -72.5t-39.5 -58.5t-58.5 -39.5t-72.5 -14.5h-130q-39 0 -72.5 14.5t-58.5 39.5t-39.5 58.5t-14.5 72.5v120h70v-120q0 -24 9 -44.5t25 -36.5t36.5 -25t44.5 -9h130q24 0 45 9.5t36.5 26
t24.5 38.5t9 46h-115q-23 0 -39 15.5t-16 39.5v20z" />
    <glyph glyph-name="thehmaksuraf" unicode="&#xfe9c;&#xfef0;" horiz-adv-x="845" arabic-form="final" 
d="M556 575l49 -50l-49 -49l-50 49zM501 475l49 -50l-49 -49l-50 49zM621 475l49 -50l-49 -49l-50 49zM325 100q0 40 15.5 76t41.5 62t61.5 41.5t76.5 15.5h172l26 -112l26 -113h101v-70h-160l-24 113l-26 112h-115q-27 0 -50 -10.5t-39.5 -28t-26 -41t-9.5 -50.5h115
q22 0 38.5 -16t16.5 -39v-20q0 -39 -14.5 -72.5t-39.5 -58.5t-58.5 -39.5t-72.5 -14.5h-130q-39 0 -72.5 14.5t-58.5 39.5t-39.5 58.5t-14.5 72.5v120h70v-120q0 -24 9 -44.5t25 -36.5t36.5 -25t44.5 -9h130q24 0 45 9.5t36.5 26t24.5 38.5t9 46h-115q-23 0 -39 15.5
t-16 39.5v20z" />
    <glyph glyph-name="thehyehf" unicode="&#xfe9c;&#xfef2;" horiz-adv-x="845" arabic-form="final" 
d="M251 -205l49 -45l-49 -45l-50 45zM371 -205l49 -45l-49 -45l-50 45zM556 575l49 -50l-49 -49l-50 49zM501 475l49 -50l-49 -49l-50 49zM621 475l49 -50l-49 -49l-50 49zM325 100q0 40 15.5 76t41.5 62t61.5 41.5t76.5 15.5h172l26 -112l26 -113h101v-70h-160l-24 113
l-26 112h-115q-27 0 -50 -10.5t-39.5 -28t-26 -41t-9.5 -50.5h115q22 0 38.5 -16t16.5 -39v-20q0 -39 -14.5 -72.5t-39.5 -58.5t-58.5 -39.5t-72.5 -14.5h-130q-39 0 -72.5 14.5t-58.5 39.5t-39.5 58.5t-14.5 72.5v120h70v-120q0 -24 9 -44.5t25 -36.5t36.5 -25t44.5 -9h130
q24 0 45 9.5t36.5 26t24.5 38.5t9 46h-115q-23 0 -39 15.5t-16 39.5v20z" />
    <glyph glyph-name="seenmaksura" unicode="&#xfeb3;&#xfef0;" horiz-adv-x="1220" arabic-form="isolated" 
d="M325 110q0 40 15.5 76t41.5 62t61.5 41.5t76.5 15.5h215v-220q0 -6 4.5 -10.5t10.5 -4.5h125v240h70v-240h125q6 0 10.5 4.5t4.5 10.5v225h70v-225q0 -35 -25 -60t-60 -25h-320q-35 0 -60 25t-25 60v150h-145q-27 0 -50 -10.5t-39.5 -28.5t-26 -41.5t-9.5 -49.5h115
q23 0 39 -16t16 -39v-30q0 -39 -14.5 -72.5t-39.5 -58.5t-58.5 -39.5t-72.5 -14.5h-130q-39 0 -72.5 14.5t-58.5 39.5t-39.5 58.5t-14.5 72.5v120h70v-120q0 -24 9 -44.5t25 -36.5t36.5 -25t44.5 -9h130q24 0 44.5 9t36.5 25t25 36.5t9 44.5v15h-115q-23 0 -39 16t-16 39v20
z" />
    <glyph glyph-name="seenyeh" unicode="&#xfeb3;&#xfef2;" horiz-adv-x="1220" arabic-form="isolated" 
d="M251 -205l49 -45l-49 -45l-50 45zM371 -205l49 -45l-49 -45l-50 45zM325 110q0 40 15.5 76t41.5 62t61.5 41.5t76.5 15.5h215v-220q0 -6 4.5 -10.5t10.5 -4.5h125v240h70v-240h125q6 0 10.5 4.5t4.5 10.5v225h70v-225q0 -35 -25 -60t-60 -25h-320q-35 0 -60 25t-25 60
v150h-145q-27 0 -50 -10.5t-39.5 -28.5t-26 -41.5t-9.5 -49.5h115q23 0 39 -16t16 -39v-30q0 -39 -14.5 -72.5t-39.5 -58.5t-58.5 -39.5t-72.5 -14.5h-130q-39 0 -72.5 14.5t-58.5 39.5t-39.5 58.5t-14.5 72.5v120h70v-120q0 -24 9 -44.5t25 -36.5t36.5 -25t44.5 -9h130
q24 0 44.5 9t36.5 25t25 36.5t9 44.5v15h-115q-23 0 -39 16t-16 39v20z" />
    <glyph glyph-name="sheenmaksura" unicode="&#xfeb7;&#xfef0;" horiz-adv-x="1220" arabic-form="isolated" 
d="M906 575l49 -50l-49 -49l-50 49zM851 475l49 -50l-49 -49l-50 49zM971 475l49 -50l-49 -49l-50 49zM325 110q0 40 15.5 76t41.5 62t61.5 41.5t76.5 15.5h215v-220q0 -6 4.5 -10.5t10.5 -4.5h125v240h70v-240h125q6 0 10.5 4.5t4.5 10.5v225h70v-225q0 -35 -25 -60
t-60 -25h-320q-35 0 -60 25t-25 60v150h-145q-27 0 -50 -10.5t-39.5 -28.5t-26 -41.5t-9.5 -49.5h115q23 0 39 -16t16 -39v-30q0 -39 -14.5 -72.5t-39.5 -58.5t-58.5 -39.5t-72.5 -14.5h-130q-39 0 -72.5 14.5t-58.5 39.5t-39.5 58.5t-14.5 72.5v120h70v-120q0 -24 9 -44.5
t25 -36.5t36.5 -25t44.5 -9h130q24 0 44.5 9t36.5 25t25 36.5t9 44.5v15h-115q-23 0 -39 16t-16 39v20z" />
    <glyph glyph-name="sheenyeh" unicode="&#xfeb7;&#xfef2;" horiz-adv-x="1220" arabic-form="isolated" 
d="M251 -205l49 -45l-49 -45l-50 45zM371 -205l49 -45l-49 -45l-50 45zM906 575l49 -50l-49 -49l-50 49zM851 475l49 -50l-49 -49l-50 49zM971 475l49 -50l-49 -49l-50 49zM325 110q0 40 15.5 76t41.5 62t61.5 41.5t76.5 15.5h215v-220q0 -6 4.5 -10.5t10.5 -4.5h125v240h70
v-240h125q6 0 10.5 4.5t4.5 10.5v225h70v-225q0 -35 -25 -60t-60 -25h-320q-35 0 -60 25t-25 60v150h-145q-27 0 -50 -10.5t-39.5 -28.5t-26 -41.5t-9.5 -49.5h115q23 0 39 -16t16 -39v-30q0 -39 -14.5 -72.5t-39.5 -58.5t-58.5 -39.5t-72.5 -14.5h-130q-39 0 -72.5 14.5
t-58.5 39.5t-39.5 58.5t-14.5 72.5v120h70v-120q0 -24 9 -44.5t25 -36.5t36.5 -25t44.5 -9h130q24 0 44.5 9t36.5 25t25 36.5t9 44.5v15h-115q-23 0 -39 16t-16 39v20z" />
    <glyph glyph-name="sadmaksura" unicode="&#xfebb;&#xfef0;" horiz-adv-x="1220" arabic-form="isolated" 
d="M690 0l-55 225h-115q-27 0 -50 -10.5t-39.5 -28.5t-26 -41.5t-9.5 -49.5h115q23 0 39 -16t16 -39v-20q0 -39 -14.5 -72.5t-39.5 -58.5t-58.5 -39.5t-72.5 -14.5h-130q-39 0 -72.5 14.5t-58.5 39.5t-39.5 58.5t-14.5 72.5v120h70v-120q0 -24 9 -44.5t25 -36.5t36.5 -25
t44.5 -9h130q24 0 45 9.5t36.5 26t24.5 38.5t9 46h-115q-23 0 -39 16t-16 39v20q0 40 15.5 76t41.5 62t61.5 41.5t76.5 15.5h172l31 -135l39 30l39 32q45 36 76.5 56.5t55 31t41.5 13t36 2.5q29 0 55.5 -11.5t46.5 -31.5t31.5 -46.5t11.5 -55.5v-95q0 -36 -25.5 -60.5
t-59.5 -24.5h-380zM1070 70q6 0 10.5 4.5t4.5 10.5v95q0 31 -22 53t-53 22q-12 0 -25.5 -3t-32.5 -12t-45 -26.5t-63 -46.5l-103 -80l4 -17h325z" />
    <glyph glyph-name="sadyeh" unicode="&#xfebb;&#xfef2;" horiz-adv-x="1220" arabic-form="isolated" 
d="M251 -209l49 -45l-49 -45l-50 45zM371 -209l49 -45l-49 -45l-50 45zM690 0l-55 225h-115q-27 0 -50 -10.5t-39.5 -28.5t-26 -41.5t-9.5 -49.5h115q23 0 39 -16t16 -39v-20q0 -39 -14.5 -72.5t-39.5 -58.5t-58.5 -39.5t-72.5 -14.5h-130q-39 0 -72.5 14.5t-58.5 39.5
t-39.5 58.5t-14.5 72.5v120h70v-120q0 -24 9 -44.5t25 -36.5t36.5 -25t44.5 -9h130q24 0 45 9.5t36.5 26t24.5 38.5t9 46h-115q-23 0 -39 16t-16 39v20q0 40 15.5 76t41.5 62t61.5 41.5t76.5 15.5h172l31 -135l39 30l39 32q45 36 76.5 56.5t55 31t41.5 13t36 2.5
q29 0 55.5 -11.5t46.5 -31.5t31.5 -46.5t11.5 -55.5v-95q0 -36 -25.5 -60.5t-59.5 -24.5h-380zM1070 70q6 0 10.5 4.5t4.5 10.5v95q0 31 -22 53t-53 22q-12 0 -25.5 -3t-32.5 -12t-45 -26.5t-63 -46.5l-103 -80l4 -17h325z" />
    <glyph glyph-name="dadmaksura" unicode="&#xfebf;&#xfef0;" horiz-adv-x="1220" arabic-form="isolated" 
d="M816 495l49 -50l-49 -49l-50 49zM690 0l-55 225h-115q-27 0 -50 -10.5t-39.5 -28.5t-26 -41.5t-9.5 -49.5h115q23 0 39 -16t16 -39v-20q0 -39 -14.5 -72.5t-39.5 -58.5t-58.5 -39.5t-72.5 -14.5h-130q-39 0 -72.5 14.5t-58.5 39.5t-39.5 58.5t-14.5 72.5v120h70v-120
q0 -24 9 -44.5t25 -36.5t36.5 -25t44.5 -9h130q24 0 45 9.5t36.5 26t24.5 38.5t9 46h-115q-23 0 -39 16t-16 39v20q0 40 15.5 76t41.5 62t61.5 41.5t76.5 15.5h172l31 -135l39 30l39 32q45 36 76.5 56.5t55 31t41.5 13t36 2.5q29 0 55.5 -11.5t46.5 -31.5t31.5 -46.5
t11.5 -55.5v-95q0 -36 -25.5 -60.5t-59.5 -24.5h-380zM1070 70q6 0 10.5 4.5t4.5 10.5v95q0 31 -22 53t-53 22q-12 0 -25.5 -3t-32.5 -12t-45 -26.5t-63 -46.5l-103 -80l4 -17h325z" />
    <glyph glyph-name="dadyeh" unicode="&#xfebf;&#xfef2;" horiz-adv-x="1220" arabic-form="isolated" 
d="M876 495l49 -50l-49 -49l-50 49zM251 -210l49 -45l-49 -45l-50 45zM371 -210l49 -45l-49 -45l-50 45zM690 0l-55 225h-115q-27 0 -50 -10.5t-39.5 -28.5t-26 -41.5t-9.5 -49.5h115q23 0 39 -16t16 -39v-20q0 -39 -14.5 -72.5t-39.5 -58.5t-58.5 -39.5t-72.5 -14.5h-130
q-39 0 -72.5 14.5t-58.5 39.5t-39.5 58.5t-14.5 72.5v120h70v-120q0 -24 9 -44.5t25 -36.5t36.5 -25t44.5 -9h130q24 0 45 9.5t36.5 26t24.5 38.5t9 46h-115q-23 0 -39 16t-16 39v20q0 40 15.5 76t41.5 62t61.5 41.5t76.5 15.5h172l31 -135l39 30l39 32q45 36 76.5 56.5
t55 31t41.5 13t36 2.5q29 0 55.5 -11.5t46.5 -31.5t31.5 -46.5t11.5 -55.5v-95q0 -36 -25.5 -60.5t-59.5 -24.5h-380zM1070 70q6 0 10.5 4.5t4.5 10.5v95q0 31 -22 53t-53 22q-12 0 -25.5 -3t-32.5 -12t-45 -26.5t-63 -46.5l-103 -80l4 -17h325z" />
    <glyph glyph-name="seenmaksuraf" unicode="&#xfeb4;&#xfef0;" horiz-adv-x="1260" arabic-form="final" 
d="M325 110q0 40 15.5 76t41.5 62t61.5 41.5t76.5 15.5h215v-220q0 -6 4.5 -10.5t10.5 -4.5h125v240h70v-240h140v240h70v-240h105v-70h-510q-35 0 -60 25t-25 60v150h-145q-27 0 -50 -10.5t-39.5 -28.5t-26 -41.5t-9.5 -49.5h115q23 0 39 -16t16 -39v-30q0 -39 -14.5 -72.5
t-39.5 -58.5t-58.5 -39.5t-72.5 -14.5h-130q-39 0 -72.5 14.5t-58.5 39.5t-39.5 58.5t-14.5 72.5v120h70v-120q0 -24 9 -44.5t25 -36.5t36.5 -25t44.5 -9h130q24 0 44.5 9t36.5 25t25 36.5t9 44.5v15h-115q-23 0 -39 16t-16 39v20z" />
    <glyph glyph-name="seenyehf" unicode="&#xfeb4;&#xfef2;" horiz-adv-x="1260" arabic-form="final" 
d="M251 -205l49 -45l-49 -45l-50 45zM371 -205l49 -45l-49 -45l-50 45zM325 110q0 40 15.5 76t41.5 62t61.5 41.5t76.5 15.5h215v-220q0 -6 4.5 -10.5t10.5 -4.5h125v240h70v-240h140v240h70v-240h105v-70h-510q-35 0 -60 25t-25 60v150h-145q-27 0 -50 -10.5t-39.5 -28.5
t-26 -41.5t-9.5 -49.5h115q23 0 39 -16t16 -39v-30q0 -39 -14.5 -72.5t-39.5 -58.5t-58.5 -39.5t-72.5 -14.5h-130q-39 0 -72.5 14.5t-58.5 39.5t-39.5 58.5t-14.5 72.5v120h70v-120q0 -24 9 -44.5t25 -36.5t36.5 -25t44.5 -9h130q24 0 44.5 9t36.5 25t25 36.5t9 44.5v15
h-115q-23 0 -39 16t-16 39v20z" />
    <glyph glyph-name="sheenmaksuraf" unicode="&#xfeb8;&#xfef0;" horiz-adv-x="1260" arabic-form="final" 
d="M906 575l49 -50l-49 -49l-50 49zM851 475l49 -50l-49 -49l-50 49zM971 475l49 -50l-49 -49l-50 49zM325 110q0 40 15.5 76t41.5 62t61.5 41.5t76.5 15.5h215v-220q0 -6 4.5 -10.5t10.5 -4.5h125v240h70v-240h140v240h70v-240h105v-70h-510q-35 0 -60 25t-25 60v150h-145
q-27 0 -50 -10.5t-39.5 -28.5t-26 -41.5t-9.5 -49.5h115q23 0 39 -16t16 -39v-30q0 -39 -14.5 -72.5t-39.5 -58.5t-58.5 -39.5t-72.5 -14.5h-130q-39 0 -72.5 14.5t-58.5 39.5t-39.5 58.5t-14.5 72.5v120h70v-120q0 -24 9 -44.5t25 -36.5t36.5 -25t44.5 -9h130q24 0 44.5 9
t36.5 25t25 36.5t9 44.5v15h-115q-23 0 -39 16t-16 39v20z" />
    <glyph glyph-name="sheenyehf" unicode="&#xfeb8;&#xfef2;" horiz-adv-x="1260" arabic-form="final" 
d="M251 -205l49 -45l-49 -45l-50 45zM371 -205l49 -45l-49 -45l-50 45zM906 575l49 -50l-49 -49l-50 49zM851 475l49 -50l-49 -49l-50 49zM971 475l49 -50l-49 -49l-50 49zM325 110q0 40 15.5 76t41.5 62t61.5 41.5t76.5 15.5h215v-220q0 -6 4.5 -10.5t10.5 -4.5h125v240h70
v-240h140v240h70v-240h105v-70h-510q-35 0 -60 25t-25 60v150h-145q-27 0 -50 -10.5t-39.5 -28.5t-26 -41.5t-9.5 -49.5h115q23 0 39 -16t16 -39v-30q0 -39 -14.5 -72.5t-39.5 -58.5t-58.5 -39.5t-72.5 -14.5h-130q-39 0 -72.5 14.5t-58.5 39.5t-39.5 58.5t-14.5 72.5v120
h70v-120q0 -24 9 -44.5t25 -36.5t36.5 -25t44.5 -9h130q24 0 44.5 9t36.5 25t25 36.5t9 44.5v15h-115q-23 0 -39 16t-16 39v20z" />
    <glyph glyph-name="sadmaksuraf" unicode="&#xfebc;&#xfef0;" horiz-adv-x="1220" arabic-form="final" 
d="M635 225h-115q-27 0 -50 -10.5t-39.5 -28.5t-26 -41.5t-9.5 -49.5h115q23 0 39 -16t16 -39v-20q0 -39 -14.5 -72.5t-39.5 -58.5t-58.5 -39.5t-72.5 -14.5h-130q-39 0 -72.5 14.5t-58.5 39.5t-39.5 58.5t-14.5 72.5v120h70v-120q0 -24 9 -44.5t25 -36.5t36.5 -25t44.5 -9
h130q24 0 45 9.5t36.5 26t24.5 38.5t9 46h-115q-23 0 -39 16t-16 39v20q0 40 15.5 76t41.5 62t61.5 41.5t76.5 15.5h172l31 -135l39 30l39 32q45 36 76.5 56.5t55 31t41.5 13t36 2.5q29 0 55.5 -11.5t46.5 -31.5t31.5 -46.5t11.5 -55.5v-110h65v-70h-530zM1085 70v110
q0 31 -22 53t-53 22q-12 0 -25.5 -3t-32.5 -12t-45 -26.5t-63 -46.5l-103 -80l4 -17h340z" />
    <glyph glyph-name="sadyehf" unicode="&#xfebc;&#xfef2;" horiz-adv-x="1220" arabic-form="final" 
d="M251 -209l49 -45l-49 -45l-50 45zM371 -209l49 -45l-49 -45l-50 45zM635 225h-115q-27 0 -50 -10.5t-39.5 -28.5t-26 -41.5t-9.5 -49.5h115q23 0 39 -16t16 -39v-20q0 -39 -14.5 -72.5t-39.5 -58.5t-58.5 -39.5t-72.5 -14.5h-130q-39 0 -72.5 14.5t-58.5 39.5t-39.5 58.5
t-14.5 72.5v120h70v-120q0 -24 9 -44.5t25 -36.5t36.5 -25t44.5 -9h130q24 0 45 9.5t36.5 26t24.5 38.5t9 46h-115q-23 0 -39 16t-16 39v20q0 40 15.5 76t41.5 62t61.5 41.5t76.5 15.5h172l31 -135l39 30l39 32q45 36 76.5 56.5t55 31t41.5 13t36 2.5q29 0 55.5 -11.5
t46.5 -31.5t31.5 -46.5t11.5 -55.5v-110h65v-70h-530zM1085 70v110q0 31 -22 53t-53 22q-12 0 -25.5 -3t-32.5 -12t-45 -26.5t-63 -46.5l-103 -80l4 -17h340z" />
    <glyph glyph-name="dadmaksuraf" unicode="&#xfec0;&#xfef0;" horiz-adv-x="1220" arabic-form="final" 
d="M876 495l49 -50l-49 -49l-50 49zM635 225h-115q-27 0 -50 -10.5t-39.5 -28.5t-26 -41.5t-9.5 -49.5h115q23 0 39 -16t16 -39v-20q0 -39 -14.5 -72.5t-39.5 -58.5t-58.5 -39.5t-72.5 -14.5h-130q-39 0 -72.5 14.5t-58.5 39.5t-39.5 58.5t-14.5 72.5v120h70v-120
q0 -24 9 -44.5t25 -36.5t36.5 -25t44.5 -9h130q24 0 45 9.5t36.5 26t24.5 38.5t9 46h-115q-23 0 -39 16t-16 39v20q0 40 15.5 76t41.5 62t61.5 41.5t76.5 15.5h172l31 -135l39 30l39 32q45 36 76.5 56.5t55 31t41.5 13t36 2.5q29 0 55.5 -11.5t46.5 -31.5t31.5 -46.5
t11.5 -55.5v-110h65v-70h-530zM1085 70v110q0 31 -22 53t-53 22q-12 0 -25.5 -3t-32.5 -12t-45 -26.5t-63 -46.5l-103 -80l4 -17h340z" />
    <glyph glyph-name="dadyehf" unicode="&#xfec0;&#xfef2;" horiz-adv-x="1220" arabic-form="final" 
d="M876 495l49 -50l-49 -49l-50 49zM251 -209l49 -45l-49 -45l-50 45zM371 -209l49 -45l-49 -45l-50 45zM635 225h-115q-27 0 -50 -10.5t-39.5 -28.5t-26 -41.5t-9.5 -49.5h115q23 0 39 -16t16 -39v-20q0 -39 -14.5 -72.5t-39.5 -58.5t-58.5 -39.5t-72.5 -14.5h-130
q-39 0 -72.5 14.5t-58.5 39.5t-39.5 58.5t-14.5 72.5v120h70v-120q0 -24 9 -44.5t25 -36.5t36.5 -25t44.5 -9h130q24 0 45 9.5t36.5 26t24.5 38.5t9 46h-115q-23 0 -39 16t-16 39v20q0 40 15.5 76t41.5 62t61.5 41.5t76.5 15.5h172l31 -135l39 30l39 32q45 36 76.5 56.5
t55 31t41.5 13t36 2.5q29 0 55.5 -11.5t46.5 -31.5t31.5 -46.5t11.5 -55.5v-110h65v-70h-530zM1085 70v110q0 31 -22 53t-53 22q-12 0 -25.5 -3t-32.5 -12t-45 -26.5t-63 -46.5l-103 -80l4 -17h340z" />
    <glyph glyph-name="uniFDF2" unicode="&#x627;&#xfedf;&#xfee0;&#xfeea;" horiz-adv-x="1120" arabic-form="isolated" 
d="M1045 540v-540h-70v540h70zM765 525h70v-525h-685q-45 0 -65 22t-20 52q0 14 2 26.5t8 27.5l53 130q11 29 37 48t61 19h159v-255h150v385h70v-385h160v455zM315 70v185h-89q-11 0 -20 -6.5t-13 -16.5l-54 -131q-4 -9 -4 -19q0 -12 15 -12h165z" />
    <glyph glyph-name="uniFDFC" unicode="&#x631;&#xfef3;&#xfe8e;&#x644;" horiz-adv-x="1240" arabic-form="isolated" 
d="M631 -85l49 -50l-49 -49l-50 49zM751 -85l49 -50l-49 -49l-50 49zM455 -15q0 -35 -25 -60t-60 -25h-120q-38 0 -72 14.5t-59 39.5t-39.5 59t-14.5 72v125h70v-125q0 -24 9 -44.5t25 -36.5t36.5 -25t44.5 -9h120q6 0 10.5 4.5t4.5 10.5v555h70v-555zM1105 320h70v-325
q0 -78 -36.5 -116.5t-100.5 -38.5q-26 0 -58 6.5t-66 20.5q2 4 6 13l7 18q3 9 7 17.5t6 13.5q23 -9 45 -13t41 -4q35 0 57 18.5t22 64.5v325zM655 540v-470h85v-70h-155v540h70zM885 320h70v-320h-245q-13 0 -21.5 8.5t-8.5 21.5v10q0 13 8.5 21.5t21.5 8.5h175v250z" />
    <glyph glyph-name="lamalefmd" unicode="&#xfedf;&#xfe82;" horiz-adv-x="463" arabic-form="isolated" 
d="M308 540h70v-485q0 -40 -12.5 -67.5t-33.5 -45t-49.5 -25t-60.5 -7.5q-30 0 -63 6t-63 17l22 62q16 -5 40 -10t50 -5q17 0 35 3.5t32.5 12t23.5 23t9 36.5v485zM126 490l50 -435h-71l-50 435h71zM171 554q-12 -9 -22.5 -12.5t-19.5 -3.5q-17 0 -31 6.5t-31 6.5
q-10 0 -21 -4.5t-25 -16.5v38q14 12 25 16.5t21 4.5q17 0 31 -6.5t31 -6.5q9 0 19.5 3.5t22.5 12.5v-38z" />
    <glyph glyph-name="lamalefmdf" unicode="&#xfee0;&#xfe82;" horiz-adv-x="463" arabic-form="final" 
d="M171 554q-12 -9 -22.5 -12.5t-19.5 -3.5q-17 0 -31 6.5t-31 6.5q-10 0 -21 -4.5t-25 -16.5v38q14 12 25 16.5t21 4.5q17 0 31 -6.5t31 -6.5q9 0 19.5 3.5t22.5 12.5v-38zM308 540h70v-470h85v-70h-93q-16 -49 -56 -69.5t-92 -20.5q-30 0 -63 6t-63 17l22 62q16 -5 40 -10
t50 -5q19 0 37 3.5t32 11.5t22.5 22.5t8.5 37.5v485zM126 490l50 -435h-71l-50 435h71z" />
    <glyph glyph-name="lamalefhmz" unicode="&#xfedf;&#xfe84;" horiz-adv-x="463" arabic-form="isolated" 
d="M308 540h70v-485q0 -40 -12.5 -67.5t-33.5 -45t-49.5 -25t-60.5 -7.5q-30 0 -63 6t-63 17l22 62q16 -5 40 -10t50 -5q17 0 35 3.5t32.5 12t23.5 23t9 36.5v485zM126 490l50 -435h-71l-50 435h71zM155 652q-5 -8 -9.5 -14t-9.5 -14q-6 5 -17 9.5t-22 4.5q-19 0 -19 -14
q0 -11 12.5 -24t32.5 -19h37v-41h-124v41h29q-26 24 -26 52q0 17 13 28.5t35 11.5q16 0 33.5 -5.5t34.5 -15.5z" />
    <glyph glyph-name="lamalefhmzf" unicode="&#xfee0;&#xfe84;" horiz-adv-x="463" arabic-form="final" 
d="M155 652q-5 -8 -9.5 -14t-9.5 -14q-6 5 -17 9.5t-22 4.5q-19 0 -19 -14q0 -11 12.5 -24t32.5 -19h37v-41h-124v41h29q-26 24 -26 52q0 17 13 28.5t35 11.5q16 0 33.5 -5.5t34.5 -15.5zM308 540h70v-470h85v-70h-93q-16 -49 -56 -69.5t-92 -20.5q-30 0 -63 6t-63 17l22 62
q16 -5 40 -10t50 -5q19 0 37 3.5t32 11.5t22.5 22.5t8.5 37.5v485zM126 490l50 -435h-71l-50 435h71z" />
    <glyph glyph-name="lamalefhmz2" unicode="&#xfedf;&#xfe88;" horiz-adv-x="463" arabic-form="isolated" 
d="M308 540h70v-485q0 -40 -12.5 -67.5t-33.5 -45t-49.5 -25t-60.5 -7.5q-30 0 -63 6t-63 17l22 62q16 -5 40 -10t50 -5q17 0 35 3.5t32.5 12t23.5 23t9 36.5v485zM126 490l50 -435h-71l-50 435h71zM195 -149q-5 -7 -9.5 -12.5t-9.5 -12.5q-6 4 -17 8t-22 4q-19 0 -19 -12
q0 -10 12.5 -22t32.5 -17h37v-37h-124v37h29q-26 21 -26 47q0 15 13 25.5t35 10.5q16 0 33.5 -5t34.5 -14z" />
    <glyph glyph-name="lamalefhmz2f" unicode="&#xfee0;&#xfe88;" horiz-adv-x="463" arabic-form="final" 
d="M195 -149q-5 -7 -9.5 -12.5t-9.5 -12.5q-6 4 -17 8t-22 4q-19 0 -19 -12q0 -10 12.5 -22t32.5 -17h37v-37h-124v37h29q-26 22 -26 47q0 15 13 25.5t35 10.5q16 0 33.5 -5t34.5 -14zM308 540h70v-470h85v-70h-93q-16 -49 -56 -69.5t-92 -20.5q-30 0 -63 6t-63 17l22 62
q16 -5 40 -10t50 -5q19 0 37 3.5t32 11.5t22.5 22.5t8.5 37.5v485zM126 490l50 -435h-71l-50 435h71z" />
    <glyph glyph-name="lamalef" unicode="&#xfedf;&#xfe8e;" horiz-adv-x="463" 
d="M308 540h70v-485q0 -40 -12.5 -67.5t-33.5 -45t-49.5 -25t-60.5 -7.5q-30 0 -63 6t-63 17l22 62q16 -5 40 -10t50 -5q17 0 35 3.5t32.5 12t23.5 23t9 36.5v485zM126 490l50 -435h-71l-50 435h71z" />
    <glyph glyph-name="lamaleff" unicode="&#xfee0;&#xfe8e;" horiz-adv-x="463" 
d="M308 540h70v-470h85v-70h-93q-16 -49 -56 -69.5t-92 -20.5q-30 0 -63 6t-63 17l22 62q16 -5 40 -10t50 -5q19 0 37 3.5t32 11.5t22.5 22.5t8.5 37.5v485zM126 490l50 -435h-71l-50 435h71z" />
    <glyph glyph-name="lamalefwasl" unicode="&#xfedf;&#xfb51;" horiz-adv-x="463" 
d="M308 540h70v-485q0 -40 -12.5 -67.5t-33.5 -45t-49.5 -25t-60.5 -7.5q-30 0 -63 6t-63 17l22 62q16 -5 40 -10t50 -5q17 0 35 3.5t32.5 12t23.5 23t9 36.5v485zM126 490l50 -435h-71l-50 435h71zM25 570h15v56h30v-23l15 14q9 8 21 8h39q8 0 14 -6.5t6 -15.5v-63h-140v30
zM70 570h65v25h-35z" />
    <glyph glyph-name="lamalefwaslf" unicode="&#xfee0;&#xfb51;" horiz-adv-x="463" 
d="M25 570h15v56h30v-23l15 14q9 8 21 8h39q8 0 14 -6.5t6 -15.5v-63h-140v30zM70 570h65v25h-35zM308 540h70v-470h85v-70h-93q-16 -49 -56 -69.5t-92 -20.5q-30 0 -63 6t-63 17l22 62q16 -5 40 -10t50 -5q19 0 37 3.5t32 11.5t22.5 22.5t8.5 37.5v485zM126 490l50 -435
h-71l-50 435h71z" />
    <glyph glyph-name="lellah" unicode="&#xfedf;&#xfee0;&#xfeea;" horiz-adv-x="900" 
d="M765 525h70v-525h-685q-45 0 -65 22t-20 52q0 14 2 26.5t8 27.5l53 130q11 29 37 48t61 19h159v-255h150v385h70v-385h160v455zM315 70v185h-89q-11 0 -20 -6.5t-13 -16.5l-54 -131q-4 -9 -4 -19q0 -12 15 -12h165z" />
    <glyph glyph-name="noonyehf" unicode="&#xfee8;&#xfef2;" horiz-adv-x="845" 
d="M556 495l49 -50l-49 -49l-50 49zM251 -205l49 -45l-49 -45l-50 45zM371 -205l49 -45l-49 -45l-50 45zM325 100q0 40 15.5 76t41.5 62t61.5 41.5t76.5 15.5h172l26 -112l26 -113h101v-70h-160l-24 113l-26 112h-115q-27 0 -50 -10.5t-39.5 -28t-26 -41t-9.5 -50.5h115
q22 0 38.5 -16t16.5 -39v-20q0 -39 -14.5 -72.5t-39.5 -58.5t-58.5 -39.5t-72.5 -14.5h-130q-39 0 -72.5 14.5t-58.5 39.5t-39.5 58.5t-14.5 72.5v120h70v-120q0 -24 9 -44.5t25 -36.5t36.5 -25t44.5 -9h130q24 0 45 9.5t36.5 26t24.5 38.5t9 46h-115q-23 0 -39 15.5
t-16 39.5v20z" />
    <glyph glyph-name="uni0679yehf" unicode="&#xfb69;&#xfef2;" horiz-adv-x="845" 
d="M251 -205l49 -45l-49 -45l-50 45zM371 -205l49 -45l-49 -45l-50 45zM495 430h15v106h28v-75l17 16q9 8 21 8h39q8 0 14 -6.5t6 -15.5v-63h-140v30zM540 430h65v25h-35zM325 100q0 40 15.5 76t41.5 62t61.5 41.5t76.5 15.5h172l26 -112l26 -113h101v-70h-160l-24 113
l-26 112h-115q-27 0 -50 -10.5t-39.5 -28t-26 -41t-9.5 -50.5h115q22 0 38.5 -16t16.5 -39v-20q0 -39 -14.5 -72.5t-39.5 -58.5t-58.5 -39.5t-72.5 -14.5h-130q-39 0 -72.5 14.5t-58.5 39.5t-39.5 58.5t-14.5 72.5v120h70v-120q0 -24 9 -44.5t25 -36.5t36.5 -25t44.5 -9h130
q24 0 45 9.5t36.5 26t24.5 38.5t9 46h-115q-23 0 -39 15.5t-16 39.5v20z" />
    <glyph glyph-name="hmzyehhmzf" unicode="&#xfe8c;&#xfe8a;" horiz-adv-x="845" 
d="M167 352q-5 -8 -9.5 -14t-9.5 -14q-6 5 -17 9.5t-22 4.5q-19 0 -19 -14q0 -11 12.5 -24t32.5 -19h37v-41h-124v41h29q-26 24 -26 52q0 17 13 28.5t35 11.5q16 0 33.5 -5.5t34.5 -15.5zM617 512q-5 -8 -9.5 -14t-9.5 -14q-6 5 -17 9.5t-22 4.5q-19 0 -19 -14
q0 -11 12.5 -24t32.5 -19h37v-41h-124v41h29q-26 24 -26 52q0 17 13 28.5t35 11.5q16 0 33.5 -5.5t34.5 -15.5zM325 100q0 40 15.5 76t41.5 62t61.5 41.5t76.5 15.5h172l26 -112l26 -113h101v-70h-160l-25 113l-25 112h-115q-27 0 -50 -10.5t-39.5 -28t-26 -41t-9.5 -50.5
h115q22 0 38.5 -16t16.5 -39v-20q0 -39 -14.5 -72.5t-39.5 -58.5t-58.5 -39.5t-72.5 -14.5h-130q-39 0 -72.5 14.5t-58.5 39.5t-39.5 58.5t-14.5 72.5v120h70v-120q0 -24 9 -44.5t25 -36.5t36.5 -25t44.5 -9h130q24 0 45 9.5t36.5 26t24.5 38.5t9 46h-115q-23 0 -39 15.5
t-16 39.5v20z" />
    <glyph glyph-name="tehyehhmzf" unicode="&#xfe98;&#xfe8a;" horiz-adv-x="845" 
d="M501 495l49 -50l-49 -49l-50 49zM621 495l49 -50l-49 -49l-50 49zM167 352q-5 -8 -9.5 -14t-9.5 -14q-6 5 -17 9.5t-22 4.5q-19 0 -19 -14q0 -11 12.5 -24t32.5 -19h37v-41h-124v41h29q-26 24 -26 52q0 17 13 28.5t35 11.5q16 0 33.5 -5.5t34.5 -15.5zM325 100
q0 40 15.5 76t41.5 62t61.5 41.5t76.5 15.5h172l26 -112l26 -113h101v-70h-160l-25 113l-25 112h-115q-27 0 -50 -10.5t-39.5 -28t-26 -41t-9.5 -50.5h115q22 0 38.5 -16t16.5 -39v-20q0 -39 -14.5 -72.5t-39.5 -58.5t-58.5 -39.5t-72.5 -14.5h-130q-39 0 -72.5 14.5
t-58.5 39.5t-39.5 58.5t-14.5 72.5v120h70v-120q0 -24 9 -44.5t25 -36.5t36.5 -25t44.5 -9h130q24 0 45 9.5t36.5 26t24.5 38.5t9 46h-115q-23 0 -39 15.5t-16 39.5v20z" />
    <glyph glyph-name="thehyehhmzf" unicode="&#xfe9c;&#xfe8a;" horiz-adv-x="845" 
d="M556 575l49 -50l-49 -49l-50 49zM501 475l49 -50l-49 -49l-50 49zM621 475l49 -50l-49 -49l-50 49zM167 352q-5 -8 -9.5 -14t-9.5 -14q-6 5 -17 9.5t-22 4.5q-19 0 -19 -14q0 -11 12.5 -24t32.5 -19h37v-41h-124v41h29q-26 24 -26 52q0 17 13 28.5t35 11.5
q16 0 33.5 -5.5t34.5 -15.5zM325 100q0 40 15.5 76t41.5 62t61.5 41.5t76.5 15.5h172l26 -112l26 -113h101v-70h-160l-25 113l-25 112h-115q-27 0 -50 -10.5t-39.5 -28t-26 -41t-9.5 -50.5h115q22 0 38.5 -16t16.5 -39v-20q0 -39 -14.5 -72.5t-39.5 -58.5t-58.5 -39.5
t-72.5 -14.5h-130q-39 0 -72.5 14.5t-58.5 39.5t-39.5 58.5t-14.5 72.5v120h70v-120q0 -24 9 -44.5t25 -36.5t36.5 -25t44.5 -9h130q24 0 45 9.5t36.5 26t24.5 38.5t9 46h-115q-23 0 -39 15.5t-16 39.5v20z" />
    <glyph glyph-name="noonyehhmzf" unicode="&#xfee8;&#xfe8a;" horiz-adv-x="845" 
d="M556 495l49 -50l-49 -49l-50 49zM167 352q-5 -8 -9.5 -14t-9.5 -14q-6 5 -17 9.5t-22 4.5q-19 0 -19 -14q0 -11 12.5 -24t32.5 -19h37v-41h-124v41h29q-26 24 -26 52q0 17 13 28.5t35 11.5q16 0 33.5 -5.5t34.5 -15.5zM325 100q0 40 15.5 76t41.5 62t61.5 41.5t76.5 15.5
h172l26 -112l26 -113h101v-70h-160l-25 113l-25 112h-115q-27 0 -50 -10.5t-39.5 -28t-26 -41t-9.5 -50.5h115q22 0 38.5 -16t16.5 -39v-20q0 -39 -14.5 -72.5t-39.5 -58.5t-58.5 -39.5t-72.5 -14.5h-130q-39 0 -72.5 14.5t-58.5 39.5t-39.5 58.5t-14.5 72.5v120h70v-120
q0 -24 9 -44.5t25 -36.5t36.5 -25t44.5 -9h130q24 0 45 9.5t36.5 26t24.5 38.5t9 46h-115q-23 0 -39 15.5t-16 39.5v20z" />
    <glyph glyph-name="uni0679yehhmzf" unicode="&#xfb69;&#xfe8a;" horiz-adv-x="845" 
d="M495 430h15v106h28v-75l17 16q9 8 21 8h39q8 0 14 -6.5t6 -15.5v-63h-140v30zM540 430h65v25h-35zM167 352q-5 -8 -9.5 -14t-9.5 -14q-6 5 -17 9.5t-22 4.5q-19 0 -19 -14q0 -11 12.5 -24t32.5 -19h37v-41h-124v41h29q-26 24 -26 52q0 17 13 28.5t35 11.5q16 0 33.5 -5.5
t34.5 -15.5zM325 100q0 40 15.5 76t41.5 62t61.5 41.5t76.5 15.5h172l26 -112l26 -113h101v-70h-160l-25 113l-25 112h-115q-27 0 -50 -10.5t-39.5 -28t-26 -41t-9.5 -50.5h115q22 0 38.5 -16t16.5 -39v-20q0 -39 -14.5 -72.5t-39.5 -58.5t-58.5 -39.5t-72.5 -14.5h-130
q-39 0 -72.5 14.5t-58.5 39.5t-39.5 58.5t-14.5 72.5v120h70v-120q0 -24 9 -44.5t25 -36.5t36.5 -25t44.5 -9h130q24 0 45 9.5t36.5 26t24.5 38.5t9 46h-115q-23 0 -39 15.5t-16 39.5v20z" />
    <glyph glyph-name="noonmaksuraf" unicode="&#xfee8;&#xfef0;" horiz-adv-x="845" 
d="M556 495l49 -50l-49 -49l-50 49zM325 100q0 40 15.5 76t41.5 62t61.5 41.5t76.5 15.5h172l26 -112l26 -113h101v-70h-160l-24 113l-26 112h-115q-27 0 -50 -10.5t-39.5 -28t-26 -41t-9.5 -50.5h115q22 0 38.5 -16t16.5 -39v-20q0 -39 -14.5 -72.5t-39.5 -58.5
t-58.5 -39.5t-72.5 -14.5h-130q-39 0 -72.5 14.5t-58.5 39.5t-39.5 58.5t-14.5 72.5v120h70v-120q0 -24 9 -44.5t25 -36.5t36.5 -25t44.5 -9h130q24 0 45 9.5t36.5 26t24.5 38.5t9 46h-115q-23 0 -39 15.5t-16 39.5v20z" />
    <glyph glyph-name="uni0679maksuraf" unicode="&#xfb69;&#xfef0;" horiz-adv-x="845" 
d="M495 430h15v106h28v-75l17 16q9 8 21 8h39q8 0 14 -6.5t6 -15.5v-63h-140v30zM540 430h65v25h-35zM325 100q0 40 15.5 76t41.5 62t61.5 41.5t76.5 15.5h172l26 -112l26 -113h101v-70h-160l-24 113l-26 112h-115q-27 0 -50 -10.5t-39.5 -28t-26 -41t-9.5 -50.5h115
q22 0 38.5 -16t16.5 -39v-20q0 -39 -14.5 -72.5t-39.5 -58.5t-58.5 -39.5t-72.5 -14.5h-130q-39 0 -72.5 14.5t-58.5 39.5t-39.5 58.5t-14.5 72.5v120h70v-120q0 -24 9 -44.5t25 -36.5t36.5 -25t44.5 -9h130q24 0 45 9.5t36.5 26t24.5 38.5t9 46h-115q-23 0 -39 15.5
t-16 39.5v20z" />
    <glyph glyph-name="seenyehhmz" unicode="&#xfeb3;&#xfe8a;" horiz-adv-x="1220" 
d="M167 352q-5 -8 -9.5 -14t-9.5 -14q-6 5 -17 9.5t-22 4.5q-19 0 -19 -14q0 -11 12.5 -24t32.5 -19h37v-41h-124v41h29q-26 24 -26 52q0 17 13 28.5t35 11.5q16 0 33.5 -5.5t34.5 -15.5zM325 110q0 40 15.5 76t41.5 62t61.5 41.5t76.5 15.5h215v-220q0 -6 4.5 -10.5
t10.5 -4.5h125v240h70v-240h125q6 0 10.5 4.5t4.5 10.5v225h70v-225q0 -35 -25 -60t-60 -25h-320q-35 0 -60 25t-25 60v150h-145q-27 0 -50 -10.5t-39.5 -28.5t-26 -41.5t-9.5 -49.5h115q23 0 39 -16t16 -39v-30q0 -39 -14.5 -72.5t-39.5 -58.5t-58.5 -39.5t-72.5 -14.5
h-130q-39 0 -72.5 14.5t-58.5 39.5t-39.5 58.5t-14.5 72.5v120h70v-120q0 -24 9 -44.5t25 -36.5t36.5 -25t44.5 -9h130q24 0 44.5 9t36.5 25t25 36.5t9 44.5v15h-115q-23 0 -39 16t-16 39v20z" />
    <glyph glyph-name="seenyehhmzf" unicode="&#xfeb4;&#xfe8a;" horiz-adv-x="1260" 
d="M167 352q-5 -8 -9.5 -14t-9.5 -14q-6 5 -17 9.5t-22 4.5q-19 0 -19 -14q0 -11 12.5 -24t32.5 -19h37v-41h-124v41h29q-26 24 -26 52q0 17 13 28.5t35 11.5q16 0 33.5 -5.5t34.5 -15.5zM325 110q0 40 15.5 76t41.5 62t61.5 41.5t76.5 15.5h215v-220q0 -6 4.5 -10.5
t10.5 -4.5h125v240h70v-240h140v240h70v-240h105v-70h-510q-35 0 -60 25t-25 60v150h-145q-27 0 -50 -10.5t-39.5 -28.5t-26 -41.5t-9.5 -49.5h115q23 0 39 -16t16 -39v-30q0 -39 -14.5 -72.5t-39.5 -58.5t-58.5 -39.5t-72.5 -14.5h-130q-39 0 -72.5 14.5t-58.5 39.5
t-39.5 58.5t-14.5 72.5v120h70v-120q0 -24 9 -44.5t25 -36.5t36.5 -25t44.5 -9h130q24 0 44.5 9t36.5 25t25 36.5t9 44.5v15h-115q-23 0 -39 16t-16 39v20z" />
    <glyph glyph-name="sheenyehhmz" unicode="&#xfeb7;&#xfe8a;" horiz-adv-x="1220" 
d="M906 575l49 -50l-49 -49l-50 49zM851 475l49 -50l-49 -49l-50 49zM971 475l49 -50l-49 -49l-50 49zM167 352q-5 -8 -9.5 -14t-9.5 -14q-6 5 -17 9.5t-22 4.5q-19 0 -19 -14q0 -11 12.5 -24t32.5 -19h37v-41h-124v41h29q-26 24 -26 52q0 17 13 28.5t35 11.5
q16 0 33.5 -5.5t34.5 -15.5zM325 110q0 40 15.5 76t41.5 62t61.5 41.5t76.5 15.5h215v-220q0 -6 4.5 -10.5t10.5 -4.5h125v240h70v-240h125q6 0 10.5 4.5t4.5 10.5v225h70v-225q0 -35 -25 -60t-60 -25h-320q-35 0 -60 25t-25 60v150h-145q-27 0 -50 -10.5t-39.5 -28.5
t-26 -41.5t-9.5 -49.5h115q23 0 39 -16t16 -39v-30q0 -39 -14.5 -72.5t-39.5 -58.5t-58.5 -39.5t-72.5 -14.5h-130q-39 0 -72.5 14.5t-58.5 39.5t-39.5 58.5t-14.5 72.5v120h70v-120q0 -24 9 -44.5t25 -36.5t36.5 -25t44.5 -9h130q24 0 44.5 9t36.5 25t25 36.5t9 44.5v15
h-115q-23 0 -39 16t-16 39v20z" />
    <glyph glyph-name="sheenyehhmzf" unicode="&#xfeb8;&#xfe8a;" horiz-adv-x="1260" 
d="M906 575l49 -50l-49 -49l-50 49zM851 475l49 -50l-49 -49l-50 49zM971 475l49 -50l-49 -49l-50 49zM167 352q-5 -8 -9.5 -14t-9.5 -14q-6 5 -17 9.5t-22 4.5q-19 0 -19 -14q0 -11 12.5 -24t32.5 -19h37v-41h-124v41h29q-26 24 -26 52q0 17 13 28.5t35 11.5
q16 0 33.5 -5.5t34.5 -15.5zM325 110q0 40 15.5 76t41.5 62t61.5 41.5t76.5 15.5h215v-220q0 -6 4.5 -10.5t10.5 -4.5h125v240h70v-240h140v240h70v-240h105v-70h-510q-35 0 -60 25t-25 60v150h-145q-27 0 -50 -10.5t-39.5 -28.5t-26 -41.5t-9.5 -49.5h115q23 0 39 -16
t16 -39v-30q0 -39 -14.5 -72.5t-39.5 -58.5t-58.5 -39.5t-72.5 -14.5h-130q-39 0 -72.5 14.5t-58.5 39.5t-39.5 58.5t-14.5 72.5v120h70v-120q0 -24 9 -44.5t25 -36.5t36.5 -25t44.5 -9h130q24 0 44.5 9t36.5 25t25 36.5t9 44.5v15h-115q-23 0 -39 16t-16 39v20z" />
    <glyph glyph-name="meemmaksura" unicode="&#xfee3;&#xfef0;" horiz-adv-x="1060" 
d="M475 -50q11 0 18 7.5t7 16.5q0 11 -12 23l-80 81l-80 81l49 49l41 -42l41 -41h226v50q0 33 13.5 58t36 42.5t52 26t61.5 8.5q39 0 77 -13t70 -40v-177q0 -35 -12.5 -61t-34 -43.5t-49.5 -26.5t-59 -9q-29 0 -55.5 7.5t-47 21.5t-34.5 35.5t-17 50.5h-157
q18 -20 29.5 -40.5t11.5 -40.5q0 -18 -7.5 -35t-20 -30t-30 -21t-37.5 -8h-225q-38 0 -72 14.5t-59 40t-39.5 59t-14.5 71.5v125h70v-125q0 -24 9 -44.5t25 -36.5t36.5 -25t44.5 -9h225zM925 221q-34 19 -77 19q-36 0 -64.5 -17t-28.5 -48v-95q0 -35 26 -52.5t59 -17.5
q34 0 59.5 17.5t25.5 52.5v141z" />
    <glyph glyph-name="meemmaksuraf" unicode="&#xfee4;&#xfef0;" horiz-adv-x="1075" 
d="M480 -60q11 0 18 7t7 17t-12 22l-160 163l49 49l67 -68h236v22q0 39 12.5 68t34 48t49.5 28t59 9t59 -9t49.5 -28t34 -48t12.5 -68v-82h80v-70h-95q-18 -37 -56 -56t-84 -19q-31 0 -59 8.5t-49.5 25.5t-34 42.5t-12.5 58.5h-166l24 -25q17 -17 24.5 -35t7.5 -36
q0 -38 -27 -66t-68 -28h-230q-38 0 -72 14.5t-59 39.5t-39.5 59t-14.5 72v125h70v-125q0 -24 9 -44.5t25 -36.5t36.5 -25t44.5 -9h230zM755 65q0 -35 25 -52.5t60 -17.5q34 0 59.5 17.5t25.5 52.5v87q0 43 -25.5 63t-59.5 20q-35 0 -60 -20t-25 -63v-87z" />
    <glyph glyph-name="meemyeh" unicode="&#xfee3;&#xfef2;" horiz-adv-x="1060" 
d="M251 -185l49 -45l-49 -45l-50 45zM371 -185l49 -45l-49 -45l-50 45zM475 -50q11 0 18 7.5t7 16.5q0 11 -12 23l-80 81l-80 81l49 49l41 -42l41 -41h226v50q0 33 13.5 58t36 42.5t52 26t61.5 8.5q39 0 77 -13t70 -40v-177q0 -35 -12.5 -61t-34 -43.5t-49.5 -26.5t-59 -9
q-29 0 -55.5 7.5t-47 21.5t-34.5 35.5t-17 50.5h-157q18 -20 29.5 -40.5t11.5 -40.5q0 -18 -7.5 -35t-20 -30t-30 -21t-37.5 -8h-225q-38 0 -72 14.5t-59 40t-39.5 59t-14.5 71.5v125h70v-125q0 -24 9 -44.5t25 -36.5t36.5 -25t44.5 -9h225zM925 221q-34 19 -77 19
q-36 0 -64.5 -17t-28.5 -48v-95q0 -35 26 -52.5t59 -17.5q34 0 59.5 17.5t25.5 52.5v141z" />
    <glyph glyph-name="meemyehf" unicode="&#xfee4;&#xfef2;" horiz-adv-x="1075" 
d="M251 -185l49 -45l-49 -45l-50 45zM371 -185l49 -45l-49 -45l-50 45zM480 -60q11 0 18 7t7 17t-12 22l-160 163l49 49l67 -68h236v22q0 39 12.5 68t34 48t49.5 28t59 9t59 -9t49.5 -28t34 -48t12.5 -68v-82h80v-70h-95q-18 -37 -56 -56t-84 -19q-31 0 -59 8.5t-49.5 25.5
t-34 42.5t-12.5 58.5h-166l24 -25q17 -17 24.5 -35t7.5 -36q0 -38 -27 -66t-68 -28h-230q-38 0 -72 14.5t-59 39.5t-39.5 59t-14.5 72v125h70v-125q0 -24 9 -44.5t25 -36.5t36.5 -25t44.5 -9h230zM755 65q0 -35 25 -52.5t60 -17.5q34 0 59.5 17.5t25.5 52.5v87
q0 43 -25.5 63t-59.5 20q-35 0 -60 -20t-25 -63v-87z" />
    <glyph glyph-name="meemyehhmz" unicode="&#xfee3;&#xfe8a;" horiz-adv-x="1060" 
d="M167 352q-5 -8 -9.5 -14t-9.5 -14q-6 5 -17 9.5t-22 4.5q-19 0 -19 -14q0 -11 12.5 -24t32.5 -19h37v-41h-124v41h29q-26 24 -26 52q0 17 13 28.5t35 11.5q16 0 33.5 -5.5t34.5 -15.5zM475 -50q11 0 18 7.5t7 16.5q0 11 -12 23l-80 81l-80 81l49 49l41 -42l41 -41h226v50
q0 33 13.5 58t36 42.5t52 26t61.5 8.5q39 0 77 -13t70 -40v-177q0 -35 -12.5 -61t-34 -43.5t-49.5 -26.5t-59 -9q-29 0 -55.5 7.5t-47 21.5t-34.5 35.5t-17 50.5h-157q18 -20 29.5 -40.5t11.5 -40.5q0 -18 -7.5 -35t-20 -30t-30 -21t-37.5 -8h-225q-38 0 -72 14.5t-59 40
t-39.5 59t-14.5 71.5v125h70v-125q0 -24 9 -44.5t25 -36.5t36.5 -25t44.5 -9h225zM925 221q-34 19 -77 19q-36 0 -64.5 -17t-28.5 -48v-95q0 -35 26 -52.5t59 -17.5q34 0 59.5 17.5t25.5 52.5v141z" />
    <glyph glyph-name="meemyehhmzf" unicode="&#xfee4;&#xfe8a;" horiz-adv-x="1075" 
d="M167 352q-5 -8 -9.5 -14t-9.5 -14q-6 5 -17 9.5t-22 4.5q-19 0 -19 -14q0 -11 12.5 -24t32.5 -19h37v-41h-124v41h29q-26 24 -26 52q0 17 13 28.5t35 11.5q16 0 33.5 -5.5t34.5 -15.5zM480 -60q11 0 18 7t7 17t-12 22l-160 163l49 49l67 -68h236v22q0 39 12.5 68t34 48
t49.5 28t59 9t59 -9t49.5 -28t34 -48t12.5 -68v-82h80v-70h-95q-18 -37 -56 -56t-84 -19q-31 0 -59 8.5t-49.5 25.5t-34 42.5t-12.5 58.5h-166l24 -25q17 -17 24.5 -35t7.5 -36q0 -38 -27 -66t-68 -28h-230q-38 0 -72 14.5t-59 39.5t-39.5 59t-14.5 72v125h70v-125
q0 -24 9 -44.5t25 -36.5t36.5 -25t44.5 -9h230zM755 65q0 -35 25 -52.5t60 -17.5q34 0 59.5 17.5t25.5 52.5v87q0 43 -25.5 63t-59.5 20q-35 0 -60 -20t-25 -63v-87z" />
    <glyph glyph-name="sadyehhmz" unicode="&#xfebb;&#xfe8a;" horiz-adv-x="1220" 
d="M167 352q-5 -8 -9.5 -14t-9.5 -14q-6 5 -17 9.5t-22 4.5q-19 0 -19 -14q0 -11 12.5 -24t32.5 -19h37v-41h-124v41h29q-26 24 -26 52q0 17 13 28.5t35 11.5q16 0 33.5 -5.5t34.5 -15.5zM690 0l-55 225h-115q-27 0 -50 -10.5t-39.5 -28.5t-26 -41.5t-9.5 -49.5h115
q23 0 39 -16t16 -39v-20q0 -39 -14.5 -72.5t-39.5 -58.5t-58.5 -39.5t-72.5 -14.5h-130q-39 0 -72.5 14.5t-58.5 39.5t-39.5 58.5t-14.5 72.5v120h70v-120q0 -24 9 -44.5t25 -36.5t36.5 -25t44.5 -9h130q24 0 45 9.5t36.5 26t24.5 38.5t9 46h-115q-23 0 -39 16t-16 39v20
q0 40 15.5 76t41.5 62t61.5 41.5t76.5 15.5h172l31 -135l39 30l39 32q45 36 76.5 56.5t55 31t41.5 13t36 2.5q29 0 55.5 -11.5t46.5 -31.5t31.5 -46.5t11.5 -55.5v-95q0 -36 -25.5 -60.5t-59.5 -24.5h-380zM1070 70q6 0 10.5 4.5t4.5 10.5v95q0 31 -22 53t-53 22
q-12 0 -25.5 -3t-32.5 -12t-45 -26.5t-63 -46.5l-103 -80l4 -17h325z" />
    <glyph glyph-name="sadyehhmzf" unicode="&#xfebc;&#xfe8a;" horiz-adv-x="1220" 
d="M167 352q-5 -8 -9.5 -14t-9.5 -14q-6 5 -17 9.5t-22 4.5q-19 0 -19 -14q0 -11 12.5 -24t32.5 -19h37v-41h-124v41h29q-26 24 -26 52q0 17 13 28.5t35 11.5q16 0 33.5 -5.5t34.5 -15.5zM635 225h-115q-27 0 -50 -10.5t-39.5 -28.5t-26 -41.5t-9.5 -49.5h115q23 0 39 -16
t16 -39v-20q0 -39 -14.5 -72.5t-39.5 -58.5t-58.5 -39.5t-72.5 -14.5h-130q-39 0 -72.5 14.5t-58.5 39.5t-39.5 58.5t-14.5 72.5v120h70v-120q0 -24 9 -44.5t25 -36.5t36.5 -25t44.5 -9h130q24 0 45 9.5t36.5 26t24.5 38.5t9 46h-115q-23 0 -39 16t-16 39v20q0 40 15.5 76
t41.5 62t61.5 41.5t76.5 15.5h172l31 -135l39 30l39 32q45 36 76.5 56.5t55 31t41.5 13t36 2.5q29 0 55.5 -11.5t46.5 -31.5t31.5 -46.5t11.5 -55.5v-110h65v-70h-530zM1085 70v110q0 31 -22 53t-53 22q-12 0 -25.5 -3t-32.5 -12t-45 -26.5t-63 -46.5l-103 -80l4 -17h340z
" />
    <glyph glyph-name="dadyehhmz" unicode="&#xfebf;&#xfe8a;" horiz-adv-x="1220" 
d="M876 495l49 -50l-49 -49l-50 49zM167 352q-5 -8 -9.5 -14t-9.5 -14q-6 5 -17 9.5t-22 4.5q-19 0 -19 -14q0 -11 12.5 -24t32.5 -19h37v-41h-124v41h29q-26 24 -26 52q0 17 13 28.5t35 11.5q16 0 33.5 -5.5t34.5 -15.5zM690 0l-55 225h-115q-27 0 -50 -10.5t-39.5 -28.5
t-26 -41.5t-9.5 -49.5h115q23 0 39 -16t16 -39v-20q0 -39 -14.5 -72.5t-39.5 -58.5t-58.5 -39.5t-72.5 -14.5h-130q-39 0 -72.5 14.5t-58.5 39.5t-39.5 58.5t-14.5 72.5v120h70v-120q0 -24 9 -44.5t25 -36.5t36.5 -25t44.5 -9h130q24 0 45 9.5t36.5 26t24.5 38.5t9 46h-115
q-23 0 -39 16t-16 39v20q0 40 15.5 76t41.5 62t61.5 41.5t76.5 15.5h172l31 -135l39 30l39 32q45 36 76.5 56.5t55 31t41.5 13t36 2.5q29 0 55.5 -11.5t46.5 -31.5t31.5 -46.5t11.5 -55.5v-95q0 -36 -25.5 -60.5t-59.5 -24.5h-380zM1070 70q6 0 10.5 4.5t4.5 10.5v95
q0 31 -22 53t-53 22q-12 0 -25.5 -3t-32.5 -12t-45 -26.5t-63 -46.5l-103 -80l4 -17h325z" />
    <glyph glyph-name="dadyehhmzf" unicode="&#xfec0;&#xfe8a;" horiz-adv-x="1220" 
d="M876 495l49 -50l-49 -49l-50 49zM167 352q-5 -8 -9.5 -14t-9.5 -14q-6 5 -17 9.5t-22 4.5q-19 0 -19 -14q0 -11 12.5 -24t32.5 -19h37v-41h-124v41h29q-26 24 -26 52q0 17 13 28.5t35 11.5q16 0 33.5 -5.5t34.5 -15.5zM635 225h-115q-27 0 -50 -10.5t-39.5 -28.5
t-26 -41.5t-9.5 -49.5h115q23 0 39 -16t16 -39v-20q0 -39 -14.5 -72.5t-39.5 -58.5t-58.5 -39.5t-72.5 -14.5h-130q-39 0 -72.5 14.5t-58.5 39.5t-39.5 58.5t-14.5 72.5v120h70v-120q0 -24 9 -44.5t25 -36.5t36.5 -25t44.5 -9h130q24 0 45 9.5t36.5 26t24.5 38.5t9 46h-115
q-23 0 -39 16t-16 39v20q0 40 15.5 76t41.5 62t61.5 41.5t76.5 15.5h172l31 -135l39 30l39 32q45 36 76.5 56.5t55 31t41.5 13t36 2.5q29 0 55.5 -11.5t46.5 -31.5t31.5 -46.5t11.5 -55.5v-110h65v-70h-530zM1085 70v110q0 31 -22 53t-53 22q-12 0 -25.5 -3t-32.5 -12
t-45 -26.5t-63 -46.5l-103 -80l4 -17h340z" />
    <glyph glyph-name="alefmd" unicode="&#x622;" horiz-adv-x="220" arabic-form="isolated" 
d="M145 540v-540h-70v540h70zM185 604q-12 -9 -22.5 -12.5t-19.5 -3.5q-17 0 -31 6.5t-31 6.5q-10 0 -21 -4.5t-25 -16.5v38q14 12 25 16.5t21 4.5q17 0 31 -6.5t31 -6.5q9 0 19.5 3.5t22.5 12.5v-38z" />
    <glyph glyph-name="alefhmz" unicode="&#x623;" horiz-adv-x="220" arabic-form="isolated" 
d="M145 540v-540h-70v540h70zM167 697q-5 -8 -9.5 -14t-9.5 -14q-6 5 -17 9.5t-22 4.5q-19 0 -19 -14q0 -11 12.5 -24t32.5 -19h37v-41h-124v41h29q-26 24 -26 52q0 17 13 28.5t35 11.5q16 0 33.5 -5.5t34.5 -15.5z" />
    <glyph glyph-name="wawhmz" unicode="&#x624;" horiz-adv-x="440" arabic-form="isolated" 
d="M305 0h-135q-22 0 -41 8t-33.5 22.5t-22.5 33.5t-8 41v40q0 45 12.5 78t34.5 54.5t50.5 32t61.5 10.5q41 0 80 -14t71 -40v-276q0 -42 -11 -71t-30.5 -46.5t-45.5 -25t-56 -7.5q-37 0 -76.5 9.5t-78.5 23.5q5 12 8.5 22.5t6.5 18.5q4 9 6 17q21 -8 53 -16.5t64 -8.5
q18 0 34.5 4t28.5 13.5t19.5 25.5t7.5 41v10zM305 70v159q-20 10 -40.5 15.5t-40.5 5.5q-37 0 -63 -25.5t-26 -79.5v-40q0 -14 10.5 -24.5t24.5 -10.5h135zM-38 0v0v0v0zM-38 0v0v0v0v0v0zM-38 0v0v0zM-38 0v0v0zM-38 0zM-38 0zM-38 0zM-38 0v0v0v0zM-38 0v0v0v0v0v0zM-38 0
v0v0v0v0v0zM-38 0v0v0v0v0zM-38 0v0v0v0zM-38 0zM-38 0zM-38 0zM-38 0zM-38 0zM-38 0zM-38 0zM277 512q-5 -8 -9.5 -14t-9.5 -14q-6 5 -17 9.5t-22 4.5q-19 0 -19 -14q0 -11 12.5 -24t32.5 -19h37v-41h-124v41h29q-26 24 -26 52q0 17 13 28.5t35 11.5q16 0 33.5 -5.5
t34.5 -15.5z" />
    <glyph glyph-name="alefhmz2" unicode="&#x625;" horiz-adv-x="220" arabic-form="isolated" 
d="M145 540v-540h-70v540h70zM167 -58q-5 -8 -9.5 -14t-9.5 -14q-6 5 -17 9.5t-22 4.5q-19 0 -19 -14q0 -11 12.5 -24t32.5 -19h37v-41h-124v41h29q-26 24 -26 52q0 17 13 28.5t35 11.5q16 0 33.5 -5.5t34.5 -15.5z" />
    <glyph glyph-name="yehhmz" unicode="&#x626;" horiz-adv-x="670" arabic-form="isolated" 
d="M579 262q-55 19 -93 19q-40 0 -65.5 -26.5t-25.5 -89.5v-40h155q23 0 39 -16t16 -39v-45q0 -39 -14.5 -72.5t-39.5 -58.5t-58.5 -39.5t-72.5 -14.5h-170q-39 0 -72.5 14.5t-58.5 39.5t-39.5 58.5t-14.5 72.5v115h70v-115q0 -24 9 -44.5t25 -36.5t36.5 -25t44.5 -9h170
q24 0 44.5 9t36.5 25t25 36.5t9 44.5v30h-155q-23 0 -39 16t-16 39v55q0 96 43.5 140.5t115.5 44.5q24 0 53.5 -5.5t63.5 -16.5zM167 382q-5 -8 -9.5 -14t-9.5 -14q-6 5 -17 9.5t-22 4.5q-19 0 -19 -14q0 -11 12.5 -24t32.5 -19h37v-41h-124v41h29q-26 24 -26 52
q0 17 13 28.5t35 11.5q16 0 33.5 -5.5t34.5 -15.5z" />
    <glyph glyph-name="beh" unicode="&#x628;" horiz-adv-x="770" arabic-form="isolated" 
d="M381 -55l49 -50l-49 -49l-50 49zM635 320h70v-235q0 -35 -25 -60t-60 -25h-470q-35 0 -60 25t-25 60v235h70v-235q0 -6 4.5 -10.5t10.5 -4.5h470q6 0 10.5 4.5t4.5 10.5v235z" />
    <glyph glyph-name="marbuta" unicode="&#x629;" horiz-adv-x="440" arabic-form="isolated" 
d="M161 495l49 -50l-49 -49l-50 49zM281 495l49 -50l-49 -49l-50 49zM65 0v170q0 40 13 68.5t35.5 46.5t51.5 26.5t61 8.5q39 0 78 -12t71 -34v-274h-310zM305 70v164q-37 16 -79 16q-36 0 -63.5 -19t-27.5 -61v-100h170z" />
    <glyph glyph-name="teh" unicode="&#x62a;" horiz-adv-x="770" arabic-form="isolated" 
d="M326 495l49 -50l-49 -49l-50 49zM446 495l49 -50l-49 -49l-50 49zM635 320h70v-235q0 -35 -25 -60t-60 -25h-470q-35 0 -60 25t-25 60v235h70v-235q0 -6 4.5 -10.5t10.5 -4.5h470q6 0 10.5 4.5t4.5 10.5v235z" />
    <glyph glyph-name="theh" unicode="&#x62b;" horiz-adv-x="770" arabic-form="isolated" 
d="M381 575l49 -50l-49 -49l-50 49zM326 475l49 -50l-49 -49l-50 49zM446 475l49 -50l-49 -49l-50 49zM635 320h70v-235q0 -35 -25 -60t-60 -25h-470q-35 0 -60 25t-25 60v235h70v-235q0 -6 4.5 -10.5t10.5 -4.5h470q6 0 10.5 4.5t4.5 10.5v235z" />
    <glyph glyph-name="jeem" unicode="&#x62c;" horiz-adv-x="485" arabic-form="isolated" 
d="M280 -52l49 -50l-49 -49l-50 49zM247 -267q-53 0 -88.5 16.5t-57 41t-30.5 54t-9 55.5q0 30 11 60.5t33.5 54.5t57.5 39.5t83 15.5h68q-26 22 -41 53l-27 59q-13 27 -30.5 46.5t-50.5 19.5q-14 0 -31.5 -6t-40.5 -25l-31 56q27 20 52.5 33.5t56.5 13.5q38 0 63.5 -18.5
t43.5 -46.5t32 -60t30 -60t36.5 -46.5t52.5 -18.5h5v-70h-188q-30 0 -52 -9t-36 -23.5t-20.5 -32.5t-6.5 -35q0 -14 5.5 -31.5t19.5 -33t38 -26t62 -10.5q40 0 78 11v-67q-47 -10 -88 -10zM-17 0v0v0v0zM-17 0v0v0v0v0v0zM-17 0v0v0zM-17 0v0v0zM-17 0zM-17 0zM-17 0zM-17 0
v0v0v0zM-17 0v0v0v0v0v0zM-17 0v0v0v0v0v0zM-17 0v0v0v0v0zM-17 0v0v0v0zM-17 0zM-17 0zM-17 0zM-17 0zM-17 0zM-17 0zM-17 0zM-5 0v0v0v0zM-5 0v0v0v0v0v0zM-5 0v0v0zM-5 0v0v0zM-5 0zM-5 0zM-5 0zM-5 0v0v0v0zM-5 0v0v0v0v0v0zM-5 0v0v0v0v0v0zM-5 0v0v0v0v0zM-5 0v0v0v0z
M-5 0zM-5 0zM-5 0zM-5 0zM-5 0zM-5 0zM-5 0z" />
    <glyph glyph-name="khah" unicode="&#x62e;" horiz-adv-x="485" arabic-form="isolated" 
d="M186 505l49 -50l-49 -49l-50 49zM247 -267q-53 0 -88.5 16.5t-57 41t-30.5 54t-9 55.5q0 30 11 60.5t33.5 54.5t57.5 39.5t83 15.5h68q-26 22 -41 53l-27 59q-13 27 -30.5 46.5t-50.5 19.5q-14 0 -31.5 -6t-40.5 -25l-31 56q27 20 52.5 33.5t56.5 13.5q38 0 63.5 -18.5
t43.5 -46.5t32 -60t30 -60t36.5 -46.5t52.5 -18.5h5v-70h-188q-30 0 -52 -9t-36 -23.5t-20.5 -32.5t-6.5 -35q0 -14 5.5 -31.5t19.5 -33t38 -26t62 -10.5q40 0 78 11v-67q-47 -10 -88 -10zM-17 0v0v0v0zM-17 0v0v0v0v0v0zM-17 0v0v0zM-17 0v0v0zM-17 0zM-17 0zM-17 0zM-17 0
v0v0v0zM-17 0v0v0v0v0v0zM-17 0v0v0v0v0v0zM-17 0v0v0v0v0zM-17 0v0v0v0zM-17 0zM-17 0zM-17 0zM-17 0zM-17 0zM-17 0zM-17 0zM-5 0v0v0v0zM-5 0v0v0v0v0v0zM-5 0v0v0zM-5 0v0v0zM-5 0zM-5 0zM-5 0zM-5 0v0v0v0zM-5 0v0v0v0v0v0zM-5 0v0v0v0v0v0zM-5 0v0v0v0v0zM-5 0v0v0v0z
M-5 0zM-5 0zM-5 0zM-5 0zM-5 0zM-5 0zM-5 0z" />
    <glyph glyph-name="zal" unicode="&#x630;" horiz-adv-x="415" arabic-form="isolated" 
d="M151 535l49 -50l-49 -49l-50 49zM265 220q0 23 -23.5 34t-55.5 11q-24 0 -50 -5.5t-48 -16.5l-14 67q26 12 56 18.5t59 6.5q28 0 54.5 -6.5t47 -21t32.5 -36t12 -51.5v-220h-290v70h220v150z" />
    <glyph glyph-name="zain" unicode="&#x632;" horiz-adv-x="240" arabic-form="isolated" 
d="M116 495l49 -50l-49 -49l-50 49zM95 320h70v-325q0 -78 -36.5 -116.5t-100.5 -38.5q-26 0 -58 6.5t-66 20.5q2 4 5 13l7 18l8 17.5t6 13.5q23 -9 45 -13t41 -4q35 0 57 18.5t22 64.5v325z" />
    <glyph glyph-name="sheen" unicode="&#x634;" horiz-adv-x="940" arabic-form="isolated" 
d="M596 575l49 -50l-49 -49l-50 49zM541 475l49 -50l-49 -49l-50 49zM661 475l49 -50l-49 -49l-50 49zM805 320h70v-235q0 -35 -25 -60t-60 -25h-335v-55q0 -35 -25 -60t-60 -25h-120q-38 0 -72 14.5t-59 39.5t-39.5 59t-14.5 72v125h70v-125q0 -24 9 -44.5t25 -36.5
t36.5 -25t44.5 -9h120q6 0 10.5 4.5t4.5 10.5v375h70v-250h140v250h70v-250h125q6 0 10.5 4.5t4.5 10.5v235z" />
    <glyph glyph-name="dad" unicode="&#x636;" horiz-adv-x="920" arabic-form="isolated" 
d="M606 495l49 -50l-49 -49l-50 49zM435 171l81 65q66 53 111.5 71t81.5 18q33 0 60 -11.5t46 -31t29.5 -46t10.5 -56.5v-95q0 -35 -25 -60t-60 -25h-335v-55q0 -17 -6.5 -32.5t-18 -27t-27 -18.5t-33.5 -7h-100q-38 0 -72 14.5t-59 40t-39.5 59t-14.5 71.5v125h70v-125
q0 -24 9 -44.5t25 -36.5t36.5 -25t44.5 -9h100q6 0 10.5 4.5t4.5 10.5v365h70v-139zM435 84v-14h335q6 0 10.5 4.5t4.5 10.5v95q0 32 -21 53.5t-55 21.5q-13 0 -26.5 -2.5t-31 -10.5t-40.5 -22.5t-53 -38.5z" />
    <glyph glyph-name="zah" unicode="&#x638;" horiz-adv-x="700" arabic-form="isolated" 
d="M431 495l49 -50l-49 -49l-50 49zM80 0q-13 0 -21.5 8.5t-8.5 21.5v10q0 13 8.5 21.5t21.5 8.5h65v470h70v-369l81 65q66 53 111.5 71t81.5 18q33 0 60 -11.5t46 -31t29.5 -46t10.5 -56.5v-95q0 -16 -7 -31.5t-18.5 -27.5t-27 -19t-32.5 -7h-470zM215 84v-14h335
q6 0 10.5 4.5t4.5 10.5v95q0 32 -21 53.5t-55 21.5q-13 0 -27 -2.5t-31.5 -10.5t-40 -22.5t-52.5 -38.5z" />
    <glyph glyph-name="ghain" unicode="&#x63a;" horiz-adv-x="460" arabic-form="isolated" 
d="M216 495l49 -50l-49 -49l-50 49zM385 70v-70h-138q-30 0 -52 -9t-36 -23.5t-20.5 -32.5t-6.5 -35q0 -14 5.5 -31.5t19.5 -33t38 -26t62 -10.5q40 0 78 11v-67q-47 -10 -88 -10q-52 0 -87.5 16t-57 40.5t-31 53.5t-9.5 55q0 44 22 86.5t76 71.5q-38 29 -56.5 63.5
t-18.5 72.5q0 32 12 57t32 41.5t46 25t55 8.5q36 0 73 -13.5t66 -41.5l-16 -58q-24 19 -57.5 31.5t-62.5 12.5q-41 0 -59.5 -19t-18.5 -45q0 -20 9 -40t25 -37t39 -29t52 -15h105z" />
    <glyph glyph-name="feh" unicode="&#x641;" horiz-adv-x="850" arabic-form="isolated" 
d="M627 495l49 -50l-49 -49l-50 49zM529 70q-31 26 -46.5 60t-15.5 69q0 24 7.5 46t23.5 38.5t41.5 26.5t60.5 10h100q35 0 60 -25t25 -60v-235h-635q-35 0 -60 25t-25 60v235h70v-235q0 -6 4.5 -10.5t10.5 -4.5h379zM535 198q0 -21 11.5 -44t31.5 -41.5t46 -30.5t56 -12h35
v165q0 6 -4.5 10.5t-10.5 4.5h-100q-35 0 -50 -15t-15 -37z" />
    <glyph glyph-name="qaf" unicode="&#x642;" horiz-adv-x="640" arabic-form="isolated" 
d="M361 535l49 -50l-49 -49l-50 49zM481 535l49 -50l-49 -49l-50 49zM250 -140q-38 0 -72 14.5t-59 39.5t-39.5 59t-14.5 72v125h70v-125q0 -24 9 -44.5t25 -36.5t36.5 -25t44.5 -9h140q24 0 44.5 8.5t36.5 23.5t25 35t9 43h-135q-22 0 -41 8t-33.5 22.5t-22.5 33.5t-8 41
v40q0 45 12.5 78t34.5 54.5t50.5 32t61.5 10.5q38 0 76.5 -13.5t74.5 -39.5v-262q0 -38 -14.5 -72t-40 -59t-59 -39.5t-71.5 -14.5h-140zM505 110v159q-20 10 -40.5 15.5t-40.5 5.5q-37 0 -63 -25.5t-26 -79.5v-40q0 -14 10.5 -24.5t24.5 -10.5h135z" />
    <glyph glyph-name="noon" unicode="&#x646;" horiz-adv-x="520" arabic-form="isolated" 
d="M256 495l49 -50l-49 -49l-50 49zM455 -15q0 -35 -25 -60t-60 -25h-120q-38 0 -72 14.5t-59 39.5t-39.5 59t-14.5 72v135h70v-135q0 -24 9 -44.5t25 -36.5t36.5 -25t44.5 -9h120q6 0 10.5 4.5t4.5 10.5v335h70v-335zM28 0v0v0v0zM28 0v0v0v0v0v0zM28 0v0v0zM28 0v0v0z
M28 0zM28 0zM28 0zM28 0v0v0v0zM28 0v0v0v0v0v0zM28 0v0v0v0v0v0zM28 0v0v0v0v0zM28 0v0v0v0zM28 0zM28 0zM28 0zM28 0zM28 0zM28 0zM28 0zM28 0v0v0v0zM28 0v0v0v0v0v0zM28 0v0v0zM28 0v0v0zM28 0zM28 0zM28 0zM28 0v0v0v0zM28 0v0v0v0v0v0zM28 0v0v0v0v0v0zM28 0v0v0v0v0z
M28 0v0v0v0zM28 0zM28 0zM28 0zM28 0zM28 0zM28 0zM28 0z" />
    <glyph glyph-name="yeh" unicode="&#x64a;" horiz-adv-x="670" arabic-form="isolated" 
d="M276 -195l49 -45l-49 -45l-50 45zM396 -195l49 -45l-49 -45l-50 45zM579 262q-55 19 -93 19q-40 0 -65.5 -26.5t-25.5 -89.5v-40h155q23 0 39 -16t16 -39v-45q0 -39 -14.5 -72.5t-39.5 -58.5t-58.5 -39.5t-72.5 -14.5h-170q-39 0 -72.5 14.5t-58.5 39.5t-39.5 58.5
t-14.5 72.5v115h70v-115q0 -24 9 -44.5t25 -36.5t36.5 -25t44.5 -9h170q24 0 44.5 9t36.5 25t25 36.5t9 44.5v30h-155q-23 0 -39 16t-16 39v55q0 96 43.5 140.5t115.5 44.5q24 0 53.5 -5.5t63.5 -16.5z" />
    <glyph glyph-name="sennan" unicode="&#x66e;" horiz-adv-x="260" 
d="M125 320h70v-320h-195q-13 0 -21.5 8.5t-8.5 21.5v10q0 13 8.5 21.5t21.5 8.5h125v250z" />
    <glyph glyph-name="sennam" unicode="&#x66e;" horiz-adv-x="300" 
d="M-30 40q0 13 8.5 21.5t21.5 8.5h115v250h70v-250h115v-70h-300q-13 0 -21.5 8.5t-8.5 21.5v10z" />
    <glyph glyph-name="behfc" unicode="&#x66e;" horiz-adv-x="770" 
d="M135 85q0 -6 4.5 -10.5t10.5 -4.5h475v250h70v-250h75v-70h-620q-35 0 -60 25t-25 60v235h70v-235z" />
    <glyph glyph-name="uni066F.init" unicode="&#x66f;" horiz-adv-x="450" 
d="M129 70q-31 25 -47 58.5t-16 67.5q0 25 7.5 47.5t24 39.5t41.5 27t61 10h100q35 0 60 -25t25 -60v-235h-385q-13 0 -21.5 8.5t-8.5 21.5v10q0 13 8.5 21.5t21.5 8.5h129zM135 198q0 -21 11.5 -44t31.5 -41.5t46 -30.5t56 -12h35v165q0 6 -4.5 10.5t-10.5 4.5h-100
q-35 0 -50 -15t-15 -37z" />
    <glyph glyph-name="uni066F.medi" unicode="&#x66f;" horiz-adv-x="480" 
d="M65 170q0 32 13.5 60.5t37.5 49.5t56 33t68 12t68 -12t56 -33t37.5 -49.5t13.5 -60.5q0 -59 -41 -100h106v-70h-480q-13 0 -21.5 8.5t-8.5 21.5v10q0 13 8.5 21.5t21.5 8.5h104q-20 20 -29.5 45.5t-9.5 54.5zM135 162q0 -20 8 -36.5t22.5 -29t33.5 -19.5t41 -7t41 7
t33 19.5t22.5 29.5t8.5 36t-8.5 36t-22.5 29.5t-33 20t-41 7.5t-41 -7.5t-33.5 -20t-22.5 -29.5t-8 -36z" />
    <glyph glyph-name="qaffc" unicode="&#x66f;" horiz-adv-x="645" 
d="M390 -110q24 0 44.5 8.5t36.5 23.5t25 35t9 43h-135q-22 0 -41 8t-33.5 22.5t-22.5 33.5t-8 41v40q0 45 12.5 78t34.5 54.5t50.5 32t61.5 10.5q38 0 76.5 -13.5t74.5 -39.5v-197h70v-70h-70q0 -37 -14.5 -70t-40 -57.5t-59 -38.5t-71.5 -14h-140q-38 0 -72 14.5t-59 39.5
t-39.5 59t-14.5 72v125h70v-125q0 -24 9 -44.5t25 -36.5t36.5 -25t44.5 -9h140zM505 70v159q-20 10 -40.5 15.5t-40.5 5.5q-37 0 -63 -25.5t-26 -79.5v-40q0 -14 10.5 -24.5t24.5 -10.5h135z" />
    <glyph glyph-name="wasl" unicode="&#x671;" horiz-adv-x="220" arabic-form="isolated" 
d="M145 540v-540h-70v540h70zM35 610h15v56h30v-23l15 14q9 8 21 8h39q8 0 14 -6.5t6 -15.5v-63h-140v30zM80 610h65v25h-35z" />
    <glyph glyph-name="uni0679" unicode="&#x679;" horiz-adv-x="770" arabic-form="isolated" 
d="M635 320h70v-235q0 -35 -25 -60t-60 -25h-470q-35 0 -60 25t-25 60v235h70v-235q0 -6 4.5 -10.5t10.5 -4.5h470q6 0 10.5 4.5t4.5 10.5v235zM320 430h15v106h28v-75l17 16q9 8 21 8h39q8 0 14 -6.5t6 -15.5v-63h-140v30zM365 430h65v25h-35z" />
    <glyph glyph-name="uni067E" unicode="&#x67e;" horiz-adv-x="770" arabic-form="isolated" 
d="M391 -135l49 -50l-49 -49l-50 49zM326 -45l49 -50l-49 -49l-50 49zM446 -45l49 -50l-49 -49l-50 49zM635 320h70v-235q0 -35 -25 -60t-60 -25h-470q-35 0 -60 25t-25 60v235h70v-235q0 -6 4.5 -10.5t10.5 -4.5h470q6 0 10.5 4.5t4.5 10.5v235z" />
    <glyph glyph-name="uni0686" unicode="&#x686;" horiz-adv-x="490" arabic-form="isolated" 
d="M279 -266q-8 -1 -16 -1h-16q-53 0 -88.5 16.5t-57 41t-30.5 54t-9 55.5q0 30 11 60.5t33.5 54.5t57.5 39.5t83 15.5h68q-26 22 -40 53l-28 59q-13 27 -30.5 46.5t-50.5 19.5q-14 0 -31.5 -6t-40.5 -25l-31 56q27 20 52.5 33.5t56.5 13.5q38 0 63.5 -18.5t43.5 -46.5
t32 -60t30 -60t36.5 -46.5t52.5 -18.5h5v-70h-188q-30 0 -52 -9t-36 -23.5t-20.5 -32.5t-6.5 -35q0 -14 5.5 -31.5t19.5 -33t38 -26t62 -10.5q5 0 11 0.5t11 0.5v-66zM347 -135l44 -50l-44 -49l-45 49zM289 -45l44 -50l-44 -49l-45 49zM397 -45l44 -50l-44 -49l-45 49z" />
    <glyph glyph-name="uni0688" unicode="&#x688;" horiz-adv-x="415" arabic-form="isolated" 
d="M265 220q0 23 -23.5 34t-55.5 11q-24 0 -50 -5.5t-48 -16.5l-14 67q26 12 56 18.5t59 6.5q28 0 54.5 -6.5t47 -21t32.5 -36t12 -51.5v-220h-290v70h220v150zM95 460h15v106h28v-75l17 16q9 8 21 8h39q8 0 14 -6.5t6 -15.5v-63h-140v30zM140 460h65v25h-35z" />
    <glyph glyph-name="uni0691" unicode="&#x691;" horiz-adv-x="240" arabic-form="isolated" 
d="M95 320h70v-325q0 -78 -36.5 -116.5t-100.5 -38.5q-26 0 -58 6.5t-66 20.5q2 4 5 13l7 18l8 17.5t6 13.5q23 -9 45 -13t41 -4q35 0 57 18.5t22 64.5v325zM39 430h15v106h28v-75l17 16q9 8 21 8h39q8 0 14 -6.5t6 -15.5v-63h-140v30zM84 430h65v25h-35z" />
    <glyph glyph-name="uni0698" unicode="&#x698;" horiz-adv-x="240" arabic-form="isolated" 
d="M111 575l45 -50l-45 -49l-45 49zM62 475l44 -50l-44 -49l-45 49zM170 475l44 -50l-44 -49l-45 49zM95 320h70v-325q0 -78 -36.5 -116.5t-100.5 -38.5q-26 0 -58 6.5t-66 20.5q2 4 5 13l7 18l8 17.5t6 13.5q23 -9 45 -13t41 -4q35 0 57 18.5t22 64.5v325z" />
    <glyph glyph-name="uni069C.init" unicode="&#x69c;" horiz-adv-x="660" 
d="M346 575l49 -50l-49 -49l-50 49zM291 475l49 -50l-49 -49l-50 49zM411 475l49 -50l-49 -49l-50 49zM356 -135l49 -50l-49 -49l-50 49zM291 -45l49 -50l-49 -49l-50 49zM411 -45l49 -50l-49 -49l-50 49zM105 70v250h70v-250h140v250h70v-250h125q6 0 10.5 4.5t4.5 10.5
v235h70v-235q0 -35 -25 -60t-60 -25h-510q-13 0 -21.5 8.5t-8.5 21.5v10q0 13 8.5 21.5t21.5 8.5h105z" />
    <glyph glyph-name="uni069C.medi" unicode="&#x69c;" horiz-adv-x="700" 
d="M346 575l49 -50l-49 -49l-50 49zM291 475l49 -50l-49 -49l-50 49zM411 475l49 -50l-49 -49l-50 49zM356 -135l49 -50l-49 -49l-50 49zM291 -45l49 -50l-49 -49l-50 49zM411 -45l49 -50l-49 -49l-50 49zM105 70v250h70v-250h140v250h70v-250h140v250h70v-250h105v-70h-700
q-13 0 -21.5 8.5t-8.5 21.5v10q0 13 8.5 21.5t21.5 8.5h105z" />
    <glyph glyph-name="uni069C.fina" unicode="&#x69c;" horiz-adv-x="980" 
d="M596 575l49 -50l-49 -49l-50 49zM541 475l49 -50l-49 -49l-50 49zM661 475l49 -50l-49 -49l-50 49zM654 -135l49 -50l-49 -49l-50 49zM589 -45l49 -50l-49 -49l-50 49zM709 -45l49 -50l-49 -49l-50 49zM385 320h70v-250h140v250h70v-250h140v250h70v-250h105v-70h-525
v-55q0 -35 -25 -60t-60 -25h-120q-38 0 -72 14.5t-59 39.5t-39.5 59t-14.5 72v125h70v-125q0 -24 9 -44.5t25 -36.5t36.5 -25t44.5 -9h120q6 0 10.5 4.5t4.5 10.5v375z" />
    <glyph glyph-name="fehnc" unicode="&#x6a1;" horiz-adv-x="450" 
d="M129 70q-31 25 -47 58.5t-16 67.5q0 25 7.5 47.5t24 39.5t41.5 27t61 10h100q35 0 60 -25t25 -60v-235h-385q-13 0 -21.5 8.5t-8.5 21.5v10q0 13 8.5 21.5t21.5 8.5h129zM135 198q0 -21 11.5 -44t31.5 -41.5t46 -30.5t56 -12h35v165q0 6 -4.5 10.5t-10.5 4.5h-100
q-35 0 -50 -15t-15 -37z" />
    <glyph glyph-name="fehmc" unicode="&#x6a1;" horiz-adv-x="480" 
d="M65 170q0 32 13.5 60.5t37.5 49.5t56 33t68 12t68 -12t56 -33t37.5 -49.5t13.5 -60.5q0 -59 -41 -100h106v-70h-480q-13 0 -21.5 8.5t-8.5 21.5v10q0 13 8.5 21.5t21.5 8.5h104q-20 20 -29.5 45.5t-9.5 54.5zM135 162q0 -20 8 -36.5t22.5 -29t33.5 -19.5t41 -7t41 7
t33 19.5t22.5 29.5t8.5 36t-8.5 36t-22.5 29.5t-33 20t-41 7.5t-41 -7.5t-33.5 -20t-22.5 -29.5t-8 -36z" />
    <glyph glyph-name="fehfc" unicode="&#x6a1;" horiz-adv-x="850" 
d="M850 0h-700q-16 0 -31.5 6.5t-27.5 18t-19 27t-7 33.5v205h70v-205q0 -6 4.5 -10.5t10.5 -4.5h324q-20 20 -29.5 45.5t-9.5 54.5q0 32 13.5 60.5t37.5 49.5t56 33t68 12t68 -12t56 -33t37.5 -49.5t13.5 -60.5q0 -59 -41 -100h106v-70zM505 162q0 -38 28.5 -65t76.5 -27
q22 0 41 7t33.5 19.5t22.5 29t8 36.5q0 19 -8.5 36t-22.5 29.5t-33 20t-41 7.5t-41 -7.5t-33.5 -20t-22.5 -29.5t-8 -36z" />
    <glyph glyph-name="uni06A2.init" unicode="&#x6a2;" horiz-adv-x="450" 
d="M221 -55l49 -50l-49 -49l-50 49zM129 70q-31 25 -47 58.5t-16 67.5q0 25 7.5 47.5t24 39.5t41.5 27t61 10h100q35 0 60 -25t25 -60v-235h-385q-13 0 -21.5 8.5t-8.5 21.5v10q0 13 8.5 21.5t21.5 8.5h129zM135 198q0 -21 11.5 -44t31.5 -41.5t46 -30.5t56 -12h35v165
q0 6 -4.5 10.5t-10.5 4.5h-100q-35 0 -50 -15t-15 -37z" />
    <glyph glyph-name="uni06A2.medi" unicode="&#x6a2;" horiz-adv-x="480" 
d="M241 -55l49 -50l-49 -49l-50 49zM65 170q0 32 13.5 60.5t37.5 49.5t56 33t68 12t68 -12t56 -33t37.5 -49.5t13.5 -60.5q0 -59 -41 -100h106v-70h-480q-13 0 -21.5 8.5t-8.5 21.5v10q0 13 8.5 21.5t21.5 8.5h104q-20 20 -29.5 45.5t-9.5 54.5zM135 162q0 -20 8 -36.5
t22.5 -29t33.5 -19.5t41 -7t41 7t33 19.5t22.5 29.5t8.5 36t-8.5 36t-22.5 29.5t-33 20t-41 7.5t-41 -7.5t-33.5 -20t-22.5 -29.5t-8 -36z" />
    <glyph glyph-name="uni06A2.fina" unicode="&#x6a2;" horiz-adv-x="850" 
d="M626 -55l49 -50l-49 -49l-50 49zM850 0h-700q-16 0 -31.5 6.5t-27.5 18t-19 27t-7 33.5v205h70v-205q0 -6 4.5 -10.5t10.5 -4.5h324q-20 20 -29.5 45.5t-9.5 54.5q0 32 13.5 60.5t37.5 49.5t56 33t68 12t68 -12t56 -33t37.5 -49.5t13.5 -60.5q0 -59 -41 -100h106v-70z
M505 162q0 -38 28.5 -65t76.5 -27q22 0 41 7t33.5 19.5t22.5 29t8 36.5q0 19 -8.5 36t-22.5 29.5t-33 20t-41 7.5t-41 -7.5t-33.5 -20t-22.5 -29.5t-8 -36z" />
    <glyph glyph-name="uni06A4" unicode="&#x6a4;" horiz-adv-x="850" arabic-form="isolated" 
d="M626 575l49 -50l-49 -49l-50 49zM571 475l49 -50l-49 -49l-50 49zM691 475l49 -50l-49 -49l-50 49zM529 70q-31 26 -46.5 60t-15.5 69q0 24 7.5 46t23.5 38.5t41.5 26.5t60.5 10h100q35 0 60 -25t25 -60v-235h-635q-35 0 -60 25t-25 60v235h70v-235q0 -6 4.5 -10.5
t10.5 -4.5h379zM535 198q0 -21 11.5 -44t31.5 -41.5t46 -30.5t56 -12h35v165q0 6 -4.5 10.5t-10.5 4.5h-100q-35 0 -50 -15t-15 -37z" />
    <glyph glyph-name="uni06A5.init" unicode="&#x6a5;" horiz-adv-x="450" 
d="M236 -135l49 -50l-49 -49l-50 49zM171 -45l49 -50l-49 -49l-50 49zM291 -45l49 -50l-49 -49l-50 49zM129 70q-31 25 -47 58.5t-16 67.5q0 25 7.5 47.5t24 39.5t41.5 27t61 10h100q35 0 60 -25t25 -60v-235h-385q-13 0 -21.5 8.5t-8.5 21.5v10q0 13 8.5 21.5t21.5 8.5h129
zM135 198q0 -21 11.5 -44t31.5 -41.5t46 -30.5t56 -12h35v165q0 6 -4.5 10.5t-10.5 4.5h-100q-35 0 -50 -15t-15 -37z" />
    <glyph glyph-name="uni06A5.medi" unicode="&#x6a5;" horiz-adv-x="480" 
d="M250 -135l49 -50l-49 -49l-50 49zM185 -45l49 -50l-49 -49l-50 49zM305 -45l49 -50l-49 -49l-50 49zM65 170q0 32 13.5 60.5t37.5 49.5t56 33t68 12t68 -12t56 -33t37.5 -49.5t13.5 -60.5q0 -59 -41 -100h106v-70h-480q-13 0 -21.5 8.5t-8.5 21.5v10q0 13 8.5 21.5
t21.5 8.5h104q-20 20 -29.5 45.5t-9.5 54.5zM135 162q0 -20 8 -36.5t22.5 -29t33.5 -19.5t41 -7t41 7t33 19.5t22.5 29.5t8.5 36t-8.5 36t-22.5 29.5t-33 20t-41 7.5t-41 -7.5t-33.5 -20t-22.5 -29.5t-8 -36z" />
    <glyph glyph-name="uni06A5.fina" unicode="&#x6a5;" horiz-adv-x="850" 
d="M636 -135l49 -50l-49 -49l-50 49zM571 -45l49 -50l-49 -49l-50 49zM691 -45l49 -50l-49 -49l-50 49zM850 0h-700q-16 0 -31.5 6.5t-27.5 18t-19 27t-7 33.5v205h70v-205q0 -6 4.5 -10.5t10.5 -4.5h324q-20 20 -29.5 45.5t-9.5 54.5q0 32 13.5 60.5t37.5 49.5t56 33t68 12
t68 -12t56 -33t37.5 -49.5t13.5 -60.5q0 -59 -41 -100h106v-70zM505 162q0 -38 28.5 -65t76.5 -27q22 0 41 7t33.5 19.5t22.5 29t8 36.5q0 19 -8.5 36t-22.5 29.5t-33 20t-41 7.5t-41 -7.5t-33.5 -20t-22.5 -29.5t-8 -36z" />
    <glyph glyph-name="uni06A7.fina" unicode="&#x6a7;" horiz-adv-x="645" 
d="M416 495l49 -50l-49 -49l-50 49zM390 -110q24 0 44.5 8.5t36.5 23.5t25 35t9 43h-135q-22 0 -41 8t-33.5 22.5t-22.5 33.5t-8 41v40q0 45 12.5 78t34.5 54.5t50.5 32t61.5 10.5q38 0 76.5 -13.5t74.5 -39.5v-197h70v-70h-70q0 -37 -14.5 -70t-40 -57.5t-59 -38.5
t-71.5 -14h-140q-38 0 -72 14.5t-59 39.5t-39.5 59t-14.5 72v125h70v-125q0 -24 9 -44.5t25 -36.5t36.5 -25t44.5 -9h140zM505 70v159q-20 10 -40.5 15.5t-40.5 5.5q-37 0 -63 -25.5t-26 -79.5v-40q0 -14 10.5 -24.5t24.5 -10.5h135z" />
    <glyph glyph-name="uni06A8.fina" unicode="&#x6a8;" horiz-adv-x="645" 
d="M416 575l49 -50l-49 -49l-50 49zM361 475l49 -50l-49 -49l-50 49zM481 475l49 -50l-49 -49l-50 49zM390 -110q24 0 44.5 8.5t36.5 23.5t25 35t9 43h-135q-22 0 -41 8t-33.5 22.5t-22.5 33.5t-8 41v40q0 45 12.5 78t34.5 54.5t50.5 32t61.5 10.5q38 0 76.5 -13.5
t74.5 -39.5v-197h70v-70h-70q0 -37 -14.5 -70t-40 -57.5t-59 -38.5t-71.5 -14h-140q-38 0 -72 14.5t-59 39.5t-39.5 59t-14.5 72v125h70v-125q0 -24 9 -44.5t25 -36.5t36.5 -25t44.5 -9h140zM505 70v159q-20 10 -40.5 15.5t-40.5 5.5q-37 0 -63 -25.5t-26 -79.5v-40
q0 -14 10.5 -24.5t24.5 -10.5h135z" />
    <glyph glyph-name="uni06A9" unicode="&#x6a9;" horiz-adv-x="713" arabic-form="isolated" 
d="M649 484l-87 -85l-86 -85q32 -5 62.5 -15.5t54 -30.5t38 -51.5t14.5 -76.5v-140h-495q-36 0 -60.5 24.5t-24.5 60.5v205h70v-205q0 -6 4.5 -10.5t10.5 -4.5h425v70q0 36 -18 58t-46 33.5t-61.5 15.5t-64.5 4l-15 60l115 111l115 111z" />
    <glyph glyph-name="uni06AF" unicode="&#x6af;" horiz-adv-x="713" arabic-form="isolated" 
d="M649 484l-87 -85l-86 -85q32 -5 62.5 -15.5t54 -30.5t38 -51.5t14.5 -76.5v-140h-495q-36 0 -60.5 24.5t-24.5 60.5v205h70v-205q0 -6 4.5 -10.5t10.5 -4.5h425v70q0 36 -18 58t-46 33.5t-61.5 15.5t-64.5 4l-15 60l115 111l115 111zM300 431l205 198l49 -50l-218 -209z
" />
    <glyph glyph-name="uni06BA.init" unicode="&#x6ba;" horiz-adv-x="260" 
d="M146 495l49 -50l-49 -49l-50 49zM125 320h70v-320h-195q-13 0 -21.5 8.5t-8.5 21.5v10q0 13 8.5 21.5t21.5 8.5h125v250z" />
    <glyph glyph-name="uni06BA.medi" unicode="&#x6ba;" horiz-adv-x="300" 
d="M146 495l49 -50l-49 -49l-50 49zM-30 40q0 13 8.5 21.5t21.5 8.5h115v250h70v-250h115v-70h-300q-13 0 -21.5 8.5t-8.5 21.5v10z" />
    <glyph glyph-name="uni06BE" unicode="&#x6be;" horiz-adv-x="640" arabic-form="isolated" 
d="M267 230q-19 0 -34 -7.5t-25.5 -19.5t-16.5 -28t-6 -32q0 -29 19 -51t63 -22h58v145q0 6 -4.5 10.5t-10.5 4.5h-43zM310 300q35 0 60 -25t25 -60v-145h110v150q0 64 -30 89.5t-77 25.5q-19 0 -41 -2.5t-43 -8.5q-4 15 -7.5 29.5t-6.5 29.5q32 11 60.5 16.5t55.5 5.5
q71 0 115 -44.5t44 -140.5v-220h-515q-13 0 -21.5 8.5t-8.5 21.5v10q0 13 8.5 21.5t21.5 8.5h72q-17 30 -17 73q0 29 11 57t30.5 50.5t47.5 36t63 13.5h43z" />
    <glyph glyph-name="uni06C0" unicode="&#x6c0;" horiz-adv-x="440" arabic-form="isolated" 
d="M65 0v170q0 40 13 68.5t35.5 46.5t51.5 26.5t61 8.5q39 0 78 -12t71 -34v-274h-310zM305 70v164q-37 16 -79 16q-36 0 -63.5 -19t-27.5 -61v-100h170zM277 512q-5 -8 -9.5 -14t-9.5 -14q-6 5 -17 9.5t-22 4.5q-19 0 -19 -14q0 -11 12.5 -24t32.5 -19h37v-41h-124v41h29
q-26 24 -26 52q0 17 13 28.5t35 11.5q16 0 33.5 -5.5t34.5 -15.5z" />
    <glyph glyph-name="uni06C1" unicode="&#x6c1;" horiz-adv-x="440" arabic-form="isolated" 
d="M65 0v170q0 40 13 68.5t35.5 46.5t51.5 26.5t61 8.5q39 0 78 -12t71 -34v-274h-310zM305 70v164q-37 16 -79 16q-36 0 -63.5 -19t-27.5 -61v-100h170z" />
    <glyph glyph-name="uni06C2.fina" unicode="&#x6c2;" horiz-adv-x="500" 
d="M354 512q-5 -8 -9.5 -14t-9.5 -14q-6 5 -17 9.5t-22 4.5q-19 0 -19 -14q0 -11 12.5 -24t32.5 -19h37v-41h-124v41h29q-26 24 -26 52q0 17 13 28.5t35 11.5q16 0 33.5 -5.5t34.5 -15.5zM140 0h-75l49 126l51 125q12 29 38.5 49t59.5 20h162v-235q0 -6 4.5 -10.5t10.5 -4.5
h60v-70h-60q-35 0 -60 25t-25 60v165h-92q-11 0 -20 -6.5t-13 -16.5z" />
    <glyph glyph-name="uni06C3.fina" unicode="&#x6c3;" horiz-adv-x="500" 
d="M239 495l49 -50l-49 -49l-50 49zM359 495l49 -50l-49 -49l-50 49zM140 0h-75l50 126l50 125q12 29 38.5 49t59.5 20h162v-235q0 -6 4.5 -10.5t10.5 -4.5h60v-70h-60q-35 0 -60 25t-25 60v165h-92q-11 0 -20 -6.5t-13 -16.5z" />
    <glyph glyph-name="uni06CC" unicode="&#x6cc;" horiz-adv-x="670" arabic-form="isolated" 
d="M579 262q-55 19 -93 19q-40 0 -65.5 -26.5t-25.5 -89.5v-40h155q23 0 39 -16t16 -39v-45q0 -39 -14.5 -72.5t-39.5 -58.5t-58.5 -39.5t-72.5 -14.5h-170q-39 0 -72.5 14.5t-58.5 39.5t-39.5 58.5t-14.5 72.5v115h70v-115q0 -24 9 -44.5t25 -36.5t36.5 -25t44.5 -9h170
q24 0 44.5 9t36.5 25t25 36.5t9 44.5v30h-155q-23 0 -39 16t-16 39v55q0 96 43.5 140.5t115.5 44.5q24 0 53.5 -5.5t63.5 -16.5z" />
    <glyph glyph-name="uni06D2" unicode="&#x6d2;" horiz-adv-x="620" arabic-form="isolated" 
d="M555 0h-347q-30 0 -51.5 -22t-21.5 -53v-35h305q26 0 47.5 -20.5t22.5 -49.5h-375q-27 0 -48.5 21t-21.5 49v35q0 30 11 56.5t30.5 46t45.5 31t56 11.5h277v125q28 0 49 -20.5t21 -49.5v-125z" />
    <glyph glyph-name="uni06D3" unicode="&#x6d3;" horiz-adv-x="620" arabic-form="isolated" 
d="M317 307q-5 -8 -9.5 -14t-9.5 -14q-6 5 -17 9.5t-22 4.5q-19 0 -19 -14q0 -11 12.5 -24t32.5 -19h37v-41h-124v41h29q-26 24 -26 52q0 17 13 28.5t35 11.5q16 0 33.5 -5.5t34.5 -15.5zM555 0h-347q-30 0 -51.5 -22t-21.5 -53v-35h305q26 0 47.5 -20.5t22.5 -49.5h-375
q-27 0 -48.5 21t-21.5 49v35q0 30 11 56.5t30.5 46t45.5 31t56 11.5h277v125q28 0 49 -20.5t21 -49.5v-125z" />
    <glyph glyph-name="uni06D5.fina" unicode="&#x6d5;" horiz-adv-x="460" 
d="M65 129q0 31 16.5 65t48 62t77 46t103.5 18h75v-250h75v-70h-260q-36 0 -62 10.5t-42 28t-23.5 41t-7.5 49.5zM135 129q0 -22 15 -40.5t50 -18.5h115v180q-42 0 -75.5 -10.5t-57 -27.5t-35.5 -39t-12 -44z" />
    <glyph glyph-name="waslf" unicode="&#x671;" horiz-adv-x="220" arabic-form="final" 
d="M135 540v-470h85v-70h-155v540h70zM35 610h15v56h30v-23l15 14q9 8 21 8h39q8 0 14 -6.5t6 -15.5v-63h-140v30zM80 610h65v25h-35z" />
    <glyph glyph-name="uni067E.fina" unicode="&#x67e;" horiz-adv-x="770" arabic-form="final" 
d="M391 -135l49 -50l-49 -49l-50 49zM326 -45l49 -50l-49 -49l-50 49zM446 -45l49 -50l-49 -49l-50 49zM135 85q0 -6 4.5 -10.5t10.5 -4.5h475v250h70v-250h75v-70h-620q-35 0 -60 25t-25 60v235h70v-235z" />
    <glyph glyph-name="uni067E.init" unicode="&#x67e;" horiz-adv-x="260" arabic-form="initial" 
d="M106 -135l49 -50l-49 -49l-50 49zM41 -45l49 -50l-49 -49l-50 49zM161 -45l49 -50l-49 -49l-50 49zM125 320h70v-320h-195q-13 0 -21.5 8.5t-8.5 21.5v10q0 13 8.5 21.5t21.5 8.5h125v250z" />
    <glyph glyph-name="uni067E.medi" unicode="&#x67e;" horiz-adv-x="300" arabic-form="medial" 
d="M131 -135l49 -50l-49 -49l-50 49zM66 -45l49 -50l-49 -49l-50 49zM186 -45l49 -50l-49 -49l-50 49zM-30 40q0 13 8.5 21.5t21.5 8.5h115v250h70v-250h115v-70h-300q-13 0 -21.5 8.5t-8.5 21.5v10z" />
    <glyph glyph-name="uni0679.fina" unicode="&#x679;" horiz-adv-x="770" arabic-form="final" 
d="M135 85q0 -6 4.5 -10.5t10.5 -4.5h475v250h70v-250h75v-70h-620q-35 0 -60 25t-25 60v235h70v-235zM320 430h15v106h28v-75l17 16q9 8 21 8h39q8 0 14 -6.5t6 -15.5v-63h-140v30zM365 430h65v25h-35z" />
    <glyph glyph-name="uni0679.init" unicode="&#x679;" horiz-adv-x="260" arabic-form="initial" 
d="M125 320h70v-320h-195q-13 0 -21.5 8.5t-8.5 21.5v10q0 13 8.5 21.5t21.5 8.5h125v250zM65 430h15v106h28v-75l17 16q9 8 21 8h39q8 0 14 -6.5t6 -15.5v-63h-140v30zM110 430h65v25h-35z" />
    <glyph glyph-name="uni0679.medi" unicode="&#x679;" horiz-adv-x="300" arabic-form="medial" 
d="M-30 40q0 13 8.5 21.5t21.5 8.5h115v250h70v-250h115v-70h-300q-13 0 -21.5 8.5t-8.5 21.5v10zM65 430h15v106h28v-75l17 16q9 8 21 8h39q8 0 14 -6.5t6 -15.5v-63h-140v30zM110 430h65v25h-35z" />
    <glyph glyph-name="uni06A4.fina" unicode="&#x6a4;" horiz-adv-x="850" arabic-form="final" 
d="M616 575l49 -50l-49 -49l-50 49zM561 475l49 -50l-49 -49l-50 49zM681 475l49 -50l-49 -49l-50 49zM850 0h-700q-16 0 -31.5 6.5t-27.5 18t-19 27t-7 33.5v205h70v-205q0 -6 4.5 -10.5t10.5 -4.5h324q-20 20 -29.5 45.5t-9.5 54.5q0 32 13.5 60.5t37.5 49.5t56 33t68 12
t68 -12t56 -33t37.5 -49.5t13.5 -60.5q0 -59 -41 -100h106v-70zM505 162q0 -38 28.5 -65t76.5 -27q22 0 41 7t33.5 19.5t22.5 29t8 36.5q0 19 -8.5 36t-22.5 29.5t-33 20t-41 7.5t-41 -7.5t-33.5 -20t-22.5 -29.5t-8 -36z" />
    <glyph glyph-name="uni06A4.init" unicode="&#x6a4;" horiz-adv-x="450" arabic-form="initial" 
d="M221 575l49 -50l-49 -49l-50 49zM166 475l49 -50l-49 -49l-50 49zM286 475l49 -50l-49 -49l-50 49zM129 70q-31 25 -47 58.5t-16 67.5q0 25 7.5 47.5t24 39.5t41.5 27t61 10h100q35 0 60 -25t25 -60v-235h-385q-13 0 -21.5 8.5t-8.5 21.5v10q0 13 8.5 21.5t21.5 8.5h129z
M135 198q0 -21 11.5 -44t31.5 -41.5t46 -30.5t56 -12h35v165q0 6 -4.5 10.5t-10.5 4.5h-100q-35 0 -50 -15t-15 -37z" />
    <glyph glyph-name="uni06A4.medi" unicode="&#x6a4;" horiz-adv-x="480" arabic-form="medial" 
d="M238 575l49 -50l-49 -49l-50 49zM183 475l49 -50l-49 -49l-50 49zM303 475l49 -50l-49 -49l-50 49zM65 170q0 32 13.5 60.5t37.5 49.5t56 33t68 12t68 -12t56 -33t37.5 -49.5t13.5 -60.5q0 -59 -41 -100h106v-70h-480q-13 0 -21.5 8.5t-8.5 21.5v10q0 13 8.5 21.5
t21.5 8.5h104q-20 20 -29.5 45.5t-9.5 54.5zM135 162q0 -20 8 -36.5t22.5 -29t33.5 -19.5t41 -7t41 7t33 19.5t22.5 29.5t8.5 36t-8.5 36t-22.5 29.5t-33 20t-41 7.5t-41 -7.5t-33.5 -20t-22.5 -29.5t-8 -36z" />
    <glyph glyph-name="uni0686.fina" unicode="&#x686;" horiz-adv-x="440" arabic-form="final" 
d="M279 -266q-8 -1 -16 -1.5t-16 -0.5q-53 0 -88.5 16.5t-57 41t-30.5 54t-9 55.5q0 30 11 60.5t33.5 55t57.5 40t83 15.5h68q-25 22 -39 53l-28 58q-14 28 -32 47.5t-50 19.5q-14 0 -31.5 -6t-40.5 -25l-6 12l-9 16l-9 16q-5 8 -7 12q27 20 52.5 33.5t56.5 13.5
q38 0 63.5 -18.5t43.5 -46.5t32 -60.5t29.5 -60.5t36 -46.5t52.5 -18.5h6q3 0 5 1v-70h-193q-30 0 -52 -9t-36 -23.5t-20.5 -32.5t-6.5 -36t7 -36t21.5 -32.5t37.5 -23.5t56 -9q6 0 12.5 0.5t12.5 1.5v-66zM347 -135l44 -50l-44 -49l-45 49zM289 -45l44 -50l-44 -49l-45 49z
M397 -45l44 -50l-44 -49l-45 49z" />
    <glyph glyph-name="uni0686.init" unicode="&#x686;" horiz-adv-x="490" arabic-form="initial" 
d="M226 -135l49 -50l-49 -49l-50 49zM161 -45l49 -50l-49 -49l-50 49zM281 -45l49 -50l-49 -49l-50 49zM-30 30q0 16 16.5 28t36.5 12h296q-13 9 -23 22l-21 27l-30 46q-15 23 -31.5 41.5t-35.5 30t-42 11.5q-14 0 -31.5 -6t-40.5 -25l-31 56q27 20 52.5 33.5t56.5 13.5
q38 0 66.5 -18.5t51 -46.5t41.5 -60t39.5 -60t44 -46.5t55.5 -18.5h20v-70h-460q-13 0 -21.5 8.5t-8.5 21.5z" />
    <glyph glyph-name="uni0686.medi" unicode="&#x686;" horiz-adv-x="480" arabic-form="medial" 
d="M245 -135l49 -50l-49 -49l-50 49zM180 -45l49 -50l-49 -49l-50 49zM300 -45l49 -50l-49 -49l-50 49zM480 70v-70h-480q-13 0 -21.5 8.5t-8.5 21.5v10q0 13 8.5 21.5t21.5 8.5h319q-14 11 -25.5 24.5t-22.5 28.5q-17 24 -31 46.5t-29.5 40t-33.5 28t-41 10.5
q-14 0 -31.5 -6t-40.5 -25l-31 56q27 20 52.5 33.5t56.5 13.5q38 0 66.5 -18.5t51 -46.5t41.5 -60t39.5 -60t44 -46.5t55.5 -18.5h40z" />
    <glyph glyph-name="uni0688.fina" unicode="&#x688;" horiz-adv-x="410" arabic-form="final" 
d="M265 220q0 23 -23.5 34t-55.5 11q-24 0 -50 -5.5t-48 -16.5l-14 67q26 12 56 18.5t59 6.5q28 0 54.5 -6.5t47 -21t32.5 -36t12 -51.5v-150h75v-70h-365v70h220v150zM95 460h15v106h28v-75l17 16q9 8 21 8h39q8 0 14 -6.5t6 -15.5v-63h-140v30zM140 460h65v25h-35z" />
    <glyph glyph-name="uni0698.fina" unicode="&#x698;" horiz-adv-x="240" arabic-form="final" 
d="M111 575l45 -50l-45 -49l-45 49zM62 475l44 -50l-44 -49l-45 49zM170 475l44 -50l-44 -49l-45 49zM155 320v-250h85v-70h-85q0 -81 -36.5 -120.5t-100.5 -39.5q-55 0 -124 27q-1 -1 3 8.5t8.5 21.5t9 22t5.5 10q23 -9 45 -13t41 -4q35 0 57 18.5t22 64.5v325h70z" />
    <glyph glyph-name="uni0691.fina" unicode="&#x691;" horiz-adv-x="240" arabic-form="final" 
d="M155 320v-250h85v-70h-85q0 -81 -36.5 -120.5t-100.5 -39.5q-55 0 -124 27q-1 -1 3 8.5t8.5 21.5t9 22t5.5 10q23 -9 45 -13t41 -4q35 0 57 18.5t22 64.5v325h70zM39 430h15v106h28v-75l17 16q9 8 21 8h39q8 0 14 -6.5t6 -15.5v-63h-140v30zM84 430h65v25h-35z" />
    <glyph glyph-name="uni06A9.fina" unicode="&#x6a9;" horiz-adv-x="710" arabic-form="final" 
d="M150 0q-36 0 -60.5 24.5t-24.5 60.5v205h70v-205q0 -6 4.5 -10.5t10.5 -4.5h425v70q0 36 -18 58t-46 33.5t-61.5 15.5t-64.5 4l-15 60l47 45l68 66l68 66l47 45l49 -49l-20 -20l-31 -30l-35 -35l-36 -35l-30 -30l-21 -20q32 -5 62.5 -15.5t54 -30.5t38 -51.5t14.5 -76.5
v-70h65v-70h-560z" />
    <glyph glyph-name="uni06A9.init" unicode="&#x6a9;" horiz-adv-x="410" arabic-form="initial" 
d="M70 311l115 111l115 111l50 -51l-182 -174q38 -4 70.5 -14t56 -29t37 -49.5t13.5 -75.5v-140h-345q-13 0 -21.5 8.5t-8.5 21.5v10q0 13 8.5 21.5t21.5 8.5h275v70q0 38 -18.5 60t-47 33.5t-61.5 14.5t-63 3z" />
    <glyph glyph-name="uni06A9.medi" unicode="&#x6a9;" horiz-adv-x="390" arabic-form="medial" 
d="M50 311l115 111l115 111l50 -51l-182 -174q38 -4 70.5 -14t56 -29t37 -49.5t13.5 -75.5v-70h65v-70h-390q-13 0 -21.5 8.5t-8.5 21.5v10q0 13 8.5 21.5t21.5 8.5h255v70q0 38 -18.5 60t-47 33.5t-61.5 14.5t-63 3z" />
    <glyph glyph-name="uni06AF.fina" unicode="&#x6af;" horiz-adv-x="710" arabic-form="final" 
d="M150 0q-36 0 -60.5 24.5t-24.5 60.5v205h70v-205q0 -6 4.5 -10.5t10.5 -4.5h425v70q0 36 -18 58t-46 33.5t-61.5 15.5t-64.5 4l-15 60l47 45l68 66l68 66l47 45l49 -49l-20 -20l-31 -30l-35 -35l-36 -35l-30 -30l-21 -20q32 -5 62.5 -15.5t54 -30.5t38 -51.5t14.5 -76.5
v-70h65v-70h-560zM300 431l205 198l49 -50l-218 -209z" />
    <glyph glyph-name="uni06AF.init" unicode="&#x6af;" horiz-adv-x="410" arabic-form="initial" 
d="M70 311l115 111l115 111l50 -51l-182 -174q38 -4 70.5 -14t56 -29t37 -49.5t13.5 -75.5v-140h-345q-13 0 -21.5 8.5t-8.5 21.5v10q0 13 8.5 21.5t21.5 8.5h275v70q0 38 -18.5 60t-47 33.5t-61.5 14.5t-63 3zM0 431l205 198l49 -50l-218 -209z" />
    <glyph glyph-name="uni06AF.medi" unicode="&#x6af;" horiz-adv-x="390" arabic-form="medial" 
d="M50 311l115 111l115 111l50 -51l-182 -174q38 -4 70.5 -14t56 -29t37 -49.5t13.5 -75.5v-70h65v-70h-390q-13 0 -21.5 8.5t-8.5 21.5v10q0 13 8.5 21.5t21.5 8.5h255v70q0 38 -18.5 60t-47 33.5t-61.5 14.5t-63 3zM-20 431l205 198l49 -50l-218 -209z" />
    <glyph glyph-name="noonfc" unicode="&#x6ba;" horiz-adv-x="520" arabic-form="final" 
d="M455 70h65v-70h-65v-65q0 -35 -25 -60t-60 -25h-120q-38 0 -72 14.5t-59 39.5t-39.5 59t-14.5 72v185h70v-185q0 -24 9 -44.5t25 -36.5t36.5 -25t44.5 -9h120q6 0 10.5 4.5t4.5 10.5v385h70v-250z" />
    <glyph glyph-name="uni06C0.fina" unicode="&#x6c0;" horiz-adv-x="460" arabic-form="final" 
d="M65 129q0 31 16.5 65t48 62t77 46t103.5 18h75v-250h75v-70h-260q-36 0 -62 10.5t-42 28t-23.5 41t-7.5 49.5zM135 129q0 -22 15 -40.5t50 -18.5h115v180q-42 0 -75.5 -10.5t-57 -27.5t-35.5 -39t-12 -44zM317 512q-5 -8 -9.5 -14t-9.5 -14q-6 5 -17 9.5t-22 4.5
q-19 0 -19 -14q0 -11 12.5 -24t32.5 -19h37v-41h-124v41h29q-26 24 -26 52q0 17 13 28.5t35 11.5q16 0 33.5 -5.5t34.5 -15.5z" />
    <glyph glyph-name="uni06C1.fina" unicode="&#x6c1;" horiz-adv-x="500" arabic-form="final" 
d="M140 0h-75l50 126l50 125q12 29 38.5 49t59.5 20h162v-235q0 -6 4.5 -10.5t10.5 -4.5h60v-70h-60q-35 0 -60 25t-25 60v165h-92q-11 0 -20 -6.5t-13 -16.5z" />
    <glyph glyph-name="uni06C1.init" unicode="&#x6c1;" horiz-adv-x="450" arabic-form="initial" 
d="M105 70v200h70v-200h125q6 0 10.5 4.5t4.5 10.5v235h70v-235q0 -36 -25.5 -60.5t-59.5 -24.5h-61q-11 -14 -19.5 -34.5t-8.5 -40.5q0 -17 13 -33t48 -27l-12 -69q-61 16 -88 47t-27 69q0 21 7.5 43.5t21.5 44.5h-174q-13 0 -21.5 8.5t-8.5 21.5v10q0 12 8.5 21t21.5 9
h105z" />
    <glyph glyph-name="uni06C1.medi" unicode="&#x6c1;" horiz-adv-x="340" arabic-form="medial" 
d="M171 280q-19 -57 -26.5 -105t-7.5 -93q0 -58 10 -105.5t24 -82.5q-2 11 -3 21t-1 19q0 67 37 101.5t95 34.5h41v-70h-40q-38 0 -55.5 -24t-17.5 -58q0 -17 3 -33.5t11 -33.5l-45 -32l-44 -31q-32 54 -51 106.5t-27 105.5h-74q-12 0 -19 7t-7 18q0 14 11 20v10
q3 6 10.5 10.5t16.5 4.5h57q0 5 -0.5 9.5t-0.5 9.5q0 47 8.5 94.5t23.5 96.5h71z" />
    <glyph glyph-name="hehf2" unicode="&#x6be;" horiz-adv-x="680" arabic-form="final" 
d="M330 300q22 0 38 -9t26.5 -23.5t15.5 -33.5t5 -39v-125h110v150q0 64 -30 89.5t-77 25.5q-19 0 -41 -2.5t-43 -8.5q-4 15 -7.5 29.5t-6.5 29.5q32 11 60.5 16.5t55.5 5.5q71 0 115 -44.5t44 -140.5v-150h85v-70h-610q-13 0 -21.5 8.5t-8.5 21.5v10q0 13 8.5 21.5
t21.5 8.5h82q-17 30 -17 73q0 29 11 57t30.5 50.5t47.5 36t63 13.5h43zM287 230q-19 0 -34 -7.5t-25.5 -19.5t-16.5 -28t-6 -32q0 -29 19 -51t63 -22h58v145q0 6 -4.5 10.5t-10.5 4.5h-43z" />
    <glyph glyph-name="uni06BE.init" unicode="&#x6be;" horiz-adv-x="600" arabic-form="initial" 
d="M217 230q-19 0 -34 -7.5t-25.5 -19.5t-16.5 -28t-6 -32q0 -29 19 -51t63 -22h58v145q0 6 -4.5 10.5t-10.5 4.5h-43zM260 300q35 0 60 -25t25 -60v-145h110v150q0 64 -30 89.5t-77 25.5q-19 0 -41 -2.5t-43 -8.5q-4 15 -7.5 29.5t-6.5 29.5q32 11 60.5 16.5t55.5 5.5
q71 0 115 -44.5t44 -140.5v-220h-525q-13 0 -21.5 8.5t-8.5 21.5v10q0 13 8.5 21.5t21.5 8.5h82q-17 30 -17 73q0 29 11 57t30.5 50.5t47.5 36t63 13.5h43z" />
    <glyph glyph-name="uni06BE.medi" unicode="&#x6be;" horiz-adv-x="440" arabic-form="medial" 
d="M234 220q-18 0 -35 -11.5t-31 -31.5t-24 -47.5t-13 -59.5h117q8 11 17 37.5t9 55.5q0 23 -8.5 40t-31.5 17zM129 0q2 -27 9 -50.5t18.5 -41t28 -28t39.5 -10.5q24 0 37.5 20t13.5 43q0 26 -16 46.5t-51 20.5h-79zM220 -200q-37 0 -65 16.5t-48 44t-31 63.5t-14 76h-62
q-13 0 -21.5 8.5t-8.5 21.5v10q0 12 8.5 21t21.5 9h61q7 53 23.5 94t39.5 68.5t51 42t58 14.5q51 0 80 -35.5t29 -90.5q0 -16 -2 -33t-7 -33l-8 -27h115v-70h-118q19 -29 19 -69q0 -24 -8 -47.5t-23 -42t-37.5 -30t-52.5 -11.5z" />
    <glyph glyph-name="uni06D2.fina" unicode="&#x6d2;" horiz-adv-x="560" arabic-form="final" 
d="M65 -75q0 30 11 56.5t30.5 46t46 31t56.5 11.5h351v-70h-352q-30 0 -51.5 -22t-21.5 -53v-35h305q29 0 49 -20.5t21 -49.5h-375q-29 0 -49.5 20.5t-20.5 49.5v35z" />
    <glyph glyph-name="uni06D3.fina" unicode="&#x6d3;" horiz-adv-x="560" arabic-form="final" 
d="M317 307q-5 -8 -9.5 -14t-9.5 -14q-6 5 -17 9.5t-22 4.5q-19 0 -19 -14q0 -11 12.5 -24t32.5 -19h37v-41h-124v41h29q-26 24 -26 52q0 17 13 28.5t35 11.5q16 0 33.5 -5.5t34.5 -15.5zM65 -75q0 30 11 56.5t30.5 46t46 31t56.5 11.5h351v-70h-352q-30 0 -51.5 -22
t-21.5 -53v-35h305q29 0 49 -20.5t21 -49.5h-375q-29 0 -49.5 20.5t-20.5 49.5v35z" />
    <glyph glyph-name="maksuran" unicode="&#x649;" horiz-adv-x="260" arabic-form="initial" 
d="M125 320h70v-320h-195q-13 0 -21.5 8.5t-8.5 21.5v10q0 13 8.5 21.5t21.5 8.5h125v250z" />
    <glyph glyph-name="maksuram" unicode="&#x649;" horiz-adv-x="300" arabic-form="medial" 
d="M-30 40q0 13 8.5 21.5t21.5 8.5h115v250h70v-250h115v-70h-300q-13 0 -21.5 8.5t-8.5 21.5v10z" />
    <glyph glyph-name="uni06CC.fina" unicode="&#x6cc;" horiz-adv-x="580" arabic-form="final" 
d="M475 -110q11 0 18 7.5t7 16.5q0 11 -12 23l-80 81l-80 81l49 49l77 -78h126v-70h-56l14 -14q32 -34 32 -75q0 -18 -6.5 -34t-19 -29t-30 -20.5t-39.5 -7.5h-225q-38 0 -72 14.5t-59 40t-39.5 59t-14.5 71.5v125h70v-125q0 -24 9 -44.5t25 -36.5t36.5 -25t44.5 -9h225z
" />
    <glyph glyph-name="uni06CC.init" unicode="&#x6cc;" horiz-adv-x="260" arabic-form="initial" 
d="M39 -55l49 -50l-49 -49l-50 49zM159 -55l49 -50l-49 -49l-50 49zM125 320h70v-320h-195q-13 0 -21.5 8.5t-8.5 21.5v10q0 13 8.5 21.5t21.5 8.5h125v250z" />
    <glyph glyph-name="uni0651064C" unicode="&#xfc5e;" arabic-form="isolated" 
d="M-9 165q31 18 45 35q-21 0 -39 12.5t-18 40.5q0 24 16.5 38t36.5 14q23 0 38 -15.5t15 -38.5t-18.5 -55t-62.5 -57q-3 7 -6 13zM-40 171q-19 18 -27.5 38.5t-8.5 41.5q0 36 20 65q7 -4 13 -8l12 -8q-15 -23 -15 -46q0 -18 9 -35t27 -31zM56 242q1 3 1 9q0 10 -7.5 18
t-17.5 8q-8 0 -16 -6.5t-8 -17.5t8.5 -17t18.5 -6q7 0 13 3.5t8 8.5zM-14 98q8 2 15.5 3t15.5 3q-1 -5 -1 -9v-7q0 -20 6 -28.5t11 -8.5t9 5.5t4 18.5q0 6 -1 14t-3 18q9 2 17 3t17 3l2 -38q-1 -23 -10 -42t-33 -19q-8 0 -16.5 4t-13.5 12q-14 -24 -36 -24q-18 0 -32.5 14
t-14.5 42q0 13 3 18.5t8.5 8t12 3t14.5 2.5q-3 -18 -3 -25q0 -30 14 -30q6 0 11.5 9.5t5.5 26.5v10q0 5 -2 13z" />
    <glyph glyph-name="uni0651064D" unicode="&#xfc5f;" arabic-form="isolated" 
d="M-88 47l175 27v-32l-175 -28v33zM-88 105l175 29v-34l-175 -27v32zM-14 253q8 2 15.5 3t15.5 3q-1 -5 -1 -9v-7q0 -20 6 -28.5t11 -8.5t9 5.5t4 18.5q0 6 -1 14t-3 18q9 2 17 3t17 3l2 -38q-1 -23 -10 -42t-33 -19q-8 0 -16.5 4t-13.5 12q-14 -24 -36 -24q-18 0 -32.5 14
t-14.5 42q0 13 3 18.5t8.5 8t12 3t14.5 2.5q-3 -18 -3 -25q0 -30 14 -30q6 0 11.5 9.5t5.5 26.5v10q0 5 -2 13z" />
    <glyph glyph-name="uni0651064E" unicode="&#xfc60;" arabic-form="isolated" 
d="M-89 170l176 28v-33l-176 -27v32zM-14 98q8 2 15.5 3t15.5 3q-1 -5 -1 -9v-7q0 -20 6 -28.5t11 -8.5t9 5.5t4 18.5q0 6 -1 14t-3 18q9 2 17 3t17 3l2 -38q-1 -23 -10 -42t-33 -19q-8 0 -16.5 4t-13.5 12q-14 -24 -36 -24q-18 0 -32.5 14t-14.5 42q0 13 3 18.5t8.5 8t12 3
t14.5 2.5q-3 -18 -3 -25q0 -30 14 -30q6 0 11.5 9.5t5.5 26.5v11q0 4 -2 12z" />
    <glyph glyph-name="uni0651064F" unicode="&#xfc61;" arabic-form="isolated" 
d="M-30 129q-4 7 -7 14l-7 14q17 9 28.5 18t19.5 18q-23 0 -41.5 13.5t-18.5 41.5q0 26 17 41t39 15q24 0 39.5 -17t15.5 -41q0 -12 -4.5 -27t-15 -30.5t-26.5 -31t-39 -28.5zM25 248q0 10 -7.5 18t-17.5 8t-17.5 -8t-7.5 -18t7.5 -17.5t17.5 -7.5t17.5 7.5t7.5 17.5z
M-14 98q8 2 15.5 3t15.5 3q-1 -5 -1 -9v-7q0 -20 6 -28.5t11 -8.5t9 5.5t4 18.5q0 6 -1 14t-3 18q9 2 17 3t17 3l2 -38q-1 -23 -10 -42t-33 -19q-8 0 -16.5 4t-13.5 12q-14 -24 -36 -24q-18 0 -32.5 14t-14.5 42q0 13 3 18.5t8.5 8t12 3t14.5 2.5q-3 -18 -3 -25
q0 -30 14 -30q6 0 11.5 9.5t5.5 26.5v11q0 4 -2 12z" />
    <glyph glyph-name="uni06510650" unicode="&#xfc62;" arabic-form="isolated" 
d="M-67 43l153 24v-32l-76 -12q-39 -6 -77 -13v33zM-14 189q8 2 15.5 3t15.5 3q-1 -5 -1 -8v-8q0 -20 6 -28.5t11 -8.5t9 5.5t4 18.5q0 6 -1 14t-3 18q9 2 17 3t17 3l2 -38q-1 -23 -10 -42t-33 -19q-8 0 -16.5 4t-13.5 12q-14 -24 -36 -24q-18 0 -32.5 14t-14.5 42
q0 13 3 18.5t8.5 8t12 3t14.5 2.5q-3 -18 -3 -25q0 -30 14 -30q6 0 11.5 9.5t5.5 26.5v10q0 5 -2 13z" />
    <glyph glyph-name="uni06510670" unicode="&#xfc63;" arabic-form="isolated" 
d="M-14 98q8 2 15.5 3t15.5 3q-1 -5 -1 -9v-7q0 -20 6 -28.5t11 -8.5t9 5.5t4 18.5q0 6 -1 14t-3 18q9 2 17 3t17 3l2 -38q-1 -23 -10 -42t-33 -19q-8 0 -16.5 4t-13.5 12q-14 -24 -36 -24q-18 0 -32.5 14t-14.5 42q0 13 3 18.5t8.5 8t12 3t14.5 2.5q-3 -18 -3 -25
q0 -30 14 -30q6 0 11.5 9.5t5.5 26.5v11q0 4 -2 12zM-11 323q4 -12 8.5 -28t7.5 -34t5 -36.5t2 -35.5v-18q0 -8 -2 -15l-24 -9q0 32 -7.5 67.5t-21.5 61.5z" />
    <glyph glyph-name="behmaksuraf" unicode="&#xfc6e;" horiz-adv-x="845" arabic-form="final" 
d="M670 -105l49 -50l-49 -49l-50 49zM325 100q0 40 15.5 76t41.5 62t61.5 41.5t76.5 15.5h172l26 -112l26 -113h101v-70h-160l-24 113l-26 112h-115q-27 0 -50 -10.5t-39.5 -28t-26 -41t-9.5 -50.5h115q22 0 38.5 -16t16.5 -39v-20q0 -39 -14.5 -72.5t-39.5 -58.5
t-58.5 -39.5t-72.5 -14.5h-130q-39 0 -72.5 14.5t-58.5 39.5t-39.5 58.5t-14.5 72.5v120h70v-120q0 -24 9 -44.5t25 -36.5t36.5 -25t44.5 -9h130q24 0 45 9.5t36.5 26t24.5 38.5t9 46h-115q-23 0 -39 15.5t-16 39.5v20z" />
    <glyph glyph-name="behyehf" unicode="&#xfc6f;" horiz-adv-x="845" arabic-form="final" 
d="M670 -55l49 -50l-49 -49l-50 49zM251 -205l49 -45l-49 -45l-50 45zM371 -205l49 -45l-49 -45l-50 45zM325 100q0 40 15.5 76t41.5 62t61.5 41.5t76.5 15.5h172l26 -112l26 -113h101v-70h-160l-24 113l-26 112h-115q-27 0 -50 -10.5t-39.5 -28t-26 -41t-9.5 -50.5h115
q22 0 38.5 -16t16.5 -39v-20q0 -39 -14.5 -72.5t-39.5 -58.5t-58.5 -39.5t-72.5 -14.5h-130q-39 0 -72.5 14.5t-58.5 39.5t-39.5 58.5t-14.5 72.5v120h70v-120q0 -24 9 -44.5t25 -36.5t36.5 -25t44.5 -9h130q24 0 45 9.5t36.5 26t24.5 38.5t9 46h-115q-23 0 -39 15.5
t-16 39.5v20z" />
    <glyph glyph-name="Salla" unicode="&#xfdfa;" horiz-adv-x="1535" arabic-form="isolated" 
d="M895 210q7 0 11 4.5t4 9.5q0 6 -7 13l-86 87l22 22l46 -46h115v245h30v-245h100v135h30v-81l37 30q23 19 39 29t27.5 15t20 6t16.5 1q29 0 49.5 -20.5t20.5 -49.5v-55q0 -17 -11.5 -28.5t-28.5 -11.5h-415l11 -12q8 -8 11 -18t3 -16q0 -18 -12.5 -31t-32.5 -13h-120
q-38 0 -64 26t-26 64v70h30v-70q0 -25 17.5 -42.5t42.5 -17.5h120zM70 17q0 39 23.5 56t54.5 17q18 0 37 -6t35 -15v-104h66v245h30v-245h76v135h30v-135h75v135h30v-135h65q10 0 10 10v125h30v-125q0 -17 -11.5 -28.5t-28.5 -11.5h-492v-80h-30v162zM1470 -35v-30h-555
q-23 0 -31.5 10.5t-8.5 27.5q0 9 5 22l26 73q5 14 17.5 23t29.5 9h77v-135h76v135h30v-135h91v245h30v-245h106q-17 17 -27.5 39t-10.5 42q0 27 17 45.5t55 18.5q17 0 34 -6t33 -16l-9 -29q-14 10 -29 15.5t-29 5.5q-22 0 -32 -10t-10 -24q0 -11 5.5 -24t14.5 -24.5
t20.5 -20.5t24.5 -12h50zM195 270q-23 0 -31.5 10.5t-8.5 27.5q0 9 5 22l26 73q5 14 17.5 23t29.5 9h77v-135h80v200h30v-200h85v235h30v-265h-340zM729 -65q-21 0 -35.5 14.5t-14.5 35.5v30q0 44 22.5 64.5t54.5 20.5q13 0 31.5 -6t41.5 -19v-140q0 -46 -22.5 -63
t-54.5 -17q-16 0 -35 4t-38 10l12 29q18 -6 34 -9.5t27 -3.5q20 0 33.5 10.5t13.5 39.5h-70zM1160 317v-17h170q10 0 10 10v55q0 16 -11.5 28t-28.5 12q-8 0 -14 -1t-15 -5.5t-21 -13.5l-34 -25zM799 -35v93q-11 5 -23 8.5t-20 3.5q-19 0 -33 -13t-14 -42v-30q0 -8 6 -14
t14 -6h70zM1000 -35v105h-47q-6 0 -11 -4t-7 -9l-27 -73q0 -3 -1.5 -6t-1.5 -5q0 -8 10 -8h85zM280 300v105h-47q-6 0 -11 -4t-7 -9l-27 -73l-2 -6q-1 -3 -1 -5q0 -8 10 -8h85zM190 -35v85q-11 4 -22 7t-20 3q-18 0 -33 -10t-15 -33v-52h90zM630 540v-275h-30v275h30z
M1082 -90l33 -33l-22 -22l-33 33zM1142 -90l33 -33l-22 -22l-33 33z" />
    <glyph glyph-name="alefmdf" unicode="&#x622;" horiz-adv-x="220" arabic-form="final" 
d="M135 540v-470h85v-70h-155v540h70zM185 604q-12 -9 -22.5 -12.5t-19.5 -3.5q-17 0 -31 6.5t-31 6.5q-10 0 -21 -4.5t-25 -16.5v38q14 12 25 16.5t21 4.5q17 0 31 -6.5t31 -6.5q9 0 19.5 3.5t22.5 12.5v-38z" />
    <glyph glyph-name="alefhmzf" unicode="&#x623;" horiz-adv-x="220" arabic-form="final" 
d="M135 540v-470h85v-70h-155v540h70zM167 692q-5 -8 -9.5 -14t-9.5 -14q-6 5 -17 9.5t-22 4.5q-19 0 -19 -14q0 -11 12.5 -24t32.5 -19h37v-41h-124v41h29q-26 24 -26 52q0 17 13 28.5t35 11.5q16 0 33.5 -5.5t34.5 -15.5z" />
    <glyph glyph-name="wawhmzf" unicode="&#x624;" horiz-adv-x="440" arabic-form="final" 
d="M305 0h-135q-22 0 -41 8t-33.5 22.5t-22.5 33.5t-8 41v40q0 45 12.5 78t34.5 54.5t50.5 32t61.5 10.5q41 0 80 -14t71 -40v-196h65v-70h-65v-10q0 -42 -11 -71t-30.5 -46.5t-45.5 -25t-56 -7.5q-36 0 -76.5 9.5t-78.5 23.5q5 12 8.5 22.5t6.5 18.5q4 9 6 17
q21 -8 53 -16.5t64 -8.5q18 0 34.5 4t28.5 13.5t19.5 25.5t7.5 41v10zM305 70v159q-20 10 -40.5 15.5t-40.5 5.5q-37 0 -63 -25.5t-26 -79.5v-40q0 -14 10.5 -24.5t24.5 -10.5h135zM277 512q-5 -8 -9.5 -14t-9.5 -14q-6 5 -17 9.5t-22 4.5q-19 0 -19 -14q0 -11 12.5 -24
t32.5 -19h37v-41h-124v41h29q-26 24 -26 52q0 17 13 28.5t35 11.5q16 0 33.5 -5.5t34.5 -15.5z" />
    <glyph glyph-name="alefhmz2f" unicode="&#x625;" horiz-adv-x="220" arabic-form="final" 
d="M135 540v-470h85v-70h-155v540h70zM167 -58q-5 -8 -9.5 -14t-9.5 -14q-6 5 -17 9.5t-22 4.5q-19 0 -19 -14q0 -11 12.5 -24t32.5 -19h37v-41h-124v41h29q-26 24 -26 52q0 17 13 28.5t35 11.5q16 0 33.5 -5.5t34.5 -15.5z" />
    <glyph glyph-name="yehhmzf" unicode="&#x626;" horiz-adv-x="580" arabic-form="final" 
d="M167 352q-5 -8 -9.5 -14t-9.5 -14q-6 5 -17 9.5t-22 4.5q-19 0 -19 -14q0 -11 12.5 -24t32.5 -19h37v-41h-124v41h29q-26 24 -26 52q0 17 13 28.5t35 11.5q16 0 33.5 -5.5t34.5 -15.5zM475 -110q11 0 18 7.5t7 16.5q0 11 -12 23l-80 81l-80 81l49 49l77 -78h126v-70h-56
l14 -14q32 -34 32 -75q0 -18 -6.5 -34t-19 -29t-30 -20.5t-39.5 -7.5h-225q-38 0 -72 14.5t-59 40t-39.5 59t-14.5 71.5v125h70v-125q0 -24 9 -44.5t25 -36.5t36.5 -25t44.5 -9h225z" />
    <glyph glyph-name="hmzn" unicode="&#x626;" horiz-adv-x="260" arabic-form="initial" 
d="M125 320h70v-320h-195q-13 0 -21.5 8.5t-8.5 21.5v10q0 13 8.5 21.5t21.5 8.5h125v250zM207 512q-5 -8 -9.5 -14t-9.5 -14q-6 5 -17 9.5t-22 4.5q-19 0 -19 -14q0 -11 12.5 -24t32.5 -19h37v-41h-124v41h29q-26 24 -26 52q0 17 13 28.5t35 11.5q16 0 33.5 -5.5
t34.5 -15.5z" />
    <glyph glyph-name="hmzm" unicode="&#x626;" horiz-adv-x="300" arabic-form="medial" 
d="M-30 40q0 13 8.5 21.5t21.5 8.5h115v250h70v-250h115v-70h-300q-13 0 -21.5 8.5t-8.5 21.5v10zM207 512q-5 -8 -9.5 -14t-9.5 -14q-6 5 -17 9.5t-22 4.5q-19 0 -19 -14q0 -11 12.5 -24t32.5 -19h37v-41h-124v41h29q-26 24 -26 52q0 17 13 28.5t35 11.5q16 0 33.5 -5.5
t34.5 -15.5z" />
    <glyph glyph-name="aleff" unicode="&#x627;" horiz-adv-x="220" arabic-form="final" 
d="M135 540v-470h85v-70h-155v540h70z" />
    <glyph glyph-name="behf" unicode="&#x628;" horiz-adv-x="770" arabic-form="final" 
d="M381 -85l49 -50l-49 -49l-50 49zM135 85q0 -6 4.5 -10.5t10.5 -4.5h475v250h70v-250h75v-70h-620q-35 0 -60 25t-25 60v235h70v-235z" />
    <glyph glyph-name="behn" unicode="&#x628;" horiz-adv-x="260" arabic-form="initial" 
d="M97 -55l49 -50l-49 -49l-50 49zM125 320h70v-320h-195q-13 0 -21.5 8.5t-8.5 21.5v10q0 13 8.5 21.5t21.5 8.5h125v250z" />
    <glyph glyph-name="behm" unicode="&#x628;" horiz-adv-x="300" arabic-form="medial" 
d="M146 -55l49 -50l-49 -49l-50 49zM-30 40q0 13 8.5 21.5t21.5 8.5h115v250h70v-250h115v-70h-300q-13 0 -21.5 8.5t-8.5 21.5v10z" />
    <glyph glyph-name="marbutaf" unicode="&#x629;" horiz-adv-x="460" arabic-form="final" 
d="M221 495l49 -50l-49 -49l-50 49zM341 495l49 -50l-49 -49l-50 49zM65 129q0 31 16.5 65t48 62t77 46t103.5 18h75v-250h75v-70h-260q-36 0 -62 10.5t-42 28t-23.5 41t-7.5 49.5zM135 129q0 -22 15 -40.5t50 -18.5h115v180q-42 0 -75.5 -10.5t-57 -27.5t-35.5 -39t-12 -44
zM-16 0v0v0v0zM-16 0v0v0v0v0v0zM-16 0v0v0zM-16 0v0v0zM-16 0zM-16 0zM-16 0zM-16 0v0v0v0zM-16 0v0v0v0v0v0zM-16 0v0v0v0v0v0zM-16 0v0v0v0v0zM-16 0v0v0v0zM-16 0zM-16 0zM-16 0zM-16 0zM-16 0zM-16 0zM-16 0z" />
    <glyph glyph-name="tehf" unicode="&#x62a;" horiz-adv-x="770" arabic-form="final" 
d="M326 495l49 -50l-49 -49l-50 49zM446 495l49 -50l-49 -49l-50 49zM135 85q0 -6 4.5 -10.5t10.5 -4.5h475v250h70v-250h75v-70h-620q-35 0 -60 25t-25 60v235h70v-235z" />
    <glyph glyph-name="tehn" unicode="&#x62a;" horiz-adv-x="260" arabic-form="initial" 
d="M66 495l49 -50l-49 -49l-50 49zM186 495l49 -50l-49 -49l-50 49zM125 320h70v-320h-195q-13 0 -21.5 8.5t-8.5 21.5v10q0 13 8.5 21.5t21.5 8.5h125v250z" />
    <glyph glyph-name="tehm" unicode="&#x62a;" horiz-adv-x="300" arabic-form="medial" 
d="M66 495l49 -50l-49 -49l-50 49zM186 495l49 -50l-49 -49l-50 49zM-30 40q0 13 8.5 21.5t21.5 8.5h115v250h70v-250h115v-70h-300q-13 0 -21.5 8.5t-8.5 21.5v10z" />
    <glyph glyph-name="thehf" unicode="&#x62b;" horiz-adv-x="770" arabic-form="final" 
d="M381 575l49 -50l-49 -49l-50 49zM326 475l49 -50l-49 -49l-50 49zM446 475l49 -50l-49 -49l-50 49zM135 85q0 -6 4.5 -10.5t10.5 -4.5h475v250h70v-250h75v-70h-620q-35 0 -60 25t-25 60v235h70v-235z" />
    <glyph glyph-name="thehn" unicode="&#x62b;" horiz-adv-x="260" arabic-form="initial" 
d="M121 575l49 -50l-49 -49l-50 49zM66 475l49 -50l-49 -49l-50 49zM186 475l49 -50l-49 -49l-50 49zM125 320h70v-320h-195q-13 0 -21.5 8.5t-8.5 21.5v10q0 13 8.5 21.5t21.5 8.5h125v250z" />
    <glyph glyph-name="thehm" unicode="&#x62b;" horiz-adv-x="300" arabic-form="medial" 
d="M121 575l49 -50l-49 -49l-50 49zM66 475l49 -50l-49 -49l-50 49zM186 475l49 -50l-49 -49l-50 49zM-30 40q0 13 8.5 21.5t21.5 8.5h115v250h70v-250h115v-70h-300q-13 0 -21.5 8.5t-8.5 21.5v10z" />
    <glyph glyph-name="jeemf" unicode="&#x62c;" horiz-adv-x="440" arabic-form="final" 
d="M280 -52l49 -50l-49 -49l-50 49zM247 -267q-53 0 -88.5 16.5t-57 41t-30.5 54t-9 55.5q0 30 11 60.5t33.5 54.5t57.5 39.5t83 15.5h68q-28 26 -43 57l-27 58q-13 27 -29.5 45t-49.5 18q-14 0 -31.5 -6t-40.5 -25l-31 56q27 20 52.5 33.5t56.5 13.5q38 0 63.5 -18.5
t43.5 -46.5t32 -60t29.5 -60t36 -46.5t52.5 -18.5h11v-70h-193q-30 0 -52 -9t-36 -23.5t-20.5 -32.5t-6.5 -35q0 -14 5.5 -31.5t19.5 -33t38 -26t62 -10.5q40 0 78 11v-67q-47 -10 -88 -10zM-17 0v0v0v0zM-17 0v0v0v0v0v0zM-17 0v0v0zM-17 0v0v0zM-17 0zM-17 0zM-17 0z
M-17 0v0v0v0zM-17 0v0v0v0v0v0zM-17 0v0v0v0v0v0zM-17 0v0v0v0v0zM-17 0v0v0v0zM-17 0zM-17 0zM-17 0zM-17 0zM-17 0zM-17 0zM-17 0zM-17 0v0v0v0zM-17 0v0v0v0v0v0zM-17 0v0v0zM-17 0v0v0zM-17 0zM-17 0zM-17 0zM-17 0v0v0v0zM-17 0v0v0v0v0v0zM-17 0v0v0v0v0v0zM-17 0v0v0
v0v0zM-17 0v0v0v0zM-17 0zM-17 0zM-17 0zM-17 0zM-17 0zM-17 0zM-17 0z" />
    <glyph glyph-name="jeemn" unicode="&#x62c;" horiz-adv-x="490" arabic-form="initial" 
d="M221 -55l49 -50l-49 -49l-50 49zM-30 30q0 16 16.5 28t36.5 12h296q-13 9 -23 22l-21 27l-30 46q-15 23 -31.5 41.5t-35.5 30t-42 11.5q-14 0 -31.5 -6t-40.5 -25l-31 56q27 20 52.5 33.5t56.5 13.5q38 0 66.5 -18.5t51 -46.5t41.5 -60t39.5 -60t44 -46.5t55.5 -18.5h20
v-70h-460q-13 0 -21.5 8.5t-8.5 21.5z" />
    <glyph glyph-name="jeemm" unicode="&#x62c;" horiz-adv-x="480" arabic-form="medial" 
d="M261 -55l49 -50l-49 -49l-50 49zM480 70v-70h-480q-13 0 -21.5 8.5t-8.5 21.5v10q0 13 8.5 21.5t21.5 8.5h319q-14 11 -25.5 24.5t-22.5 28.5q-17 24 -31 46.5t-29.5 40t-33.5 28t-41 10.5q-14 0 -31.5 -6t-40.5 -25l-31 56q27 20 52.5 33.5t56.5 13.5q38 0 66.5 -18.5
t51 -46.5t41.5 -60t39.5 -60t44 -46.5t55.5 -18.5h40z" />
    <glyph glyph-name="hahf" unicode="&#x62d;" horiz-adv-x="440" arabic-form="final" 
d="M247 -267q-53 0 -88.5 16.5t-57 41t-30.5 54t-9 55.5q0 30 11 60.5t33.5 54.5t57.5 39.5t83 15.5h68q-28 26 -43 57l-27 58q-13 27 -29.5 45t-49.5 18q-14 0 -31.5 -6t-40.5 -25l-31 56q27 20 52.5 33.5t56.5 13.5q38 0 63.5 -18.5t43.5 -46.5t32 -60t29.5 -60t36 -46.5
t52.5 -18.5h11v-70h-193q-30 0 -52 -9t-36 -23.5t-20.5 -32.5t-6.5 -35q0 -14 5.5 -31.5t19.5 -33t38 -26t62 -10.5q40 0 78 11v-67q-47 -10 -88 -10z" />
    <glyph glyph-name="hahn" unicode="&#x62d;" horiz-adv-x="490" arabic-form="initial" 
d="M-30 30q0 16 16.5 28t36.5 12h296q-13 9 -23 22l-21 27l-30 46q-15 23 -31.5 41.5t-35.5 30t-42 11.5q-14 0 -31.5 -6t-40.5 -25l-31 56q27 20 52.5 33.5t56.5 13.5q38 0 66.5 -18.5t51 -46.5t41.5 -60t39.5 -60t44 -46.5t55.5 -18.5h20v-70h-460q-13 0 -21.5 8.5
t-8.5 21.5z" />
    <glyph glyph-name="hahm" unicode="&#x62d;" horiz-adv-x="480" arabic-form="medial" 
d="M480 70v-70h-480q-13 0 -21.5 8.5t-8.5 21.5v10q0 13 8.5 21.5t21.5 8.5h319q-14 11 -25.5 24.5t-22.5 28.5q-17 24 -31 46.5t-29.5 40t-33.5 28t-41 10.5q-14 0 -31.5 -6t-40.5 -25l-31 56q27 20 52.5 33.5t56.5 13.5q38 0 66.5 -18.5t51 -46.5t41.5 -60t39.5 -60
t44 -46.5t55.5 -18.5h40z" />
    <glyph glyph-name="khahf" unicode="&#x62e;" horiz-adv-x="440" arabic-form="final" 
d="M186 505l49 -50l-49 -49l-50 49zM247 -267q-53 0 -88.5 16.5t-57 41t-30.5 54t-9 55.5q0 30 11 60.5t33.5 54.5t57.5 39.5t83 15.5h68q-28 26 -43 57l-27 58q-13 27 -29.5 45t-49.5 18q-14 0 -31.5 -6t-40.5 -25l-31 56q27 20 52.5 33.5t56.5 13.5q38 0 63.5 -18.5
t43.5 -46.5t32 -60t29.5 -60t36 -46.5t52.5 -18.5h11v-70h-193q-30 0 -52 -9t-36 -23.5t-20.5 -32.5t-6.5 -35q0 -14 5.5 -31.5t19.5 -33t38 -26t62 -10.5q40 0 78 11v-67q-47 -10 -88 -10zM-17 0v0v0v0zM-17 0v0v0v0v0v0zM-17 0v0v0zM-17 0v0v0zM-17 0zM-17 0zM-17 0z
M-17 0v0v0v0zM-17 0v0v0v0v0v0zM-17 0v0v0v0v0v0zM-17 0v0v0v0v0zM-17 0v0v0v0zM-17 0zM-17 0zM-17 0zM-17 0zM-17 0zM-17 0zM-17 0zM-17 0v0v0v0zM-17 0v0v0v0v0v0zM-17 0v0v0zM-17 0v0v0zM-17 0zM-17 0zM-17 0zM-17 0v0v0v0zM-17 0v0v0v0v0v0zM-17 0v0v0v0v0v0zM-17 0v0v0
v0v0zM-17 0v0v0v0zM-17 0zM-17 0zM-17 0zM-17 0zM-17 0zM-17 0zM-17 0z" />
    <glyph glyph-name="khahn" unicode="&#x62e;" horiz-adv-x="490" arabic-form="initial" 
d="M151 505l49 -50l-49 -49l-50 49zM-30 30q0 16 16.5 28t36.5 12h296q-13 9 -23 22l-21 27l-30 46q-15 23 -31.5 41.5t-35.5 30t-42 11.5q-14 0 -31.5 -6t-40.5 -25l-31 56q27 20 52.5 33.5t56.5 13.5q38 0 66.5 -18.5t51 -46.5t41.5 -60t39.5 -60t44 -46.5t55.5 -18.5h20
v-70h-460q-13 0 -21.5 8.5t-8.5 21.5zM-4 0v0v0v0zM-4 0v0v0v0v0v0zM-4 0v0v0zM-4 0v0v0zM-4 0zM-4 0zM-4 0zM-4 0v0v0v0zM-4 0v0v0v0v0v0zM-4 0v0v0v0v0v0zM-4 0v0v0v0v0zM-4 0v0v0v0zM-4 0zM-4 0zM-4 0zM-4 0zM-4 0zM-4 0zM-4 0zM-4 0v0v0v0zM-4 0v0v0v0v0v0zM-4 0v0v0z
M-4 0v0v0zM-4 0zM-4 0zM-4 0zM-4 0v0v0v0zM-4 0v0v0v0v0v0zM-4 0v0v0v0v0v0zM-4 0v0v0v0v0zM-4 0v0v0v0zM-4 0zM-4 0zM-4 0zM-4 0zM-4 0zM-4 0zM-4 0z" />
    <glyph glyph-name="khahm" unicode="&#x62e;" horiz-adv-x="480" arabic-form="medial" 
d="M151 505l49 -50l-49 -49l-50 49zM480 70v-70h-480q-13 0 -21.5 8.5t-8.5 21.5v10q0 13 8.5 21.5t21.5 8.5h319q-14 11 -25.5 24.5t-22.5 28.5q-17 24 -31 46.5t-29.5 40t-33.5 28t-41 10.5q-14 0 -31.5 -6t-40.5 -25l-31 56q27 20 52.5 33.5t56.5 13.5q38 0 66.5 -18.5
t51 -46.5t41.5 -60t39.5 -60t44 -46.5t55.5 -18.5h40zM38 0v0v0v0zM38 0v0v0v0v0v0zM38 0v0v0zM38 0v0v0zM38 0zM38 0zM38 0zM38 0v0v0v0zM38 0v0v0v0v0v0zM38 0v0v0v0v0v0zM38 0v0v0v0v0zM38 0v0v0v0zM38 0zM38 0zM38 0zM38 0zM38 0zM38 0zM38 0zM38 0v0v0v0zM38 0v0v0v0v0
v0zM38 0v0v0zM38 0v0v0zM38 0zM38 0zM38 0zM38 0v0v0v0zM38 0v0v0v0v0v0zM38 0v0v0v0v0v0zM38 0v0v0v0v0zM38 0v0v0v0zM38 0zM38 0zM38 0zM38 0zM38 0zM38 0zM38 0zM38 0v0v0v0zM38 0v0v0v0v0v0zM38 0v0v0zM38 0v0v0zM38 0zM38 0zM38 0zM38 0v0v0v0zM38 0v0v0v0v0v0zM38 0v0
v0v0v0v0zM38 0v0v0v0v0zM38 0v0v0v0zM38 0zM38 0zM38 0zM38 0zM38 0zM38 0zM38 0z" />
    <glyph glyph-name="dalf" unicode="&#x62f;" horiz-adv-x="410" arabic-form="final" 
d="M265 220q0 23 -23.5 34t-55.5 11q-24 0 -50 -5.5t-48 -16.5l-14 67q26 12 56 18.5t59 6.5q28 0 54.5 -6.5t47 -21t32.5 -36t12 -51.5v-150h75v-70h-365v70h220v150z" />
    <glyph glyph-name="zalf" unicode="&#x630;" horiz-adv-x="410" arabic-form="final" 
d="M151 535l49 -50l-49 -49l-50 49zM265 220q0 23 -23.5 34t-55.5 11q-24 0 -50 -5.5t-48 -16.5l-14 67q26 12 56 18.5t59 6.5q28 0 54.5 -6.5t47 -21t32.5 -36t12 -51.5v-150h75v-70h-365v70h220v150z" />
    <glyph glyph-name="rehf" unicode="&#x631;" horiz-adv-x="250" arabic-form="final" 
d="M165 320v-250h85v-70h-85q0 -81 -36.5 -120.5t-100.5 -39.5q-55 0 -124 27q-1 -1 3 8.5t8.5 21.5t9 22t5.5 10q23 -9 45 -13t41 -4q35 0 57 18.5t22 64.5v325h70z" />
    <glyph glyph-name="zainf" unicode="&#x632;" horiz-adv-x="240" arabic-form="final" 
d="M116 495l49 -50l-49 -49l-50 49zM155 320v-250h85v-70h-85q0 -81 -36.5 -120.5t-100.5 -39.5q-55 0 -124 27q-1 -1 3 8.5t8.5 21.5t9 22t5.5 10q23 -9 45 -13t41 -4q35 0 57 18.5t22 64.5v325h70z" />
    <glyph glyph-name="seenf" unicode="&#x633;" horiz-adv-x="980" arabic-form="final" 
d="M385 320h70v-250h140v250h70v-250h140v250h70v-250h105v-70h-525v-55q0 -35 -25 -60t-60 -25h-120q-38 0 -72 14.5t-59 39.5t-39.5 59t-14.5 72v125h70v-125q0 -24 9 -44.5t25 -36.5t36.5 -25t44.5 -9h120q6 0 10.5 4.5t4.5 10.5v375z" />
    <glyph glyph-name="seenn" unicode="&#x633;" horiz-adv-x="660" arabic-form="initial" 
d="M105 70v250h70v-250h140v250h70v-250h125q6 0 10.5 4.5t4.5 10.5v235h70v-235q0 -35 -25 -60t-60 -25h-510q-13 0 -21.5 8.5t-8.5 21.5v10q0 13 8.5 21.5t21.5 8.5h105z" />
    <glyph glyph-name="seenm" unicode="&#x633;" horiz-adv-x="700" arabic-form="medial" 
d="M105 70v250h70v-250h140v250h70v-250h140v250h70v-250h105v-70h-700q-13 0 -21.5 8.5t-8.5 21.5v10q0 13 8.5 21.5t21.5 8.5h105z" />
    <glyph glyph-name="sheenf" unicode="&#x634;" horiz-adv-x="980" arabic-form="final" 
d="M596 575l49 -50l-49 -49l-50 49zM541 475l49 -50l-49 -49l-50 49zM661 475l49 -50l-49 -49l-50 49zM385 320h70v-250h140v250h70v-250h140v250h70v-250h105v-70h-525v-55q0 -35 -25 -60t-60 -25h-120q-38 0 -72 14.5t-59 39.5t-39.5 59t-14.5 72v125h70v-125
q0 -24 9 -44.5t25 -36.5t36.5 -25t44.5 -9h120q6 0 10.5 4.5t4.5 10.5v375z" />
    <glyph glyph-name="sheenn" unicode="&#x634;" horiz-adv-x="660" arabic-form="initial" 
d="M346 575l49 -50l-49 -49l-50 49zM291 475l49 -50l-49 -49l-50 49zM411 475l49 -50l-49 -49l-50 49zM105 70v250h70v-250h140v250h70v-250h125q6 0 10.5 4.5t4.5 10.5v235h70v-235q0 -35 -25 -60t-60 -25h-510q-13 0 -21.5 8.5t-8.5 21.5v10q0 13 8.5 21.5t21.5 8.5h105z
" />
    <glyph glyph-name="sheenm" unicode="&#x634;" horiz-adv-x="700" arabic-form="medial" 
d="M346 575l49 -50l-49 -49l-50 49zM291 475l49 -50l-49 -49l-50 49zM411 475l49 -50l-49 -49l-50 49zM105 70v250h70v-250h140v250h70v-250h140v250h70v-250h105v-70h-700q-13 0 -21.5 8.5t-8.5 21.5v10q0 13 8.5 21.5t21.5 8.5h105z" />
    <glyph glyph-name="sadf" unicode="&#x635;" horiz-adv-x="920" arabic-form="final" 
d="M709 325q33 0 60 -11.5t46 -31t29.5 -46t10.5 -56.5v-110h65v-70h-485v-55q0 -17 -6.5 -32.5t-18 -27t-27 -18.5t-33.5 -7h-100q-38 0 -72 14.5t-59 40t-39.5 59t-14.5 71.5v125h70v-125q0 -24 9 -44.5t25 -36.5t36.5 -25t44.5 -9h100q6 0 10.5 4.5t4.5 10.5v365h70v-139
l81 65q66 53 111.5 71t81.5 18zM435 84v-14h350v110q0 32 -21 53.5t-55 21.5q-13 0 -26.5 -2.5t-31 -10.5t-40.5 -22.5t-53 -38.5z" />
    <glyph glyph-name="sadn" unicode="&#x635;" horiz-adv-x="620" arabic-form="initial" 
d="M0 0q-13 0 -21.5 8.5t-8.5 21.5v10q0 13 8.5 21.5t21.5 8.5h65v240h70v-139l81 65q66 53 111.5 71t81.5 18q33 0 60 -11.5t46 -31t29.5 -46t10.5 -56.5v-95q0 -35 -25 -60t-60 -25h-470zM135 84v-14h335q6 0 10.5 4.5t4.5 10.5v95q0 32 -21 53.5t-55 21.5
q-13 0 -26.5 -2.5t-31 -10.5t-40.5 -22.5t-53 -38.5z" />
    <glyph glyph-name="sadm" unicode="&#x635;" horiz-adv-x="620" arabic-form="medial" 
d="M65 70v240h70v-139l110 87q52 38 91.5 52.5t72.5 14.5t60 -11.5t46 -31t29.5 -46t10.5 -56.5v-110h65v-70h-620q-13 0 -21.5 8.5t-8.5 21.5v10q0 13 8.5 21.5t21.5 8.5h65zM135 84v-14h350v110q0 32 -21 53.5t-55 21.5q-13 0 -26.5 -2.5t-31 -10.5t-40.5 -22.5t-53 -38.5
z" />
    <glyph glyph-name="dadf" unicode="&#x636;" horiz-adv-x="920" arabic-form="final" 
d="M606 495l49 -50l-49 -49l-50 49zM709 325q33 0 60 -11.5t46 -31t29.5 -46t10.5 -56.5v-110h65v-70h-485v-55q0 -17 -6.5 -32.5t-18 -27t-27 -18.5t-33.5 -7h-100q-38 0 -72 14.5t-59 40t-39.5 59t-14.5 71.5v125h70v-125q0 -24 9 -44.5t25 -36.5t36.5 -25t44.5 -9h100
q6 0 10.5 4.5t4.5 10.5v365h70v-139l81 65q66 53 111.5 71t81.5 18zM435 84v-14h350v110q0 32 -21 53.5t-55 21.5q-13 0 -26.5 -2.5t-31 -10.5t-40.5 -22.5t-53 -38.5z" />
    <glyph glyph-name="dadn" unicode="&#x636;" horiz-adv-x="620" arabic-form="initial" 
d="M346 495l49 -50l-49 -49l-50 49zM0 0q-13 0 -21.5 8.5t-8.5 21.5v10q0 13 8.5 21.5t21.5 8.5h65v240h70v-139l81 65q66 53 111.5 71t81.5 18q33 0 60 -11.5t46 -31t29.5 -46t10.5 -56.5v-95q0 -35 -25 -60t-60 -25h-470zM135 84v-14h335q6 0 10.5 4.5t4.5 10.5v95
q0 32 -21 53.5t-55 21.5q-13 0 -26.5 -2.5t-31 -10.5t-40.5 -22.5t-53 -38.5z" />
    <glyph glyph-name="dadm" unicode="&#x636;" horiz-adv-x="620" arabic-form="medial" 
d="M346 495l49 -50l-49 -49l-50 49zM65 70v240h70v-139l110 87q52 38 91.5 52.5t72.5 14.5t60 -11.5t46 -31t29.5 -46t10.5 -56.5v-110h65v-70h-620q-13 0 -21.5 8.5t-8.5 21.5v10q0 13 8.5 21.5t21.5 8.5h65zM135 84v-14h350v110q0 32 -21 53.5t-55 21.5q-13 0 -26.5 -2.5
t-31 -10.5t-40.5 -22.5t-53 -38.5z" />
    <glyph glyph-name="tahf" unicode="&#x637;" horiz-adv-x="700" arabic-form="final" 
d="M80 0q-11 0 -19 7t-8 17q0 15 12 21v10q4 6 12.5 10.5t19.5 4.5h48v470h70v-369l81 65q66 53 111.5 71t81.5 18q33 0 60 -11.5t46 -31t29.5 -46t10.5 -56.5v-110h65v-70h-620zM215 84v-14h350v110q0 32 -21 53.5t-55 21.5q-13 0 -27 -2.5t-31.5 -10.5t-40 -22.5
t-52.5 -38.5z" />
    <glyph glyph-name="tahn" unicode="&#x637;" horiz-adv-x="620" arabic-form="initial" 
d="M0 0q-13 0 -21.5 8.5t-8.5 21.5v10q0 13 8.5 21.5t21.5 8.5h65v470h70v-369l81 65q66 53 111.5 71t81.5 18q33 0 60 -11.5t46 -31t29.5 -46t10.5 -56.5v-95q0 -16 -7 -31.5t-18.5 -27.5t-27 -19t-32.5 -7h-470zM135 84v-14h335q6 0 10.5 4.5t4.5 10.5v95q0 32 -21 53.5
t-55 21.5q-13 0 -27 -2.5t-31.5 -10.5t-40 -22.5t-52.5 -38.5z" />
    <glyph glyph-name="tahm" unicode="&#x637;" horiz-adv-x="620" arabic-form="medial" 
d="M0 0q-12 0 -19 7t-7 18q0 14 11 20v10q5 6 13 10.5t19 4.5h48v470h70v-369l81 65q66 53 111.5 71t81.5 18q33 0 60 -11.5t46 -31t29.5 -46t10.5 -56.5v-110h65v-70h-620zM135 84v-14h350v110q0 32 -21 53.5t-55 21.5q-13 0 -27 -2.5t-31.5 -10.5t-40 -22.5t-52.5 -38.5z
" />
    <glyph glyph-name="zahf" unicode="&#x638;" horiz-adv-x="700" arabic-form="final" 
d="M426 495l49 -50l-49 -49l-50 49zM80 0q-11 0 -19 7t-8 17q0 15 12 21v10q4 6 12.5 10.5t19.5 4.5h48v470h70v-369l81 65q66 53 111.5 71t81.5 18q33 0 60 -11.5t46 -31t29.5 -46t10.5 -56.5v-110h65v-70h-620zM215 84v-14h350v110q0 32 -21 53.5t-55 21.5q-13 0 -27 -2.5
t-31.5 -10.5t-40 -22.5t-52.5 -38.5z" />
    <glyph glyph-name="zahn" unicode="&#x638;" horiz-adv-x="620" arabic-form="initial" 
d="M351 495l49 -50l-49 -49l-50 49zM0 0q-13 0 -21.5 8.5t-8.5 21.5v10q0 13 8.5 21.5t21.5 8.5h65v470h70v-369l81 65q66 53 111.5 71t81.5 18q33 0 60 -11.5t46 -31t29.5 -46t10.5 -56.5v-95q0 -16 -7 -31.5t-18.5 -27.5t-27 -19t-32.5 -7h-470zM135 84v-14h335
q6 0 10.5 4.5t4.5 10.5v95q0 32 -21 53.5t-55 21.5q-13 0 -27 -2.5t-31.5 -10.5t-40 -22.5t-52.5 -38.5z" />
    <glyph glyph-name="zahm" unicode="&#x638;" horiz-adv-x="620" arabic-form="medial" 
d="M351 495l49 -50l-49 -49l-50 49zM0 0q-12 0 -19 7t-7 18q0 14 11 20v10q5 6 13 10.5t19 4.5h48v470h70v-369l81 65q66 53 111.5 71t81.5 18q33 0 60 -11.5t46 -31t29.5 -46t10.5 -56.5v-110h65v-70h-620zM135 84v-14h350v110q0 32 -21 53.5t-55 21.5q-13 0 -27 -2.5
t-31.5 -10.5t-40 -22.5t-52.5 -38.5z" />
    <glyph glyph-name="ainf" unicode="&#x639;" horiz-adv-x="510" arabic-form="final" 
d="M335 -257q-47 -10 -88 -10q-52 0 -87.5 16t-57 40.5t-31 53.5t-9.5 55q0 43 22.5 87t77.5 72l-76 130q-6 10 -8.5 21.5t-2.5 23.5q0 37 25.5 62.5t62.5 25.5h194q37 0 62.5 -25.5t25.5 -62.5q0 -17 -8.5 -37.5t-20.5 -42t-26 -42.5t-25 -40h145v-70h-260q-31 0 -53 -9
t-36.5 -23.5t-21.5 -32t-7 -35.5q0 -14 5.5 -31.5t19.5 -33t38 -26t62 -10.5q40 0 78 11v-67zM147 223l44 -77l44 -76h49l44 76l44 76q3 4 3 10q0 8 -5 13t-13 5h-194q-8 0 -13 -5t-5 -13v-5q0 -3 2 -4z" />
    <glyph glyph-name="ainn" unicode="&#x639;" horiz-adv-x="430" arabic-form="initial" 
d="M-30 40q0 13 8.5 21.5t21.5 8.5h120q-32 29 -48.5 65.5t-16.5 72.5q0 26 9 50t27.5 42t46 29t64.5 11q35 0 71 -13t66 -40l-16 -61q-24 19 -57.5 31.5t-62.5 12.5q-42 0 -60 -18.5t-18 -44.5q0 -22 10 -44.5t27 -41.5t40 -33t49 -18h104v-70h-355q-13 0 -21.5 8.5
t-8.5 21.5v10z" />
    <glyph glyph-name="ainm" unicode="&#x639;" horiz-adv-x="500" arabic-form="medial" 
d="M-15 55q5 6 14 10.5t20 4.5h125q-11 19 -24.5 40t-25.5 42t-20.5 41.5t-8.5 38.5q0 37 25.5 62.5t62.5 25.5h194q37 0 62.5 -25.5t25.5 -62.5q0 -17 -8.5 -37.5t-20.5 -42t-26 -42.5t-25 -40h145v-70h-500q-13 0 -21.5 8.5t-8.5 21.5q0 9 4.5 15.5t10.5 9.5zM225 70h49
l88 152q3 4 3 10q0 8 -5 13t-13 5h-194q-8 0 -13.5 -4.5t-5.5 -12.5q0 -6 3 -10z" />
    <glyph glyph-name="ghainf" unicode="&#x63a;" horiz-adv-x="510" arabic-form="final" 
d="M251 495l49 -50l-49 -49l-50 49zM335 -257q-47 -10 -88 -10q-52 0 -87.5 16t-57 40.5t-31 53.5t-9.5 55q0 43 22.5 87t77.5 72l-76 130q-6 10 -8.5 21.5t-2.5 23.5q0 37 25.5 62.5t62.5 25.5h194q37 0 62.5 -25.5t25.5 -62.5q0 -17 -8.5 -37.5t-20.5 -42t-26 -42.5
t-25 -40h145v-70h-260q-31 0 -53 -9t-36.5 -23.5t-21.5 -32t-7 -35.5q0 -14 5.5 -31.5t19.5 -33t38 -26t62 -10.5q40 0 78 11v-67zM147 223l44 -77l44 -76h49l44 76l44 76q3 4 3 10q0 8 -5 13t-13 5h-194q-8 0 -13 -5t-5 -13v-5q0 -3 2 -4z" />
    <glyph glyph-name="ghainn" unicode="&#x63a;" horiz-adv-x="430" arabic-form="initial" 
d="M186 495l49 -50l-49 -49l-50 49zM-30 40q0 13 8.5 21.5t21.5 8.5h120q-32 29 -48.5 65.5t-16.5 72.5q0 26 9 50t27.5 42t46 29t64.5 11q35 0 71 -13t66 -40l-16 -61q-24 19 -57.5 31.5t-62.5 12.5q-42 0 -60 -18.5t-18 -44.5q0 -22 10 -44.5t27 -41.5t40 -33t49 -18h104
v-70h-355q-13 0 -21.5 8.5t-8.5 21.5v10z" />
    <glyph glyph-name="ghainm" unicode="&#x63a;" horiz-adv-x="500" arabic-form="medial" 
d="M246 495l49 -50l-49 -49l-50 49zM-15 55q5 6 14 10.5t20 4.5h125q-11 19 -24.5 40t-25.5 42t-20.5 41.5t-8.5 38.5q0 37 25.5 62.5t62.5 25.5h194q37 0 62.5 -25.5t25.5 -62.5q0 -17 -8.5 -37.5t-20.5 -42t-26 -42.5t-25 -40h145v-70h-500q-13 0 -21.5 8.5t-8.5 21.5
q0 9 4.5 15.5t10.5 9.5zM225 70h49l88 152q3 4 3 10q0 8 -5 13t-13 5h-194q-8 0 -13.5 -4.5t-5.5 -12.5q0 -6 3 -10z" />
    <glyph glyph-name="fehf" unicode="&#x641;" horiz-adv-x="850" arabic-form="final" 
d="M627 495l49 -50l-49 -49l-50 49zM850 0h-700q-16 0 -31.5 6.5t-27.5 18t-19 27t-7 33.5v205h70v-205q0 -6 4.5 -10.5t10.5 -4.5h324q-20 20 -29.5 45.5t-9.5 54.5q0 32 13.5 60.5t37.5 49.5t56 33t68 12t68 -12t56 -33t37.5 -49.5t13.5 -60.5q0 -59 -41 -100h106v-70z
M505 162q0 -38 28.5 -65t76.5 -27q22 0 41 7t33.5 19.5t22.5 29t8 36.5q0 19 -8.5 36t-22.5 29.5t-33 20t-41 7.5t-41 -7.5t-33.5 -20t-22.5 -29.5t-8 -36z" />
    <glyph glyph-name="fehn" unicode="&#x641;" horiz-adv-x="450" arabic-form="initial" 
d="M221 495l49 -50l-49 -49l-50 49zM129 70q-31 25 -47 58.5t-16 67.5q0 25 7.5 47.5t24 39.5t41.5 27t61 10h100q35 0 60 -25t25 -60v-235h-385q-13 0 -21.5 8.5t-8.5 21.5v10q0 13 8.5 21.5t21.5 8.5h129zM135 198q0 -21 11.5 -44t31.5 -41.5t46 -30.5t56 -12h35v165
q0 6 -4.5 10.5t-10.5 4.5h-100q-35 0 -50 -15t-15 -37z" />
    <glyph glyph-name="fehm" unicode="&#x641;" horiz-adv-x="480" arabic-form="medial" 
d="M241 495l49 -50l-49 -49l-50 49zM65 170q0 32 13.5 60.5t37.5 49.5t56 33t68 12t68 -12t56 -33t37.5 -49.5t13.5 -60.5q0 -59 -41 -100h106v-70h-480q-13 0 -21.5 8.5t-8.5 21.5v10q0 13 8.5 21.5t21.5 8.5h104q-20 20 -29.5 45.5t-9.5 54.5zM135 162q0 -20 8 -36.5
t22.5 -29t33.5 -19.5t41 -7t41 7t33 19.5t22.5 29.5t8.5 36t-8.5 36t-22.5 29.5t-33 20t-41 7.5t-41 -7.5t-33.5 -20t-22.5 -29.5t-8 -36z" />
    <glyph glyph-name="qaff" unicode="&#x642;" horiz-adv-x="645" arabic-form="final" 
d="M361 495l49 -50l-49 -49l-50 49zM481 495l49 -50l-49 -49l-50 49zM390 -110q24 0 44.5 8.5t36.5 23.5t25 35t9 43h-135q-22 0 -41 8t-33.5 22.5t-22.5 33.5t-8 41v40q0 45 12.5 78t34.5 54.5t50.5 32t61.5 10.5q38 0 76.5 -13.5t74.5 -39.5v-197h70v-70h-70
q0 -37 -14.5 -70t-40 -57.5t-59 -38.5t-71.5 -14h-140q-38 0 -72 14.5t-59 39.5t-39.5 59t-14.5 72v125h70v-125q0 -24 9 -44.5t25 -36.5t36.5 -25t44.5 -9h140zM505 70v159q-20 10 -40.5 15.5t-40.5 5.5q-37 0 -63 -25.5t-26 -79.5v-40q0 -14 10.5 -24.5t24.5 -10.5h135z
" />
    <glyph glyph-name="qafn" unicode="&#x642;" horiz-adv-x="450" arabic-form="initial" 
d="M166 495l49 -50l-49 -49l-50 49zM286 495l49 -50l-49 -49l-50 49zM129 70q-31 25 -47 58.5t-16 67.5q0 25 7.5 47.5t24 39.5t41.5 27t61 10h100q35 0 60 -25t25 -60v-235h-385q-13 0 -21.5 8.5t-8.5 21.5v10q0 13 8.5 21.5t21.5 8.5h129zM135 198q0 -21 11.5 -44
t31.5 -41.5t46 -30.5t56 -12h35v165q0 6 -4.5 10.5t-10.5 4.5h-100q-35 0 -50 -15t-15 -37z" />
    <glyph glyph-name="qafm" unicode="&#x642;" horiz-adv-x="480" arabic-form="medial" 
d="M186 495l49 -50l-49 -49l-50 49zM306 495l49 -50l-49 -49l-50 49zM65 170q0 32 13.5 60.5t37.5 49.5t56 33t68 12t68 -12t56 -33t37.5 -49.5t13.5 -60.5q0 -59 -41 -100h106v-70h-480q-13 0 -21.5 8.5t-8.5 21.5v10q0 13 8.5 21.5t21.5 8.5h104q-20 20 -29.5 45.5
t-9.5 54.5zM135 162q0 -20 8 -36.5t22.5 -29t33.5 -19.5t41 -7t41 7t33 19.5t22.5 29.5t8.5 36t-8.5 36t-22.5 29.5t-33 20t-41 7.5t-41 -7.5t-33.5 -20t-22.5 -29.5t-8 -36z" />
    <glyph glyph-name="kaff" unicode="&#x643;" horiz-adv-x="670" arabic-form="final" 
d="M135 85q0 -6 4.5 -10.5t10.5 -4.5h375v470h70v-470h75v-70h-520q-35 0 -60 25t-25 60v205h70v-205zM259 413l122 115l33 -31l-86 -83q15 -4 29 -10.5t25.5 -17t18 -25.5t6.5 -36v-78h-185v45h140v33q0 17 -9 27t-22.5 15t-30 6.5t-31.5 1.5z" />
    <glyph glyph-name="kafn" unicode="&#x643;" horiz-adv-x="410" arabic-form="initial" 
d="M70 311l115 111l115 111l50 -51l-182 -174q38 -4 70.5 -14t56 -29t37 -49.5t13.5 -75.5v-140h-345q-13 0 -21.5 8.5t-8.5 21.5v10q0 13 8.5 21.5t21.5 8.5h275v70q0 38 -18.5 60t-47 33.5t-61.5 14.5t-63 3z" />
    <glyph glyph-name="kafm" unicode="&#x643;" horiz-adv-x="390" arabic-form="medial" 
d="M50 311l115 111l115 111l50 -51l-182 -174q38 -4 70.5 -14t56 -29t37 -49.5t13.5 -75.5v-70h65v-70h-390q-13 0 -21.5 8.5t-8.5 21.5v10q0 13 8.5 21.5t21.5 8.5h255v70q0 38 -18.5 60t-47 33.5t-61.5 14.5t-63 3z" />
    <glyph glyph-name="lamf" unicode="&#x644;" horiz-adv-x="520" arabic-form="final" 
d="M445 70h75v-70h-75v-65q0 -35 -25 -60t-60 -25h-110q-38 0 -72 14.5t-59 39.5t-39.5 59t-14.5 72v135h70v-135q0 -24 9 -44.5t25 -36.5t36.5 -25t44.5 -9h110q6 0 10.5 4.5t4.5 10.5v605h70v-470z" />
    <glyph glyph-name="lamn" unicode="&#x644;" horiz-adv-x="215" arabic-form="initial" 
d="M85 540h70v-540h-155q-13 0 -21.5 8.5t-8.5 21.5v10q0 13 8.5 21.5t21.5 8.5h85v470z" />
    <glyph glyph-name="lamm" unicode="&#x644;" horiz-adv-x="220" arabic-form="medial" 
d="M-30 40q0 13 8.5 21.5t21.5 8.5h75v470h70v-470h75v-70h-220q-13 0 -21.5 8.5t-8.5 21.5v10z" />
    <glyph glyph-name="meemf" unicode="&#x645;" horiz-adv-x="440" arabic-form="final" 
d="M65 150q0 40 13 68.5t35.5 46.5t51.5 26.5t61 8.5q39 0 78 -12t71 -34v-184h65v-70h-305v-145h-70v295zM305 70v144q-37 16 -79 16q-36 0 -63.5 -19t-27.5 -61v-80h170z" />
    <glyph glyph-name="meemn" unicode="&#x645;" horiz-adv-x="440" arabic-form="initial" 
d="M0 0q-13 0 -21.5 8.5t-8.5 21.5v10q0 13 8.5 21.5t21.5 8.5h65v85q0 33 13.5 58t36 42.5t52 26t61.5 8.5q39 0 77 -13t70 -40v-140q0 -36 -12.5 -62t-33 -42.5t-47.5 -24.5t-55 -8q-34 0 -67 10t-59 30h-101zM135 57q22 -15 46 -21t46 -6q30 0 54 16t24 51v104
q-34 19 -77 19q-37 0 -65 -16.5t-28 -48.5v-98z" />
    <glyph glyph-name="meemm" unicode="&#x645;" horiz-adv-x="440" arabic-form="medial" 
d="M-30 40q0 13 8.5 21.5t21.5 8.5h65v47q0 39 12.5 68t34 48t49.5 28t59 9t59 -9t49.5 -28t34 -48t12.5 -68v-47h65v-70h-80q-18 -37 -56 -56t-84 -19q-47 0 -85 19t-56 56h-79q-13 0 -21.5 8.5t-8.5 21.5v10zM135 65q0 -35 25 -52.5t60 -17.5q34 0 59.5 17.5t25.5 52.5v52
q0 43 -25.5 63t-59.5 20q-35 0 -60 -20t-25 -63v-52z" />
    <glyph glyph-name="noonf" unicode="&#x646;" horiz-adv-x="520" arabic-form="final" 
d="M256 495l49 -50l-49 -49l-50 49zM455 70h65v-70h-65v-65q0 -35 -25 -60t-60 -25h-120q-38 0 -72 14.5t-59 39.5t-39.5 59t-14.5 72v185h70v-185q0 -24 9 -44.5t25 -36.5t36.5 -25t44.5 -9h120q6 0 10.5 4.5t4.5 10.5v385h70v-250z" />
    <glyph glyph-name="noonn" unicode="&#x646;" horiz-adv-x="260" arabic-form="initial" 
d="M146 495l49 -50l-49 -49l-50 49zM125 320h70v-320h-195q-13 0 -21.5 8.5t-8.5 21.5v10q0 13 8.5 21.5t21.5 8.5h125v250z" />
    <glyph glyph-name="noonm" unicode="&#x646;" horiz-adv-x="300" arabic-form="medial" 
d="M146 495l49 -50l-49 -49l-50 49zM-30 40q0 13 8.5 21.5t21.5 8.5h115v250h70v-250h115v-70h-300q-13 0 -21.5 8.5t-8.5 21.5v10z" />
    <glyph glyph-name="heh" unicode="&#x647;" horiz-adv-x="440" arabic-form="isolated" 
d="M65 0v170q0 40 13 68.5t35.5 46.5t51.5 26.5t61 8.5q39 0 78 -12t71 -34v-274h-310zM305 70v164q-37 16 -79 16q-36 0 -63.5 -19t-27.5 -61v-100h170z" />
    <glyph glyph-name="hehf" unicode="&#x647;" horiz-adv-x="460" arabic-form="final" 
d="M65 129q0 31 16.5 65t48 62t77 46t103.5 18h75v-250h75v-70h-260q-36 0 -62 10.5t-42 28t-23.5 41t-7.5 49.5zM135 129q0 -22 15 -40.5t50 -18.5h115v180q-42 0 -75.5 -10.5t-57 -27.5t-35.5 -39t-12 -44z" />
    <glyph glyph-name="hehn" unicode="&#x647;" horiz-adv-x="600" arabic-form="initial" 
d="M217 230q-19 0 -34 -7.5t-25.5 -19.5t-16.5 -28t-6 -32q0 -29 19 -51t63 -22h58v145q0 6 -4.5 10.5t-10.5 4.5h-43zM260 300q35 0 60 -25t25 -60v-145h110v150q0 64 -30 89.5t-77 25.5q-19 0 -41 -2.5t-43 -8.5q-4 15 -7.5 29.5t-6.5 29.5q32 11 60.5 16.5t55.5 5.5
q71 0 115 -44.5t44 -140.5v-220h-525q-13 0 -21.5 8.5t-8.5 21.5v10q0 13 8.5 21.5t21.5 8.5h82q-17 30 -17 73q0 29 11 57t30.5 50.5t47.5 36t63 13.5h43z" />
    <glyph glyph-name="hehm" unicode="&#x647;" horiz-adv-x="440" arabic-form="medial" 
d="M234 220q-18 0 -35 -11.5t-31 -31.5t-24 -47.5t-13 -59.5h117q8 11 17 37.5t9 55.5q0 23 -8.5 40t-31.5 17zM129 0q2 -27 9 -50.5t18.5 -41t28 -28t39.5 -10.5q24 0 37.5 20t13.5 43q0 26 -16 46.5t-51 20.5h-79zM220 -200q-37 0 -65 16.5t-48 44t-31 63.5t-14 76h-62
q-13 0 -21.5 8.5t-8.5 21.5v10q0 12 8.5 21t21.5 9h61q7 53 23.5 94t39.5 68.5t51 42t58 14.5q51 0 80 -35.5t29 -90.5q0 -16 -2 -33t-7 -33l-8 -27h115v-70h-118q19 -29 19 -69q0 -24 -8 -47.5t-23 -42t-37.5 -30t-52.5 -11.5z" />
    <glyph glyph-name="wawf" unicode="&#x648;" horiz-adv-x="440" arabic-form="final" 
d="M305 0h-135q-22 0 -41 8t-33.5 22.5t-22.5 33.5t-8 41v40q0 45 12.5 78t34.5 54.5t50.5 32t61.5 10.5q41 0 80 -14t71 -40v-196h65v-70h-65v-10q0 -42 -11 -71t-30.5 -46.5t-45.5 -25t-56 -7.5q-36 0 -76.5 9.5t-78.5 23.5q5 12 8.5 22.5t6.5 18.5q4 9 6 17
q21 -8 53 -16.5t64 -8.5q18 0 34.5 4t28.5 13.5t19.5 25.5t7.5 41v10zM305 70v159q-20 10 -40.5 15.5t-40.5 5.5q-37 0 -63 -25.5t-26 -79.5v-40q0 -14 10.5 -24.5t24.5 -10.5h135z" />
    <glyph glyph-name="maksuraf" unicode="&#x649;" horiz-adv-x="580" arabic-form="final" 
d="M475 -110q11 0 18 7.5t7 16.5q0 11 -12 23l-80 81l-80 81l49 49l77 -78h126v-70h-56l14 -14q32 -34 32 -75q0 -18 -6.5 -34t-19 -29t-30 -20.5t-39.5 -7.5h-225q-38 0 -72 14.5t-59 40t-39.5 59t-14.5 71.5v125h70v-125q0 -24 9 -44.5t25 -36.5t36.5 -25t44.5 -9h225z
" />
    <glyph glyph-name="yehf" unicode="&#x64a;" horiz-adv-x="580" arabic-form="final" 
d="M276 -235l49 -45l-49 -45l-50 45zM396 -235l49 -45l-49 -45l-50 45zM475 -110q11 0 18 7.5t7 16.5q0 11 -12 23l-80 81l-80 81l49 49l77 -78h126v-70h-56l14 -14q32 -34 32 -75q0 -18 -6.5 -34t-19 -29t-30 -20.5t-39.5 -7.5h-225q-38 0 -72 14.5t-59 40t-39.5 59
t-14.5 71.5v125h70v-125q0 -24 9 -44.5t25 -36.5t36.5 -25t44.5 -9h225z" />
    <glyph glyph-name="yehn" unicode="&#x64a;" horiz-adv-x="260" arabic-form="initial" 
d="M41 -55l49 -50l-49 -49l-50 49zM161 -55l49 -50l-49 -49l-50 49zM125 320h70v-320h-195q-13 0 -21.5 8.5t-8.5 21.5v10q0 13 8.5 21.5t21.5 8.5h125v250z" />
    <glyph glyph-name="yehm" unicode="&#x64a;" horiz-adv-x="300" arabic-form="medial" 
d="M61 -55l49 -50l-49 -49l-50 49zM181 -55l49 -50l-49 -49l-50 49zM-30 40q0 13 8.5 21.5t21.5 8.5h115v250h70v-250h115v-70h-300q-13 0 -21.5 8.5t-8.5 21.5v10z" />
    <glyph glyph-name=".notdef" horiz-adv-x="592" 
d="M108 365h-21v-47h-37v146h95v-146h-37v47zM490 -40h-37v87h-21v-87h-37v87h-21v-87h-37v106h153v-106zM165 464h37v-40h58v-106h-95v146zM375 318h-95v106h58v40h37v-146zM490 318h-95v106h95v-106zM235 117h-95v106h95v-106zM317 -40h-95v106h95v-106zM350 117h-37v87
h-21v-87h-37v106h95v-106zM107 66h95v-34h-37v15h-21v-68h21v15h37v-34h-95v106zM484 204v-24h58v-63h-95v19h58v25h-58v62h95v-19h-58zM87 164v-47h-37v146h75v-19h-38v-61h38v-19h-38zM407 204v-87h-37v146h37v-40h25v-19h-25zM317 337h21v68h-21v-68zM177 136h21v68h-21
v-68zM202 337h21v68h-21v-68zM259 -21h21v68h-21v-68zM432 337h21v68h-21v-68zM87 384h21v61h-21v-61zM87 -40h-37v29h37v-29z" />
    <glyph glyph-name=".null" 
 />
    <glyph glyph-name="nonmarkingreturn" horiz-adv-x="439" 
 />
    <glyph glyph-name="space" unicode=" " horiz-adv-x="150" 
 />
    <glyph glyph-name="space" unicode="&#xa0;" horiz-adv-x="150" 
 />
    <glyph glyph-name="exclam" unicode="!" horiz-adv-x="220" 
d="M75 85h70v-85h-70v85zM75 540h70v-390h-70v390z" />
    <glyph glyph-name="quotedbl" unicode="&#x22;" horiz-adv-x="400" 
d="M103 365l-10 230h80l-10 -230h-60zM262 365l-10 230h80l-10 -230h-60z" />
    <glyph glyph-name="numbersign" unicode="#" horiz-adv-x="640" 
d="M115 420h111l16 100h71l-16 -100h109l16 100h71l-16 -100h88v-70h-99l-20 -130h99v-70h-110l-15 -100h-70l15 100h-110l-15 -100h-70l15 100h-90v70h100l21 130h-101v70zM266 220h109l21 130h-110z" />
    <glyph glyph-name="percent" unicode="%" horiz-adv-x="585" 
d="M171 0l208 520h75l-208 -520h-75zM60 441q0 33 23.5 56t56.5 23t56 -23t23 -56t-23 -56.5t-56 -23.5t-56.5 23.5t-23.5 56.5zM97 441q0 -18 12.5 -30.5t30.5 -12.5t30 12.5t12 30.5t-12 30t-30 12t-30.5 -12t-12.5 -30zM401 80q0 33 23.5 56t56.5 23t56 -23t23 -56
t-23 -56.5t-56 -23.5t-56.5 23.5t-23.5 56.5zM438 80q0 -18 12.5 -30.5t30.5 -12.5t30 12.5t12 30.5t-12 30t-30 12t-30.5 -12t-12.5 -30z" />
    <glyph glyph-name="ampersand" unicode="&#x26;" horiz-adv-x="534" 
d="M418 10l-50 57q-32 -38 -72 -52.5t-87 -14.5q-34 0 -65.5 9t-56 26t-39 41.5t-14.5 56.5q0 34 11.5 59t30 45t42.5 36l49 30q-29 35 -46 60.5t-17 54.5q0 50 35 77t87 27q25 0 47.5 -7t39 -20t26.5 -32.5t10 -44.5q0 -45 -24.5 -74.5t-62.5 -55.5l99 -116l5 24q3 15 4 31
h60q-9 -65 -28 -105l97 -112h-81zM209 61q35 0 65 12t55 40q-7 9 -24 29l-37 42l-36 42q-17 20 -24 29l-41 -24q-20 -13 -35.5 -28t-24.5 -32t-9 -38q0 -17 9 -30t24.5 -22.5t35.5 -14.5t42 -5zM168 418q0 -17 14 -34l41 -48q26 17 44 36t18 46q0 20 -17.5 31t-41.5 11
t-41 -11t-17 -31z" />
    <glyph glyph-name="quotesingle" unicode="'" horiz-adv-x="270" 
d="M105 365l-10 230h80l-10 -230h-60z" />
    <glyph glyph-name="parenleft" unicode="(" horiz-adv-x="394" 
d="M271 586q-27 -36 -50 -74t-40 -77.5t-26.5 -80t-9.5 -79.5q0 -41 10 -82.5t27 -82.5t41 -81t52 -77l-56 -43q-63 82 -103.5 175.5t-40.5 190.5q0 95 39 185t102 168z" />
    <glyph glyph-name="parenright" unicode=")" horiz-adv-x="394" 
d="M123 586q27 -36 50 -74t40 -77.5t26.5 -80t9.5 -79.5q0 -41 -10 -82.5t-27 -82.5t-41 -81t-52 -77l56 -43q63 82 103.5 175.5t40.5 190.5q0 95 -39 185t-102 168z" />
    <glyph glyph-name="asterisk" unicode="*" horiz-adv-x="408" 
d="M274 470l-6 -43l-50 -14l-26 35l11 108l-48 -100l-39 -17l-37 39l17 39l101 45l-110 -12l-34 27l13 53l43 4l91 -65l-65 90l5 43l50 14l27 -35l-12 -110l47 101l40 18l37 -39l-15 -40l-102 -45l111 12l32 -26l-12 -52l-44 -6l-90 64z" />
    <glyph glyph-name="plus" unicode="+" horiz-adv-x="510" 
d="M290 235h145v-70h-145v-140h-70v140h-145v70h145v140h70v-140z" />
    <glyph glyph-name="comma" unicode="," horiz-adv-x="277" 
d="M99 108q59 -30 83.5 -64.5t24.5 -71.5q0 -45 -30.5 -94.5t-73.5 -93.5l-21 45q11 12 22 27t19.5 31t14 33t5.5 33q0 23 -16 45t-57 40z" />
    <glyph glyph-name="hyphen" unicode="-" horiz-adv-x="450" 
d="M75 95v70h300v-70h-300z" />
    <glyph glyph-name="period" unicode="." horiz-adv-x="260" 
d="M85 90h90v-90h-90v90z" />
    <glyph glyph-name="slash" unicode="/" horiz-adv-x="431" 
d="M74 0l207 520h75l-207 -520h-75z" />
    <glyph glyph-name="zero" unicode="0" horiz-adv-x="490" 
d="M420 260q0 -43 -4 -89t-21.5 -84t-52.5 -62.5t-97 -24.5t-97.5 24.5t-52.5 62.5t-21 84t-4 89t4 88.5t21 83.5t52.5 62.5t97.5 24.5t97 -24.5t52.5 -62.5t21.5 -83.5t4 -88.5zM350 260q0 32 -2.5 66t-13 62.5t-31.5 46.5t-58 18q-38 0 -59 -18t-31 -46.5t-12.5 -62.5
t-2.5 -66t2.5 -66.5t12.5 -62.5t31 -46t59 -18q37 0 58 18t31.5 46t13 62.5t2.5 66.5z" />
    <glyph glyph-name="one" unicode="1" horiz-adv-x="296" 
d="M65 457l94 63h67v-520h-70v436l-73 -47z" />
    <glyph glyph-name="two" unicode="2" horiz-adv-x="481" 
d="M71 0q0 54 20 90.5t50 63.5t65 48t65 43.5t50 50.5t20 69t-27.5 63t-67.5 22q-19 0 -31 -9q-38 -8 -57 -36t-19 -60h-69q0 32 11.5 63.5t33.5 56t55 40t76 15.5q35 0 65 -10.5t52.5 -30.5t35 -48.5t12.5 -65.5q0 -42 -14 -73.5t-36 -56t-49 -44.5l-56 -38
q-28 -18 -53 -38t-41 -45h248v-70h-339z" />
    <glyph glyph-name="three" unicode="3" horiz-adv-x="490" 
d="M200 302h40q37 0 63.5 22t26.5 52q0 31 -26.5 53t-63.5 22q-38 0 -64.5 -22.5t-26.5 -53.5l-14 -4h-55q0 32 12 59.5t33.5 47.5t51 31t63.5 11q33 0 62.5 -11t51 -29.5t34 -44t12.5 -54.5q0 -34 -15 -61.5t-41 -44.5q32 -20 54 -52t22 -74q0 -33 -14.5 -60t-39 -47
t-56 -31t-65.5 -11q-36 0 -68 12t-56 33t-37.5 49t-13.5 60q17 1 34.5 1.5t35.5 0.5q0 -16 8 -31.5t22.5 -28t33.5 -20t41 -7.5q20 0 39 6.5t33.5 18t23.5 27.5t9 35q0 37 -30.5 61.5t-74.5 24.5h-45v60z" />
    <glyph glyph-name="four" unicode="4" horiz-adv-x="475" 
d="M65 181l242 339h68v-335h30v-70h-30v-115h-70v115h-240v66zM150 185h155v215z" />
    <glyph glyph-name="five" unicode="5" horiz-adv-x="488" 
d="M143 151q4 -21 15 -36.5t25 -25t30 -14.5t31 -5q19 0 38 7t33.5 21.5t23.5 35.5t9 48q0 25 -10 45.5t-25.5 34.5t-35.5 21.5t-41 7.5q-24 0 -47 -11t-39 -35h-62v275h283v-70h-213v-118q17 11 38 17t47 6q36 0 68 -14t56 -38t37.5 -56.5t13.5 -69.5q0 -38 -13.5 -70
t-37.5 -56t-56 -37.5t-68 -13.5q-33 0 -62 11.5t-52 31.5t-38.5 47.5t-20.5 59.5z" />
    <glyph glyph-name="six" unicode="6" horiz-adv-x="506" 
d="M259 346q36 0 67.5 -13.5t55 -37t37 -55t13.5 -67.5t-13.5 -67.5t-37 -55t-55 -37t-67.5 -13.5q-48 0 -84 20t-59 54t-34.5 77.5t-11.5 91.5q0 71 17 123t45.5 86.5t66 51t78.5 16.5q40 0 81.5 -17.5t77.5 -52.5l-49 -51q-25 25 -54 38t-56 13q-47 0 -84.5 -37
t-49.5 -114q23 22 52 34.5t64 12.5zM362 175q0 22 -8 41t-22 33.5t-33 23t-40 8.5t-40.5 -8.5t-33.5 -22.5t-22.5 -32.5t-8.5 -39.5t8 -40.5t22.5 -34.5t33.5 -24t41 -9q20 0 38.5 8t33 22t23 33t8.5 42z" />
    <glyph glyph-name="seven" unicode="7" horiz-adv-x="465" 
d="M405 453q-40 -39 -73.5 -92t-58.5 -113t-40 -124t-19 -124h-70q9 136 53 247t117 203h-249v70h340v-67z" />
    <glyph glyph-name="eight" unicode="8" horiz-adv-x="489" 
d="M90 383q0 28 12 53t33 44t49 29.5t60 10.5t60.5 -10.5t49.5 -29.5t33 -44t12 -53q0 -33 -15 -61t-41 -47q35 -22 55.5 -54.5t20.5 -70.5q0 -31 -13.5 -58.5t-37.5 -47.5t-56 -32t-68 -12t-67.5 12t-55.5 32t-37.5 47.5t-13.5 58.5q0 38 21 70.5t56 54.5q-27 19 -42 47
t-15 61zM140 157q0 -18 8 -34t22 -28t33 -19t41 -7t41 7t33.5 19t22.5 28t8 34t-8 34t-22.5 28t-33.5 19t-41 7t-41 -7t-33 -19t-22 -28t-8 -34zM160 375q0 -15 6 -28.5t17 -24t26.5 -17t34.5 -6.5q36 0 60.5 22.5t24.5 53.5t-24.5 53.5t-60.5 22.5q-18 0 -33 -6
t-26.5 -16.5t-18 -24.5t-6.5 -29z" />
    <glyph glyph-name="nine" unicode="9" horiz-adv-x="501" 
d="M242 174q-36 0 -67.5 13.5t-55 37t-37 55t-13.5 67.5t13.5 67.5t37 55t55 37t67.5 13.5q48 0 83.5 -20.5t59 -54t35 -77.5t11.5 -91q0 -71 -17 -123.5t-46 -86.5t-66.5 -50.5t-77.5 -16.5t-82 17t-77 52l48 51q53 -50 111 -50q23 0 44.5 9t39.5 27.5t30.5 46.5t18.5 67
q-22 -22 -51.5 -34t-63.5 -12zM139 344q0 -24 8.5 -43.5t23 -33t33.5 -21t40 -7.5q20 0 38.5 7t32.5 20t22.5 32t8.5 42q0 21 -7.5 40.5t-21 35t-33 24.5t-42.5 9q-21 0 -39.5 -8t-32.5 -22t-22.5 -33t-8.5 -42z" />
    <glyph glyph-name="colon" unicode=":" horiz-adv-x="250" 
d="M85 90h90v-90h-90v90zM85 300h90v-90h-90v90z" />
    <glyph glyph-name="semicolon" unicode=";" horiz-adv-x="273" 
d="M78 251h72v-72h-72v72zM96 108q59 -30 83.5 -64.5t24.5 -71.5q0 -45 -30.5 -94.5t-73.5 -93.5l-21 45q11 12 22 27t19.5 31t14 33t5.5 33q0 23 -16 45t-57 40z" />
    <glyph glyph-name="less" unicode="&#x3c;" horiz-adv-x="610" 
d="M80 221v88l455 198v-76l-383 -166l383 -168v-77z" />
    <glyph glyph-name="equal" unicode="=" horiz-adv-x="500" 
d="M75 15v70h350v-70h-350zM75 180v70h350v-70h-350z" />
    <glyph glyph-name="greater" unicode="&#x3e;" horiz-adv-x="610" 
d="M530 221v88l-455 198v-76l383 -166l-383 -168v-77z" />
    <glyph glyph-name="question" unicode="?" horiz-adv-x="460" 
d="M135 355h-70v63q0 30 12.5 53t35 38.5t52.5 23t65 7.5t65 -7.5t52.5 -23t35 -38.5t12.5 -53v-88q0 -28 -9.5 -46.5t-24 -30.5t-31.5 -20l-32 -15q-14 -7 -23.5 -15.5t-9.5 -22.5v-60h-70v60q0 20 9.5 34t24 25t31.5 20t31.5 19t24 22t9.5 30v88q0 26 -26 39t-69 13
t-69 -13t-26 -39v-63zM265 0h-70v80h70v-80z" />
    <glyph glyph-name="at" unicode="@" horiz-adv-x="651" 
d="M565 73q-48 -38 -103.5 -56.5t-110.5 -18.5q-54 0 -105 16.5t-90 49.5t-62.5 82t-23.5 113q0 54 20 103.5t56 87.5t85.5 61t108.5 23q55 0 99.5 -17t76 -47t48.5 -71.5t17 -90.5q0 -41 -13 -74t-33 -56t-44 -35.5t-46 -12.5q-23 0 -39.5 10.5t-25.5 25.5
q-15 -14 -33 -21.5t-38 -7.5q-26 0 -45 9t-31.5 24.5t-18.5 35.5t-6 42q0 26 8.5 52.5t24.5 47.5t39.5 34t53.5 13q39 0 66 -29l5 23h56l-33 -136q-2 -5 -3.5 -16t-1.5 -22q0 -36 26 -36q13 0 27.5 9t26.5 25.5t20 40.5t8 54q0 33 -12 64.5t-36 56t-59.5 40t-83.5 15.5
t-87 -18.5t-67.5 -50t-44 -72.5t-15.5 -85q0 -47 16 -86t46 -67t72.5 -43.5t94.5 -15.5q48 0 96.5 16.5t91.5 49.5zM334 345q-16 0 -28.5 -9t-21 -23.5t-13 -32t-4.5 -33.5q0 -25 10 -42.5t32 -17.5q15 0 27 9.5t21 24t13.5 32t4.5 34.5q0 24 -10 41t-31 17z" />
    <glyph glyph-name="A" unicode="A" horiz-adv-x="450" 
d="M400 0h-70v180h-210v-180h-70v350q0 43 14 75t38 53t55 31.5t66 10.5t67 -11t56.5 -32t39 -53t14.5 -74v-350zM120 250h210v100q0 24 -9.5 43t-24.5 31.5t-34.5 19t-39.5 6.5t-38 -6t-32.5 -18.5t-23 -31.5t-8.5 -44v-100z" />
    <glyph glyph-name="B" unicode="B" horiz-adv-x="480" 
d="M256 520q36 0 64.5 -12t48.5 -32t30.5 -45.5t10.5 -52.5q0 -32 -15.5 -61.5t-48.5 -50.5q44 -17 64 -49.5t20 -70.5q0 -27 -10 -53t-29.5 -47t-47 -33.5t-62.5 -12.5h-231v520h206zM120 230v-160h155q21 0 37 7t26.5 18.5t16 25.5t5.5 29q0 30 -21 55t-64 25h-155z
M120 450v-150h135q42 0 63.5 21.5t21.5 50.5t-21.5 53.5t-63.5 24.5h-135z" />
    <glyph glyph-name="C" unicode="C" horiz-adv-x="494" 
d="M444 165q-15 -93 -64.5 -134t-124.5 -41q-48 0 -86.5 13.5t-64.5 44t-40 81t-14 124.5t14 125t40 82.5t64.5 45.5t86.5 14q73 0 122.5 -40t64.5 -124h-64q-17 51 -48 72.5t-75 21.5q-32 0 -57 -10.5t-42.5 -33.5t-26.5 -60.5t-9 -92.5t9 -92t26.5 -59.5t42.5 -32.5
t57 -10q46 0 78 24.5t48 81.5h63z" />
    <glyph glyph-name="D" unicode="D" horiz-adv-x="470" 
d="M215 520q38 0 75 -12t66 -35t46.5 -57.5t17.5 -80.5v-151q0 -46 -17.5 -80.5t-46.5 -57.5t-66 -34.5t-75 -11.5h-165v520h165zM120 450v-380h95q25 0 49.5 7t43.5 21.5t30.5 35.5t11.5 50v151q0 28 -11.5 49.5t-30.5 36t-43.5 22t-49.5 7.5h-95z" />
    <glyph glyph-name="E" unicode="E" horiz-adv-x="425" 
d="M375 0h-325v520h325v-70h-255v-155h255v-70h-255v-155h255v-70z" />
    <glyph glyph-name="F" unicode="F" horiz-adv-x="420" 
d="M120 225v-225h-70v520h320v-70h-250v-155h230v-70h-230z" />
    <glyph glyph-name="G" unicode="G" horiz-adv-x="508" 
d="M253 276h205v-27q0 -58 -9.5 -104t-32.5 -78.5t-63 -49.5t-100 -17t-99 13.5t-62 44t-32.5 79.5t-9.5 121q0 71 9.5 121t32.5 81.5t62 45.5t99 14q89 0 135 -35.5t65 -117.5h-75q-14 47 -43.5 66t-81.5 19q-39 0 -64.5 -10.5t-41 -33.5t-21.5 -60t-6 -90t6 -89.5
t21.5 -59t41 -32t64.5 -9.5q37 0 62 7t40.5 23t23 43t9.5 67h-135v68z" />
    <glyph glyph-name="H" unicode="H" horiz-adv-x="480" 
d="M430 520v-520h-70v225h-240v-225h-70v520h70v-225h240v225h70z" />
    <glyph glyph-name="I" unicode="I" horiz-adv-x="170" 
d="M120 520v-520h-70v520h70z" />
    <glyph glyph-name="J" unicode="J" horiz-adv-x="304" 
d="M184 520h70v-365q0 -79 -36.5 -117t-100.5 -38q-51 0 -117 24l25 61q42 -14 79 -14q17 0 32 4t25.5 13.5t16.5 25.5t6 41v365z" />
    <glyph glyph-name="K" unicode="K" horiz-adv-x="426" 
d="M415 0h-94l-201 216v-216h-70v520h70v-209l201 209h95l-245 -255z" />
    <glyph glyph-name="L" unicode="L" horiz-adv-x="375" 
d="M120 70h230v-70h-300v520h70v-450z" />
    <glyph glyph-name="M" unicode="M" horiz-adv-x="611" 
d="M25 0l67 520h63l150 -431l149 431h63l69 -520h-71l-48 347l-61 -174l-59 -173h-84l-122 346l-45 -346h-71z" />
    <glyph glyph-name="N" unicode="N" horiz-adv-x="530" 
d="M120 381v-381h-70v520h44l316 -377v377h70v-520h-41z" />
    <glyph glyph-name="O" unicode="O" horiz-adv-x="510" 
d="M50 258q0 71 14 121t40.5 81.5t64.5 45.5t86 14t86 -14t64.5 -45.5t40.5 -81.5t14 -121q0 -72 -14 -121t-40.5 -79.5t-64.5 -44t-86 -13.5t-86 13.5t-64.5 44t-40.5 79.5t-14 121zM120 258q0 -53 9 -89.5t26.5 -59t42.5 -32t57 -9.5t57 9.5t42.5 32t26.5 59t9 89.5
q0 106 -35.5 150t-99.5 44t-99.5 -44t-35.5 -150z" />
    <glyph glyph-name="P" unicode="P" horiz-adv-x="480" 
d="M255 520q36 0 68 -13.5t56 -36.5t37.5 -55t13.5 -68t-13.5 -67.5t-37.5 -55t-56 -36.5t-68 -13h-135v-175h-70v520h205zM120 450v-205h135q44 0 74.5 29t30.5 73t-30.5 73.5t-74.5 29.5h-135z" />
    <glyph glyph-name="Q" unicode="Q" horiz-adv-x="511" 
d="M50 258q0 72 14 122t40.5 81t64.5 45t86 14t86 -14t64.5 -45t40.5 -81t14 -122q0 -74 -15 -122.5t-42 -80.5l57 -55l-49 -47l-65 61q-20 -8 -43 -12t-48 -4q-48 0 -86 13.5t-64.5 44t-40.5 80t-14 122.5zM120 258q0 -54 9.5 -91t26.5 -59.5t42 -32.5t55 -10q21 0 38 4
l-43 41l49 49l55 -53q17 22 27.5 59.5t10.5 92.5q0 54 -9 91t-26.5 59.5t-42.5 32.5t-57 10t-57 -10t-42.5 -32.5t-26.5 -59.5t-9 -91z" />
    <glyph glyph-name="R" unicode="R" horiz-adv-x="489" 
d="M215 195h-95v-195h-70v520h215q34 0 64 -12.5t52.5 -34.5t35.5 -52t13 -64q0 -30 -10.5 -56.5t-28 -47.5t-41 -35t-49.5 -20l153 -198h-88zM265 265q39 0 67 26.5t28 65.5q0 19 -7.5 36t-20.5 30t-30.5 20t-36.5 7h-145v-185h145z" />
    <glyph glyph-name="S" unicode="S" horiz-adv-x="442" 
d="M322 135q0 20 -20 37.5t-50.5 35t-65.5 35.5t-65.5 39t-50.5 46t-20 56q0 25 12 49t35 43.5t57 31.5t79 12q38 0 75 -7.5t63 -16.5q-5 -17 -11 -33t-11 -33q-23 8 -53.5 14.5t-62.5 6.5q-55 0 -84 -19.5t-29 -46.5q0 -20 20 -37t51 -34l65 -35q35 -18 65.5 -39t50.5 -47
t20 -58q0 -25 -12 -49.5t-35.5 -43.5t-57.5 -30.5t-78 -11.5q-38 0 -74.5 7t-63.5 17q5 16 11 32.5t11 32.5q23 -8 54 -14t62 -6q54 0 83.5 19t29.5 47z" />
    <glyph glyph-name="T" unicode="T" horiz-adv-x="400" 
d="M235 455v-455h-70v455h-155v70h380v-70h-155z" />
    <glyph glyph-name="U" unicode="U" horiz-adv-x="450" 
d="M330 520h70v-336q0 -47 -14.5 -81.5t-38.5 -57t-55.5 -34t-65.5 -11.5q-35 0 -67 11.5t-56 34.5t-38.5 57.5t-14.5 80.5v336h70v-336q0 -57 31.5 -85.5t74.5 -28.5q20 0 39 7t33.5 21t23 35.5t8.5 50.5v336z" />
    <glyph glyph-name="V" unicode="V" horiz-adv-x="446" 
d="M99 520l125 -408l123 408h74l-155 -520h-85l-156 520h74z" />
    <glyph glyph-name="W" unicode="W" horiz-adv-x="747" 
d="M188 0l-163 520h75l131 -420l54 210l55 210h68l108 -419l132 419h74l-161 -520h-93l-94 368l-94 -368h-92z" />
    <glyph glyph-name="X" unicode="X" horiz-adv-x="466" 
d="M274 252l157 -252h-82l-116 186l-116 -186h-82l157 252l-167 268h83l125 -201l125 201h83z" />
    <glyph glyph-name="Y" unicode="Y" horiz-adv-x="501" 
d="M285 214v-214h-70v214l-190 306h81l144 -231l143 231h83z" />
    <glyph glyph-name="Z" unicode="Z" horiz-adv-x="419" 
d="M23 0l255 450h-255v70h376l-257 -450h251v-70h-370z" />
    <glyph glyph-name="bracketleft" unicode="[" horiz-adv-x="320" 
d="M75 -80v705h170v-70h-100v-565h100v-70h-170z" />
    <glyph glyph-name="backslash" unicode="\" horiz-adv-x="431" 
d="M357 0l-207 520h-75l207 -520h75z" />
    <glyph glyph-name="bracketright" unicode="]" horiz-adv-x="320" 
d="M245 -80v705h-170v-70h100v-565h-100v-70h170z" />
    <glyph glyph-name="asciicircum" unicode="^" horiz-adv-x="460" 
d="M280 540l130 -165h-91l-90 112l-89 -112h-90l129 165h101z" />
    <glyph glyph-name="underscore" unicode="_" horiz-adv-x="680" 
d="M630 65v-70h-580v70h580z" />
    <glyph glyph-name="grave" unicode="`" horiz-adv-x="327" 
d="M160 540l117 -155h-72l-155 155h110z" />
    <glyph glyph-name="a" unicode="a" horiz-adv-x="390" 
d="M120 0q-37 0 -61 24t-24 61v53q0 24 11.5 42.5t31.5 31.5t47 20t58 7q46 0 102 -20v9q0 25 -8 41.5t-22 26.5t-32.5 14.5t-38.5 4.5q-28 0 -60 -7.5t-63 -18.5l-27 58q37 17 78.5 27.5t81.5 10.5q33 0 62 -8t51 -27t35 -49t13 -73v-228h-235zM285 70v75q-24 10 -52.5 17
t-49.5 7q-33 0 -55.5 -8t-22.5 -23v-53q0 -15 15 -15h165z" />
    <glyph glyph-name="b" unicode="b" horiz-adv-x="400" 
d="M40 0v520h70v-156q24 10 47 14.5t43 4.5q33 0 62 -10.5t51 -31.5t34.5 -52.5t12.5 -74.5v-109q0 -45 -30 -75t-75 -30h-215zM255 70q14 0 24.5 10.5t10.5 24.5v109q0 28 -9 47.5t-23.5 32.5t-33.5 19t-38 6q-18 0 -37.5 -4.5t-38.5 -13.5v-231h145z" />
    <glyph glyph-name="c" unicode="c" horiz-adv-x="411" 
d="M40 240q0 46 11 74.5t32 44.5t51.5 21t69.5 5q37 0 67.5 -5t52 -19t33.5 -39.5t13 -66.5h-69q-3 38 -28 49t-69 11q-46 0 -70 -13.5t-24 -61.5v-95q0 -24 6 -39t18 -23t29.5 -10.5t40.5 -2.5q44 0 69 11t28 49h70q-2 -40 -14.5 -65t-34 -39.5t-51.5 -20t-67 -5.5
q-39 0 -69.5 5t-51.5 20.5t-32 44t-11 75.5v95z" />
    <glyph glyph-name="d" unicode="d" horiz-adv-x="400" 
d="M145 0q-45 0 -75 30t-30 75v109q0 43 12.5 74.5t34 52.5t50.5 31.5t62 10.5q20 0 43.5 -4.5t47.5 -14.5v156h70v-520h-215zM290 70v231q-39 18 -76 18q-20 0 -38.5 -6t-33 -19t-23.5 -32.5t-9 -47.5v-109q0 -14 10.5 -24.5t24.5 -10.5h145z" />
    <glyph glyph-name="e" unicode="e" horiz-adv-x="400" 
d="M106 220h190v50q0 32 -25 38.5t-71 6.5q-23 0 -40.5 -1.5t-29.5 -7.5t-18 -19t-6 -37v-30zM364 83q-5 -29 -18 -45.5t-34 -24.5t-49.5 -10.5t-62.5 -2.5q-39 0 -69.5 3.5t-51.5 17t-32 40.5t-11 74v115q0 47 11 74t32 40.5t51.5 17t69.5 3.5t69.5 -3t52 -14.5t33 -34.5
t11.5 -63v-120h-260v-15q0 -24 6 -37t18 -19t29.5 -7.5t40.5 -1.5q38 0 62 3.5t38 20.5z" />
    <glyph glyph-name="f" unicode="f" horiz-adv-x="248" 
d="M220 446q-10 2 -20.5 3.5t-19.5 1.5q-29 0 -49.5 -16t-20.5 -60v-40h100v-70h-100v-265h-70v375q0 76 37 110.5t99 34.5q15 0 30 -2t32 -5z" />
    <glyph glyph-name="g" unicode="g" horiz-adv-x="400" 
d="M84 -91q21 -7 46 -12t50 -5q22 0 43 5t37 17.5t25.5 33.5t9.5 52v33q-20 -19 -50.5 -29t-62.5 -10q-27 0 -53.5 8t-47.5 25.5t-33.5 45.5t-12.5 67v100q0 79 42 112t123 33q29 0 52.5 -8t42.5 -19v27h70v-385q0 -48 -14 -81t-38.5 -54t-57 -30.5t-69.5 -9.5
q-51 0 -123 23zM200 315q-46 0 -70.5 -17t-24.5 -58v-100q0 -20 8 -34t21 -23t29.5 -13.5t34.5 -4.5t35.5 4.5t31 12.5t22 20.5t8.5 27.5v115q0 38 -25 54t-70 16z" />
    <glyph glyph-name="h" unicode="h" horiz-adv-x="390" 
d="M110 341q26 23 55 33.5t58 10.5q25 0 48 -9t40.5 -27t28 -45t10.5 -64v-240h-70v240q0 42 -16 58.5t-39 16.5q-20 0 -40 -8t-37 -21t-27.5 -29t-10.5 -32v-225h-70v520h70v-179z" />
    <glyph glyph-name="i" unicode="i" horiz-adv-x="150" 
d="M110 520v-90h-70v90h70zM110 380v-380h-70v380h70z" />
    <glyph glyph-name="j" unicode="j" horiz-adv-x="171" 
d="M131 520v-90h-70v90h70zM-42 -87q9 -2 17.5 -3t17.5 -1q28 0 48 16t20 60v385h70v-385q0 -77 -37 -111t-99 -34q-14 0 -27.5 1.5t-28.5 3.5z" />
    <glyph glyph-name="k" unicode="k" horiz-adv-x="373" 
d="M373 0h-96l-167 176v-176h-70v520h70v-257l118 127h94l-156 -170z" />
    <glyph glyph-name="l" unicode="l" horiz-adv-x="150" 
d="M110 520v-520h-70v520h70z" />
    <glyph glyph-name="m" unicode="m" horiz-adv-x="560" 
d="M250 260q0 30 -14 42.5t-31 12.5q-15 0 -29 -7t-26.5 -18.5t-22.5 -25.5t-17 -27v-237h-70v385h70v-45q20 20 45 32t54 12q26 0 49.5 -11.5t41.5 -37.5q22 23 47.5 36.5t57.5 13.5q21 0 42 -7t37 -22t26 -38.5t10 -57.5v-260h-70v260q0 30 -14 42.5t-31 12.5
q-26 0 -48 -19t-37 -42v-254h-70v260z" />
    <glyph glyph-name="n" unicode="n" horiz-adv-x="390" 
d="M110 336q26 24 56 36t59 12q25 0 47.5 -9t39.5 -27t27.5 -45t10.5 -63v-240h-70v240q0 42 -16 58.5t-39 16.5q-20 0 -40 -8t-37 -21t-27.5 -29t-10.5 -32v-225h-70v385h70v-49z" />
    <glyph glyph-name="o" unicode="o" horiz-adv-x="430" 
d="M390 144q0 -47 -13 -75t-36.5 -43.5t-55.5 -20.5t-71 -5t-71 5t-55 20t-35.5 43.5t-12.5 75.5v96q0 46 12.5 74.5t35.5 44.5t55 21t71 5t71 -5.5t55.5 -21.5t36.5 -44t13 -74v-96zM320 240q0 24 -8 38.5t-22 23t-33.5 11t-42.5 2.5t-42 -2.5t-33 -11t-21.5 -23
t-7.5 -38.5v-96q0 -24 7.5 -38.5t21.5 -22.5t33 -10.5t42 -2.5t42.5 2.5t33.5 10.5t22 22.5t8 38.5v96z" />
    <glyph glyph-name="p" unicode="p" horiz-adv-x="410" 
d="M211 384q34 0 63 -8t50.5 -25t33.5 -44.5t12 -66.5v-100q0 -79 -42.5 -112t-122.5 -33q-56 0 -95 21v-176h-70v545h70v-27q41 26 101 26zM205 315q-46 0 -70.5 -16t-24.5 -54v-115q0 -36 25 -50.5t70 -14.5q47 0 71 16.5t24 58.5v100q0 41 -24 58t-71 17z" />
    <glyph glyph-name="q" unicode="q" horiz-adv-x="410" 
d="M198 384q59 0 102 -26v27h70v-545h-70v176q-20 -11 -43 -16t-52 -5q-80 0 -122.5 33t-42.5 112v100q0 39 12 66.5t33 44.5t50 25t63 8zM205 315q-47 0 -71 -17t-24 -58v-100q0 -42 24 -58.5t71 -16.5q45 0 70 14.5t25 50.5v115q0 38 -24.5 54t-70.5 16z" />
    <glyph glyph-name="r" unicode="r" horiz-adv-x="255" 
d="M110 385v-64q19 26 53.5 45t81.5 19v-70q-60 0 -97.5 -27.5t-37.5 -81.5v-206h-70v385h70z" />
    <glyph glyph-name="s" unicode="s" horiz-adv-x="400" 
d="M114 97q9 -18 32.5 -26t52.5 -8q17 0 33.5 2t29 6.5t20.5 11.5t8 17q0 12 -18 22.5t-45 21.5l-57 24q-31 14 -57.5 31.5t-44.5 40.5t-18 53q0 23 12 40.5t32 29t45.5 17t52.5 5.5t52.5 -6.5t46.5 -19t35 -32t18 -45.5q-7 0 -18 -1l-22 -1h-20h-12q-5 23 -29.5 32.5
t-51.5 9.5t-49 -7t-22 -22q0 -18 18 -32t44.5 -27t57.5 -25.5t57.5 -27.5t44.5 -35t18 -46q0 -27 -14 -46t-37 -31t-52 -17.5t-58 -5.5q-28 0 -54 5.5t-47.5 17t-36.5 29.5t-21 43z" />
    <glyph glyph-name="t" unicode="t" horiz-adv-x="235" 
d="M110 520v-95h125v-70h-125v-210q0 -21 7 -35.5t18 -23.5t26 -12.5t30 -3.5q6 0 12 0.5t12 1.5l18 -66q-30 -6 -57 -6q-62 0 -99 34t-37 111v375h70z" />
    <glyph glyph-name="u" unicode="u" horiz-adv-x="390" 
d="M280 44q-26 -23 -55 -33.5t-58 -10.5q-26 0 -49 8.5t-40 26.5t-27.5 45.5t-10.5 64.5v240h70v-240q0 -42 17.5 -58.5t42.5 -16.5q19 0 38.5 7.5t35.5 19.5t26 27t10 31v230h70v-385h-70v44z" />
    <glyph glyph-name="v" unicode="v" horiz-adv-x="360" 
d="M135 0l-120 380h76l89 -284l89 284h76l-121 -380h-89z" />
    <glyph glyph-name="w" unicode="w" horiz-adv-x="503" 
d="M309 0l-29 125l-29 124l-58 -249h-85l-93 385h73l32 -131l30 -131l60 262h82l60 -262l32 131l30 131h74l-47 -192l-47 -193h-85z" />
    <glyph glyph-name="x" unicode="x" horiz-adv-x="390" 
d="M100 0h-85l137 192l-137 193h87l93 -136l93 136h87l-138 -193l138 -192h-85l-95 136z" />
    <glyph glyph-name="y" unicode="y" horiz-adv-x="380" 
d="M275 46q-26 -22 -55.5 -34t-57.5 -12q-26 0 -49 9t-40 27t-27.5 45t-10.5 64v240h70v-240q0 -42 18 -58.5t44 -16.5q18 0 37.5 7t35 18.5t25.5 26t10 28.5v235h70v-385q0 -48 -14 -81t-38.5 -54t-57 -30.5t-69.5 -9.5q-51 0 -123 23l21 61q21 -7 46 -12t50 -5q22 0 43 5
t37 17.5t25.5 33.5t9.5 52v46z" />
    <glyph glyph-name="z" unicode="z" horiz-adv-x="368" 
d="M20 0l199 318h-183v67h312l-200 -318h178v-67h-306z" />
    <glyph glyph-name="braceleft" unicode="{" horiz-adv-x="340" 
d="M75 294q36 2 49 29t13 64q0 27 -4.5 54.5t-10.5 50l-10 36.5l-5 14l1 -1l65 49l65 48l28 -65l-78 -59q8 -31 14.5 -63.5t6.5 -64.5q0 -34 -9.5 -66.5t-32.5 -59.5q23 -28 32.5 -60t9.5 -66q0 -32 -6.5 -64.5t-14.5 -63.5l78 -59l-28 -65l-65 49l-65 48q8 22 14 48
q5 22 10 49.5t5 56.5q0 36 -13.5 63.5t-48.5 28.5v69z" />
    <glyph glyph-name="braceright" unicode="}" horiz-adv-x="340" 
d="M265 294q-36 2 -49 29t-13 64q0 27 4.5 54.5t10.5 50t11 36.5l4 14l-1 -1l-64 49l-66 48l-28 -65l78 -59q-8 -31 -14.5 -63.5t-6.5 -64.5q0 -34 9.5 -66.5t32.5 -59.5q-23 -28 -32.5 -60t-9.5 -66q0 -32 6.5 -64.5t14.5 -63.5l-78 -59l28 -65l65 49l65 48q-8 22 -14 48
q-5 22 -10 49.5t-5 56.5q0 36 13.5 63.5t48.5 28.5v69z" />
    <glyph glyph-name="asciitilde" unicode="~" horiz-adv-x="563" 
d="M518 545q-30 -63 -65 -87.5t-76 -24.5q-27 0 -51 8t-47 18t-46.5 18t-49.5 8q-21 0 -39.5 -12.5t-33.5 -50.5l-65 23q25 64 61.5 87t76.5 23q26 0 51.5 -8t50 -18t47.5 -18t45 -8q20 0 39 15t39 56z" />
    <glyph glyph-name="copyright" unicode="&#xa9;" horiz-adv-x="565" 
d="M45 222q0 49 18.5 92.5t50.5 75.5t75 50.5t93 18.5q49 0 92.5 -18.5t76 -50.5t51 -75.5t18.5 -92.5q0 -50 -18.5 -93t-51 -75.5t-76 -51t-92.5 -18.5q-50 0 -93 18.5t-75 51t-50.5 75.5t-18.5 93zM91 222q0 -40 15 -74.5t41 -60.5t61 -41t74 -15q40 0 74.5 15t60.5 41
t41 60.5t15 74.5q0 39 -15 74t-41 61t-60.5 41t-74.5 15q-39 0 -74 -15t-61 -41t-41 -61t-15 -74zM407 83h-55l-60 102h-53v-107h-49v284h127q37 0 62.5 -26t25.5 -63q0 -26 -16.5 -50t-43.5 -34zM317 235q15 0 26.5 11.5t11.5 26.5q0 17 -11.5 28t-26.5 11h-78v-77h78z" />
    <glyph glyph-name="guillemotleft" unicode="&#xab;" horiz-adv-x="537" 
d="M205 10l-125 188l124 182h85l-125 -183l125 -187h-84zM375 10l-125 188l124 182h85l-125 -183l125 -187h-84z" />
    <glyph glyph-name="registered" unicode="&#xae;" horiz-adv-x="565" 
d="M91 222q0 -40 15 -74.5t41 -60.5t61 -41t74 -15q40 0 74.5 15t60.5 41t41 60.5t15 74.5q0 39 -15 74t-41 61t-60.5 41t-74.5 15q-39 0 -74 -15t-61 -41t-41 -61t-15 -74zM390 186q-8 -53 -34.5 -77.5t-68.5 -24.5q-50 0 -79 31t-29 108t29 108.5t79 31.5q38 0 64.5 -23.5
t36.5 -72.5h-45q-9 26 -23 37t-33 11q-29 0 -44 -20.5t-15 -71.5t15 -71.5t44 -20.5q20 0 34 13t22 42h47zM45 222q0 49 18.5 92.5t50.5 75.5t75 50.5t93 18.5q49 0 92.5 -18.5t76 -50.5t51 -75.5t18.5 -92.5q0 -50 -18.5 -93t-51 -75.5t-76 -51t-92.5 -18.5q-50 0 -93 18.5
t-75 51t-50.5 75.5t-18.5 93z" />
    <glyph glyph-name="degree" unicode="&#xb0;" horiz-adv-x="380" 
d="M100 480q0 38 26 64t64 26t64 -26t26 -64t-26 -64t-64 -26t-64 26t-26 64zM142 480q0 -22 13 -35t35 -13q21 0 34 13t13 35q0 21 -13 34t-34 13q-22 0 -35 -13t-13 -34z" />
    <glyph glyph-name="paragraph" unicode="&#xb6;" horiz-adv-x="635" 
d="M256 0v210q-39 0 -69 14.5t-50.5 38.5t-31 54t-10.5 61q0 29 9.5 56.5t30 48.5t51 34t72.5 13h282v-66h-54v-464h-70v464h-90v-464h-70z" />
    <glyph glyph-name="periodcentered" unicode="&#xb7;" horiz-adv-x="238" 
d="M117 133q-29 0 -48 19t-19 54q0 29 19 49t48 20q31 0 51 -20t20 -49q0 -35 -20 -54t-51 -19z" />
    <glyph glyph-name="guillemotright" unicode="&#xbb;" horiz-adv-x="537" 
d="M332 10l125 188l-124 182h-85l125 -183l-125 -187h84zM162 10l125 188l-124 182h-85l125 -183l-125 -187h84z" />
    <glyph glyph-name="multiply" unicode="&#xd7;" horiz-adv-x="450" 
d="M225 279l103 103l49 -49l-103 -103l99 -99l-49 -49l-99 99l-103 -103l-49 49l103 103l-99 99l49 49z" />
    <glyph glyph-name="divide" unicode="&#xf7;" horiz-adv-x="550" 
d="M75 105v70h400v-70h-400zM240 11h81v-81h-81v81zM240 345h81v-81h-81v81z" />
    <glyph glyph-name="uni060C" unicode="&#x60c;" horiz-adv-x="281" 
d="M216 0q-78 2 -114.5 34.5t-36.5 80.5q0 45 28 95t81 98l27 -39q-36 -38 -54 -72t-18 -60q0 -29 21 -47t66 -21v-69z" />
    <glyph glyph-name="uni0615" unicode="&#x615;" 
d="M-65 30h15v106h28v-75l17 16q9 8 21 8h39q8 0 14 -6.5t6 -15.5v-63h-140v30zM-20 30h65v25h-35z" />
    <glyph glyph-name="uni061B" unicode="&#x61b;" horiz-adv-x="281" 
d="M122 72h72v-72h-72v72zM216 168q-78 2 -114.5 34.5t-36.5 80.5q0 45 28 95t81 98l27 -39q-36 -38 -54 -72t-18 -60q0 -29 21 -47t66 -21v-69z" />
    <glyph glyph-name="uni061F" unicode="&#x61f;" horiz-adv-x="460" 
d="M325 418q0 26 -26 39t-69 13t-69 -13t-26 -39v-88q0 -18 9.5 -30t24 -22t31.5 -19t31.5 -20t24 -25t9.5 -34v-60h-70v60q0 14 -9.5 22.5t-23.5 15.5l-32 15q-17 8 -31.5 20t-24 30.5t-9.5 46.5v88q0 30 12.5 53t35 38.5t52.5 23t65 7.5t65 -7.5t52.5 -23t35 -38.5
t12.5 -53v-63h-70v63zM195 80h70v-80h-70v80z" />
    <glyph glyph-name="hmz" unicode="&#x621;" horiz-adv-x="395" 
d="M264 212q-18 10 -39.5 17.5t-40.5 7.5q-20 0 -29.5 -9t-9.5 -24q0 -26 22.5 -61t64.5 -73h93v-70h-270v70h81q-29 35 -45 69t-16 65q0 53 28.5 77t71.5 24q28 0 60 -9.5t62 -28.5z" />
    <glyph glyph-name="aalef" unicode="&#x627;" horiz-adv-x="220" 
d="M145 540v-540h-70v540h70z" />
    <glyph glyph-name="hah" unicode="&#x62d;" horiz-adv-x="485" 
d="M247 -267q-53 0 -88.5 16.5t-57 41t-30.5 54t-9 55.5q0 30 11 60.5t33.5 54.5t57.5 39.5t83 15.5h68q-26 22 -41 53l-27 59q-13 27 -30.5 46.5t-50.5 19.5q-14 0 -31.5 -6t-40.5 -25l-31 56q27 20 52.5 33.5t56.5 13.5q38 0 63.5 -18.5t43.5 -46.5t32 -60t30 -60
t36.5 -46.5t52.5 -18.5h5v-70h-188q-30 0 -52 -9t-36 -23.5t-20.5 -32.5t-6.5 -35q0 -14 5.5 -31.5t19.5 -33t38 -26t62 -10.5q40 0 78 11v-67q-47 -10 -88 -10z" />
    <glyph glyph-name="dal" unicode="&#x62f;" horiz-adv-x="415" 
d="M265 220q0 23 -23.5 34t-55.5 11q-24 0 -50 -5.5t-48 -16.5l-14 67q26 12 56 18.5t59 6.5q28 0 54.5 -6.5t47 -21t32.5 -36t12 -51.5v-220h-290v70h220v150z" />
    <glyph glyph-name="reh" unicode="&#x631;" horiz-adv-x="240" 
d="M95 320h70v-325q0 -78 -36.5 -116.5t-100.5 -38.5q-26 0 -58 6.5t-66 20.5q2 4 5 13l7 18l8 17.5t6 13.5q23 -9 45 -13t41 -4q35 0 57 18.5t22 64.5v325z" />
    <glyph glyph-name="seen" unicode="&#x633;" horiz-adv-x="940" 
d="M805 320h70v-235q0 -35 -25 -60t-60 -25h-335v-55q0 -35 -25 -60t-60 -25h-120q-38 0 -72 14.5t-59 39.5t-39.5 59t-14.5 72v125h70v-125q0 -24 9 -44.5t25 -36.5t36.5 -25t44.5 -9h120q6 0 10.5 4.5t4.5 10.5v375h70v-250h140v250h70v-250h125q6 0 10.5 4.5t4.5 10.5
v235z" />
    <glyph glyph-name="sad" unicode="&#x635;" horiz-adv-x="920" 
d="M435 171l81 65q66 53 111.5 71t81.5 18q33 0 60 -11.5t46 -31t29.5 -46t10.5 -56.5v-95q0 -35 -25 -60t-60 -25h-335v-55q0 -17 -6.5 -32.5t-18 -27t-27 -18.5t-33.5 -7h-100q-38 0 -72 14.5t-59 40t-39.5 59t-14.5 71.5v125h70v-125q0 -24 9 -44.5t25 -36.5t36.5 -25
t44.5 -9h100q6 0 10.5 4.5t4.5 10.5v365h70v-139zM435 84v-14h335q6 0 10.5 4.5t4.5 10.5v95q0 32 -21 53.5t-55 21.5q-13 0 -26.5 -2.5t-31 -10.5t-40.5 -22.5t-53 -38.5z" />
    <glyph glyph-name="tah" unicode="&#x637;" horiz-adv-x="700" 
d="M80 0q-13 0 -21.5 8.5t-8.5 21.5v10q0 13 8.5 21.5t21.5 8.5h65v470h70v-369l81 65q66 53 111.5 71t81.5 18q33 0 60 -11.5t46 -31t29.5 -46t10.5 -56.5v-95q0 -16 -7 -31.5t-18.5 -27.5t-27 -19t-32.5 -7h-470zM215 84v-14h335q6 0 10.5 4.5t4.5 10.5v95q0 32 -21 53.5
t-55 21.5q-13 0 -27 -2.5t-31.5 -10.5t-40 -22.5t-52.5 -38.5z" />
    <glyph glyph-name="ain" unicode="&#x639;" horiz-adv-x="460" 
d="M385 70v-70h-138q-30 0 -52 -9t-36 -23.5t-20.5 -32.5t-6.5 -35q0 -14 5.5 -31.5t19.5 -33t38 -26t62 -10.5q40 0 78 11v-67q-47 -10 -88 -10q-52 0 -87.5 16t-57 40.5t-31 53.5t-9.5 55q0 44 22 86.5t76 71.5q-38 29 -56.5 63.5t-18.5 72.5q0 32 12 57t32 41.5t46 25
t55 8.5q36 0 73 -13.5t66 -41.5l-16 -58q-24 19 -57.5 31.5t-62.5 12.5q-41 0 -59.5 -19t-18.5 -45q0 -20 9 -40t25 -37t39 -29t52 -15h105z" />
    <glyph glyph-name="tatweel" unicode="&#x640;" horiz-adv-x="200" 
d="M-30 40q0 13 8.5 21.5t21.5 8.5h200v-70h-200q-13 0 -21.5 8.5t-8.5 21.5v10z" />
    <glyph glyph-name="kaf" unicode="&#x643;" horiz-adv-x="670" 
d="M535 540h70v-455q0 -35 -25 -60t-60 -25h-370q-35 0 -60 25t-25 60v205h70v-205q0 -6 4.5 -10.5t10.5 -4.5h370q6 0 10.5 4.5t4.5 10.5v455zM259 413l122 115l33 -31l-86 -83q15 -4 29 -10.5t25.5 -17t18 -25.5t6.5 -36v-78h-185v45h140v33q0 17 -9 27t-22.5 15t-30 6.5
t-31.5 1.5z" />
    <glyph glyph-name="lam" unicode="&#x644;" horiz-adv-x="520" 
d="M455 -15q0 -35 -25 -60t-60 -25h-120q-38 0 -72 14.5t-59 39.5t-39.5 59t-14.5 72v125h70v-125q0 -24 9 -44.5t25 -36.5t36.5 -25t44.5 -9h120q6 0 10.5 4.5t4.5 10.5v555h70v-555z" />
    <glyph glyph-name="meem" unicode="&#x645;" horiz-adv-x="440" 
d="M135 0v-145h-70v295q0 40 13 68.5t35.5 46.5t51.5 26.5t61 8.5q39 0 78 -12t71 -34v-254h-240zM305 70v144q-37 16 -79 16q-36 0 -63.5 -19t-27.5 -61v-80h170z" />
    <glyph glyph-name="heh2" unicode="&#x647;" horiz-adv-x="660" 
d="M287 230q-19 0 -34 -7.5t-25.5 -19.5t-16.5 -28t-6 -32q0 -29 19 -51t63 -22h58v145q0 6 -4.5 10.5t-10.5 4.5h-43zM330 300q35 0 60 -25t25 -60v-145h110v150q0 64 -30 89.5t-77 25.5q-19 0 -41 -2.5t-43 -8.5q-4 15 -7.5 29.5t-6.5 29.5q32 11 60.5 16.5t55.5 5.5
q71 0 115 -44.5t44 -140.5v-220h-515q-13 0 -21.5 8.5t-8.5 21.5v10q0 13 8.5 21.5t21.5 8.5h72q-17 30 -17 73q0 29 11 57t30.5 50.5t47.5 36t63 13.5h43z" />
    <glyph glyph-name="waw" unicode="&#x648;" horiz-adv-x="440" 
d="M305 0h-135q-22 0 -41 8t-33.5 22.5t-22.5 33.5t-8 41v40q0 45 12.5 78t34.5 54.5t50.5 32t61.5 10.5q41 0 80 -14t71 -40v-276q0 -42 -11 -71t-30.5 -46.5t-45.5 -25t-56 -7.5q-37 0 -76.5 9.5t-78.5 23.5q5 12 8.5 22.5t6.5 18.5q4 9 6 17q21 -8 53 -16.5t64 -8.5
q18 0 34.5 4t28.5 13.5t19.5 25.5t7.5 41v10zM305 70v159q-20 10 -40.5 15.5t-40.5 5.5q-37 0 -63 -25.5t-26 -79.5v-40q0 -14 10.5 -24.5t24.5 -10.5h135z" />
    <glyph glyph-name="maksura" unicode="&#x649;" horiz-adv-x="670" 
d="M579 262q-55 19 -93 19q-40 0 -65.5 -26.5t-25.5 -89.5v-40h155q23 0 39 -16t16 -39v-45q0 -39 -14.5 -72.5t-39.5 -58.5t-58.5 -39.5t-72.5 -14.5h-170q-39 0 -72.5 14.5t-58.5 39.5t-39.5 58.5t-14.5 72.5v115h70v-115q0 -24 9 -44.5t25 -36.5t36.5 -25t44.5 -9h170
q24 0 44.5 9t36.5 25t25 36.5t9 44.5v30h-155q-23 0 -39 16t-16 39v55q0 96 43.5 140.5t115.5 44.5q24 0 53.5 -5.5t63.5 -16.5z" />
    <glyph glyph-name="uni064B" unicode="&#x64b;" 
d="M-89 46l176 27v-32l-176 -28v33zM-89 104l176 29v-34l-176 -27v32z" />
    <glyph glyph-name="uni064C" unicode="&#x64c;" 
d="M-10 40q34 20 50 39q-23 0 -43 14t-20 45q0 26 18 42t40 16q26 0 42.5 -17.5t16.5 -43.5q0 -25 -20.5 -60.5t-69.5 -63.5q-3 8 -6 15zM-44 47q-22 20 -31.5 42.5t-9.5 46.5q0 40 23 72q8 -5 14.5 -9.5t13.5 -8.5q-17 -26 -17 -51q0 -20 10 -39t30 -34zM62 126q1 3 1 10
q0 11 -8 19.5t-19 8.5q-9 0 -18 -7t-9 -19q0 -13 9.5 -19.5t20.5 -6.5q8 0 14.5 4t8.5 10z" />
    <glyph glyph-name="uni064D" unicode="&#x64d;" 
d="M-88 -85l175 27v-32l-175 -28v33zM-88 -27l175 29v-34l-175 -27v32z" />
    <glyph glyph-name="uni064E" unicode="&#x64e;" 
d="M-89 31l176 28v-33l-176 -27v32z" />
    <glyph glyph-name="uni064F" unicode="&#x64f;" 
d="M-33 -6l-9 15l-7 16q19 11 32 21t21 20q-25 0 -45.5 15t-20.5 46q0 29 19 45.5t43 16.5q27 0 44 -19t17 -46q0 -13 -5 -29.5t-16.5 -34t-29.5 -34.5t-43 -32zM28 127q0 11 -8.5 19.5t-19.5 8.5t-19.5 -8.5t-8.5 -19.5q0 -12 8.5 -20t19.5 -8t19.5 8t8.5 20z" />
    <glyph glyph-name="uni0650" unicode="&#x650;" 
d="M-77 -24l153 24v-32l-76 -12q-39 -6 -77 -13v33z" />
    <glyph glyph-name="uni0651" unicode="&#x651;" 
d="M-14 98q8 2 15.5 3t15.5 3q-1 -5 -1 -9v-7q0 -20 6 -28.5t11 -8.5t9 5.5t4 18.5q0 6 -1 14t-3 18q9 2 17 3t17 3l2 -38q-1 -23 -10 -42t-33 -19q-8 0 -16.5 4t-13.5 12q-14 -24 -36 -24q-18 0 -32.5 14t-14.5 42q0 13 3 18.5t8.5 8t12 3t14.5 2.5q-3 -18 -3 -25
q0 -30 14 -30q6 0 11.5 9.5t5.5 26.5v11q0 4 -2 12z" />
    <glyph glyph-name="uni0652" unicode="&#x652;" 
d="M-68 64q0 28 20 47t48 19t47 -19t19 -47t-19 -48t-47 -20t-48 20t-20 48zM-33 64q0 -14 9.5 -23.5t23.5 -9.5t23.5 9.5t9.5 23.5t-9.5 23.5t-23.5 9.5t-23.5 -9.5t-9.5 -23.5z" />
    <glyph glyph-name="uni0653" unicode="&#x653;" 
d="M74 24q-12 -9 -22.5 -12.5t-19.5 -3.5q-17 0 -31 6.5t-31 6.5q-10 0 -21 -4.5t-25 -16.5v38q14 12 25 16.5t21 4.5q17 0 31 -6.5t31 -6.5q9 0 19.5 3.5t22.5 12.5v-38z" />
    <glyph glyph-name="uni0654" unicode="&#x654;" 
d="M57 112q-5 -8 -9.5 -14t-9.5 -14q-6 5 -17 9.5t-22 4.5q-19 0 -19 -14q0 -11 12.5 -24t32.5 -19h37v-41h-124v41h29q-26 24 -26 52q0 17 13 28.5t35 11.5q16 0 33.5 -5.5t34.5 -15.5z" />
    <glyph glyph-name="uni0655" unicode="&#x655;" 
d="M57 -53q-5 -8 -9.5 -14t-9.5 -14q-6 5 -17 9.5t-22 4.5q-19 0 -19 -14q0 -11 12.5 -24t32.5 -19h37v-41h-124v41h29q-26 24 -26 52q0 17 13 28.5t35 11.5q16 0 33.5 -5.5t34.5 -15.5z" />
    <glyph glyph-name="uni0656" unicode="&#x656;" 
d="M-4 -39q4 -12 8.5 -28t7.5 -34t5 -36.5t2 -35.5v-18q0 -8 -2 -15l-24 -9q0 32 -7.5 67.5t-21.5 61.5z" />
    <glyph glyph-name="uni0657" unicode="&#x657;" 
d="M48 159q-36 -20 -53 -42q25 0 45.5 -15t20.5 -45q0 -29 -19 -45.5t-43 -16.5q-27 0 -44 18.5t-17 45.5q0 13 5 29.5t16.5 34t29 35t43.5 32.5l8 -16q3 -7 8 -15zM-29 57q0 -12 8 -20t20 -8q11 0 19 8t8 20q0 11 -8 19.5t-19 8.5q-12 0 -20 -8.5t-8 -19.5z" />
    <glyph glyph-name="uni0658" unicode="&#x658;" 
d="M-36 98q2 -30 13.5 -46t25.5 -16t22.5 12.5t8.5 33.5q0 5 -1 11.5t-3 11.5l39 11q2 -6 2 -12v-12q0 -38 -19.5 -65t-52.5 -27q-26 0 -47.5 22.5t-22.5 72.5z" />
    <glyph glyph-name="uni0660" unicode="&#x660;" horiz-adv-x="325" 
d="M85 213l77 78l78 -78l-78 -77z" />
    <glyph glyph-name="uni0661" unicode="&#x661;" horiz-adv-x="240" 
d="M155 520v-520h-70v520h70z" />
    <glyph glyph-name="uni0662" unicode="&#x662;" horiz-adv-x="460" 
d="M369 410q-12 8 -28.5 15.5t-34 13t-35 8.5t-31.5 3q-41 0 -63 -23t-22 -55q0 -6 1 -12.5t3 -12.5l100 -347h-73l-95 327q-6 22 -6 45q0 31 10.5 58t30.5 47t48.5 31.5t65.5 11.5q35 0 69 -9t66 -27z" />
    <glyph glyph-name="uni0663" unicode="&#x663;" horiz-adv-x="680" 
d="M155 303q19 -6 43 -12t47 -6q24 0 42 9.5t18 35.5v190h70v-189q21 -14 51.5 -25t53.5 -11q19 0 32 7.5t13 27.5v190h70v-190q0 -29 -8.5 -49t-23.5 -32.5t-35.5 -18t-43.5 -5.5q-32 0 -66 10t-63 27q-18 -25 -46.5 -36t-59.5 -11q-23 0 -47 4t-47 11v-230h-70v520h70
v-217z" />
    <glyph glyph-name="uni0664" unicode="&#x664;" horiz-adv-x="440" 
d="M85 141q0 32 14.5 63.5t43.5 53.5q-17 12 -28 27t-17.5 30.5t-9 31t-2.5 27.5q0 43 15.5 71t41 44.5t58 23.5t65.5 7q17 0 36 -2t35 -5l-4 -35l-4 -34l-30 4q-16 3 -33 3q-20 0 -40 -3.5t-36 -12.5t-25.5 -24t-9.5 -37q0 -11 4.5 -25t17.5 -27t35.5 -22t57.5 -9
q22 0 45 4l-4 -70q-12 2 -22.5 3t-20.5 1q-29 0 -50.5 -7.5t-35.5 -19.5t-21 -27.5t-7 -31.5q0 -29 23 -51.5t68 -22.5q23 0 49 5t46 10l15 -68q-23 -6 -52.5 -11t-57.5 -5q-40 0 -70 12t-50 31.5t-30 45t-10 52.5z" />
    <glyph glyph-name="uni0665" unicode="&#x665;" horiz-adv-x="540" 
d="M445 305q4 -53 6 -82l3 -44q1 -15 1 -19v-6q0 -40 -15.5 -66t-41.5 -41t-59.5 -21t-69.5 -6t-69.5 6t-59 21t-40.5 41t-15 66v5q0 3 1 17l3 44l6 85q6 93 51 136t123 43t124 -43.5t52 -135.5zM375 300q-4 59 -31.5 86.5t-74.5 27.5q-48 0 -74 -27t-30 -87
q-2 -18 -3.5 -42t-3 -45.5t-2.5 -38t-1 -20.5q0 -19 9.5 -31.5t25 -19.5t36 -10t43.5 -3q22 0 43 3t37.5 10t26 19.5t9.5 31.5q0 3 -0.5 6.5t-1.5 17.5l-3 41q-2 28 -5 81z" />
    <glyph glyph-name="uni0666" unicode="&#x666;" horiz-adv-x="450" 
d="M295 450h-220v70h290v-520h-70v450z" />
    <glyph glyph-name="uni0667" unicode="&#x667;" horiz-adv-x="559" 
d="M233 0l-153 520h74l64 -212l63 -211l124 423h74l-152 -520h-94z" />
    <glyph glyph-name="uni0668" unicode="&#x668;" horiz-adv-x="549" 
d="M322 520l152 -520h-74l-62 212l-62 211l-64 -211l-63 -212h-74l153 520h94z" />
    <glyph glyph-name="uni0669" unicode="&#x669;" horiz-adv-x="510" 
d="M85 385q0 29 10.5 53.5t28.5 42.5t42.5 28.5t53.5 10.5h205v-520h-70v185h-135q-29 0 -53.5 10.5t-42.5 28.5t-28.5 42.5t-10.5 53.5v65zM155 320q0 -28 18.5 -46.5t46.5 -18.5h135v195h-135q-28 0 -46.5 -18.5t-18.5 -46.5v-65z" />
    <glyph glyph-name="uni066A" unicode="&#x66a;" horiz-adv-x="570" 
d="M133 0l207 520h75l-207 -520h-75zM94 492h81v-81h-81v81zM386 96h81v-81h-81v81z" />
    <glyph glyph-name="uni066B" unicode="&#x66b;" horiz-adv-x="277" 
d="M99 108q59 -30 83.5 -64.5t24.5 -71.5q0 -45 -30.5 -94.5t-73.5 -93.5l-21 45q11 12 22 27t19.5 31t14 33t5.5 33q0 23 -16 45t-57 40z" />
    <glyph glyph-name="uni066C" unicode="&#x66c;" horiz-adv-x="291" 
d="M221 -1q-78 3 -114.5 35.5t-36.5 80.5q0 45 28 95t81 98l27 -39q-36 -38 -54 -72t-18 -60q0 -29 21 -47t66 -21v-70z" />
    <glyph glyph-name="uni066D" unicode="&#x66d;" horiz-adv-x="513" 
d="M447 284l-108 -84l36 -131l-5 -3l-113 75l-112 -75l-6 3l38 131l-107 84l2 7l136 6l47 128h6l48 -128l136 -6z" />
    <glyph glyph-name="behc" unicode="&#x66e;" horiz-adv-x="770" 
d="M635 320h70v-235q0 -35 -25 -60t-60 -25h-470q-35 0 -60 25t-25 60v235h70v-235q0 -6 4.5 -10.5t10.5 -4.5h470q6 0 10.5 4.5t4.5 10.5v235z" />
    <glyph glyph-name="qafc" unicode="&#x66f;" horiz-adv-x="640" 
d="M250 -140q-38 0 -72 14.5t-59 39.5t-39.5 59t-14.5 72v125h70v-125q0 -24 9 -44.5t25 -36.5t36.5 -25t44.5 -9h140q24 0 44.5 8.5t36.5 23.5t25 35t9 43h-135q-22 0 -41 8t-33.5 22.5t-22.5 33.5t-8 41v40q0 45 12.5 78t34.5 54.5t50.5 32t61.5 10.5q38 0 76.5 -13.5
t74.5 -39.5v-262q0 -38 -14.5 -72t-40 -59t-59 -39.5t-71.5 -14.5h-140zM505 110v159q-20 10 -40.5 15.5t-40.5 5.5q-37 0 -63 -25.5t-26 -79.5v-40q0 -14 10.5 -24.5t24.5 -10.5h135z" />
    <glyph glyph-name="uni0670" unicode="&#x670;" 
d="M0 173q4 -12 8.5 -28t7.5 -34t5 -36.5t2 -35.5v-18q0 -8 -2 -15l-24 -9q0 32 -7.5 67.5t-21.5 61.5z" />
    <glyph glyph-name="uni0674" unicode="&#x674;" horiz-adv-x="214" 
d="M164 671q-5 -8 -9.5 -14t-9.5 -14q-6 5 -17 9.5t-22 4.5q-19 0 -19 -14q0 -11 12.5 -24t32.5 -19h37v-41h-124v41h29q-26 24 -26 52q0 17 13 28.5t35 11.5q16 0 33.5 -5.5t34.5 -15.5z" />
    <glyph glyph-name="uni069C" unicode="&#x69c;" horiz-adv-x="940" 
d="M596 575l49 -50l-49 -49l-50 49zM541 475l49 -50l-49 -49l-50 49zM661 475l49 -50l-49 -49l-50 49zM654 -135l49 -50l-49 -49l-50 49zM589 -45l49 -50l-49 -49l-50 49zM709 -45l49 -50l-49 -49l-50 49zM805 320h70v-235q0 -35 -25 -60t-60 -25h-335v-55q0 -35 -25 -60
t-60 -25h-120q-38 0 -72 14.5t-59 39.5t-39.5 59t-14.5 72v125h70v-125q0 -24 9 -44.5t25 -36.5t36.5 -25t44.5 -9h120q6 0 10.5 4.5t4.5 10.5v375h70v-250h140v250h70v-250h125q6 0 10.5 4.5t4.5 10.5v235z" />
    <glyph glyph-name="fehc" unicode="&#x6a1;" horiz-adv-x="850" 
d="M529 70q-31 26 -46.5 60t-15.5 69q0 24 7.5 46t23.5 38.5t41.5 26.5t60.5 10h100q35 0 60 -25t25 -60v-235h-635q-35 0 -60 25t-25 60v235h70v-235q0 -6 4.5 -10.5t10.5 -4.5h379zM535 198q0 -21 11.5 -44t31.5 -41.5t46 -30.5t56 -12h35v165q0 6 -4.5 10.5t-10.5 4.5
h-100q-35 0 -50 -15t-15 -37z" />
    <glyph glyph-name="uni06A2" unicode="&#x6a2;" horiz-adv-x="850" 
d="M626 -55l49 -50l-49 -49l-50 49zM529 70q-31 26 -46.5 60t-15.5 69q0 24 7.5 46t23.5 38.5t41.5 26.5t60.5 10h100q35 0 60 -25t25 -60v-235h-635q-35 0 -60 25t-25 60v235h70v-235q0 -6 4.5 -10.5t10.5 -4.5h379zM535 198q0 -21 11.5 -44t31.5 -41.5t46 -30.5t56 -12h35
v165q0 6 -4.5 10.5t-10.5 4.5h-100q-35 0 -50 -15t-15 -37z" />
    <glyph glyph-name="uni06A5" unicode="&#x6a5;" horiz-adv-x="850" 
d="M636 -135l49 -50l-49 -49l-50 49zM571 -45l49 -50l-49 -49l-50 49zM691 -45l49 -50l-49 -49l-50 49zM529 70q-31 26 -46.5 60t-15.5 69q0 24 7.5 46t23.5 38.5t41.5 26.5t60.5 10h100q35 0 60 -25t25 -60v-235h-635q-35 0 -60 25t-25 60v235h70v-235q0 -6 4.5 -10.5
t10.5 -4.5h379zM535 198q0 -21 11.5 -44t31.5 -41.5t46 -30.5t56 -12h35v165q0 6 -4.5 10.5t-10.5 4.5h-100q-35 0 -50 -15t-15 -37z" />
    <glyph glyph-name="uni06A7" unicode="&#x6a7;" horiz-adv-x="640" 
d="M416 525l49 -50l-49 -49l-50 49zM250 -140q-38 0 -72 14.5t-59 39.5t-39.5 59t-14.5 72v125h70v-125q0 -24 9 -44.5t25 -36.5t36.5 -25t44.5 -9h140q24 0 44.5 8.5t36.5 23.5t25 35t9 43h-135q-22 0 -41 8t-33.5 22.5t-22.5 33.5t-8 41v40q0 45 12.5 78t34.5 54.5
t50.5 32t61.5 10.5q38 0 76.5 -13.5t74.5 -39.5v-262q0 -38 -14.5 -72t-40 -59t-59 -39.5t-71.5 -14.5h-140zM505 110v159q-20 10 -40.5 15.5t-40.5 5.5q-37 0 -63 -25.5t-26 -79.5v-40q0 -14 10.5 -24.5t24.5 -10.5h135z" />
    <glyph glyph-name="uni06A8" unicode="&#x6a8;" horiz-adv-x="640" 
d="M416 625l49 -50l-49 -49l-50 49zM361 525l49 -50l-49 -49l-50 49zM481 525l49 -50l-49 -49l-50 49zM250 -140q-38 0 -72 14.5t-59 39.5t-39.5 59t-14.5 72v125h70v-125q0 -24 9 -44.5t25 -36.5t36.5 -25t44.5 -9h140q24 0 44.5 8.5t36.5 23.5t25 35t9 43h-135
q-22 0 -41 8t-33.5 22.5t-22.5 33.5t-8 41v40q0 45 12.5 78t34.5 54.5t50.5 32t61.5 10.5q38 0 76.5 -13.5t74.5 -39.5v-262q0 -38 -14.5 -72t-40 -59t-59 -39.5t-71.5 -14.5h-140zM505 110v159q-20 10 -40.5 15.5t-40.5 5.5q-37 0 -63 -25.5t-26 -79.5v-40
q0 -14 10.5 -24.5t24.5 -10.5h135z" />
    <glyph glyph-name="noonc" unicode="&#x6ba;" horiz-adv-x="520" 
d="M455 -15q0 -35 -25 -60t-60 -25h-120q-38 0 -72 14.5t-59 39.5t-39.5 59t-14.5 72v135h70v-135q0 -24 9 -44.5t25 -36.5t36.5 -25t44.5 -9h120q6 0 10.5 4.5t4.5 10.5v335h70v-335z" />
    <glyph glyph-name="uni06C2" unicode="&#x6c2;" horiz-adv-x="440" 
d="M65 0v170q0 40 13 68.5t35.5 46.5t51.5 26.5t61 8.5q39 0 78 -12t71 -34v-274h-310zM305 70v164q-37 16 -79 16q-36 0 -63.5 -19t-27.5 -61v-100h170zM277 512q-5 -8 -9.5 -14t-9.5 -14q-6 5 -17 9.5t-22 4.5q-19 0 -19 -14q0 -11 12.5 -24t32.5 -19h37v-41h-124v41h29
q-26 24 -26 52q0 17 13 28.5t35 11.5q16 0 33.5 -5.5t34.5 -15.5z" />
    <glyph glyph-name="uni06C3" unicode="&#x6c3;" horiz-adv-x="440" 
d="M161 495l49 -50l-49 -49l-50 49zM281 495l49 -50l-49 -49l-50 49zM65 0v170q0 40 13 68.5t35.5 46.5t51.5 26.5t61 8.5q39 0 78 -12t71 -34v-274h-310zM305 70v164q-37 16 -79 16q-36 0 -63.5 -19t-27.5 -61v-100h170z" />
    <glyph glyph-name="uni06D4" unicode="&#x6d4;" horiz-adv-x="500" 
d="M75 85h350v-70h-350v70z" />
    <glyph glyph-name="uni06D5" unicode="&#x6d5;" horiz-adv-x="440" 
d="M65 0v170q0 40 13 68.5t35.5 46.5t51.5 26.5t61 8.5q39 0 78 -12t71 -34v-274h-310zM305 70v164q-37 16 -79 16q-36 0 -63.5 -19t-27.5 -61v-100h170z" />
    <glyph glyph-name="uni06F0" unicode="&#x6f0;" horiz-adv-x="325" 
d="M85 213l77 78l78 -78l-78 -77z" />
    <glyph glyph-name="uni06F1" unicode="&#x6f1;" horiz-adv-x="240" 
d="M155 520v-520h-70v520h70z" />
    <glyph glyph-name="uni06F2" unicode="&#x6f2;" horiz-adv-x="460" 
d="M369 410q-12 8 -28.5 15.5t-34 13t-35 8.5t-31.5 3q-41 0 -63 -23t-22 -55q0 -6 1 -12.5t3 -12.5l100 -347h-73l-95 327q-6 22 -6 45q0 31 10.5 58t30.5 47t48.5 31.5t65.5 11.5q35 0 69 -9t66 -27z" />
    <glyph glyph-name="uni06F3" unicode="&#x6f3;" horiz-adv-x="680" 
d="M155 303q19 -6 43 -12t47 -6q24 0 42 9.5t18 35.5v190h70v-189q21 -14 51.5 -25t53.5 -11q19 0 32 7.5t13 27.5v190h70v-190q0 -29 -8.5 -49t-23.5 -32.5t-35.5 -18t-43.5 -5.5q-32 0 -66 10t-63 27q-18 -25 -46.5 -36t-59.5 -11q-23 0 -47 4t-47 11v-230h-70v520h70
v-217z" />
    <glyph glyph-name="uni06F4" unicode="&#x6f4;" horiz-adv-x="647" 
d="M160 265h139q-30 44 -30 94q0 35 12.5 64.5t34.5 51t52.5 33.5t65.5 12q29 0 59 -8.5t59 -25.5l-30 -56q-18 9 -39.5 14.5t-42.5 5.5q-45 0 -72.5 -24t-27.5 -66q0 -18 6.5 -35.5t18.5 -30.5t29 -21t37 -8h119v-70h-390v-195h-70v520h70v-255z" />
    <glyph glyph-name="uni06F5" unicode="&#x6f5;" horiz-adv-x="660" 
d="M372 520q65 0 104 -40t51 -104l24 -136q9 -48 13 -72.5l5 -31t1 -9.5q0 -32 -9.5 -56t-26 -39.5t-38.5 -23.5t-46 -8q-32 0 -63.5 12t-56.5 36q-23 -24 -52.5 -36t-59.5 -12q-26 0 -49 8.5t-40.5 24.5t-28 39.5t-10.5 53.5q0 4 2 18.5t7 44l13 75.5l21 112
q12 64 50.5 104t104.5 40h84zM288 450q-34 0 -56 -26t-30 -61q-15 -72 -23.5 -117t-12.5 -70.5t-5 -35.5t-1 -13q0 -30 19 -43.5t44 -13.5q14 0 33 6.5t48 33.5q7 9 22 9q13 0 25 -9q32 -26 57 -33t42 -7q20 0 35 13.5t15 42.5q0 5 -9.5 66.5t-32.5 170.5q-8 35 -30.5 61
t-55.5 26h-84z" />
    <glyph glyph-name="uni06F6" unicode="&#x6f6;" horiz-adv-x="495" 
d="M160 0h-70v120q0 42 24 79t66 55q-35 25 -52.5 60t-17.5 73q0 26 9.5 50t29 42.5t49 29.5t69.5 11q36 0 69.5 -8t59.5 -24l-29 -61q-20 11 -45.5 17t-53.5 6q-35 0 -61.5 -15t-26.5 -53q0 -21 9.5 -41t26.5 -35.5t39.5 -25.5t49.5 -10h105v-70h-145q-53 0 -79 -24
t-26 -56v-120z" />
    <glyph glyph-name="uni06F7" unicode="&#x6f7;" horiz-adv-x="549" 
d="M228 0l-153 520h74l63 -212l64 -211l124 423h74l-152 -520h-94z" />
    <glyph glyph-name="uni06F8" unicode="&#x6f8;" horiz-adv-x="549" 
d="M322 520l152 -520h-74l-62 212l-62 211l-64 -211l-63 -212h-74l153 520h94z" />
    <glyph glyph-name="uni06F9" unicode="&#x6f9;" horiz-adv-x="500" 
d="M80 385q0 29 10.5 53.5t28.5 42.5t42.5 28.5t53.5 10.5h205v-520h-70v185h-135q-29 0 -53.5 10.5t-42.5 28.5t-28.5 42.5t-10.5 53.5v65zM150 320q0 -28 18.5 -46.5t46.5 -18.5h135v195h-135q-28 0 -46.5 -18.5t-18.5 -46.5v-65z" />
    <glyph glyph-name="uni0763" unicode="&#x763;" horiz-adv-x="713" 
d="M306 513l49 -50l-49 -49l-50 49zM241 603l49 -50l-49 -49l-50 49zM361 603l49 -50l-49 -49l-50 49zM649 484l-87 -85l-86 -85q32 -5 62.5 -15.5t54 -30.5t38 -51.5t14.5 -76.5v-140h-495q-36 0 -60.5 24.5t-24.5 60.5v205h70v-205q0 -6 4.5 -10.5t10.5 -4.5h425v70
q0 36 -18 58t-46 33.5t-61.5 15.5t-64.5 4l-15 60l115 111l115 111z" />
    <glyph glyph-name="uni200C" unicode="&#x200c;" horiz-adv-x="36" 
d="M36 -508h-36v1292h36v-1292z" />
    <glyph glyph-name="uni200D" unicode="&#x200d;" horiz-adv-x="32" 
d="M116 608l-22 -23l-61 60v-1153h-35v1153l-61 -60l-22 23l77 77q-5 4 -16 15l-23 23l-23 23q-11 11 -15 16l22 25l79 -79l78 79l22 -25l-78 -77z" />
    <glyph glyph-name="uni200E" unicode="&#x200e;" horiz-adv-x="34" 
d="M222 683l-99 -101l-24 24l59 62h-122v-1176h-36v1211h156l-57 57l24 24z" />
    <glyph glyph-name="uni200F" unicode="&#x200f;" horiz-adv-x="30" 
d="M32 -508h-36v1176h-122l59 -62l-23 -24l-99 101l99 101l23 -24l-57 -57h156v-1211z" />
    <glyph glyph-name="endash" unicode="&#x2013;" horiz-adv-x="550" 
d="M75 105v70h400v-70h-400z" />
    <glyph glyph-name="emdash" unicode="&#x2014;" horiz-adv-x="820" 
d="M75 105v70h670v-70h-670z" />
    <glyph glyph-name="quoteleft" unicode="&#x2018;" horiz-adv-x="326" 
d="M166 465h-71l64 180h71z" />
    <glyph glyph-name="quoteright" unicode="&#x2019;" horiz-adv-x="324" 
d="M158 465h71l-64 180h-71z" />
    <glyph glyph-name="quotedblleft" unicode="&#x201c;" horiz-adv-x="440" 
d="M166 465h-71l64 180h71zM280 465h-71l64 180h71z" />
    <glyph glyph-name="quotedblright" unicode="&#x201d;" horiz-adv-x="440" 
d="M160 465h71l-64 180h-71zM274 465h71l-64 180h-71z" />
    <glyph glyph-name="abdofonts.com" unicode="&#x2020;" horiz-adv-x="592" 
d="M108 365h-21v-47h-37v146h95v-146h-37v47zM490 -40h-37v87h-21v-87h-37v87h-21v-87h-37v106h153v-106zM165 464h37v-40h58v-106h-95v146zM375 318h-95v106h58v40h37v-146zM490 318h-95v106h95v-106zM235 117h-95v106h95v-106zM317 -40h-95v106h95v-106zM350 117h-37v87
h-21v-87h-37v106h95v-106zM107 66h95v-34h-37v15h-21v-68h21v15h37v-34h-95v106zM484 204v-24h58v-63h-95v19h58v25h-58v62h95v-19h-58zM87 164v-47h-37v146h75v-19h-38v-61h38v-19h-38zM407 204v-87h-37v146h37v-40h25v-19h-25zM317 337h21v68h-21v-68zM177 136h21v68h-21
v-68zM202 337h21v68h-21v-68zM259 -21h21v68h-21v-68zM432 337h21v68h-21v-68zM87 384h21v61h-21v-61zM87 -40h-37v29h37v-29z" />
    <glyph glyph-name="bullet" unicode="&#x2022;" horiz-adv-x="344" 
d="M172 318q25 0 47.5 -9.5t39 -26t26 -39.5t9.5 -50t-9.5 -50t-26 -40t-39 -26.5t-47.5 -9.5t-47 9.5t-38.5 26.5t-26.5 40t-10 50t10 50t26.5 39.5t38.5 26t47 9.5z" />
    <glyph glyph-name="uni2026" unicode="&#x2026;" horiz-adv-x="570" 
d="M60 90h90v-90h-90v90zM240 90h90v-90h-90v90zM420 90h90v-90h-90v90z" />
    <glyph glyph-name="guilsinglleft" unicode="&#x2039;" horiz-adv-x="357" 
d="M205 10l-125 188l124 182h85l-125 -183l125 -187h-84z" />
    <glyph glyph-name="guilsinglright" unicode="&#x203a;" horiz-adv-x="357" 
d="M152 10l125 188l-124 182h-85l125 -183l-125 -187h84z" />
    <glyph glyph-name="trademark" unicode="&#x2122;" horiz-adv-x="620" 
d="M354 447l81 -195l41 98l40 97h61v-284h-54v166l-67 -166h-41l-68 164v-164h-54v284h61zM43 393v54h234v-54h-90v-230h-54v230h-90z" />
    <glyph glyph-name="minus" unicode="&#x2212;" horiz-adv-x="450" 
d="M75 155v70h300v-70h-300z" />
    <glyph glyph-name="uni25CC" unicode="&#x25cc;" horiz-adv-x="715" 
d="M105 168q-10 20 -15 41t-5 45l32 3q1 -19 5 -38t15 -41zM177 68q-19 16 -32.5 33t-25.5 35l29 17q18 -33 50 -61zM286 9q-23 8 -43.5 17t-40.5 24l18 24q18 -11 35.5 -18.5t37.5 -13.5zM406 3q-14 -2 -25 -2.5t-21 -0.5q-9 0 -19.5 0.5t-24.5 2.5l3 32q14 -2 21 -2h16
q8 0 19 1t24 3zM520 51q-22 -14 -42.5 -23t-40.5 -16l-11 32q38 13 71 35zM598 143q-11 -19 -26 -37l-28 -35l-24 26q16 14 27 30l24 32zM631 263q-1 -23 -5.5 -45.5t-12.5 -43.5l-30 12l8 38q5 19 7 39h33zM609 382q8 -20 13.5 -42t5.5 -46l-30 -4q-2 19 -8 39.5t-13 41.5z
M538 480q17 -17 30 -33.5t26 -36.5l-31 -16q-8 19 -20.5 33.5t-27.5 29.5zM429 538q23 -7 43.5 -15.5t39.5 -24.5l-20 -26q-18 14 -35 21.5t-37 14.5zM307 542q24 7 49 7q10 0 21 -1t19 -2l-2 -33q-12 2 -21 2.5t-17 0.5q-10 0 -20 -0.5t-23 -5.5zM195 496q22 15 41.5 24.5
t38.5 16.5l12 -33q-20 -7 -38.5 -15t-32.5 -19zM117 404q11 20 23.5 38.5t29.5 32.5l24 -25q-16 -13 -28.5 -28.5t-21.5 -32.5zM84 287q1 23 5 45t12 42l31 -10q-7 -19 -10.5 -39t-4.5 -38h-33z" />
    <glyph glyph-name="uni2639" unicode="&#x2639;" horiz-adv-x="698" 
d="M349 545q56 0 106.5 -22t88 -59.5t59.5 -87.5t22 -107t-22 -107.5t-59.5 -88t-88 -59.5t-106.5 -22q-57 0 -107.5 22t-88 60t-59.5 88t-22 107t22 107t59.5 87.5t88 59.5t107.5 22zM349 33q47 0 89.5 18.5t74.5 51t51 75.5t19 91t-19 90.5t-51 75t-74.5 51t-89.5 18.5
q-48 0 -91 -19t-75 -51t-51 -74.5t-19 -90.5t19 -91t51 -75t75 -51t91 -19zM444 375q17 0 29 -12t12 -29q0 -18 -13 -30.5t-28 -12.5q-17 0 -30 12t-13 31q0 17 12.5 29t30.5 12zM254 375q17 0 29 -12t12 -29t-12 -30t-29 -13t-30 12t-13 31q0 17 12.5 29t30.5 12zM458 120
q-20 30 -49.5 46t-59.5 16q-31 0 -61.5 -16.5t-47.5 -45.5l-31 17q47 96 140 96q44 0 79.5 -23.5t60.5 -72.5z" />
    <glyph glyph-name="uni263A" unicode="&#x263a;" horiz-adv-x="698" 
d="M349 545q56 0 106.5 -22t88 -59.5t59.5 -87.5t22 -107t-22 -107.5t-59.5 -88t-88 -59.5t-106.5 -22q-57 0 -107.5 22t-88 60t-59.5 88t-22 107t22 107t59.5 87.5t88 59.5t107.5 22zM349 33q47 0 89.5 18.5t74.5 51t51 75.5t19 91t-19 90.5t-51 75t-74.5 51t-89.5 18.5
q-48 0 -91 -19t-75 -51t-51 -74.5t-19 -90.5t19 -91t51 -75t75 -51t91 -19zM444 375q17 0 29 -12t12 -29q0 -18 -13 -30.5t-28 -12.5q-17 0 -30 12t-13 31q0 17 12.5 29t30.5 12zM254 375q17 0 29 -12t12 -29t-12 -30t-29 -13t-30 12t-13 31q0 17 12.5 29t30.5 12zM489 199
q-52 -97 -140 -97q-92 0 -140 97l31 17q17 -30 47.5 -46.5t61.5 -16.5t60 17.5t49 46.5z" />
    <glyph glyph-name="uni0654064E" unicode="&#xe832;" 
d="M-60 -49h120v-33h-120v33zM57 112q-5 -8 -9.5 -14t-9.5 -14q-6 5 -17 9.5t-22 4.5q-19 0 -19 -14q0 -11 12.5 -24t32.5 -19h37v-41h-124v41h29q-26 24 -26 52q0 17 13 28.5t35 11.5q16 0 33.5 -5.5t34.5 -15.5z" />
    <glyph glyph-name="uni0654064B" unicode="&#xe833;" 
d="M-60 -43h120v-33h-120v33zM-60 -101h120v-33h-120v33zM57 112q-5 -8 -9.5 -14t-9.5 -14q-6 5 -17 9.5t-22 4.5q-19 0 -19 -14q0 -11 12.5 -24t32.5 -19h37v-41h-124v41h29q-26 24 -26 52q0 17 13 28.5t35 11.5q16 0 33.5 -5.5t34.5 -15.5z" />
    <glyph glyph-name="uni06540652" unicode="&#xe834;" 
d="M-60 237.5q0 25.5 18 42.5t43 17t42 -17t17 -42.5t-17 -43.5t-42 -18t-43 18t-18 43.5zM-29 237.5q0 -12.5 8.5 -21t21.5 -8.5t21.5 8.5t8.5 21t-8.5 21t-21.5 8.5t-21.5 -8.5t-8.5 -21zM57 112q-5 -8 -9.5 -14t-9.5 -14q-6 5 -17 9.5t-22 4.5q-19 0 -19 -14
q0 -11 12.5 -24t32.5 -19h37v-41h-124v41h29q-26 24 -26 52q0 17 13 28.5t35 11.5q16 0 33.5 -5.5t34.5 -15.5z" />
    <glyph glyph-name="uni0654064F" unicode="&#xe835;" 
d="M-30 160q-4 7 -7 14l-7 14q17 9 28.5 18t19.5 18q-23 0 -41.5 13.5t-18.5 41.5q0 26 17 41t39 15q24 0 39.5 -17t15.5 -41q0 -12 -4.5 -27t-15 -30.5t-26.5 -31t-39 -28.5zM25 279q0 10 -7.5 18t-17.5 8t-17.5 -8t-7.5 -18t7.5 -17.5t17.5 -7.5t17.5 7.5t7.5 17.5z
M57 112q-5 -8 -9.5 -14t-9.5 -14q-6 5 -17 9.5t-22 4.5q-19 0 -19 -14q0 -11 12.5 -24t32.5 -19h37v-41h-124v41h29q-26 24 -26 52q0 17 13 28.5t35 11.5q16 0 33.5 -5.5t34.5 -15.5z" />
    <glyph glyph-name="uni0654064C" unicode="&#xe836;" 
d="M-9 188q31 18 45 35q-21 0 -39 12.5t-18 40.5q0 24 16.5 38t36.5 14q23 0 38 -15.5t15 -38.5t-18.5 -55t-62.5 -57q-3 7 -6 13zM-40 194q-19 18 -27.5 38.5t-8.5 41.5q0 36 20 65q7 -4 13 -8l12 -8q-15 -23 -15 -46q0 -18 9 -35t27 -31zM56 265q1 3 1 9q0 10 -7.5 18
t-17.5 8q-8 0 -16 -6.5t-8 -17.5t8.5 -17t18.5 -6q7 0 13 3.5t8 8.5zM57 112q-5 -8 -9.5 -14t-9.5 -14q-6 5 -17 9.5t-22 4.5q-19 0 -19 -14q0 -11 12.5 -24t32.5 -19h37v-41h-124v41h29q-26 24 -26 52q0 17 13 28.5t35 11.5q16 0 33.5 -5.5t34.5 -15.5z" />
    <glyph glyph-name="uni06550650" unicode="&#xe837;" 
d="M-60 -211h120v-33h-120v33zM57 -53q-5 -8 -9.5 -14t-9.5 -14q-6 5 -17 9.5t-22 4.5q-19 0 -19 -14q0 -11 12.5 -24t32.5 -19h37v-41h-124v41h29q-26 24 -26 52q0 17 13 28.5t35 11.5q16 0 33.5 -5.5t34.5 -15.5z" />
    <glyph glyph-name="uni0654064D" unicode="&#xe838;" 
d="M-55 -297h120v-33h-120v33zM-55 -359h120v-33h-120v33zM57 -53q-5 -8 -9.5 -14t-9.5 -14q-6 5 -17 9.5t-22 4.5q-19 0 -19 -14q0 -11 12.5 -24t32.5 -19h37v-41h-124v41h29q-26 24 -26 52q0 17 13 28.5t35 11.5q16 0 33.5 -5.5t34.5 -15.5z" />
    <glyph glyph-name="logo" unicode="&#xf8ff;" horiz-adv-x="648" 
d="M598 -55h-548v548h548v-548zM534 279q3 -15 3 -30q0 -39 -14.5 -72.5t-39.5 -58.5t-59 -39.5t-72 -14.5q-39 0 -72.5 14.5t-58.5 39.5t-39.5 58.5t-14.5 72.5q0 37 14 70.5t38.5 58.5t57.5 40t71 16q-5 0 -12 1t-12 1q-45 0 -85 -17t-70 -47t-47 -70t-17 -85t17 -85
t47 -70t70 -47.5t85 -17.5t85 17.5t70 47.5t47 70t17 85q0 32 -9 62zM445 182q0 19 -7.5 36.5t-20 30t-29.5 20t-36 7.5q-20 0 -37 -7.5t-29.5 -20t-20 -30t-7.5 -36.5t7.5 -36t20 -29.5t29.5 -20t37 -7.5q19 0 36 7.5t29.5 20t20 29.5t7.5 36z" />
    <glyph glyph-name="p1" unicode="&#xfbb2;" 
d="M-4 95l49 -50l-49 -49l-50 49z" />
    <glyph glyph-name="p2" unicode="&#xfbb4;" 
d="M-59 95l49 -50l-49 -49l-50 49zM61 95l49 -50l-49 -49l-50 49z" />
    <glyph glyph-name="p3" unicode="&#xfbb6;" 
d="M-4 195l49 -50l-49 -49l-50 49zM-59 95l49 -50l-49 -49l-50 49zM61 95l49 -50l-49 -49l-50 49z" />
    <glyph glyph-name="uniFD3E" unicode="&#xfd3e;" horiz-adv-x="636" 
d="M50 220q11 6 20.5 18t20.5 24.5t23.5 21.5t29.5 9q9 0 24 -5q0 23 9 44.5t30 41.5q0 29 9 47.5t22 29t28 14.5t26 4q14 0 18 -4q0 39 11 64t29 41.5t41 28.5l46 23q24 11 46 25.5t39 37.5l14 -12l-50 -72q-24 -37 -44 -76t-32.5 -80t-12.5 -85v-280q0 -44 12.5 -85.5
t32.5 -80.5t44 -75l50 -72l-14 -12q-17 23 -39 37.5t-46 25.5l-46 22q-23 11 -41 28t-29 42t-11 65q-3 -4 -18 -4q-11 0 -26 4t-28 14.5t-22 29t-9 47.5q-21 20 -30 41.5t-9 44.5q-11 -5 -24 -5q-17 0 -29.5 9t-23.5 21t-20.5 24.5t-20.5 18.5zM216 70q9 -13 19.5 -18.5
t21.5 -5.5q13 0 25.5 7.5t22 20.5t15.5 28.5t6 32.5q0 34 -26 59q0 -21 -14 -31.5t-30.5 -19t-30.5 -19t-14 -31.5q0 -8 5 -23zM216 370q-5 -15 -5 -24q0 -21 14 -31.5t30.5 -19.5t30.5 -19.5t14 -30.5q26 25 26 59q0 17 -6 33t-15.5 29t-22 20.5t-25.5 7.5
q-11 0 -21.5 -5.5t-19.5 -18.5zM218 220q-23 12 -37 30q-11 -2 -21 -10.5t-13 -19.5q3 -11 13 -19.5t21 -10.5q7 8 16 16t21 14z" />
    <glyph glyph-name="uniFD3F" unicode="&#xfd3f;" horiz-adv-x="636" 
d="M586 220q-11 6 -20.5 18t-20.5 24.5t-23.5 21.5t-29.5 9q-9 0 -24 -5q0 23 -9 44.5t-30 41.5q0 29 -9 47.5t-22 29t-28 14.5t-26 4q-14 0 -18 -4q0 39 -11 64t-29 41.5t-41 28.5l-46 23q-24 11 -46 25.5t-39 37.5l-14 -12l50 -72q24 -37 44 -76t32.5 -80t12.5 -85v-280
q0 -44 -12.5 -85.5t-32.5 -80.5t-44 -75l-50 -72l14 -12q17 23 39 37.5t46 25.5l46 22q23 11 41 28t29 42t11 65q3 -4 18 -4q11 0 26 4t28 14.5t22 29t9 47.5q21 20 30 41.5t9 44.5q11 -5 24 -5q17 0 29.5 9t23.5 21t20.5 24.5t20.5 18.5zM420 70q-9 -13 -19.5 -18.5
t-21.5 -5.5q-13 0 -25.5 7.5t-22 20.5t-15.5 28.5t-6 32.5q0 34 26 59q0 -21 14 -31.5t30.5 -19t30.5 -19t14 -31.5q0 -8 -5 -23zM420 370q5 -15 5 -24q0 -21 -14 -31.5t-30.5 -19.5t-30.5 -19.5t-14 -30.5q-26 25 -26 59q0 17 6 33t15.5 29t22 20.5t25.5 7.5
q11 0 21.5 -5.5t19.5 -18.5zM418 220q23 12 37 30q11 -2 21 -10.5t13 -19.5q-3 -11 -13 -19.5t-21 -10.5q-7 8 -16 16t-21 14z" />
    <glyph glyph-name="alef2" horiz-adv-x="220" 
d="M145 540v-540h-70v540h70z" />
    <glyph glyph-name="aleff2" horiz-adv-x="220" 
d="M135 540v-470h85v-70h-155v540h70z" />
    <glyph glyph-name="uni06A7.init" horiz-adv-x="450" 
d="M221 495l49 -50l-49 -49l-50 49zM129 70q-31 25 -47 58.5t-16 67.5q0 25 7.5 47.5t24 39.5t41.5 27t61 10h100q35 0 60 -25t25 -60v-235h-385q-13 0 -21.5 8.5t-8.5 21.5v10q0 13 8.5 21.5t21.5 8.5h129zM135 198q0 -21 11.5 -44t31.5 -41.5t46 -30.5t56 -12h35v165
q0 6 -4.5 10.5t-10.5 4.5h-100q-35 0 -50 -15t-15 -37z" />
    <glyph glyph-name="uni06A7.medi" horiz-adv-x="480" 
d="M241 495l49 -50l-49 -49l-50 49zM65 170q0 32 13.5 60.5t37.5 49.5t56 33t68 12t68 -12t56 -33t37.5 -49.5t13.5 -60.5q0 -59 -41 -100h106v-70h-480q-13 0 -21.5 8.5t-8.5 21.5v10q0 13 8.5 21.5t21.5 8.5h104q-20 20 -29.5 45.5t-9.5 54.5zM135 162q0 -20 8 -36.5
t22.5 -29t33.5 -19.5t41 -7t41 7t33 19.5t22.5 29.5t8.5 36t-8.5 36t-22.5 29.5t-33 20t-41 7.5t-41 -7.5t-33.5 -20t-22.5 -29.5t-8 -36z" />
    <glyph glyph-name="uni06A8.init" horiz-adv-x="450" 
d="M221 575l49 -50l-49 -49l-50 49zM166 475l49 -50l-49 -49l-50 49zM286 475l49 -50l-49 -49l-50 49zM129 70q-31 25 -47 58.5t-16 67.5q0 25 7.5 47.5t24 39.5t41.5 27t61 10h100q35 0 60 -25t25 -60v-235h-385q-13 0 -21.5 8.5t-8.5 21.5v10q0 13 8.5 21.5t21.5 8.5h129z
M135 198q0 -21 11.5 -44t31.5 -41.5t46 -30.5t56 -12h35v165q0 6 -4.5 10.5t-10.5 4.5h-100q-35 0 -50 -15t-15 -37z" />
    <glyph glyph-name="uni06A8.medi" horiz-adv-x="480" 
d="M238 575l49 -50l-49 -49l-50 49zM183 475l49 -50l-49 -49l-50 49zM303 475l49 -50l-49 -49l-50 49zM65 170q0 32 13.5 60.5t37.5 49.5t56 33t68 12t68 -12t56 -33t37.5 -49.5t13.5 -60.5q0 -59 -41 -100h106v-70h-480q-13 0 -21.5 8.5t-8.5 21.5v10q0 13 8.5 21.5
t21.5 8.5h104q-20 20 -29.5 45.5t-9.5 54.5zM135 162q0 -20 8 -36.5t22.5 -29t33.5 -19.5t41 -7t41 7t33 19.5t22.5 29.5t8.5 36t-8.5 36t-22.5 29.5t-33 20t-41 7.5t-41 -7.5t-33.5 -20t-22.5 -29.5t-8 -36z" />
    <glyph glyph-name="uni06CC.medi" horiz-adv-x="300" 
d="M91 -55l49 -50l-49 -49l-50 49zM211 -55l49 -50l-49 -49l-50 49zM-30 40q0 13 8.5 21.5t21.5 8.5h115v250h70v-250h115v-70h-300q-13 0 -21.5 8.5t-8.5 21.5v10z" />
    <glyph glyph-name="uni0763.fina" horiz-adv-x="710" 
d="M306 513l49 -50l-49 -49l-50 49zM241 603l49 -50l-49 -49l-50 49zM361 603l49 -50l-49 -49l-50 49zM150 0q-36 0 -60.5 24.5t-24.5 60.5v205h70v-205q0 -6 4.5 -10.5t10.5 -4.5h425v70q0 36 -18 58t-46 33.5t-61.5 15.5t-64.5 4l-15 60l47 45l68 66l68 66l47 45l49 -49
l-20 -20l-31 -30l-35 -35l-36 -35l-30 -30l-21 -20q32 -5 62.5 -15.5t54 -30.5t38 -51.5t14.5 -76.5v-70h65v-70h-560z" />
    <glyph glyph-name="uni0763.init" horiz-adv-x="410" 
d="M134 592l49 -50l-49 -49l-50 49zM69 682l49 -50l-49 -49l-50 49zM189 682l49 -50l-49 -49l-50 49zM70 311l115 111l115 111l50 -51l-182 -174q38 -4 70.5 -14t56 -29t37 -49.5t13.5 -75.5v-140h-345q-13 0 -21.5 8.5t-8.5 21.5v10q0 13 8.5 21.5t21.5 8.5h275v70
q0 38 -18.5 60t-47 33.5t-61.5 14.5t-63 3z" />
    <glyph glyph-name="uni0763.medi" horiz-adv-x="390" 
d="M134 592l49 -50l-49 -49l-50 49zM69 682l49 -50l-49 -49l-50 49zM189 682l49 -50l-49 -49l-50 49zM50 311l115 111l115 111l50 -51l-182 -174q38 -4 70.5 -14t56 -29t37 -49.5t13.5 -75.5v-70h65v-70h-390q-13 0 -21.5 8.5t-8.5 21.5v10q0 13 8.5 21.5t21.5 8.5h255v70
q0 38 -18.5 60t-47 33.5t-61.5 14.5t-63 3z" />
    <glyph glyph-name="uni0651064B" 
d="M-89 172l176 27v-32l-176 -28v33zM-89 230l176 29v-34l-176 -27v32zM-14 98q8 2 15.5 3t15.5 3q-1 -5 -1 -9v-7q0 -20 6 -28.5t11 -8.5t9 5.5t4 18.5q0 6 -1 14t-3 18q9 2 17 3t17 3l2 -38q-1 -23 -10 -42t-33 -19q-8 0 -16.5 4t-13.5 12q-14 -24 -36 -24q-18 0 -32.5 14
t-14.5 42q0 13 3 18.5t8.5 8t12 3t14.5 2.5q-3 -18 -3 -25q0 -30 14 -30q6 0 11.5 9.5t5.5 26.5v11q0 4 -2 12z" />
    <glyph glyph-name="uni06F4.urdu" horiz-adv-x="510" 
d="M150 311q12 -5 29 -9.5t35.5 -8.5t37.5 -6t34 -2q29 0 51.5 9.5t22.5 35.5v190h70v-190q0 -33 -12 -55.5t-32 -35.5t-46 -18.5t-54 -5.5q-37 0 -73 6.5t-63 15.5v-237h-70v520h70v-209z" />
    <glyph glyph-name="uni06F7.urdu" horiz-adv-x="489" 
d="M80 0l177 520h74l-154 -450h232v-70h-329z" />
    <glyph glyph-name="bar" horiz-adv-x="220" 
d="M75 -210v860h70v-860h-70z" />
    <glyph glyph-name="p32" 
d="M6 45l49 -50l-49 -49l-50 49zM-59 135l49 -50l-49 -49l-50 49zM61 135l49 -50l-49 -49l-50 49z" />
    <glyph glyph-name="x.1dot.small" 
 />
    <glyph glyph-name="p22" 
d="M-4 95l49 -50l-49 -49l-50 49zM-4 -5l49 -50l-49 -49l-50 49z" />
    <glyph glyph-name="p3s" 
 />
    <glyph glyph-name="x.3dots.dsmall" 
 />
    <glyph glyph-name="x.wasla" 
d="M-65 30h15v56h30v-23l15 14q9 8 21 8h39q8 0 14 -6.5t6 -15.5v-63h-140v30zM-20 30h65v25h-35z" />
    <glyph glyph-name="x.hehgoalcomma" 
d="M68 -63q-15 -40 -34 -56.5t-41 -16.5q-25 0 -37.5 16t-12.5 42q0 19 8.5 41.5t15.5 36.5h33q-8 -14 -14 -28q-5 -12 -9 -25.5t-4 -24.5q0 -27 20 -27q11 0 23.5 12.5t23.5 41.5z" />
    <glyph glyph-name="x.ghehstroke" 
d="M-20 431l205 198l49 -50l-218 -209z" />
    <glyph glyph-name="uni0691_2" horiz-adv-x="250" 
d="M-4 -87q15 -3 28 -3q31 0 56 16.5t25 58.5v340h70v-340q0 -77 -37 -111t-99 -34q-31 0 -63 7zM59 430h15v106h28v-75l17 16q9 8 21 8h39q8 0 14 -6.5t6 -15.5v-63h-140v30zM104 430h65v25h-35z" />
    <glyph glyph-name="uni0698_2" horiz-adv-x="250" 
d="M131 575l45 -50l-45 -49l-45 49zM82 475l44 -50l-44 -49l-45 49zM190 475l44 -50l-44 -49l-45 49zM-4 -87q15 -3 28 -3q31 0 56 16.5t25 58.5v340h70v-340q0 -77 -37 -111t-99 -34q-31 0 -63 7z" />
    <glyph glyph-name="uni0698.fina2" horiz-adv-x="260" 
d="M121 575l45 -50l-45 -49l-45 49zM72 475l44 -50l-44 -49l-45 49zM180 475l44 -50l-44 -49l-45 49zM175 325v-255h85v-70h-85v-15q0 -76 -37 -110.5t-99 -34.5q-16 0 -30.5 2t-31.5 5l10 33l10 33q13 -3 27 -3q31 0 56 17t25 58v340h70z" />
    <glyph glyph-name="rehf2" horiz-adv-x="260" 
d="M175 325v-255h85v-70h-85v-15q0 -76 -37 -110.5t-99 -34.5q-16 0 -30.5 2t-31.5 5l10 33l10 33q13 -3 27 -3q31 0 56 17t25 58v340h70z" />
    <glyph glyph-name="reh2" horiz-adv-x="250" 
d="M-4 -87q15 -3 28 -3q31 0 56 16.5t25 58.5v340h70v-340q0 -77 -37 -111t-99 -34q-31 0 -63 7z" />
    <glyph glyph-name="zainf2" horiz-adv-x="260" 
d="M131 495l49 -50l-49 -49l-50 49zM175 325v-255h85v-70h-85v-15q0 -76 -37 -110.5t-99 -34.5q-16 0 -30.5 2t-31.5 5l10 33l10 33q13 -3 27 -3q31 0 56 17t25 58v340h70z" />
    <glyph glyph-name="zain2" horiz-adv-x="250" 
d="M136 495l49 -50l-49 -49l-50 49zM-4 -87q15 -3 28 -3q31 0 56 16.5t25 58.5v340h70v-340q0 -77 -37 -111t-99 -34q-31 0 -63 7z" />
    <glyph glyph-name="uni0691.fina2" horiz-adv-x="260" 
d="M175 325v-255h85v-70h-85v-15q0 -76 -37 -110.5t-99 -34.5q-16 0 -30.5 2t-31.5 5l10 33l10 33q13 -3 27 -3q31 0 56 17t25 58v340h70zM49 430h15v106h28v-75l17 16q9 8 21 8h39q8 0 14 -6.5t6 -15.5v-63h-140v30zM94 430h65v25h-35z" />
    <glyph glyph-name="sennam2" horiz-adv-x="235" 
 />
    <glyph glyph-name="sennan2" horiz-adv-x="310" 
d="M175 320h70v-320h-245q-13 0 -21.5 8.5t-8.5 21.5v10q0 13 8.5 21.5t21.5 8.5h175v250z" />
    <glyph glyph-name="hmzn2" horiz-adv-x="300" 
 />
    <glyph glyph-name="hmzm2" horiz-adv-x="235" 
 />
    <glyph glyph-name="behn2" horiz-adv-x="300" 
 />
    <glyph glyph-name="behm2" horiz-adv-x="235" 
 />
    <glyph glyph-name="tehn2" horiz-adv-x="300" 
 />
    <glyph glyph-name="tehm2" horiz-adv-x="235" 
 />
    <glyph glyph-name="thehn2" horiz-adv-x="300" 
 />
    <glyph glyph-name="thehm2" horiz-adv-x="235" 
 />
    <glyph glyph-name="noonn2" horiz-adv-x="300" 
 />
    <glyph glyph-name="noonm2" horiz-adv-x="235" 
 />
    <glyph glyph-name="yehn2" horiz-adv-x="310" 
d="M41 -85l49 -50l-49 -49l-50 49zM161 -85l49 -50l-49 -49l-50 49zM175 320h70v-320h-245q-13 0 -21.5 8.5t-8.5 21.5v10q0 13 8.5 21.5t21.5 8.5h175v250z" />
    <glyph glyph-name="yehm2" horiz-adv-x="235" 
 />
    <glyph glyph-name="uni0679.init2" horiz-adv-x="300" 
 />
    <glyph glyph-name="uni0679.medi2" horiz-adv-x="310" 
d="M106 -135l49 -50l-49 -49l-50 49zM41 -45l49 -50l-49 -49l-50 49zM161 -45l49 -50l-49 -49l-50 49zM175 320h70v-320h-245q-13 0 -21.5 8.5t-8.5 21.5v10q0 13 8.5 21.5t21.5 8.5h175v250z" />
    <glyph glyph-name="uni067E.init2" horiz-adv-x="235" 
 />
    <glyph glyph-name="uni067E.medi2" horiz-adv-x="235" 
 />
    <glyph glyph-name="sennayehf" horiz-adv-x="845" 
d="M325 100q0 40 15.5 76t41.5 62t61.5 41.5t76.5 15.5h172l26 -112l26 -113h101v-70h-160l-24 113l-26 112h-115q-27 0 -50 -10.5t-39.5 -28t-26 -41t-9.5 -50.5h115q22 0 38.5 -16t16.5 -39v-20q0 -39 -14.5 -72.5t-39.5 -58.5t-58.5 -39.5t-72.5 -14.5h-130
q-39 0 -72.5 14.5t-58.5 39.5t-39.5 58.5t-14.5 72.5v120h70v-120q0 -24 9 -44.5t25 -36.5t36.5 -25t44.5 -9h130q24 0 45 9.5t36.5 26t24.5 38.5t9 46h-115q-23 0 -39 15.5t-16 39.5v20z" />
    <glyph glyph-name="yehyehf" horiz-adv-x="845" 
d="M251 -205l49 -45l-49 -45l-50 45zM371 -205l49 -45l-49 -45l-50 45zM671 -55l49 -50l-49 -49l-50 49zM671 -155l49 -50l-49 -49l-50 49zM325 100q0 40 15.5 76t41.5 62t61.5 41.5t76.5 15.5h172l26 -112l26 -113h101v-70h-160l-24 113l-26 112h-115q-27 0 -50 -10.5
t-39.5 -28t-26 -41t-9.5 -50.5h115q22 0 38.5 -16t16.5 -39v-20q0 -39 -14.5 -72.5t-39.5 -58.5t-58.5 -39.5t-72.5 -14.5h-130q-39 0 -72.5 14.5t-58.5 39.5t-39.5 58.5t-14.5 72.5v120h70v-120q0 -24 9 -44.5t25 -36.5t36.5 -25t44.5 -9h130q24 0 45 9.5t36.5 26
t24.5 38.5t9 46h-115q-23 0 -39 15.5t-16 39.5v20z" />
    <glyph glyph-name="uni067Eyehf" horiz-adv-x="845" 
d="M251 -205l49 -45l-49 -45l-50 45zM371 -205l49 -45l-49 -45l-50 45zM667 -55l49 -50l-49 -49l-50 49zM612 -155l49 -50l-49 -49l-50 49zM732 -155l49 -50l-49 -49l-50 49zM325 100q0 40 15.5 76t41.5 62t61.5 41.5t76.5 15.5h172l26 -112l26 -113h101v-70h-160l-24 113
l-26 112h-115q-27 0 -50 -10.5t-39.5 -28t-26 -41t-9.5 -50.5h115q22 0 38.5 -16t16.5 -39v-20q0 -39 -14.5 -72.5t-39.5 -58.5t-58.5 -39.5t-72.5 -14.5h-130q-39 0 -72.5 14.5t-58.5 39.5t-39.5 58.5t-14.5 72.5v120h70v-120q0 -24 9 -44.5t25 -36.5t36.5 -25t44.5 -9h130
q24 0 45 9.5t36.5 26t24.5 38.5t9 46h-115q-23 0 -39 15.5t-16 39.5v20z" />
    <glyph glyph-name="behyehhmzf" horiz-adv-x="845" 
d="M670 -105l49 -50l-49 -49l-50 49zM167 352q-5 -8 -9.5 -14t-9.5 -14q-6 5 -17 9.5t-22 4.5q-19 0 -19 -14q0 -11 12.5 -24t32.5 -19h37v-41h-124v41h29q-26 24 -26 52q0 17 13 28.5t35 11.5q16 0 33.5 -5.5t34.5 -15.5zM325 100q0 40 15.5 76t41.5 62t61.5 41.5
t76.5 15.5h172l26 -112l26 -113h101v-70h-160l-25 113l-25 112h-115q-27 0 -50 -10.5t-39.5 -28t-26 -41t-9.5 -50.5h115q22 0 38.5 -16t16.5 -39v-20q0 -39 -14.5 -72.5t-39.5 -58.5t-58.5 -39.5t-72.5 -14.5h-130q-39 0 -72.5 14.5t-58.5 39.5t-39.5 58.5t-14.5 72.5v120
h70v-120q0 -24 9 -44.5t25 -36.5t36.5 -25t44.5 -9h130q24 0 45 9.5t36.5 26t24.5 38.5t9 46h-115q-23 0 -39 15.5t-16 39.5v20z" />
    <glyph glyph-name="yehyehhmzf" horiz-adv-x="845" 
d="M671 -55l49 -50l-49 -49l-50 49zM671 -155l49 -50l-49 -49l-50 49zM167 352q-5 -8 -9.5 -14t-9.5 -14q-6 5 -17 9.5t-22 4.5q-19 0 -19 -14q0 -11 12.5 -24t32.5 -19h37v-41h-124v41h29q-26 24 -26 52q0 17 13 28.5t35 11.5q16 0 33.5 -5.5t34.5 -15.5zM325 100
q0 40 15.5 76t41.5 62t61.5 41.5t76.5 15.5h172l26 -112l26 -113h101v-70h-160l-25 113l-25 112h-115q-27 0 -50 -10.5t-39.5 -28t-26 -41t-9.5 -50.5h115q22 0 38.5 -16t16.5 -39v-20q0 -39 -14.5 -72.5t-39.5 -58.5t-58.5 -39.5t-72.5 -14.5h-130q-39 0 -72.5 14.5
t-58.5 39.5t-39.5 58.5t-14.5 72.5v120h70v-120q0 -24 9 -44.5t25 -36.5t36.5 -25t44.5 -9h130q24 0 45 9.5t36.5 26t24.5 38.5t9 46h-115q-23 0 -39 15.5t-16 39.5v20z" />
    <glyph glyph-name="uni067Eyehhmzf" horiz-adv-x="845" 
d="M667 -55l49 -50l-49 -49l-50 49zM612 -155l49 -50l-49 -49l-50 49zM732 -155l49 -50l-49 -49l-50 49zM167 352q-5 -8 -9.5 -14t-9.5 -14q-6 5 -17 9.5t-22 4.5q-19 0 -19 -14q0 -11 12.5 -24t32.5 -19h37v-41h-124v41h29q-26 24 -26 52q0 17 13 28.5t35 11.5
q16 0 33.5 -5.5t34.5 -15.5zM325 100q0 40 15.5 76t41.5 62t61.5 41.5t76.5 15.5h172l26 -112l26 -113h101v-70h-160l-25 113l-25 112h-115q-27 0 -50 -10.5t-39.5 -28t-26 -41t-9.5 -50.5h115q22 0 38.5 -16t16.5 -39v-20q0 -39 -14.5 -72.5t-39.5 -58.5t-58.5 -39.5
t-72.5 -14.5h-130q-39 0 -72.5 14.5t-58.5 39.5t-39.5 58.5t-14.5 72.5v120h70v-120q0 -24 9 -44.5t25 -36.5t36.5 -25t44.5 -9h130q24 0 45 9.5t36.5 26t24.5 38.5t9 46h-115q-23 0 -39 15.5t-16 39.5v20z" />
    <glyph glyph-name="yehmaksuraf" horiz-adv-x="845" 
d="M631 -55l49 -50l-49 -49l-50 49zM751 -55l49 -50l-49 -49l-50 49zM325 100q0 40 15.5 76t41.5 62t61.5 41.5t76.5 15.5h172l26 -112l26 -113h101v-70h-160l-24 113l-26 112h-115q-27 0 -50 -10.5t-39.5 -28t-26 -41t-9.5 -50.5h115q22 0 38.5 -16t16.5 -39v-20
q0 -39 -14.5 -72.5t-39.5 -58.5t-58.5 -39.5t-72.5 -14.5h-130q-39 0 -72.5 14.5t-58.5 39.5t-39.5 58.5t-14.5 72.5v120h70v-120q0 -24 9 -44.5t25 -36.5t36.5 -25t44.5 -9h130q24 0 45 9.5t36.5 26t24.5 38.5t9 46h-115q-23 0 -39 15.5t-16 39.5v20z" />
    <glyph glyph-name="sheen2maksura" horiz-adv-x="1220" 
d="M906 575l49 -50l-49 -49l-50 49zM851 475l49 -50l-49 -49l-50 49zM971 475l49 -50l-49 -49l-50 49zM914 -135l49 -50l-49 -49l-50 49zM849 -45l49 -50l-49 -49l-50 49zM969 -45l49 -50l-49 -49l-50 49zM325 110q0 40 15.5 76t41.5 62t61.5 41.5t76.5 15.5h215v-220
q0 -6 4.5 -10.5t10.5 -4.5h125v240h70v-240h125q6 0 10.5 4.5t4.5 10.5v225h70v-225q0 -35 -25 -60t-60 -25h-320q-35 0 -60 25t-25 60v150h-145q-27 0 -50 -10.5t-39.5 -28.5t-26 -41.5t-9.5 -49.5h115q23 0 39 -16t16 -39v-30q0 -39 -14.5 -72.5t-39.5 -58.5t-58.5 -39.5
t-72.5 -14.5h-130q-39 0 -72.5 14.5t-58.5 39.5t-39.5 58.5t-14.5 72.5v120h70v-120q0 -24 9 -44.5t25 -36.5t36.5 -25t44.5 -9h130q24 0 44.5 9t36.5 25t25 36.5t9 44.5v15h-115q-23 0 -39 16t-16 39v20z" />
    <glyph glyph-name="sheen2maksuraf" horiz-adv-x="1260" 
d="M906 575l49 -50l-49 -49l-50 49zM851 475l49 -50l-49 -49l-50 49zM971 475l49 -50l-49 -49l-50 49zM914 -135l49 -50l-49 -49l-50 49zM849 -45l49 -50l-49 -49l-50 49zM969 -45l49 -50l-49 -49l-50 49zM325 110q0 40 15.5 76t41.5 62t61.5 41.5t76.5 15.5h215v-220
q0 -6 4.5 -10.5t10.5 -4.5h125v240h70v-240h140v240h70v-240h105v-70h-510q-35 0 -60 25t-25 60v150h-145q-27 0 -50 -10.5t-39.5 -28.5t-26 -41.5t-9.5 -49.5h115q23 0 39 -16t16 -39v-30q0 -39 -14.5 -72.5t-39.5 -58.5t-58.5 -39.5t-72.5 -14.5h-130q-39 0 -72.5 14.5
t-58.5 39.5t-39.5 58.5t-14.5 72.5v120h70v-120q0 -24 9 -44.5t25 -36.5t36.5 -25t44.5 -9h130q24 0 44.5 9t36.5 25t25 36.5t9 44.5v15h-115q-23 0 -39 16t-16 39v20z" />
    <glyph glyph-name="sheen2yeh" horiz-adv-x="1220" 
d="M251 -205l49 -45l-49 -45l-50 45zM371 -205l49 -45l-49 -45l-50 45zM906 575l49 -50l-49 -49l-50 49zM851 475l49 -50l-49 -49l-50 49zM971 475l49 -50l-49 -49l-50 49zM914 -135l49 -50l-49 -49l-50 49zM849 -45l49 -50l-49 -49l-50 49zM969 -45l49 -50l-49 -49l-50 49z
M325 110q0 40 15.5 76t41.5 62t61.5 41.5t76.5 15.5h215v-220q0 -6 4.5 -10.5t10.5 -4.5h125v240h70v-240h125q6 0 10.5 4.5t4.5 10.5v225h70v-225q0 -35 -25 -60t-60 -25h-320q-35 0 -60 25t-25 60v150h-145q-27 0 -50 -10.5t-39.5 -28.5t-26 -41.5t-9.5 -49.5h115
q23 0 39 -16t16 -39v-30q0 -39 -14.5 -72.5t-39.5 -58.5t-58.5 -39.5t-72.5 -14.5h-130q-39 0 -72.5 14.5t-58.5 39.5t-39.5 58.5t-14.5 72.5v120h70v-120q0 -24 9 -44.5t25 -36.5t36.5 -25t44.5 -9h130q24 0 44.5 9t36.5 25t25 36.5t9 44.5v15h-115q-23 0 -39 16t-16 39v20
z" />
    <glyph glyph-name="sheen2yehf" horiz-adv-x="1260" 
d="M251 -205l49 -45l-49 -45l-50 45zM371 -205l49 -45l-49 -45l-50 45zM906 575l49 -50l-49 -49l-50 49zM851 475l49 -50l-49 -49l-50 49zM971 475l49 -50l-49 -49l-50 49zM914 -135l49 -50l-49 -49l-50 49zM849 -45l49 -50l-49 -49l-50 49zM969 -45l49 -50l-49 -49l-50 49z
M325 110q0 40 15.5 76t41.5 62t61.5 41.5t76.5 15.5h215v-220q0 -6 4.5 -10.5t10.5 -4.5h125v240h70v-240h140v240h70v-240h105v-70h-510q-35 0 -60 25t-25 60v150h-145q-27 0 -50 -10.5t-39.5 -28.5t-26 -41.5t-9.5 -49.5h115q23 0 39 -16t16 -39v-30q0 -39 -14.5 -72.5
t-39.5 -58.5t-58.5 -39.5t-72.5 -14.5h-130q-39 0 -72.5 14.5t-58.5 39.5t-39.5 58.5t-14.5 72.5v120h70v-120q0 -24 9 -44.5t25 -36.5t36.5 -25t44.5 -9h130q24 0 44.5 9t36.5 25t25 36.5t9 44.5v15h-115q-23 0 -39 16t-16 39v20z" />
    <glyph glyph-name="sheen2yehhmz" horiz-adv-x="1220" 
d="M906 575l49 -50l-49 -49l-50 49zM851 475l49 -50l-49 -49l-50 49zM971 475l49 -50l-49 -49l-50 49zM914 -135l49 -50l-49 -49l-50 49zM849 -45l49 -50l-49 -49l-50 49zM969 -45l49 -50l-49 -49l-50 49zM167 352q-5 -8 -9.5 -14t-9.5 -14q-6 5 -17 9.5t-22 4.5
q-19 0 -19 -14q0 -11 12.5 -24t32.5 -19h37v-41h-124v41h29q-26 24 -26 52q0 17 13 28.5t35 11.5q16 0 33.5 -5.5t34.5 -15.5zM325 110q0 40 15.5 76t41.5 62t61.5 41.5t76.5 15.5h215v-220q0 -6 4.5 -10.5t10.5 -4.5h125v240h70v-240h125q6 0 10.5 4.5t4.5 10.5v225h70
v-225q0 -35 -25 -60t-60 -25h-320q-35 0 -60 25t-25 60v150h-145q-27 0 -50 -10.5t-39.5 -28.5t-26 -41.5t-9.5 -49.5h115q23 0 39 -16t16 -39v-30q0 -39 -14.5 -72.5t-39.5 -58.5t-58.5 -39.5t-72.5 -14.5h-130q-39 0 -72.5 14.5t-58.5 39.5t-39.5 58.5t-14.5 72.5v120h70
v-120q0 -24 9 -44.5t25 -36.5t36.5 -25t44.5 -9h130q24 0 44.5 9t36.5 25t25 36.5t9 44.5v15h-115q-23 0 -39 16t-16 39v20z" />
    <glyph glyph-name="sheen2yehhmzf" horiz-adv-x="1260" 
d="M906 575l49 -50l-49 -49l-50 49zM851 475l49 -50l-49 -49l-50 49zM971 475l49 -50l-49 -49l-50 49zM914 -135l49 -50l-49 -49l-50 49zM849 -45l49 -50l-49 -49l-50 49zM969 -45l49 -50l-49 -49l-50 49zM167 352q-5 -8 -9.5 -14t-9.5 -14q-6 5 -17 9.5t-22 4.5
q-19 0 -19 -14q0 -11 12.5 -24t32.5 -19h37v-41h-124v41h29q-26 24 -26 52q0 17 13 28.5t35 11.5q16 0 33.5 -5.5t34.5 -15.5zM325 110q0 40 15.5 76t41.5 62t61.5 41.5t76.5 15.5h215v-220q0 -6 4.5 -10.5t10.5 -4.5h125v240h70v-240h140v240h70v-240h105v-70h-510
q-35 0 -60 25t-25 60v150h-145q-27 0 -50 -10.5t-39.5 -28.5t-26 -41.5t-9.5 -49.5h115q23 0 39 -16t16 -39v-30q0 -39 -14.5 -72.5t-39.5 -58.5t-58.5 -39.5t-72.5 -14.5h-130q-39 0 -72.5 14.5t-58.5 39.5t-39.5 58.5t-14.5 72.5v120h70v-120q0 -24 9 -44.5t25 -36.5
t36.5 -25t44.5 -9h130q24 0 44.5 9t36.5 25t25 36.5t9 44.5v15h-115q-23 0 -39 16t-16 39v20z" />
    <glyph glyph-name="uni067Emaksuraf" horiz-adv-x="845" 
d="M667 -55l49 -50l-49 -49l-50 49zM612 -155l49 -50l-49 -49l-50 49zM732 -155l49 -50l-49 -49l-50 49zM325 100q0 40 15.5 76t41.5 62t61.5 41.5t76.5 15.5h172l26 -112l26 -113h101v-70h-160l-24 113l-26 112h-115q-27 0 -50 -10.5t-39.5 -28t-26 -41t-9.5 -50.5h115
q22 0 38.5 -16t16.5 -39v-20q0 -39 -14.5 -72.5t-39.5 -58.5t-58.5 -39.5t-72.5 -14.5h-130q-39 0 -72.5 14.5t-58.5 39.5t-39.5 58.5t-14.5 72.5v120h70v-120q0 -24 9 -44.5t25 -36.5t36.5 -25t44.5 -9h130q24 0 45 9.5t36.5 26t24.5 38.5t9 46h-115q-23 0 -39 15.5
t-16 39.5v20z" />
    <glyph glyph-name="yehn3" horiz-adv-x="350" 
 />
    <glyph glyph-name="uni067En3" horiz-adv-x="350" 
 />
    <glyph glyph-name="sennan3" horiz-adv-x="265" 
 />
    <glyph glyph-name="k2" 
d="M-60 -203h120v-33h-120v33z" />
    <glyph glyph-name="lam2" horiz-adv-x="460" 
 />
    <glyph glyph-name="lamms" horiz-adv-x="250" 
 />
    <glyph glyph-name="tat40" horiz-adv-x="40" 
d="M-30 40q0 13 8.5 21.5t21.5 8.5h40v-70h-40q-17 0 -23.5 11.5t-6.5 28.5z" />
    <glyph glyph-name="maksuraf2" horiz-adv-x="670" 
d="M475 -110q11 0 18 7t7 17t-12 22l-160 163l49 49l77 -78h216v-70h-146l14 -15q17 -17 24.5 -35t7.5 -36q0 -38 -27 -66t-68 -28h-225q-38 0 -72 14.5t-59 39.5t-39.5 59t-14.5 72v125h70v-125q0 -24 9 -44.5t25 -36.5t36.5 -25t44.5 -9h225z" />
    <glyph glyph-name="yehhmzf2" horiz-adv-x="670" 
d="M167 352q-5 -8 -9.5 -14t-9.5 -14q-6 5 -17 9.5t-22 4.5q-19 0 -19 -14q0 -11 12.5 -24t32.5 -19h37v-41h-124v41h29q-26 24 -26 52q0 17 13 28.5t35 11.5q16 0 33.5 -5.5t34.5 -15.5zM475 -110q11 0 18 7t7 17t-12 22l-160 163l49 49l77 -78h216v-70h-146l14 -15
q17 -17 24.5 -35t7.5 -36q0 -38 -27 -66t-68 -28h-225q-38 0 -72 14.5t-59 39.5t-39.5 59t-14.5 72v125h70v-125q0 -24 9 -44.5t25 -36.5t36.5 -25t44.5 -9h225z" />
    <glyph glyph-name="yehf2" horiz-adv-x="670" 
d="M276 -220l49 -45l-49 -45l-50 45zM396 -220l49 -45l-49 -45l-50 45zM475 -110q11 0 18 7t7 17t-12 22l-160 163l49 49l77 -78h216v-70h-146l14 -15q17 -17 24.5 -35t7.5 -36q0 -38 -27 -66t-68 -28h-225q-38 0 -72 14.5t-59 39.5t-39.5 59t-14.5 72v125h70v-125
q0 -24 9 -44.5t25 -36.5t36.5 -25t44.5 -9h225z" />
    <glyph glyph-name="uni06CC.fina2" horiz-adv-x="670" 
d="M475 -110q11 0 18 7t7 17t-12 22l-160 163l49 49l77 -78h216v-70h-146l14 -15q17 -17 24.5 -35t7.5 -36q0 -38 -27 -66t-68 -28h-225q-38 0 -72 14.5t-59 39.5t-39.5 59t-14.5 72v125h70v-125q0 -24 9 -44.5t25 -36.5t36.5 -25t44.5 -9h225z" />
    <glyph glyph-name="tat200" horiz-adv-x="100" 
d="M-30 40q0 13 8.5 21.5t21.5 8.5h100v-70h-100q-13 0 -21.5 8.5t-8.5 21.5v10z" />
    <glyph glyph-name="lamn2" horiz-adv-x="215" 
d="M85 540h70v-540h-155q-13 0 -21.5 8.5t-8.5 21.5v10q0 13 8.5 21.5t21.5 8.5h85v470z" />
    <glyph glyph-name="hehm2" horiz-adv-x="434" 
d="M-30 40q0 13 8.5 21.5t21.5 8.5h70q4 40 19.5 80t42.5 77t65.5 69t89.5 56q14 -38 21.5 -78t7.5 -78q0 -37 -8 -69t-27.5 -57t-51 -42t-78.5 -24q5 -23 17.5 -50t30.5 -48q14 77 68.5 120.5t131.5 43.5h35v-70h-34q-27 0 -51.5 -7t-43.5 -21t-30.5 -34.5t-11.5 -47.5
q0 -20 7 -40l-57 -62q-54 48 -88 102.5t-48 109.5h-77q-13 0 -21.5 8.5t-8.5 21.5v10zM245 249q-54 -40 -78.5 -86.5t-25.5 -93.5q33 6 54.5 17.5t34 28t17.5 36.5t5 43q0 15 -2 30t-5 25z" />
    <glyph glyph-name="radey" horiz-adv-x="1128" 
d="M1063 -55v-30h-510q-23 0 -31.5 10.5t-8.5 27.5q0 9 5 22l26 73q5 14 18 23t29 9h77v-135h120v135h30v-135h138q-17 17 -27.5 39t-10.5 42q0 27 17 45.5t55 18.5q17 0 34 -6t33 -16l-9 -29q-14 10 -29 15.5t-29 5.5q-22 0 -32 -10t-10 -24q0 -11 5.5 -24t14.5 -24.5
t20.5 -20.5t24.5 -12h50zM110 266q-23 0 -31.5 10.5t-8.5 27.5q0 9 5 22l26 73q5 14 18 23t29 9h77v-135h80v200h30v-200h85v235h30v-265h-340zM638 -55v105h-47q-6 0 -11 -4t-7 -9l-27 -73q0 -2 -0.5 -2.5t-0.5 -1.5q-2 -6 -2 -7q0 -8 10 -8h85zM195 296v105h-47
q-6 0 -11 -4t-7 -9l-27 -73q0 -2 -0.5 -2.5t-0.5 -1.5q-2 -6 -2 -7q0 -8 10 -8h85zM555 536v-275h-30v275h30zM722 141l33 -33l-22 -22l-33 33zM961 179q0 -38 -17.5 -56.5t-48.5 -18.5q-12 0 -27 3.5t-32 9.5l11 28q14 -5 26 -8t21 -3q16 0 26.5 10t10.5 35v170h30v-170z
M707 428l33 -33l-22 -22l-33 33zM363 55h40v-30h-40v30zM413 55h40v-30h-40v30zM488 120q7 0 11 4.5t4 9.5q0 6 -7 13l-70 71l22 22l30 -30h145v135h30v-81l37 30q23 18 39 28.5t27.5 15.5t20 6t16.5 1q29 0 49.5 -20.5t20.5 -49.5v-55q0 -17 -11.5 -28.5t-28.5 -11.5h-315
l11 -12q8 -8 11 -18t3 -16q0 -18 -12.5 -31t-32.5 -13h-120q-38 0 -64 26t-26 64v50h30v-50q0 -25 17.5 -42.5t42.5 -17.5h120zM653 227v-17h170q10 0 10 10v55q0 16 -11.5 28t-28.5 12q-7 0 -13.5 -1t-15.5 -5.5t-22 -13.5t-33 -25z" />
    <glyph glyph-name="uni06C1.initup" horiz-adv-x="260" 
d="M118 0q-11 -14 -19.5 -34.5t-8.5 -40.5q0 -17 13 -33t48 -27l-12 -69q-61 16 -88 46.5t-27 68.5q0 22 7.5 44.5t21.5 44.5h-53q-13 0 -21.5 8.5t-8.5 21.5v10q0 12 8.5 21t21.5 9h125v250h70v-320h-77z" />
  </font>
</defs>
</svg>
