<?xml version="1.0" standalone="no"?>
<!DOCTYPE svg PUBLIC "-//W3C//DTD SVG 1.1//EN" "http://www.w3.org/Graphics/SVG/1.1/DTD/svg11.dtd" >
<svg>
<metadata>
Created by FontForge 20090622 at Mon Sep  3 11:25:44 2018
 By deploy user
Copyright (c) 2014 by AbdoFonts. All rights reserved.
</metadata>
<defs>
<font id="AbdoMaster-ExtraBold" horiz-adv-x="0" >
  <font-face 
    font-family="AbdoMaster-ExtraBold"
    font-weight="400"
    font-stretch="normal"
    units-per-em="700"
    panose-1="2 0 5 0 3 0 0 2 0 4"
    ascent="537"
    descent="-163"
    x-height="370"
    cap-height="530"
    bbox="-187 -508 1470 787"
    underline-thickness="55"
    underline-position="-46"
    unicode-range="U+0020-U+FEFA"
  />
<missing-glyph horiz-adv-x="592" 
d="M108 365h-21v-47h-37v146h95v-146h-37v47zM490 -40h-37v87h-21v-87h-37v87h-21v-87h-37v106h153v-106zM165 464h37v-40h58v-106h-95v146zM375 318h-95v106h58v40h37v-146zM490 318h-95v106h95v-106zM235 117h-95v106h95v-106zM317 -40h-95v106h95v-106zM350 117h-37v87
h-21v-87h-37v106h95v-106zM107 66h95v-34h-37v15h-21v-68h21v15h37v-34h-95v106zM484 204v-24h58v-63h-95v19h58v25h-58v62h95v-19h-58zM87 164v-47h-37v146h75v-19h-38v-61h38v-19h-38zM407 204v-87h-37v146h37v-40h25v-19h-25zM317 337h21v68h-21v-68zM177 136h21v68h-21
v-68zM202 337h21v68h-21v-68zM259 -21h21v68h-21v-68zM432 337h21v68h-21v-68zM87 384h21v61h-21v-61zM87 -40h-37v29h37v-29z" />
    <glyph glyph-name="hmzyehf" unicode="&#xfe8c;&#xfef2;" horiz-adv-x="840" arabic-form="final" 
d="M320 -255q0 17 16 29t39 12t39 -12t16 -29t-16 -28.5t-39 -12t-39 11.5t-16 29zM190 -255q0 17 16 29t39 12t39 -12t16 -29t-16 -28.5t-39 -12t-39 11.5t-16 29zM602 476q-5 4 -12.5 6.5t-14.5 2.5q-8 0 -13.5 -4t-5.5 -14q0 -8 7 -15t21 -7h38v-45h-124v45h24
q-14 12 -14 31q0 23 18 36t42 13q14 0 28.5 -5.5t24.5 -13.5zM626 205h-146q-23 0 -41.5 -14t-18.5 -41v-5h70q33 0 56.5 -23.5t23.5 -56.5v-40q0 -37 -14 -70t-38.5 -57.5t-57.5 -38.5t-70 -14h-160q-37 0 -70 14t-57.5 38.5t-38.5 57.5t-14 70v120q0 8 6 14t14 6h80
q8 0 14 -6t6 -14v-104q0 -30 13.5 -53t46.5 -23h143q13 0 26.5 3.5t24.5 11t18.5 19t7.5 26.5h-90q-25 0 -42.5 17.5t-17.5 42.5v47q0 44 15 79t41.5 59t61.5 37t75 13h212q19 0 24 -20l39 -180h72v-120h-149q-19 0 -24 20z" />
    <glyph glyph-name="hmzmaksuraf" unicode="&#xfe8c;&#xfef0;" horiz-adv-x="840" arabic-form="final" 
d="M602 476q-5 4 -12.5 6.5t-14.5 2.5q-8 0 -13.5 -4t-5.5 -14q0 -8 7 -15t21 -7h38v-45h-124v45h24q-14 12 -14 31q0 23 18 36t42 13q14 0 28.5 -5.5t24.5 -13.5zM626 205h-146q-23 0 -41.5 -14t-18.5 -41v-5h70q33 0 56.5 -23.5t23.5 -56.5v-40q0 -37 -14 -70t-38.5 -57.5
t-57.5 -38.5t-70 -14h-160q-37 0 -70 14t-57.5 38.5t-38.5 57.5t-14 70v120q0 8 6 14t14 6h80q8 0 14 -6t6 -14v-104q0 -30 13.5 -53t46.5 -23h143q13 0 26.5 3.5t24.5 11t18.5 19t7.5 26.5h-90q-25 0 -42.5 17.5t-17.5 42.5v47q0 44 15 79t41.5 59t61.5 37t75 13h212
q19 0 24 -20l39 -180h72v-120h-149q-19 0 -24 20z" />
    <glyph glyph-name="tehmaksuraf" unicode="&#xfe98;&#xfef0;" horiz-adv-x="840" arabic-form="final" 
d="M570 440q0 19 16 32t39 13t39 -13t16 -32t-16 -32t-39 -13t-39 13t-16 32zM440 440q0 19 16 32t39 13t39 -13t16 -32t-16 -32t-39 -13t-39 13t-16 32zM626 205h-146q-23 0 -41.5 -14t-18.5 -41v-5h70q33 0 56.5 -23.5t23.5 -56.5v-40q0 -37 -14 -70t-38.5 -57.5
t-57.5 -38.5t-70 -14h-160q-37 0 -70 14t-57.5 38.5t-38.5 57.5t-14 70v120q0 8 6 14t14 6h80q8 0 14 -6t6 -14v-104q0 -30 13.5 -53t46.5 -23h143q13 0 26.5 3.5t24.5 11t18.5 19t7.5 26.5h-90q-25 0 -42.5 17.5t-17.5 42.5v47q0 44 15 79t41.5 59t61.5 37t75 13h212
q19 0 24 -20l39 -180h72v-120h-149q-19 0 -24 20z" />
    <glyph glyph-name="tehyehf" unicode="&#xfe98;&#xfef2;" horiz-adv-x="840" arabic-form="final" 
d="M570 440q0 19 16 32t39 13t39 -13t16 -32t-16 -32t-39 -13t-39 13t-16 32zM440 440q0 19 16 32t39 13t39 -13t16 -32t-16 -32t-39 -13t-39 13t-16 32zM320 -255q0 17 16 28.5t39 11.5t39 -11.5t16 -28.5t-16 -29t-39 -12t-39 12t-16 29zM190 -255q0 17 16 28.5t39 11.5
t39 -11.5t16 -28.5t-16 -29t-39 -12t-39 12t-16 29zM626 205h-146q-23 0 -41.5 -14t-18.5 -41v-5h70q33 0 56.5 -23.5t23.5 -56.5v-40q0 -37 -14 -70t-38.5 -57.5t-57.5 -38.5t-70 -14h-160q-37 0 -70 14t-57.5 38.5t-38.5 57.5t-14 70v120q0 8 6 14t14 6h80q8 0 14 -6
t6 -14v-104q0 -30 13.5 -53t46.5 -23h143q13 0 26.5 3.5t24.5 11t18.5 19t7.5 26.5h-90q-25 0 -42.5 17.5t-17.5 42.5v47q0 44 15 79t41.5 59t61.5 37t75 13h212q19 0 24 -20l39 -180h72v-120h-149q-19 0 -24 20z" />
    <glyph glyph-name="thehmaksuraf" unicode="&#xfe9c;&#xfef0;" horiz-adv-x="840" arabic-form="final" 
d="M440 425q0 19 16 32t39 13t39 -13t16 -32t-16 -32t-39 -13t-39 13t-16 32zM570 425q0 19 16 32t39 13t39 -13t16 -32t-16 -32t-39 -13t-39 13t-16 32zM505 525q0 19 16 32t39 13t39 -13t16 -32t-16 -32t-39 -13t-39 13t-16 32zM626 205h-146q-23 0 -41.5 -14t-18.5 -41
v-5h70q33 0 56.5 -23.5t23.5 -56.5v-40q0 -37 -14 -70t-38.5 -57.5t-57.5 -38.5t-70 -14h-160q-37 0 -70 14t-57.5 38.5t-38.5 57.5t-14 70v120q0 8 6 14t14 6h80q8 0 14 -6t6 -14v-104q0 -30 13.5 -53t46.5 -23h143q13 0 26.5 3.5t24.5 11t18.5 19t7.5 26.5h-90
q-25 0 -42.5 17.5t-17.5 42.5v47q0 44 15 79t41.5 59t61.5 37t75 13h212q19 0 24 -20l39 -180h72v-120h-149q-19 0 -24 20z" />
    <glyph glyph-name="thehyehf" unicode="&#xfe9c;&#xfef2;" horiz-adv-x="840" arabic-form="final" 
d="M320 -255q0 17 16 29t39 12t39 -12t16 -29t-16 -28.5t-39 -12t-39 11.5t-16 29zM190 -255q0 17 16 29t39 12t39 -12t16 -29t-16 -28.5t-39 -12t-39 11.5t-16 29zM440 425q0 19 16 32t39 13t39 -13t16 -32t-16 -32t-39 -13t-39 13t-16 32zM570 425q0 19 16 32t39 13
t39 -13t16 -32t-16 -32t-39 -13t-39 13t-16 32zM505 525q0 19 16 32t39 13t39 -13t16 -32t-16 -32t-39 -13t-39 13t-16 32zM626 205h-146q-23 0 -41.5 -14t-18.5 -41v-5h70q33 0 56.5 -23.5t23.5 -56.5v-40q0 -37 -14 -70t-38.5 -57.5t-57.5 -38.5t-70 -14h-160
q-37 0 -70 14t-57.5 38.5t-38.5 57.5t-14 70v120q0 8 6 14t14 6h80q8 0 14 -6t6 -14v-104q0 -30 13.5 -53t46.5 -23h143q13 0 26.5 3.5t24.5 11t18.5 19t7.5 26.5h-90q-25 0 -42.5 17.5t-17.5 42.5v47q0 44 15 79t41.5 59t61.5 37t75 13h212q19 0 24 -20l39 -180h72v-120
h-149q-19 0 -24 20z" />
    <glyph glyph-name="seenmaksura" unicode="&#xfeb3;&#xfef0;" horiz-adv-x="1220" arabic-form="isolated" 
d="M480 205q-23 0 -41.5 -14t-18.5 -41v-5h70q39 0 59.5 -28.5t20.5 -66.5v-25q0 -37 -14 -70t-38.5 -57.5t-57.5 -38.5t-70 -14h-160q-37 0 -70 14t-57.5 38.5t-38.5 57.5t-14 70v120q0 8 6 14t14 6h80q8 0 14 -6t6 -14v-104q0 -30 13.5 -53t46.5 -23h143q13 0 26.5 3.5
t24.5 11t18.5 19t7.5 26.5h-90q-25 0 -42.5 17.5t-17.5 42.5v47q0 44 15 79t41.5 59t61.5 37t75 13h257q8 0 14 -6t6 -14v-180h80v180q0 8 6 14t14 6h80q8 0 14 -6t6 -14v-180h80v180q0 8 6 14t14 6h80q8 0 14 -6t6 -14v-220q0 -33 -23.5 -56.5t-56.5 -23.5h-360
q-33 0 -56.5 23.5t-23.5 56.5v125h-170z" />
    <glyph glyph-name="seenyeh" unicode="&#xfeb3;&#xfef2;" horiz-adv-x="1220" arabic-form="isolated" 
d="M320 -245q0 17 16 29t39 12t39 -12t16 -29t-16 -28.5t-39 -12t-39 11.5t-16 29zM190 -245q0 17 16 29t39 12t39 -12t16 -29t-16 -28.5t-39 -12t-39 11.5t-16 29zM480 205q-23 0 -41.5 -14t-18.5 -41v-5h70q39 0 59.5 -28.5t20.5 -66.5v-25q0 -37 -14 -70t-38.5 -57.5
t-57.5 -38.5t-70 -14h-160q-37 0 -70 14t-57.5 38.5t-38.5 57.5t-14 70v120q0 8 6 14t14 6h80q8 0 14 -6t6 -14v-104q0 -30 13.5 -53t46.5 -23h143q13 0 26.5 3.5t24.5 11t18.5 19t7.5 26.5h-90q-25 0 -42.5 17.5t-17.5 42.5v47q0 44 15 79t41.5 59t61.5 37t75 13h257
q8 0 14 -6t6 -14v-180h80v180q0 8 6 14t14 6h80q8 0 14 -6t6 -14v-180h80v180q0 8 6 14t14 6h80q8 0 14 -6t6 -14v-220q0 -33 -23.5 -56.5t-56.5 -23.5h-360q-33 0 -56.5 23.5t-23.5 56.5v125h-170z" />
    <glyph glyph-name="sheenmaksura" unicode="&#xfeb7;&#xfef0;" horiz-adv-x="1220" arabic-form="isolated" 
d="M790 425q0 19 16 32t39 13t39 -13t16 -32t-16 -32t-39 -13t-39 13t-16 32zM920 425q0 19 16 32t39 13t39 -13t16 -32t-16 -32t-39 -13t-39 13t-16 32zM855 525q0 19 16 32t39 13t39 -13t16 -32t-16 -32t-39 -13t-39 13t-16 32zM480 205q-23 0 -41.5 -14t-18.5 -41v-5h70
q39 0 59.5 -28.5t20.5 -66.5v-25q0 -37 -14 -70t-38.5 -57.5t-57.5 -38.5t-70 -14h-160q-37 0 -70 14t-57.5 38.5t-38.5 57.5t-14 70v120q0 8 6 14t14 6h80q8 0 14 -6t6 -14v-104q0 -30 13.5 -53t46.5 -23h143q13 0 26.5 3.5t24.5 11t18.5 19t7.5 26.5h-90q-25 0 -42.5 17.5
t-17.5 42.5v47q0 44 15 79t41.5 59t61.5 37t75 13h257q8 0 14 -6t6 -14v-180h80v180q0 8 6 14t14 6h80q8 0 14 -6t6 -14v-180h80v180q0 8 6 14t14 6h80q8 0 14 -6t6 -14v-220q0 -33 -23.5 -56.5t-56.5 -23.5h-360q-33 0 -56.5 23.5t-23.5 56.5v125h-170z" />
    <glyph glyph-name="sheenyeh" unicode="&#xfeb7;&#xfef2;" horiz-adv-x="1220" arabic-form="isolated" 
d="M320 -245q0 17 16 29t39 12t39 -12t16 -29t-16 -28.5t-39 -12t-39 11.5t-16 29zM190 -245q0 17 16 29t39 12t39 -12t16 -29t-16 -28.5t-39 -12t-39 11.5t-16 29zM790 425q0 19 16 32t39 13t39 -13t16 -32t-16 -32t-39 -13t-39 13t-16 32zM920 425q0 19 16 32t39 13
t39 -13t16 -32t-16 -32t-39 -13t-39 13t-16 32zM855 525q0 19 16 32t39 13t39 -13t16 -32t-16 -32t-39 -13t-39 13t-16 32zM480 205q-23 0 -41.5 -14t-18.5 -41v-5h70q39 0 59.5 -28.5t20.5 -66.5v-25q0 -37 -14 -70t-38.5 -57.5t-57.5 -38.5t-70 -14h-160q-37 0 -70 14
t-57.5 38.5t-38.5 57.5t-14 70v120q0 8 6 14t14 6h80q8 0 14 -6t6 -14v-104q0 -30 13.5 -53t46.5 -23h143q13 0 26.5 3.5t24.5 11t18.5 19t7.5 26.5h-90q-25 0 -42.5 17.5t-17.5 42.5v47q0 44 15 79t41.5 59t61.5 37t75 13h257q8 0 14 -6t6 -14v-180h80v180q0 8 6 14t14 6
h80q8 0 14 -6t6 -14v-180h80v180q0 8 6 14t14 6h80q8 0 14 -6t6 -14v-220q0 -33 -23.5 -56.5t-56.5 -23.5h-360q-33 0 -56.5 23.5t-23.5 56.5v125h-170z" />
    <glyph glyph-name="sadmaksura" unicode="&#xfebb;&#xfef0;" horiz-adv-x="1220" arabic-form="isolated" 
d="M480 205q-23 0 -41.5 -14t-18.5 -41v-5h70q33 0 56.5 -23.5t23.5 -56.5v-40q0 -37 -14 -70t-38.5 -57.5t-57.5 -38.5t-70 -14h-160q-37 0 -70 14t-57.5 38.5t-38.5 57.5t-14 70v120q0 8 6 14t14 6h80q8 0 14 -6t6 -14v-120q0 -31 23.5 -45.5t53.5 -14.5h143q22 0 41 18
t19 42h-90q-24 0 -42 17.5t-18 42.5v47q0 44 15 79t41.5 59t61.5 37t75 13h212q19 0 24 -20l24 -116l112 116q30 30 75 30h150q33 0 56.5 -23.5t23.5 -56.5v-170q0 -33 -23.5 -56.5t-56.5 -23.5h-399q-19 0 -24 20l-21 92l-20 93h-146zM837 120h213v90h-117z" />
    <glyph glyph-name="sadyeh" unicode="&#xfebb;&#xfef2;" horiz-adv-x="1220" arabic-form="isolated" 
d="M320 -244q0 17 16 29t39 12t39 -12t16 -29t-16 -28.5t-39 -11.5t-39 11.5t-16 28.5zM190 -244q0 17 16 29t39 12t39 -12t16 -29t-16 -28.5t-39 -11.5t-39 11.5t-16 28.5zM480 205q-23 0 -41.5 -14t-18.5 -41v-5h70q33 0 56.5 -23.5t23.5 -56.5v-40q0 -37 -14 -70
t-38.5 -57.5t-57.5 -38.5t-70 -14h-160q-37 0 -70 14t-57.5 38.5t-38.5 57.5t-14 70v120q0 8 6 14t14 6h80q8 0 14 -6t6 -14v-120q0 -31 23.5 -45.5t53.5 -14.5h143q22 0 41 18t19 42h-90q-24 0 -42 17.5t-18 42.5v47q0 44 15 79t41.5 59t61.5 37t75 13h212q19 0 24 -20
l24 -116l112 116q30 30 75 30h150q33 0 56.5 -23.5t23.5 -56.5v-170q0 -33 -23.5 -56.5t-56.5 -23.5h-399q-19 0 -24 20l-21 92l-20 93h-146zM837 120h213v90h-117z" />
    <glyph glyph-name="dadmaksura" unicode="&#xfebf;&#xfef0;" horiz-adv-x="1220" arabic-form="isolated" 
d="M825 445q0 19 16 32t39 13t39 -13t16 -32t-16 -32t-39 -13t-39 13t-16 32zM480 205q-23 0 -41.5 -14t-18.5 -41v-5h70q33 0 56.5 -23.5t23.5 -56.5v-40q0 -37 -14 -70t-38.5 -57.5t-57.5 -38.5t-70 -14h-160q-37 0 -70 14t-57.5 38.5t-38.5 57.5t-14 70v120q0 8 6 14
t14 6h80q8 0 14 -6t6 -14v-120q0 -31 23.5 -45.5t53.5 -14.5h143q22 0 41 18t19 42h-90q-24 0 -42 17.5t-18 42.5v47q0 44 15 79t41.5 59t61.5 37t75 13h212q19 0 24 -20l24 -116l112 116q30 30 75 30h150q33 0 56.5 -23.5t23.5 -56.5v-170q0 -33 -23.5 -56.5t-56.5 -23.5
h-399q-19 0 -24 20l-21 92l-20 93h-146zM837 120h213v90h-117z" />
    <glyph glyph-name="dadyeh" unicode="&#xfebf;&#xfef2;" horiz-adv-x="1220" arabic-form="isolated" 
d="M825 445q0 19 16 32t39 13t39 -13t16 -32t-16 -32t-39 -13t-39 13t-16 32zM320 -245q0 17 16 28.5t39 12t39 -11.5t16 -29t-16 -29t-39 -12t-39 12t-16 29zM190 -245q0 17 16 28.5t39 12t39 -11.5t16 -29t-16 -29t-39 -12t-39 12t-16 29zM480 205q-23 0 -41.5 -14
t-18.5 -41v-5h70q33 0 56.5 -23.5t23.5 -56.5v-40q0 -37 -14 -70t-38.5 -57.5t-57.5 -38.5t-70 -14h-160q-37 0 -70 14t-57.5 38.5t-38.5 57.5t-14 70v120q0 8 6 14t14 6h80q8 0 14 -6t6 -14v-120q0 -31 23.5 -45.5t53.5 -14.5h143q22 0 41 18t19 42h-90q-24 0 -42 17.5
t-18 42.5v47q0 44 15 79t41.5 59t61.5 37t75 13h212q19 0 24 -20l24 -116l112 116q30 30 75 30h150q33 0 56.5 -23.5t23.5 -56.5v-170q0 -33 -23.5 -56.5t-56.5 -23.5h-399q-19 0 -24 20l-21 92l-20 93h-146zM837 120h213v90h-117z" />
    <glyph glyph-name="seenmaksuraf" unicode="&#xfeb4;&#xfef0;" horiz-adv-x="1260" arabic-form="final" 
d="M480 205q-23 0 -41.5 -14t-18.5 -41v-5h70q33 0 56.5 -23.5t23.5 -56.5v-40q0 -37 -14 -70t-38.5 -57.5t-57.5 -38.5t-70 -14h-160q-37 0 -70 14t-57.5 38.5t-38.5 57.5t-14 70v120q0 8 6 14t14 6h80q8 0 14 -6t6 -14v-120q0 -32 25 -46t56 -14h139q22 0 41 18t19 42h-90
q-24 0 -42 17.5t-18 42.5v47q0 44 15 79t41.5 59t61.5 37t75 13h257q8 0 14 -6t6 -14v-180h80v180q0 8 6 14t14 6h80q8 0 14 -6t6 -14v-180h80v180q0 8 6 14t14 6h80q8 0 14 -6t6 -14v-180h90v-120h-530q-33 0 -56.5 23.5t-23.5 56.5v125h-170z" />
    <glyph glyph-name="seenyehf" unicode="&#xfeb4;&#xfef2;" horiz-adv-x="1260" arabic-form="final" 
d="M320 -245q0 17 16 29t39 12t39 -12t16 -29t-16 -28.5t-39 -12t-39 11.5t-16 29zM190 -245q0 17 16 29t39 12t39 -12t16 -29t-16 -28.5t-39 -12t-39 11.5t-16 29zM480 205q-23 0 -41.5 -14t-18.5 -41v-5h70q33 0 56.5 -23.5t23.5 -56.5v-40q0 -37 -14 -70t-38.5 -57.5
t-57.5 -38.5t-70 -14h-160q-37 0 -70 14t-57.5 38.5t-38.5 57.5t-14 70v120q0 8 6 14t14 6h80q8 0 14 -6t6 -14v-120q0 -32 25 -46t56 -14h139q22 0 41 18t19 42h-90q-24 0 -42 17.5t-18 42.5v47q0 44 15 79t41.5 59t61.5 37t75 13h257q8 0 14 -6t6 -14v-180h80v180
q0 8 6 14t14 6h80q8 0 14 -6t6 -14v-180h80v180q0 8 6 14t14 6h80q8 0 14 -6t6 -14v-180h90v-120h-530q-33 0 -56.5 23.5t-23.5 56.5v125h-170z" />
    <glyph glyph-name="sheenmaksuraf" unicode="&#xfeb8;&#xfef0;" horiz-adv-x="1260" arabic-form="final" 
d="M790 425q0 19 16 32t39 13t39 -13t16 -32t-16 -32t-39 -13t-39 13t-16 32zM920 425q0 19 16 32t39 13t39 -13t16 -32t-16 -32t-39 -13t-39 13t-16 32zM855 525q0 19 16 32t39 13t39 -13t16 -32t-16 -32t-39 -13t-39 13t-16 32zM480 205q-23 0 -41.5 -14t-18.5 -41v-5h70
q33 0 56.5 -23.5t23.5 -56.5v-40q0 -37 -14 -70t-38.5 -57.5t-57.5 -38.5t-70 -14h-160q-37 0 -70 14t-57.5 38.5t-38.5 57.5t-14 70v120q0 8 6 14t14 6h80q8 0 14 -6t6 -14v-120q0 -32 25 -46t56 -14h139q22 0 41 18t19 42h-90q-24 0 -42 17.5t-18 42.5v47q0 44 15 79
t41.5 59t61.5 37t75 13h257q8 0 14 -6t6 -14v-180h80v180q0 8 6 14t14 6h80q8 0 14 -6t6 -14v-180h80v180q0 8 6 14t14 6h80q8 0 14 -6t6 -14v-180h90v-120h-530q-33 0 -56.5 23.5t-23.5 56.5v125h-170z" />
    <glyph glyph-name="sheenyehf" unicode="&#xfeb8;&#xfef2;" horiz-adv-x="1260" arabic-form="final" 
d="M320 -245q0 17 16 29t39 12t39 -12t16 -29t-16 -28.5t-39 -12t-39 11.5t-16 29zM190 -245q0 17 16 29t39 12t39 -12t16 -29t-16 -28.5t-39 -12t-39 11.5t-16 29zM790 425q0 19 16 32t39 13t39 -13t16 -32t-16 -32t-39 -13t-39 13t-16 32zM920 425q0 19 16 32t39 13
t39 -13t16 -32t-16 -32t-39 -13t-39 13t-16 32zM855 525q0 19 16 32t39 13t39 -13t16 -32t-16 -32t-39 -13t-39 13t-16 32zM480 205q-23 0 -41.5 -14t-18.5 -41v-5h70q33 0 56.5 -23.5t23.5 -56.5v-40q0 -37 -14 -70t-38.5 -57.5t-57.5 -38.5t-70 -14h-160q-37 0 -70 14
t-57.5 38.5t-38.5 57.5t-14 70v120q0 8 6 14t14 6h80q8 0 14 -6t6 -14v-120q0 -32 25 -46t56 -14h139q22 0 41 18t19 42h-90q-24 0 -42 17.5t-18 42.5v47q0 44 15 79t41.5 59t61.5 37t75 13h257q8 0 14 -6t6 -14v-180h80v180q0 8 6 14t14 6h80q8 0 14 -6t6 -14v-180h80v180
q0 8 6 14t14 6h80q8 0 14 -6t6 -14v-180h90v-120h-530q-33 0 -56.5 23.5t-23.5 56.5v125h-170z" />
    <glyph glyph-name="sadmaksuraf" unicode="&#xfebc;&#xfef0;" horiz-adv-x="1220" arabic-form="final" 
d="M837 120h213v90h-117zM490 145q33 0 56.5 -23.5t23.5 -56.5v-40q0 -37 -14 -70t-38.5 -57.5t-57.5 -38.5t-70 -14h-160q-37 0 -70 14t-57.5 38.5t-38.5 57.5t-14 70v120q0 8 6 14t14 6h80q8 0 14 -6t6 -14v-120q0 -32 25 -46t56 -14h139q22 0 41 18t19 42h-90
q-24 0 -42 17.5t-18 42.5v47q0 44 15 79t41.5 59t61.5 37t75 13h212q19 0 24 -20l24 -116l112 116q30 30 75 30h150q33 0 56.5 -23.5t23.5 -56.5v-130h50v-120h-529q-19 0 -24 20l-21 92l-20 93h-146q-23 0 -41.5 -14t-18.5 -41v-5h70z" />
    <glyph glyph-name="sadyehf" unicode="&#xfebc;&#xfef2;" horiz-adv-x="1220" arabic-form="final" 
d="M320 -244q0 17 16 29t39 12t39 -12t16 -29t-16 -28.5t-39 -11.5t-39 11.5t-16 28.5zM190 -244q0 17 16 29t39 12t39 -12t16 -29t-16 -28.5t-39 -11.5t-39 11.5t-16 28.5zM837 120h213v90h-117zM490 145q33 0 56.5 -23.5t23.5 -56.5v-40q0 -37 -14 -70t-38.5 -57.5
t-57.5 -38.5t-70 -14h-160q-37 0 -70 14t-57.5 38.5t-38.5 57.5t-14 70v120q0 8 6 14t14 6h80q8 0 14 -6t6 -14v-120q0 -32 25 -46t56 -14h139q22 0 41 18t19 42h-90q-24 0 -42 17.5t-18 42.5v47q0 44 15 79t41.5 59t61.5 37t75 13h212q19 0 24 -20l24 -116l112 116
q30 30 75 30h150q33 0 56.5 -23.5t23.5 -56.5v-130h50v-120h-529q-19 0 -24 20l-21 92l-20 93h-146q-23 0 -41.5 -14t-18.5 -41v-5h70z" />
    <glyph glyph-name="dadmaksuraf" unicode="&#xfec0;&#xfef0;" horiz-adv-x="1220" arabic-form="final" 
d="M825 445q0 19 16 32t39 13t39 -13t16 -32t-16 -32t-39 -13t-39 13t-16 32zM837 120h213v90h-117zM490 145q33 0 56.5 -23.5t23.5 -56.5v-40q0 -37 -14 -70t-38.5 -57.5t-57.5 -38.5t-70 -14h-160q-37 0 -70 14t-57.5 38.5t-38.5 57.5t-14 70v120q0 8 6 14t14 6h80
q8 0 14 -6t6 -14v-120q0 -32 25 -46t56 -14h139q22 0 41 18t19 42h-90q-24 0 -42 17.5t-18 42.5v47q0 44 15 79t41.5 59t61.5 37t75 13h212q19 0 24 -20l24 -116l112 116q30 30 75 30h150q33 0 56.5 -23.5t23.5 -56.5v-130h50v-120h-529q-19 0 -24 20l-21 92l-20 93h-146
q-23 0 -41.5 -14t-18.5 -41v-5h70z" />
    <glyph glyph-name="dadyehf" unicode="&#xfec0;&#xfef2;" horiz-adv-x="1220" arabic-form="final" 
d="M825 445q0 19 16 32t39 13t39 -13t16 -32t-16 -32t-39 -13t-39 13t-16 32zM320 -244q0 17 16 28.5t39 11.5t39 -11.5t16 -28.5t-16 -29t-39 -12t-39 12t-16 29zM190 -244q0 17 16 28.5t39 11.5t39 -11.5t16 -28.5t-16 -29t-39 -12t-39 12t-16 29zM837 120h213v90h-117z
M490 145q33 0 56.5 -23.5t23.5 -56.5v-40q0 -37 -14 -70t-38.5 -57.5t-57.5 -38.5t-70 -14h-160q-37 0 -70 14t-57.5 38.5t-38.5 57.5t-14 70v120q0 8 6 14t14 6h80q8 0 14 -6t6 -14v-120q0 -32 25 -46t56 -14h139q22 0 41 18t19 42h-90q-24 0 -42 17.5t-18 42.5v47
q0 44 15 79t41.5 59t61.5 37t75 13h212q19 0 24 -20l24 -116l112 116q30 30 75 30h150q33 0 56.5 -23.5t23.5 -56.5v-130h50v-120h-529q-19 0 -24 20l-21 92l-20 93h-146q-23 0 -41.5 -14t-18.5 -41v-5h70z" />
    <glyph glyph-name="uniFDF2" unicode="&#x627;&#xfedf;&#xfee0;&#xfeea;" horiz-adv-x="1120" arabic-form="isolated" 
d="M1050 550q8 0 14 -6t6 -14v-510q0 -8 -6 -14t-14 -6h-80q-8 0 -14 6t-6 14v510q0 8 6 14t14 6h80zM730 120v390q0 8 6 14t14 6h80q8 0 14 -6t6 -14v-430q0 -33 -23.5 -56.5t-56.5 -23.5h-620q-54 0 -77 20.5t-23 52.5q0 24 12 54l55 139q11 28 36 46t57 18h180q8 0 14 -6
t6 -14v-190h100v320q0 8 6 14t14 6h80q8 0 14 -6t6 -14v-320h100zM290 120v90h-67l-35 -90h102z" />
    <glyph glyph-name="uniFDFC" unicode="&#x631;&#xfef3;&#xfe8e;&#x644;" horiz-adv-x="1240" arabic-form="isolated" 
d="M470 -20q0 -33 -23.5 -56.5t-56.5 -23.5h-160q-37 0 -70 14t-57.5 38.5t-38.5 57.5t-14 70v125q0 8 6 14t14 6h80q8 0 14 -6t6 -14v-125q0 -23 17.5 -41.5t42.5 -18.5h120v510q0 8 6 14t14 6h80q8 0 14 -6t6 -14v-550zM850 310q0 8 6 14t14 6h80q8 0 14 -6t6 -14v-230
q0 -33 -23.5 -56.5t-56.5 -23.5h-300q-8 0 -14 6t-6 14v510q0 8 6 14t14 6h80q8 0 14 -6t6 -14v-410h160v190zM1080 310q0 8 6 14t14 6h80q8 0 14 -6t6 -14v-310q0 -46 -13 -78.5t-35.5 -53t-52.5 -30t-63 -9.5q-35 0 -73 10t-73 26l29 89q20 -7 42 -12.5t44 -5.5
q15 0 28.5 2.5t24 9.5t16.5 19.5t6 32.5v310zM700 -135q0 19 16 32t39 13t39 -13t16 -32t-16 -32t-39 -13t-39 13t-16 32zM570 -135q0 19 16 32t39 13t39 -13t16 -32t-16 -32t-39 -13t-39 13t-16 32z" />
    <glyph glyph-name="lamalefmd" unicode="&#xfedf;&#xfe82;" horiz-adv-x="470" arabic-form="isolated" 
d="M92 -78l14 46q6 24 14 47q17 -6 42.5 -10.5t51.5 -4.5q16 0 31.5 2.5t27.5 9t19.5 17t7.5 26.5v475q0 8 6 14t14 6h80q8 0 14 -6t6 -14v-475q0 -45 -14.5 -76t-39 -49.5t-56.5 -27t-68 -8.5q-37 0 -76 7t-74 21zM153 500q8 0 15 -5t9 -15l50 -425h-97q-9 0 -16 5t-8 15
l-50 425h97zM178 554q-12 -9 -22.5 -12.5t-19.5 -3.5q-17 0 -31 6.5t-31 6.5q-10 0 -21 -4.5t-25 -16.5v41q14 12 25 16.5t21 4.5q17 0 31 -6.5t31 -6.5q9 0 19.5 3.5t22.5 12.5v-41z" />
    <glyph glyph-name="lamalefmdf" unicode="&#xfee0;&#xfe82;" horiz-adv-x="470" arabic-form="final" 
d="M178 554q-12 -9 -22.5 -12.5t-19.5 -3.5q-17 0 -31 6.5t-31 6.5q-10 0 -21 -4.5t-25 -16.5v41q14 12 25 16.5t21 4.5q17 0 31 -6.5t31 -6.5q9 0 19.5 3.5t22.5 12.5v-41zM92 -78l14 46q6 24 14 47q17 -6 42.5 -10.5t51.5 -4.5q34 0 60 11.5t26 43.5v475q0 8 6 14t14 6h80
q8 0 14 -6t6 -14v-410h50v-120h-58q-9 -29 -25.5 -49t-39 -33t-49.5 -18.5t-56 -5.5q-38 0 -76.5 7.5t-73.5 20.5zM153 500q8 0 15 -5t9 -15l50 -425h-97q-9 0 -16 5t-8 15l-50 425h97z" />
    <glyph glyph-name="lamalefhmz" unicode="&#xfedf;&#xfe84;" horiz-adv-x="470" arabic-form="isolated" 
d="M92 -78l14 46q6 24 14 47q17 -6 42.5 -10.5t51.5 -4.5q16 0 31.5 2.5t27.5 9t19.5 17t7.5 26.5v475q0 8 6 14t14 6h80q8 0 14 -6t6 -14v-475q0 -45 -14.5 -76t-39 -49.5t-56.5 -27t-68 -8.5q-37 0 -76 7t-74 21zM153 500q8 0 15 -5t9 -15l50 -425h-97q-9 0 -16 5t-8 15
l-50 425h97zM147 616q-5 4 -12.5 6.5t-14.5 2.5q-8 0 -13.5 -4t-5.5 -14q0 -8 7 -15t21 -7h38v-45h-124v45h24q-14 12 -14 31q0 23 18 36t42 13q14 0 28.5 -5.5t24.5 -13.5z" />
    <glyph glyph-name="lamalefhmzf" unicode="&#xfee0;&#xfe84;" horiz-adv-x="470" arabic-form="final" 
d="M147 616q-5 4 -12.5 6.5t-14.5 2.5q-8 0 -13.5 -4t-5.5 -14q0 -8 7 -15t21 -7h38v-45h-124v45h24q-14 12 -14 31q0 23 18 36t42 13q14 0 28.5 -5.5t24.5 -13.5zM92 -78l14 46q6 24 14 47q17 -6 42.5 -10.5t51.5 -4.5q34 0 60 11.5t26 43.5v475q0 8 6 14t14 6h80
q8 0 14 -6t6 -14v-410h50v-120h-58q-9 -29 -25.5 -49t-39 -33t-49.5 -18.5t-56 -5.5q-38 0 -76.5 7.5t-73.5 20.5zM153 500q8 0 15 -5t9 -15l50 -425h-97q-9 0 -16 5t-8 15l-50 425h97z" />
    <glyph glyph-name="lamalefhmz2" unicode="&#xfedf;&#xfe88;" horiz-adv-x="470" arabic-form="isolated" 
d="M92 -78l14 46q6 24 14 47q17 -6 42.5 -10.5t51.5 -4.5q16 0 31.5 2.5t27.5 9t19.5 17t7.5 26.5v475q0 8 6 14t14 6h80q8 0 14 -6t6 -14v-475q0 -45 -14.5 -76t-39 -49.5t-56.5 -27t-68 -8.5q-37 0 -76 7t-74 21zM153 500q8 0 15 -5t9 -15l50 -425h-97q-9 0 -16 5t-8 15
l-50 425h97zM187 -182q-5 4 -12.5 6.5t-14.5 2.5q-8 0 -13.5 -4t-5.5 -13q0 -7 7 -13t21 -6h38v-41h-124v41h24q-14 10 -14 27q0 21 18 33t42 12q14 0 28.5 -5t24.5 -13z" />
    <glyph glyph-name="lamalefhmz2f" unicode="&#xfee0;&#xfe88;" horiz-adv-x="470" arabic-form="final" 
d="M187 -182q-5 4 -12.5 6.5t-14.5 2.5q-8 0 -13.5 -4t-5.5 -13q0 -7 7 -13t21 -6h38v-41h-124v41h24q-14 10 -14 27q0 21 18 33t42 12q14 0 28.5 -5t24.5 -13zM92 -78l14 46q6 24 14 47q17 -6 42.5 -10.5t51.5 -4.5q34 0 60 11.5t26 43.5v475q0 8 6 14t14 6h80q8 0 14 -6
t6 -14v-410h50v-120h-58q-9 -29 -25.5 -49t-39 -33t-49.5 -18.5t-56 -5.5q-38 0 -76.5 7.5t-73.5 20.5zM153 500q8 0 15 -5t9 -15l50 -425h-97q-9 0 -16 5t-8 15l-50 425h97z" />
    <glyph glyph-name="lamalef" unicode="&#xfedf;&#xfe8e;" horiz-adv-x="470" 
d="M92 -78l14 46q6 24 14 47q17 -6 42.5 -10.5t51.5 -4.5q16 0 31.5 2.5t27.5 9t19.5 17t7.5 26.5v475q0 8 6 14t14 6h80q8 0 14 -6t6 -14v-475q0 -45 -14.5 -76t-39 -49.5t-56.5 -27t-68 -8.5q-37 0 -76 7t-74 21zM153 500q8 0 15 -5t9 -15l50 -425h-97q-9 0 -16 5t-8 15
l-50 425h97z" />
    <glyph glyph-name="lamaleff" unicode="&#xfee0;&#xfe8e;" horiz-adv-x="470" 
d="M92 -78l14 46q6 24 14 47q17 -6 42.5 -10.5t51.5 -4.5q34 0 60 11.5t26 43.5v475q0 8 6 14t14 6h80q8 0 14 -6t6 -14v-410h50v-120h-58q-9 -29 -25.5 -49t-39 -33t-49.5 -18.5t-56 -5.5q-38 0 -76.5 7.5t-73.5 20.5zM153 500q8 0 15 -5t9 -15l50 -425h-97q-9 0 -16 5
t-8 15l-50 425h97z" />
    <glyph glyph-name="lamalefwasl" unicode="&#xfedf;&#xfb51;" horiz-adv-x="470" 
d="M92 -78l14 46q6 24 14 47q17 -6 42.5 -10.5t51.5 -4.5q16 0 31.5 2.5t27.5 9t19.5 17t7.5 26.5v475q0 8 6 14t14 6h80q8 0 14 -6t6 -14v-475q0 -45 -14.5 -76t-39 -49.5t-56.5 -27t-68 -8.5q-37 0 -76 7t-74 21zM153 500q8 0 15 -5t9 -15l50 -425h-97q-9 0 -16 5t-8 15
l-50 425h97zM32 573h15v45q0 8 8 8h18q5 0 5.5 -3t0.5 -5v-13l12 12q8 8 19 8h44q8 0 14 -6.5t6 -15.5v-43q0 -8 -6 -14t-14 -6h-122v33zM85 573h57v20h-37z" />
    <glyph glyph-name="lamalefwaslf" unicode="&#xfee0;&#xfb51;" horiz-adv-x="470" 
d="M32 573h15v45q0 8 8 8h18q5 0 5.5 -3t0.5 -5v-13l12 12q8 8 19 8h44q8 0 14 -6.5t6 -15.5v-43q0 -8 -6 -14t-14 -6h-122v33zM85 573h57v20h-37zM92 -78l14 46q6 24 14 47q17 -6 42.5 -10.5t51.5 -4.5q34 0 60 11.5t26 43.5v475q0 8 6 14t14 6h80q8 0 14 -6t6 -14v-410h50
v-120h-58q-9 -29 -25.5 -49t-39 -33t-49.5 -18.5t-56 -5.5q-38 0 -76.5 7.5t-73.5 20.5zM153 500q8 0 15 -5t9 -15l50 -425h-97q-9 0 -16 5t-8 15l-50 425h97z" />
    <glyph glyph-name="lellah" unicode="&#xfedf;&#xfee0;&#xfeea;" horiz-adv-x="900" 
d="M730 120v390q0 8 6 14t14 6h80q8 0 14 -6t6 -14v-430q0 -33 -23.5 -56.5t-56.5 -23.5h-620q-54 0 -77 20.5t-23 52.5q0 24 12 54l55 139q11 28 36 46t57 18h180q8 0 14 -6t6 -14v-190h100v320q0 8 6 14t14 6h80q8 0 14 -6t6 -14v-320h100zM290 120v90h-67l-35 -90h102z
" />
    <glyph glyph-name="noonyehf" unicode="&#xfee8;&#xfef2;" horiz-adv-x="840" 
d="M505 445q0 19 16 32t39 13t39 -13t16 -32t-16 -32t-39 -13t-39 13t-16 32zM320 -255q0 17 16 28.5t39 12t39 -11.5t16 -29t-16 -29t-39 -12t-39 12t-16 29zM190 -255q0 17 16 28.5t39 12t39 -11.5t16 -29t-16 -29t-39 -12t-39 12t-16 29zM626 205h-146q-23 0 -41.5 -14
t-18.5 -41v-5h70q33 0 56.5 -23.5t23.5 -56.5v-40q0 -37 -14 -70t-38.5 -57.5t-57.5 -38.5t-70 -14h-160q-37 0 -70 14t-57.5 38.5t-38.5 57.5t-14 70v120q0 8 6 14t14 6h80q8 0 14 -6t6 -14v-104q0 -30 13.5 -53t46.5 -23h143q13 0 26.5 3.5t24.5 11t18.5 19t7.5 26.5h-90
q-25 0 -42.5 17.5t-17.5 42.5v47q0 44 15 79t41.5 59t61.5 37t75 13h212q19 0 24 -20l39 -180h72v-120h-149q-19 0 -24 20z" />
    <glyph glyph-name="uni0679yehf" unicode="&#xfb69;&#xfef2;" horiz-adv-x="840" 
d="M320 -255q0 17 16 29t39 12t39 -12t16 -29t-16 -28.5t-39 -12t-39 11.5t-16 29zM190 -255q0 17 16 29t39 12t39 -12t16 -29t-16 -28.5t-39 -12t-39 11.5t-16 29zM495 433h15v107h32v-75l12 12q8 8 19 8h44q8 0 14 -6.5t6 -15.5v-43q0 -8 -6 -14t-14 -6h-122v33zM548 433
h57v20h-37zM626 205h-146q-23 0 -41.5 -14t-18.5 -41v-5h70q33 0 56.5 -23.5t23.5 -56.5v-40q0 -37 -14 -70t-38.5 -57.5t-57.5 -38.5t-70 -14h-160q-37 0 -70 14t-57.5 38.5t-38.5 57.5t-14 70v120q0 8 6 14t14 6h80q8 0 14 -6t6 -14v-104q0 -30 13.5 -53t46.5 -23h143
q13 0 26.5 3.5t24.5 11t18.5 19t7.5 26.5h-90q-25 0 -42.5 17.5t-17.5 42.5v47q0 44 15 79t41.5 59t61.5 37t75 13h212q19 0 24 -20l39 -180h72v-120h-149q-19 0 -24 20z" />
    <glyph glyph-name="hmzyehhmzf" unicode="&#xfe8c;&#xfe8a;" horiz-adv-x="840" 
d="M152 316q-5 4 -12.5 6.5t-14.5 2.5q-8 0 -13.5 -4t-5.5 -14q0 -8 7 -15t21 -7h38v-45h-124v45h24q-14 12 -14 31q0 23 18 36t42 13q14 0 28.5 -5.5t24.5 -13.5zM602 476q-5 4 -12.5 6.5t-14.5 2.5q-8 0 -13.5 -4t-5.5 -14q0 -8 7 -15t21 -7h38v-45h-124v45h24
q-14 12 -14 31q0 23 18 36t42 13q14 0 28.5 -5.5t24.5 -13.5zM626 205h-146q-23 0 -41.5 -14t-18.5 -41v-5h70q33 0 56.5 -23.5t23.5 -56.5v-40q0 -37 -14 -70t-38.5 -57.5t-57.5 -38.5t-70 -14h-160q-37 0 -70 14t-57.5 38.5t-38.5 57.5t-14 70v120q0 8 6 14t14 6h80
q8 0 14 -6t6 -14v-104q0 -30 13.5 -53t46.5 -23h143q13 0 26.5 3.5t24.5 11t18.5 19t7.5 26.5h-90q-25 0 -42.5 17.5t-17.5 42.5v47q0 44 15 79t41.5 59t61.5 37t75 13h212q19 0 24 -20l39 -180h72v-120h-149q-19 0 -24 20z" />
    <glyph glyph-name="tehyehhmzf" unicode="&#xfe98;&#xfe8a;" horiz-adv-x="840" 
d="M570 440q0 19 16 32t39 13t39 -13t16 -32t-16 -32t-39 -13t-39 13t-16 32zM440 440q0 19 16 32t39 13t39 -13t16 -32t-16 -32t-39 -13t-39 13t-16 32zM152 316q-5 4 -12.5 6.5t-14.5 2.5q-8 0 -13.5 -4t-5.5 -14q0 -8 7 -15t21 -7h38v-45h-124v45h24q-14 12 -14 31
q0 23 18 36t42 13q14 0 28.5 -5.5t24.5 -13.5zM626 205h-146q-23 0 -41.5 -14t-18.5 -41v-5h70q33 0 56.5 -23.5t23.5 -56.5v-40q0 -37 -14 -70t-38.5 -57.5t-57.5 -38.5t-70 -14h-160q-37 0 -70 14t-57.5 38.5t-38.5 57.5t-14 70v120q0 8 6 14t14 6h80q8 0 14 -6t6 -14
v-104q0 -30 13.5 -53t46.5 -23h143q13 0 26.5 3.5t24.5 11t18.5 19t7.5 26.5h-90q-25 0 -42.5 17.5t-17.5 42.5v47q0 44 15 79t41.5 59t61.5 37t75 13h212q19 0 24 -20l39 -180h72v-120h-149q-19 0 -24 20z" />
    <glyph glyph-name="thehyehhmzf" unicode="&#xfe9c;&#xfe8a;" horiz-adv-x="840" 
d="M440 425q0 19 16 32t39 13t39 -13t16 -32t-16 -32t-39 -13t-39 13t-16 32zM570 425q0 19 16 32t39 13t39 -13t16 -32t-16 -32t-39 -13t-39 13t-16 32zM505 525q0 19 16 32t39 13t39 -13t16 -32t-16 -32t-39 -13t-39 13t-16 32zM152 316q-5 4 -12.5 6.5t-14.5 2.5
q-8 0 -13.5 -4t-5.5 -14q0 -8 7 -15t21 -7h38v-45h-124v45h24q-14 12 -14 31q0 23 18 36t42 13q14 0 28.5 -5.5t24.5 -13.5zM626 205h-146q-23 0 -41.5 -14t-18.5 -41v-5h70q33 0 56.5 -23.5t23.5 -56.5v-40q0 -37 -14 -70t-38.5 -57.5t-57.5 -38.5t-70 -14h-160
q-37 0 -70 14t-57.5 38.5t-38.5 57.5t-14 70v120q0 8 6 14t14 6h80q8 0 14 -6t6 -14v-104q0 -30 13.5 -53t46.5 -23h143q13 0 26.5 3.5t24.5 11t18.5 19t7.5 26.5h-90q-25 0 -42.5 17.5t-17.5 42.5v47q0 44 15 79t41.5 59t61.5 37t75 13h212q19 0 24 -20l39 -180h72v-120
h-149q-19 0 -24 20z" />
    <glyph glyph-name="noonyehhmzf" unicode="&#xfee8;&#xfe8a;" horiz-adv-x="840" 
d="M505 445q0 19 16 32t39 13t39 -13t16 -32t-16 -32t-39 -13t-39 13t-16 32zM152 316q-5 4 -12.5 6.5t-14.5 2.5q-8 0 -13.5 -4t-5.5 -14q0 -8 7 -15t21 -7h38v-45h-124v45h24q-14 12 -14 31q0 23 18 36t42 13q14 0 28.5 -5.5t24.5 -13.5zM626 205h-146q-23 0 -41.5 -14
t-18.5 -41v-5h70q33 0 56.5 -23.5t23.5 -56.5v-40q0 -37 -14 -70t-38.5 -57.5t-57.5 -38.5t-70 -14h-160q-37 0 -70 14t-57.5 38.5t-38.5 57.5t-14 70v120q0 8 6 14t14 6h80q8 0 14 -6t6 -14v-104q0 -30 13.5 -53t46.5 -23h143q13 0 26.5 3.5t24.5 11t18.5 19t7.5 26.5h-90
q-25 0 -42.5 17.5t-17.5 42.5v47q0 44 15 79t41.5 59t61.5 37t75 13h212q19 0 24 -20l39 -180h72v-120h-149q-19 0 -24 20z" />
    <glyph glyph-name="uni0679yehhmzf" unicode="&#xfb69;&#xfe8a;" horiz-adv-x="840" 
d="M495 433h15v107h32v-75l12 12q8 8 19 8h44q8 0 14 -6.5t6 -15.5v-43q0 -8 -6 -14t-14 -6h-122v33zM548 433h57v20h-37zM152 316q-5 4 -12.5 6.5t-14.5 2.5q-8 0 -13.5 -4t-5.5 -14q0 -8 7 -15t21 -7h38v-45h-124v45h24q-14 12 -14 31q0 23 18 36t42 13q14 0 28.5 -5.5
t24.5 -13.5zM626 205h-146q-23 0 -41.5 -14t-18.5 -41v-5h70q33 0 56.5 -23.5t23.5 -56.5v-40q0 -37 -14 -70t-38.5 -57.5t-57.5 -38.5t-70 -14h-160q-37 0 -70 14t-57.5 38.5t-38.5 57.5t-14 70v120q0 8 6 14t14 6h80q8 0 14 -6t6 -14v-104q0 -30 13.5 -53t46.5 -23h143
q13 0 26.5 3.5t24.5 11t18.5 19t7.5 26.5h-90q-25 0 -42.5 17.5t-17.5 42.5v47q0 44 15 79t41.5 59t61.5 37t75 13h212q19 0 24 -20l39 -180h72v-120h-149q-19 0 -24 20z" />
    <glyph glyph-name="noonmaksuraf" unicode="&#xfee8;&#xfef0;" horiz-adv-x="840" 
d="M505 445q0 19 16 32t39 13t39 -13t16 -32t-16 -32t-39 -13t-39 13t-16 32zM626 205h-146q-23 0 -41.5 -14t-18.5 -41v-5h70q33 0 56.5 -23.5t23.5 -56.5v-40q0 -37 -14 -70t-38.5 -57.5t-57.5 -38.5t-70 -14h-160q-37 0 -70 14t-57.5 38.5t-38.5 57.5t-14 70v120
q0 8 6 14t14 6h80q8 0 14 -6t6 -14v-104q0 -30 13.5 -53t46.5 -23h143q13 0 26.5 3.5t24.5 11t18.5 19t7.5 26.5h-90q-25 0 -42.5 17.5t-17.5 42.5v47q0 44 15 79t41.5 59t61.5 37t75 13h212q19 0 24 -20l39 -180h72v-120h-149q-19 0 -24 20z" />
    <glyph glyph-name="uni0679maksuraf" unicode="&#xfb69;&#xfef0;" horiz-adv-x="840" 
d="M495 433h15v107h32v-75l12 12q8 8 19 8h44q8 0 14 -6.5t6 -15.5v-43q0 -8 -6 -14t-14 -6h-122v33zM548 433h57v20h-37zM626 205h-146q-23 0 -41.5 -14t-18.5 -41v-5h70q33 0 56.5 -23.5t23.5 -56.5v-40q0 -37 -14 -70t-38.5 -57.5t-57.5 -38.5t-70 -14h-160q-37 0 -70 14
t-57.5 38.5t-38.5 57.5t-14 70v120q0 8 6 14t14 6h80q8 0 14 -6t6 -14v-104q0 -30 13.5 -53t46.5 -23h143q13 0 26.5 3.5t24.5 11t18.5 19t7.5 26.5h-90q-25 0 -42.5 17.5t-17.5 42.5v47q0 44 15 79t41.5 59t61.5 37t75 13h212q19 0 24 -20l39 -180h72v-120h-149
q-19 0 -24 20z" />
    <glyph glyph-name="seenyehhmz" unicode="&#xfeb3;&#xfe8a;" horiz-adv-x="1220" 
d="M152 316q-5 4 -12.5 6.5t-14.5 2.5q-8 0 -13.5 -4t-5.5 -14q0 -8 7 -15t21 -7h38v-45h-124v45h24q-14 12 -14 31q0 23 18 36t42 13q14 0 28.5 -5.5t24.5 -13.5zM480 205q-23 0 -41.5 -14t-18.5 -41v-5h70q39 0 59.5 -28.5t20.5 -66.5v-25q0 -37 -14 -70t-38.5 -57.5
t-57.5 -38.5t-70 -14h-160q-37 0 -70 14t-57.5 38.5t-38.5 57.5t-14 70v120q0 8 6 14t14 6h80q8 0 14 -6t6 -14v-104q0 -30 13.5 -53t46.5 -23h143q13 0 26.5 3.5t24.5 11t18.5 19t7.5 26.5h-90q-25 0 -42.5 17.5t-17.5 42.5v47q0 44 15 79t41.5 59t61.5 37t75 13h257
q8 0 14 -6t6 -14v-180h80v180q0 8 6 14t14 6h80q8 0 14 -6t6 -14v-180h80v180q0 8 6 14t14 6h80q8 0 14 -6t6 -14v-220q0 -33 -23.5 -56.5t-56.5 -23.5h-360q-33 0 -56.5 23.5t-23.5 56.5v125h-170z" />
    <glyph glyph-name="seenyehhmzf" unicode="&#xfeb4;&#xfe8a;" horiz-adv-x="1260" 
d="M152 316q-5 4 -12.5 6.5t-14.5 2.5q-8 0 -13.5 -4t-5.5 -14q0 -8 7 -15t21 -7h38v-45h-124v45h24q-14 12 -14 31q0 23 18 36t42 13q14 0 28.5 -5.5t24.5 -13.5zM480 205q-23 0 -41.5 -14t-18.5 -41v-5h70q33 0 56.5 -23.5t23.5 -56.5v-40q0 -37 -14 -70t-38.5 -57.5
t-57.5 -38.5t-70 -14h-160q-37 0 -70 14t-57.5 38.5t-38.5 57.5t-14 70v120q0 8 6 14t14 6h80q8 0 14 -6t6 -14v-120q0 -32 25 -46t56 -14h139q22 0 41 18t19 42h-90q-24 0 -42 17.5t-18 42.5v47q0 44 15 79t41.5 59t61.5 37t75 13h257q8 0 14 -6t6 -14v-180h80v180
q0 8 6 14t14 6h80q8 0 14 -6t6 -14v-180h80v180q0 8 6 14t14 6h80q8 0 14 -6t6 -14v-180h90v-120h-530q-33 0 -56.5 23.5t-23.5 56.5v125h-170z" />
    <glyph glyph-name="sheenyehhmz" unicode="&#xfeb7;&#xfe8a;" horiz-adv-x="1220" 
d="M790 425q0 19 16 32t39 13t39 -13t16 -32t-16 -32t-39 -13t-39 13t-16 32zM920 425q0 19 16 32t39 13t39 -13t16 -32t-16 -32t-39 -13t-39 13t-16 32zM855 525q0 19 16 32t39 13t39 -13t16 -32t-16 -32t-39 -13t-39 13t-16 32zM152 316q-5 4 -12.5 6.5t-14.5 2.5
q-8 0 -13.5 -4t-5.5 -14q0 -8 7 -15t21 -7h38v-45h-124v45h24q-14 12 -14 31q0 23 18 36t42 13q14 0 28.5 -5.5t24.5 -13.5zM480 205q-23 0 -41.5 -14t-18.5 -41v-5h70q39 0 59.5 -28.5t20.5 -66.5v-25q0 -37 -14 -70t-38.5 -57.5t-57.5 -38.5t-70 -14h-160q-37 0 -70 14
t-57.5 38.5t-38.5 57.5t-14 70v120q0 8 6 14t14 6h80q8 0 14 -6t6 -14v-104q0 -30 13.5 -53t46.5 -23h143q13 0 26.5 3.5t24.5 11t18.5 19t7.5 26.5h-90q-25 0 -42.5 17.5t-17.5 42.5v47q0 44 15 79t41.5 59t61.5 37t75 13h257q8 0 14 -6t6 -14v-180h80v180q0 8 6 14t14 6
h80q8 0 14 -6t6 -14v-180h80v180q0 8 6 14t14 6h80q8 0 14 -6t6 -14v-220q0 -33 -23.5 -56.5t-56.5 -23.5h-360q-33 0 -56.5 23.5t-23.5 56.5v125h-170z" />
    <glyph glyph-name="sheenyehhmzf" unicode="&#xfeb8;&#xfe8a;" horiz-adv-x="1260" 
d="M790 425q0 19 16 32t39 13t39 -13t16 -32t-16 -32t-39 -13t-39 13t-16 32zM920 425q0 19 16 32t39 13t39 -13t16 -32t-16 -32t-39 -13t-39 13t-16 32zM855 525q0 19 16 32t39 13t39 -13t16 -32t-16 -32t-39 -13t-39 13t-16 32zM152 316q-5 4 -12.5 6.5t-14.5 2.5
q-8 0 -13.5 -4t-5.5 -14q0 -8 7 -15t21 -7h38v-45h-124v45h24q-14 12 -14 31q0 23 18 36t42 13q14 0 28.5 -5.5t24.5 -13.5zM480 205q-23 0 -41.5 -14t-18.5 -41v-5h70q33 0 56.5 -23.5t23.5 -56.5v-40q0 -37 -14 -70t-38.5 -57.5t-57.5 -38.5t-70 -14h-160q-37 0 -70 14
t-57.5 38.5t-38.5 57.5t-14 70v120q0 8 6 14t14 6h80q8 0 14 -6t6 -14v-120q0 -32 25 -46t56 -14h139q22 0 41 18t19 42h-90q-24 0 -42 17.5t-18 42.5v47q0 44 15 79t41.5 59t61.5 37t75 13h257q8 0 14 -6t6 -14v-180h80v180q0 8 6 14t14 6h80q8 0 14 -6t6 -14v-180h80v180
q0 8 6 14t14 6h80q8 0 14 -6t6 -14v-180h90v-120h-530q-33 0 -56.5 23.5t-23.5 56.5v125h-170z" />
    <glyph glyph-name="meemmaksura" unicode="&#xfee3;&#xfef0;" horiz-adv-x="1040" 
d="M770 200v-78q11 -3 21 -5t19 -2q24 0 42 10t18 30v45h-100zM490 140q33 0 56.5 -23.5t23.5 -56.5v-40q0 -37 -14 -70t-38.5 -57.5t-57.5 -38.5t-70 -14h-160q-37 0 -70 14t-57.5 38.5t-38.5 57.5t-14 70v120q0 8 6 14t14 6h80q8 0 14 -6t6 -14v-120q0 -25 17.5 -42.5
t42.5 -17.5h160q22 0 41 18t19 42h-90q-25 0 -42.5 17.5t-17.5 42.5v47q0 44 15 79.5t41.5 61t61.5 39t75 13.5h407q37 0 63.5 -26.5t26.5 -63.5v-80q0 -40 -16.5 -69t-43.5 -48t-61.5 -28.5t-70.5 -9.5q-38 0 -78 12.5t-70 35.5v157h-170q-23 0 -41.5 -14t-18.5 -41v-5h70z
" />
    <glyph glyph-name="meemmaksuraf" unicode="&#xfee4;&#xfef0;" horiz-adv-x="1040" 
d="M480 200q-23 0 -41.5 -14t-18.5 -41v-5h70q33 0 56.5 -23.5t23.5 -56.5v-40q0 -37 -14 -70t-38.5 -57.5t-57.5 -38.5t-70 -14h-160q-37 0 -70 14t-57.5 38.5t-38.5 57.5t-14 70v120q0 8 6 14t14 6h80q8 0 14 -6t6 -14v-120q0 -32 25 -46t56 -14h139q22 0 41 18t19 42h-90
q-24 0 -42 17.5t-18 42.5v47q0 44 15 79.5t41.5 61t61.5 39t75 13.5h327q36 0 67 -8.5t54 -26.5t36 -46t13 -67v-52h50v-120h-203q-37 0 -70.5 8t-59.5 26t-41.5 46t-15.5 67v53h-170zM770 150q0 -14 11.5 -22t28.5 -8h60v50q0 14 -11.5 22t-28.5 8h-60v-50z" />
    <glyph glyph-name="meemyeh" unicode="&#xfee3;&#xfef2;" horiz-adv-x="1040" 
d="M320 -255q0 17 16 29t39 12t39 -12t16 -29t-16 -28.5t-39 -12t-39 11.5t-16 29zM190 -255q0 17 16 29t39 12t39 -12t16 -29t-16 -28.5t-39 -12t-39 11.5t-16 29zM770 200v-78q11 -3 21 -5t19 -2q24 0 42 10t18 30v45h-100zM490 140q33 0 56.5 -23.5t23.5 -56.5v-40
q0 -37 -14 -70t-38.5 -57.5t-57.5 -38.5t-70 -14h-160q-37 0 -70 14t-57.5 38.5t-38.5 57.5t-14 70v120q0 8 6 14t14 6h80q8 0 14 -6t6 -14v-120q0 -25 17.5 -42.5t42.5 -17.5h160q22 0 41 18t19 42h-90q-25 0 -42.5 17.5t-17.5 42.5v47q0 44 15 79.5t41.5 61t61.5 39
t75 13.5h407q37 0 63.5 -26.5t26.5 -63.5v-80q0 -40 -16.5 -69t-43.5 -48t-61.5 -28.5t-70.5 -9.5q-38 0 -78 12.5t-70 35.5v157h-170q-23 0 -41.5 -14t-18.5 -41v-5h70z" />
    <glyph glyph-name="meemyehf" unicode="&#xfee4;&#xfef2;" horiz-adv-x="1040" 
d="M320 -255q0 17 16 29t39 12t39 -12t16 -29t-16 -28.5t-39 -12t-39 11.5t-16 29zM190 -255q0 17 16 29t39 12t39 -12t16 -29t-16 -28.5t-39 -12t-39 11.5t-16 29zM480 200q-23 0 -41.5 -14t-18.5 -41v-5h70q33 0 56.5 -23.5t23.5 -56.5v-40q0 -37 -14 -70t-38.5 -57.5
t-57.5 -38.5t-70 -14h-160q-37 0 -70 14t-57.5 38.5t-38.5 57.5t-14 70v120q0 8 6 14t14 6h80q8 0 14 -6t6 -14v-120q0 -32 25 -46t56 -14h139q22 0 41 18t19 42h-90q-24 0 -42 17.5t-18 42.5v47q0 44 15 79.5t41.5 61t61.5 39t75 13.5h327q36 0 67 -8.5t54 -26.5t36 -46
t13 -67v-52h50v-120h-203q-37 0 -70.5 8t-59.5 26t-41.5 46t-15.5 67v53h-170zM770 150q0 -14 11.5 -22t28.5 -8h60v50q0 14 -11.5 22t-28.5 8h-60v-50z" />
    <glyph glyph-name="meemyehhmz" unicode="&#xfee3;&#xfe8a;" horiz-adv-x="1040" 
d="M152 316q-5 4 -12.5 6.5t-14.5 2.5q-8 0 -13.5 -4t-5.5 -14q0 -8 7 -15t21 -7h38v-45h-124v45h24q-14 12 -14 31q0 23 18 36t42 13q14 0 28.5 -5.5t24.5 -13.5zM770 200v-78q11 -3 21 -5t19 -2q24 0 42 10t18 30v45h-100zM490 140q33 0 56.5 -23.5t23.5 -56.5v-40
q0 -37 -14 -70t-38.5 -57.5t-57.5 -38.5t-70 -14h-160q-37 0 -70 14t-57.5 38.5t-38.5 57.5t-14 70v120q0 8 6 14t14 6h80q8 0 14 -6t6 -14v-120q0 -25 17.5 -42.5t42.5 -17.5h160q22 0 41 18t19 42h-90q-25 0 -42.5 17.5t-17.5 42.5v47q0 44 15 79.5t41.5 61t61.5 39
t75 13.5h407q37 0 63.5 -26.5t26.5 -63.5v-80q0 -40 -16.5 -69t-43.5 -48t-61.5 -28.5t-70.5 -9.5q-38 0 -78 12.5t-70 35.5v157h-170q-23 0 -41.5 -14t-18.5 -41v-5h70z" />
    <glyph glyph-name="meemyehhmzf" unicode="&#xfee4;&#xfe8a;" horiz-adv-x="1040" 
d="M152 316q-5 4 -12.5 6.5t-14.5 2.5q-8 0 -13.5 -4t-5.5 -14q0 -8 7 -15t21 -7h38v-45h-124v45h24q-14 12 -14 31q0 23 18 36t42 13q14 0 28.5 -5.5t24.5 -13.5zM480 200q-23 0 -41.5 -14t-18.5 -41v-5h70q33 0 56.5 -23.5t23.5 -56.5v-40q0 -37 -14 -70t-38.5 -57.5
t-57.5 -38.5t-70 -14h-160q-37 0 -70 14t-57.5 38.5t-38.5 57.5t-14 70v120q0 8 6 14t14 6h80q8 0 14 -6t6 -14v-120q0 -32 25 -46t56 -14h139q22 0 41 18t19 42h-90q-24 0 -42 17.5t-18 42.5v47q0 44 15 79.5t41.5 61t61.5 39t75 13.5h327q36 0 67 -8.5t54 -26.5t36 -46
t13 -67v-52h50v-120h-203q-37 0 -70.5 8t-59.5 26t-41.5 46t-15.5 67v53h-170zM770 150q0 -14 11.5 -22t28.5 -8h60v50q0 14 -11.5 22t-28.5 8h-60v-50z" />
    <glyph glyph-name="sadyehhmz" unicode="&#xfebb;&#xfe8a;" horiz-adv-x="1220" 
d="M152 316q-5 4 -12.5 6.5t-14.5 2.5q-8 0 -13.5 -4t-5.5 -14q0 -8 7 -15t21 -7h38v-45h-124v45h24q-14 12 -14 31q0 23 18 36t42 13q14 0 28.5 -5.5t24.5 -13.5zM480 205q-23 0 -41.5 -14t-18.5 -41v-5h70q33 0 56.5 -23.5t23.5 -56.5v-40q0 -37 -14 -70t-38.5 -57.5
t-57.5 -38.5t-70 -14h-160q-37 0 -70 14t-57.5 38.5t-38.5 57.5t-14 70v120q0 8 6 14t14 6h80q8 0 14 -6t6 -14v-120q0 -31 23.5 -45.5t53.5 -14.5h143q22 0 41 18t19 42h-90q-24 0 -42 17.5t-18 42.5v47q0 44 15 79t41.5 59t61.5 37t75 13h212q19 0 24 -20l24 -116l112 116
q30 30 75 30h150q33 0 56.5 -23.5t23.5 -56.5v-170q0 -33 -23.5 -56.5t-56.5 -23.5h-399q-19 0 -24 20l-21 92l-20 93h-146zM837 120h213v90h-117z" />
    <glyph glyph-name="sadyehhmzf" unicode="&#xfebc;&#xfe8a;" horiz-adv-x="1220" 
d="M152 316q-5 4 -12.5 6.5t-14.5 2.5q-8 0 -13.5 -4t-5.5 -14q0 -8 7 -15t21 -7h38v-45h-124v45h24q-14 12 -14 31q0 23 18 36t42 13q14 0 28.5 -5.5t24.5 -13.5zM837 120h213v90h-117zM490 145q33 0 56.5 -23.5t23.5 -56.5v-40q0 -37 -14 -70t-38.5 -57.5t-57.5 -38.5
t-70 -14h-160q-37 0 -70 14t-57.5 38.5t-38.5 57.5t-14 70v120q0 8 6 14t14 6h80q8 0 14 -6t6 -14v-120q0 -32 25 -46t56 -14h139q22 0 41 18t19 42h-90q-24 0 -42 17.5t-18 42.5v47q0 44 15 79t41.5 59t61.5 37t75 13h212q19 0 24 -20l24 -116l112 116q30 30 75 30h150
q33 0 56.5 -23.5t23.5 -56.5v-130h50v-120h-529q-19 0 -24 20l-21 92l-20 93h-146q-23 0 -41.5 -14t-18.5 -41v-5h70z" />
    <glyph glyph-name="dadyehhmz" unicode="&#xfebf;&#xfe8a;" horiz-adv-x="1220" 
d="M825 445q0 19 16 32t39 13t39 -13t16 -32t-16 -32t-39 -13t-39 13t-16 32zM152 316q-5 4 -12.5 6.5t-14.5 2.5q-8 0 -13.5 -4t-5.5 -14q0 -8 7 -15t21 -7h38v-45h-124v45h24q-14 12 -14 31q0 23 18 36t42 13q14 0 28.5 -5.5t24.5 -13.5zM480 205q-23 0 -41.5 -14
t-18.5 -41v-5h70q33 0 56.5 -23.5t23.5 -56.5v-40q0 -37 -14 -70t-38.5 -57.5t-57.5 -38.5t-70 -14h-160q-37 0 -70 14t-57.5 38.5t-38.5 57.5t-14 70v120q0 8 6 14t14 6h80q8 0 14 -6t6 -14v-120q0 -31 23.5 -45.5t53.5 -14.5h143q22 0 41 18t19 42h-90q-24 0 -42 17.5
t-18 42.5v47q0 44 15 79t41.5 59t61.5 37t75 13h212q19 0 24 -20l24 -116l112 116q30 30 75 30h150q33 0 56.5 -23.5t23.5 -56.5v-170q0 -33 -23.5 -56.5t-56.5 -23.5h-399q-19 0 -24 20l-21 92l-20 93h-146zM837 120h213v90h-117z" />
    <glyph glyph-name="dadyehhmzf" unicode="&#xfec0;&#xfe8a;" horiz-adv-x="1220" 
d="M825 445q0 19 16 32t39 13t39 -13t16 -32t-16 -32t-39 -13t-39 13t-16 32zM152 316q-5 4 -12.5 6.5t-14.5 2.5q-8 0 -13.5 -4t-5.5 -14q0 -8 7 -15t21 -7h38v-45h-124v45h24q-14 12 -14 31q0 23 18 36t42 13q14 0 28.5 -5.5t24.5 -13.5zM837 120h213v90h-117zM490 145
q33 0 56.5 -23.5t23.5 -56.5v-40q0 -37 -14 -70t-38.5 -57.5t-57.5 -38.5t-70 -14h-160q-37 0 -70 14t-57.5 38.5t-38.5 57.5t-14 70v120q0 8 6 14t14 6h80q8 0 14 -6t6 -14v-120q0 -32 25 -46t56 -14h139q22 0 41 18t19 42h-90q-24 0 -42 17.5t-18 42.5v47q0 44 15 79
t41.5 59t61.5 37t75 13h212q19 0 24 -20l24 -116l112 116q30 30 75 30h150q33 0 56.5 -23.5t23.5 -56.5v-130h50v-120h-529q-19 0 -24 20l-21 92l-20 93h-146q-23 0 -41.5 -14t-18.5 -41v-5h70z" />
    <glyph glyph-name="alefmd" unicode="&#x622;" horiz-adv-x="220" arabic-form="isolated" 
d="M150 550q8 0 14 -6t6 -14v-510q0 -8 -6 -14t-14 -6h-80q-8 0 -14 6t-6 14v510q0 8 6 14t14 6h80zM185 604q-12 -9 -22.5 -12.5t-19.5 -3.5q-17 0 -31 6.5t-31 6.5q-10 0 -21 -4.5t-25 -16.5v41q14 12 25 16.5t21 4.5q17 0 31 -6.5t31 -6.5q9 0 19.5 3.5t22.5 12.5v-41z
" />
    <glyph glyph-name="alefhmz" unicode="&#x623;" horiz-adv-x="220" arabic-form="isolated" 
d="M150 550q8 0 14 -6t6 -14v-510q0 -8 -6 -14t-14 -6h-80q-8 0 -14 6t-6 14v510q0 8 6 14t14 6h80zM152 656q-5 4 -12.5 6.5t-14.5 2.5q-8 0 -13.5 -4t-5.5 -14q0 -8 7 -15t21 -7h38v-45h-124v45h24q-14 12 -14 31q0 23 18 36t42 13q14 0 28.5 -5.5t24.5 -13.5z" />
    <glyph glyph-name="wawhmz" unicode="&#x624;" horiz-adv-x="440" arabic-form="isolated" 
d="M99 -47q17 -7 42.5 -12.5t50.5 -5.5q15 0 29.5 3t25 10.5t17 20t6.5 31.5h-120q-42 0 -71 29t-29 71v60q0 44 15 76t40 53t58 31t69 10q41 0 82 -12.5t76 -37.5v-280q0 -45 -13 -78t-35 -54.5t-51.5 -32t-63.5 -10.5q-35 0 -77.5 10t-79.5 30zM270 120v83q-11 3 -21 5
t-20 2q-24 0 -41.5 -12.5t-17.5 -37.5v-40h100zM-38 0v0v0v0zM-38 0v0v0v0v0v0zM-38 0v0v0zM-38 0v0v0zM-38 0zM-38 0zM-38 0zM-38 0v0v0v0zM-38 0v0v0v0v0v0zM-38 0v0v0v0v0v0zM-38 0v0v0v0v0zM-38 0v0v0v0zM-38 0zM-38 0zM-38 0zM-38 0zM-38 0zM-38 0zM-38 0zM262 476
q-5 4 -12.5 6.5t-14.5 2.5q-8 0 -13.5 -4t-5.5 -14q0 -8 7 -15t21 -7h38v-45h-124v45h24q-14 12 -14 31q0 23 18 36t42 13q14 0 28.5 -5.5t24.5 -13.5z" />
    <glyph glyph-name="alefhmz2" unicode="&#x625;" horiz-adv-x="220" arabic-form="isolated" 
d="M150 550q8 0 14 -6t6 -14v-510q0 -8 -6 -14t-14 -6h-80q-8 0 -14 6t-6 14v510q0 8 6 14t14 6h80zM152 -84q-5 4 -12.5 6.5t-14.5 2.5q-8 0 -13.5 -4t-5.5 -14q0 -8 7 -15t21 -7h38v-45h-124v45h24q-14 12 -14 31q0 23 18 36t42 13q14 0 28.5 -5.5t24.5 -13.5z" />
    <glyph glyph-name="yehhmz" unicode="&#x626;" horiz-adv-x="670" arabic-form="isolated" 
d="M583 269q-38 11 -71 11t-57.5 -15.5t-24.5 -48.5v-36h110q33 0 56.5 -23.5t23.5 -56.5v-50q0 -37 -14 -70t-38.5 -57.5t-57.5 -38.5t-70 -14h-210q-37 0 -70 14t-57.5 38.5t-38.5 57.5t-14 70v120q0 8 6 14t14 6h80q8 0 14 -6t6 -14v-104q0 -30 13.5 -53t46.5 -23h210
q21 0 40.5 15t19.5 45v10h-130q-25 0 -42.5 17.5t-17.5 42.5v95q0 47 14.5 81t39 55.5t58 32t72.5 10.5q58 0 116 -19zM152 376q-5 4 -12.5 6.5t-14.5 2.5q-8 0 -13.5 -4t-5.5 -14q0 -8 7 -15t21 -7h38v-45h-124v45h24q-14 12 -14 31q0 23 18 36t42 13q14 0 28.5 -5.5
t24.5 -13.5z" />
    <glyph glyph-name="beh" unicode="&#x628;" horiz-adv-x="770" arabic-form="isolated" 
d="M330 -105q0 19 16 32t39 13t39 -13t16 -32t-16 -32t-39 -13t-39 13t-16 32zM720 80q0 -33 -23.5 -56.5t-56.5 -23.5h-510q-33 0 -56.5 23.5t-23.5 56.5v230q0 8 6 14t14 6h80q8 0 14 -6t6 -14v-190h430v190q0 8 6 14t14 6h80q8 0 14 -6t6 -14v-230z" />
    <glyph glyph-name="marbuta" unicode="&#x629;" horiz-adv-x="440" arabic-form="isolated" 
d="M230 440q0 19 16 32t39 13t39 -13t16 -32t-16 -32t-39 -13t-39 13t-16 32zM100 440q0 19 16 32t39 13t39 -13t16 -32t-16 -32t-39 -13t-39 13t-16 32zM50 0v175q0 40 16.5 69t43.5 48t61.5 28.5t70.5 9.5q39 0 78 -12.5t70 -35.5v-282h-340zM270 120v82q-24 8 -40 8
q-25 0 -42.5 -10.5t-17.5 -29.5v-50h100z" />
    <glyph glyph-name="teh" unicode="&#x62a;" horiz-adv-x="770" arabic-form="isolated" 
d="M395 440q0 19 16 32t39 13t39 -13t16 -32t-16 -32t-39 -13t-39 13t-16 32zM265 440q0 19 16 32t39 13t39 -13t16 -32t-16 -32t-39 -13t-39 13t-16 32zM720 80q0 -33 -23.5 -56.5t-56.5 -23.5h-510q-33 0 -56.5 23.5t-23.5 56.5v230q0 8 6 14t14 6h80q8 0 14 -6t6 -14
v-190h430v190q0 8 6 14t14 6h80q8 0 14 -6t6 -14v-230z" />
    <glyph glyph-name="theh" unicode="&#x62b;" horiz-adv-x="770" arabic-form="isolated" 
d="M265 425q0 19 16 32t39 13t39 -13t16 -32t-16 -32t-39 -13t-39 13t-16 32zM395 425q0 19 16 32t39 13t39 -13t16 -32t-16 -32t-39 -13t-39 13t-16 32zM330 525q0 19 16 32t39 13t39 -13t16 -32t-16 -32t-39 -13t-39 13t-16 32zM720 80q0 -33 -23.5 -56.5t-56.5 -23.5
h-510q-33 0 -56.5 23.5t-23.5 56.5v230q0 8 6 14t14 6h80q8 0 14 -6t6 -14v-190h430v190q0 8 6 14t14 6h80q8 0 14 -6t6 -14v-230z" />
    <glyph glyph-name="jeem" unicode="&#x62c;" horiz-adv-x="480" arabic-form="isolated" 
d="M260 -65q0 19 16 32t39 13t39 -13t16 -32t-16 -32t-39 -13t-39 13t-16 32zM261 120l-15 41q-8 23 -19 42t-26.5 31.5t-37.5 12.5q-17 0 -33 -6t-30 -16l-30 85q27 22 60.5 36t67.5 14q45 0 73.5 -24.5t48.5 -61t35.5 -78.5t35.5 -76h49v-120h-199q-35 0 -53 -20t-18 -43
q0 -20 10.5 -33.5t27.5 -21.5t38 -11.5t42 -3.5q18 0 34 2t28 5v-101q-38 -7 -78 -7q-48 0 -89 12t-70.5 35t-46 55.5t-16.5 74.5q0 35 13.5 67t38.5 56.5t58.5 39t74.5 14.5h26zM-17 0v0v0v0zM-17 0v0v0v0v0v0zM-17 0v0v0zM-17 0v0v0zM-17 0zM-17 0zM-17 0zM-17 0v0v0v0z
M-17 0v0v0v0v0v0zM-17 0v0v0v0v0v0zM-17 0v0v0v0v0zM-17 0v0v0v0zM-17 0zM-17 0zM-17 0zM-17 0zM-17 0zM-17 0zM-17 0zM-5 0v0v0v0zM-5 0v0v0v0v0v0zM-5 0v0v0zM-5 0v0v0zM-5 0zM-5 0zM-5 0zM-5 0v0v0v0zM-5 0v0v0v0v0v0zM-5 0v0v0v0v0v0zM-5 0v0v0v0v0zM-5 0v0v0v0zM-5 0z
M-5 0zM-5 0zM-5 0zM-5 0zM-5 0zM-5 0z" />
    <glyph glyph-name="khah" unicode="&#x62e;" horiz-adv-x="480" arabic-form="isolated" 
d="M135 455q0 19 16 32t39 13t39 -13t16 -32t-16 -32t-39 -13t-39 13t-16 32zM261 120l-15 41q-8 23 -19 42t-26.5 31.5t-37.5 12.5q-17 0 -33 -6t-30 -16l-30 85q27 22 60.5 36t67.5 14q45 0 73.5 -24.5t48.5 -61t35.5 -78.5t35.5 -76h49v-120h-199q-35 0 -53 -20t-18 -43
q0 -20 10.5 -33.5t27.5 -21.5t38 -11.5t42 -3.5q18 0 34 2t28 5v-101q-38 -7 -78 -7q-48 0 -89 12t-70.5 35t-46 55.5t-16.5 74.5q0 35 13.5 67t38.5 56.5t58.5 39t74.5 14.5h26zM-17 0v0v0v0zM-17 0v0v0v0v0v0zM-17 0v0v0zM-17 0v0v0zM-17 0zM-17 0zM-17 0zM-17 0v0v0v0z
M-17 0v0v0v0v0v0zM-17 0v0v0v0v0v0zM-17 0v0v0v0v0zM-17 0v0v0v0zM-17 0zM-17 0zM-17 0zM-17 0zM-17 0zM-17 0zM-17 0zM-5 0v0v0v0zM-5 0v0v0v0v0v0zM-5 0v0v0zM-5 0v0v0zM-5 0zM-5 0zM-5 0zM-5 0v0v0v0zM-5 0v0v0v0v0v0zM-5 0v0v0v0v0v0zM-5 0v0v0v0v0zM-5 0v0v0v0zM-5 0z
M-5 0zM-5 0zM-5 0zM-5 0zM-5 0zM-5 0z" />
    <glyph glyph-name="zal" unicode="&#x630;" horiz-adv-x="410" arabic-form="isolated" 
d="M100 485q0 19 16 32t39 13t39 -13t16 -32t-16 -32t-39 -13t-39 13t-16 32zM60 350q60 20 115 20q39 0 72.5 -10.5t58.5 -32.5t39.5 -56t14.5 -81v-170q0 -8 -6 -14t-14 -6h-300v120h200v70q0 36 -24.5 50.5t-58.5 14.5q-17 0 -35 -2.5t-36 -7.5z" />
    <glyph glyph-name="zain" unicode="&#x632;" horiz-adv-x="230" arabic-form="isolated" 
d="M75 445q0 19 16 32t39 13t39 -13t16 -32t-16 -32t-39 -13t-39 13t-16 32zM70 310q0 8 6 14t14 6h80q8 0 14 -6t6 -14v-310q0 -46 -13 -79t-35 -54.5t-51.5 -32t-63.5 -10.5q-35 0 -72.5 10.5t-74.5 30.5l29 88q20 -7 42.5 -13t44.5 -6q30 0 52 14t22 52v310z" />
    <glyph glyph-name="sheen" unicode="&#x634;" horiz-adv-x="920" arabic-form="isolated" 
d="M490 425q0 19 16 32t39 13t39 -13t16 -32t-16 -32t-39 -13t-39 13t-16 32zM620 425q0 19 16 32t39 13t39 -13t16 -32t-16 -32t-39 -13t-39 13t-16 32zM555 525q0 19 16 32t39 13t39 -13t16 -32t-16 -32t-39 -13t-39 13t-16 32zM350 -20v330q0 8 6 14t14 6h80q8 0 14 -6
t6 -14v-190h80v190q0 8 6 14t14 6h80q8 0 14 -6t6 -14v-190h80v190q0 8 6 14t14 6h80q8 0 14 -6t6 -14v-230q0 -33 -23.5 -56.5t-56.5 -23.5h-320v-60q0 -33 -23.5 -56.5t-56.5 -23.5h-160q-37 0 -70 14t-57.5 38.5t-38.5 57.5t-14 70v120q0 8 6 14t14 6h80q8 0 14 -6t6 -14
v-120q0 -25 17.5 -42.5t42.5 -17.5h120z" />
    <glyph glyph-name="dad" unicode="&#x636;" horiz-adv-x="920" arabic-form="isolated" 
d="M555 445q0 19 16 32t39 13t39 -13t16 -32t-16 -32t-39 -13t-39 13t-16 32zM470 215l95 85q16 14 34 22t41 8h150q33 0 56.5 -23.5t23.5 -56.5v-170q0 -33 -23.5 -56.5t-56.5 -23.5h-320v-60q0 -33 -23.5 -56.5t-56.5 -23.5h-160q-37 0 -70 14t-57.5 38.5t-38.5 57.5
t-14 70v120q0 8 6 14t14 6h80q8 0 14 -6t6 -14v-120q0 -25 17.5 -42.5t42.5 -17.5h120v330q0 8 6 14t14 6h80q8 0 14 -6t6 -14v-95zM514 120h236v90h-117z" />
    <glyph glyph-name="zah" unicode="&#x638;" horiz-adv-x="700" arabic-form="isolated" 
d="M405 445q0 19 16 32t39 13t39 -13t16 -32t-16 -32t-39 -13t-39 13t-16 32zM50 90q0 13 8.5 21.5t21.5 8.5h50v410q0 8 6 14t14 6h80q8 0 14 -6t6 -14v-292l70 62q16 14 34 22t41 8h175q33 0 56.5 -23.5t23.5 -56.5v-170q0 -33 -23.5 -56.5t-56.5 -23.5h-490
q-13 0 -21.5 8.5t-8.5 21.5v60zM269 120h261v90h-142z" />
    <glyph glyph-name="ghain" unicode="&#x63a;" horiz-adv-x="450" arabic-form="isolated" 
d="M185 445q0 19 16 32t39 13t39 -13t16 -32t-16 -32t-39 -13t-39 13t-16 32zM342 214q-16 8 -39 14.5t-46 6.5q-26 0 -44 -13t-18 -37q0 -12 5.5 -24.5t15.5 -22.5t24 -16.5t32 -6.5h128l-25 -115h-129q-35 0 -55.5 -20t-20.5 -43q0 -19 10 -32t26.5 -20.5t37 -10.5
t40.5 -3q40 0 66 8v-106q-38 -7 -78 -7q-48 0 -89 12t-70.5 35t-46 55.5t-16.5 74.5q0 45 21 83.5t59 62.5q-29 25 -42 54t-13 58q0 35 13.5 62t37 45t54 27t64.5 9q36 0 72.5 -10.5t68.5 -30.5z" />
    <glyph glyph-name="feh" unicode="&#x641;" horiz-adv-x="850" arabic-form="isolated" 
d="M576 445q0 19 16 32t39 13t39 -13t16 -32t-16 -32t-39 -13t-39 13t-16 32zM680 120v90h-58q-22 0 -37 -13t-15 -32q0 -18 15 -31.5t37 -13.5h58zM720 330q33 0 56.5 -23.5t23.5 -56.5v-230q0 -8 -6 -14t-14 -6h-650q-33 0 -56.5 23.5t-23.5 56.5v230q0 8 6 14t14 6h80
q8 0 14 -6t6 -14v-190h297q-9 18 -13 35.5t-4 34.5q0 30 12 55.5t33.5 44t51 29.5t63.5 11h110z" />
    <glyph glyph-name="qaf" unicode="&#x642;" horiz-adv-x="640" arabic-form="isolated" 
d="M430 480q0 19 16 32t39 13t39 -13t16 -32t-16 -32t-39 -13t-39 13t-16 32zM300 480q0 19 16 32t39 13t39 -13t16 -32t-16 -32t-39 -13t-39 13t-16 32zM410 -20q25 0 42.5 17.5t17.5 42.5h-130q-38 0 -64 26t-26 64v80q0 41 15.5 71.5t41.5 50t59.5 29t69.5 9.5
q41 0 81 -11.5t73 -33.5v-285q0 -37 -14 -70t-38.5 -57.5t-57.5 -38.5t-70 -14h-180q-37 0 -70 14t-57.5 38.5t-38.5 57.5t-14 70v150q0 8 6 14t14 6h80q8 0 14 -6t6 -14v-150q0 -25 17.5 -42.5t42.5 -17.5h180zM470 160v82q-24 8 -40 8q-25 0 -42.5 -10.5t-17.5 -29.5v-50
h100z" />
    <glyph glyph-name="noon" unicode="&#x646;" horiz-adv-x="520" arabic-form="isolated" 
d="M205 445q0 19 16 32t39 13t39 -13t16 -32t-16 -32t-39 -13t-39 13t-16 32zM470 -20q0 -33 -23.5 -56.5t-56.5 -23.5h-160q-37 0 -70 14t-57.5 38.5t-38.5 57.5t-14 70v130q0 8 6 14t14 6h80q8 0 14 -6t6 -14v-130q0 -25 17.5 -42.5t42.5 -17.5h120v290q0 8 6 14t14 6h80
q8 0 14 -6t6 -14v-330zM28 0v0v0v0zM28 0v0v0v0v0v0zM28 0v0v0zM28 0v0v0zM28 0zM28 0zM28 0zM28 0v0v0v0zM28 0v0v0v0v0v0zM28 0v0v0v0v0v0zM28 0v0v0v0v0zM28 0v0v0v0zM28 0zM28 0zM28 0zM28 0zM28 0zM28 0zM28 0zM28 0v0v0v0zM28 0v0v0v0v0v0zM28 0v0v0zM28 0v0v0zM28 0z
M28 0zM28 0zM28 0v0v0v0zM28 0v0v0v0v0v0zM28 0v0v0v0v0v0zM28 0v0v0v0v0zM28 0v0v0v0zM28 0zM28 0zM28 0zM28 0zM28 0zM28 0zM28 0z" />
    <glyph glyph-name="yeh" unicode="&#x64a;" horiz-adv-x="670" arabic-form="isolated" 
d="M345 -235q0 17 16 29t39 12t39 -12t16 -29t-16 -28.5t-39 -12t-39 11.5t-16 29zM215 -235q0 17 16 29t39 12t39 -12t16 -29t-16 -28.5t-39 -12t-39 11.5t-16 29zM583 269q-38 11 -71 11t-57.5 -15.5t-24.5 -48.5v-36h110q33 0 56.5 -23.5t23.5 -56.5v-50q0 -37 -14 -70
t-38.5 -57.5t-57.5 -38.5t-70 -14h-210q-37 0 -70 14t-57.5 38.5t-38.5 57.5t-14 70v120q0 8 6 14t14 6h80q8 0 14 -6t6 -14v-104q0 -30 13.5 -53t46.5 -23h210q21 0 40.5 15t19.5 45v10h-130q-25 0 -42.5 17.5t-17.5 42.5v95q0 47 14.5 81t39 55.5t58 32t72.5 10.5
q58 0 116 -19z" />
    <glyph glyph-name="sennan" unicode="&#x66e;" horiz-adv-x="260" 
d="M-30 90q0 13 8.5 21.5t21.5 8.5h90v190q0 8 6 14t14 6h80q8 0 14 -6t6 -14v-230q0 -33 -23.5 -56.5t-56.5 -23.5h-130q-13 0 -21.5 8.5t-8.5 21.5v60z" />
    <glyph glyph-name="sennam" unicode="&#x66e;" horiz-adv-x="300" 
d="M-30 90q0 13 8.5 21.5t21.5 8.5h90v190q0 8 6 14t14 6h80q8 0 14 -6t6 -14v-190h90v-120h-300q-13 0 -21.5 8.5t-8.5 21.5v60z" />
    <glyph glyph-name="behfc" unicode="&#x66e;" horiz-adv-x="770" 
d="M720 120h50v-120h-640q-33 0 -56.5 23.5t-23.5 56.5v230q0 8 6 14t14 6h80q8 0 14 -6t6 -14v-190h430v190q0 8 6 14t14 6h80q8 0 14 -6t6 -14v-190z" />
    <glyph glyph-name="uni066F.init" unicode="&#x66f;" horiz-adv-x="450" 
d="M-30 90q0 13 8.5 21.5t21.5 8.5h67q-9 18 -13 35.5t-4 34.5q0 30 12 55.5t33.5 44t51 29.5t63.5 11h110q33 0 56.5 -23.5t23.5 -56.5v-230q0 -8 -6 -14t-14 -6h-380q-13 0 -21.5 8.5t-8.5 21.5v60zM222 210q-22 0 -37 -13t-15 -32q0 -18 14.5 -31.5t37.5 -13.5h58v90h-58
z" />
    <glyph glyph-name="uni066F.medi" unicode="&#x66f;" horiz-adv-x="450" 
d="M280 120v90h-58q-22 0 -37 -13t-15 -32q0 -18 14.5 -31.5t37.5 -13.5h58zM320 330q33 0 56.5 -23.5t23.5 -56.5v-130h50v-120h-450q-13 0 -21.5 8.5t-8.5 21.5v60q0 13 8.5 21.5t21.5 8.5h67q-9 18 -13 35.5t-4 34.5q0 30 12 55.5t33.5 44t51 29.5t63.5 11h110z" />
    <glyph glyph-name="qaffc" unicode="&#x66f;" horiz-adv-x="640" 
d="M410 -60q25 0 42.5 17.5t17.5 42.5h-130q-38 0 -64 26t-26 64v80q0 41 15.5 71.5t41.5 50t59.5 29t69.5 9.5q41 0 81 -11.5t73 -33.5v-165h50v-120h-50q0 -37 -14 -70t-38.5 -57.5t-57.5 -38.5t-70 -14h-180q-37 0 -70 14t-57.5 38.5t-38.5 57.5t-14 70v150q0 8 6 14
t14 6h80q8 0 14 -6t6 -14v-150q0 -25 17.5 -42.5t42.5 -17.5h180zM470 120v82q-24 8 -40 8q-25 0 -42.5 -10.5t-17.5 -29.5v-50h100z" />
    <glyph glyph-name="wasl" unicode="&#x671;" horiz-adv-x="220" arabic-form="isolated" 
d="M150 550q8 0 14 -6t6 -14v-510q0 -8 -6 -14t-14 -6h-80q-8 0 -14 6t-6 14v510q0 8 6 14t14 6h80zM35 613h15v45q0 8 8 8h18q5 0 5.5 -3t0.5 -5v-13l12 12q8 8 19 8h44q8 0 14 -6.5t6 -15.5v-43q0 -8 -6 -14t-14 -6h-122v33zM88 613h57v20h-37z" />
    <glyph glyph-name="uni0679" unicode="&#x679;" horiz-adv-x="770" arabic-form="isolated" 
d="M720 80q0 -33 -23.5 -56.5t-56.5 -23.5h-510q-33 0 -56.5 23.5t-23.5 56.5v230q0 8 6 14t14 6h80q8 0 14 -6t6 -14v-190h430v190q0 8 6 14t14 6h80q8 0 14 -6t6 -14v-230zM320 433h15v107h32v-75l12 12q8 8 19 8h44q8 0 14 -6.5t6 -15.5v-43q0 -8 -6 -14t-14 -6h-122v33z
M373 433h57v20h-37z" />
    <glyph glyph-name="uni067E" unicode="&#x67e;" horiz-adv-x="770" arabic-form="isolated" 
d="M265 -95q0 19 16 32t39 13t39 -13t16 -32t-16 -32t-39 -13t-39 13t-16 32zM395 -95q0 19 16 32t39 13t39 -13t16 -32t-16 -32t-39 -13t-39 13t-16 32zM330 -195q0 19 16 32t39 13t39 -13t16 -32t-16 -32t-39 -13t-39 13t-16 32zM720 80q0 -33 -23.5 -56.5t-56.5 -23.5
h-510q-33 0 -56.5 23.5t-23.5 56.5v230q0 8 6 14t14 6h80q8 0 14 -6t6 -14v-190h430v190q0 8 6 14t14 6h80q8 0 14 -6t6 -14v-230z" />
    <glyph glyph-name="uni0686" unicode="&#x686;" horiz-adv-x="490" arabic-form="isolated" 
d="M269 -128q0 -26 0.5 -53t0.5 -53q-48 0 -88.5 12.5t-70 35.5t-45.5 55.5t-16 74.5q0 35 13.5 67t38.5 56t58.5 38.5t74.5 14.5h27q-8 19 -16 41.5t-19 41.5t-26.5 31.5t-37.5 12.5q-17 0 -33 -6t-30 -16l-30 85q27 22 60.5 36t67.5 14q30 0 52 -11.5t39 -30.5t30.5 -43.5
t24.5 -51.5l23 -54q11 -26 24 -49h49v-120h-190q-37 0 -58.5 -19.5t-21.5 -43.5q0 -17 8.5 -29t22.5 -20t31.5 -11.5t36.5 -4.5zM234 -65q0 19 14.5 32t34.5 13t35 -13t15 -32t-15 -32t-35 -13t-34.5 13t-14.5 32zM351 -65q0 19 14.5 32t34.5 13t35 -13t15 -32t-15 -32
t-35 -13t-34.5 13t-14.5 32zM292 -165q0 19 15 32t35 13t34.5 -13t14.5 -32t-14.5 -32t-34.5 -13t-35 13t-15 32z" />
    <glyph glyph-name="uni0688" unicode="&#x688;" horiz-adv-x="410" arabic-form="isolated" 
d="M60 350q60 20 115 20q39 0 72.5 -10.5t58.5 -32.5t39.5 -56t14.5 -81v-170q0 -8 -6 -14t-14 -6h-300v120h200v70q0 36 -24.5 50.5t-58.5 14.5q-17 0 -35 -2.5t-36 -7.5zM95 463h15v107h32v-75l12 12q8 8 19 8h44q8 0 14 -6.5t6 -15.5v-43q0 -8 -6 -14t-14 -6h-122v33z
M148 463h57v20h-37z" />
    <glyph glyph-name="uni0691" unicode="&#x691;" horiz-adv-x="230" arabic-form="isolated" 
d="M70 310q0 8 6 14t14 6h80q8 0 14 -6t6 -14v-310q0 -46 -13 -79t-35 -54.5t-51.5 -32t-63.5 -10.5q-35 0 -72.5 10.5t-74.5 30.5l29 88q20 -7 42.5 -13t44.5 -6q30 0 52 14t22 52v310zM39 433h15v107h32v-75l12 12q8 8 19 8h44q8 0 14 -6.5t6 -15.5v-43q0 -8 -6 -14
t-14 -6h-122v33zM92 433h57v20h-37z" />
    <glyph glyph-name="uni0698" unicode="&#x698;" horiz-adv-x="230" arabic-form="isolated" 
d="M7 425q0 19 14.5 32t35 13t35 -13t14.5 -32t-14.5 -32t-35 -13t-35 13t-14.5 32zM124 425q0 19 14.5 32t35 13t35 -13t14.5 -32t-14.5 -32t-35 -13t-35 13t-14.5 32zM65.5 525q0.5 19 14.5 32t35 13t35.5 -13t14.5 -32t-14.5 -32t-35.5 -13t-35.5 13t-14 32zM70 310
q0 8 6 14t14 6h80q8 0 14 -6t6 -14v-310q0 -46 -13 -79t-35 -54.5t-51.5 -32t-63.5 -10.5q-35 0 -72.5 10.5t-74.5 30.5l29 88q20 -7 42.5 -13t44.5 -6q30 0 52 14t22 52v310z" />
    <glyph glyph-name="uni069C.init" unicode="&#x69c;" horiz-adv-x="660" 
d="M230 425q0 19 16 32t39 13t39 -13t16 -32t-16 -32t-39 -13t-39 13t-16 32zM360 425q0 19 16 32t39 13t39 -13t16 -32t-16 -32t-39 -13t-39 13t-16 32zM295 525q0 19 16 32t39 13t39 -13t16 -32t-16 -32t-39 -13t-39 13t-16 32zM230 -95q0 19 16 32t39 13t39 -13t16 -32
t-16 -32t-39 -13t-39 13t-16 32zM360 -95q0 19 16 32t39 13t39 -13t16 -32t-16 -32t-39 -13t-39 13t-16 32zM295 -195q0 19 16 32t39 13t39 -13t16 -32t-16 -32t-39 -13t-39 13t-16 32zM90 120v190q0 8 6 14t14 6h80q8 0 14 -6t6 -14v-190h80v190q0 8 6 14t14 6h80
q8 0 14 -6t6 -14v-190h80v190q0 8 6 14t14 6h80q8 0 14 -6t6 -14v-230q0 -33 -23.5 -56.5t-56.5 -23.5h-530q-13 0 -21.5 8.5t-8.5 21.5v60q0 13 8.5 21.5t21.5 8.5h90z" />
    <glyph glyph-name="uni069C.medi" unicode="&#x69c;" horiz-adv-x="700" 
d="M230 425q0 19 16 32t39 13t39 -13t16 -32t-16 -32t-39 -13t-39 13t-16 32zM360 425q0 19 16 32t39 13t39 -13t16 -32t-16 -32t-39 -13t-39 13t-16 32zM295 525q0 19 16 32t39 13t39 -13t16 -32t-16 -32t-39 -13t-39 13t-16 32zM230 -95q0 19 16 32t39 13t39 -13t16 -32
t-16 -32t-39 -13t-39 13t-16 32zM360 -95q0 19 16 32t39 13t39 -13t16 -32t-16 -32t-39 -13t-39 13t-16 32zM295 -195q0 19 16 32t39 13t39 -13t16 -32t-16 -32t-39 -13t-39 13t-16 32zM0 0q-13 0 -21.5 8.5t-8.5 21.5v60q0 13 8.5 21.5t21.5 8.5h90v190q0 8 6 14t14 6h80
q8 0 14 -6t6 -14v-190h80v190q0 8 6 14t14 6h80q8 0 14 -6t6 -14v-190h80v190q0 8 6 14t14 6h80q8 0 14 -6t6 -14v-190h90v-120h-700z" />
    <glyph glyph-name="uni069C.fina" unicode="&#x69c;" horiz-adv-x="960" 
d="M490 425q0 19 16 32t39 13t39 -13t16 -32t-16 -32t-39 -13t-39 13t-16 32zM620 425q0 19 16 32t39 13t39 -13t16 -32t-16 -32t-39 -13t-39 13t-16 32zM555 525q0 19 16 32t39 13t39 -13t16 -32t-16 -32t-39 -13t-39 13t-16 32zM538 -95q0 19 16 32t39 13t39 -13t16 -32
t-16 -32t-39 -13t-39 13t-16 32zM668 -95q0 19 16 32t39 13t39 -13t16 -32t-16 -32t-39 -13t-39 13t-16 32zM603 -195q0 19 16 32t39 13t39 -13t16 -32t-16 -32t-39 -13t-39 13t-16 32zM470 -60q0 -33 -23.5 -56.5t-56.5 -23.5h-160q-37 0 -70 14t-57.5 38.5t-38.5 57.5
t-14 70v120q0 8 6 14t14 6h80q8 0 14 -6t6 -14v-120q0 -25 17.5 -42.5t42.5 -17.5h120v330q0 8 6 14t14 6h80q8 0 14 -6t6 -14v-190h80v190q0 8 6 14t14 6h80q8 0 14 -6t6 -14v-190h80v190q0 8 6 14t14 6h80q8 0 14 -6t6 -14v-190h90v-120h-490v-60z" />
    <glyph glyph-name="fehnc" unicode="&#x6a1;" horiz-adv-x="450" 
d="M-30 90q0 13 8.5 21.5t21.5 8.5h67q-9 18 -13 35.5t-4 34.5q0 30 12 55.5t33.5 44t51 29.5t63.5 11h110q33 0 56.5 -23.5t23.5 -56.5v-230q0 -8 -6 -14t-14 -6h-380q-13 0 -21.5 8.5t-8.5 21.5v60zM222 210q-22 0 -37 -13t-15 -32q0 -18 14.5 -31.5t37.5 -13.5h58v90h-58
z" />
    <glyph glyph-name="fehmc" unicode="&#x6a1;" horiz-adv-x="450" 
d="M280 120v90h-58q-22 0 -37 -13t-15 -32q0 -18 14.5 -31.5t37.5 -13.5h58zM320 330q33 0 56.5 -23.5t23.5 -56.5v-130h50v-120h-450q-13 0 -21.5 8.5t-8.5 21.5v60q0 13 8.5 21.5t21.5 8.5h67q-9 18 -13 35.5t-4 34.5q0 30 12 55.5t33.5 44t51 29.5t63.5 11h110z" />
    <glyph glyph-name="fehfc" unicode="&#x6a1;" horiz-adv-x="850" 
d="M680 120v90h-58q-22 0 -37 -13t-15 -32t15 -32t37 -13h58zM720 330q34 0 57 -24t23 -56v-130h50v-120h-720q-16 0 -30.5 6.5t-25.5 17t-17.5 25t-6.5 31.5v230q0 8 6 14t14 6h80q8 0 14 -6t6 -14v-190h297q-9 18 -13 35.5t-4 34.5q0 30 12 55.5t33.5 44t51 29.5t63.5 11
h110z" />
    <glyph glyph-name="uni06A2.init" unicode="&#x6a2;" horiz-adv-x="450" 
d="M170 -105q0 19 16 32t39 13t39 -13t16 -32t-16 -32t-39 -13t-39 13t-16 32zM-30 90q0 13 8.5 21.5t21.5 8.5h67q-9 18 -13 35.5t-4 34.5q0 30 12 55.5t33.5 44t51 29.5t63.5 11h110q33 0 56.5 -23.5t23.5 -56.5v-230q0 -8 -6 -14t-14 -6h-380q-13 0 -21.5 8.5t-8.5 21.5
v60zM222 210q-22 0 -37 -13t-15 -32q0 -18 14.5 -31.5t37.5 -13.5h58v90h-58z" />
    <glyph glyph-name="uni06A2.medi" unicode="&#x6a2;" horiz-adv-x="450" 
d="M170 -105q0 19 16 32t39 13t39 -13t16 -32t-16 -32t-39 -13t-39 13t-16 32zM280 120v90h-58q-22 0 -37 -13t-15 -32q0 -18 14.5 -31.5t37.5 -13.5h58zM320 330q33 0 56.5 -23.5t23.5 -56.5v-130h50v-120h-450q-13 0 -21.5 8.5t-8.5 21.5v60q0 13 8.5 21.5t21.5 8.5h67
q-9 18 -13 35.5t-4 34.5q0 30 12 55.5t33.5 44t51 29.5t63.5 11h110z" />
    <glyph glyph-name="uni06A2.fina" unicode="&#x6a2;" horiz-adv-x="850" 
d="M575 -105q0 19 16 32t39 13t39 -13t16 -32t-16 -32t-39 -13t-39 13t-16 32zM680 120v90h-58q-22 0 -37 -13t-15 -32t15 -32t37 -13h58zM720 330q34 0 57 -24t23 -56v-130h50v-120h-720q-16 0 -30.5 6.5t-25.5 17t-17.5 25t-6.5 31.5v230q0 8 6 14t14 6h80q8 0 14 -6
t6 -14v-190h297q-9 18 -13 35.5t-4 34.5q0 30 12 55.5t33.5 44t51 29.5t63.5 11h110z" />
    <glyph glyph-name="uni06A4" unicode="&#x6a4;" horiz-adv-x="850" arabic-form="isolated" 
d="M510 425q0 19 16 32t39 13t39 -13t16 -32t-16 -32t-39 -13t-39 13t-16 32zM640 425q0 19 16 32t39 13t39 -13t16 -32t-16 -32t-39 -13t-39 13t-16 32zM575 525q0 19 16 32t39 13t39 -13t16 -32t-16 -32t-39 -13t-39 13t-16 32zM680 120v90h-58q-22 0 -37 -13t-15 -32
q0 -18 15 -31.5t37 -13.5h58zM720 330q33 0 56.5 -23.5t23.5 -56.5v-230q0 -8 -6 -14t-14 -6h-650q-33 0 -56.5 23.5t-23.5 56.5v230q0 8 6 14t14 6h80q8 0 14 -6t6 -14v-190h297q-9 18 -13 35.5t-4 34.5q0 30 12 55.5t33.5 44t51 29.5t63.5 11h110z" />
    <glyph glyph-name="uni06A5.init" unicode="&#x6a5;" horiz-adv-x="450" 
d="M110 -95q0 19 16 32t39 13t39 -13t16 -32t-16 -32t-39 -13t-39 13t-16 32zM240 -95q0 19 16 32t39 13t39 -13t16 -32t-16 -32t-39 -13t-39 13t-16 32zM175 -195q0 19 16 32t39 13t39 -13t16 -32t-16 -32t-39 -13t-39 13t-16 32zM-30 90q0 13 8.5 21.5t21.5 8.5h67
q-9 18 -13 35.5t-4 34.5q0 30 12 55.5t33.5 44t51 29.5t63.5 11h110q33 0 56.5 -23.5t23.5 -56.5v-230q0 -8 -6 -14t-14 -6h-380q-13 0 -21.5 8.5t-8.5 21.5v60zM222 210q-22 0 -37 -13t-15 -32q0 -18 14.5 -31.5t37.5 -13.5h58v90h-58z" />
    <glyph glyph-name="uni06A5.medi" unicode="&#x6a5;" horiz-adv-x="450" 
d="M110 -95q0 19 16 32t39 13t39 -13t16 -32t-16 -32t-39 -13t-39 13t-16 32zM240 -95q0 19 16 32t39 13t39 -13t16 -32t-16 -32t-39 -13t-39 13t-16 32zM175 -195q0 19 16 32t39 13t39 -13t16 -32t-16 -32t-39 -13t-39 13t-16 32zM280 120v90h-58q-22 0 -37 -13t-15 -32
q0 -18 14.5 -31.5t37.5 -13.5h58zM320 330q33 0 56.5 -23.5t23.5 -56.5v-130h50v-120h-450q-13 0 -21.5 8.5t-8.5 21.5v60q0 13 8.5 21.5t21.5 8.5h67q-9 18 -13 35.5t-4 34.5q0 30 12 55.5t33.5 44t51 29.5t63.5 11h110z" />
    <glyph glyph-name="uni06A5.fina" unicode="&#x6a5;" horiz-adv-x="850" 
d="M510 -95q0 19 16 32t39 13t39 -13t16 -32t-16 -32t-39 -13t-39 13t-16 32zM640 -95q0 19 16 32t39 13t39 -13t16 -32t-16 -32t-39 -13t-39 13t-16 32zM575 -195q0 19 16 32t39 13t39 -13t16 -32t-16 -32t-39 -13t-39 13t-16 32zM680 120v90h-58q-22 0 -37 -13t-15 -32
t15 -32t37 -13h58zM720 330q34 0 57 -24t23 -56v-130h50v-120h-720q-16 0 -30.5 6.5t-25.5 17t-17.5 25t-6.5 31.5v230q0 8 6 14t14 6h80q8 0 14 -6t6 -14v-190h297q-9 18 -13 35.5t-4 34.5q0 30 12 55.5t33.5 44t51 29.5t63.5 11h110z" />
    <glyph glyph-name="uni06A7.fina" unicode="&#x6a7;" horiz-adv-x="640" 
d="M365 445q0 19 16 32t39 13t39 -13t16 -32t-16 -32t-39 -13t-39 13t-16 32zM410 -60q25 0 42.5 17.5t17.5 42.5h-130q-38 0 -64 26t-26 64v80q0 41 15.5 71.5t41.5 50t59.5 29t69.5 9.5q41 0 81 -11.5t73 -33.5v-165h50v-120h-50q0 -37 -14 -70t-38.5 -57.5t-57.5 -38.5
t-70 -14h-180q-37 0 -70 14t-57.5 38.5t-38.5 57.5t-14 70v150q0 8 6 14t14 6h80q8 0 14 -6t6 -14v-150q0 -25 17.5 -42.5t42.5 -17.5h180zM470 120v82q-24 8 -40 8q-25 0 -42.5 -10.5t-17.5 -29.5v-50h100z" />
    <glyph glyph-name="uni06A8.fina" unicode="&#x6a8;" horiz-adv-x="640" 
d="M300 425q0 19 16 32t39 13t39 -13t16 -32t-16 -32t-39 -13t-39 13t-16 32zM430 425q0 19 16 32t39 13t39 -13t16 -32t-16 -32t-39 -13t-39 13t-16 32zM365 525q0 19 16 32t39 13t39 -13t16 -32t-16 -32t-39 -13t-39 13t-16 32zM410 -60q25 0 42.5 17.5t17.5 42.5h-130
q-38 0 -64 26t-26 64v80q0 41 15.5 71.5t41.5 50t59.5 29t69.5 9.5q41 0 81 -11.5t73 -33.5v-165h50v-120h-50q0 -37 -14 -70t-38.5 -57.5t-57.5 -38.5t-70 -14h-180q-37 0 -70 14t-57.5 38.5t-38.5 57.5t-14 70v150q0 8 6 14t14 6h80q8 0 14 -6t6 -14v-150
q0 -25 17.5 -42.5t42.5 -17.5h180zM470 120v82q-24 8 -40 8q-25 0 -42.5 -10.5t-17.5 -29.5v-50h100z" />
    <glyph glyph-name="uni06A9" unicode="&#x6a9;" horiz-adv-x="920" arabic-form="isolated" 
d="M130 0q-33 0 -56.5 23.5t-23.5 56.5v210q0 8 6 14t14 6h80q8 0 14 -6t6 -14v-170h580v70h-416v120l251 252l85 -85l-167 -167h287q33 0 56.5 -23.5t23.5 -56.5v-150q0 -33 -23.5 -56.5t-56.5 -23.5h-660z" />
    <glyph glyph-name="uni06AF" unicode="&#x6af;" horiz-adv-x="920" arabic-form="isolated" 
d="M130 0q-33 0 -56.5 23.5t-23.5 56.5v210q0 8 6 14t14 6h80q8 0 14 -6t6 -14v-170h580v70h-416v120l251 252l85 -85l-167 -167h287q33 0 56.5 -23.5t23.5 -56.5v-150q0 -33 -23.5 -56.5t-56.5 -23.5h-660zM542 608l-244 -244l-37 51l237 237z" />
    <glyph glyph-name="uni06BA.init" unicode="&#x6ba;" horiz-adv-x="260" 
d="M95 445q0 19 16 32t39 13t39 -13t16 -32t-16 -32t-39 -13t-39 13t-16 32zM-30 90q0 13 8.5 21.5t21.5 8.5h90v190q0 8 6 14t14 6h80q8 0 14 -6t6 -14v-230q0 -33 -23.5 -56.5t-56.5 -23.5h-130q-13 0 -21.5 8.5t-8.5 21.5v60z" />
    <glyph glyph-name="uni06BA.medi" unicode="&#x6ba;" horiz-adv-x="300" 
d="M95 445q0 19 16 32t39 13t39 -13t16 -32t-16 -32t-39 -13t-39 13t-16 32zM-30 90q0 13 8.5 21.5t21.5 8.5h90v190q0 8 6 14t14 6h80q8 0 14 -6t6 -14v-190h90v-120h-300q-13 0 -21.5 8.5t-8.5 21.5v60z" />
    <glyph glyph-name="uni06BE" unicode="&#x6be;" horiz-adv-x="640" arabic-form="isolated" 
d="M20 90q0 13 8.5 21.5t21.5 8.5h57q-17 28 -17 66q0 28 11.5 54t32.5 46t51 32t67 12h53l-15 60q29 10 58.5 14.5t56.5 4.5q39 0 72.5 -10.5t58.5 -32t39.5 -55.5t14.5 -81v-210q0 -8 -6 -14t-14 -6h-520q-13 0 -21.5 8.5t-8.5 21.5v60zM470 230q0 36 -23.5 49.5
t-58.5 14.5q8 -9 12.5 -20t4.5 -24v-130h65v110zM290 120v90h-33q-21 0 -34 -13.5t-13 -31.5t13 -31.5t34 -13.5h33z" />
    <glyph glyph-name="uni06C0" unicode="&#x6c0;" horiz-adv-x="440" arabic-form="isolated" 
d="M50 0v175q0 40 16.5 69t43.5 48t61.5 28.5t70.5 9.5q39 0 78 -12.5t70 -35.5v-282h-340zM270 120v82q-24 8 -40 8q-25 0 -42.5 -10.5t-17.5 -29.5v-50h100zM262 476q-5 4 -12.5 6.5t-14.5 2.5q-8 0 -13.5 -4t-5.5 -14q0 -8 7 -15t21 -7h38v-45h-124v45h24q-14 12 -14 31
q0 23 18 36t42 13q14 0 28.5 -5.5t24.5 -13.5z" />
    <glyph glyph-name="uni06C1" unicode="&#x6c1;" horiz-adv-x="440" arabic-form="isolated" 
d="M50 0v175q0 40 16.5 69t43.5 48t61.5 28.5t70.5 9.5q39 0 78 -12.5t70 -35.5v-282h-340zM270 120v82q-24 8 -40 8q-25 0 -42.5 -10.5t-17.5 -29.5v-50h100z" />
    <glyph glyph-name="uni06C2.fina" unicode="&#x6c2;" horiz-adv-x="500" 
d="M339 476q-5 4 -12.5 6.5t-14.5 2.5q-8 0 -13.5 -4t-5.5 -14q0 -8 7 -15t21 -7h38v-45h-124v45h24q-14 12 -14 31q0 23 18 36t42 13q14 0 28.5 -5.5t24.5 -13.5zM410 0q-33 0 -56.5 23.5t-23.5 56.5v130h-67l-76 -190q-3 -8 -11.5 -14t-17.5 -6h-108l106 266
q11 29 36.5 46.5t57.5 17.5h180q8 0 14 -6t6 -14v-190h50v-120h-90z" />
    <glyph glyph-name="uni06C3.fina" unicode="&#x6c3;" horiz-adv-x="500" 
d="M308 440q0 19 16 32t39 13t39 -13t16 -32t-16 -32t-39 -13t-39 13t-16 32zM178 440q0 19 16 32t39 13t39 -13t16 -32t-16 -32t-39 -13t-39 13t-16 32zM410 0q-33 0 -56.5 23.5t-23.5 56.5v130h-67l-76 -190q-3 -8 -11.5 -14t-17.5 -6h-108l106 266q11 29 36.5 46.5
t57.5 17.5h180q8 0 14 -6t6 -14v-190h50v-120h-90z" />
    <glyph glyph-name="uni06CC" unicode="&#x6cc;" horiz-adv-x="670" arabic-form="isolated" 
d="M583 269q-38 11 -71 11t-57.5 -15.5t-24.5 -48.5v-36h110q33 0 56.5 -23.5t23.5 -56.5v-50q0 -37 -14 -70t-38.5 -57.5t-57.5 -38.5t-70 -14h-210q-37 0 -70 14t-57.5 38.5t-38.5 57.5t-14 70v120q0 8 6 14t14 6h80q8 0 14 -6t6 -14v-104q0 -30 13.5 -53t46.5 -23h210
q21 0 40.5 15t19.5 45v10h-130q-25 0 -42.5 17.5t-17.5 42.5v95q0 47 14.5 81t39 55.5t58 32t72.5 10.5q58 0 116 -19z" />
    <glyph glyph-name="uni06D2" unicode="&#x6d2;" horiz-adv-x="620" arabic-form="isolated" 
d="M390 -60q25 0 46.5 -9.5t38 -26t26 -38t9.5 -46.5h-380q-33 0 -56.5 23.5t-23.5 56.5v60q0 33 12.5 62t34.5 51t51 34.5t62 12.5h240v110q25 0 46.5 -9.5t38 -26t26 -38t9.5 -46.5v-90q0 -8 -6 -14t-14 -6h-340q-17 0 -28.5 -11.5t-11.5 -28.5v-20h220z" />
    <glyph glyph-name="uni06D3" unicode="&#x6d3;" horiz-adv-x="620" arabic-form="isolated" 
d="M302 316q-5 4 -12.5 6.5t-14.5 2.5q-8 0 -13.5 -4t-5.5 -14q0 -8 7 -15t21 -7h38v-45h-124v45h24q-14 12 -14 31q0 23 18 36t42 13q14 0 28.5 -5.5t24.5 -13.5zM390 -60q25 0 46.5 -9.5t38 -26t26 -38t9.5 -46.5h-380q-33 0 -56.5 23.5t-23.5 56.5v60q0 33 12.5 62
t34.5 51t51 34.5t62 12.5h240v110q25 0 46.5 -9.5t38 -26t26 -38t9.5 -46.5v-90q0 -8 -6 -14t-14 -6h-340q-17 0 -28.5 -11.5t-11.5 -28.5v-20h220z" />
    <glyph glyph-name="uni06D5.fina" unicode="&#x6d5;" horiz-adv-x="460" 
d="M460 0h-310q-54 0 -77 20.5t-23 52.5q0 24 12 54l55 139q11 28 36 46t57 18h180q8 0 14 -6t6 -14v-190h50v-120zM290 120v90h-67l-35 -90h102z" />
    <glyph glyph-name="waslf" unicode="&#x671;" horiz-adv-x="220" arabic-form="final" 
d="M150 550q8 0 14 -6t6 -14v-410h50v-120h-150q-8 0 -14 6t-6 14v510q0 8 6 14t14 6h80zM35 613h15v45q0 8 8 8h18q5 0 5.5 -3t0.5 -5v-13l12 12q8 8 19 8h44q8 0 14 -6.5t6 -15.5v-43q0 -8 -6 -14t-14 -6h-122v33zM88 613h57v20h-37z" />
    <glyph glyph-name="uni067E.fina" unicode="&#x67e;" horiz-adv-x="770" arabic-form="final" 
d="M265 -95q0 19 16 32t39 13t39 -13t16 -32t-16 -32t-39 -13t-39 13t-16 32zM395 -95q0 19 16 32t39 13t39 -13t16 -32t-16 -32t-39 -13t-39 13t-16 32zM330 -195q0 19 16 32t39 13t39 -13t16 -32t-16 -32t-39 -13t-39 13t-16 32zM720 120h50v-120h-640q-33 0 -56.5 23.5
t-23.5 56.5v230q0 8 6 14t14 6h80q8 0 14 -6t6 -14v-190h430v190q0 8 6 14t14 6h80q8 0 14 -6t6 -14v-190z" />
    <glyph glyph-name="uni067E.init" unicode="&#x67e;" horiz-adv-x="260" arabic-form="initial" 
d="M-20 -95q0 19 16 32t39 13t39 -13t16 -32t-16 -32t-39 -13t-39 13t-16 32zM110 -95q0 19 16 32t39 13t39 -13t16 -32t-16 -32t-39 -13t-39 13t-16 32zM45 -195q0 19 16 32t39 13t39 -13t16 -32t-16 -32t-39 -13t-39 13t-16 32zM-30 90q0 13 8.5 21.5t21.5 8.5h90v190
q0 8 6 14t14 6h80q8 0 14 -6t6 -14v-230q0 -33 -23.5 -56.5t-56.5 -23.5h-130q-13 0 -21.5 8.5t-8.5 21.5v60z" />
    <glyph glyph-name="uni067E.medi" unicode="&#x67e;" horiz-adv-x="300" arabic-form="medial" 
d="M5 -95q0 19 16 32t39 13t39 -13t16 -32t-16 -32t-39 -13t-39 13t-16 32zM135 -95q0 19 16 32t39 13t39 -13t16 -32t-16 -32t-39 -13t-39 13t-16 32zM70 -195q0 19 16 32t39 13t39 -13t16 -32t-16 -32t-39 -13t-39 13t-16 32zM-30 90q0 13 8.5 21.5t21.5 8.5h90v190
q0 8 6 14t14 6h80q8 0 14 -6t6 -14v-190h90v-120h-300q-13 0 -21.5 8.5t-8.5 21.5v60z" />
    <glyph glyph-name="uni0679.fina" unicode="&#x679;" horiz-adv-x="770" arabic-form="final" 
d="M720 120h50v-120h-640q-33 0 -56.5 23.5t-23.5 56.5v230q0 8 6 14t14 6h80q8 0 14 -6t6 -14v-190h430v190q0 8 6 14t14 6h80q8 0 14 -6t6 -14v-190zM320 433h15v107h32v-75l12 12q8 8 19 8h44q8 0 14 -6.5t6 -15.5v-43q0 -8 -6 -14t-14 -6h-122v33zM373 433h57v20h-37z
" />
    <glyph glyph-name="uni0679.init" unicode="&#x679;" horiz-adv-x="260" arabic-form="initial" 
d="M-30 90q0 13 8.5 21.5t21.5 8.5h90v190q0 8 6 14t14 6h80q8 0 14 -6t6 -14v-230q0 -33 -23.5 -56.5t-56.5 -23.5h-130q-13 0 -21.5 8.5t-8.5 21.5v60zM65 433h15v107h32v-75l12 12q8 8 19 8h44q8 0 14 -6.5t6 -15.5v-43q0 -8 -6 -14t-14 -6h-122v33zM118 433h57v20h-37z
" />
    <glyph glyph-name="uni0679.medi" unicode="&#x679;" horiz-adv-x="300" arabic-form="medial" 
d="M-30 90q0 13 8.5 21.5t21.5 8.5h90v190q0 8 6 14t14 6h80q8 0 14 -6t6 -14v-190h90v-120h-300q-13 0 -21.5 8.5t-8.5 21.5v60zM65 433h15v107h32v-75l12 12q8 8 19 8h44q8 0 14 -6.5t6 -15.5v-43q0 -8 -6 -14t-14 -6h-122v33zM118 433h57v20h-37z" />
    <glyph glyph-name="uni06A4.fina" unicode="&#x6a4;" horiz-adv-x="850" arabic-form="final" 
d="M510 425q0 19 16 32t39 13t39 -13t16 -32t-16 -32t-39 -13t-39 13t-16 32zM640 425q0 19 16 32t39 13t39 -13t16 -32t-16 -32t-39 -13t-39 13t-16 32zM575 525q0 19 16 32t39 13t39 -13t16 -32t-16 -32t-39 -13t-39 13t-16 32zM680 120v90h-58q-22 0 -37 -13t-15 -32
t15 -32t37 -13h58zM720 330q34 0 57 -24t23 -56v-130h50v-120h-720q-16 0 -30.5 6.5t-25.5 17t-17.5 25t-6.5 31.5v230q0 8 6 14t14 6h80q8 0 14 -6t6 -14v-190h297q-9 18 -13 35.5t-4 34.5q0 30 12 55.5t33.5 44t51 29.5t63.5 11h110z" />
    <glyph glyph-name="uni06A4.init" unicode="&#x6a4;" horiz-adv-x="450" arabic-form="initial" 
d="M105 425q0 19 16 32t39 13t39 -13t16 -32t-16 -32t-39 -13t-39 13t-16 32zM235 425q0 19 16 32t39 13t39 -13t16 -32t-16 -32t-39 -13t-39 13t-16 32zM170 525q0 19 16 32t39 13t39 -13t16 -32t-16 -32t-39 -13t-39 13t-16 32zM-30 90q0 13 8.5 21.5t21.5 8.5h67
q-9 18 -13 35.5t-4 34.5q0 30 12 55.5t33.5 44t51 29.5t63.5 11h110q33 0 56.5 -23.5t23.5 -56.5v-230q0 -8 -6 -14t-14 -6h-380q-13 0 -21.5 8.5t-8.5 21.5v60zM222 210q-22 0 -37 -13t-15 -32q0 -18 14.5 -31.5t37.5 -13.5h58v90h-58z" />
    <glyph glyph-name="uni06A4.medi" unicode="&#x6a4;" horiz-adv-x="450" arabic-form="medial" 
d="M105 425q0 19 16 32t39 13t39 -13t16 -32t-16 -32t-39 -13t-39 13t-16 32zM235 425q0 19 16 32t39 13t39 -13t16 -32t-16 -32t-39 -13t-39 13t-16 32zM170 525q0 19 16 32t39 13t39 -13t16 -32t-16 -32t-39 -13t-39 13t-16 32zM280 120v90h-58q-22 0 -37 -13t-15 -32
q0 -18 14.5 -31.5t37.5 -13.5h58zM320 330q33 0 56.5 -23.5t23.5 -56.5v-130h50v-120h-450q-13 0 -21.5 8.5t-8.5 21.5v60q0 13 8.5 21.5t21.5 8.5h67q-9 18 -13 35.5t-4 34.5q0 30 12 55.5t33.5 44t51 29.5t63.5 11h110z" />
    <glyph glyph-name="uni0686.fina" unicode="&#x686;" horiz-adv-x="470" arabic-form="final" 
d="M269 -128q0 -26 0.5 -53t0.5 -53q-48 0 -88.5 12.5t-70 35.5t-45.5 55.5t-16 74.5q0 35 13.5 67t38.5 56t58.5 38.5t74.5 14.5h27q-8 19 -16 41.5t-19 41.5t-26.5 31.5t-37.5 12.5q-17 0 -33 -6t-30 -16l-30 85q27 22 60.5 36t67.5 14q30 0 52 -11.5t39 -30.5t30.5 -43.5
t24.5 -51.5l23 -54q11 -26 24 -49h79v-120h-220q-37 0 -58.5 -19.5t-21.5 -43.5q0 -17 8.5 -29t22.5 -20t31.5 -11.5t36.5 -4.5zM234 -65q0 19 14.5 32t34.5 13t35 -13t15 -32t-15 -32t-35 -13t-34.5 13t-14.5 32zM351 -65q0 19 14.5 32t34.5 13t35 -13t15 -32t-15 -32
t-35 -13t-34.5 13t-14.5 32zM292 -165q0 19 15 32t35 13t34.5 -13t14.5 -32t-14.5 -32t-34.5 -13t-35 13t-15 32z" />
    <glyph glyph-name="uni0686.init" unicode="&#x686;" horiz-adv-x="440" arabic-form="initial" 
d="M100 -95q0 19 16 32t39 13t39 -13t16 -32t-16 -32t-39 -13t-39 13t-16 32zM230 -95q0 19 16 32t39 13t39 -13t16 -32t-16 -32t-39 -13t-39 13t-16 32zM165 -195q0 19 16 32t39 13t39 -13t16 -32t-16 -32t-39 -13t-39 13t-16 32zM-30 90q0 13 8.5 21.5t21.5 8.5h222
q-8 19 -16 41.5t-19 41.5t-26.5 31.5t-37.5 12.5q-17 0 -33 -6t-30 -16l-30 85q27 22 60.5 36t67.5 14q46 0 74.5 -24.5t48 -61t35 -78.5t35.5 -76h49v-120h-400q-13 0 -21.5 8.5t-8.5 21.5v60z" />
    <glyph glyph-name="uni0686.medi" unicode="&#x686;" horiz-adv-x="400" arabic-form="medial" 
d="M100 -95q0 19 16 32t39 13t39 -13t16 -32t-16 -32t-39 -13t-39 13t-16 32zM230 -95q0 19 16 32t39 13t39 -13t16 -32t-16 -32t-39 -13t-39 13t-16 32zM165 -195q0 19 16 32t39 13t39 -13t16 -32t-16 -32t-39 -13t-39 13t-16 32zM-30 90q0 13 8.5 21.5t21.5 8.5h222
q-8 19 -16 41.5t-19 41.5t-26.5 31.5t-37.5 12.5q-17 0 -33 -6t-30 -16l-30 85q27 22 60.5 36t67.5 14q46 0 74.5 -24.5t48 -61t35 -78.5t35.5 -76h49v-120h-400q-13 0 -21.5 8.5t-8.5 21.5v60z" />
    <glyph glyph-name="uni0688.fina" unicode="&#x688;" horiz-adv-x="410" arabic-form="final" 
d="M40 120h200v70q0 36 -24.5 50.5t-58.5 14.5q-17 0 -35 -2.5t-36 -7.5l-26 105q60 20 115 20q39 0 72.5 -10.5t58.5 -32.5t39.5 -56t14.5 -81v-70h50v-120h-370v120zM95 463h15v107h32v-75l12 12q8 8 19 8h44q8 0 14 -6.5t6 -15.5v-43q0 -8 -6 -14t-14 -6h-122v33z
M148 463h57v20h-37z" />
    <glyph glyph-name="uni0698.fina" unicode="&#x698;" horiz-adv-x="240" arabic-form="final" 
d="M7 425q0 19 14.5 32t35 13t35 -13t14.5 -32t-14.5 -32t-35 -13t-35 13t-14.5 32zM124 425q0 19 14.5 32t35 13t35 -13t14.5 -32t-14.5 -32t-35 -13t-35 13t-14.5 32zM65.5 525q0.5 19 14.5 32t35 13t35.5 -13t14.5 -32t-14.5 -32t-35.5 -13t-35.5 13t-14 32zM-90 -46
q19 -7 42 -13t45 -6q29 0 51 14t22 51v310q0 8 6 14t14 6h80q8 0 14 -6t6 -14v-190h50v-120h-50q0 -46 -13 -79t-35 -54.5t-51.5 -31.5t-63.5 -10q-35 0 -72.5 10t-74.5 30z" />
    <glyph glyph-name="uni0691.fina" unicode="&#x691;" horiz-adv-x="240" arabic-form="final" 
d="M-90 -46q19 -7 42 -13t45 -6q29 0 51 14t22 51v310q0 8 6 14t14 6h80q8 0 14 -6t6 -14v-190h50v-120h-50q0 -46 -13 -79t-35 -54.5t-51.5 -31.5t-63.5 -10q-35 0 -72.5 10t-74.5 30zM39 433h15v107h32v-75l12 12q8 8 19 8h44q8 0 14 -6.5t6 -15.5v-43q0 -8 -6 -14t-14 -6
h-122v33zM92 433h57v20h-37z" />
    <glyph glyph-name="uni06A9.fina" unicode="&#x6a9;" horiz-adv-x="920" arabic-form="final" 
d="M130 0q-33 0 -56.5 23.5t-23.5 56.5v210q0 8 6 14t14 6h80q8 0 14 -6t6 -14v-170h580v70h-416v120l251 252l85 -85l-167 -167h287q33 0 56.5 -23.5t23.5 -56.5v-110h50v-120h-790z" />
    <glyph glyph-name="uni06A9.init" unicode="&#x6a9;" horiz-adv-x="410" arabic-form="initial" 
d="M0 0q-13 0 -21.5 8.5t-8.5 21.5v60q0 13 8.5 21.5t21.5 8.5h240v45q0 21 -7 35t-19 23t-28 13t-33 4q-32 0 -62 -11l-23 51l-24 50l241 242l85 -85l-143 -144q58 -12 95.5 -54t37.5 -124v-145q0 -8 -6 -14t-14 -6h-340z" />
    <glyph glyph-name="uni06A9.medi" unicode="&#x6a9;" horiz-adv-x="410" arabic-form="medial" 
d="M0 0q-13 0 -21.5 8.5t-8.5 21.5v60q0 13 8.5 21.5t21.5 8.5h240v45q0 21 -7 35t-19 23t-28 13t-33 4q-32 0 -62 -11l-23 51l-24 50l241 242l85 -85l-143 -144q58 -12 95.5 -54t37.5 -124v-45h50v-120h-410z" />
    <glyph glyph-name="uni06AF.fina" unicode="&#x6af;" horiz-adv-x="920" arabic-form="final" 
d="M130 0q-33 0 -56.5 23.5t-23.5 56.5v210q0 8 6 14t14 6h80q8 0 14 -6t6 -14v-170h580v70h-416v120l251 252l85 -85l-167 -167h287q33 0 56.5 -23.5t23.5 -56.5v-110h50v-120h-790zM542 608l-244 -244l-37 51l237 237z" />
    <glyph glyph-name="uni06AF.init" unicode="&#x6af;" horiz-adv-x="410" arabic-form="initial" 
d="M0 0q-13 0 -21.5 8.5t-8.5 21.5v60q0 13 8.5 21.5t21.5 8.5h240v45q0 21 -7 35t-19 23t-28 13t-33 4q-32 0 -62 -11l-23 51l-24 50l241 242l85 -85l-143 -144q58 -12 95.5 -54t37.5 -124v-145q0 -8 -6 -14t-14 -6h-340zM249 613l-244 -244l-37 51l237 237z" />
    <glyph glyph-name="uni06AF.medi" unicode="&#x6af;" horiz-adv-x="410" arabic-form="medial" 
d="M0 0q-13 0 -21.5 8.5t-8.5 21.5v60q0 13 8.5 21.5t21.5 8.5h240v45q0 21 -7 35t-19 23t-28 13t-33 4q-32 0 -62 -11l-23 51l-24 50l241 242l85 -85l-143 -144q58 -12 95.5 -54t37.5 -124v-45h50v-120h-410zM249 613l-244 -244l-37 51l237 237z" />
    <glyph glyph-name="noonfc" unicode="&#x6ba;" horiz-adv-x="520" arabic-form="final" 
d="M470 120h50v-120h-50v-70q0 -33 -23.5 -56.5t-56.5 -23.5h-160q-37 0 -70 14t-57.5 38.5t-38.5 57.5t-14 70v155q0 8 6 14t14 6h80q8 0 14 -6t6 -14v-155q0 -17 6.5 -28.5t17 -18.5t24 -10t27.5 -3h105v340q0 8 6 14t14 6h80q8 0 14 -6t6 -14v-190z" />
    <glyph glyph-name="uni06C0.fina" unicode="&#x6c0;" horiz-adv-x="460" arabic-form="final" 
d="M460 0h-310q-54 0 -77 20.5t-23 52.5q0 24 12 54l55 139q11 28 36 46t57 18h180q8 0 14 -6t6 -14v-190h50v-120zM290 120v90h-67l-35 -90h102zM302 476q-5 4 -12.5 6.5t-14.5 2.5q-8 0 -13.5 -4t-5.5 -14q0 -8 7 -15t21 -7h38v-45h-124v45h24q-14 12 -14 31q0 23 18 36
t42 13q14 0 28.5 -5.5t24.5 -13.5z" />
    <glyph glyph-name="uni06C1.fina" unicode="&#x6c1;" horiz-adv-x="500" arabic-form="final" 
d="M410 0q-33 0 -56.5 23.5t-23.5 56.5v130h-67l-76 -190q-3 -8 -11.5 -14t-17.5 -6h-108l106 266q11 29 36.5 46.5t57.5 17.5h180q8 0 14 -6t6 -14v-190h50v-120h-90z" />
    <glyph glyph-name="uni06C1.init" unicode="&#x6c1;" horiz-adv-x="470" arabic-form="initial" 
d="M-30 90q0 13 8.5 21.5t21.5 8.5h90v140q0 8 6 14t14 6h80q8 0 14 -6t6 -14v-140h90v190q0 8 6 14t14 6h80q8 0 14 -6t6 -14v-230q0 -33 -23.5 -56.5t-56.5 -23.5h-72q-11 -18 -19 -37t-8 -39q0 -17 6.5 -32.5t21.5 -31.5l-25 -32l-9.5 -14.5l-9.5 -14.5l-25 -33
q-22 20 -32 50t-10 63t10 65t29 56h-197q-13 0 -21.5 8.5t-8.5 21.5v60z" />
    <glyph glyph-name="uni06C1.medi" unicode="&#x6c1;" horiz-adv-x="340" arabic-form="medial" 
d="M193 280q-33 -107 -33 -204q0 -39 5 -75t15 -71q0 4 -0.5 7.5t-0.5 7.5q0 91 31.5 133t79.5 42h50v-120h-40q-38 0 -54.5 -22.5t-16.5 -54.5q0 -18 4.5 -37t13.5 -36l-120 -60q-30 52 -48.5 104t-26.5 106h-52q-13 0 -21.5 8.5t-8.5 21.5v60q0 13 8.5 21.5t21.5 8.5h47
q1 18 4.5 48.5t10 59.5t16 50.5t23.5 21.5h75q8 0 12.5 -6t4.5 -14z" />
    <glyph glyph-name="hehf2" unicode="&#x6be;" horiz-adv-x="680" arabic-form="final" 
d="M40 90q0 13 8.5 21.5t21.5 8.5h57q-8 14 -12 30.5t-4 33.5q0 29 11 55.5t32 46.5t50.5 32t67.5 12h53l-15 60q29 10 58.5 14.5t56.5 4.5q39 0 72.5 -10.5t58.5 -32t39.5 -55.5t14.5 -81v-110h70v-120h-610q-13 0 -21.5 8.5t-8.5 21.5v60zM490 230q0 35 -23.5 49t-58.5 16
q8 -10 12.5 -21t4.5 -24v-130h65v110zM277 210q-21 0 -34 -13.5t-13 -31.5q0 -17 12 -31t32 -14h36v90h-33z" />
    <glyph glyph-name="uni06BE.init" unicode="&#x6be;" horiz-adv-x="600" arabic-form="initial" 
d="M-30 90q0 13 8.5 21.5t21.5 8.5h67q-17 28 -17 66q0 28 11.5 54t32.5 46t51 32t67 12h53l-15 60q29 10 58.5 14.5t56.5 4.5q39 0 72.5 -10.5t58.5 -32t39.5 -55.5t14.5 -81v-210q0 -8 -6 -14t-14 -6h-530q-13 0 -21.5 8.5t-8.5 21.5v60zM430 230q0 36 -23.5 49.5
t-58.5 14.5q8 -9 12.5 -20t4.5 -24v-130h65v110zM250 120v90h-33q-21 0 -34 -13.5t-13 -31.5t13 -31.5t34 -13.5h33z" />
    <glyph glyph-name="uni06BE.medi" unicode="&#x6be;" horiz-adv-x="600" arabic-form="medial" 
d="M-30 90q0 13 8.5 21.5t21.5 8.5h67q-17 28 -17 66q0 28 11.5 54t32.5 46t51 32t67 12h53l-15 60q29 10 58.5 14.5t56.5 4.5q39 0 72.5 -10.5t58.5 -32t39.5 -55.5t14.5 -81v-110h50v-120h-600q-13 0 -21.5 8.5t-8.5 21.5v60zM430 230q0 36 -23.5 49.5t-58.5 14.5
q8 -9 12.5 -20t4.5 -24v-130h65v110zM250 120v90h-33q-21 0 -34 -13.5t-13 -31.5t13 -31.5t34 -13.5h33z" />
    <glyph glyph-name="uni06D2.fina" unicode="&#x6d2;" horiz-adv-x="560" arabic-form="final" 
d="M170 -60h220q25 0 46.5 -9.5t38 -26t26 -38t9.5 -46.5h-380q-33 0 -56.5 23.5t-23.5 56.5v60q0 33 12.5 62t34.5 51t51 34.5t62 12.5h350v-120h-350q-17 0 -28.5 -11.5t-11.5 -28.5v-20z" />
    <glyph glyph-name="uni06D3.fina" unicode="&#x6d3;" horiz-adv-x="560" arabic-form="final" 
d="M302 316q-5 4 -12.5 6.5t-14.5 2.5q-8 0 -13.5 -4t-5.5 -14q0 -8 7 -15t21 -7h38v-45h-124v45h24q-14 12 -14 31q0 23 18 36t42 13q14 0 28.5 -5.5t24.5 -13.5zM170 -60h220q25 0 46.5 -9.5t38 -26t26 -38t9.5 -46.5h-380q-33 0 -56.5 23.5t-23.5 56.5v60q0 33 12.5 62
t34.5 51t51 34.5t62 12.5h350v-120h-350q-17 0 -28.5 -11.5t-11.5 -28.5v-20z" />
    <glyph glyph-name="maksuran" unicode="&#x649;" horiz-adv-x="260" arabic-form="initial" 
d="M-30 90q0 13 8.5 21.5t21.5 8.5h90v190q0 8 6 14t14 6h80q8 0 14 -6t6 -14v-230q0 -33 -23.5 -56.5t-56.5 -23.5h-130q-13 0 -21.5 8.5t-8.5 21.5v60z" />
    <glyph glyph-name="maksuram" unicode="&#x649;" horiz-adv-x="300" arabic-form="medial" 
d="M-30 90q0 13 8.5 21.5t21.5 8.5h90v190q0 8 6 14t14 6h80q8 0 14 -6t6 -14v-190h90v-120h-300q-13 0 -21.5 8.5t-8.5 21.5v60z" />
    <glyph glyph-name="uni06CC.fina" unicode="&#x6cc;" horiz-adv-x="550" arabic-form="final" 
d="M240 -180q-39 0 -74 15t-60.5 40.5t-40.5 60.5t-15 74v110q0 8 6 14t14 6h80q8 0 14 -6t6 -14v-110q0 -29 20.5 -49.5t49.5 -20.5h208l-149 140q-17 17 -17 38q0 22 16.5 38.5t38.5 16.5q23 0 39 -16l37 -37h137v-120h-23l23 -23q16 -16 23 -33.5t7 -34.5q0 -18 -7 -34
t-19 -28t-28.5 -19.5t-35.5 -7.5h-250z" />
    <glyph glyph-name="uni06CC.init" unicode="&#x6cc;" horiz-adv-x="260" arabic-form="initial" 
d="M108 -110q0 19 16 32t39 13t39 -13t16 -32t-16 -32t-39 -13t-39 13t-16 32zM-22 -110q0 19 16 32t39 13t39 -13t16 -32t-16 -32t-39 -13t-39 13t-16 32zM-30 90q0 13 8.5 21.5t21.5 8.5h90v190q0 8 6 14t14 6h80q8 0 14 -6t6 -14v-230q0 -33 -23.5 -56.5t-56.5 -23.5
h-130q-13 0 -21.5 8.5t-8.5 21.5v60z" />
    <glyph glyph-name="uni0651064C" unicode="&#xfc5e;" arabic-form="isolated" 
d="M-10 162q33 18 49 42q-2 0 -4.5 -0.5t-3.5 -0.5q-21 0 -37 12.5t-16 37.5t17 37t33 12q22 0 36 -15.5t14 -35.5q0 -10 -4 -23.5t-13 -29t-23.5 -31t-36.5 -26.5zM-40 171q-19 18 -27.5 38.5t-8.5 41.5q0 36 20 65l22 -14q-16 -24 -16 -49q0 -18 8 -35t26 -30zM54 233
q3 9 3 17q0 11 -8 19.5t-20 8.5q-7 0 -16 -6t-9 -19t9.5 -18.5t21 -5.5t19.5 4zM15 104q-1 -5 -1 -8v-8q0 -21 7.5 -31.5t13.5 -10.5t10.5 8t4.5 29q0 5 -0.5 11.5t-1.5 13.5l29 5q1 -5 1.5 -11.5t0.5 -14.5q0 -12 -2 -25t-7 -23.5t-13.5 -17t-21.5 -6.5q-8 0 -17 5t-14 13
q-6 -13 -16 -20t-20 -7q-17 0 -31.5 13.5t-14.5 43.5q0 11 3 25l30 5q-3 -15 -3 -26q0 -32 16 -32q7 0 14 10.5t7 30.5v11q0 5 -2 12z" />
    <glyph glyph-name="uni0651064D" unicode="&#xfc5f;" arabic-form="isolated" 
d="M-88 46l177 28v-28l-177 -29v29zM-88 103l177 29v-29l-177 -28v28zM15 259q-1 -5 -1 -8v-8q0 -21 7.5 -31.5t13.5 -10.5t10.5 8t4.5 29q0 5 -0.5 11.5t-1.5 13.5l29 5q1 -5 1.5 -11.5t0.5 -14.5q0 -12 -2 -25t-7 -23.5t-13.5 -17t-21.5 -6.5q-8 0 -17 5t-14 13
q-6 -13 -16 -20t-20 -7q-17 0 -31.5 13.5t-14.5 43.5q0 11 3 25l30 5q-3 -15 -3 -26q0 -32 16 -32q7 0 14 10.5t7 30.5v11q0 5 -2 12z" />
    <glyph glyph-name="uni0651064E" unicode="&#xfc60;" arabic-form="isolated" 
d="M-89 171l177 28v-28l-177 -28v28zM15 104q-1 -5 -1 -8v-8q0 -21 7.5 -31.5t13.5 -10.5t10.5 8t4.5 29q0 5 -0.5 11.5t-1.5 13.5l29 5q1 -5 1.5 -11.5t0.5 -14.5q0 -12 -2 -25t-7 -23.5t-13.5 -17t-21.5 -6.5q-8 0 -17 5t-14 13q-6 -13 -16 -20t-20 -7q-17 0 -31.5 13.5
t-14.5 43.5q0 11 3 25l30 5q-3 -15 -3 -26q0 -32 16 -32q7 0 14 10.5t7 30.5v11q0 5 -2 12z" />
    <glyph glyph-name="uni0651064F" unicode="&#xfc61;" arabic-form="isolated" 
d="M-41 156q18 10 31 21t21 23q-4 -1 -10 -1q-22 0 -37.5 12.5t-15.5 38.5t17 39t35 13q23 0 38 -16t15 -39q0 -9 -4 -23t-14 -30.5t-25.5 -32t-38.5 -28.5zM-26 250q0 -13 10 -19t22 -6q16 0 19.5 6.5t3.5 15.5q0 12 -8 21t-20 9q-7 0 -17 -6t-10 -21zM15 104q-1 -5 -1 -8
v-8q0 -21 7.5 -31.5t13.5 -10.5t10.5 8t4.5 29q0 5 -0.5 11.5t-1.5 13.5l29 5q1 -5 1.5 -11.5t0.5 -14.5q0 -12 -2 -25t-7 -23.5t-13.5 -17t-21.5 -6.5q-8 0 -17 5t-14 13q-6 -13 -16 -20t-20 -7q-17 0 -31.5 13.5t-14.5 43.5q0 11 3 25l30 5q-3 -15 -3 -26q0 -32 16 -32
q7 0 14 10.5t7 30.5v11q0 5 -2 12z" />
    <glyph glyph-name="uni06510650" unicode="&#xfc62;" arabic-form="isolated" 
d="M-64 43l147 24v-28l-147 -24v28zM15 195q-1 -5 -1 -8v-8q0 -21 7.5 -31.5t13.5 -10.5t10.5 8t4.5 29q0 5 -0.5 11.5t-1.5 13.5l29 5q1 -5 1.5 -11.5t0.5 -14.5q0 -12 -2 -25t-7 -23.5t-13.5 -17t-21.5 -6.5q-8 0 -17 5t-14 13q-6 -13 -16 -20t-20 -7q-17 0 -31.5 13.5
t-14.5 43.5q0 11 3 25l30 5q-3 -15 -3 -26q0 -32 16 -32q7 0 14 10.5t7 30.5v11q0 5 -2 12z" />
    <glyph glyph-name="uni06510670" unicode="&#xfc63;" arabic-form="isolated" 
d="M15 104q-1 -5 -1 -8v-8q0 -21 7.5 -31.5t13.5 -10.5t10.5 8t4.5 29q0 5 -0.5 11.5t-1.5 13.5l29 5q1 -5 1.5 -11.5t0.5 -14.5q0 -12 -2 -25t-7 -23.5t-13.5 -17t-21.5 -6.5q-8 0 -17 5t-14 13q-6 -13 -16 -20t-20 -7q-17 0 -31.5 13.5t-14.5 43.5q0 11 3 25l30 5
q-3 -15 -3 -26q0 -32 16 -32q7 0 14 10.5t7 30.5v11q0 5 -2 12zM-11 323q11 -29 16.5 -67t5.5 -72v-15q0 -8 -1 -15l-23 -9q0 36 -7.5 71t-21.5 65z" />
    <glyph glyph-name="behmaksuraf" unicode="&#xfc6e;" horiz-adv-x="840" arabic-form="final" 
d="M619 -155q0 19 16 32t39 13t39 -13t16 -32t-16 -32t-39 -13t-39 13t-16 32zM626 205h-146q-23 0 -41.5 -14t-18.5 -41v-5h70q33 0 56.5 -23.5t23.5 -56.5v-40q0 -37 -14 -70t-38.5 -57.5t-57.5 -38.5t-70 -14h-160q-37 0 -70 14t-57.5 38.5t-38.5 57.5t-14 70v120
q0 8 6 14t14 6h80q8 0 14 -6t6 -14v-104q0 -30 13.5 -53t46.5 -23h143q13 0 26.5 3.5t24.5 11t18.5 19t7.5 26.5h-90q-25 0 -42.5 17.5t-17.5 42.5v47q0 44 15 79t41.5 59t61.5 37t75 13h212q19 0 24 -20l39 -180h72v-120h-149q-19 0 -24 20z" />
    <glyph glyph-name="behyehf" unicode="&#xfc6f;" horiz-adv-x="840" arabic-form="final" 
d="M619 -105q0 19 16 32t39 13t39 -13t16 -32t-16 -32t-39 -13t-39 13t-16 32zM320 -255q0 17 16 29t39 12t39 -12t16 -29t-16 -28.5t-39 -12t-39 11.5t-16 29zM190 -255q0 17 16 29t39 12t39 -12t16 -29t-16 -28.5t-39 -12t-39 11.5t-16 29zM626 205h-146q-23 0 -41.5 -14
t-18.5 -41v-5h70q33 0 56.5 -23.5t23.5 -56.5v-40q0 -37 -14 -70t-38.5 -57.5t-57.5 -38.5t-70 -14h-160q-37 0 -70 14t-57.5 38.5t-38.5 57.5t-14 70v120q0 8 6 14t14 6h80q8 0 14 -6t6 -14v-104q0 -30 13.5 -53t46.5 -23h143q13 0 26.5 3.5t24.5 11t18.5 19t7.5 26.5h-90
q-25 0 -42.5 17.5t-17.5 42.5v47q0 44 15 79t41.5 59t61.5 37t75 13h212q19 0 24 -20l39 -180h72v-120h-149q-19 0 -24 20z" />
    <glyph glyph-name="Salla" unicode="&#xfdfa;" horiz-adv-x="1540" arabic-form="isolated" 
d="M895 210q7 0 11 4.5t4 9.5q0 6 -7 13l-86 87l22 22l46 -46h115v245h30v-245h100v135h30v-81l37 30q23 19 39 29t27.5 15t20 6t16.5 1q29 0 49.5 -20.5t20.5 -49.5v-55q0 -17 -11.5 -28.5t-28.5 -11.5h-415l11 -12q8 -8 11 -18t3 -16q0 -18 -12.5 -31t-32.5 -13h-120
q-38 0 -64 26t-26 64v70h30v-70q0 -25 17.5 -42.5t42.5 -17.5h120zM70 17q0 39 23.5 56t54.5 17q18 0 37 -6t35 -15v-104h66v245h30v-245h76v135h30v-135h75v135h30v-135h65q10 0 10 10v125h30v-125q0 -17 -11.5 -28.5t-28.5 -11.5h-492v-80h-30v162zM1470 -35v-30h-555
q-23 0 -31.5 10.5t-8.5 27.5q0 9 5 22l26 73q5 14 17.5 23t29.5 9h77v-135h76v135h30v-135h91v245h30v-245h106q-17 17 -27.5 39t-10.5 42q0 27 17 45.5t55 18.5q17 0 34 -6t33 -16l-9 -29q-14 10 -29 15.5t-29 5.5q-22 0 -32 -10t-10 -24q0 -11 5.5 -24t14.5 -24.5
t20.5 -20.5t24.5 -12h50zM195 270q-23 0 -31.5 10.5t-8.5 27.5q0 9 5 22l26 73q5 14 17.5 23t29.5 9h77v-135h80v200h30v-200h85v235h30v-265h-340zM729 -65q-21 0 -35.5 14.5t-14.5 35.5v30q0 44 22.5 64.5t54.5 20.5q13 0 31.5 -6t41.5 -19v-140q0 -46 -22.5 -63
t-54.5 -17q-16 0 -35 4t-38 10l12 29q18 -6 34 -9.5t27 -3.5q20 0 33.5 10.5t13.5 39.5h-70zM1160 317v-17h170q10 0 10 10v55q0 16 -11.5 28t-28.5 12q-8 0 -14 -1t-15 -5.5t-21 -13.5l-34 -25zM799 -35v93q-11 5 -23 8.5t-20 3.5q-19 0 -33 -13t-14 -42v-30q0 -8 6 -14
t14 -6h70zM1000 -35v105h-47q-6 0 -11 -4t-7 -9l-27 -73q0 -3 -1.5 -6t-1.5 -5q0 -8 10 -8h85zM280 300v105h-47q-6 0 -11 -4t-7 -9l-27 -73q0 -3 -1.5 -6t-1.5 -5q0 -8 10 -8h85zM190 -35v85q-11 4 -22 7t-20 3q-18 0 -33 -10t-15 -33v-52h90zM630 540v-275h-30v275h30z
M1082 -85l33 -33l-22 -22l-33 33zM1142 -85l33 -33l-22 -22l-33 33z" />
    <glyph glyph-name="alefmdf" unicode="&#x622;" horiz-adv-x="220" arabic-form="final" 
d="M150 550q8 0 14 -6t6 -14v-410h50v-120h-150q-8 0 -14 6t-6 14v510q0 8 6 14t14 6h80zM185 604q-12 -9 -22.5 -12.5t-19.5 -3.5q-17 0 -31 6.5t-31 6.5q-10 0 -21 -4.5t-25 -16.5v41q14 12 25 16.5t21 4.5q17 0 31 -6.5t31 -6.5q9 0 19.5 3.5t22.5 12.5v-41z" />
    <glyph glyph-name="alefhmzf" unicode="&#x623;" horiz-adv-x="220" arabic-form="final" 
d="M150 550q8 0 14 -6t6 -14v-410h50v-120h-150q-8 0 -14 6t-6 14v510q0 8 6 14t14 6h80zM152 656q-5 4 -12.5 6.5t-14.5 2.5q-8 0 -13.5 -4t-5.5 -14q0 -8 7 -15t21 -7h38v-45h-124v45h24q-14 12 -14 31q0 23 18 36t42 13q14 0 28.5 -5.5t24.5 -13.5z" />
    <glyph glyph-name="wawhmzf" unicode="&#x624;" horiz-adv-x="440" arabic-form="final" 
d="M150 0q-42 0 -71 29t-29 71v60q0 44 15 76t40 53t58 31t69 10q41 0 82 -12.5t76 -37.5v-160h50v-120h-50q0 -45 -13 -78.5t-35 -55t-51.5 -32t-63.5 -10.5q-35 0 -77.5 10.5t-79.5 30.5l29 88q20 -8 45 -14t49 -6q32 0 54.5 14.5t22.5 52.5h-120zM270 120v83q-11 3 -21 5
t-20 2q-24 0 -41.5 -12.5t-17.5 -37.5v-40h100zM262 476q-5 4 -12.5 6.5t-14.5 2.5q-8 0 -13.5 -4t-5.5 -14q0 -8 7 -15t21 -7h38v-45h-124v45h24q-14 12 -14 31q0 23 18 36t42 13q14 0 28.5 -5.5t24.5 -13.5z" />
    <glyph glyph-name="alefhmz2f" unicode="&#x625;" horiz-adv-x="220" arabic-form="final" 
d="M150 550q8 0 14 -6t6 -14v-410h50v-120h-150q-8 0 -14 6t-6 14v510q0 8 6 14t14 6h80zM152 -84q-5 4 -12.5 6.5t-14.5 2.5q-8 0 -13.5 -4t-5.5 -14q0 -8 7 -15t21 -7h38v-45h-124v45h24q-14 12 -14 31q0 23 18 36t42 13q14 0 28.5 -5.5t24.5 -13.5z" />
    <glyph glyph-name="yehhmzf" unicode="&#x626;" horiz-adv-x="550" arabic-form="final" 
d="M152 316q-5 4 -12.5 6.5t-14.5 2.5q-8 0 -13.5 -4t-5.5 -14q0 -8 7 -15t21 -7h38v-45h-124v45h24q-14 12 -14 31q0 23 18 36t42 13q14 0 28.5 -5.5t24.5 -13.5zM240 -180q-39 0 -74 15t-60.5 40.5t-40.5 60.5t-15 74v110q0 8 6 14t14 6h80q8 0 14 -6t6 -14v-110
q0 -29 20.5 -49.5t49.5 -20.5h208l-149 140q-17 17 -17 38q0 22 16.5 38.5t38.5 16.5q23 0 39 -16l37 -37h137v-120h-23l23 -23q16 -16 23 -33.5t7 -34.5q0 -18 -7 -34t-19 -28t-28.5 -19.5t-35.5 -7.5h-250z" />
    <glyph glyph-name="hmzn" unicode="&#x626;" horiz-adv-x="260" arabic-form="initial" 
d="M-30 90q0 13 8.5 21.5t21.5 8.5h90v190q0 8 6 14t14 6h80q8 0 14 -6t6 -14v-230q0 -33 -23.5 -56.5t-56.5 -23.5h-130q-13 0 -21.5 8.5t-8.5 21.5v60zM192 476q-5 4 -12.5 6.5t-14.5 2.5q-8 0 -13.5 -4t-5.5 -14q0 -8 7 -15t21 -7h38v-45h-124v45h24q-14 12 -14 31
q0 23 18 36t42 13q14 0 28.5 -5.5t24.5 -13.5z" />
    <glyph glyph-name="hmzm" unicode="&#x626;" horiz-adv-x="300" arabic-form="medial" 
d="M-30 90q0 13 8.5 21.5t21.5 8.5h90v190q0 8 6 14t14 6h80q8 0 14 -6t6 -14v-190h90v-120h-300q-13 0 -21.5 8.5t-8.5 21.5v60zM192 476q-5 4 -12.5 6.5t-14.5 2.5q-8 0 -13.5 -4t-5.5 -14q0 -8 7 -15t21 -7h38v-45h-124v45h24q-14 12 -14 31q0 23 18 36t42 13
q14 0 28.5 -5.5t24.5 -13.5z" />
    <glyph glyph-name="aleff" unicode="&#x627;" horiz-adv-x="220" arabic-form="final" 
d="M150 550q8 0 14 -6t6 -14v-410h50v-120h-150q-8 0 -14 6t-6 14v510q0 8 6 14t14 6h80z" />
    <glyph glyph-name="behf" unicode="&#x628;" horiz-adv-x="770" arabic-form="final" 
d="M330 -135q0 19 16 32t39 13t39 -13t16 -32t-16 -32t-39 -13t-39 13t-16 32zM720 120h50v-120h-640q-33 0 -56.5 23.5t-23.5 56.5v230q0 8 6 14t14 6h80q8 0 14 -6t6 -14v-190h430v190q0 8 6 14t14 6h80q8 0 14 -6t6 -14v-190z" />
    <glyph glyph-name="behn" unicode="&#x628;" horiz-adv-x="260" arabic-form="initial" 
d="M46 -105q0 19 16 32t39 13t39 -13t16 -32t-16 -32t-39 -13t-39 13t-16 32zM-30 90q0 13 8.5 21.5t21.5 8.5h90v190q0 8 6 14t14 6h80q8 0 14 -6t6 -14v-230q0 -33 -23.5 -56.5t-56.5 -23.5h-130q-13 0 -21.5 8.5t-8.5 21.5v60z" />
    <glyph glyph-name="behm" unicode="&#x628;" horiz-adv-x="300" arabic-form="medial" 
d="M95 -105q0 19 16 32t39 13t39 -13t16 -32t-16 -32t-39 -13t-39 13t-16 32zM-30 90q0 13 8.5 21.5t21.5 8.5h90v190q0 8 6 14t14 6h80q8 0 14 -6t6 -14v-190h90v-120h-300q-13 0 -21.5 8.5t-8.5 21.5v60z" />
    <glyph glyph-name="marbutaf" unicode="&#x629;" horiz-adv-x="460" arabic-form="final" 
d="M290 440q0 19 16 32t39 13t39 -13t16 -32t-16 -32t-39 -13t-39 13t-16 32zM160 440q0 19 16 32t39 13t39 -13t16 -32t-16 -32t-39 -13t-39 13t-16 32zM460 0h-310q-54 0 -77 20.5t-23 52.5q0 24 12 54l55 139q11 28 36 46t57 18h180q8 0 14 -6t6 -14v-190h50v-120z
M290 120v90h-67l-35 -90h102zM-16 0v0v0v0zM-16 0v0v0v0v0v0zM-16 0v0v0zM-16 0v0v0zM-16 0zM-16 0zM-16 0zM-16 0v0v0v0zM-16 0v0v0v0v0v0zM-16 0v0v0v0v0v0zM-16 0v0v0v0v0zM-16 0v0v0v0zM-16 0zM-16 0zM-16 0zM-16 0zM-16 0zM-16 0zM-16 0z" />
    <glyph glyph-name="tehf" unicode="&#x62a;" horiz-adv-x="770" arabic-form="final" 
d="M395 440q0 19 16 32t39 13t39 -13t16 -32t-16 -32t-39 -13t-39 13t-16 32zM265 440q0 19 16 32t39 13t39 -13t16 -32t-16 -32t-39 -13t-39 13t-16 32zM720 120h50v-120h-640q-33 0 -56.5 23.5t-23.5 56.5v230q0 8 6 14t14 6h80q8 0 14 -6t6 -14v-190h430v190q0 8 6 14
t14 6h80q8 0 14 -6t6 -14v-190z" />
    <glyph glyph-name="tehn" unicode="&#x62a;" horiz-adv-x="260" arabic-form="initial" 
d="M135 440q0 19 16 32t39 13t39 -13t16 -32t-16 -32t-39 -13t-39 13t-16 32zM5 440q0 19 16 32t39 13t39 -13t16 -32t-16 -32t-39 -13t-39 13t-16 32zM-30 90q0 13 8.5 21.5t21.5 8.5h90v190q0 8 6 14t14 6h80q8 0 14 -6t6 -14v-230q0 -33 -23.5 -56.5t-56.5 -23.5h-130
q-13 0 -21.5 8.5t-8.5 21.5v60z" />
    <glyph glyph-name="tehm" unicode="&#x62a;" horiz-adv-x="300" arabic-form="medial" 
d="M135 440q0 19 16 32t39 13t39 -13t16 -32t-16 -32t-39 -13t-39 13t-16 32zM5 440q0 19 16 32t39 13t39 -13t16 -32t-16 -32t-39 -13t-39 13t-16 32zM-30 90q0 13 8.5 21.5t21.5 8.5h90v190q0 8 6 14t14 6h80q8 0 14 -6t6 -14v-190h90v-120h-300q-13 0 -21.5 8.5
t-8.5 21.5v60z" />
    <glyph glyph-name="thehf" unicode="&#x62b;" horiz-adv-x="770" arabic-form="final" 
d="M265 425q0 19 16 32t39 13t39 -13t16 -32t-16 -32t-39 -13t-39 13t-16 32zM395 425q0 19 16 32t39 13t39 -13t16 -32t-16 -32t-39 -13t-39 13t-16 32zM330 525q0 19 16 32t39 13t39 -13t16 -32t-16 -32t-39 -13t-39 13t-16 32zM720 120h50v-120h-640q-33 0 -56.5 23.5
t-23.5 56.5v230q0 8 6 14t14 6h80q8 0 14 -6t6 -14v-190h430v190q0 8 6 14t14 6h80q8 0 14 -6t6 -14v-190z" />
    <glyph glyph-name="thehn" unicode="&#x62b;" horiz-adv-x="260" arabic-form="initial" 
d="M5 425q0 19 16 32t39 13t39 -13t16 -32t-16 -32t-39 -13t-39 13t-16 32zM135 425q0 19 16 32t39 13t39 -13t16 -32t-16 -32t-39 -13t-39 13t-16 32zM70 525q0 19 16 32t39 13t39 -13t16 -32t-16 -32t-39 -13t-39 13t-16 32zM-30 90q0 13 8.5 21.5t21.5 8.5h90v190
q0 8 6 14t14 6h80q8 0 14 -6t6 -14v-230q0 -33 -23.5 -56.5t-56.5 -23.5h-130q-13 0 -21.5 8.5t-8.5 21.5v60z" />
    <glyph glyph-name="thehm" unicode="&#x62b;" horiz-adv-x="300" arabic-form="medial" 
d="M5 425q0 19 16 32t39 13t39 -13t16 -32t-16 -32t-39 -13t-39 13t-16 32zM135 425q0 19 16 32t39 13t39 -13t16 -32t-16 -32t-39 -13t-39 13t-16 32zM70 525q0 19 16 32t39 13t39 -13t16 -32t-16 -32t-39 -13t-39 13t-16 32zM-30 90q0 13 8.5 21.5t21.5 8.5h90v190
q0 8 6 14t14 6h80q8 0 14 -6t6 -14v-190h90v-120h-300q-13 0 -21.5 8.5t-8.5 21.5v60z" />
    <glyph glyph-name="jeemf" unicode="&#x62c;" horiz-adv-x="440" arabic-form="final" 
d="M260 -65q0 19 16 32t39 13t39 -13t16 -32t-16 -32t-39 -13t-39 13t-16 32zM262 120q-8 19 -16 41.5t-19 41.5t-26.5 31.5t-37.5 12.5q-17 0 -33 -6t-30 -16l-30 85q27 22 60.5 36t67.5 14q45 0 73.5 -24.5t48.5 -61t35.5 -78.5t35.5 -76h49v-120h-199q-34 0 -52.5 -20
t-18.5 -43q0 -20 10.5 -33.5t27.5 -21.5t38 -11.5t42 -3.5q18 0 34 2t28 5v-101q-38 -7 -78 -7q-48 0 -89 12t-70.5 35t-46 55.5t-16.5 74.5q0 35 13.5 67t38.5 56.5t58.5 39t74.5 14.5h27zM-17 0v0v0v0zM-17 0v0v0v0v0v0zM-17 0v0v0zM-17 0v0v0zM-17 0zM-17 0zM-17 0z
M-17 0v0v0v0zM-17 0v0v0v0v0v0zM-17 0v0v0v0v0v0zM-17 0v0v0v0v0zM-17 0v0v0v0zM-17 0zM-17 0zM-17 0zM-17 0zM-17 0zM-17 0zM-17 0zM-17 0v0v0v0zM-17 0v0v0v0v0v0zM-17 0v0v0zM-17 0v0v0zM-17 0zM-17 0zM-17 0zM-17 0v0v0v0zM-17 0v0v0v0v0v0zM-17 0v0v0v0v0v0zM-17 0v0v0
v0v0zM-17 0v0v0v0zM-17 0zM-17 0zM-17 0zM-17 0zM-17 0zM-17 0zM-17 0z" />
    <glyph glyph-name="jeemn" unicode="&#x62c;" horiz-adv-x="440" arabic-form="initial" 
d="M170 -105q0 19 16 32t39 13t39 -13t16 -32t-16 -32t-39 -13t-39 13t-16 32zM-30 90q0 13 8.5 21.5t21.5 8.5h222q-8 19 -16 41.5t-19 41.5t-26.5 31.5t-37.5 12.5q-17 0 -33 -6t-30 -16l-30 85q27 22 60.5 36t67.5 14q46 0 74.5 -24.5t48 -61t35 -78.5t35.5 -76h49v-120
h-400q-13 0 -21.5 8.5t-8.5 21.5v60z" />
    <glyph glyph-name="jeemm" unicode="&#x62c;" horiz-adv-x="400" arabic-form="medial" 
d="M170 -105q0 19 16 32t39 13t39 -13t16 -32t-16 -32t-39 -13t-39 13t-16 32zM-30 90q0 13 8.5 21.5t21.5 8.5h222q-8 19 -16 41.5t-19 41.5t-26.5 31.5t-37.5 12.5q-17 0 -33 -6t-30 -16l-30 85q27 22 60.5 36t67.5 14q46 0 74.5 -24.5t48 -61t35 -78.5t35.5 -76h49v-120
h-400q-13 0 -21.5 8.5t-8.5 21.5v60z" />
    <glyph glyph-name="hahf" unicode="&#x62d;" horiz-adv-x="440" arabic-form="final" 
d="M262 120q-8 19 -16 41.5t-19 41.5t-26.5 31.5t-37.5 12.5q-17 0 -33 -6t-30 -16l-30 85q27 22 60.5 36t67.5 14q45 0 73.5 -24.5t48.5 -61t35.5 -78.5t35.5 -76h49v-120h-199q-34 0 -52.5 -20t-18.5 -43q0 -20 10.5 -33.5t27.5 -21.5t38 -11.5t42 -3.5q18 0 34 2t28 5
v-101q-38 -7 -78 -7q-48 0 -89 12t-70.5 35t-46 55.5t-16.5 74.5q0 35 13.5 67t38.5 56.5t58.5 39t74.5 14.5h27z" />
    <glyph glyph-name="hahn" unicode="&#x62d;" horiz-adv-x="440" arabic-form="initial" 
d="M-30 90q0 13 8.5 21.5t21.5 8.5h222q-8 19 -16 41.5t-19 41.5t-26.5 31.5t-37.5 12.5q-17 0 -33 -6t-30 -16l-30 85q27 22 60.5 36t67.5 14q46 0 74.5 -24.5t48 -61t35 -78.5t35.5 -76h49v-120h-400q-13 0 -21.5 8.5t-8.5 21.5v60z" />
    <glyph glyph-name="hahm" unicode="&#x62d;" horiz-adv-x="400" arabic-form="medial" 
d="M-30 90q0 13 8.5 21.5t21.5 8.5h222q-8 19 -16 41.5t-19 41.5t-26.5 31.5t-37.5 12.5q-17 0 -33 -6t-30 -16l-30 85q27 22 60.5 36t67.5 14q46 0 74.5 -24.5t48 -61t35 -78.5t35.5 -76h49v-120h-400q-13 0 -21.5 8.5t-8.5 21.5v60z" />
    <glyph glyph-name="khahf" unicode="&#x62e;" horiz-adv-x="440" arabic-form="final" 
d="M135 455q0 19 16 32t39 13t39 -13t16 -32t-16 -32t-39 -13t-39 13t-16 32zM262 120q-8 19 -16 41.5t-19 41.5t-26.5 31.5t-37.5 12.5q-17 0 -33 -6t-30 -16l-30 85q27 22 60.5 36t67.5 14q45 0 73.5 -24.5t48.5 -61t35.5 -78.5t35.5 -76h49v-120h-199q-34 0 -52.5 -20
t-18.5 -43q0 -20 10.5 -33.5t27.5 -21.5t38 -11.5t42 -3.5q18 0 34 2t28 5v-101q-38 -7 -78 -7q-48 0 -89 12t-70.5 35t-46 55.5t-16.5 74.5q0 35 13.5 67t38.5 56.5t58.5 39t74.5 14.5h27zM-17 0v0v0v0zM-17 0v0v0v0v0v0zM-17 0v0v0zM-17 0v0v0zM-17 0zM-17 0zM-17 0z
M-17 0v0v0v0zM-17 0v0v0v0v0v0zM-17 0v0v0v0v0v0zM-17 0v0v0v0v0zM-17 0v0v0v0zM-17 0zM-17 0zM-17 0zM-17 0zM-17 0zM-17 0zM-17 0zM-17 0v0v0v0zM-17 0v0v0v0v0v0zM-17 0v0v0zM-17 0v0v0zM-17 0zM-17 0zM-17 0zM-17 0v0v0v0zM-17 0v0v0v0v0v0zM-17 0v0v0v0v0v0zM-17 0v0v0
v0v0zM-17 0v0v0v0zM-17 0zM-17 0zM-17 0zM-17 0zM-17 0zM-17 0zM-17 0z" />
    <glyph glyph-name="khahn" unicode="&#x62e;" horiz-adv-x="440" arabic-form="initial" 
d="M100 455q0 19 16 32t39 13t39 -13t16 -32t-16 -32t-39 -13t-39 13t-16 32zM-30 90q0 13 8.5 21.5t21.5 8.5h222q-8 19 -16 41.5t-19 41.5t-26.5 31.5t-37.5 12.5q-17 0 -33 -6t-30 -16l-30 85q27 22 60.5 36t67.5 14q46 0 74.5 -24.5t48 -61t35 -78.5t35.5 -76h49v-120
h-400q-13 0 -21.5 8.5t-8.5 21.5v60zM-4 0v0v0v0zM-4 0v0v0v0v0v0zM-4 0v0v0zM-4 0v0v0zM-4 0zM-4 0zM-4 0zM-4 0v0v0v0zM-4 0v0v0v0v0v0zM-4 0v0v0v0v0v0zM-4 0v0v0v0v0zM-4 0v0v0v0zM-4 0zM-4 0zM-4 0zM-4 0zM-4 0zM-4 0zM-4 0zM-4 0v0v0v0zM-4 0v0v0v0v0v0zM-4 0v0v0z
M-4 0v0v0zM-4 0zM-4 0zM-4 0zM-4 0v0v0v0zM-4 0v0v0v0v0v0zM-4 0v0v0v0v0v0zM-4 0v0v0v0v0zM-4 0v0v0v0zM-4 0zM-4 0zM-4 0zM-4 0zM-4 0zM-4 0zM-4 0z" />
    <glyph glyph-name="khahm" unicode="&#x62e;" horiz-adv-x="400" arabic-form="medial" 
d="M100 455q0 19 16 32t39 13t39 -13t16 -32t-16 -32t-39 -13t-39 13t-16 32zM-30 90q0 13 8.5 21.5t21.5 8.5h222q-8 19 -16 41.5t-19 41.5t-26.5 31.5t-37.5 12.5q-17 0 -33 -6t-30 -16l-30 85q27 22 60.5 36t67.5 14q46 0 74.5 -24.5t48 -61t35 -78.5t35.5 -76h49v-120
h-400q-13 0 -21.5 8.5t-8.5 21.5v60zM-2 0v0v0v0zM-2 0v0v0v0v0v0zM-2 0v0v0zM-2 0v0v0zM-2 0zM-2 0zM-2 0zM-2 0v0v0v0zM-2 0v0v0v0v0v0zM-2 0v0v0v0v0v0zM-2 0v0v0v0v0zM-2 0v0v0v0zM-2 0zM-2 0zM-2 0zM-2 0zM-2 0zM-2 0zM-2 0zM-2 0v0v0v0zM-2 0v0v0v0v0v0zM-2 0v0v0z
M-2 0v0v0zM-2 0zM-2 0zM-2 0zM-2 0v0v0v0zM-2 0v0v0v0v0v0zM-2 0v0v0v0v0v0zM-2 0v0v0v0v0zM-2 0v0v0v0zM-2 0zM-2 0zM-2 0zM-2 0zM-2 0zM-2 0zM-2 0zM-2 0v0v0v0zM-2 0v0v0v0v0v0zM-2 0v0v0zM-2 0v0v0zM-2 0zM-2 0zM-2 0zM-2 0v0v0v0zM-2 0v0v0v0v0v0zM-2 0v0v0v0v0v0z
M-2 0v0v0v0v0zM-2 0v0v0v0zM-2 0zM-2 0zM-2 0zM-2 0zM-2 0zM-2 0zM-2 0z" />
    <glyph glyph-name="dalf" unicode="&#x62f;" horiz-adv-x="410" arabic-form="final" 
d="M40 120h200v70q0 36 -24.5 50.5t-58.5 14.5q-17 0 -35 -2.5t-36 -7.5l-26 105q60 20 115 20q39 0 72.5 -10.5t58.5 -32.5t39.5 -56t14.5 -81v-70h50v-120h-370v120z" />
    <glyph glyph-name="zalf" unicode="&#x630;" horiz-adv-x="410" arabic-form="final" 
d="M100 485q0 19 16 32t39 13t39 -13t16 -32t-16 -32t-39 -13t-39 13t-16 32zM40 120h200v70q0 36 -24.5 50.5t-58.5 14.5q-17 0 -35 -2.5t-36 -7.5l-26 105q60 20 115 20q39 0 72.5 -10.5t58.5 -32.5t39.5 -56t14.5 -81v-70h50v-120h-370v120z" />
    <glyph glyph-name="rehf" unicode="&#x631;" horiz-adv-x="240" arabic-form="final" 
d="M-90 -46q19 -7 42 -13t45 -6q29 0 51 14t22 51v310q0 8 6 14t14 6h80q8 0 14 -6t6 -14v-190h50v-120h-50q0 -46 -13 -79t-35 -54.5t-51.5 -31.5t-63.5 -10q-35 0 -72.5 10t-74.5 30z" />
    <glyph glyph-name="zainf" unicode="&#x632;" horiz-adv-x="240" arabic-form="final" 
d="M75 445q0 19 16 32t39 13t39 -13t16 -32t-16 -32t-39 -13t-39 13t-16 32zM-90 -46q19 -7 42 -13t45 -6q29 0 51 14t22 51v310q0 8 6 14t14 6h80q8 0 14 -6t6 -14v-190h50v-120h-50q0 -46 -13 -79t-35 -54.5t-51.5 -31.5t-63.5 -10q-35 0 -72.5 10t-74.5 30z" />
    <glyph glyph-name="seenf" unicode="&#x633;" horiz-adv-x="960" arabic-form="final" 
d="M470 -60q0 -33 -23.5 -56.5t-56.5 -23.5h-160q-37 0 -70 14t-57.5 38.5t-38.5 57.5t-14 70v120q0 8 6 14t14 6h80q8 0 14 -6t6 -14v-120q0 -25 17.5 -42.5t42.5 -17.5h120v330q0 8 6 14t14 6h80q8 0 14 -6t6 -14v-190h80v190q0 8 6 14t14 6h80q8 0 14 -6t6 -14v-190h80
v190q0 8 6 14t14 6h80q8 0 14 -6t6 -14v-190h90v-120h-490v-60z" />
    <glyph glyph-name="seenn" unicode="&#x633;" horiz-adv-x="660" arabic-form="initial" 
d="M90 120v190q0 8 6 14t14 6h80q8 0 14 -6t6 -14v-190h80v190q0 8 6 14t14 6h80q8 0 14 -6t6 -14v-190h80v190q0 8 6 14t14 6h80q8 0 14 -6t6 -14v-230q0 -33 -23.5 -56.5t-56.5 -23.5h-530q-13 0 -21.5 8.5t-8.5 21.5v60q0 13 8.5 21.5t21.5 8.5h90z" />
    <glyph glyph-name="seenm" unicode="&#x633;" horiz-adv-x="700" arabic-form="medial" 
d="M0 0q-13 0 -21.5 8.5t-8.5 21.5v60q0 13 8.5 21.5t21.5 8.5h90v190q0 8 6 14t14 6h80q8 0 14 -6t6 -14v-190h80v190q0 8 6 14t14 6h80q8 0 14 -6t6 -14v-190h80v190q0 8 6 14t14 6h80q8 0 14 -6t6 -14v-190h90v-120h-700z" />
    <glyph glyph-name="sheenf" unicode="&#x634;" horiz-adv-x="960" arabic-form="final" 
d="M490 425q0 19 16 32t39 13t39 -13t16 -32t-16 -32t-39 -13t-39 13t-16 32zM620 425q0 19 16 32t39 13t39 -13t16 -32t-16 -32t-39 -13t-39 13t-16 32zM555 525q0 19 16 32t39 13t39 -13t16 -32t-16 -32t-39 -13t-39 13t-16 32zM470 -60q0 -33 -23.5 -56.5t-56.5 -23.5
h-160q-37 0 -70 14t-57.5 38.5t-38.5 57.5t-14 70v120q0 8 6 14t14 6h80q8 0 14 -6t6 -14v-120q0 -25 17.5 -42.5t42.5 -17.5h120v330q0 8 6 14t14 6h80q8 0 14 -6t6 -14v-190h80v190q0 8 6 14t14 6h80q8 0 14 -6t6 -14v-190h80v190q0 8 6 14t14 6h80q8 0 14 -6t6 -14v-190
h90v-120h-490v-60z" />
    <glyph glyph-name="sheenn" unicode="&#x634;" horiz-adv-x="660" arabic-form="initial" 
d="M230 425q0 19 16 32t39 13t39 -13t16 -32t-16 -32t-39 -13t-39 13t-16 32zM360 425q0 19 16 32t39 13t39 -13t16 -32t-16 -32t-39 -13t-39 13t-16 32zM295 525q0 19 16 32t39 13t39 -13t16 -32t-16 -32t-39 -13t-39 13t-16 32zM90 120v190q0 8 6 14t14 6h80q8 0 14 -6
t6 -14v-190h80v190q0 8 6 14t14 6h80q8 0 14 -6t6 -14v-190h80v190q0 8 6 14t14 6h80q8 0 14 -6t6 -14v-230q0 -33 -23.5 -56.5t-56.5 -23.5h-530q-13 0 -21.5 8.5t-8.5 21.5v60q0 13 8.5 21.5t21.5 8.5h90z" />
    <glyph glyph-name="sheenm" unicode="&#x634;" horiz-adv-x="700" arabic-form="medial" 
d="M230 425q0 19 16 32t39 13t39 -13t16 -32t-16 -32t-39 -13t-39 13t-16 32zM360 425q0 19 16 32t39 13t39 -13t16 -32t-16 -32t-39 -13t-39 13t-16 32zM295 525q0 19 16 32t39 13t39 -13t16 -32t-16 -32t-39 -13t-39 13t-16 32zM0 0q-13 0 -21.5 8.5t-8.5 21.5v60
q0 13 8.5 21.5t21.5 8.5h90v190q0 8 6 14t14 6h80q8 0 14 -6t6 -14v-190h80v190q0 8 6 14t14 6h80q8 0 14 -6t6 -14v-190h80v190q0 8 6 14t14 6h80q8 0 14 -6t6 -14v-190h90v-120h-700z" />
    <glyph glyph-name="sadf" unicode="&#x635;" horiz-adv-x="920" arabic-form="final" 
d="M470 215l95 85q16 14 34 22t41 8h150q33 0 56.5 -23.5t23.5 -56.5v-130h50v-120h-450v-60q0 -33 -23.5 -56.5t-56.5 -23.5h-160q-37 0 -70 14t-57.5 38.5t-38.5 57.5t-14 70v120q0 8 6 14t14 6h80q8 0 14 -6t6 -14v-120q0 -25 17.5 -42.5t42.5 -17.5h120v330q0 8 6 14
t14 6h80q8 0 14 -6t6 -14v-95zM514 120h236v90h-117z" />
    <glyph glyph-name="sadn" unicode="&#x635;" horiz-adv-x="620" arabic-form="initial" 
d="M-30 90q0 13 8.5 21.5t21.5 8.5h50v190q0 8 6 14t14 6h80q8 0 14 -6t6 -14v-95l95 85q16 14 34 22t41 8h150q33 0 56.5 -23.5t23.5 -56.5v-170q0 -33 -23.5 -56.5t-56.5 -23.5h-490q-13 0 -21.5 8.5t-8.5 21.5v60zM214 120h236v90h-117z" />
    <glyph glyph-name="sadm" unicode="&#x635;" horiz-adv-x="620" arabic-form="medial" 
d="M-30 90q0 13 8.5 21.5t21.5 8.5h50v190q0 8 6 14t14 6h80q8 0 14 -6t6 -14v-95l95 85q16 14 34 22t41 8h150q33 0 56.5 -23.5t23.5 -56.5v-130h50v-120h-620q-13 0 -21.5 8.5t-8.5 21.5v60zM214 120h236v90h-117z" />
    <glyph glyph-name="dadf" unicode="&#x636;" horiz-adv-x="920" arabic-form="final" 
d="M555 445q0 19 16 32t39 13t39 -13t16 -32t-16 -32t-39 -13t-39 13t-16 32zM470 215l95 85q16 14 34 22t41 8h150q33 0 56.5 -23.5t23.5 -56.5v-130h50v-120h-450v-60q0 -33 -23.5 -56.5t-56.5 -23.5h-160q-37 0 -70 14t-57.5 38.5t-38.5 57.5t-14 70v120q0 8 6 14t14 6
h80q8 0 14 -6t6 -14v-120q0 -25 17.5 -42.5t42.5 -17.5h120v330q0 8 6 14t14 6h80q8 0 14 -6t6 -14v-95zM514 120h236v90h-117z" />
    <glyph glyph-name="dadn" unicode="&#x636;" horiz-adv-x="620" arabic-form="initial" 
d="M295 445q0 19 16 32t39 13t39 -13t16 -32t-16 -32t-39 -13t-39 13t-16 32zM-30 90q0 13 8.5 21.5t21.5 8.5h50v190q0 8 6 14t14 6h80q8 0 14 -6t6 -14v-95l95 85q16 14 34 22t41 8h150q33 0 56.5 -23.5t23.5 -56.5v-170q0 -33 -23.5 -56.5t-56.5 -23.5h-490
q-13 0 -21.5 8.5t-8.5 21.5v60zM214 120h236v90h-117z" />
    <glyph glyph-name="dadm" unicode="&#x636;" horiz-adv-x="620" arabic-form="medial" 
d="M295 445q0 19 16 32t39 13t39 -13t16 -32t-16 -32t-39 -13t-39 13t-16 32zM-30 90q0 13 8.5 21.5t21.5 8.5h50v190q0 8 6 14t14 6h80q8 0 14 -6t6 -14v-95l95 85q16 14 34 22t41 8h150q33 0 56.5 -23.5t23.5 -56.5v-130h50v-120h-620q-13 0 -21.5 8.5t-8.5 21.5v60z
M214 120h236v90h-117z" />
    <glyph glyph-name="tahf" unicode="&#x637;" horiz-adv-x="700" arabic-form="final" 
d="M50 90q0 13 8.5 21.5t21.5 8.5h50v410q0 8 6 14t14 6h80q8 0 14 -6t6 -14v-292l70 62q16 14 34 22t41 8h175q33 0 56.5 -23.5t23.5 -56.5v-130h50v-120h-620q-13 0 -21.5 8.5t-8.5 21.5v60zM269 120h261v90h-142z" />
    <glyph glyph-name="tahn" unicode="&#x637;" horiz-adv-x="620" arabic-form="initial" 
d="M-30 90q0 13 8.5 21.5t21.5 8.5h50v410q0 8 6 14t14 6h80q8 0 14 -6t6 -14v-292l70 62q16 14 34 22t41 8h175q33 0 56.5 -23.5t23.5 -56.5v-170q0 -33 -23.5 -56.5t-56.5 -23.5h-490q-13 0 -21.5 8.5t-8.5 21.5v60zM189 120h261v90h-142z" />
    <glyph glyph-name="tahm" unicode="&#x637;" horiz-adv-x="620" arabic-form="medial" 
d="M-30 90q0 13 8.5 21.5t21.5 8.5h50v410q0 8 6 14t14 6h80q8 0 14 -6t6 -14v-292l70 62q16 14 34 22t41 8h175q33 0 56.5 -23.5t23.5 -56.5v-130h50v-120h-620q-13 0 -21.5 8.5t-8.5 21.5v60zM189 120h261v90h-142z" />
    <glyph glyph-name="zahf" unicode="&#x638;" horiz-adv-x="700" arabic-form="final" 
d="M405 445q0 19 16 32t39 13t39 -13t16 -32t-16 -32t-39 -13t-39 13t-16 32zM50 90q0 13 8.5 21.5t21.5 8.5h50v410q0 8 6 14t14 6h80q8 0 14 -6t6 -14v-292l70 62q16 14 34 22t41 8h175q33 0 56.5 -23.5t23.5 -56.5v-130h50v-120h-620q-13 0 -21.5 8.5t-8.5 21.5v60z
M269 120h261v90h-142z" />
    <glyph glyph-name="zahn" unicode="&#x638;" horiz-adv-x="620" arabic-form="initial" 
d="M325 445q0 19 16 32t39 13t39 -13t16 -32t-16 -32t-39 -13t-39 13t-16 32zM-30 90q0 13 8.5 21.5t21.5 8.5h50v410q0 8 6 14t14 6h80q8 0 14 -6t6 -14v-292l70 62q16 14 34 22t41 8h175q33 0 56.5 -23.5t23.5 -56.5v-170q0 -33 -23.5 -56.5t-56.5 -23.5h-490
q-13 0 -21.5 8.5t-8.5 21.5v60zM189 120h261v90h-142z" />
    <glyph glyph-name="zahm" unicode="&#x638;" horiz-adv-x="620" arabic-form="medial" 
d="M325 445q0 19 16 32t39 13t39 -13t16 -32t-16 -32t-39 -13t-39 13t-16 32zM-30 90q0 13 8.5 21.5t21.5 8.5h50v410q0 8 6 14t14 6h80q8 0 14 -6t6 -14v-292l70 62q16 14 34 22t41 8h175q33 0 56.5 -23.5t23.5 -56.5v-130h50v-120h-620q-13 0 -21.5 8.5t-8.5 21.5v60z
M189 120h261v90h-142z" />
    <glyph glyph-name="ainf" unicode="&#x639;" horiz-adv-x="510" arabic-form="final" 
d="M235 0q-29 0 -47 -17.5t-18 -38.5q0 -18 9.5 -30.5t25.5 -19.5t35 -10t39 -3q44 0 71 8v-116q-38 -7 -78 -7q-48 0 -89 12t-70.5 35t-46 55.5t-16.5 74.5t20.5 81t59.5 64l-59 104q-5 9 -8 22t-3 25q0 17 5 33.5t15 29t25 20.5t35 8h240q20 0 35 -8t25 -20.5t15 -29
t5 -33.5q0 -12 -2.5 -24t-8.5 -23l-42 -72h103v-120h-275zM323 210h-126l42 -90h41z" />
    <glyph glyph-name="ainn" unicode="&#x639;" horiz-adv-x="420" arabic-form="initial" 
d="M-30 90q0 12 8 21t22 9h73q-28 37 -28 81q0 35 13.5 62t37 45t54 27t64.5 9q36 0 72.5 -10.5t68.5 -30.5l-43 -89q-16 8 -39 14.5t-46 6.5q-28 0 -43.5 -14t-15.5 -34q0 -29 23 -48t65 -19h119q-7 -30 -13 -60l-12 -60h-350q-13 0 -21.5 8.5t-8.5 21.5v60z" />
    <glyph glyph-name="ainm" unicode="&#x639;" horiz-adv-x="500" arabic-form="medial" 
d="M-30 90q0 13 8.5 21.5t21.5 8.5h102l-41 72q-5 10 -8 22.5t-3 24.5q0 17 5 33.5t15 29t25 20.5t35 8h240q20 0 35 -8t25 -20.5t15 -29t5 -33.5q0 -12 -2.5 -24t-8.5 -23l-42 -72h103v-120h-500q-13 0 -21.5 8.5t-8.5 21.5v60zM313 210h-126l42 -90h41z" />
    <glyph glyph-name="ghainf" unicode="&#x63a;" horiz-adv-x="510" arabic-form="final" 
d="M200 445q0 19 16 32t39 13t39 -13t16 -32t-16 -32t-39 -13t-39 13t-16 32zM235 0q-29 0 -47 -17.5t-18 -38.5q0 -18 9.5 -30.5t25.5 -19.5t35 -10t39 -3q44 0 71 8v-116q-38 -7 -78 -7q-48 0 -89 12t-70.5 35t-46 55.5t-16.5 74.5t20.5 81t59.5 64l-59 104q-5 9 -8 22
t-3 25q0 17 5 33.5t15 29t25 20.5t35 8h240q20 0 35 -8t25 -20.5t15 -29t5 -33.5q0 -12 -2.5 -24t-8.5 -23l-42 -72h103v-120h-275zM323 210h-126l42 -90h41z" />
    <glyph glyph-name="ghainn" unicode="&#x63a;" horiz-adv-x="420" arabic-form="initial" 
d="M135 445q0 19 16 32t39 13t39 -13t16 -32t-16 -32t-39 -13t-39 13t-16 32zM-30 90q0 12 8 21t22 9h73q-28 37 -28 81q0 35 13.5 62t37 45t54 27t64.5 9q36 0 72.5 -10.5t68.5 -30.5l-43 -89q-16 8 -39 14.5t-46 6.5q-28 0 -43.5 -14t-15.5 -34q0 -29 23 -48t65 -19h119
q-7 -30 -13 -60l-12 -60h-350q-13 0 -21.5 8.5t-8.5 21.5v60z" />
    <glyph glyph-name="ghainm" unicode="&#x63a;" horiz-adv-x="500" arabic-form="medial" 
d="M195 445q0 19 16 32t39 13t39 -13t16 -32t-16 -32t-39 -13t-39 13t-16 32zM-30 90q0 13 8.5 21.5t21.5 8.5h102l-41 72q-5 10 -8 22.5t-3 24.5q0 17 5 33.5t15 29t25 20.5t35 8h240q20 0 35 -8t25 -20.5t15 -29t5 -33.5q0 -12 -2.5 -24t-8.5 -23l-42 -72h103v-120h-500
q-13 0 -21.5 8.5t-8.5 21.5v60zM313 210h-126l42 -90h41z" />
    <glyph glyph-name="fehf" unicode="&#x641;" horiz-adv-x="850" arabic-form="final" 
d="M576 445q0 19 16 32t39 13t39 -13t16 -32t-16 -32t-39 -13t-39 13t-16 32zM680 120v90h-58q-22 0 -37 -13t-15 -32t15 -32t37 -13h58zM720 330q34 0 57 -24t23 -56v-130h50v-120h-720q-16 0 -30.5 6.5t-25.5 17t-17.5 25t-6.5 31.5v230q0 8 6 14t14 6h80q8 0 14 -6t6 -14
v-190h297q-9 18 -13 35.5t-4 34.5q0 30 12 55.5t33.5 44t51 29.5t63.5 11h110z" />
    <glyph glyph-name="fehn" unicode="&#x641;" horiz-adv-x="450" arabic-form="initial" 
d="M180 445q0 19 16 32t39 13t39 -13t16 -32t-16 -32t-39 -13t-39 13t-16 32zM-30 90q0 13 8.5 21.5t21.5 8.5h67q-9 18 -13 35.5t-4 34.5q0 30 12 55.5t33.5 44t51 29.5t63.5 11h110q33 0 56.5 -23.5t23.5 -56.5v-230q0 -8 -6 -14t-14 -6h-380q-13 0 -21.5 8.5t-8.5 21.5
v60zM222 210q-22 0 -37 -13t-15 -32q0 -18 14.5 -31.5t37.5 -13.5h58v90h-58z" />
    <glyph glyph-name="fehm" unicode="&#x641;" horiz-adv-x="450" arabic-form="medial" 
d="M180 445q0 19 16 32t39 13t39 -13t16 -32t-16 -32t-39 -13t-39 13t-16 32zM280 120v90h-58q-22 0 -37 -13t-15 -32q0 -18 14.5 -31.5t37.5 -13.5h58zM320 330q33 0 56.5 -23.5t23.5 -56.5v-130h50v-120h-450q-13 0 -21.5 8.5t-8.5 21.5v60q0 13 8.5 21.5t21.5 8.5h67
q-9 18 -13 35.5t-4 34.5q0 30 12 55.5t33.5 44t51 29.5t63.5 11h110z" />
    <glyph glyph-name="qaff" unicode="&#x642;" horiz-adv-x="640" arabic-form="final" 
d="M430 440q0 19 16 32t39 13t39 -13t16 -32t-16 -32t-39 -13t-39 13t-16 32zM300 440q0 19 16 32t39 13t39 -13t16 -32t-16 -32t-39 -13t-39 13t-16 32zM410 -60q25 0 42.5 17.5t17.5 42.5h-130q-38 0 -64 26t-26 64v80q0 41 15.5 71.5t41.5 50t59.5 29t69.5 9.5
q41 0 81 -11.5t73 -33.5v-165h50v-120h-50q0 -37 -14 -70t-38.5 -57.5t-57.5 -38.5t-70 -14h-180q-37 0 -70 14t-57.5 38.5t-38.5 57.5t-14 70v150q0 8 6 14t14 6h80q8 0 14 -6t6 -14v-150q0 -25 17.5 -42.5t42.5 -17.5h180zM470 120v82q-24 8 -40 8q-25 0 -42.5 -10.5
t-17.5 -29.5v-50h100z" />
    <glyph glyph-name="qafn" unicode="&#x642;" horiz-adv-x="450" arabic-form="initial" 
d="M235 440q0 19 16 32t39 13t39 -13t16 -32t-16 -32t-39 -13t-39 13t-16 32zM105 440q0 19 16 32t39 13t39 -13t16 -32t-16 -32t-39 -13t-39 13t-16 32zM-30 90q0 13 8.5 21.5t21.5 8.5h67q-9 18 -13 35.5t-4 34.5q0 30 12 55.5t33.5 44t51 29.5t63.5 11h110
q33 0 56.5 -23.5t23.5 -56.5v-230q0 -8 -6 -14t-14 -6h-380q-13 0 -21.5 8.5t-8.5 21.5v60zM222 210q-22 0 -37 -13t-15 -32q0 -18 14.5 -31.5t37.5 -13.5h58v90h-58z" />
    <glyph glyph-name="qafm" unicode="&#x642;" horiz-adv-x="450" arabic-form="medial" 
d="M235 440q0 19 16 32t39 13t39 -13t16 -32t-16 -32t-39 -13t-39 13t-16 32zM105 440q0 19 16 32t39 13t39 -13t16 -32t-16 -32t-39 -13t-39 13t-16 32zM280 120v90h-58q-22 0 -37 -13t-15 -32q0 -18 14.5 -31.5t37.5 -13.5h58zM320 330q33 0 56.5 -23.5t23.5 -56.5v-130
h50v-120h-450q-13 0 -21.5 8.5t-8.5 21.5v60q0 13 8.5 21.5t21.5 8.5h67q-9 18 -13 35.5t-4 34.5q0 30 12 55.5t33.5 44t51 29.5t63.5 11h110z" />
    <glyph glyph-name="kaff" unicode="&#x643;" horiz-adv-x="670" arabic-form="final" 
d="M130 0q-33 0 -56.5 23.5t-23.5 56.5v200q0 8 6 14t14 6h80q8 0 14 -6t6 -14v-160h330v410q0 8 6 14t14 6h80q8 0 14 -6t6 -14v-410h50v-120h-540zM250 295h105v10q0 20 -14 27.5t-29 7.5q-14 0 -27 -5l-34 56l123 124l37 -57l-69 -68q38 -4 58 -23t20 -57v-80h-170v65z
" />
    <glyph glyph-name="kafn" unicode="&#x643;" horiz-adv-x="410" arabic-form="initial" 
d="M0 0q-13 0 -21.5 8.5t-8.5 21.5v60q0 13 8.5 21.5t21.5 8.5h240v45q0 21 -7 35t-19 23t-28 13t-33 4q-32 0 -62 -11l-23 51l-24 50l241 242l85 -85l-143 -144q58 -12 95.5 -54t37.5 -124v-145q0 -8 -6 -14t-14 -6h-340z" />
    <glyph glyph-name="kafm" unicode="&#x643;" horiz-adv-x="410" arabic-form="medial" 
d="M0 0q-13 0 -21.5 8.5t-8.5 21.5v60q0 13 8.5 21.5t21.5 8.5h240v45q0 21 -7 35t-19 23t-28 13t-33 4q-32 0 -62 -11l-23 51l-24 50l241 242l85 -85l-143 -144q58 -12 95.5 -54t37.5 -124v-45h50v-120h-410z" />
    <glyph glyph-name="lamf" unicode="&#x644;" horiz-adv-x="520" arabic-form="final" 
d="M470 120h50v-120h-50v-70q0 -33 -23.5 -56.5t-56.5 -23.5h-160q-37 0 -70 14t-57.5 38.5t-38.5 57.5t-14 70v130q0 8 6 14t14 6h80q8 0 14 -6t6 -14v-130q0 -23 17.5 -41.5t42.5 -18.5h120v560q0 8 6 14t14 6h80q8 0 14 -6t6 -14v-410z" />
    <glyph glyph-name="lamn" unicode="&#x644;" horiz-adv-x="220" arabic-form="initial" 
d="M50 120v410q0 8 6 14t14 6h80q8 0 14 -6t6 -14v-450q0 -33 -23.5 -56.5t-56.5 -23.5h-90q-13 0 -21.5 8.5t-8.5 21.5v60q0 13 8.5 21.5t21.5 8.5h50z" />
    <glyph glyph-name="lamm" unicode="&#x644;" horiz-adv-x="220" arabic-form="medial" 
d="M-30 90q0 13 8.5 21.5t21.5 8.5h50v410q0 8 6 14t14 6h80q8 0 14 -6t6 -14v-410h50v-120h-220q-13 0 -21.5 8.5t-8.5 21.5v60z" />
    <glyph glyph-name="meemf" unicode="&#x645;" horiz-adv-x="440" arabic-form="final" 
d="M50 175q0 40 16.5 69t43.5 48t61.5 28.5t70.5 9.5q39 0 78 -12.5t70 -35.5v-162h50v-120h-270v-120h-120v295zM270 120v82q-24 8 -40 8q-25 0 -42.5 -10.5t-17.5 -29.5v-50h100z" />
    <glyph glyph-name="meemn" unicode="&#x645;" horiz-adv-x="440" arabic-form="initial" 
d="M0 0q-13 0 -21.5 8.5t-8.5 21.5v60q0 13 8.5 21.5t21.5 8.5h50v45q0 35 16.5 61t43 43.5t60.5 26.5t70 9q42 0 82 -12.5t68 -36.5v-164q0 -35 -13.5 -59.5t-36.5 -41t-53 -24t-62 -7.5q-41 0 -77 10.5t-68 29.5h-80zM170 93q23 -13 52 -13q20 0 34 6t14 16v75
q-19 8 -43 8q-23 0 -40 -9t-17 -26v-57z" />
    <glyph glyph-name="meemm" unicode="&#x645;" horiz-adv-x="440" arabic-form="medial" 
d="M-30 90q0 13 8.5 21.5t21.5 8.5h50v42q0 39 15.5 66.5t40.5 44.5t55 24.5t59 7.5q31 0 61.5 -8t54.5 -26t39 -46.5t15 -68.5v-36h50v-120h-72q-24 -26 -63.5 -38t-82.5 -12q-44 0 -84.5 12.5t-66.5 37.5h-71q-13 0 -21.5 8.5t-8.5 21.5v60zM170 95q0 -13 15.5 -19
t34.5 -6t34.5 6t15.5 19v52q0 20 -15.5 29t-34.5 9t-34.5 -9t-15.5 -29v-52z" />
    <glyph glyph-name="noonf" unicode="&#x646;" horiz-adv-x="520" arabic-form="final" 
d="M205 445q0 19 16 32t39 13t39 -13t16 -32t-16 -32t-39 -13t-39 13t-16 32zM470 120h50v-120h-50v-70q0 -33 -23.5 -56.5t-56.5 -23.5h-160q-37 0 -70 14t-57.5 38.5t-38.5 57.5t-14 70v155q0 8 6 14t14 6h80q8 0 14 -6t6 -14v-155q0 -17 6.5 -28.5t17 -18.5t24 -10
t27.5 -3h105v340q0 8 6 14t14 6h80q8 0 14 -6t6 -14v-190z" />
    <glyph glyph-name="noonn" unicode="&#x646;" horiz-adv-x="260" arabic-form="initial" 
d="M95 445q0 19 16 32t39 13t39 -13t16 -32t-16 -32t-39 -13t-39 13t-16 32zM-30 90q0 13 8.5 21.5t21.5 8.5h90v190q0 8 6 14t14 6h80q8 0 14 -6t6 -14v-230q0 -33 -23.5 -56.5t-56.5 -23.5h-130q-13 0 -21.5 8.5t-8.5 21.5v60z" />
    <glyph glyph-name="noonm" unicode="&#x646;" horiz-adv-x="300" arabic-form="medial" 
d="M95 445q0 19 16 32t39 13t39 -13t16 -32t-16 -32t-39 -13t-39 13t-16 32zM-30 90q0 13 8.5 21.5t21.5 8.5h90v190q0 8 6 14t14 6h80q8 0 14 -6t6 -14v-190h90v-120h-300q-13 0 -21.5 8.5t-8.5 21.5v60z" />
    <glyph glyph-name="heh" unicode="&#x647;" horiz-adv-x="440" arabic-form="isolated" 
d="M50 0v175q0 40 16.5 69t43.5 48t61.5 28.5t70.5 9.5q39 0 78 -12.5t70 -35.5v-282h-340zM270 120v82q-24 8 -40 8q-25 0 -42.5 -10.5t-17.5 -29.5v-50h100z" />
    <glyph glyph-name="hehf" unicode="&#x647;" horiz-adv-x="460" arabic-form="final" 
d="M460 0h-310q-54 0 -77 20.5t-23 52.5q0 24 12 54l55 139q11 28 36 46t57 18h180q8 0 14 -6t6 -14v-190h50v-120zM290 120v90h-67l-35 -90h102z" />
    <glyph glyph-name="hehn" unicode="&#x647;" horiz-adv-x="600" arabic-form="initial" 
d="M-30 90q0 13 8.5 21.5t21.5 8.5h67q-17 28 -17 66q0 28 11.5 54t32.5 46t51 32t67 12h53l-15 60q29 10 58.5 14.5t56.5 4.5q39 0 72.5 -10.5t58.5 -32t39.5 -55.5t14.5 -81v-210q0 -8 -6 -14t-14 -6h-530q-13 0 -21.5 8.5t-8.5 21.5v60zM430 230q0 36 -23.5 49.5
t-58.5 14.5q8 -9 12.5 -20t4.5 -24v-130h65v110zM250 120v90h-33q-21 0 -34 -13.5t-13 -31.5t13 -31.5t34 -13.5h33z" />
    <glyph glyph-name="hehm" unicode="&#x647;" horiz-adv-x="600" arabic-form="medial" 
d="M-30 90q0 13 8.5 21.5t21.5 8.5h67q-17 28 -17 66q0 28 11.5 54t32.5 46t51 32t67 12h53l-15 60q29 10 58.5 14.5t56.5 4.5q39 0 72.5 -10.5t58.5 -32t39.5 -55.5t14.5 -81v-110h50v-120h-600q-13 0 -21.5 8.5t-8.5 21.5v60zM430 230q0 36 -23.5 49.5t-58.5 14.5
q8 -9 12.5 -20t4.5 -24v-130h65v110zM250 120v90h-33q-21 0 -34 -13.5t-13 -31.5t13 -31.5t34 -13.5h33z" />
    <glyph glyph-name="wawf" unicode="&#x648;" horiz-adv-x="440" arabic-form="final" 
d="M150 0q-42 0 -71 29t-29 71v60q0 44 15 76t40 53t58 31t69 10q41 0 82 -12.5t76 -37.5v-160h50v-120h-50q0 -45 -13 -78.5t-35 -55t-51.5 -32t-63.5 -10.5q-35 0 -77.5 10.5t-79.5 30.5l29 88q20 -8 45 -14t49 -6q32 0 54.5 14.5t22.5 52.5h-120zM270 120v83q-11 3 -21 5
t-20 2q-24 0 -41.5 -12.5t-17.5 -37.5v-40h100z" />
    <glyph glyph-name="maksuraf" unicode="&#x649;" horiz-adv-x="550" arabic-form="final" 
d="M240 -180q-39 0 -74 15t-60.5 40.5t-40.5 60.5t-15 74v110q0 8 6 14t14 6h80q8 0 14 -6t6 -14v-110q0 -29 20.5 -49.5t49.5 -20.5h208l-149 140q-17 17 -17 38q0 22 16.5 38.5t38.5 16.5q23 0 39 -16l37 -37h137v-120h-23l23 -23q16 -16 23 -33.5t7 -34.5q0 -18 -7 -34
t-19 -28t-28.5 -19.5t-35.5 -7.5h-250z" />
    <glyph glyph-name="yehf" unicode="&#x64a;" horiz-adv-x="550" arabic-form="final" 
d="M345 -285q0 17 16 29t39 12t39 -12t16 -29t-16 -28.5t-39 -12t-39 11.5t-16 29zM215 -285q0 17 16 29t39 12t39 -12t16 -29t-16 -28.5t-39 -12t-39 11.5t-16 29zM240 -180q-39 0 -74 15t-60.5 40.5t-40.5 60.5t-15 74v110q0 8 6 14t14 6h80q8 0 14 -6t6 -14v-110
q0 -29 20.5 -49.5t49.5 -20.5h208l-149 140q-17 17 -17 38q0 22 16.5 38.5t38.5 16.5q23 0 39 -16l37 -37h137v-120h-23l23 -23q16 -16 23 -33.5t7 -34.5q0 -18 -7 -34t-19 -28t-28.5 -19.5t-35.5 -7.5h-250z" />
    <glyph glyph-name="yehn" unicode="&#x64a;" horiz-adv-x="260" arabic-form="initial" 
d="M110 -110q0 19 16 32t39 13t39 -13t16 -32t-16 -32t-39 -13t-39 13t-16 32zM-20 -110q0 19 16 32t39 13t39 -13t16 -32t-16 -32t-39 -13t-39 13t-16 32zM-30 90q0 13 8.5 21.5t21.5 8.5h90v190q0 8 6 14t14 6h80q8 0 14 -6t6 -14v-230q0 -33 -23.5 -56.5t-56.5 -23.5
h-130q-13 0 -21.5 8.5t-8.5 21.5v60z" />
    <glyph glyph-name="yehm" unicode="&#x64a;" horiz-adv-x="300" arabic-form="medial" 
d="M130 -110q0 19 16 32t39 13t39 -13t16 -32t-16 -32t-39 -13t-39 13t-16 32zM0 -110q0 19 16 32t39 13t39 -13t16 -32t-16 -32t-39 -13t-39 13t-16 32zM-30 90q0 13 8.5 21.5t21.5 8.5h90v190q0 8 6 14t14 6h80q8 0 14 -6t6 -14v-190h90v-120h-300q-13 0 -21.5 8.5
t-8.5 21.5v60z" />
    <glyph glyph-name=".notdef" horiz-adv-x="592" 
d="M108 365h-21v-47h-37v146h95v-146h-37v47zM490 -40h-37v87h-21v-87h-37v87h-21v-87h-37v106h153v-106zM165 464h37v-40h58v-106h-95v146zM375 318h-95v106h58v40h37v-146zM490 318h-95v106h95v-106zM235 117h-95v106h95v-106zM317 -40h-95v106h95v-106zM350 117h-37v87
h-21v-87h-37v106h95v-106zM107 66h95v-34h-37v15h-21v-68h21v15h37v-34h-95v106zM484 204v-24h58v-63h-95v19h58v25h-58v62h95v-19h-58zM87 164v-47h-37v146h75v-19h-38v-61h38v-19h-38zM407 204v-87h-37v146h37v-40h25v-19h-25zM317 337h21v68h-21v-68zM177 136h21v68h-21
v-68zM202 337h21v68h-21v-68zM259 -21h21v68h-21v-68zM432 337h21v68h-21v-68zM87 384h21v61h-21v-61zM87 -40h-37v29h37v-29z" />
    <glyph glyph-name=".null" 
 />
    <glyph glyph-name="nonmarkingreturn" horiz-adv-x="439" 
 />
    <glyph glyph-name="space" unicode=" " horiz-adv-x="120" 
 />
    <glyph glyph-name="space" unicode="&#xa0;" horiz-adv-x="120" 
 />
    <glyph glyph-name="exclam" unicode="!" horiz-adv-x="280" 
d="M100 170q-8 0 -14 6t-6 14v320q0 8 6 14t14 6h80q8 0 14 -6t6 -14v-320q0 -8 -6 -14t-14 -6h-80zM100 0q-8 0 -14 6t-6 14v80q0 8 6 14t14 6h80q8 0 14 -6t6 -14v-80q0 -8 -6 -14t-14 -6h-80z" />
    <glyph glyph-name="quotedbl" unicode="&#x22;" horiz-adv-x="445" 
d="M100 370l-20 220h115l-20 -220h-75zM270 370l-20 220h115l-20 -220h-75z" />
    <glyph glyph-name="numbersign" unicode="#" horiz-adv-x="630" 
d="M110 460h86l13 90h98l-13 -90h102l13 90h98l-13 -90h56v-90h-68l-19 -140h57v-90h-70l-12 -90h-98l12 90h-102l-12 -90h-98l12 90h-72v90h85l19 140h-74v90zM263 230h102l19 140h-102z" />
    <glyph glyph-name="percent" unicode="%" horiz-adv-x="717" 
d="M199 0l219 550h103l-219 -550h-103zM190 501q16 0 31 -5t25.5 -13.5t17 -22t6.5 -29.5v-45q0 -16 -6.5 -29.5t-17 -22t-25.5 -13.5t-31 -5h-30q-16 0 -31 5t-25.5 14t-17 22t-6.5 29v45q0 17 6.5 30t17 22t25.5 13.5t31 4.5h30zM162 442q-7 0 -14.5 -2t-7.5 -13v-37
q0 -11 7 -13.5t17 -2.5h18q5 0 10 0.5t9 2t6.5 4.5t2.5 8v38q0 8 -5.5 11.5t-14.5 3.5h-28zM557 234q17 0 31.5 -5t25.5 -14t17 -22t6 -29v-45q0 -17 -6 -30t-17 -22t-25.5 -13.5t-31.5 -4.5h-30q-16 0 -30.5 5t-25.5 13.5t-17.5 22t-6.5 29.5v45q0 16 6.5 29.5t17.5 22
t25.5 13.5t30.5 5h30zM530 175q-8 0 -15.5 -2.5t-7.5 -12.5v-38q0 -10 7 -12.5t17 -1.5h18h10t9 1.5t6.5 4.5t2.5 8v38q0 9 -5.5 12t-14.5 3h-27z" />
    <glyph glyph-name="ampersand" unicode="&#x26;" horiz-adv-x="580" 
d="M525 160q-17 -17 -36 -33l-40 -31l38 -48l38 -48h-142l-33 41q-42 -20 -83.5 -30.5t-78.5 -10.5t-65 10.5t-46.5 28.5t-27.5 41t-9 49q0 45 29 89.5t86 70.5q-16 24 -23 48.5t-7 47.5q0 34 11 58t29.5 39t43.5 22t53 7q41 0 84 -13.5t79 -37.5l-38 -93q-9 6 -22.5 12.5
t-29 12t-31.5 8.5t-29 3q-35 0 -35 -25q0 -17 18 -39l127 -162q34 23 69 56zM200 108q36 0 84 17l-58 74q-34 -11 -53 -28.5t-19 -34.5q0 -12 11.5 -20t34.5 -8z" />
    <glyph glyph-name="quotesingle" unicode="'" horiz-adv-x="275" 
d="M100 370l-20 220h115l-20 -220h-75z" />
    <glyph glyph-name="parenleft" unicode="(" horiz-adv-x="426" 
d="M258 -129q-37 42 -69.5 89.5t-56.5 99t-38 106t-14 109.5q0 56 13.5 109t37 102t55 94t68.5 85l69 -40q-64 -88 -100 -179.5t-36 -170.5q0 -45 10.5 -91t29.5 -91t44.5 -89t54.5 -85z" />
    <glyph glyph-name="parenright" unicode=")" horiz-adv-x="426" 
d="M168 -129q37 42 69.5 89.5t56.5 99t38 106t14 109.5q0 56 -13.5 109t-37 102t-55 94t-68.5 85l-69 -40q64 -88 100 -179.5t36 -170.5q0 -45 -10.5 -91t-29.5 -91t-44.5 -89t-54.5 -85z" />
    <glyph glyph-name="asterisk" unicode="*" horiz-adv-x="462" 
d="M301 370l-6 -43l-50 -14l-26 35l11 108l-48 -100l-39 -17l-37 39l17 39l101 45l-110 -12l-34 27l13 53l43 4l91 -65l-65 90l5 43l50 14l27 -35l-12 -110l47 101l40 18l37 -39l-15 -40l-102 -45l111 12l32 -26l-12 -52l-44 -6l-90 64z" />
    <glyph glyph-name="plus" unicode="+" horiz-adv-x="510" 
d="M302 287h128v-95h-128v-127h-95v127h-127v95h127v128h95v-128z" />
    <glyph glyph-name="comma" unicode="," horiz-adv-x="300" 
d="M80 110q69 0 104.5 -36.5t35.5 -88.5q0 -42 -25.5 -87.5t-78.5 -83.5l-28 41q24 18 41.5 44t17.5 50q0 19 -15 33.5t-52 17.5v110z" />
    <glyph glyph-name="hyphen" unicode="-" horiz-adv-x="460" 
d="M80 100v95h300v-95h-300z" />
    <glyph glyph-name="period" unicode="." horiz-adv-x="290" 
d="M100 0q-8 0 -14 6t-6 14v90q0 8 6 14t14 6h90q8 0 14 -6t6 -14v-90q0 -8 -6 -14t-14 -6h-90z" />
    <glyph glyph-name="slash" unicode="/" horiz-adv-x="482" 
d="M80 0l219 550h103l-219 -550h-103z" />
    <glyph glyph-name="zero" unicode="0" horiz-adv-x="480" 
d="M430 179q0 -45 -16.5 -78.5t-43.5 -56t-61 -33.5t-69 -11q-36 0 -70 11t-61 33.5t-43 56t-16 78.5v171q0 45 16 78.5t42.5 56t60 33.5t69.5 11t70.5 -11.5t61.5 -34t43.5 -56t16.5 -77.5v-171zM310 350q0 29 -23 44t-49 15t-47 -14.5t-21 -44.5v-171q0 -30 21.5 -44.5
t48.5 -14.5q26 0 48 14.5t22 44.5v171z" />
    <glyph glyph-name="one" unicode="1" horiz-adv-x="295" 
d="M35 470l100 60h80q8 0 14 -6t6 -14v-490q0 -8 -6 -14t-14 -6h-80q-8 0 -14 6t-6 14v354l-53 -32z" />
    <glyph glyph-name="two" unicode="2" horiz-adv-x="460" 
d="M170 340h-120v60q0 39 14 64t38 39.5t57 20.5t71 6t72.5 -6t60.5 -20.5t41.5 -39.5t15.5 -64v-40q0 -48 -21.5 -79t-56 -55.5t-77.5 -48t-85 -57.5h230v-120h-350q-8 0 -14 6t-6 14v60q0 39 19.5 67.5t48 50.5t62.5 39.5t62.5 34.5t48 35.5t19.5 42.5v40q0 18 -18 24
t-52 6q-32 0 -46 -6t-14 -24v-50z" />
    <glyph glyph-name="three" unicode="3" horiz-adv-x="481" 
d="M370 269q38 -24 54.5 -53t16.5 -59q0 -39 -16.5 -68t-44 -49t-63 -30t-72.5 -10t-73 10.5t-64.5 31.5t-47 53t-20.5 75h120q1 -32 25 -46t53 -14q42 0 62 15t20 34t-20 35t-60 16h-20v110h20q37 0 53.5 14t16.5 32q0 26 -18.5 40t-43.5 14q-24 0 -47 -14.5t-31 -45.5
h-120q6 43 25 75t46 53t60.5 31.5t68.5 10.5q33 0 65 -9.5t57.5 -28t41.5 -46t16 -64.5q0 -29 -14 -58t-46 -55z" />
    <glyph glyph-name="four" unicode="4" horiz-adv-x="450" 
d="M198 510q5 7 12.5 13.5t15.5 6.5h144q8 0 14 -6t6 -14v-490q0 -8 -6 -14t-14 -6h-80q-8 0 -14 6t-6 14v130h-250v125zM270 270v180l-136 -180h136z" />
    <glyph glyph-name="five" unicode="5" horiz-adv-x="440" 
d="M60 140q12 -5 29 -10.5t36.5 -10t40.5 -7.5t40 -3q42 0 63 17t21 37t-20 38.5t-59 18.5h-146q-8 0 -14 6t-6 14l54 270q0 8 6 14t14 6h261v-115h-186l-17 -80h53q45 0 78.5 -14.5t56 -38.5t34 -54.5t11.5 -61.5q0 -32 -11.5 -61.5t-34 -53t-57 -37.5t-80.5 -14
q-49 0 -100.5 14.5t-96.5 40.5z" />
    <glyph glyph-name="six" unicode="6" horiz-adv-x="480" 
d="M170 225v-100q0 -5 22 -8t48 -3t48 3t22 8v82q0 9 -6.5 13.5t-23.5 4.5h-110zM239 345q37 0 72 -2t61 -13t42 -35t16 -69v-107q0 -45 -15.5 -69t-42 -35t-61 -13t-71.5 -2q-38 0 -72 2t-60.5 13t-42 35t-15.5 69v231q0 48 15 82.5t41 56t60.5 31.5t73.5 10q48 0 97.5 -14
t91.5 -40l-24 -99q-29 17 -69 29.5t-77 12.5q-35 0 -62 -19.5t-27 -54.5h69z" />
    <glyph glyph-name="seven" unicode="7" horiz-adv-x="440" 
d="M400 530l-174 -510q-3 -8 -10 -14t-15 -6h-109l140 410h-192v120h360z" />
    <glyph glyph-name="eight" unicode="8" horiz-adv-x="510" 
d="M180 0q-29 0 -54.5 12t-44.5 32t-30 46t-11 55q0 38 19 71t51 53q-31 24 -45.5 55t-14.5 63q0 27 10 53t28 46t44 32t58 12h130q31 0 57 -12t44.5 -32t28.5 -45.5t10 -53.5q0 -32 -14.5 -62.5t-45.5 -55.5q32 -20 51 -53t19 -71q0 -29 -11 -55t-30 -46t-44.5 -32
t-54.5 -12h-150zM255 210q-42 0 -68.5 -18t-26.5 -47q0 -13 10.5 -24t39.5 -11h90q29 0 39.5 11t10.5 24q0 29 -26.5 47t-68.5 18zM255 320q42 0 63.5 18t21.5 47q0 13 -10.5 24t-39.5 11h-70q-29 0 -39.5 -11t-10.5 -24q0 -29 21.5 -47t63.5 -18z" />
    <glyph glyph-name="nine" unicode="9" horiz-adv-x="495" 
d="M246 185q-38 0 -72.5 2t-60.5 13t-42 35t-16 69v107q0 45 15.5 69t42 35t60.5 13t72 2q37 0 71.5 -2t61 -13t42 -35t15.5 -69v-231q0 -48 -15.5 -82.5t-41.5 -56t-60.5 -31.5t-72.5 -10q-48 0 -97.5 14t-92.5 40q7 24 12.5 48t12.5 48q28 -17 67 -28.5t76 -11.5t64.5 19
t27.5 56h-69zM315 305v95q0 5 -6.5 8.5t-16.5 5t-22.5 2t-24.5 0.5t-24.5 -0.5t-22.5 -2t-16.5 -5t-6.5 -8.5v-77q0 -10 11.5 -14t28.5 -4h100z" />
    <glyph glyph-name="colon" unicode=":" horiz-adv-x="280" 
d="M100 0q-8 0 -14 6t-6 14v80q0 8 6 14t14 6h80q8 0 14 -6t6 -14v-80q0 -8 -6 -14t-14 -6h-80zM100 200q-8 0 -14 6t-6 14v80q0 8 6 14t14 6h80q8 0 14 -6t6 -14v-80q0 -8 -6 -14t-14 -6h-80z" />
    <glyph glyph-name="semicolon" unicode=";" horiz-adv-x="300" 
d="M100 160q-8 0 -14 6t-6 14v80q0 8 6 14t14 6h80q8 0 14 -6t6 -14v-80q0 -8 -6 -14t-14 -6h-80zM80 110q69 0 104.5 -36.5t35.5 -88.5q0 -42 -25.5 -87.5t-78.5 -83.5l-28 41q24 18 41.5 44t17.5 50q0 19 -15 33.5t-52 17.5v110z" />
    <glyph glyph-name="less" unicode="&#x3c;" horiz-adv-x="609" 
d="M80 200v128l449 196v-110l-353 -149l353 -150v-113z" />
    <glyph glyph-name="equal" unicode="=" horiz-adv-x="560" 
d="M80 110v95h400v-95h-400zM80 270v95h400v-95h-400z" />
    <glyph glyph-name="greater" unicode="&#x3e;" horiz-adv-x="599" 
d="M519 200v128l-449 196v-110l353 -149l-353 -150v-113z" />
    <glyph glyph-name="question" unicode="?" horiz-adv-x="480" 
d="M170 380q0 -8 -6 -14t-14 -6h-80q-8 0 -14 6t-6 14v70q0 39 15.5 61t41.5 33t60.5 13.5t72.5 2.5t72.5 -2.5t60.5 -13.5t41.5 -33t15.5 -61v-150q0 -22 -9.5 -35.5t-24 -22t-31.5 -13.5t-31.5 -11t-24 -14.5t-9.5 -23.5v-20q0 -8 -6 -14t-14 -6h-80q-8 0 -14 6t-6 14v50
q0 22 9.5 35t24 21t31.5 13t31.5 12t24 18t9.5 31v90q0 5 -6.5 8.5t-16.5 5.5t-22.5 3t-23.5 1t-23.5 -1t-23 -3t-17.5 -5.5t-7 -8.5v-50zM200 0q-8 0 -14 6t-6 14v60q0 8 6 14t14 6h80q8 0 14 -6t6 -14v-60q0 -8 -6 -14t-14 -6h-80z" />
    <glyph glyph-name="at" unicode="@" horiz-adv-x="621" 
d="M547 68q-42 -34 -96.5 -51t-113.5 -17q-76 0 -130.5 21t-90 56.5t-52.5 80.5t-17 93q0 53 19 104.5t55 92.5t88 66t117 25q48 0 93 -15t80 -44.5t56 -73.5t21 -103q0 -41 -12.5 -73.5t-33 -55t-45 -34.5t-48.5 -12q-27 0 -44 7.5t-27 21.5q-29 -23 -67 -23q-29 0 -50 9.5
t-34.5 25t-20.5 36t-7 42.5q0 25 9 50.5t26 45t43 32t59 12.5q35 0 58 -18l5 19h70l-34 -139q-4 -15 -4 -28q0 -19 7.5 -27.5t18.5 -8.5t23.5 8t23.5 23t18 37t7 50q0 33 -13 65t-37.5 56.5t-60.5 40t-81 15.5q-49 0 -87 -20t-64.5 -52.5t-40.5 -74t-14 -84.5q0 -41 13 -79
t41 -68t70 -48t101 -18q49 0 98.5 15.5t94.5 46.5zM324 327q-14 0 -24.5 -8t-17.5 -20t-11 -27t-4 -29q0 -20 7.5 -34.5t24.5 -14.5q12 0 22.5 8.5t18 22t12 29t4.5 30.5q0 18 -7.5 30.5t-24.5 12.5z" />
    <glyph glyph-name="A" unicode="A" horiz-adv-x="460" 
d="M420 20q0 -8 -6 -14t-14 -6h-80q-8 0 -14 6t-6 14v140h-140v-140q0 -8 -6 -14t-14 -6h-80q-8 0 -14 6t-6 14v345q0 42 16 73t42.5 51.5t60.5 30.5t70 10t70.5 -10t61 -30.5t43 -51.5t16.5 -73v-345zM160 280h140v82q0 23 -22.5 35.5t-48.5 12.5q-25 0 -47 -12t-22 -36
v-82z" />
    <glyph glyph-name="B" unicode="B" horiz-adv-x="495" 
d="M310 530q29 0 55 -11t46 -30t32 -44.5t12 -54.5q0 -38 -19 -70t-51 -51q32 -20 51 -53t19 -71q0 -29 -11 -55t-30 -46t-44.5 -32t-54.5 -12h-255q-8 0 -14 6t-6 14v490q0 8 6 14t14 6h250zM283 120q26 0 39 14t13 32q0 17 -13 31.5t-39 14.5h-123v-92h123zM283 317
q26 0 39 14.5t13 31.5t-13 32t-39 15h-123v-93h123z" />
    <glyph glyph-name="C" unicode="C" horiz-adv-x="460" 
d="M300 180q0 8 6 14t14 6h80q8 0 14 -6t6 -14v-31q0 -41 -16.5 -69.5t-43.5 -46t-61 -25.5t-70 -8t-70 8t-60.5 25.5t-42.5 46t-16 69.5v231q0 41 16 69.5t42.5 46t60.5 25.5t70 8t70 -8t61 -25.5t43.5 -46t16.5 -69.5v-30q0 -8 -6 -14t-14 -6h-80q-8 0 -14 6t-6 14v15
q0 23 -22 34t-48 11t-48 -11t-22 -34v-200q0 -24 22 -34.5t48 -10.5t48 10.5t22 34.5v15z" />
    <glyph glyph-name="D" unicode="D" horiz-adv-x="480" 
d="M240 530q37 0 73 -11.5t64.5 -34t45.5 -56t17 -78.5v-171q0 -45 -17 -78.5t-45.5 -56t-64.5 -33.5t-73 -11h-180q-8 0 -14 6t-6 14v490q0 8 6 14t14 6h180zM160 410v-290h80q30 0 55 20t25 61v127q0 41 -25 61.5t-55 20.5h-80z" />
    <glyph glyph-name="E" unicode="E" horiz-adv-x="435" 
d="M395 0h-335q-8 0 -14 6t-6 14v490q0 8 6 14t14 6h335v-120h-235v-85h235v-115h-235v-90h235v-120z" />
    <glyph glyph-name="F" unicode="F" horiz-adv-x="370" 
d="M160 20q0 -8 -6 -14t-14 -6h-80q-8 0 -14 6t-6 14v490q0 8 6 14t14 6h290v-120h-190v-90h170v-115h-170v-185z" />
    <glyph glyph-name="G" unicode="G" horiz-adv-x="470" 
d="M250 190v105h160q8 0 14 -6t6 -14v-146q0 -45 -16.5 -70.5t-44 -38.5t-63 -16.5t-72.5 -3.5q-38 0 -73 3.5t-62 16t-43 38.5t-16 71v271q0 45 16 71t43 39t62 16.5t73 3.5q37 0 72.5 -3.5t63 -17t44 -39t16.5 -70.5v-30q0 -8 -6 -14t-14 -6h-80q-20 0 -20 20v12
q0 8 -6.5 13.5t-17 8.5t-24.5 4.5t-28 1.5q-28 0 -51 -5.5t-23 -22.5v-235q0 -8 6.5 -13.5t17 -8.5t23.5 -4t27 -1t28 1t24.5 4t17 8.5t6.5 13.5v43h-60z" />
    <glyph glyph-name="H" unicode="H" horiz-adv-x="490" 
d="M430 530q8 0 14 -6t6 -14v-490q0 -8 -6 -14t-14 -6h-80q-8 0 -14 6t-6 14v180h-170v-180q0 -8 -6 -14t-14 -6h-80q-8 0 -14 6t-6 14v490q0 8 6 14t14 6h80q8 0 14 -6t6 -14v-190h170v190q0 8 6 14t14 6h80z" />
    <glyph glyph-name="I" unicode="I" horiz-adv-x="200" 
d="M140 530q8 0 14 -6t6 -14v-490q0 -8 -6 -14t-14 -6h-80q-8 0 -14 6t-6 14v490q0 8 6 14t14 6h80z" />
    <glyph glyph-name="J" unicode="J" horiz-adv-x="330" 
d="M20 128q17 -6 40.5 -11.5t46.5 -5.5q26 0 44.5 9.5t18.5 34.5v355q0 8 6 14t14 6h80q8 0 14 -6t6 -14v-370q0 -38 -11.5 -65t-32 -43.5t-47 -24t-56.5 -7.5q-35 0 -72 9t-70 26z" />
    <glyph glyph-name="K" unicode="K" horiz-adv-x="498" 
d="M468 0h-127q-12 0 -18.5 6.5t-11.5 13.5l-151 206v-206q0 -8 -6 -14t-14 -6h-80q-8 0 -14 6t-6 14v490q0 8 6 14t14 6h80q8 0 14 -6t6 -14v-206l151 206q5 8 12 14t18 6h127l-195 -265z" />
    <glyph glyph-name="L" unicode="L" horiz-adv-x="330" 
d="M160 120h150v-120h-250q-8 0 -14 6t-6 14v490q0 8 6 14t14 6h80q8 0 14 -6t6 -14v-390z" />
    <glyph glyph-name="M" unicode="M" horiz-adv-x="777" 
d="M315 0q-8 0 -13 6t-7 14l-96 390l-51 -390q-1 -8 -6.5 -14t-13.5 -6h-103l67 510q1 8 6.5 14t13.5 6h162q8 0 13 -6t7 -14l94 -379l94 379q2 8 7 14t13 6h163q8 0 13.5 -6t6.5 -14l67 -510h-104q-8 0 -13.5 6t-6.5 14l-51 390l-96 -390q-2 -8 -7 -14t-13 -6h-146z" />
    <glyph glyph-name="N" unicode="N" horiz-adv-x="570" 
d="M160 346v-326q0 -8 -6 -14t-14 -6h-80q-8 0 -14 6t-6 14v490q0 8 6 14t14 6h111l239 -350v330q0 8 6 14t14 6h80q8 0 14 -6t6 -14v-490q0 -8 -6 -14t-14 -6h-115z" />
    <glyph glyph-name="O" unicode="O" horiz-adv-x="460" 
d="M420 134q0 -45 -16 -71.5t-42 -40.5t-61 -18t-72 -4q-38 0 -72 4t-60 18t-41.5 40.5t-15.5 71.5v261q0 45 15.5 71.5t41.5 41t60 18.5t72 4q37 0 72 -4.5t61 -18.5t42 -40.5t16 -71.5v-261zM300 385q0 16 -21 21t-50 5q-28 0 -48.5 -5t-20.5 -21v-241q0 -16 20.5 -20.5
t47.5 -4.5q29 0 50.5 5t21.5 20v241z" />
    <glyph glyph-name="P" unicode="P" horiz-adv-x="480" 
d="M263 290q34 0 50.5 17.5t16.5 38.5q0 24 -17 44t-50 20h-103v-120h103zM160 170v-150q0 -8 -6 -14t-14 -6h-80q-8 0 -14 6t-6 14v490q0 8 6 14t14 6h208q45 0 79 -16t57 -42t34.5 -59t11.5 -67q0 -33 -11 -65t-33.5 -56.5t-57 -39.5t-80.5 -15h-108z" />
    <glyph glyph-name="Q" unicode="Q" horiz-adv-x="460" 
d="M420 179q0 -36 -10.5 -64.5t-29.5 -49.5h80v-65h-231q-36 0 -70 11t-60.5 33.5t-42.5 56t-16 78.5v171q0 45 16 78.5t42.5 56t60 33.5t69.5 11t70.5 -11.5t61.5 -34t43.5 -56t16.5 -77.5v-171zM300 350q0 31 -22.5 45.5t-49.5 14.5q-26 0 -47 -14t-21 -46v-171
q0 -32 22 -45.5t48 -13.5q28 0 49 13.5t21 45.5v171z" />
    <glyph glyph-name="R" unicode="R" horiz-adv-x="485" 
d="M181 200h-21v-180q0 -8 -6 -14t-14 -6h-80q-8 0 -14 6t-6 14v490q0 8 6 14t14 6h208q45 0 79 -15t57 -39t34.5 -54.5t11.5 -61.5q0 -54 -34 -96t-103 -55l79 -105l79 -104h-128q-11 0 -18.5 6.5t-12.5 13.5zM264 315q33 0 49.5 14t16.5 31q0 19 -17 34.5t-49 15.5h-104
v-95h104z" />
    <glyph glyph-name="S" unicode="S" horiz-adv-x="410" 
d="M380 141q0 -38 -15.5 -64.5t-41 -43.5t-59 -25t-69.5 -8q-38 0 -77 8t-71 23l34 98q25 -11 55 -17t56 -6q29 0 48.5 9t19.5 29q0 19 -17 33.5t-42.5 29.5t-55.5 31t-55.5 37t-42.5 48.5t-17 64.5q0 38 15 65t40.5 44t59 25t69.5 8q38 0 76.5 -8.5t72.5 -22.5l-34 -99
q-25 11 -54.5 17.5t-55.5 6.5q-29 0 -49 -9.5t-20 -29.5q0 -18 17 -32.5t43 -28.5l55 -31q30 -16 55.5 -37t42.5 -49t17 -66z" />
    <glyph glyph-name="T" unicode="T" horiz-adv-x="440" 
d="M280 417v-397q0 -8 -6 -14t-14 -6h-80q-8 0 -14 6t-6 14v397h-120q-8 0 -14 6t-6 14v73q0 8 6 14t14 6h360q8 0 14 -6t6 -14v-73q0 -8 -6 -14t-14 -6h-120z" />
    <glyph glyph-name="U" unicode="U" horiz-adv-x="460" 
d="M420 164q0 -45 -16.5 -76.5t-43.5 -51t-61 -28t-69 -8.5q-42 0 -76.5 9.5t-60 31.5t-39.5 58.5t-14 89.5v321q0 8 6 14t14 6h80q8 0 14 -6t6 -14v-312q0 -19 3 -34.5t10.5 -26t21 -16.5t35.5 -6q42 0 56 22t14 61v312q0 8 6 14t14 6h80q8 0 14 -6t6 -14v-346z" />
    <glyph glyph-name="V" unicode="V" horiz-adv-x="464" 
d="M138 510l39 -195l41 -195h17l78 390q2 8 7 14t13 6h106l-100 -510q-2 -8 -7 -14t-13 -6h-186q-8 0 -13 6t-7 14l-102 510h107q8 0 13 -6t7 -14z" />
    <glyph glyph-name="W" unicode="W" horiz-adv-x="778" 
d="M451 530q8 0 13 -6t7 -14l78 -389l79 389q2 8 7 14t13 6h105l-49 -255l-48 -255q-2 -8 -7 -14t-13 -6h-161q-8 0 -13 6t-7 14l-66 349l-66 -349q-2 -8 -7 -14t-13 -6h-161q-8 0 -13 6t-7 14l-49 255l-48 255h104q8 0 13 -6t7 -14l40 -195l39 -194l78 389q2 8 7 14t13 6
h125z" />
    <glyph glyph-name="X" unicode="X" horiz-adv-x="521" 
d="M331 264l165 -264h-128q-10 0 -15.5 6.5t-10.5 13.5l-82 131l-81 -131q-5 -7 -10.5 -13.5t-15.5 -6.5h-128l164 264l-164 266h126q8 0 15 -6.5t12 -13.5l82 -132l82 132q5 7 12 13.5t15 6.5h127z" />
    <glyph glyph-name="Y" unicode="Y" horiz-adv-x="530" 
d="M147 530q8 0 15.5 -6.5t11.5 -13.5l91 -163l90 163q4 7 11.5 13.5t15.5 6.5h123l-180 -320v-190q0 -8 -6 -14t-14 -6h-80q-8 0 -14 6t-6 14v190l-180 320h122z" />
    <glyph glyph-name="Z" unicode="Z" horiz-adv-x="482" 
d="M39 0q-19 0 -19 13q0 6 6 17l240 380h-210q-8 0 -14 6t-6 14v80q0 8 6 14t14 6h387q19 0 19 -13q0 -7 -6 -17l-240 -380h210q8 0 14 -6t6 -14v-80q0 -8 -6 -14t-14 -6h-387z" />
    <glyph glyph-name="bracketleft" unicode="[" horiz-adv-x="345" 
d="M80 -90v710h185v-75h-100v-550h100v-85h-185z" />
    <glyph glyph-name="backslash" unicode="\" horiz-adv-x="482" 
d="M402 0l-219 550h-103l219 -550h103z" />
    <glyph glyph-name="bracketright" unicode="]" horiz-adv-x="345" 
d="M265 -90v710h-185v-75h100v-550h-100v-85h185z" />
    <glyph glyph-name="asciicircum" unicode="^" horiz-adv-x="420" 
d="M380 430h-95l-75 74l-75 -74h-95l134 130h72z" />
    <glyph glyph-name="underscore" unicode="_" horiz-adv-x="660" 
d="M620 90v-90h-580v90h580z" />
    <glyph glyph-name="grave" unicode="`" horiz-adv-x="282" 
d="M40 540h111l91 -120h-72z" />
    <glyph glyph-name="a" unicode="a" horiz-adv-x="400" 
d="M30 120q0 24 11.5 44t36.5 34.5t65 23t96 8.5q-2 23 -21 32.5t-46 9.5q-31 0 -65.5 -9.5t-56.5 -21.5l-20 89q18 9 39 16.5t43.5 13t44.5 8t41 2.5q33 0 62.5 -8t51.5 -26t35 -47.5t13 -73.5v-195q0 -8 -6 -14t-14 -6h-230q-33 0 -56.5 23.5t-23.5 56.5v40zM240 110v53
q-13 -1 -28.5 -3.5t-28.5 -8t-22.5 -15.5t-10.5 -26h90z" />
    <glyph glyph-name="b" unicode="b" horiz-adv-x="430" 
d="M160 240v-120h53q33 0 50 19.5t17 43.5q0 21 -16.5 39t-50.5 18h-53zM218 360q46 0 80.5 -15t57 -40t33.5 -57t11 -65q0 -34 -11.5 -67t-34.5 -58.5t-57 -41.5t-79 -16h-158q-8 0 -14 6t-6 14v490q0 8 6 14t14 6h80q8 0 14 -6t6 -14v-150h58z" />
    <glyph glyph-name="c" unicode="c" horiz-adv-x="410" 
d="M380 147v-7q0 -33 -12.5 -59t-34.5 -44t-51 -27.5t-62 -9.5h-30q-33 0 -62 9.5t-51 27.5t-34.5 44t-12.5 59v90q0 33 12.5 59t34.5 44t51 27.5t62 9.5h30q33 0 62 -9.5t51 -27.5t34.5 -44t12.5 -59v-8h-120q0 16 -17 24t-37 8q-21 0 -38.5 -8t-17.5 -24v-75
q0 -17 15.5 -24.5t35.5 -7.5q22 0 40 8t19 24h120z" />
    <glyph glyph-name="d" unicode="d" horiz-adv-x="430" 
d="M216 240q-34 0 -50 -18t-16 -39q0 -24 17 -43.5t49 -19.5h54v120h-54zM270 360v150q0 8 6 14t14 6h80q8 0 14 -6t6 -14v-490q0 -8 -6 -14t-14 -6h-158q-45 0 -79 16t-57 41.5t-34.5 58.5t-11.5 67q0 33 11 65t33.5 57t57 40t80.5 15h58z" />
    <glyph glyph-name="e" unicode="e" horiz-adv-x="400" 
d="M40 271q0 41 29.5 70t80.5 29h120q51 0 75.5 -22.5t24.5 -54.5q0 -25 -13.5 -51.5t-39.5 -50.5t-63 -43.5t-85 -30.5q8 -11 23.5 -15.5t34.5 -4.5q32 0 66 9.5t57 21.5l20 -88q-18 -9 -39.5 -16.5t-44 -13t-44.5 -8t-41 -2.5q-33 0 -62 7.5t-51 25.5t-35 48t-13 74v116z
M160 184q13 4 26 10.5t26 15.5q26 18 38 50h-90v-76z" />
    <glyph glyph-name="f" unicode="f" horiz-adv-x="315" 
d="M160 20q0 -8 -6 -14t-14 -6h-80q-8 0 -14 6t-6 14v391q0 33 10.5 55.5t29 36.5t43 20t53.5 6q28 0 57 -5.5t57 -13.5v-110q-25 6 -45 9.5t-35 3.5q-50 0 -50 -31v-82h115v-120h-115v-160z" />
    <glyph glyph-name="g" unicode="g" horiz-adv-x="410" 
d="M80 -45q20 -7 44 -12.5t47 -5.5q30 0 54.5 15.5t24.5 47.5h-120q-42 0 -71 29t-29 71v100q0 44 15 76t40 53t58 31t69 10q41 0 82 -12.5t76 -37.5v-320q0 -44 -12.5 -74t-35 -49.5t-53 -28t-65.5 -8.5q-34 0 -75.5 9t-78.5 26zM250 120v123q-11 3 -21 5t-20 2
q-24 0 -41.5 -12.5t-17.5 -37.5v-80h100z" />
    <glyph glyph-name="h" unicode="h" horiz-adv-x="420" 
d="M140 530q8 0 14 -6t6 -14v-165q24 11 50.5 17.5t51.5 6.5t48 -8t41 -26.5t28.5 -49t10.5 -75.5v-190q0 -8 -6 -14t-14 -6h-80q-8 0 -14 6t-6 14v207q0 26 -15.5 36t-32.5 10t-33.5 -6.5t-28.5 -14.5v-232q0 -8 -6 -14t-14 -6h-80q-8 0 -14 6t-6 14v490q0 8 6 14t14 6h80z
" />
    <glyph glyph-name="i" unicode="i" horiz-adv-x="200" 
d="M140 530q8 0 14 -6t6 -14v-60q0 -8 -6 -14t-14 -6h-80q-8 0 -14 6t-6 14v60q0 8 6 14t14 6h80zM140 370q8 0 14 -6t6 -14v-330q0 -8 -6 -14t-14 -6h-80q-8 0 -14 6t-6 14v330q0 8 6 14t14 6h80z" />
    <glyph glyph-name="j" unicode="j" horiz-adv-x="205" 
d="M-44 -53q13 -3 28 -3q27 0 44 15.5t17 52.5v338q0 8 6 14t14 6h80q8 0 14 -6t6 -14v-338q0 -45 -12 -77.5t-33 -53.5t-49.5 -31.5t-61.5 -10.5q-40 0 -80 13zM145 530q8 0 14 -6t6 -14v-60q0 -8 -6 -14t-14 -6h-80q-8 0 -14 6t-6 14v60q0 8 6 14t14 6h80z" />
    <glyph glyph-name="k" unicode="k" horiz-adv-x="476" 
d="M476 0h-144q-11 0 -19 6t-14 14l-139 154v-154q0 -8 -6 -14t-14 -6h-80q-8 0 -14 6t-6 14v490q0 8 6 14t14 6h80q8 0 14 -6t6 -14v-244l120 134q7 8 14.5 14t18.5 6h145l-178 -200z" />
    <glyph glyph-name="l" unicode="l" horiz-adv-x="200" 
d="M140 530q8 0 14 -6t6 -14v-490q0 -8 -6 -14t-14 -6h-80q-8 0 -14 6t-6 14v490q0 8 6 14t14 6h80z" />
    <glyph glyph-name="m" unicode="m" horiz-adv-x="640" 
d="M160 370v-47q30 20 63.5 33.5t63.5 13.5q26 0 47.5 -13t32.5 -45q34 25 71 41.5t70 16.5q39 0 65.5 -29.5t26.5 -99.5v-221q0 -8 -6 -14t-14 -6h-80q-8 0 -14 6t-6 14v205q0 26 -10.5 36t-26.5 10q-17 0 -35 -10t-28 -22v-219q0 -8 -6 -14t-14 -6h-80q-8 0 -14 6t-6 14
v205q0 26 -10.5 36t-26.5 10q-17 0 -35 -10t-28 -22v-219q0 -8 -6 -14t-14 -6h-80q-8 0 -14 6t-6 14v330q0 8 6 14t14 6h100z" />
    <glyph glyph-name="n" unicode="n" horiz-adv-x="425" 
d="M160 370v-42q29 18 61 30t63 12q22 0 41 -7.5t33.5 -24.5t23 -45t8.5 -68v-205q0 -8 -6 -14t-14 -6h-80q-8 0 -14 6t-6 14v207q0 26 -14 36t-31 10q-19 0 -37 -9t-28 -20v-224q0 -8 -6 -14t-14 -6h-80q-8 0 -14 6t-6 14v330q0 8 6 14t14 6h100z" />
    <glyph glyph-name="o" unicode="o" horiz-adv-x="445" 
d="M252 370q33 0 62 -9.5t51 -27.5t34.5 -44t12.5 -59v-90q0 -33 -12.5 -59t-34.5 -44t-51 -27.5t-62 -9.5h-60q-33 0 -62 9.5t-51 27.5t-34.5 44t-12.5 59v90q0 33 12.5 59t34.5 44t51 27.5t62 9.5h60zM197 252q-15 0 -30 -4.5t-15 -25.5v-75q0 -20 14 -25t34 -5h36
q10 0 20 0.5t18 3.5t13 9t5 17v75q0 17 -11.5 23.5t-28.5 6.5h-55z" />
    <glyph glyph-name="p" unicode="p" horiz-adv-x="430" 
d="M213 130q34 0 50.5 17.5t16.5 38.5q0 24 -17 44t-50 20h-53v-120h53zM160 10v-150q0 -8 -6 -14t-14 -6h-80q-8 0 -14 6t-6 14v490q0 8 6 14t14 6h158q45 0 79 -16t57 -42t34.5 -59t11.5 -67q0 -33 -11 -65t-33.5 -56.5t-57 -39.5t-80.5 -15h-58z" />
    <glyph glyph-name="q" unicode="q" horiz-adv-x="430" 
d="M270 130v120h-54q-32 0 -49 -20t-17 -44q0 -21 16 -38.5t50 -17.5h54zM212 10q-46 0 -80.5 15t-57 39.5t-33.5 56.5t-11 65q0 34 11.5 67t34.5 59t57 42t79 16h158q8 0 14 -6t6 -14v-490q0 -8 -6 -14t-14 -6h-80q-8 0 -14 6t-6 14v150h-58z" />
    <glyph glyph-name="r" unicode="r" horiz-adv-x="395" 
d="M160 370v-50q7 5 23 13t35.5 15.5t40.5 13t38 5.5q31 0 52 -16t21 -55v-66q0 -8 -6 -14t-14 -6h-100v31q0 13 -7.5 18t-18.5 5q-15 0 -34.5 -8t-29.5 -14v-222q0 -8 -6 -14t-14 -6h-80q-8 0 -14 6t-6 14v330q0 8 6 14t14 6h100z" />
    <glyph glyph-name="s" unicode="s" horiz-adv-x="409" 
d="M335 246q-36 14 -76 24t-74 10q-38 0 -38 -16q0 -10 18 -16.5t45 -13.5l57 -14q31 -8 57.5 -22t44.5 -35t18 -53q0 -30 -13.5 -51t-36 -34t-52.5 -19t-64 -6q-51 0 -103 11t-93 29l34 83q14 -7 33.5 -13.5t40.5 -11.5t42.5 -8t39.5 -3q23 0 37.5 5t14.5 14t-18 15.5
t-44.5 13.5t-57.5 16t-57.5 23.5t-44.5 35.5t-18 53q0 30 12.5 50.5t34.5 33t51.5 18t62.5 5.5q48 0 88.5 -9t78.5 -21z" />
    <glyph glyph-name="t" unicode="t" horiz-adv-x="295" 
d="M140 530q8 0 14 -6t6 -14v-55h85q8 0 14 -6t6 -14v-70q0 -8 -6 -14t-14 -6h-85v-172q0 -35 18.5 -51t47.5 -16h12q5 0 11 2l13 -48q6 -24 13 -47q-40 -13 -79 -13q-34 0 -62.5 10.5t-49.5 31.5t-32.5 53.5t-11.5 77.5v337q0 8 6 14t14 6h80z" />
    <glyph glyph-name="u" unicode="u" horiz-adv-x="430" 
d="M270 0v41q-23 -17 -55 -29t-65 -12q-25 0 -45 7.5t-34.5 24.5t-22.5 45t-8 69v204q0 8 6 14t14 6h80q8 0 14 -6t6 -14v-205q0 -27 13 -38t31 -11t36.5 9t29.5 20v225q0 8 6 14t14 6h80q8 0 14 -6t6 -14v-330q0 -8 -6 -14t-14 -6h-100z" />
    <glyph glyph-name="v" unicode="v" horiz-adv-x="410" 
d="M124 0q-8 0 -13 6t-7 14l-79 350h106q8 0 13 -6t7 -14l54 -241l54 241q2 8 7 14t13 6h106l-78 -350q-2 -8 -7 -14t-13 -6h-163z" />
    <glyph glyph-name="w" unicode="w" horiz-adv-x="656" 
d="M379 370q8 0 13 -6t7 -14l56 -246l48 246q2 8 7 14t13 6h108l-70 -350q-2 -8 -7 -14t-13 -6h-150q-8 0 -13 6t-7 14l-43 184l-43 -184q-2 -8 -7 -14t-13 -6h-151q-8 0 -13 6t-7 14l-69 350h107q8 0 13 -6t7 -14l49 -246l56 246q2 8 7 14t13 6h102z" />
    <glyph glyph-name="x" unicode="x" horiz-adv-x="462" 
d="M300 188l142 -188h-122q-10 0 -18.5 7t-13.5 13l-57 75l-64 -82q-8 -10 -19.5 -11.5t-22.5 -1.5h-105l141 188l-135 182h122q16 0 31 -19l52 -71l51 70q15 20 31 20h123z" />
    <glyph glyph-name="y" unicode="y" horiz-adv-x="420" 
d="M260 25q-56 -25 -102 -25q-51 0 -84.5 36.5t-33.5 123.5v190q0 8 6 14t14 6h80q8 0 14 -6t6 -14v-207q0 -24 12.5 -34t30.5 -10q14 0 29 5.5t28 13.5v232q0 8 6 14t14 6h80q8 0 14 -6t6 -14v-350q0 -44 -12.5 -74t-35 -49.5t-53 -28t-65.5 -8.5q-34 0 -75.5 9t-78.5 26
l30 80q20 -7 44 -12.5t47 -5.5q32 0 55.5 14t23.5 49v25z" />
    <glyph glyph-name="z" unicode="z" horiz-adv-x="401" 
d="M50 0q-19 0 -19 13q0 6 6 17l143 225h-130q-8 0 -14 6t-6 14v75q0 8 6 14t14 6h302q19 0 19 -13q0 -7 -6 -17l-140 -225h125q8 0 14 -6t6 -14v-75q0 -8 -6 -14t-14 -6h-300z" />
    <glyph glyph-name="braceleft" unicode="{" horiz-adv-x="364" 
d="M80 290q36 2 49 30t13 66q0 26 -4.5 55t-9.5 53q-6 28 -14 56l122 92l28 -78l-59 -45q11 -43 15.5 -76t4.5 -59q0 -40 -10 -69t-30 -55q20 -26 30 -55t10 -68q0 -26 -4.5 -59t-15.5 -76l59 -45l-28 -78l-122 92q8 28 14 56q5 24 9.5 53t4.5 55q0 38 -13 65.5t-49 29.5v60
z" />
    <glyph glyph-name="braceright" unicode="}" horiz-adv-x="364" 
d="M284 290q-36 2 -49 30t-13 66q0 26 4.5 55t9.5 53q6 28 14 56l-122 92l-28 -78l59 -45q-11 -43 -15.5 -76t-4.5 -59q0 -40 10 -69t30 -55q-20 -26 -30 -55t-10 -68q0 -26 4.5 -59t15.5 -76l-59 -45l28 -78l122 92q-8 28 -14 56q-5 24 -9.5 53t-4.5 55q0 38 13 65.5
t49 29.5v60z" />
    <glyph glyph-name="asciitilde" unicode="~" horiz-adv-x="572" 
d="M532 349q-41 -41 -77 -56t-69 -15q-27 0 -51 7t-45 15l-42 15q-21 7 -40 7q-20 0 -41 -9.5t-45 -33.5l-42 72q35 35 66.5 48t61.5 13q24 0 46.5 -7t44.5 -15t43.5 -15t43.5 -7q23 0 48.5 11.5t55.5 41.5z" />
    <glyph glyph-name="copyright" unicode="&#xa9;" horiz-adv-x="542" 
d="M276 246q21 0 35 6t14 29q0 20 -17.5 25.5t-34.5 5.5h-42v-66h45zM276 351q48 0 73.5 -16.5t25.5 -58.5q0 -35 -19 -50t-47 -17l67 -110h-52l-61 108h-32v-108h-49v252h94zM49 222q0 46 17.5 86.5t47.5 70.5t70.5 47.5t86.5 17.5t86.5 -17.5t70.5 -47.5t47.5 -70.5
t17.5 -86.5t-17.5 -86.5t-47.5 -70.5t-70.5 -47.5t-86.5 -17.5t-86.5 17.5t-70.5 47.5t-47.5 70.5t-17.5 86.5zM91 222q0 -38 14 -70.5t38.5 -57t57 -38.5t70.5 -14q37 0 70 14t57.5 38.5t38.5 57t14 70.5q0 37 -14 70t-38.5 57.5t-57.5 38.5t-70 14q-38 0 -70.5 -14
t-57 -38.5t-38.5 -57.5t-14 -70z" />
    <glyph glyph-name="guillemotleft" unicode="&#xab;" horiz-adv-x="615" 
d="M205 10l-125 188l124 182h121l-126 -184l126 -186h-120zM415 10l-125 188l124 182h121l-126 -184l126 -186h-120z" />
    <glyph glyph-name="registered" unicode="&#xae;" horiz-adv-x="534" 
d="M384 185q-8 -45 -38 -70t-72 -25q-29 0 -52.5 10.5t-40.5 28.5t-26.5 42t-9.5 52t9 53t25.5 43t40 28.5t53.5 10.5q42 0 72.5 -24t36.5 -69h-47q-5 21 -21.5 33t-40.5 12q-34 0 -52 -24t-18 -61q0 -36 19.5 -61.5t51.5 -25.5q26 0 42 12.5t19 34.5h49zM45 222
q0 46 17.5 86.5t47.5 70.5t70.5 47.5t86.5 17.5t86.5 -17.5t70.5 -47.5t47.5 -70.5t17.5 -86.5t-17.5 -86.5t-47.5 -70.5t-70.5 -47.5t-86.5 -17.5t-86.5 17.5t-70.5 47.5t-47.5 70.5t-17.5 86.5zM87 222q0 -38 14 -70.5t38.5 -57t57 -38.5t70.5 -14q37 0 70 14t57.5 38.5
t38.5 57t14 70.5q0 37 -14 70t-38.5 57.5t-57.5 38.5t-70 14q-38 0 -70.5 -14t-57 -38.5t-38.5 -57.5t-14 -70z" />
    <glyph glyph-name="degree" unicode="&#xb0;" horiz-adv-x="332" 
d="M170 574q25 0 48 -8t39.5 -23t26.5 -36.5t10 -47.5q0 -28 -10 -49.5t-26.5 -36.5t-39.5 -23t-48 -8q-51 0 -85.5 30.5t-34.5 86.5q0 53 34.5 84t85.5 31zM172 524q-23 0 -39.5 -18t-16.5 -47t16 -47.5t40 -18.5q25 0 40 18t15 44q0 32 -15.5 50.5t-39.5 18.5z" />
    <glyph glyph-name="paragraph" unicode="&#xb6;" horiz-adv-x="575" 
d="M215 0v320q-41 1 -71 14.5t-49.5 34.5t-29.5 47.5t-10 53.5t10 53.5t29.5 47t49 33t68.5 12.5h308v-56h-50v-560h-85v560h-75v-560h-95z" />
    <glyph glyph-name="periodcentered" unicode="&#xb7;" horiz-adv-x="238" 
d="M117 133q-29 0 -48 19t-19 54q0 29 19 49t48 20q31 0 51 -20t20 -49q0 -35 -20 -54t-51 -19z" />
    <glyph glyph-name="guillemotright" unicode="&#xbb;" horiz-adv-x="615" 
d="M410 10l125 188l-124 182h-121l126 -184l-126 -186h120zM200 10l125 188l-124 182h-121l126 -184l-126 -186h120z" />
    <glyph glyph-name="multiply" unicode="&#xd7;" horiz-adv-x="475" 
d="M237 307l90 90l68 -67l-90 -90l90 -90l-68 -68l-90 90l-90 -90l-67 68l90 90l-90 90l67 67z" />
    <glyph glyph-name="divide" unicode="&#xf7;" horiz-adv-x="560" 
d="M80 190v95h400v-95h-400zM243 0q-7 0 -12.5 5.5t-5.5 12.5v81q0 7 5.5 12.5t12.5 5.5h81q7 0 12.5 -5.5t5.5 -12.5v-81q0 -7 -5.5 -12.5t-12.5 -5.5h-81zM243 354q-7 0 -12.5 5.5t-5.5 12.5v81q0 7 5.5 12.5t12.5 5.5h81q7 0 12.5 -5.5t5.5 -12.5v-81q0 -7 -5.5 -12.5
t-12.5 -5.5h-81z" />
    <glyph glyph-name="uni060C" unicode="&#x60c;" horiz-adv-x="301" 
d="M221 0q-35 0 -61 10t-44 27t-27 39.5t-9 48.5q0 42 25.5 87.5t78.5 83.5l28 -41q-28 -21 -44 -46t-16 -48t17 -39t52 -19v-103z" />
    <glyph glyph-name="uni0615" unicode="&#x615;" 
d="M-65 33h15v107h32v-75l12 12q8 8 19 8h44q8 0 14 -6.5t6 -15.5v-43q0 -8 -6 -14t-14 -6h-122v33zM-12 33h57v20h-37z" />
    <glyph glyph-name="uni061B" unicode="&#x61b;" horiz-adv-x="302" 
d="M120 0q-8 0 -14 6t-6 14v80q0 8 6 14t14 6h80q8 0 14 -6t6 -14v-80q0 -8 -6 -14t-14 -6h-80zM222 180q-35 0 -61.5 10t-44.5 27t-27 39.5t-9 48.5q0 42 25.5 87.5t78.5 83.5l28 -41q-32 -23 -46 -48t-14 -46q0 -26 18.5 -44t51.5 -20v-97z" />
    <glyph glyph-name="uni061F" unicode="&#x61f;" horiz-adv-x="540" 
d="M340 432q0 5 -7 8.5t-17.5 5.5t-23 3t-23.5 1t-23.5 -1t-22.5 -3t-16.5 -5.5t-6.5 -8.5v-92q0 -20 9.5 -31t24 -18t31.5 -12t31.5 -13t24 -21t9.5 -35v-50q0 -8 -6 -14t-14 -6h-80q-8 0 -14 6t-6 14v20q0 15 -9.5 23.5t-24 14.5t-31.5 11t-31.5 13.5t-24 21.5t-9.5 36
v150q0 39 15.5 61t41.5 33t60.5 13.5t72.5 2.5t72.5 -2.5t60.5 -13.5t41.5 -33t15.5 -61v-70q0 -8 -6 -14t-14 -6h-80q-8 0 -14 6t-6 14v52zM230 0q-8 0 -14 6t-6 14v60q0 8 6 14t14 6h80q8 0 14 -6t6 -14v-60q0 -8 -6 -14t-14 -6h-80z" />
    <glyph glyph-name="hmz" unicode="&#x621;" horiz-adv-x="380" 
d="M65 0q-8 0 -14 6t-6 14v70q0 8 6 14t14 6h50q-50 59 -50 114q0 48 30.5 74t81.5 26q34 0 68.5 -11t60.5 -28l-31 -73q-11 5 -27 9.5t-30 4.5q-17 0 -27.5 -8.5t-10.5 -23.5q0 -11 6 -23.5t15.5 -24t21.5 -21.5t24 -15h68q8 0 14 -6t6 -14v-70q0 -8 -6 -14t-14 -6h-250z
" />
    <glyph glyph-name="aalef" unicode="&#x627;" horiz-adv-x="220" 
d="M150 550q8 0 14 -6t6 -14v-510q0 -8 -6 -14t-14 -6h-80q-8 0 -14 6t-6 14v510q0 8 6 14t14 6h80z" />
    <glyph glyph-name="hah" unicode="&#x62d;" horiz-adv-x="480" 
d="M261 120l-15 41q-8 23 -19 42t-26.5 31.5t-37.5 12.5q-17 0 -33 -6t-30 -16l-30 85q27 22 60.5 36t67.5 14q45 0 73.5 -24.5t48.5 -61t35.5 -78.5t35.5 -76h49v-120h-199q-35 0 -53 -20t-18 -43q0 -20 10.5 -33.5t27.5 -21.5t38 -11.5t42 -3.5q18 0 34 2t28 5v-101
q-38 -7 -78 -7q-48 0 -89 12t-70.5 35t-46 55.5t-16.5 74.5q0 35 13.5 67t38.5 56.5t58.5 39t74.5 14.5h26z" />
    <glyph glyph-name="dal" unicode="&#x62f;" horiz-adv-x="410" 
d="M60 350q60 20 115 20q39 0 72.5 -10.5t58.5 -32.5t39.5 -56t14.5 -81v-170q0 -8 -6 -14t-14 -6h-300v120h200v70q0 36 -24.5 50.5t-58.5 14.5q-17 0 -35 -2.5t-36 -7.5z" />
    <glyph glyph-name="reh" unicode="&#x631;" horiz-adv-x="240" 
d="M70 310q0 8 6 14t14 6h80q8 0 14 -6t6 -14v-310q0 -46 -13 -79t-35 -54.5t-51.5 -32t-63.5 -10.5q-35 0 -72.5 10.5t-74.5 30.5l29 88q20 -7 42.5 -13t44.5 -6q30 0 52 14t22 52v310z" />
    <glyph glyph-name="seen" unicode="&#x633;" horiz-adv-x="920" 
d="M350 -20v330q0 8 6 14t14 6h80q8 0 14 -6t6 -14v-190h80v190q0 8 6 14t14 6h80q8 0 14 -6t6 -14v-190h80v190q0 8 6 14t14 6h80q8 0 14 -6t6 -14v-230q0 -33 -23.5 -56.5t-56.5 -23.5h-320v-60q0 -33 -23.5 -56.5t-56.5 -23.5h-160q-37 0 -70 14t-57.5 38.5t-38.5 57.5
t-14 70v120q0 8 6 14t14 6h80q8 0 14 -6t6 -14v-120q0 -25 17.5 -42.5t42.5 -17.5h120z" />
    <glyph glyph-name="sad" unicode="&#x635;" horiz-adv-x="920" 
d="M470 215l95 85q16 14 34 22t41 8h150q33 0 56.5 -23.5t23.5 -56.5v-170q0 -33 -23.5 -56.5t-56.5 -23.5h-320v-60q0 -33 -23.5 -56.5t-56.5 -23.5h-160q-37 0 -70 14t-57.5 38.5t-38.5 57.5t-14 70v120q0 8 6 14t14 6h80q8 0 14 -6t6 -14v-120q0 -25 17.5 -42.5
t42.5 -17.5h120v330q0 8 6 14t14 6h80q8 0 14 -6t6 -14v-95zM514 120h236v90h-117z" />
    <glyph glyph-name="tah" unicode="&#x637;" horiz-adv-x="700" 
d="M50 90q0 13 8.5 21.5t21.5 8.5h50v410q0 8 6 14t14 6h80q8 0 14 -6t6 -14v-292l70 62q16 14 34 22t41 8h175q33 0 56.5 -23.5t23.5 -56.5v-170q0 -33 -23.5 -56.5t-56.5 -23.5h-490q-13 0 -21.5 8.5t-8.5 21.5v60zM269 120h261v90h-142z" />
    <glyph glyph-name="ain" unicode="&#x639;" horiz-adv-x="450" 
d="M342 214q-16 8 -39 14.5t-46 6.5q-26 0 -44 -13t-18 -37q0 -12 5.5 -24.5t15.5 -22.5t24 -16.5t32 -6.5h128l-25 -115h-129q-35 0 -55.5 -20t-20.5 -43q0 -19 10 -32t26.5 -20.5t37 -10.5t40.5 -3q40 0 66 8v-106q-38 -7 -78 -7q-48 0 -89 12t-70.5 35t-46 55.5
t-16.5 74.5q0 45 21 83.5t59 62.5q-29 25 -42 54t-13 58q0 35 13.5 62t37 45t54 27t64.5 9q36 0 72.5 -10.5t68.5 -30.5z" />
    <glyph glyph-name="tatweel" unicode="&#x640;" horiz-adv-x="200" 
d="M-30 90q0 13 8.5 21.5t21.5 8.5h200v-120h-200q-13 0 -21.5 8.5t-8.5 21.5v60z" />
    <glyph glyph-name="kaf" unicode="&#x643;" horiz-adv-x="670" 
d="M620 80q0 -33 -23.5 -56.5t-56.5 -23.5h-410q-33 0 -56.5 23.5t-23.5 56.5v200q0 8 6 14t14 6h80q8 0 14 -6t6 -14v-160h330v410q0 8 6 14t14 6h80q8 0 14 -6t6 -14v-450zM250 295h105v10q0 20 -14 27.5t-29 7.5q-14 0 -27 -5l-34 56l123 124l37 -57l-69 -68
q38 -4 58 -23t20 -57v-80h-170v65z" />
    <glyph glyph-name="lam" unicode="&#x644;" horiz-adv-x="520" 
d="M470 -20q0 -33 -23.5 -56.5t-56.5 -23.5h-160q-37 0 -70 14t-57.5 38.5t-38.5 57.5t-14 70v125q0 8 6 14t14 6h80q8 0 14 -6t6 -14v-125q0 -23 17.5 -41.5t42.5 -18.5h120v510q0 8 6 14t14 6h80q8 0 14 -6t6 -14v-550z" />
    <glyph glyph-name="meem" unicode="&#x645;" horiz-adv-x="440" 
d="M50 175q0 40 16.5 69t43.5 48t61.5 28.5t70.5 9.5q39 0 78 -12.5t70 -35.5v-282h-220v-120h-120v295zM270 120v82q-24 8 -40 8q-25 0 -42.5 -10.5t-17.5 -29.5v-50h100z" />
    <glyph glyph-name="heh2" unicode="&#x647;" horiz-adv-x="660" 
d="M40 90q0 13 8.5 21.5t21.5 8.5h57q-17 28 -17 66q0 28 11.5 54t32.5 46t51 32t67 12h53l-15 60q29 10 58.5 14.5t56.5 4.5q39 0 72.5 -10.5t58.5 -32t39.5 -55.5t14.5 -81v-210q0 -8 -6 -14t-14 -6h-520q-13 0 -21.5 8.5t-8.5 21.5v60zM490 230q0 36 -23.5 49.5
t-58.5 14.5q8 -9 12.5 -20t4.5 -24v-130h65v110zM310 120v90h-33q-21 0 -34 -13.5t-13 -31.5t13 -31.5t34 -13.5h33z" />
    <glyph glyph-name="waw" unicode="&#x648;" horiz-adv-x="440" 
d="M99 -47q17 -7 42.5 -12.5t50.5 -5.5q15 0 29.5 3t25 10.5t17 20t6.5 31.5h-120q-42 0 -71 29t-29 71v60q0 44 15 76t40 53t58 31t69 10q41 0 82 -12.5t76 -37.5v-280q0 -45 -13 -78t-35 -54.5t-51.5 -32t-63.5 -10.5q-35 0 -77.5 10t-79.5 30zM270 120v83q-11 3 -21 5
t-20 2q-24 0 -41.5 -12.5t-17.5 -37.5v-40h100z" />
    <glyph glyph-name="maksura" unicode="&#x649;" horiz-adv-x="670" 
d="M583 269q-38 11 -71 11t-57.5 -15.5t-24.5 -48.5v-36h110q33 0 56.5 -23.5t23.5 -56.5v-50q0 -37 -14 -70t-38.5 -57.5t-57.5 -38.5t-70 -14h-210q-37 0 -70 14t-57.5 38.5t-38.5 57.5t-14 70v120q0 8 6 14t14 6h80q8 0 14 -6t6 -14v-104q0 -30 13.5 -53t46.5 -23h210
q21 0 40.5 15t19.5 45v10h-130q-25 0 -42.5 17.5t-17.5 42.5v95q0 47 14.5 81t39 55.5t58 32t72.5 10.5q58 0 116 -19z" />
    <glyph glyph-name="uni064B" unicode="&#x64b;" 
d="M-89 46l177 28v-28l-177 -29v29zM-89 103l177 29v-29l-177 -28v28z" />
    <glyph glyph-name="uni064C" unicode="&#x64c;" 
d="M-11 37q36 20 54 46q-2 0 -4.5 -0.5t-4.5 -0.5q-23 0 -40.5 14t-17.5 42q0 27 18.5 40.5t36.5 13.5q25 0 40.5 -17t15.5 -40q0 -11 -4.5 -26t-14.5 -32t-26.5 -34t-40.5 -30zM-44 47q-22 20 -31.5 42.5t-9.5 46.5q0 40 23 72l24 -16q-18 -27 -18 -54q0 -20 9 -39t29 -34z
M60 115q3 10 3 19q0 13 -9 22t-22 9q-8 0 -18 -6.5t-10 -20.5q0 -15 10.5 -21t23.5 -6t22 4z" />
    <glyph glyph-name="uni064D" unicode="&#x64d;" 
d="M-88 -86l177 28v-28l-177 -29v29zM-88 -29l177 29v-29l-177 -28v28z" />
    <glyph glyph-name="uni064E" unicode="&#x64e;" 
d="M-89 32l177 28v-28l-177 -28v28z" />
    <glyph glyph-name="uni064F" unicode="&#x64f;" 
d="M-46 24q21 11 35 23.5t23 25.5q-4 -1 -11 -1q-24 0 -41.5 14t-17.5 43t19 43.5t39 14.5q26 0 42.5 -18t16.5 -43q0 -11 -4.5 -26.5t-15.5 -33.5t-28.5 -35.5t-42.5 -31.5zM-29 129q0 -15 11 -21.5t25 -6.5q17 0 21 7t4 17q0 14 -8.5 24t-22.5 10q-8 0 -19 -7t-11 -23z
" />
    <glyph glyph-name="uni0650" unicode="&#x650;" 
d="M-74 -24l147 24v-28l-147 -24v28z" />
    <glyph glyph-name="uni0651" unicode="&#x651;" 
d="M15 104q-1 -5 -1 -8v-8q0 -21 7.5 -31.5t13.5 -10.5t10.5 8t4.5 29q0 5 -0.5 11.5t-1.5 13.5l29 5q1 -5 1.5 -11.5t0.5 -14.5q0 -12 -2 -25t-7 -23.5t-13.5 -17t-21.5 -6.5q-8 0 -17 5t-14 13q-6 -13 -16 -20t-20 -7q-17 0 -31.5 13.5t-14.5 43.5q0 11 3 25l30 5
q-3 -15 -3 -26q0 -32 16 -32q7 0 14 10.5t7 30.5v11q0 5 -2 12z" />
    <glyph glyph-name="uni0652" unicode="&#x652;" 
d="M-64 64q0 26 19 44.5t45 18.5t44.5 -18.5t18.5 -44.5t-18.5 -45t-44.5 -19t-45 19t-19 45zM-34 64q0 -14 10 -24t24 -10t24 10t10 24t-10 24t-24 10t-24 -10t-10 -24z" />
    <glyph glyph-name="uni0653" unicode="&#x653;" 
d="M74 24q-12 -9 -22.5 -12.5t-19.5 -3.5q-17 0 -31 6.5t-31 6.5q-10 0 -21 -4.5t-25 -16.5v41q14 12 25 16.5t21 4.5q17 0 31 -6.5t31 -6.5q9 0 19.5 3.5t22.5 12.5v-41z" />
    <glyph glyph-name="uni0654" unicode="&#x654;" 
d="M42 76q-5 4 -12.5 6.5t-14.5 2.5q-8 0 -13.5 -4t-5.5 -14q0 -8 7 -15t21 -7h38v-45h-124v45h24q-14 12 -14 31q0 23 18 36t42 13q14 0 28.5 -5.5t24.5 -13.5z" />
    <glyph glyph-name="uni0655" unicode="&#x655;" 
d="M42 -89q-5 4 -12.5 6.5t-14.5 2.5q-8 0 -13.5 -4t-5.5 -14q0 -8 7 -15t21 -7h38v-45h-124v45h24q-14 12 -14 31q0 23 18 36t42 13q14 0 28.5 -5.5t24.5 -13.5z" />
    <glyph glyph-name="uni0656" unicode="&#x656;" 
d="M-4 -39q11 -29 16.5 -67t5.5 -72v-16q0 -7 -1 -14l-23 -9q0 36 -7.5 71t-21.5 65z" />
    <glyph glyph-name="uni0657" unicode="&#x657;" 
d="M46 163q-21 -12 -35 -24.5t-23 -24.5q2 0 4.5 0.5t4.5 0.5q24 0 42.5 -14.5t18.5 -42.5q0 -29 -19 -43.5t-39 -14.5q-26 0 -42.5 18t-16.5 43q0 10 4.5 26t15.5 34t28 35.5t43 31.5zM29 58q0 15 -11 21.5t-25 6.5q-18 0 -21.5 -8t-3.5 -14q0 -14 8.5 -25t22.5 -11
q8 0 19 7t11 23z" />
    <glyph glyph-name="uni0658" unicode="&#x658;" 
d="M-41 93q2 -31 15.5 -46.5t28.5 -15.5q14 0 24.5 13.5t10.5 40.5v8q0 4 -1 9l33 8q1 -5 1 -10v-11q0 -43 -22.5 -66t-49.5 -23q-25 0 -46.5 21.5t-23.5 68.5z" />
    <glyph glyph-name="uni0660" unicode="&#x660;" horiz-adv-x="300" 
d="M200 290q8 0 14 -6t6 -14v-100q0 -8 -6 -14t-14 -6h-100q-8 0 -14 6t-6 14v100q0 8 6 14t14 6h100z" />
    <glyph glyph-name="uni0661" unicode="&#x661;" horiz-adv-x="280" 
d="M180 530q8 0 14 -6t6 -14v-490q0 -8 -6 -14t-14 -6h-80q-8 0 -14 6t-6 14v490q0 8 6 14t14 6h80z" />
    <glyph glyph-name="uni0662" unicode="&#x662;" horiz-adv-x="431" 
d="M181 0q-8 0 -14 6t-8 14l-16 54l-19 66l-20 68l-18 63l-14 48q-5 20 -6 25q-6 21 -6 40q0 33 13 60t36 46t54 29.5t67 10.5t72.5 -10t68.5 -30l-8 -116q-26 17 -57.5 28t-59.5 11q-26 0 -42.5 -11t-16.5 -36q0 -5 1 -10t3 -11l98 -345h-108z" />
    <glyph glyph-name="uni0663" unicode="&#x663;" horiz-adv-x="700" 
d="M640 360q0 -35 -10 -60.5t-27 -42t-39.5 -24t-48.5 -7.5q-59 0 -119 34q-21 -22 -45.5 -31t-50.5 -9t-51.5 7.5t-48.5 19.5v-227q0 -8 -6 -14t-14 -6h-80q-8 0 -14 6t-6 14v490q0 8 6 14t14 6h80q8 0 14 -6t6 -14v-123q0 -11 6.5 -20t16.5 -15t22 -9t23 -3q14 0 23 4.5
t9 15.5v150q0 8 6 14t14 6h80q8 0 14 -6t6 -14v-109q0 -15 7 -26.5t17.5 -19t23 -11.5t23.5 -4q12 0 20.5 4.5t8.5 15.5v150q0 8 6 14t14 6h80q8 0 14 -6t6 -14v-150z" />
    <glyph glyph-name="uni0664" unicode="&#x664;" horiz-adv-x="419" 
d="M235 0q-44 0 -77 11t-55 30t-32.5 44t-10.5 53q0 32 15.5 65.5t44.5 61.5q-30 27 -44.5 58.5t-14.5 63.5q0 28 11.5 54t34.5 45.5t56.5 31.5t77.5 12q29 0 57 -5.5t53 -14.5l-14 -106q-41 15 -80 15q-31 0 -53.5 -10t-22.5 -34q0 -21 26 -41t72 -20q18 0 35 4v-107
q-8 2 -16 2h-15q-50 0 -76 -20.5t-26 -41.5q0 -20 17 -29.5t44 -9.5q23 0 49 6t49 15l19 -110q-26 -11 -59 -17t-65 -6z" />
    <glyph glyph-name="uni0665" unicode="&#x665;" horiz-adv-x="520" 
d="M450 310q4 -53 6 -83.5t3 -47t1 -21.5v-9q0 -38 -18 -63t-47 -39.5t-65 -20.5t-71 -6t-70.5 6t-64 20.5t-46.5 39.5t-18 63v7q0 4 1 20l3 47q2 31 6 87q3 45 19 78.5t41 56t58 33.5t71 11q37 0 70.5 -11t59.5 -33.5t42 -56t19 -78.5zM330 301q-3 34 -23 51t-48 17
q-29 0 -47.5 -17t-21.5 -50q0 -5 -2 -26.5t-3.5 -46.5t-3 -45.5t-1.5 -22.5q0 -5 7 -9t18 -6.5t25.5 -4t28.5 -1.5q15 0 29.5 1.5t26 4t18.5 6.5t7 9q0 6 -3 38z" />
    <glyph glyph-name="uni0666" unicode="&#x666;" horiz-adv-x="420" 
d="M220 410h-200v120h300q8 0 14 -6t6 -14v-490q0 -8 -6 -14t-14 -6h-80q-8 0 -14 6t-6 14v390z" />
    <glyph glyph-name="uni0667" unicode="&#x667;" horiz-adv-x="468" 
d="M131 0q-8 0 -13 6t-7 14l-91 510h104q8 0 13 -6t7 -14l70 -390h40l69 390q2 8 7 14t13 6h105l-91 -510q-2 -8 -7 -14t-13 -6h-206z" />
    <glyph glyph-name="uni0668" unicode="&#x668;" horiz-adv-x="468" 
d="M337 530q8 0 13 -6t7 -14l91 -510h-105q-8 0 -13 6t-7 14l-69 390h-40l-70 -390q-2 -8 -7 -14t-13 -6h-104l91 510q2 8 7 14t13 6h206z" />
    <glyph glyph-name="uni0669" unicode="&#x669;" horiz-adv-x="510" 
d="M180 333q0 -13 8 -23t22 -10h100v110h-100q-14 0 -22 -10t-8 -23v-44zM430 20q0 -8 -6 -14t-14 -6h-80q-8 0 -14 6t-6 14v160h-110q-30 0 -55.5 11t-44 29.5t-29.5 44t-11 55.5v70q0 29 11 54.5t29.5 44.5t44 30t55.5 11h210q8 0 14 -6t6 -14v-490z" />
    <glyph glyph-name="uni066A" unicode="&#x66a;" horiz-adv-x="599" 
d="M137 0l219 550h103l-219 -550h-103zM99 380q-7 0 -12.5 5.5t-5.5 12.5v81q0 7 5.5 12.5t12.5 5.5h81q7 0 12.5 -5.5t5.5 -12.5v-81q0 -7 -5.5 -12.5t-12.5 -5.5h-81zM421 50q-7 0 -12.5 5.5t-5.5 12.5v81q0 7 5.5 12.5t12.5 5.5h81q7 0 12.5 -5.5t5.5 -12.5v-81
q0 -7 -5.5 -12.5t-12.5 -5.5h-81z" />
    <glyph glyph-name="uni066B" unicode="&#x66b;" horiz-adv-x="300" 
d="M80 110q69 0 104.5 -36.5t35.5 -88.5q0 -42 -25.5 -87.5t-78.5 -83.5l-28 41q24 18 41.5 44t17.5 50q0 19 -15 33.5t-52 17.5v110z" />
    <glyph glyph-name="uni066C" unicode="&#x66c;" horiz-adv-x="302" 
d="M222 0q-35 0 -61.5 10t-44.5 27t-27 39.5t-9 48.5q0 42 25.5 87.5t78.5 83.5l28 -41q-32 -23 -46 -48t-14 -46q0 -26 18.5 -44t51.5 -20v-97z" />
    <glyph glyph-name="uni066D" unicode="&#x66d;" horiz-adv-x="537" 
d="M457 284l-108 -84l36 -131l-5 -3l-113 75l-112 -75l-6 3l38 131l-107 84l2 7l136 6l47 128h6l48 -128l136 -6z" />
    <glyph glyph-name="behc" unicode="&#x66e;" horiz-adv-x="770" 
d="M720 80q0 -33 -23.5 -56.5t-56.5 -23.5h-510q-33 0 -56.5 23.5t-23.5 56.5v230q0 8 6 14t14 6h80q8 0 14 -6t6 -14v-190h430v190q0 8 6 14t14 6h80q8 0 14 -6t6 -14v-230z" />
    <glyph glyph-name="qafc" unicode="&#x66f;" horiz-adv-x="640" 
d="M410 -20q25 0 42.5 17.5t17.5 42.5h-130q-38 0 -64 26t-26 64v80q0 41 15.5 71.5t41.5 50t59.5 29t69.5 9.5q41 0 81 -11.5t73 -33.5v-285q0 -37 -14 -70t-38.5 -57.5t-57.5 -38.5t-70 -14h-180q-37 0 -70 14t-57.5 38.5t-38.5 57.5t-14 70v150q0 8 6 14t14 6h80
q8 0 14 -6t6 -14v-150q0 -25 17.5 -42.5t42.5 -17.5h180zM470 160v82q-24 8 -40 8q-25 0 -42.5 -10.5t-17.5 -29.5v-50h100z" />
    <glyph glyph-name="uni0670" unicode="&#x670;" 
d="M0 173q11 -29 16.5 -67t5.5 -72v-16q0 -7 -1 -14l-23 -9q0 36 -7.5 71t-21.5 65z" />
    <glyph glyph-name="uni0674" unicode="&#x674;" horiz-adv-x="214" 
d="M149 635q-5 4 -12.5 6.5t-14.5 2.5q-8 0 -13.5 -4t-5.5 -14q0 -8 7 -15t21 -7h38v-45h-124v45h24q-14 12 -14 31q0 23 18 36t42 13q14 0 28.5 -5.5t24.5 -13.5z" />
    <glyph glyph-name="uni069C" unicode="&#x69c;" horiz-adv-x="920" 
d="M490 425q0 19 16 32t39 13t39 -13t16 -32t-16 -32t-39 -13t-39 13t-16 32zM620 425q0 19 16 32t39 13t39 -13t16 -32t-16 -32t-39 -13t-39 13t-16 32zM555 525q0 19 16 32t39 13t39 -13t16 -32t-16 -32t-39 -13t-39 13t-16 32zM538 -95q0 19 16 32t39 13t39 -13t16 -32
t-16 -32t-39 -13t-39 13t-16 32zM668 -95q0 19 16 32t39 13t39 -13t16 -32t-16 -32t-39 -13t-39 13t-16 32zM603 -195q0 19 16 32t39 13t39 -13t16 -32t-16 -32t-39 -13t-39 13t-16 32zM350 -20v330q0 8 6 14t14 6h80q8 0 14 -6t6 -14v-190h80v190q0 8 6 14t14 6h80
q8 0 14 -6t6 -14v-190h80v190q0 8 6 14t14 6h80q8 0 14 -6t6 -14v-230q0 -33 -23.5 -56.5t-56.5 -23.5h-320v-60q0 -33 -23.5 -56.5t-56.5 -23.5h-160q-37 0 -70 14t-57.5 38.5t-38.5 57.5t-14 70v120q0 8 6 14t14 6h80q8 0 14 -6t6 -14v-120q0 -25 17.5 -42.5t42.5 -17.5
h120z" />
    <glyph glyph-name="fehc" unicode="&#x6a1;" horiz-adv-x="850" 
d="M680 120v90h-58q-22 0 -37 -13t-15 -32q0 -18 15 -31.5t37 -13.5h58zM720 330q33 0 56.5 -23.5t23.5 -56.5v-230q0 -8 -6 -14t-14 -6h-650q-33 0 -56.5 23.5t-23.5 56.5v230q0 8 6 14t14 6h80q8 0 14 -6t6 -14v-190h297q-9 18 -13 35.5t-4 34.5q0 30 12 55.5t33.5 44
t51 29.5t63.5 11h110z" />
    <glyph glyph-name="uni06A2" unicode="&#x6a2;" horiz-adv-x="850" 
d="M575 -105q0 19 16 32t39 13t39 -13t16 -32t-16 -32t-39 -13t-39 13t-16 32zM680 120v90h-58q-22 0 -37 -13t-15 -32q0 -18 15 -31.5t37 -13.5h58zM720 330q33 0 56.5 -23.5t23.5 -56.5v-230q0 -8 -6 -14t-14 -6h-650q-33 0 -56.5 23.5t-23.5 56.5v230q0 8 6 14t14 6h80
q8 0 14 -6t6 -14v-190h297q-9 18 -13 35.5t-4 34.5q0 30 12 55.5t33.5 44t51 29.5t63.5 11h110z" />
    <glyph glyph-name="uni06A5" unicode="&#x6a5;" horiz-adv-x="850" 
d="M510 -95q0 19 16 32t39 13t39 -13t16 -32t-16 -32t-39 -13t-39 13t-16 32zM640 -95q0 19 16 32t39 13t39 -13t16 -32t-16 -32t-39 -13t-39 13t-16 32zM575 -195q0 19 16 32t39 13t39 -13t16 -32t-16 -32t-39 -13t-39 13t-16 32zM680 120v90h-58q-22 0 -37 -13t-15 -32
q0 -18 15 -31.5t37 -13.5h58zM720 330q33 0 56.5 -23.5t23.5 -56.5v-230q0 -8 -6 -14t-14 -6h-650q-33 0 -56.5 23.5t-23.5 56.5v230q0 8 6 14t14 6h80q8 0 14 -6t6 -14v-190h297q-9 18 -13 35.5t-4 34.5q0 30 12 55.5t33.5 44t51 29.5t63.5 11h110z" />
    <glyph glyph-name="uni06A7" unicode="&#x6a7;" horiz-adv-x="640" 
d="M365 475q0 19 16 32t39 13t39 -13t16 -32t-16 -32t-39 -13t-39 13t-16 32zM410 -20q25 0 42.5 17.5t17.5 42.5h-130q-38 0 -64 26t-26 64v80q0 41 15.5 71.5t41.5 50t59.5 29t69.5 9.5q41 0 81 -11.5t73 -33.5v-285q0 -37 -14 -70t-38.5 -57.5t-57.5 -38.5t-70 -14h-180
q-37 0 -70 14t-57.5 38.5t-38.5 57.5t-14 70v150q0 8 6 14t14 6h80q8 0 14 -6t6 -14v-150q0 -25 17.5 -42.5t42.5 -17.5h180zM470 160v82q-24 8 -40 8q-25 0 -42.5 -10.5t-17.5 -29.5v-50h100z" />
    <glyph glyph-name="uni06A8" unicode="&#x6a8;" horiz-adv-x="640" 
d="M300 475q0 19 16 32t39 13t39 -13t16 -32t-16 -32t-39 -13t-39 13t-16 32zM430 475q0 19 16 32t39 13t39 -13t16 -32t-16 -32t-39 -13t-39 13t-16 32zM365 575q0 19 16 32t39 13t39 -13t16 -32t-16 -32t-39 -13t-39 13t-16 32zM410 -20q25 0 42.5 17.5t17.5 42.5h-130
q-38 0 -64 26t-26 64v80q0 41 15.5 71.5t41.5 50t59.5 29t69.5 9.5q41 0 81 -11.5t73 -33.5v-285q0 -37 -14 -70t-38.5 -57.5t-57.5 -38.5t-70 -14h-180q-37 0 -70 14t-57.5 38.5t-38.5 57.5t-14 70v150q0 8 6 14t14 6h80q8 0 14 -6t6 -14v-150q0 -25 17.5 -42.5t42.5 -17.5
h180zM470 160v82q-24 8 -40 8q-25 0 -42.5 -10.5t-17.5 -29.5v-50h100z" />
    <glyph glyph-name="noonc" unicode="&#x6ba;" horiz-adv-x="520" 
d="M470 -20q0 -33 -23.5 -56.5t-56.5 -23.5h-160q-37 0 -70 14t-57.5 38.5t-38.5 57.5t-14 70v130q0 8 6 14t14 6h80q8 0 14 -6t6 -14v-130q0 -25 17.5 -42.5t42.5 -17.5h120v290q0 8 6 14t14 6h80q8 0 14 -6t6 -14v-330z" />
    <glyph glyph-name="uni06C2" unicode="&#x6c2;" horiz-adv-x="440" 
d="M50 0v175q0 40 16.5 69t43.5 48t61.5 28.5t70.5 9.5q39 0 78 -12.5t70 -35.5v-282h-340zM270 120v82q-24 8 -40 8q-25 0 -42.5 -10.5t-17.5 -29.5v-50h100zM262 476q-5 4 -12.5 6.5t-14.5 2.5q-8 0 -13.5 -4t-5.5 -14q0 -8 7 -15t21 -7h38v-45h-124v45h24q-14 12 -14 31
q0 23 18 36t42 13q14 0 28.5 -5.5t24.5 -13.5z" />
    <glyph glyph-name="uni06C3" unicode="&#x6c3;" horiz-adv-x="440" 
d="M230 440q0 19 16 32t39 13t39 -13t16 -32t-16 -32t-39 -13t-39 13t-16 32zM100 440q0 19 16 32t39 13t39 -13t16 -32t-16 -32t-39 -13t-39 13t-16 32zM50 0v175q0 40 16.5 69t43.5 48t61.5 28.5t70.5 9.5q39 0 78 -12.5t70 -35.5v-282h-340zM270 120v82q-24 8 -40 8
q-25 0 -42.5 -10.5t-17.5 -29.5v-50h100z" />
    <glyph glyph-name="uni06D4" unicode="&#x6d4;" horiz-adv-x="510" 
d="M80 110h350v-110h-350v110z" />
    <glyph glyph-name="uni06D5" unicode="&#x6d5;" horiz-adv-x="440" 
d="M50 0v175q0 40 16.5 69t43.5 48t61.5 28.5t70.5 9.5q39 0 78 -12.5t70 -35.5v-282h-340zM270 120v82q-24 8 -40 8q-25 0 -42.5 -10.5t-17.5 -29.5v-50h100z" />
    <glyph glyph-name="uni06F0" unicode="&#x6f0;" horiz-adv-x="300" 
d="M200 290q8 0 14 -6t6 -14v-100q0 -8 -6 -14t-14 -6h-100q-8 0 -14 6t-6 14v100q0 8 6 14t14 6h100z" />
    <glyph glyph-name="uni06F1" unicode="&#x6f1;" horiz-adv-x="280" 
d="M180 530q8 0 14 -6t6 -14v-490q0 -8 -6 -14t-14 -6h-80q-8 0 -14 6t-6 14v490q0 8 6 14t14 6h80z" />
    <glyph glyph-name="uni06F2" unicode="&#x6f2;" horiz-adv-x="431" 
d="M181 0q-8 0 -14 6t-8 14l-16 54l-19 66l-20 68l-18 63l-14 48q-5 20 -6 25q-6 21 -6 40q0 33 13 60t36 46t54 29.5t67 10.5t72.5 -10t68.5 -30l-8 -116q-26 17 -57.5 28t-59.5 11q-26 0 -42.5 -11t-16.5 -36q0 -5 1 -10t3 -11l98 -345h-108z" />
    <glyph glyph-name="uni06F3" unicode="&#x6f3;" horiz-adv-x="700" 
d="M640 360q0 -35 -10 -60.5t-27 -42t-39.5 -24t-48.5 -7.5q-59 0 -119 34q-21 -22 -45.5 -31t-50.5 -9t-51.5 7.5t-48.5 19.5v-227q0 -8 -6 -14t-14 -6h-80q-8 0 -14 6t-6 14v490q0 8 6 14t14 6h80q8 0 14 -6t6 -14v-123q0 -11 6.5 -20t16.5 -15t22 -9t23 -3q14 0 23 4.5
t9 15.5v150q0 8 6 14t14 6h80q8 0 14 -6t6 -14v-109q0 -15 7 -26.5t17.5 -19t23 -11.5t23.5 -4q12 0 20.5 4.5t8.5 15.5v150q0 8 6 14t14 6h80q8 0 14 -6t6 -14v-150z" />
    <glyph glyph-name="uni06F4" unicode="&#x6f4;" horiz-adv-x="680" 
d="M539 392q-14 8 -33 13t-37 5q-28 0 -43.5 -14t-15.5 -36q0 -19 12 -34.5t35 -15.5h123v-120h-370v-170q0 -8 -6 -14t-14 -6h-80q-8 0 -14 6t-6 14v490q0 8 6 14t14 6h80q8 0 14 -6t6 -14v-200h88q-8 24 -8 50q0 40 14 71t38 53t56 33.5t67 11.5q31 0 62.5 -9t60.5 -29z
" />
    <glyph glyph-name="uni06F5" unicode="&#x6f5;" horiz-adv-x="690" 
d="M407 520q31 0 56.5 -11t44 -30.5t31 -46t18.5 -57.5q16 -86 24.5 -135.5l12.5 -74.5t5 -33t1 -11q0 -28 -10 -50t-28 -37.5t-42.5 -24t-52.5 -8.5q-32 0 -59.5 11.5t-62.5 37.5q-35 -26 -62.5 -37.5t-59.5 -11.5q-28 0 -52.5 8.5t-42.5 24t-28 37.5t-10 50q0 3 1 11t5 33
l12 74l25 136q6 31 18.5 57.5t31 46t44 30.5t56.5 11h124zM288 400q-17 0 -25 -11.5t-14 -43.5q-19 -100 -28 -154t-9 -57q0 -14 17 -14q5 0 9.5 2t9.5 4q5 3 18 12l29 18q15 10 29 17.5t20 7.5q9 0 23 -9q32 -23 57 -37.5t36 -14.5q17 0 17 14q0 1 -2.5 16.5t-7.5 38.5
l-9 51l-9 52.5t-7.5 42.5t-3.5 22q-3 23 -13 33t-24 10h-113z" />
    <glyph glyph-name="uni06F6" unicode="&#x6f6;" horiz-adv-x="520" 
d="M377 389q-16 8 -37.5 15t-43.5 7q-23 0 -41 -11.5t-18 -36.5q0 -29 21 -41t57 -12h120v-120h-160q-29 0 -47 -17.5t-18 -39.5v-113q0 -8 -6 -14t-14 -6h-80q-8 0 -14 6t-6 14v113q0 40 18 76t50 60q-23 22 -32.5 49t-9.5 57q0 37 14.5 65.5t38.5 48t55.5 29.5t65.5 10
t68.5 -10t66.5 -30z" />
    <glyph glyph-name="uni06F7" unicode="&#x6f7;" horiz-adv-x="468" 
d="M131 0q-8 0 -13 6t-7 14l-91 510h104q8 0 13 -6t7 -14l70 -390h40l69 390q2 8 7 14t13 6h105l-91 -510q-2 -8 -7 -14t-13 -6h-206z" />
    <glyph glyph-name="uni06F8" unicode="&#x6f8;" horiz-adv-x="468" 
d="M337 530q8 0 13 -6t7 -14l91 -510h-105q-8 0 -13 6t-7 14l-69 390h-40l-70 -390q-2 -8 -7 -14t-13 -6h-104l91 510q2 8 7 14t13 6h206z" />
    <glyph glyph-name="uni06F9" unicode="&#x6f9;" horiz-adv-x="510" 
d="M180 333q0 -13 8 -23t22 -10h100v110h-100q-14 0 -22 -10t-8 -23v-44zM430 20q0 -8 -6 -14t-14 -6h-80q-8 0 -14 6t-6 14v160h-110q-30 0 -55.5 11t-44 29.5t-29.5 44t-11 55.5v70q0 29 11 54.5t29.5 44.5t44 30t55.5 11h210q8 0 14 -6t6 -14v-490z" />
    <glyph glyph-name="uni0763" unicode="&#x763;" horiz-adv-x="920" 
d="M180 553q0 19 16 32t39 13t39 -13t16 -32t-16 -32t-39 -13t-39 13t-16 32zM310 553q0 19 16 32t39 13t39 -13t16 -32t-16 -32t-39 -13t-39 13t-16 32zM245 453q0 19 16 32t39 13t39 -13t16 -32t-16 -32t-39 -13t-39 13t-16 32zM130 0q-33 0 -56.5 23.5t-23.5 56.5v210
q0 8 6 14t14 6h80q8 0 14 -6t6 -14v-170h580v70h-416v120l251 252l85 -85l-167 -167h287q33 0 56.5 -23.5t23.5 -56.5v-150q0 -33 -23.5 -56.5t-56.5 -23.5h-660z" />
    <glyph glyph-name="uni200C" unicode="&#x200c;" horiz-adv-x="36" 
d="M36 -508h-36v1292h36v-1292z" />
    <glyph glyph-name="uni200D" unicode="&#x200d;" horiz-adv-x="32" 
d="M116 608l-22 -23l-61 60v-1153h-35v1153l-61 -60l-22 23l77 77q-5 4 -16 15l-23 23l-23 23q-11 11 -15 16l22 25l79 -79l78 79l22 -25l-78 -77z" />
    <glyph glyph-name="uni200E" unicode="&#x200e;" horiz-adv-x="35" 
d="M222 683l-99 -101l-24 24l59 62h-122v-1176h-36v1211h156l-57 57l24 24z" />
    <glyph glyph-name="uni200F" unicode="&#x200f;" horiz-adv-x="33" 
d="M34 -508h-36v1176h-122l59 -62l-23 -24l-99 101l99 101l23 -24l-57 -57h156v-1211z" />
    <glyph glyph-name="endash" unicode="&#x2013;" horiz-adv-x="560" 
d="M80 190v95h400v-95h-400z" />
    <glyph glyph-name="emdash" unicode="&#x2014;" horiz-adv-x="830" 
d="M80 190v95h670v-95h-670z" />
    <glyph glyph-name="quoteleft" unicode="&#x2018;" horiz-adv-x="326" 
d="M166 470h-66l60 170h66z" />
    <glyph glyph-name="quoteright" unicode="&#x2019;" horiz-adv-x="326" 
d="M160 470h66l-60 170h-66z" />
    <glyph glyph-name="quotedblleft" unicode="&#x201c;" horiz-adv-x="440" 
d="M166 470h-66l60 170h66zM280 470h-66l60 170h66z" />
    <glyph glyph-name="quotedblright" unicode="&#x201d;" horiz-adv-x="440" 
d="M160 470h66l-60 170h-66zM274 470h66l-60 170h-66z" />
    <glyph glyph-name="abdofonts.com" unicode="&#x2020;" horiz-adv-x="592" 
d="M108 365h-21v-47h-37v146h95v-146h-37v47zM490 -40h-37v87h-21v-87h-37v87h-21v-87h-37v106h153v-106zM165 464h37v-40h58v-106h-95v146zM375 318h-95v106h58v40h37v-146zM490 318h-95v106h95v-106zM235 117h-95v106h95v-106zM317 -40h-95v106h95v-106zM350 117h-37v87
h-21v-87h-37v106h95v-106zM107 66h95v-34h-37v15h-21v-68h21v15h37v-34h-95v106zM484 204v-24h58v-63h-95v19h58v25h-58v62h95v-19h-58zM87 164v-47h-37v146h75v-19h-38v-61h38v-19h-38zM407 204v-87h-37v146h37v-40h25v-19h-25zM317 337h21v68h-21v-68zM177 136h21v68h-21
v-68zM202 337h21v68h-21v-68zM259 -21h21v68h-21v-68zM432 337h21v68h-21v-68zM87 384h21v61h-21v-61zM87 -40h-37v29h37v-29z" />
    <glyph glyph-name="bullet" unicode="&#x2022;" horiz-adv-x="344" 
d="M172 318q25 0 47.5 -9.5t39 -26t26 -39.5t9.5 -50t-9.5 -50t-26 -40t-39 -26.5t-47.5 -9.5t-47 9.5t-38.5 26.5t-26.5 40t-10 50t10 50t26.5 39.5t38.5 26t47 9.5z" />
    <glyph glyph-name="uni2026" unicode="&#x2026;" horiz-adv-x="600" 
d="M70 0q-8 0 -14 6t-6 14v90q0 8 6 14t14 6h90q8 0 14 -6t6 -14v-90q0 -8 -6 -14t-14 -6h-90zM250 0q-8 0 -14 6t-6 14v90q0 8 6 14t14 6h90q8 0 14 -6t6 -14v-90q0 -8 -6 -14t-14 -6h-90zM430 0q-8 0 -14 6t-6 14v90q0 8 6 14t14 6h90q8 0 14 -6t6 -14v-90q0 -8 -6 -14
t-14 -6h-90z" />
    <glyph glyph-name="guilsinglleft" unicode="&#x2039;" horiz-adv-x="405" 
d="M205 10l-125 188l124 182h121l-126 -184l126 -186h-120z" />
    <glyph glyph-name="guilsinglright" unicode="&#x203a;" horiz-adv-x="405" 
d="M200 10l125 188l-124 182h-121l126 -184l-126 -186h120z" />
    <glyph glyph-name="trademark" unicode="&#x2122;" horiz-adv-x="610" 
d="M177 380v-199h-62v199h-70v48h202v-48h-70zM507 181v175l-65 -175h-41l-65 175v-175h-57v247h81l62 -162l62 162h81v-247h-58z" />
    <glyph glyph-name="minus" unicode="&#x2212;" horiz-adv-x="560" 
d="M80 190v100h400v-100h-400z" />
    <glyph glyph-name="uni25CC" unicode="&#x25cc;" horiz-adv-x="715" 
d="M105 168q-10 20 -15 41t-5 45l32 3q1 -19 5 -38t15 -41zM177 68q-19 16 -32.5 33t-25.5 35l29 17q18 -33 50 -61zM286 9q-23 8 -43.5 17t-40.5 24l18 24q18 -11 35.5 -18.5t37.5 -13.5zM406 3q-14 -2 -25 -2.5t-21 -0.5q-9 0 -19.5 0.5t-24.5 2.5l3 32q14 -2 21 -2h16
q8 0 19 1t24 3zM520 51q-22 -14 -42.5 -23t-40.5 -16l-11 32q38 13 71 35zM598 143q-11 -19 -26 -37l-28 -35l-24 26q16 14 27 30l24 32zM631 263q-1 -23 -5.5 -45.5t-12.5 -43.5l-30 12l8 38q5 19 7 39h33zM609 382q8 -20 13.5 -42t5.5 -46l-30 -4q-2 19 -8 39.5t-13 41.5z
M538 480q17 -17 30 -33.5t26 -36.5l-31 -16q-8 19 -20.5 33.5t-27.5 29.5zM429 538q23 -7 43.5 -15.5t39.5 -24.5l-20 -26q-18 14 -35 21.5t-37 14.5zM307 542q24 7 49 7q10 0 21 -1t19 -2l-2 -33q-12 2 -21 2.5t-17 0.5q-10 0 -20 -0.5t-23 -5.5zM195 496q22 15 41.5 24.5
t38.5 16.5l12 -33q-20 -7 -38.5 -15t-32.5 -19zM117 404q11 20 23.5 38.5t29.5 32.5l24 -25q-16 -13 -28.5 -28.5t-21.5 -32.5zM84 287q1 23 5 45t12 42l31 -10q-7 -19 -10.5 -39t-4.5 -38h-33z" />
    <glyph glyph-name="uni2639" unicode="&#x2639;" horiz-adv-x="698" 
d="M349 538q55 0 103.5 -21.5t85.5 -58t58.5 -85.5t21.5 -104q0 -56 -21.5 -104.5t-58.5 -85.5t-85.5 -58t-103.5 -21t-104 21.5t-85.5 58t-58 85.5t-21.5 104t21.5 104t58 85.5t85.5 58t104 21.5zM349 26q49 0 93 19.5t77 52.5t52.5 77t19.5 94t-19.5 94t-52.5 77t-77 52.5
t-93 19.5q-50 0 -94 -19.5t-77 -52.5t-52.5 -77.5t-19.5 -93.5q0 -50 19.5 -94t52.5 -77t77 -52.5t94 -19.5zM444 368q14 0 24 -10t10 -24t-10.5 -24.5t-23.5 -10.5q-14 0 -24.5 10t-10.5 25q0 14 10.5 24t24.5 10zM254 368q14 0 24 -10t10 -24t-10 -24.5t-24 -10.5
t-24.5 10t-10.5 25q0 14 10.5 24t24.5 10zM461 129q-19 29 -49.5 45t-62.5 16q-33 0 -64 -16t-48 -45l-19 11q43 86 131 86q87 0 131 -86z" />
    <glyph glyph-name="uni263A" unicode="&#x263a;" horiz-adv-x="698" 
d="M349 538q55 0 103.5 -21.5t85.5 -58t58.5 -85.5t21.5 -104q0 -56 -21.5 -104.5t-58.5 -85.5t-85.5 -58t-103.5 -21t-104 21.5t-85.5 58t-58 85.5t-21.5 104t21.5 104t58 85.5t85.5 58t104 21.5zM349 26q49 0 93 19.5t77 52.5t52.5 77t19.5 94t-19.5 94t-52.5 77t-77 52.5
t-93 19.5q-50 0 -94 -19.5t-77 -52.5t-52.5 -77.5t-19.5 -93.5q0 -50 19.5 -94t52.5 -77t77 -52.5t94 -19.5zM444 368q14 0 24 -10t10 -24t-10.5 -24.5t-23.5 -10.5q-14 0 -24.5 10t-10.5 25q0 14 10.5 24t24.5 10zM254 368q14 0 24 -10t10 -24t-10 -24.5t-24 -10.5
t-24.5 10t-10.5 25q0 14 10.5 24t24.5 10zM480 196q-45 -86 -131 -86q-87 0 -131 86l19 11q17 -29 48 -45t64 -16t63.5 16t48.5 45z" />
    <glyph glyph-name="uni0654064E" unicode="&#xe832;" 
d="M-60 -46h120v-29h-120v29zM42 76q-5 4 -12.5 6.5t-14.5 2.5q-8 0 -13.5 -4t-5.5 -14q0 -8 7 -15t21 -7h38v-45h-124v45h24q-14 12 -14 31q0 23 18 36t42 13q14 0 28.5 -5.5t24.5 -13.5z" />
    <glyph glyph-name="uni0654064B" unicode="&#xe833;" 
d="M-60 -40h120v-29h-120v29zM-60 -98h120v-29h-120v29zM42 76q-5 4 -12.5 6.5t-14.5 2.5q-8 0 -13.5 -4t-5.5 -14q0 -8 7 -15t21 -7h38v-45h-124v45h24q-14 12 -14 31q0 23 18 36t42 13q14 0 28.5 -5.5t24.5 -13.5z" />
    <glyph glyph-name="uni06540652" unicode="&#xe834;" 
d="M-57 212.5q0 23.5 17.5 40t40.5 16.5t40 -16.5t17 -40t-17 -40.5t-40 -17t-40.5 17t-17.5 40.5zM-30 212.5q0 -12.5 9 -21.5t22 -9t22 9t9 21.5t-9 21.5t-22 9t-22 -9t-9 -21.5zM42 76q-5 4 -12.5 6.5t-14.5 2.5q-8 0 -13.5 -4t-5.5 -14q0 -8 7 -15t21 -7h38v-45h-124v45
h24q-14 12 -14 31q0 23 18 36t42 13q14 0 28.5 -5.5t24.5 -13.5z" />
    <glyph glyph-name="uni0654064F" unicode="&#xe835;" 
d="M-41 167q18 10 31 21t21 23q-4 -1 -10 -1q-22 0 -37.5 12.5t-15.5 38.5t17 39t35 13q23 0 38 -16t15 -39q0 -9 -4 -23t-14 -30.5t-25.5 -32t-38.5 -28.5zM-26 261q0 -13 10 -19t22 -6q16 0 19.5 6.5t3.5 15.5q0 12 -8 21t-20 9q-7 0 -17 -6t-10 -21zM42 76
q-5 4 -12.5 6.5t-14.5 2.5q-8 0 -13.5 -4t-5.5 -14q0 -8 7 -15t21 -7h38v-45h-124v45h24q-14 12 -14 31q0 23 18 36t42 13q14 0 28.5 -5.5t24.5 -13.5z" />
    <glyph glyph-name="uni0654064C" unicode="&#xe836;" 
d="M-10 160q33 18 49 42q-2 0 -4.5 -0.5t-3.5 -0.5q-21 0 -37 12.5t-16 37.5t17 37t33 12q22 0 36 -15.5t14 -35.5q0 -10 -4 -23.5t-13 -29t-23.5 -31t-36.5 -26.5zM-40 169q-19 18 -27.5 38.5t-8.5 41.5q0 36 20 65l22 -14q-16 -24 -16 -49q0 -18 8 -35t26 -30zM54 231
q3 9 3 17q0 11 -8 19.5t-20 8.5q-7 0 -16 -6t-9 -19t9.5 -18.5t21 -5.5t19.5 4zM42 76q-5 4 -12.5 6.5t-14.5 2.5q-8 0 -13.5 -4t-5.5 -14q0 -8 7 -15t21 -7h38v-45h-124v45h24q-14 12 -14 31q0 23 18 36t42 13q14 0 28.5 -5.5t24.5 -13.5z" />
    <glyph glyph-name="uni06550650" unicode="&#xe837;" 
d="M-60 -208h120v-29h-120v29zM42 -89q-5 4 -12.5 6.5t-14.5 2.5q-8 0 -13.5 -4t-5.5 -14q0 -8 7 -15t21 -7h38v-45h-124v45h24q-14 12 -14 31q0 23 18 36t42 13q14 0 28.5 -5.5t24.5 -13.5z" />
    <glyph glyph-name="uni0654064D" unicode="&#xe838;" 
d="M-48 -389h120v-29h-120v29zM-48 -451h120v-29h-120v29zM42 -89q-5 4 -12.5 6.5t-14.5 2.5q-8 0 -13.5 -4t-5.5 -14q0 -8 7 -15t21 -7h38v-45h-124v45h24q-14 12 -14 31q0 23 18 36t42 13q14 0 28.5 -5.5t24.5 -13.5z" />
    <glyph glyph-name="logo" unicode="&#xf8ff;" horiz-adv-x="648" 
d="M598 -55h-548v548h548v-548zM534 279q3 -15 3 -30q0 -39 -14.5 -72.5t-39.5 -58.5t-59 -39.5t-72 -14.5q-39 0 -72.5 14.5t-58.5 39.5t-39.5 58.5t-14.5 72.5q0 37 14 70.5t38.5 58.5t57.5 40t71 16q-5 0 -12 1t-12 1q-45 0 -85 -17t-70 -47t-47 -70t-17 -85t17 -85
t47 -70t70 -47.5t85 -17.5t85 17.5t70 47.5t47 70t17 85q0 32 -9 62zM445 182q0 19 -7.5 36.5t-20 30t-29.5 20t-36 7.5q-20 0 -37 -7.5t-29.5 -20t-20 -30t-7.5 -36.5t7.5 -36t20 -29.5t29.5 -20t37 -7.5q19 0 36 7.5t29.5 20t20 29.5t7.5 36z" />
    <glyph glyph-name="p1" unicode="&#xfbb2;" 
d="M-55 45q0 19 16 32t39 13t39 -13t16 -32t-16 -32t-39 -13t-39 13t-16 32z" />
    <glyph glyph-name="p2" unicode="&#xfbb4;" 
d="M10 40q0 19 16 32t39 13t39 -13t16 -32t-16 -32t-39 -13t-39 13t-16 32zM-120 40q0 19 16 32t39 13t39 -13t16 -32t-16 -32t-39 -13t-39 13t-16 32z" />
    <glyph glyph-name="p3" unicode="&#xfbb6;" 
d="M-120 45q0 19 16 32t39 13t39 -13t16 -32t-16 -32t-39 -13t-39 13t-16 32zM10 45q0 19 16 32t39 13t39 -13t16 -32t-16 -32t-39 -13t-39 13t-16 32zM-55 145q0 19 16 32t39 13t39 -13t16 -32t-16 -32t-39 -13t-39 13t-16 32z" />
    <glyph glyph-name="uniFD3E" unicode="&#xfd3e;" horiz-adv-x="666" 
d="M80 220q11 6 20.5 18t20.5 24.5t23.5 21.5t29.5 9q9 0 24 -5q0 23 9 44.5t30 41.5q0 29 9 47.5t22 29t28 14.5t26 4q14 0 18 -4q0 39 11 64t29 41.5t41 28.5l46 23q24 11 46 25.5t39 37.5l14 -12l-50 -72q-24 -37 -44 -76t-32.5 -80t-12.5 -85v-280q0 -44 12.5 -85.5
t32.5 -80.5t44 -75l50 -72l-14 -12q-17 23 -39 37.5t-46 25.5l-46 22q-23 11 -41 28t-29 42t-11 65q-3 -4 -18 -4q-11 0 -26 4t-28 14.5t-22 29t-9 47.5q-21 20 -30 41.5t-9 44.5q-11 -5 -24 -5q-17 0 -29.5 9t-23.5 21t-20.5 24.5t-20.5 18.5zM246 70q9 -13 19.5 -18.5
t21.5 -5.5q13 0 25.5 7.5t22 20.5t15.5 28.5t6 32.5q0 34 -26 59q0 -21 -14 -31.5t-30.5 -19t-30.5 -19t-14 -31.5q0 -8 5 -23zM246 370q-5 -15 -5 -24q0 -21 14 -31.5t30.5 -19.5t30.5 -19.5t14 -30.5q26 25 26 59q0 17 -6 33t-15.5 29t-22 20.5t-25.5 7.5
q-11 0 -21.5 -5.5t-19.5 -18.5zM248 220q-23 12 -37 30q-11 -2 -21 -10.5t-13 -19.5q3 -11 13 -19.5t21 -10.5q7 8 16 16t21 14z" />
    <glyph glyph-name="uniFD3F" unicode="&#xfd3f;" horiz-adv-x="666" 
d="M586 220q-11 6 -20.5 18t-20.5 24.5t-23.5 21.5t-29.5 9q-9 0 -24 -5q0 23 -9 44.5t-30 41.5q0 29 -9 47.5t-22 29t-28 14.5t-26 4q-14 0 -18 -4q0 39 -11 64t-29 41.5t-41 28.5l-46 23q-24 11 -46 25.5t-39 37.5l-14 -12l50 -72q24 -37 44 -76t32.5 -80t12.5 -85v-280
q0 -44 -12.5 -85.5t-32.5 -80.5t-44 -75l-50 -72l14 -12q17 23 39 37.5t46 25.5l46 22q23 11 41 28t29 42t11 65q3 -4 18 -4q11 0 26 4t28 14.5t22 29t9 47.5q21 20 30 41.5t9 44.5q11 -5 24 -5q17 0 29.5 9t23.5 21t20.5 24.5t20.5 18.5zM420 70q-9 -13 -19.5 -18.5
t-21.5 -5.5q-13 0 -25.5 7.5t-22 20.5t-15.5 28.5t-6 32.5q0 34 26 59q0 -21 14 -31.5t30.5 -19t30.5 -19t14 -31.5q0 -8 -5 -23zM420 370q5 -15 5 -24q0 -21 -14 -31.5t-30.5 -19.5t-30.5 -19.5t-14 -30.5q-26 25 -26 59q0 17 6 33t15.5 29t22 20.5t25.5 7.5
q11 0 21.5 -5.5t19.5 -18.5zM418 220q23 12 37 30q11 -2 21 -10.5t13 -19.5q-3 -11 -13 -19.5t-21 -10.5q-7 8 -16 16t-21 14z" />
    <glyph glyph-name="alef2" horiz-adv-x="220" 
d="M150 550q8 0 14 -6t6 -14v-510q0 -8 -6 -14t-14 -6h-80q-8 0 -14 6t-6 14v510q0 8 6 14t14 6h80z" />
    <glyph glyph-name="aleff2" horiz-adv-x="220" 
d="M150 550q8 0 14 -6t6 -14v-410h50v-120h-150q-8 0 -14 6t-6 14v510q0 8 6 14t14 6h80z" />
    <glyph glyph-name="uni06A7.init" horiz-adv-x="450" 
d="M170 445q0 19 16 32t39 13t39 -13t16 -32t-16 -32t-39 -13t-39 13t-16 32zM-30 90q0 13 8.5 21.5t21.5 8.5h67q-9 18 -13 35.5t-4 34.5q0 30 12 55.5t33.5 44t51 29.5t63.5 11h110q33 0 56.5 -23.5t23.5 -56.5v-230q0 -8 -6 -14t-14 -6h-380q-13 0 -21.5 8.5t-8.5 21.5
v60zM222 210q-22 0 -37 -13t-15 -32q0 -18 14.5 -31.5t37.5 -13.5h58v90h-58z" />
    <glyph glyph-name="uni06A7.medi" horiz-adv-x="450" 
d="M170 445q0 19 16 32t39 13t39 -13t16 -32t-16 -32t-39 -13t-39 13t-16 32zM280 120v90h-58q-22 0 -37 -13t-15 -32q0 -18 14.5 -31.5t37.5 -13.5h58zM320 330q33 0 56.5 -23.5t23.5 -56.5v-130h50v-120h-450q-13 0 -21.5 8.5t-8.5 21.5v60q0 13 8.5 21.5t21.5 8.5h67
q-9 18 -13 35.5t-4 34.5q0 30 12 55.5t33.5 44t51 29.5t63.5 11h110z" />
    <glyph glyph-name="uni06A8.init" horiz-adv-x="450" 
d="M105 425q0 19 16 32t39 13t39 -13t16 -32t-16 -32t-39 -13t-39 13t-16 32zM235 425q0 19 16 32t39 13t39 -13t16 -32t-16 -32t-39 -13t-39 13t-16 32zM170 525q0 19 16 32t39 13t39 -13t16 -32t-16 -32t-39 -13t-39 13t-16 32zM-30 90q0 13 8.5 21.5t21.5 8.5h67
q-9 18 -13 35.5t-4 34.5q0 30 12 55.5t33.5 44t51 29.5t63.5 11h110q33 0 56.5 -23.5t23.5 -56.5v-230q0 -8 -6 -14t-14 -6h-380q-13 0 -21.5 8.5t-8.5 21.5v60zM222 210q-22 0 -37 -13t-15 -32q0 -18 14.5 -31.5t37.5 -13.5h58v90h-58z" />
    <glyph glyph-name="uni06A8.medi" horiz-adv-x="450" 
d="M105 425q0 19 16 32t39 13t39 -13t16 -32t-16 -32t-39 -13t-39 13t-16 32zM235 425q0 19 16 32t39 13t39 -13t16 -32t-16 -32t-39 -13t-39 13t-16 32zM170 525q0 19 16 32t39 13t39 -13t16 -32t-16 -32t-39 -13t-39 13t-16 32zM280 120v90h-58q-22 0 -37 -13t-15 -32
q0 -18 14.5 -31.5t37.5 -13.5h58zM320 330q33 0 56.5 -23.5t23.5 -56.5v-130h50v-120h-450q-13 0 -21.5 8.5t-8.5 21.5v60q0 13 8.5 21.5t21.5 8.5h67q-9 18 -13 35.5t-4 34.5q0 30 12 55.5t33.5 44t51 29.5t63.5 11h110z" />
    <glyph glyph-name="uni06CC.medi" horiz-adv-x="300" 
d="M160 -110q0 19 16 32t39 13t39 -13t16 -32t-16 -32t-39 -13t-39 13t-16 32zM30 -110q0 19 16 32t39 13t39 -13t16 -32t-16 -32t-39 -13t-39 13t-16 32zM-30 90q0 13 8.5 21.5t21.5 8.5h90v190q0 8 6 14t14 6h80q8 0 14 -6t6 -14v-190h90v-120h-300q-13 0 -21.5 8.5
t-8.5 21.5v60z" />
    <glyph glyph-name="uni0763.fina" horiz-adv-x="920" 
d="M180 553q0 19 16 32t39 13t39 -13t16 -32t-16 -32t-39 -13t-39 13t-16 32zM310 553q0 19 16 32t39 13t39 -13t16 -32t-16 -32t-39 -13t-39 13t-16 32zM245 453q0 19 16 32t39 13t39 -13t16 -32t-16 -32t-39 -13t-39 13t-16 32zM130 0q-33 0 -56.5 23.5t-23.5 56.5v210
q0 8 6 14t14 6h80q8 0 14 -6t6 -14v-170h580v70h-416v120l251 252l85 -85l-167 -167h287q33 0 56.5 -23.5t23.5 -56.5v-110h50v-120h-790z" />
    <glyph glyph-name="uni0763.init" horiz-adv-x="410" 
d="M8 632q0 19 16 32t39 13t39 -13t16 -32t-16 -32t-39 -13t-39 13t-16 32zM138 632q0 19 16 32t39 13t39 -13t16 -32t-16 -32t-39 -13t-39 13t-16 32zM73 532q0 19 16 32t39 13t39 -13t16 -32t-16 -32t-39 -13t-39 13t-16 32zM0 0q-13 0 -21.5 8.5t-8.5 21.5v60
q0 13 8.5 21.5t21.5 8.5h240v45q0 21 -7 35t-19 23t-28 13t-33 4q-32 0 -62 -11l-23 51l-24 50l241 242l85 -85l-143 -144q58 -12 95.5 -54t37.5 -124v-145q0 -8 -6 -14t-14 -6h-340z" />
    <glyph glyph-name="uni0763.medi" horiz-adv-x="410" 
d="M8 632q0 19 16 32t39 13t39 -13t16 -32t-16 -32t-39 -13t-39 13t-16 32zM138 632q0 19 16 32t39 13t39 -13t16 -32t-16 -32t-39 -13t-39 13t-16 32zM73 532q0 19 16 32t39 13t39 -13t16 -32t-16 -32t-39 -13t-39 13t-16 32zM0 0q-13 0 -21.5 8.5t-8.5 21.5v60
q0 13 8.5 21.5t21.5 8.5h240v45q0 21 -7 35t-19 23t-28 13t-33 4q-32 0 -62 -11l-23 51l-24 50l241 242l85 -85l-143 -144q58 -12 95.5 -54t37.5 -124v-45h50v-120h-410z" />
    <glyph glyph-name="uni0651064B" 
d="M-89 172l177 28v-28l-177 -29v29zM-89 229l177 29v-29l-177 -28v28zM15 104q-1 -5 -1 -8v-8q0 -21 7.5 -31.5t13.5 -10.5t10.5 8t4.5 29q0 5 -0.5 11.5t-1.5 13.5l29 5q1 -5 1.5 -11.5t0.5 -14.5q0 -12 -2 -25t-7 -23.5t-13.5 -17t-21.5 -6.5q-8 0 -17 5t-14 13
q-6 -13 -16 -20t-20 -7q-17 0 -31.5 13.5t-14.5 43.5q0 11 3 25l30 5q-3 -15 -3 -26q0 -32 16 -32q7 0 14 10.5t7 30.5v11q0 5 -2 12z" />
    <glyph glyph-name="uni06F4.urdu" horiz-adv-x="540" 
d="M460 530q8 0 14 -6t6 -14v-165q0 -33 -13 -56.5t-34.5 -39t-50 -23t-59.5 -7.5q-65 0 -123 25v-224q0 -8 -6 -14t-14 -6h-80q-8 0 -14 6t-6 14v490q0 8 6 14t14 6h80q8 0 14 -6t6 -14v-130q0 -10 9.5 -18t24 -13t32 -8t34.5 -3q24 0 42 7.5t18 24.5v140q0 8 6 14t14 6h80
z" />
    <glyph glyph-name="uni06F7.urdu" horiz-adv-x="400" 
d="M20 0l174 510q3 8 10 14t15 6h109l-140 -410h192v-120h-360z" />
    <glyph glyph-name="bar" horiz-adv-x="245" 
d="M80 -210v860h85v-860h-85z" />
    <glyph glyph-name="p32" 
d="M-120 85q0 19 16 32t39 13t39 -13t16 -32t-16 -32t-39 -13t-39 13t-16 32zM10 85q0 19 16 32t39 13t39 -13t16 -32t-16 -32t-39 -13t-39 13t-16 32zM-55 -15q0 19 16 32t39 13t39 -13t16 -32t-16 -32t-39 -13t-39 13t-16 32z" />
    <glyph glyph-name="x.1dot.small" 
d="M-55 110h110v-110h-110v110z" />
    <glyph glyph-name="p22" 
d="M-55 45q0 19 16 32t39 13t39 -13t16 -32t-16 -32t-39 -13t-39 13t-16 32zM-55 -55q0 19 16 32t39 13t39 -13t16 -32t-16 -32t-39 -13t-39 13t-16 32z" />
    <glyph glyph-name="p3s" 
d="M-117 110h107v-110h-107v110zM11 110h107v-110h-107v110zM-55 235h110v-107h-110v107z" />
    <glyph glyph-name="x.3dots.dsmall" 
d="M118 125h-107v110h107v-110zM-10 125h-107v110h107v-110zM56 0h-110v107h110v-107z" />
    <glyph glyph-name="x.wasla" 
d="M-65 33h15v45q0 8 8 8h18q5 0 5.5 -3t0.5 -5v-13l12 12q8 8 19 8h44q8 0 14 -6.5t6 -15.5v-43q0 -8 -6 -14t-14 -6h-122v33zM-12 33h57v20h-37z" />
    <glyph glyph-name="x.hehgoalcomma" 
d="M-1 0q-4 -11 -15 -33.5t-11 -44.5q0 -11 4.5 -19t17.5 -8q11 0 21 11t24 43l31 -14q-17 -42 -38 -60.5t-42 -18.5q-30 0 -42 18t-12 41q0 16 3.5 31.5t8.5 27.5q5 14 13 26h37z" />
    <glyph glyph-name="x.ghehstroke" 
d="M651 463l-244 -244l-37 51l237 237z" />
    <glyph glyph-name="uni0691_2" horiz-adv-x="240" 
d="M-19 -65q12 -4 26 -4q28 0 45.5 17.5t17.5 51.5v310q0 8 6 14t14 6h80q8 0 14 -6t6 -14v-310q0 -45 -12.5 -78t-34 -54.5t-51.5 -32t-64 -10.5q-37 0 -74 10zM49 433h15v107h32v-75l12 12q8 8 19 8h44q8 0 14 -6.5t6 -15.5v-43q0 -8 -6 -14t-14 -6h-122v33zM102 433h57
v20h-37z" />
    <glyph glyph-name="uni0698_2" horiz-adv-x="240" 
d="M17 425q0 19 14.5 32t35 13t35 -13t14.5 -32t-14.5 -32t-35 -13t-35 13t-14.5 32zM134 425q0 19 14.5 32t35 13t35 -13t14.5 -32t-14.5 -32t-35 -13t-35 13t-14.5 32zM75 525q0 19 14.5 32t35.5 13t35.5 -13t14.5 -32t-14.5 -32t-35.5 -13t-35.5 13t-14.5 32zM-19 -65
q12 -4 26 -4q28 0 45.5 17.5t17.5 51.5v310q0 8 6 14t14 6h80q8 0 14 -6t6 -14v-310q0 -45 -12.5 -78t-34 -54.5t-51.5 -32t-64 -10.5q-37 0 -74 10z" />
    <glyph glyph-name="uni0698.fina2" horiz-adv-x="240" 
d="M17 425q0 19 14.5 32t35 13t35 -13t14.5 -32t-14.5 -32t-35 -13t-35 13t-14.5 32zM134 425q0 19 14.5 32t35 13t35 -13t14.5 -32t-14.5 -32t-35 -13t-35 13t-14.5 32zM75 525q0 19 14.5 32t35.5 13t35.5 -13t14.5 -32t-14.5 -32t-35.5 -13t-35.5 13t-14.5 32zM170 330
q8 0 14 -6t6 -14v-190h50v-120h-50q0 -45 -12.5 -78t-34 -54.5t-51.5 -32t-64 -10.5q-37 0 -73 10l26 100q13 -3 26 -3q29 0 46 16.5t17 51.5v310q0 8 6 14t14 6h80z" />
    <glyph glyph-name="rehf2" horiz-adv-x="240" 
d="M170 330q8 0 14 -6t6 -14v-190h50v-120h-50q0 -45 -12.5 -78t-34 -54.5t-51.5 -32t-64 -10.5q-37 0 -73 10l26 100q13 -3 26 -3q29 0 46 16.5t17 51.5v310q0 8 6 14t14 6h80z" />
    <glyph glyph-name="reh2" horiz-adv-x="240" 
d="M-19 -65q12 -4 26 -4q28 0 45.5 17.5t17.5 51.5v310q0 8 6 14t14 6h80q8 0 14 -6t6 -14v-310q0 -45 -12.5 -78t-34 -54.5t-51.5 -32t-64 -10.5q-37 0 -74 10z" />
    <glyph glyph-name="zainf2" horiz-adv-x="240" 
d="M75 445q0 19 16 32t39 13t39 -13t16 -32t-16 -32t-39 -13t-39 13t-16 32zM170 330q8 0 14 -6t6 -14v-190h50v-120h-50q0 -45 -12.5 -78t-34 -54.5t-51.5 -32t-64 -10.5q-37 0 -73 10l26 100q13 -3 26 -3q29 0 46 16.5t17 51.5v310q0 8 6 14t14 6h80z" />
    <glyph glyph-name="zain2" horiz-adv-x="240" 
d="M75 445q0 19 16 32t39 13t39 -13t16 -32t-16 -32t-39 -13t-39 13t-16 32zM-19 -65q12 -4 26 -4q28 0 45.5 17.5t17.5 51.5v310q0 8 6 14t14 6h80q8 0 14 -6t6 -14v-310q0 -45 -12.5 -78t-34 -54.5t-51.5 -32t-64 -10.5q-37 0 -74 10z" />
    <glyph glyph-name="uni0691.fina2" horiz-adv-x="240" 
d="M170 330q8 0 14 -6t6 -14v-190h50v-120h-50q0 -45 -12.5 -78t-34 -54.5t-51.5 -32t-64 -10.5q-37 0 -73 10l26 100q13 -3 26 -3q29 0 46 16.5t17 51.5v310q0 8 6 14t14 6h80zM49 433h15v107h32v-75l12 12q8 8 19 8h44q8 0 14 -6.5t6 -15.5v-43q0 -8 -6 -14t-14 -6h-122
v33zM102 433h57v20h-37z" />
    <glyph glyph-name="sennam2" horiz-adv-x="235" 
 />
    <glyph glyph-name="sennan2" horiz-adv-x="310" 
d="M-30 90q0 13 8.5 21.5t21.5 8.5h140v190q0 8 6 14t14 6h80q8 0 14 -6t6 -14v-230q0 -33 -23.5 -56.5t-56.5 -23.5h-180q-13 0 -21.5 8.5t-8.5 21.5v60z" />
    <glyph glyph-name="hmzn2" horiz-adv-x="300" 
 />
    <glyph glyph-name="hmzm2" horiz-adv-x="235" 
 />
    <glyph glyph-name="behn2" horiz-adv-x="300" 
 />
    <glyph glyph-name="behm2" horiz-adv-x="235" 
 />
    <glyph glyph-name="tehn2" horiz-adv-x="300" 
 />
    <glyph glyph-name="tehm2" horiz-adv-x="235" 
 />
    <glyph glyph-name="thehn2" horiz-adv-x="300" 
 />
    <glyph glyph-name="thehm2" horiz-adv-x="235" 
 />
    <glyph glyph-name="noonn2" horiz-adv-x="300" 
 />
    <glyph glyph-name="noonm2" horiz-adv-x="235" 
 />
    <glyph glyph-name="yehn2" horiz-adv-x="310" 
d="M-30 90q0 13 8.5 21.5t21.5 8.5h140v190q0 8 6 14t14 6h80q8 0 14 -6t6 -14v-230q0 -33 -23.5 -56.5t-56.5 -23.5h-180q-13 0 -21.5 8.5t-8.5 21.5v60zM110 -110q0 19 16 32t39 13t39 -13t16 -32t-16 -32t-39 -13t-39 13t-16 32zM-20 -110q0 19 16 32t39 13t39 -13
t16 -32t-16 -32t-39 -13t-39 13t-16 32z" />
    <glyph glyph-name="yehm2" horiz-adv-x="235" 
 />
    <glyph glyph-name="uni0679.init2" horiz-adv-x="300" 
 />
    <glyph glyph-name="uni0679.medi2" horiz-adv-x="310" 
d="M-20 -95q0 19 16 32t39 13t39 -13t16 -32t-16 -32t-39 -13t-39 13t-16 32zM110 -95q0 19 16 32t39 13t39 -13t16 -32t-16 -32t-39 -13t-39 13t-16 32zM45 -195q0 19 16 32t39 13t39 -13t16 -32t-16 -32t-39 -13t-39 13t-16 32zM-30 90q0 13 8.5 21.5t21.5 8.5h140v190
q0 8 6 14t14 6h80q8 0 14 -6t6 -14v-230q0 -33 -23.5 -56.5t-56.5 -23.5h-180q-13 0 -21.5 8.5t-8.5 21.5v60z" />
    <glyph glyph-name="uni067E.init2" horiz-adv-x="235" 
 />
    <glyph glyph-name="uni067E.medi2" horiz-adv-x="235" 
 />
    <glyph glyph-name="sennayehf" horiz-adv-x="840" 
d="M626 205h-146q-23 0 -41.5 -14t-18.5 -41v-5h70q33 0 56.5 -23.5t23.5 -56.5v-40q0 -37 -14 -70t-38.5 -57.5t-57.5 -38.5t-70 -14h-160q-37 0 -70 14t-57.5 38.5t-38.5 57.5t-14 70v120q0 8 6 14t14 6h80q8 0 14 -6t6 -14v-104q0 -30 13.5 -53t46.5 -23h143
q13 0 26.5 3.5t24.5 11t18.5 19t7.5 26.5h-90q-25 0 -42.5 17.5t-17.5 42.5v47q0 44 15 79t41.5 59t61.5 37t75 13h212q19 0 24 -20l39 -180h72v-120h-149q-19 0 -24 20z" />
    <glyph glyph-name="yehyehf" horiz-adv-x="840" 
d="M320 -255q0 17 16 29t39 12t39 -12t16 -29t-16 -28.5t-39 -12t-39 11.5t-16 29zM190 -255q0 17 16 29t39 12t39 -12t16 -29t-16 -28.5t-39 -12t-39 11.5t-16 29zM620 -105q0 19 16 32t39 13t39 -13t16 -32t-16 -32t-39 -13t-39 13t-16 32zM620 -205q0 19 16 32t39 13
t39 -13t16 -32t-16 -32t-39 -13t-39 13t-16 32zM626 205h-146q-23 0 -41.5 -14t-18.5 -41v-5h70q33 0 56.5 -23.5t23.5 -56.5v-40q0 -37 -14 -70t-38.5 -57.5t-57.5 -38.5t-70 -14h-160q-37 0 -70 14t-57.5 38.5t-38.5 57.5t-14 70v120q0 8 6 14t14 6h80q8 0 14 -6t6 -14
v-104q0 -30 13.5 -53t46.5 -23h143q13 0 26.5 3.5t24.5 11t18.5 19t7.5 26.5h-90q-25 0 -42.5 17.5t-17.5 42.5v47q0 44 15 79t41.5 59t61.5 37t75 13h212q19 0 24 -20l39 -180h72v-120h-149q-19 0 -24 20z" />
    <glyph glyph-name="uni067Eyehf" horiz-adv-x="840" 
d="M320 -255q0 17 16 29t39 12t39 -12t16 -29t-16 -28.5t-39 -12t-39 11.5t-16 29zM190 -255q0 17 16 29t39 12t39 -12t16 -29t-16 -28.5t-39 -12t-39 11.5t-16 29zM551 -205q0 19 16 32t39 13t39 -13t16 -32t-16 -32t-39 -13t-39 13t-16 32zM681 -205q0 19 16 32t39 13
t39 -13t16 -32t-16 -32t-39 -13t-39 13t-16 32zM616 -105q0 19 16 32t39 13t39 -13t16 -32t-16 -32t-39 -13t-39 13t-16 32zM626 205h-146q-23 0 -41.5 -14t-18.5 -41v-5h70q33 0 56.5 -23.5t23.5 -56.5v-40q0 -37 -14 -70t-38.5 -57.5t-57.5 -38.5t-70 -14h-160
q-37 0 -70 14t-57.5 38.5t-38.5 57.5t-14 70v120q0 8 6 14t14 6h80q8 0 14 -6t6 -14v-104q0 -30 13.5 -53t46.5 -23h143q13 0 26.5 3.5t24.5 11t18.5 19t7.5 26.5h-90q-25 0 -42.5 17.5t-17.5 42.5v47q0 44 15 79t41.5 59t61.5 37t75 13h212q19 0 24 -20l39 -180h72v-120
h-149q-19 0 -24 20z" />
    <glyph glyph-name="behyehhmzf" horiz-adv-x="840" 
d="M619 -155q0 19 16 32t39 13t39 -13t16 -32t-16 -32t-39 -13t-39 13t-16 32zM152 316q-5 4 -12.5 6.5t-14.5 2.5q-8 0 -13.5 -4t-5.5 -14q0 -8 7 -15t21 -7h38v-45h-124v45h24q-14 12 -14 31q0 23 18 36t42 13q14 0 28.5 -5.5t24.5 -13.5zM626 205h-146q-23 0 -41.5 -14
t-18.5 -41v-5h70q33 0 56.5 -23.5t23.5 -56.5v-40q0 -37 -14 -70t-38.5 -57.5t-57.5 -38.5t-70 -14h-160q-37 0 -70 14t-57.5 38.5t-38.5 57.5t-14 70v120q0 8 6 14t14 6h80q8 0 14 -6t6 -14v-104q0 -30 13.5 -53t46.5 -23h143q13 0 26.5 3.5t24.5 11t18.5 19t7.5 26.5h-90
q-25 0 -42.5 17.5t-17.5 42.5v47q0 44 15 79t41.5 59t61.5 37t75 13h212q19 0 24 -20l39 -180h72v-120h-149q-19 0 -24 20z" />
    <glyph glyph-name="yehyehhmzf" horiz-adv-x="840" 
d="M620 -105q0 19 16 32t39 13t39 -13t16 -32t-16 -32t-39 -13t-39 13t-16 32zM620 -205q0 19 16 32t39 13t39 -13t16 -32t-16 -32t-39 -13t-39 13t-16 32zM152 316q-5 4 -12.5 6.5t-14.5 2.5q-8 0 -13.5 -4t-5.5 -14q0 -8 7 -15t21 -7h38v-45h-124v45h24q-14 12 -14 31
q0 23 18 36t42 13q14 0 28.5 -5.5t24.5 -13.5zM626 205h-146q-23 0 -41.5 -14t-18.5 -41v-5h70q33 0 56.5 -23.5t23.5 -56.5v-40q0 -37 -14 -70t-38.5 -57.5t-57.5 -38.5t-70 -14h-160q-37 0 -70 14t-57.5 38.5t-38.5 57.5t-14 70v120q0 8 6 14t14 6h80q8 0 14 -6t6 -14
v-104q0 -30 13.5 -53t46.5 -23h143q13 0 26.5 3.5t24.5 11t18.5 19t7.5 26.5h-90q-25 0 -42.5 17.5t-17.5 42.5v47q0 44 15 79t41.5 59t61.5 37t75 13h212q19 0 24 -20l39 -180h72v-120h-149q-19 0 -24 20z" />
    <glyph glyph-name="uni067Eyehhmzf" horiz-adv-x="840" 
d="M551 -205q0 19 16 32t39 13t39 -13t16 -32t-16 -32t-39 -13t-39 13t-16 32zM681 -205q0 19 16 32t39 13t39 -13t16 -32t-16 -32t-39 -13t-39 13t-16 32zM616 -105q0 19 16 32t39 13t39 -13t16 -32t-16 -32t-39 -13t-39 13t-16 32zM152 316q-5 4 -12.5 6.5t-14.5 2.5
q-8 0 -13.5 -4t-5.5 -14q0 -8 7 -15t21 -7h38v-45h-124v45h24q-14 12 -14 31q0 23 18 36t42 13q14 0 28.5 -5.5t24.5 -13.5zM626 205h-146q-23 0 -41.5 -14t-18.5 -41v-5h70q33 0 56.5 -23.5t23.5 -56.5v-40q0 -37 -14 -70t-38.5 -57.5t-57.5 -38.5t-70 -14h-160
q-37 0 -70 14t-57.5 38.5t-38.5 57.5t-14 70v120q0 8 6 14t14 6h80q8 0 14 -6t6 -14v-104q0 -30 13.5 -53t46.5 -23h143q13 0 26.5 3.5t24.5 11t18.5 19t7.5 26.5h-90q-25 0 -42.5 17.5t-17.5 42.5v47q0 44 15 79t41.5 59t61.5 37t75 13h212q19 0 24 -20l39 -180h72v-120
h-149q-19 0 -24 20z" />
    </font>
</defs>
</svg>
