<svg xmlns="http://www.w3.org/2000/svg" viewBox="0 0 71.869 68.712">
  <defs>
    <style>
      .cls-1 {
        fill: none;
        stroke: #ddd;
        stroke-linecap: round;
        stroke-miterlimit: 10;
        stroke-width: 2px;
      }

      .cls-2 {
        fill: #772AE1;
      }
    </style>
  </defs>
  <g id="s2" transform="translate(-1165 -2518.288)">
    <g id="Group_63" data-name="Group 63" transform="translate(1193.267 2541.063) rotate(-90)">
      <line id="Line_1" data-name="Line 1" class="cls-1" y2="5.677" transform="translate(2.839)"/>
      <line id="Line_2" data-name="Line 2" class="cls-1" x1="5.677" transform="translate(0 2.839)"/>
    </g>
    <g id="Group_64" data-name="Group 64" transform="translate(1227.626 2564.999) rotate(-90)">
      <line id="Line_1-2" data-name="Line 1" class="cls-1" y2="8.243" transform="translate(4.121)"/>
      <line id="Line_2-2" data-name="Line 2" class="cls-1" x1="8.243" transform="translate(0 4.121)"/>
    </g>
    <path id="Path_2441" data-name="Path 2441" class="cls-2" d="M4.8,10.387a8.585,8.585,0,0,0-4.4-4.4.608.608,0,0,1,0-1.128A9.13,9.13,0,0,0,4.8.406a.608.608,0,0,1,1.128,0,8.906,8.906,0,0,0,4.455,4.4.608.608,0,0,1,0,1.128,8.691,8.691,0,0,0-4.4,4.455A.651.651,0,0,1,4.8,10.387Z" transform="translate(1164.975 2518.263)"/>
    <path id="Path_2442" data-name="Path 2442" class="cls-2" d="M3.258,7.034A5.807,5.807,0,0,0,.282,4.059a.411.411,0,0,1,0-.763A6.176,6.176,0,0,0,3.258.282a.411.411,0,0,1,.763,0A6.024,6.024,0,0,0,7.034,3.258a.411.411,0,0,1,0,.763A5.879,5.879,0,0,0,4.059,7.034.44.44,0,0,1,3.258,7.034Z" transform="translate(1204.489 2569.961)"/>
    <g id="Group_65" data-name="Group 65" transform="translate(1170.1 2526)">
      <path id="Union_1" data-name="Union 1" class="cls-2" d="M2.232,61A2.3,2.3,0,0,1,0,58.767V16.153c.066-.131.066-.328.131-.459A.241.241,0,0,1,.2,15.5a4.615,4.615,0,0,1,.393-.591L12.672.788c.066-.2.263-.263.394-.394,0-.066.066-.066.131-.131a.938.938,0,0,0,.394-.131.229.229,0,0,1,.131-.066A1.443,1.443,0,0,1,14.248,0H50.362a2.144,2.144,0,0,1,2.167,2.167V58.833A2.144,2.144,0,0,1,50.362,61ZM4.4,56.732H48.2V4.334H16.416V16.35a2.144,2.144,0,0,1-2.167,2.167H4.4Zm2.43-42.549h5.253V8.011Zm3.94,23.7a2.167,2.167,0,1,1,0-4.334H41.761a2.167,2.167,0,0,1,0,4.334Zm0-10.375a2.167,2.167,0,1,1,0-4.334H41.761a2.1,2.1,0,0,1,2.167,2.166,2.144,2.144,0,0,1-2.167,2.168Z" transform="translate(-0.1)"/>
    </g>
  </g>
</svg>
