<svg xmlns="http://www.w3.org/2000/svg" xmlns:xlink="http://www.w3.org/1999/xlink" viewBox="0 0 89 74.999">
  <defs>
    <style>
      .cls-1 {
        fill: #fff;
      }

      .cls-2 {
        fill: none;
        stroke: #fff;
        stroke-linecap: round;
        stroke-miterlimit: 10;
        stroke-width: 2px;
      }

      .cls-3 {
        fill: #fff;
      }
    </style>
    <linearGradient id="linear-gradient" x1="0.5" x2="0.5" y2="1" gradientUnits="objectBoundingBox">
      <stop offset="0" stop-color="#7f27e0"/>
      <stop offset="0.299" stop-color="#772ae1"/>
      <stop offset="0.735" stop-color="#3544ed"/>
      <stop offset="1" stop-color="#2949ef"/>
    </linearGradient>
  </defs>
  <g id="s3" transform="translate(-820 -2301)">
    <path id="Path_2446" data-name="Path 2446" class="cls-1" d="M68.478,10.012H49.371V2.522A2.5,2.5,0,0,0,46.849,0H24.227a2.5,2.5,0,0,0-2.522,2.522v7.566H2.522A2.5,2.5,0,0,0,0,12.61V57.09a2.529,2.529,0,0,0,2.522,2.446H68.478A2.5,2.5,0,0,0,71,57.014V12.534A2.544,2.544,0,0,0,68.478,10.012ZM26.749,5.044H44.327v5.044H26.749ZM5.044,15.056H23.616a1.911,1.911,0,0,0,1.07,0H46.238a1.911,1.911,0,0,0,1.07,0H65.879V32.328H49.371V29.348a2.5,2.5,0,0,0-2.522-2.522,2.433,2.433,0,0,0-2.522,2.446v2.981H26.749V29.271a2.522,2.522,0,1,0-5.044,0v2.981H5.044ZM66.032,54.568H5.044V37.3H21.705v2.828a2.522,2.522,0,1,0,5.044,0V37.3H44.327v2.828a2.5,2.5,0,0,0,2.522,2.522,2.45,2.45,0,0,0,2.522-2.522V37.3H66.032V54.568Z" transform="translate(838 2301)"/>
    <g id="Group_66" data-name="Group 66" transform="translate(849.267 2329.063) rotate(-90)">
      <line id="Line_1" data-name="Line 1" class="cls-2" y2="5.677" transform="translate(2.839)"/>
      <line id="Line_2" data-name="Line 2" class="cls-2" x1="5.677" transform="translate(0 2.839)"/>
    </g>
    <g id="Group_67" data-name="Group 67" transform="translate(877.626 2374.999) rotate(-90)">
      <line id="Line_1-2" data-name="Line 1" class="cls-2" y2="8.243" transform="translate(4.121)"/>
      <line id="Line_2-2" data-name="Line 2" class="cls-2" x1="8.243" transform="translate(0 4.121)"/>
    </g>
    <path id="Path_2447" data-name="Path 2447" class="cls-3" d="M4.8,10.387a8.585,8.585,0,0,0-4.4-4.4.608.608,0,0,1,0-1.128A9.13,9.13,0,0,0,4.8.406a.608.608,0,0,1,1.128,0,8.906,8.906,0,0,0,4.455,4.4.608.608,0,0,1,0,1.128,8.691,8.691,0,0,0-4.4,4.455A.651.651,0,0,1,4.8,10.387Z" transform="translate(819.975 2323.263)"/>
    <path id="Path_2448" data-name="Path 2448" class="cls-3" d="M3.258,7.034A5.807,5.807,0,0,0,.282,4.059a.411.411,0,0,1,0-.763A6.176,6.176,0,0,0,3.258.282a.411.411,0,0,1,.763,0A6.024,6.024,0,0,0,7.034,3.258a.411.411,0,0,1,0,.763A5.879,5.879,0,0,0,4.059,7.034.44.44,0,0,1,3.258,7.034Z" transform="translate(873.489 2344.961)"/>
  </g>
</svg>
