<?xml version="1.0" standalone="no"?>
<!DOCTYPE svg PUBLIC "-//W3C//DTD SVG 1.1//EN" "http://www.w3.org/Graphics/SVG/1.1/DTD/svg11.dtd" >
<svg>
<metadata>
Created by FontForge 20090622 at Mon Sep  3 11:25:02 2018
 By deploy user
Copyright (c) 2014 by AbdoFonts. All rights reserved.
</metadata>
<defs>
<font id="AbdoMaster-Heavy" horiz-adv-x="0" >
  <font-face 
    font-family="AbdoMaster-Heavy"
    font-weight="400"
    font-stretch="normal"
    units-per-em="700"
    panose-1="2 0 5 0 3 0 0 2 0 4"
    ascent="537"
    descent="-163"
    x-height="370"
    cap-height="530"
    bbox="-187 -508 1470 787"
    underline-thickness="55"
    underline-position="-46"
    unicode-range="U+0020-U+FEFA"
  />
<missing-glyph horiz-adv-x="592" 
d="M108 365h-21v-47h-37v146h95v-146h-37v47zM490 -40h-37v87h-21v-87h-37v87h-21v-87h-37v106h153v-106zM165 464h37v-40h58v-106h-95v146zM375 318h-95v106h58v40h37v-146zM490 318h-95v106h95v-106zM235 117h-95v106h95v-106zM317 -40h-95v106h95v-106zM350 117h-37v87
h-21v-87h-37v106h95v-106zM107 66h95v-34h-37v15h-21v-68h21v15h37v-34h-95v106zM484 204v-24h58v-63h-95v19h58v25h-58v62h95v-19h-58zM87 164v-47h-37v146h75v-19h-38v-61h38v-19h-38zM407 204v-87h-37v146h37v-40h25v-19h-25zM317 337h21v68h-21v-68zM177 136h21v68h-21
v-68zM202 337h21v68h-21v-68zM259 -21h21v68h-21v-68zM432 337h21v68h-21v-68zM87 384h21v61h-21v-61zM87 -40h-37v29h37v-29z" />
    <glyph glyph-name="hmzyehf" unicode="&#xfe8c;&#xfef2;" horiz-adv-x="840" arabic-form="final" 
d="M190 -250.5q0 18.5 16 32t39 13.5t39 -13.5t16 -32t-16 -32t-39 -13.5t-39 13.5t-16 32zM320 -250.5q0 18.5 16 32t39 13.5t39 -13.5t16 -32t-16 -32t-39 -13.5t-39 13.5t-16 32zM602 476q-5 4 -12.5 6.5t-14.5 2.5q-8 0 -13.5 -4t-5.5 -14q0 -8 7 -15t21 -7h38v-45h-124
v45h24q-14 12 -14 31q0 23 18 36t42 13q14 0 28.5 -5.5t24.5 -13.5zM622 203h-150q-18 0 -35 -13t-17 -37h70q33 0 56.5 -23.5t23.5 -56.5v-50q0 -37 -14 -70t-38.5 -57.5t-57.5 -38.5t-70 -14h-165q-37 0 -70 14t-57.5 38.5t-38.5 57.5t-14 70v125q0 8 6 14t14 6h90
q8 0 14 -6t6 -14v-101q0 -14 1.5 -27.5t7 -24t15 -16.5t26.5 -6h140q11 0 24 2t24.5 8t19 15.5t7.5 24.5h-90q-25 0 -42.5 17.5t-17.5 42.5v50q0 42 16 77.5t44 61t64.5 39.5t77.5 14h217q19 0 24 -20l38 -175h69v-130h-154q-19 0 -24 20z" />
    <glyph glyph-name="hmzmaksuraf" unicode="&#xfe8c;&#xfef0;" horiz-adv-x="840" arabic-form="final" 
d="M602 476q-5 4 -12.5 6.5t-14.5 2.5q-8 0 -13.5 -4t-5.5 -14q0 -8 7 -15t21 -7h38v-45h-124v45h24q-14 12 -14 31q0 23 18 36t42 13q14 0 28.5 -5.5t24.5 -13.5zM622 203h-150q-18 0 -35 -13t-17 -37h70q33 0 56.5 -23.5t23.5 -56.5v-50q0 -37 -14 -70t-38.5 -57.5
t-57.5 -38.5t-70 -14h-165q-37 0 -70 14t-57.5 38.5t-38.5 57.5t-14 70v125q0 8 6 14t14 6h90q8 0 14 -6t6 -14v-101q0 -14 1.5 -27.5t7 -24t15 -16.5t26.5 -6h140q11 0 24 2t24.5 8t19 15.5t7.5 24.5h-90q-25 0 -42.5 17.5t-17.5 42.5v50q0 42 16 77.5t44 61t64.5 39.5
t77.5 14h217q19 0 24 -20l38 -175h69v-130h-154q-19 0 -24 20z" />
    <glyph glyph-name="tehmaksuraf" unicode="&#xfe98;&#xfef0;" horiz-adv-x="840" arabic-form="final" 
d="M440 445q0 21 16 35.5t39 14.5t39 -14.5t16 -35.5t-16 -35.5t-39 -14.5t-39 14.5t-16 35.5zM570 445q0 21 16 35.5t39 14.5t39 -14.5t16 -35.5t-16 -35.5t-39 -14.5t-39 14.5t-16 35.5zM622 203h-150q-18 0 -35 -13t-17 -37h70q33 0 56.5 -23.5t23.5 -56.5v-50
q0 -37 -14 -70t-38.5 -57.5t-57.5 -38.5t-70 -14h-165q-37 0 -70 14t-57.5 38.5t-38.5 57.5t-14 70v125q0 8 6 14t14 6h90q8 0 14 -6t6 -14v-101q0 -14 1.5 -27.5t7 -24t15 -16.5t26.5 -6h140q11 0 24 2t24.5 8t19 15.5t7.5 24.5h-90q-25 0 -42.5 17.5t-17.5 42.5v50
q0 42 16 77.5t44 61t64.5 39.5t77.5 14h217q19 0 24 -20l38 -175h69v-130h-154q-19 0 -24 20z" />
    <glyph glyph-name="tehyehf" unicode="&#xfe98;&#xfef2;" horiz-adv-x="840" arabic-form="final" 
d="M440 445q0 21 16 35.5t39 14.5t39 -14.5t16 -35.5t-16 -35.5t-39 -14.5t-39 14.5t-16 35.5zM570 445q0 21 16 35.5t39 14.5t39 -14.5t16 -35.5t-16 -35.5t-39 -14.5t-39 14.5t-16 35.5zM190 -250.5q0 18.5 16 32t39 13.5t39 -13.5t16 -32t-16 -32t-39 -13.5t-39 13.5
t-16 32zM320 -250.5q0 18.5 16 32t39 13.5t39 -13.5t16 -32t-16 -32t-39 -13.5t-39 13.5t-16 32zM622 203h-150q-18 0 -35 -13t-17 -37h70q33 0 56.5 -23.5t23.5 -56.5v-50q0 -37 -14 -70t-38.5 -57.5t-57.5 -38.5t-70 -14h-165q-37 0 -70 14t-57.5 38.5t-38.5 57.5t-14 70
v125q0 8 6 14t14 6h90q8 0 14 -6t6 -14v-101q0 -14 1.5 -27.5t7 -24t15 -16.5t26.5 -6h140q11 0 24 2t24.5 8t19 15.5t7.5 24.5h-90q-25 0 -42.5 17.5t-17.5 42.5v50q0 42 16 77.5t44 61t64.5 39.5t77.5 14h217q19 0 24 -20l38 -175h69v-130h-154q-19 0 -24 20z" />
    <glyph glyph-name="thehmaksuraf" unicode="&#xfe9c;&#xfef0;" horiz-adv-x="840" arabic-form="final" 
d="M440 425q0 19 16 32t39 13t39 -13t16 -32t-16 -32t-39 -13t-39 13t-16 32zM570 425q0 19 16 32t39 13t39 -13t16 -32t-16 -32t-39 -13t-39 13t-16 32zM505 525q0 19 16 32t39 13t39 -13t16 -32t-16 -32t-39 -13t-39 13t-16 32zM622 203h-150q-18 0 -35 -13t-17 -37h70
q33 0 56.5 -23.5t23.5 -56.5v-50q0 -37 -14 -70t-38.5 -57.5t-57.5 -38.5t-70 -14h-165q-37 0 -70 14t-57.5 38.5t-38.5 57.5t-14 70v125q0 8 6 14t14 6h90q8 0 14 -6t6 -14v-101q0 -14 1.5 -27.5t7 -24t15 -16.5t26.5 -6h140q11 0 24 2t24.5 8t19 15.5t7.5 24.5h-90
q-25 0 -42.5 17.5t-17.5 42.5v50q0 42 16 77.5t44 61t64.5 39.5t77.5 14h217q19 0 24 -20l38 -175h69v-130h-154q-19 0 -24 20z" />
    <glyph glyph-name="thehyehf" unicode="&#xfe9c;&#xfef2;" horiz-adv-x="840" arabic-form="final" 
d="M190 -250.5q0 18.5 16 32t39 13.5t39 -13.5t16 -32t-16 -32t-39 -13.5t-39 13.5t-16 32zM320 -250.5q0 18.5 16 32t39 13.5t39 -13.5t16 -32t-16 -32t-39 -13.5t-39 13.5t-16 32zM440 425q0 19 16 32t39 13t39 -13t16 -32t-16 -32t-39 -13t-39 13t-16 32zM570 425
q0 19 16 32t39 13t39 -13t16 -32t-16 -32t-39 -13t-39 13t-16 32zM505 525q0 19 16 32t39 13t39 -13t16 -32t-16 -32t-39 -13t-39 13t-16 32zM622 203h-150q-18 0 -35 -13t-17 -37h70q33 0 56.5 -23.5t23.5 -56.5v-50q0 -37 -14 -70t-38.5 -57.5t-57.5 -38.5t-70 -14h-165
q-37 0 -70 14t-57.5 38.5t-38.5 57.5t-14 70v125q0 8 6 14t14 6h90q8 0 14 -6t6 -14v-101q0 -14 1.5 -27.5t7 -24t15 -16.5t26.5 -6h140q11 0 24 2t24.5 8t19 15.5t7.5 24.5h-90q-25 0 -42.5 17.5t-17.5 42.5v50q0 42 16 77.5t44 61t64.5 39.5t77.5 14h217q19 0 24 -20
l38 -175h69v-130h-154q-19 0 -24 20z" />
    <glyph glyph-name="seenmaksura" unicode="&#xfeb3;&#xfef0;" horiz-adv-x="1220" arabic-form="isolated" 
d="M645 210h-173q-18 0 -35 -16.5t-17 -40.5h70q33 0 56.5 -23.5t23.5 -56.5v-50q0 -37 -14 -70t-38.5 -57.5t-57.5 -38.5t-70 -14h-165q-37 0 -70 14t-57.5 38.5t-38.5 57.5t-14 70v125q0 8 6 14t14 6h90q8 0 14 -6t6 -14v-101q0 -14 1.5 -27.5t7 -24t15 -16.5t26.5 -6h140
q11 0 24 2t24.5 8t19 15.5t7.5 24.5h-90q-25 0 -42.5 17.5t-17.5 42.5v50q0 42 16 77.5t44 61t64.5 39.5t77.5 14h263q8 0 14 -6t6 -14v-175h70v175q0 8 6 14t14 6h90q8 0 14 -6t6 -14v-175h70v175q0 8 6 14t14 6h90q8 0 14 -6t6 -14v-225q0 -33 -23.5 -56.5t-56.5 -23.5
h-370q-33 0 -56.5 23.5t-23.5 56.5v130z" />
    <glyph glyph-name="seenyeh" unicode="&#xfeb3;&#xfef2;" horiz-adv-x="1220" arabic-form="isolated" 
d="M190 -240.5q0 18.5 16 32t39 13.5t39 -13.5t16 -32t-16 -32t-39 -13.5t-39 13.5t-16 32zM320 -240.5q0 18.5 16 32t39 13.5t39 -13.5t16 -32t-16 -32t-39 -13.5t-39 13.5t-16 32zM645 210h-173q-18 0 -35 -16.5t-17 -40.5h70q33 0 56.5 -23.5t23.5 -56.5v-50
q0 -37 -14 -70t-38.5 -57.5t-57.5 -38.5t-70 -14h-165q-37 0 -70 14t-57.5 38.5t-38.5 57.5t-14 70v125q0 8 6 14t14 6h90q8 0 14 -6t6 -14v-101q0 -14 1.5 -27.5t7 -24t15 -16.5t26.5 -6h140q11 0 24 2t24.5 8t19 15.5t7.5 24.5h-90q-25 0 -42.5 17.5t-17.5 42.5v50
q0 42 16 77.5t44 61t64.5 39.5t77.5 14h263q8 0 14 -6t6 -14v-175h70v175q0 8 6 14t14 6h90q8 0 14 -6t6 -14v-175h70v175q0 8 6 14t14 6h90q8 0 14 -6t6 -14v-225q0 -33 -23.5 -56.5t-56.5 -23.5h-370q-33 0 -56.5 23.5t-23.5 56.5v130z" />
    <glyph glyph-name="sheenmaksura" unicode="&#xfeb7;&#xfef0;" horiz-adv-x="1220" arabic-form="isolated" 
d="M790 425q0 19 16 32t39 13t39 -13t16 -32t-16 -32t-39 -13t-39 13t-16 32zM920 425q0 19 16 32t39 13t39 -13t16 -32t-16 -32t-39 -13t-39 13t-16 32zM855 525q0 19 16 32t39 13t39 -13t16 -32t-16 -32t-39 -13t-39 13t-16 32zM645 210h-173q-18 0 -35 -16.5t-17 -40.5
h70q33 0 56.5 -23.5t23.5 -56.5v-50q0 -37 -14 -70t-38.5 -57.5t-57.5 -38.5t-70 -14h-165q-37 0 -70 14t-57.5 38.5t-38.5 57.5t-14 70v125q0 8 6 14t14 6h90q8 0 14 -6t6 -14v-101q0 -14 1.5 -27.5t7 -24t15 -16.5t26.5 -6h140q11 0 24 2t24.5 8t19 15.5t7.5 24.5h-90
q-25 0 -42.5 17.5t-17.5 42.5v50q0 42 16 77.5t44 61t64.5 39.5t77.5 14h263q8 0 14 -6t6 -14v-175h70v175q0 8 6 14t14 6h90q8 0 14 -6t6 -14v-175h70v175q0 8 6 14t14 6h90q8 0 14 -6t6 -14v-225q0 -33 -23.5 -56.5t-56.5 -23.5h-370q-33 0 -56.5 23.5t-23.5 56.5v130z
" />
    <glyph glyph-name="sheenyeh" unicode="&#xfeb7;&#xfef2;" horiz-adv-x="1220" arabic-form="isolated" 
d="M190 -240.5q0 18.5 16 32t39 13.5t39 -13.5t16 -32t-16 -32t-39 -13.5t-39 13.5t-16 32zM320 -240.5q0 18.5 16 32t39 13.5t39 -13.5t16 -32t-16 -32t-39 -13.5t-39 13.5t-16 32zM790 425q0 19 16 32t39 13t39 -13t16 -32t-16 -32t-39 -13t-39 13t-16 32zM920 425
q0 19 16 32t39 13t39 -13t16 -32t-16 -32t-39 -13t-39 13t-16 32zM855 525q0 19 16 32t39 13t39 -13t16 -32t-16 -32t-39 -13t-39 13t-16 32zM645 210h-173q-18 0 -35 -16.5t-17 -40.5h70q33 0 56.5 -23.5t23.5 -56.5v-50q0 -37 -14 -70t-38.5 -57.5t-57.5 -38.5t-70 -14
h-165q-37 0 -70 14t-57.5 38.5t-38.5 57.5t-14 70v125q0 8 6 14t14 6h90q8 0 14 -6t6 -14v-101q0 -14 1.5 -27.5t7 -24t15 -16.5t26.5 -6h140q11 0 24 2t24.5 8t19 15.5t7.5 24.5h-90q-25 0 -42.5 17.5t-17.5 42.5v50q0 42 16 77.5t44 61t64.5 39.5t77.5 14h263q8 0 14 -6
t6 -14v-175h70v175q0 8 6 14t14 6h90q8 0 14 -6t6 -14v-175h70v175q0 8 6 14t14 6h90q8 0 14 -6t6 -14v-225q0 -33 -23.5 -56.5t-56.5 -23.5h-370q-33 0 -56.5 23.5t-23.5 56.5v130z" />
    <glyph glyph-name="sadmaksura" unicode="&#xfebb;&#xfef0;" horiz-adv-x="1220" arabic-form="isolated" 
d="M622 203h-150q-18 0 -35 -13t-17 -37h70q33 0 56.5 -23.5t23.5 -56.5v-50q0 -37 -14 -70t-38.5 -57.5t-57.5 -38.5t-70 -14h-165q-37 0 -70 14t-57.5 38.5t-38.5 57.5t-14 70v125q0 8 6 14t14 6h90q8 0 14 -6t6 -14v-101q0 -14 1.5 -27.5t7 -24t15 -16.5t26.5 -6h140
q11 0 24 2t24.5 8t19 15.5t7.5 24.5h-90q-25 0 -42.5 17.5t-17.5 42.5v50q0 42 16 77.5t44 61t64.5 39.5t77.5 14h217q19 0 24 -20l25 -116l107 116q14 16 33 23t42 7h155q33 0 56.5 -23.5t23.5 -56.5v-175q0 -33 -23.5 -56.5t-56.5 -23.5h-409q-19 0 -24 20zM847 130h198
v80h-112z" />
    <glyph glyph-name="sadyeh" unicode="&#xfebb;&#xfef2;" horiz-adv-x="1220" arabic-form="isolated" 
d="M190 -239.5q0 18.5 16 32t39 13.5t39 -13.5t16 -32t-16 -32t-39 -13t-39 13.5t-16 31.5zM320 -239.5q0 18.5 16 32t39 13.5t39 -13.5t16 -32t-16 -32t-39 -13t-39 13.5t-16 31.5zM622 203h-150q-18 0 -35 -13t-17 -37h70q33 0 56.5 -23.5t23.5 -56.5v-50q0 -37 -14 -70
t-38.5 -57.5t-57.5 -38.5t-70 -14h-165q-37 0 -70 14t-57.5 38.5t-38.5 57.5t-14 70v125q0 8 6 14t14 6h90q8 0 14 -6t6 -14v-101q0 -14 1.5 -27.5t7 -24t15 -16.5t26.5 -6h140q11 0 24 2t24.5 8t19 15.5t7.5 24.5h-90q-25 0 -42.5 17.5t-17.5 42.5v50q0 42 16 77.5t44 61
t64.5 39.5t77.5 14h217q19 0 24 -20l25 -116l107 116q14 16 33 23t42 7h155q33 0 56.5 -23.5t23.5 -56.5v-175q0 -33 -23.5 -56.5t-56.5 -23.5h-409q-19 0 -24 20zM847 130h198v80h-112z" />
    <glyph glyph-name="dadmaksura" unicode="&#xfebf;&#xfef0;" horiz-adv-x="1220" arabic-form="isolated" 
d="M825 445q0 21 16 35.5t39 14.5t39 -14.5t16 -35.5t-16 -35.5t-39 -14.5t-39 14.5t-16 35.5zM622 203h-150q-18 0 -35 -13t-17 -37h70q33 0 56.5 -23.5t23.5 -56.5v-50q0 -37 -14 -70t-38.5 -57.5t-57.5 -38.5t-70 -14h-165q-37 0 -70 14t-57.5 38.5t-38.5 57.5t-14 70
v125q0 8 6 14t14 6h90q8 0 14 -6t6 -14v-101q0 -14 1.5 -27.5t7 -24t15 -16.5t26.5 -6h140q11 0 24 2t24.5 8t19 15.5t7.5 24.5h-90q-25 0 -42.5 17.5t-17.5 42.5v50q0 42 16 77.5t44 61t64.5 39.5t77.5 14h217q19 0 24 -20l25 -116l107 116q14 16 33 23t42 7h155
q33 0 56.5 -23.5t23.5 -56.5v-175q0 -33 -23.5 -56.5t-56.5 -23.5h-409q-19 0 -24 20zM847 130h198v80h-112z" />
    <glyph glyph-name="dadyeh" unicode="&#xfebf;&#xfef2;" horiz-adv-x="1220" arabic-form="isolated" 
d="M825 445q0 21 16 35.5t39 14.5t39 -14.5t16 -35.5t-16 -35.5t-39 -14.5t-39 14.5t-16 35.5zM190 -240.5q0 18.5 16 32t39 13.5t39 -13.5t16 -32t-16 -32t-39 -13.5t-39 13.5t-16 32zM320 -240.5q0 18.5 16 32t39 13.5t39 -13.5t16 -32t-16 -32t-39 -13.5t-39 13.5t-16 32
zM622 203h-150q-18 0 -35 -13t-17 -37h70q33 0 56.5 -23.5t23.5 -56.5v-50q0 -37 -14 -70t-38.5 -57.5t-57.5 -38.5t-70 -14h-165q-37 0 -70 14t-57.5 38.5t-38.5 57.5t-14 70v125q0 8 6 14t14 6h90q8 0 14 -6t6 -14v-101q0 -14 1.5 -27.5t7 -24t15 -16.5t26.5 -6h140
q11 0 24 2t24.5 8t19 15.5t7.5 24.5h-90q-25 0 -42.5 17.5t-17.5 42.5v50q0 42 16 77.5t44 61t64.5 39.5t77.5 14h217q19 0 24 -20l25 -116l107 116q14 16 33 23t42 7h155q33 0 56.5 -23.5t23.5 -56.5v-175q0 -33 -23.5 -56.5t-56.5 -23.5h-409q-19 0 -24 20zM847 130h198
v80h-112z" />
    <glyph glyph-name="seenmaksuraf" unicode="&#xfeb4;&#xfef0;" horiz-adv-x="1260" arabic-form="final" 
d="M645 210h-173q-18 0 -35 -16.5t-17 -40.5h70q33 0 56.5 -23.5t23.5 -56.5v-50q0 -37 -14 -70t-38.5 -57.5t-57.5 -38.5t-70 -14h-165q-37 0 -70 14t-57.5 38.5t-38.5 57.5t-14 70v125q0 8 6 14t14 6h90q8 0 14 -6t6 -14v-101q0 -14 1.5 -27.5t7 -24t15 -16.5t26.5 -6h140
q11 0 24 2t24.5 8t19 15.5t7.5 24.5h-90q-25 0 -42.5 17.5t-17.5 42.5v50q0 42 16 77.5t44 61t64.5 39.5t77.5 14h263q8 0 14 -6t6 -14v-175h70v175q0 8 6 14t14 6h90q8 0 14 -6t6 -14v-175h70v175q0 8 6 14t14 6h90q8 0 14 -6t6 -14v-175h85v-130h-535q-33 0 -56.5 23.5
t-23.5 56.5v130z" />
    <glyph glyph-name="seenyehf" unicode="&#xfeb4;&#xfef2;" horiz-adv-x="1260" arabic-form="final" 
d="M190 -240.5q0 18.5 16 32t39 13.5t39 -13.5t16 -32t-16 -32t-39 -13.5t-39 13.5t-16 32zM320 -240.5q0 18.5 16 32t39 13.5t39 -13.5t16 -32t-16 -32t-39 -13.5t-39 13.5t-16 32zM645 210h-173q-18 0 -35 -16.5t-17 -40.5h70q33 0 56.5 -23.5t23.5 -56.5v-50
q0 -37 -14 -70t-38.5 -57.5t-57.5 -38.5t-70 -14h-165q-37 0 -70 14t-57.5 38.5t-38.5 57.5t-14 70v125q0 8 6 14t14 6h90q8 0 14 -6t6 -14v-101q0 -14 1.5 -27.5t7 -24t15 -16.5t26.5 -6h140q11 0 24 2t24.5 8t19 15.5t7.5 24.5h-90q-25 0 -42.5 17.5t-17.5 42.5v50
q0 42 16 77.5t44 61t64.5 39.5t77.5 14h263q8 0 14 -6t6 -14v-175h70v175q0 8 6 14t14 6h90q8 0 14 -6t6 -14v-175h70v175q0 8 6 14t14 6h90q8 0 14 -6t6 -14v-175h85v-130h-535q-33 0 -56.5 23.5t-23.5 56.5v130z" />
    <glyph glyph-name="sheenmaksuraf" unicode="&#xfeb8;&#xfef0;" horiz-adv-x="1260" arabic-form="final" 
d="M790 425q0 19 16 32t39 13t39 -13t16 -32t-16 -32t-39 -13t-39 13t-16 32zM920 425q0 19 16 32t39 13t39 -13t16 -32t-16 -32t-39 -13t-39 13t-16 32zM855 525q0 19 16 32t39 13t39 -13t16 -32t-16 -32t-39 -13t-39 13t-16 32zM645 210h-173q-18 0 -35 -16.5t-17 -40.5
h70q33 0 56.5 -23.5t23.5 -56.5v-50q0 -37 -14 -70t-38.5 -57.5t-57.5 -38.5t-70 -14h-165q-37 0 -70 14t-57.5 38.5t-38.5 57.5t-14 70v125q0 8 6 14t14 6h90q8 0 14 -6t6 -14v-101q0 -14 1.5 -27.5t7 -24t15 -16.5t26.5 -6h140q11 0 24 2t24.5 8t19 15.5t7.5 24.5h-90
q-25 0 -42.5 17.5t-17.5 42.5v50q0 42 16 77.5t44 61t64.5 39.5t77.5 14h263q8 0 14 -6t6 -14v-175h70v175q0 8 6 14t14 6h90q8 0 14 -6t6 -14v-175h70v175q0 8 6 14t14 6h90q8 0 14 -6t6 -14v-175h85v-130h-535q-33 0 -56.5 23.5t-23.5 56.5v130z" />
    <glyph glyph-name="sheenyehf" unicode="&#xfeb8;&#xfef2;" horiz-adv-x="1260" arabic-form="final" 
d="M190 -240.5q0 18.5 16 32t39 13.5t39 -13.5t16 -32t-16 -32t-39 -13.5t-39 13.5t-16 32zM320 -240.5q0 18.5 16 32t39 13.5t39 -13.5t16 -32t-16 -32t-39 -13.5t-39 13.5t-16 32zM790 425q0 19 16 32t39 13t39 -13t16 -32t-16 -32t-39 -13t-39 13t-16 32zM920 425
q0 19 16 32t39 13t39 -13t16 -32t-16 -32t-39 -13t-39 13t-16 32zM855 525q0 19 16 32t39 13t39 -13t16 -32t-16 -32t-39 -13t-39 13t-16 32zM645 210h-173q-18 0 -35 -16.5t-17 -40.5h70q33 0 56.5 -23.5t23.5 -56.5v-50q0 -37 -14 -70t-38.5 -57.5t-57.5 -38.5t-70 -14
h-165q-37 0 -70 14t-57.5 38.5t-38.5 57.5t-14 70v125q0 8 6 14t14 6h90q8 0 14 -6t6 -14v-101q0 -14 1.5 -27.5t7 -24t15 -16.5t26.5 -6h140q11 0 24 2t24.5 8t19 15.5t7.5 24.5h-90q-25 0 -42.5 17.5t-17.5 42.5v50q0 42 16 77.5t44 61t64.5 39.5t77.5 14h263q8 0 14 -6
t6 -14v-175h70v175q0 8 6 14t14 6h90q8 0 14 -6t6 -14v-175h70v175q0 8 6 14t14 6h90q8 0 14 -6t6 -14v-175h85v-130h-535q-33 0 -56.5 23.5t-23.5 56.5v130z" />
    <glyph glyph-name="sadmaksuraf" unicode="&#xfebc;&#xfef0;" horiz-adv-x="1220" arabic-form="final" 
d="M622 203h-150q-18 0 -35 -13t-17 -37h70q33 0 56.5 -23.5t23.5 -56.5v-50q0 -37 -14 -70t-38.5 -57.5t-57.5 -38.5t-70 -14h-165q-37 0 -70 14t-57.5 38.5t-38.5 57.5t-14 70v125q0 8 6 14t14 6h90q8 0 14 -6t6 -14v-101q0 -14 1.5 -27.5t7 -24t15 -16.5t26.5 -6h140
q11 0 24 2t24.5 8t19 15.5t7.5 24.5h-90q-25 0 -42.5 17.5t-17.5 42.5v50q0 42 16 77.5t44 61t64.5 39.5t77.5 14h217q19 0 24 -20l25 -116l107 116q14 16 33 23t42 7h155q33 0 56.5 -23.5t23.5 -56.5v-125h45v-130h-534q-19 0 -24 20zM847 130h198v80h-112z" />
    <glyph glyph-name="sadyehf" unicode="&#xfebc;&#xfef2;" horiz-adv-x="1220" arabic-form="final" 
d="M190 -239.5q0 18.5 16 32t39 13.5t39 -13.5t16 -32t-16 -32t-39 -13t-39 13.5t-16 31.5zM320 -239.5q0 18.5 16 32t39 13.5t39 -13.5t16 -32t-16 -32t-39 -13t-39 13.5t-16 31.5zM622 203h-150q-18 0 -35 -13t-17 -37h70q33 0 56.5 -23.5t23.5 -56.5v-50q0 -37 -14 -70
t-38.5 -57.5t-57.5 -38.5t-70 -14h-165q-37 0 -70 14t-57.5 38.5t-38.5 57.5t-14 70v125q0 8 6 14t14 6h90q8 0 14 -6t6 -14v-101q0 -14 1.5 -27.5t7 -24t15 -16.5t26.5 -6h140q11 0 24 2t24.5 8t19 15.5t7.5 24.5h-90q-25 0 -42.5 17.5t-17.5 42.5v50q0 42 16 77.5t44 61
t64.5 39.5t77.5 14h217q19 0 24 -20l25 -116l107 116q14 16 33 23t42 7h155q33 0 56.5 -23.5t23.5 -56.5v-125h45v-130h-534q-19 0 -24 20zM847 130h198v80h-112z" />
    <glyph glyph-name="dadmaksuraf" unicode="&#xfec0;&#xfef0;" horiz-adv-x="1220" arabic-form="final" 
d="M825 445q0 21 16 35.5t39 14.5t39 -14.5t16 -35.5t-16 -35.5t-39 -14.5t-39 14.5t-16 35.5zM622 203h-150q-18 0 -35 -13t-17 -37h70q33 0 56.5 -23.5t23.5 -56.5v-50q0 -37 -14 -70t-38.5 -57.5t-57.5 -38.5t-70 -14h-165q-37 0 -70 14t-57.5 38.5t-38.5 57.5t-14 70
v125q0 8 6 14t14 6h90q8 0 14 -6t6 -14v-101q0 -14 1.5 -27.5t7 -24t15 -16.5t26.5 -6h140q11 0 24 2t24.5 8t19 15.5t7.5 24.5h-90q-25 0 -42.5 17.5t-17.5 42.5v50q0 42 16 77.5t44 61t64.5 39.5t77.5 14h217q19 0 24 -20l25 -116l107 116q14 16 33 23t42 7h155
q33 0 56.5 -23.5t23.5 -56.5v-125h45v-130h-534q-19 0 -24 20zM847 130h198v80h-112z" />
    <glyph glyph-name="dadyehf" unicode="&#xfec0;&#xfef2;" horiz-adv-x="1220" arabic-form="final" 
d="M825 445q0 21 16 35.5t39 14.5t39 -14.5t16 -35.5t-16 -35.5t-39 -14.5t-39 14.5t-16 35.5zM190 -239.5q0 18.5 16 32t39 13.5t39 -13.5t16 -32t-16 -32t-39 -13t-39 13.5t-16 31.5zM320 -239.5q0 18.5 16 32t39 13.5t39 -13.5t16 -32t-16 -32t-39 -13t-39 13.5t-16 31.5
zM622 203h-150q-18 0 -35 -13t-17 -37h70q33 0 56.5 -23.5t23.5 -56.5v-50q0 -37 -14 -70t-38.5 -57.5t-57.5 -38.5t-70 -14h-165q-37 0 -70 14t-57.5 38.5t-38.5 57.5t-14 70v125q0 8 6 14t14 6h90q8 0 14 -6t6 -14v-101q0 -14 1.5 -27.5t7 -24t15 -16.5t26.5 -6h140
q11 0 24 2t24.5 8t19 15.5t7.5 24.5h-90q-25 0 -42.5 17.5t-17.5 42.5v50q0 42 16 77.5t44 61t64.5 39.5t77.5 14h217q19 0 24 -20l25 -116l107 116q14 16 33 23t42 7h155q33 0 56.5 -23.5t23.5 -56.5v-125h45v-130h-534q-19 0 -24 20zM847 130h198v80h-112z" />
    <glyph glyph-name="uniFDF2" unicode="&#x627;&#xfedf;&#xfee0;&#xfeea;" horiz-adv-x="1120" arabic-form="isolated" 
d="M1055 550q8 0 14 -6t6 -14v-510q0 -8 -6 -14t-14 -6h-90q-8 0 -14 6t-6 14v510q0 8 6 14t14 6h90zM725 130v380q0 8 6 14t14 6h90q8 0 14 -6t6 -14v-430q0 -33 -23.5 -56.5t-56.5 -23.5h-630q-54 0 -77 20.5t-23 52.5q0 24 12 54l55 139q11 28 36 46t57 18h190q8 0 14 -6
t6 -14v-180h90v310q0 8 6 14t14 6h90q8 0 14 -6t6 -14v-310h90zM285 130v70h-60l-27 -70h87z" />
    <glyph glyph-name="uniFDFC" unicode="&#x631;&#xfef3;&#xfe8e;&#x644;" horiz-adv-x="1240" arabic-form="isolated" 
d="M475 -20q0 -33 -23.5 -56.5t-56.5 -23.5h-170q-37 0 -70 14t-57.5 38.5t-38.5 57.5t-14 70v128q0 8 6 14t14 6h90q8 0 14 -6t6 -14v-128q0 -20 14.5 -35t35.5 -15h120v500q0 8 6 14t14 6h90q8 0 14 -6t6 -14v-550zM675 550q8 0 14 -6t6 -14v-400h150v180q0 8 6 14t14 6
h90q8 0 14 -6t6 -14v-230q0 -33 -23.5 -56.5t-56.5 -23.5h-310q-8 0 -14 6t-6 14v510q0 8 6 14t14 6h90zM1075 310q0 8 6 14t14 6h90q8 0 14 -6t6 -14v-310q0 -47 -14 -79.5t-37.5 -53t-54.5 -29.5t-65 -9q-36 0 -74 9.5t-70 23.5l29 95q19 -6 38.5 -10t39.5 -4q15 0 29 2
t25 8t17.5 17.5t6.5 29.5v310zM570 -135q0 19 16 32t39 13t39 -13t16 -32t-16 -32t-39 -13t-39 13t-16 32zM700 -135q0 19 16 32t39 13t39 -13t16 -32t-16 -32t-39 -13t-39 13t-16 32z" />
    <glyph glyph-name="lamalefmd" unicode="&#xfedf;&#xfe82;" horiz-adv-x="470" arabic-form="isolated" 
d="M91 -79l8 29l6 19.5t6 20t9 28.5q17 -7 41.5 -11t49.5 -4q16 0 31 2.5t27 9t19 17t7 26.5v472q0 8 6 14t14 6h90q8 0 14 -6t6 -14v-472q0 -46 -14.5 -77.5t-39 -51t-57 -28t-68.5 -8.5q-38 0 -78 7t-77 21zM157 500q8 0 15 -5t9 -15l50 -425h-106q-9 0 -16 5t-8 15
l-50 425h106zM178 554q-12 -9 -22.5 -12.5t-19.5 -3.5q-17 0 -31 6.5t-31 6.5q-10 0 -21 -4.5t-25 -16.5v41q14 12 25 16.5t21 4.5q17 0 31 -6.5t31 -6.5q9 0 19.5 3.5t22.5 12.5v-41z" />
    <glyph glyph-name="lamalefmdf" unicode="&#xfee0;&#xfe82;" horiz-adv-x="470" arabic-form="final" 
d="M178 554q-12 -9 -22.5 -12.5t-19.5 -3.5q-17 0 -31 6.5t-31 6.5q-10 0 -21 -4.5t-25 -16.5v41q14 12 25 16.5t21 4.5q17 0 31 -6.5t31 -6.5q9 0 19.5 3.5t22.5 12.5v-41zM91 -79l8 29l6 19.5t6 20t9 28.5q17 -7 41.5 -11t49.5 -4q33 0 58.5 11.5t25.5 43.5v472q0 8 6 14
t14 6h90q8 0 14 -6t6 -14v-400h45v-130h-53q-9 -29 -26 -49.5t-39.5 -33.5t-49.5 -18.5t-56 -5.5q-38 0 -78 7.5t-77 20.5zM157 500q8 0 15 -5t9 -15l50 -425h-106q-9 0 -16 5t-8 15l-50 425h106z" />
    <glyph glyph-name="lamalefhmz" unicode="&#xfedf;&#xfe84;" horiz-adv-x="470" arabic-form="isolated" 
d="M91 -79l8 29l6 19.5t6 20t9 28.5q17 -7 41.5 -11t49.5 -4q16 0 31 2.5t27 9t19 17t7 26.5v472q0 8 6 14t14 6h90q8 0 14 -6t6 -14v-472q0 -46 -14.5 -77.5t-39 -51t-57 -28t-68.5 -8.5q-38 0 -78 7t-77 21zM157 500q8 0 15 -5t9 -15l50 -425h-106q-9 0 -16 5t-8 15
l-50 425h106zM147 616q-5 4 -12.5 6.5t-14.5 2.5q-8 0 -13.5 -4t-5.5 -14q0 -8 7 -15t21 -7h38v-45h-124v45h24q-14 12 -14 31q0 23 18 36t42 13q14 0 28.5 -5.5t24.5 -13.5z" />
    <glyph glyph-name="lamalefhmzf" unicode="&#xfee0;&#xfe84;" horiz-adv-x="470" arabic-form="final" 
d="M147 616q-5 4 -12.5 6.5t-14.5 2.5q-8 0 -13.5 -4t-5.5 -14q0 -8 7 -15t21 -7h38v-45h-124v45h24q-14 12 -14 31q0 23 18 36t42 13q14 0 28.5 -5.5t24.5 -13.5zM91 -79l8 29l6 19.5t6 20t9 28.5q17 -7 41.5 -11t49.5 -4q33 0 58.5 11.5t25.5 43.5v472q0 8 6 14t14 6h90
q8 0 14 -6t6 -14v-400h45v-130h-53q-9 -29 -26 -49.5t-39.5 -33.5t-49.5 -18.5t-56 -5.5q-38 0 -78 7.5t-77 20.5zM157 500q8 0 15 -5t9 -15l50 -425h-106q-9 0 -16 5t-8 15l-50 425h106z" />
    <glyph glyph-name="lamalefhmz2" unicode="&#xfedf;&#xfe88;" horiz-adv-x="470" arabic-form="isolated" 
d="M91 -79l8 29l6 19.5t6 20t9 28.5q17 -7 41.5 -11t49.5 -4q16 0 31 2.5t27 9t19 17t7 26.5v472q0 8 6 14t14 6h90q8 0 14 -6t6 -14v-472q0 -46 -14.5 -77.5t-39 -51t-57 -28t-68.5 -8.5q-38 0 -78 7t-77 21zM157 500q8 0 15 -5t9 -15l50 -425h-106q-9 0 -16 5t-8 15
l-50 425h106zM187 -182q-5 4 -12.5 6.5t-14.5 2.5q-8 0 -13.5 -4t-5.5 -13q0 -7 7 -13t21 -6h38v-41h-124v41h24q-14 10 -14 27q0 21 18 33t42 12q14 0 28.5 -5t24.5 -13z" />
    <glyph glyph-name="lamalefhmz2f" unicode="&#xfee0;&#xfe88;" horiz-adv-x="470" arabic-form="final" 
d="M187 -182q-5 4 -12.5 6.5t-14.5 2.5q-8 0 -13.5 -4t-5.5 -13q0 -7 7 -13t21 -6h38v-41h-124v41h24q-14 10 -14 27q0 21 18 33t42 12q14 0 28.5 -5t24.5 -13zM91 -79l8 29l6 19.5t6 20t9 28.5q17 -7 41.5 -11t49.5 -4q33 0 58.5 11.5t25.5 43.5v472q0 8 6 14t14 6h90
q8 0 14 -6t6 -14v-400h45v-130h-53q-9 -29 -26 -49.5t-39.5 -33.5t-49.5 -18.5t-56 -5.5q-38 0 -78 7.5t-77 20.5zM157 500q8 0 15 -5t9 -15l50 -425h-106q-9 0 -16 5t-8 15l-50 425h106z" />
    <glyph glyph-name="lamalef" unicode="&#xfedf;&#xfe8e;" horiz-adv-x="470" 
d="M91 -79l8 29l6 19.5t6 20t9 28.5q17 -7 41.5 -11t49.5 -4q16 0 31 2.5t27 9t19 17t7 26.5v472q0 8 6 14t14 6h90q8 0 14 -6t6 -14v-472q0 -46 -14.5 -77.5t-39 -51t-57 -28t-68.5 -8.5q-38 0 -78 7t-77 21zM157 500q8 0 15 -5t9 -15l50 -425h-106q-9 0 -16 5t-8 15
l-50 425h106z" />
    <glyph glyph-name="lamaleff" unicode="&#xfee0;&#xfe8e;" horiz-adv-x="470" 
d="M91 -79l8 29l6 19.5t6 20t9 28.5q17 -7 41.5 -11t49.5 -4q33 0 58.5 11.5t25.5 43.5v472q0 8 6 14t14 6h90q8 0 14 -6t6 -14v-400h45v-130h-53q-9 -29 -26 -49.5t-39.5 -33.5t-49.5 -18.5t-56 -5.5q-38 0 -78 7.5t-77 20.5zM157 500q8 0 15 -5t9 -15l50 -425h-106
q-9 0 -16 5t-8 15l-50 425h106z" />
    <glyph glyph-name="lamalefwasl" unicode="&#xfedf;&#xfb51;" horiz-adv-x="470" 
d="M91 -79l8 29l6 19.5t6 20t9 28.5q17 -7 41.5 -11t49.5 -4q16 0 31 2.5t27 9t19 17t7 26.5v472q0 8 6 14t14 6h90q8 0 14 -6t6 -14v-472q0 -46 -14.5 -77.5t-39 -51t-57 -28t-68.5 -8.5q-38 0 -78 7t-77 21zM157 500q8 0 15 -5t9 -15l50 -425h-106q-9 0 -16 5t-8 15
l-50 425h106zM32 573h15v47q0 6 5 6h21q5 0 5.5 -2t0.5 -4v-15l12 12q8 8 19 8h44q8 0 14 -6.5t6 -15.5v-43q0 -8 -6 -14t-14 -6h-122v33zM85 573h57v20h-37z" />
    <glyph glyph-name="lamalefwaslf" unicode="&#xfee0;&#xfb51;" horiz-adv-x="470" 
d="M32 573h15v47q0 6 5 6h21q5 0 5.5 -2t0.5 -4v-15l12 12q8 8 19 8h44q8 0 14 -6.5t6 -15.5v-43q0 -8 -6 -14t-14 -6h-122v33zM85 573h57v20h-37zM91 -79l8 29l6 19.5t6 20t9 28.5q17 -7 41.5 -11t49.5 -4q33 0 58.5 11.5t25.5 43.5v472q0 8 6 14t14 6h90q8 0 14 -6t6 -14
v-400h45v-130h-53q-9 -29 -26 -49.5t-39.5 -33.5t-49.5 -18.5t-56 -5.5q-38 0 -78 7.5t-77 20.5zM157 500q8 0 15 -5t9 -15l50 -425h-106q-9 0 -16 5t-8 15l-50 425h106z" />
    <glyph glyph-name="lellah" unicode="&#xfedf;&#xfee0;&#xfeea;" horiz-adv-x="900" 
d="M725 130v380q0 8 6 14t14 6h90q8 0 14 -6t6 -14v-430q0 -33 -23.5 -56.5t-56.5 -23.5h-630q-54 0 -77 20.5t-23 52.5q0 24 12 54l55 139q11 28 36 46t57 18h190q8 0 14 -6t6 -14v-180h90v310q0 8 6 14t14 6h90q8 0 14 -6t6 -14v-310h90zM285 130v70h-60l-27 -70h87z" />
    <glyph glyph-name="noonyehf" unicode="&#xfee8;&#xfef2;" horiz-adv-x="840" 
d="M505 445q0 21 16 35.5t39 14.5t39 -14.5t16 -35.5t-16 -35.5t-39 -14.5t-39 14.5t-16 35.5zM190 -250.5q0 18.5 16 32t39 13.5t39 -13.5t16 -32t-16 -32t-39 -13.5t-39 13.5t-16 32zM320 -250.5q0 18.5 16 32t39 13.5t39 -13.5t16 -32t-16 -32t-39 -13.5t-39 13.5t-16 32
zM622 203h-150q-18 0 -35 -13t-17 -37h70q33 0 56.5 -23.5t23.5 -56.5v-50q0 -37 -14 -70t-38.5 -57.5t-57.5 -38.5t-70 -14h-165q-37 0 -70 14t-57.5 38.5t-38.5 57.5t-14 70v125q0 8 6 14t14 6h90q8 0 14 -6t6 -14v-101q0 -14 1.5 -27.5t7 -24t15 -16.5t26.5 -6h140
q11 0 24 2t24.5 8t19 15.5t7.5 24.5h-90q-25 0 -42.5 17.5t-17.5 42.5v50q0 42 16 77.5t44 61t64.5 39.5t77.5 14h217q19 0 24 -20l38 -175h69v-130h-154q-19 0 -24 20z" />
    <glyph glyph-name="uni0679yehf" unicode="&#xfb69;&#xfef2;" horiz-adv-x="840" 
d="M190 -250.5q0 18.5 16 32t39 13.5t39 -13.5t16 -32t-16 -32t-39 -13.5t-39 13.5t-16 32zM320 -250.5q0 18.5 16 32t39 13.5t39 -13.5t16 -32t-16 -32t-39 -13.5t-39 13.5t-16 32zM495 433h15v107h32v-75l12 12q8 8 19 8h44q8 0 14 -6.5t6 -15.5v-43q0 -8 -6 -14t-14 -6
h-122v33zM548 433h57v20h-37zM622 203h-150q-18 0 -35 -13t-17 -37h70q33 0 56.5 -23.5t23.5 -56.5v-50q0 -37 -14 -70t-38.5 -57.5t-57.5 -38.5t-70 -14h-165q-37 0 -70 14t-57.5 38.5t-38.5 57.5t-14 70v125q0 8 6 14t14 6h90q8 0 14 -6t6 -14v-101q0 -14 1.5 -27.5t7 -24
t15 -16.5t26.5 -6h140q11 0 24 2t24.5 8t19 15.5t7.5 24.5h-90q-25 0 -42.5 17.5t-17.5 42.5v50q0 42 16 77.5t44 61t64.5 39.5t77.5 14h217q19 0 24 -20l38 -175h69v-130h-154q-19 0 -24 20z" />
    <glyph glyph-name="hmzyehhmzf" unicode="&#xfe8c;&#xfe8a;" horiz-adv-x="840" 
d="M152 316q-5 4 -12.5 6.5t-14.5 2.5q-8 0 -13.5 -4t-5.5 -14q0 -8 7 -15t21 -7h38v-45h-124v45h24q-14 12 -14 31q0 23 18 36t42 13q14 0 28.5 -5.5t24.5 -13.5zM602 476q-5 4 -12.5 6.5t-14.5 2.5q-8 0 -13.5 -4t-5.5 -14q0 -8 7 -15t21 -7h38v-45h-124v45h24
q-14 12 -14 31q0 23 18 36t42 13q14 0 28.5 -5.5t24.5 -13.5zM622 203h-150q-18 0 -35 -13t-17 -37h70q33 0 56.5 -23.5t23.5 -56.5v-50q0 -37 -14 -70t-38.5 -57.5t-57.5 -38.5t-70 -14h-165q-37 0 -70 14t-57.5 38.5t-38.5 57.5t-14 70v125q0 8 6 14t14 6h90q8 0 14 -6
t6 -14v-101q0 -14 1.5 -27.5t7 -24t15 -16.5t26.5 -6h140q11 0 24 2t24.5 8t19 15.5t7.5 24.5h-90q-25 0 -42.5 17.5t-17.5 42.5v50q0 42 16 77.5t44 61t64.5 39.5t77.5 14h217q19 0 24 -20l38 -175h69v-130h-154q-19 0 -24 20z" />
    <glyph glyph-name="tehyehhmzf" unicode="&#xfe98;&#xfe8a;" horiz-adv-x="840" 
d="M440 445q0 21 16 35.5t39 14.5t39 -14.5t16 -35.5t-16 -35.5t-39 -14.5t-39 14.5t-16 35.5zM570 445q0 21 16 35.5t39 14.5t39 -14.5t16 -35.5t-16 -35.5t-39 -14.5t-39 14.5t-16 35.5zM152 316q-5 4 -12.5 6.5t-14.5 2.5q-8 0 -13.5 -4t-5.5 -14q0 -8 7 -15t21 -7h38
v-45h-124v45h24q-14 12 -14 31q0 23 18 36t42 13q14 0 28.5 -5.5t24.5 -13.5zM622 203h-150q-18 0 -35 -13t-17 -37h70q33 0 56.5 -23.5t23.5 -56.5v-50q0 -37 -14 -70t-38.5 -57.5t-57.5 -38.5t-70 -14h-165q-37 0 -70 14t-57.5 38.5t-38.5 57.5t-14 70v125q0 8 6 14t14 6
h90q8 0 14 -6t6 -14v-101q0 -14 1.5 -27.5t7 -24t15 -16.5t26.5 -6h140q11 0 24 2t24.5 8t19 15.5t7.5 24.5h-90q-25 0 -42.5 17.5t-17.5 42.5v50q0 42 16 77.5t44 61t64.5 39.5t77.5 14h217q19 0 24 -20l38 -175h69v-130h-154q-19 0 -24 20z" />
    <glyph glyph-name="thehyehhmzf" unicode="&#xfe9c;&#xfe8a;" horiz-adv-x="840" 
d="M440 425q0 19 16 32t39 13t39 -13t16 -32t-16 -32t-39 -13t-39 13t-16 32zM570 425q0 19 16 32t39 13t39 -13t16 -32t-16 -32t-39 -13t-39 13t-16 32zM505 525q0 19 16 32t39 13t39 -13t16 -32t-16 -32t-39 -13t-39 13t-16 32zM152 316q-5 4 -12.5 6.5t-14.5 2.5
q-8 0 -13.5 -4t-5.5 -14q0 -8 7 -15t21 -7h38v-45h-124v45h24q-14 12 -14 31q0 23 18 36t42 13q14 0 28.5 -5.5t24.5 -13.5zM622 203h-150q-18 0 -35 -13t-17 -37h70q33 0 56.5 -23.5t23.5 -56.5v-50q0 -37 -14 -70t-38.5 -57.5t-57.5 -38.5t-70 -14h-165q-37 0 -70 14
t-57.5 38.5t-38.5 57.5t-14 70v125q0 8 6 14t14 6h90q8 0 14 -6t6 -14v-101q0 -14 1.5 -27.5t7 -24t15 -16.5t26.5 -6h140q11 0 24 2t24.5 8t19 15.5t7.5 24.5h-90q-25 0 -42.5 17.5t-17.5 42.5v50q0 42 16 77.5t44 61t64.5 39.5t77.5 14h217q19 0 24 -20l38 -175h69v-130
h-154q-19 0 -24 20z" />
    <glyph glyph-name="noonyehhmzf" unicode="&#xfee8;&#xfe8a;" horiz-adv-x="840" 
d="M505 445q0 21 16 35.5t39 14.5t39 -14.5t16 -35.5t-16 -35.5t-39 -14.5t-39 14.5t-16 35.5zM152 316q-5 4 -12.5 6.5t-14.5 2.5q-8 0 -13.5 -4t-5.5 -14q0 -8 7 -15t21 -7h38v-45h-124v45h24q-14 12 -14 31q0 23 18 36t42 13q14 0 28.5 -5.5t24.5 -13.5zM622 203h-150
q-18 0 -35 -13t-17 -37h70q33 0 56.5 -23.5t23.5 -56.5v-50q0 -37 -14 -70t-38.5 -57.5t-57.5 -38.5t-70 -14h-165q-37 0 -70 14t-57.5 38.5t-38.5 57.5t-14 70v125q0 8 6 14t14 6h90q8 0 14 -6t6 -14v-101q0 -14 1.5 -27.5t7 -24t15 -16.5t26.5 -6h140q11 0 24 2t24.5 8
t19 15.5t7.5 24.5h-90q-25 0 -42.5 17.5t-17.5 42.5v50q0 42 16 77.5t44 61t64.5 39.5t77.5 14h217q19 0 24 -20l38 -175h69v-130h-154q-19 0 -24 20z" />
    <glyph glyph-name="uni0679yehhmzf" unicode="&#xfb69;&#xfe8a;" horiz-adv-x="840" 
d="M495 433h15v107h32v-75l12 12q8 8 19 8h44q8 0 14 -6.5t6 -15.5v-43q0 -8 -6 -14t-14 -6h-122v33zM548 433h57v20h-37zM152 316q-5 4 -12.5 6.5t-14.5 2.5q-8 0 -13.5 -4t-5.5 -14q0 -8 7 -15t21 -7h38v-45h-124v45h24q-14 12 -14 31q0 23 18 36t42 13q14 0 28.5 -5.5
t24.5 -13.5zM622 203h-150q-18 0 -35 -13t-17 -37h70q33 0 56.5 -23.5t23.5 -56.5v-50q0 -37 -14 -70t-38.5 -57.5t-57.5 -38.5t-70 -14h-165q-37 0 -70 14t-57.5 38.5t-38.5 57.5t-14 70v125q0 8 6 14t14 6h90q8 0 14 -6t6 -14v-101q0 -14 1.5 -27.5t7 -24t15 -16.5
t26.5 -6h140q11 0 24 2t24.5 8t19 15.5t7.5 24.5h-90q-25 0 -42.5 17.5t-17.5 42.5v50q0 42 16 77.5t44 61t64.5 39.5t77.5 14h217q19 0 24 -20l38 -175h69v-130h-154q-19 0 -24 20z" />
    <glyph glyph-name="noonmaksuraf" unicode="&#xfee8;&#xfef0;" horiz-adv-x="840" 
d="M505 445q0 21 16 35.5t39 14.5t39 -14.5t16 -35.5t-16 -35.5t-39 -14.5t-39 14.5t-16 35.5zM622 203h-150q-18 0 -35 -13t-17 -37h70q33 0 56.5 -23.5t23.5 -56.5v-50q0 -37 -14 -70t-38.5 -57.5t-57.5 -38.5t-70 -14h-165q-37 0 -70 14t-57.5 38.5t-38.5 57.5t-14 70
v125q0 8 6 14t14 6h90q8 0 14 -6t6 -14v-101q0 -14 1.5 -27.5t7 -24t15 -16.5t26.5 -6h140q11 0 24 2t24.5 8t19 15.5t7.5 24.5h-90q-25 0 -42.5 17.5t-17.5 42.5v50q0 42 16 77.5t44 61t64.5 39.5t77.5 14h217q19 0 24 -20l38 -175h69v-130h-154q-19 0 -24 20z" />
    <glyph glyph-name="uni0679maksuraf" unicode="&#xfb69;&#xfef0;" horiz-adv-x="840" 
d="M495 433h15v107h32v-75l12 12q8 8 19 8h44q8 0 14 -6.5t6 -15.5v-43q0 -8 -6 -14t-14 -6h-122v33zM548 433h57v20h-37zM622 203h-150q-18 0 -35 -13t-17 -37h70q33 0 56.5 -23.5t23.5 -56.5v-50q0 -37 -14 -70t-38.5 -57.5t-57.5 -38.5t-70 -14h-165q-37 0 -70 14
t-57.5 38.5t-38.5 57.5t-14 70v125q0 8 6 14t14 6h90q8 0 14 -6t6 -14v-101q0 -14 1.5 -27.5t7 -24t15 -16.5t26.5 -6h140q11 0 24 2t24.5 8t19 15.5t7.5 24.5h-90q-25 0 -42.5 17.5t-17.5 42.5v50q0 42 16 77.5t44 61t64.5 39.5t77.5 14h217q19 0 24 -20l38 -175h69v-130
h-154q-19 0 -24 20z" />
    <glyph glyph-name="seenyehhmz" unicode="&#xfeb3;&#xfe8a;" horiz-adv-x="1220" 
d="M152 316q-5 4 -12.5 6.5t-14.5 2.5q-8 0 -13.5 -4t-5.5 -14q0 -8 7 -15t21 -7h38v-45h-124v45h24q-14 12 -14 31q0 23 18 36t42 13q14 0 28.5 -5.5t24.5 -13.5zM645 210h-173q-18 0 -35 -16.5t-17 -40.5h70q33 0 56.5 -23.5t23.5 -56.5v-50q0 -37 -14 -70t-38.5 -57.5
t-57.5 -38.5t-70 -14h-165q-37 0 -70 14t-57.5 38.5t-38.5 57.5t-14 70v125q0 8 6 14t14 6h90q8 0 14 -6t6 -14v-101q0 -14 1.5 -27.5t7 -24t15 -16.5t26.5 -6h140q11 0 24 2t24.5 8t19 15.5t7.5 24.5h-90q-25 0 -42.5 17.5t-17.5 42.5v50q0 42 16 77.5t44 61t64.5 39.5
t77.5 14h263q8 0 14 -6t6 -14v-175h70v175q0 8 6 14t14 6h90q8 0 14 -6t6 -14v-175h70v175q0 8 6 14t14 6h90q8 0 14 -6t6 -14v-225q0 -33 -23.5 -56.5t-56.5 -23.5h-370q-33 0 -56.5 23.5t-23.5 56.5v130z" />
    <glyph glyph-name="seenyehhmzf" unicode="&#xfeb4;&#xfe8a;" horiz-adv-x="1260" 
d="M152 316q-5 4 -12.5 6.5t-14.5 2.5q-8 0 -13.5 -4t-5.5 -14q0 -8 7 -15t21 -7h38v-45h-124v45h24q-14 12 -14 31q0 23 18 36t42 13q14 0 28.5 -5.5t24.5 -13.5zM645 210h-173q-18 0 -35 -16.5t-17 -40.5h70q33 0 56.5 -23.5t23.5 -56.5v-50q0 -37 -14 -70t-38.5 -57.5
t-57.5 -38.5t-70 -14h-165q-37 0 -70 14t-57.5 38.5t-38.5 57.5t-14 70v125q0 8 6 14t14 6h90q8 0 14 -6t6 -14v-101q0 -14 1.5 -27.5t7 -24t15 -16.5t26.5 -6h140q11 0 24 2t24.5 8t19 15.5t7.5 24.5h-90q-25 0 -42.5 17.5t-17.5 42.5v50q0 42 16 77.5t44 61t64.5 39.5
t77.5 14h263q8 0 14 -6t6 -14v-175h70v175q0 8 6 14t14 6h90q8 0 14 -6t6 -14v-175h70v175q0 8 6 14t14 6h90q8 0 14 -6t6 -14v-175h85v-130h-535q-33 0 -56.5 23.5t-23.5 56.5v130z" />
    <glyph glyph-name="sheenyehhmz" unicode="&#xfeb7;&#xfe8a;" horiz-adv-x="1220" 
d="M790 425q0 19 16 32t39 13t39 -13t16 -32t-16 -32t-39 -13t-39 13t-16 32zM920 425q0 19 16 32t39 13t39 -13t16 -32t-16 -32t-39 -13t-39 13t-16 32zM855 525q0 19 16 32t39 13t39 -13t16 -32t-16 -32t-39 -13t-39 13t-16 32zM152 316q-5 4 -12.5 6.5t-14.5 2.5
q-8 0 -13.5 -4t-5.5 -14q0 -8 7 -15t21 -7h38v-45h-124v45h24q-14 12 -14 31q0 23 18 36t42 13q14 0 28.5 -5.5t24.5 -13.5zM645 210h-173q-18 0 -35 -16.5t-17 -40.5h70q33 0 56.5 -23.5t23.5 -56.5v-50q0 -37 -14 -70t-38.5 -57.5t-57.5 -38.5t-70 -14h-165q-37 0 -70 14
t-57.5 38.5t-38.5 57.5t-14 70v125q0 8 6 14t14 6h90q8 0 14 -6t6 -14v-101q0 -14 1.5 -27.5t7 -24t15 -16.5t26.5 -6h140q11 0 24 2t24.5 8t19 15.5t7.5 24.5h-90q-25 0 -42.5 17.5t-17.5 42.5v50q0 42 16 77.5t44 61t64.5 39.5t77.5 14h263q8 0 14 -6t6 -14v-175h70v175
q0 8 6 14t14 6h90q8 0 14 -6t6 -14v-175h70v175q0 8 6 14t14 6h90q8 0 14 -6t6 -14v-225q0 -33 -23.5 -56.5t-56.5 -23.5h-370q-33 0 -56.5 23.5t-23.5 56.5v130z" />
    <glyph glyph-name="sheenyehhmzf" unicode="&#xfeb8;&#xfe8a;" horiz-adv-x="1260" 
d="M790 425q0 19 16 32t39 13t39 -13t16 -32t-16 -32t-39 -13t-39 13t-16 32zM920 425q0 19 16 32t39 13t39 -13t16 -32t-16 -32t-39 -13t-39 13t-16 32zM855 525q0 19 16 32t39 13t39 -13t16 -32t-16 -32t-39 -13t-39 13t-16 32zM152 316q-5 4 -12.5 6.5t-14.5 2.5
q-8 0 -13.5 -4t-5.5 -14q0 -8 7 -15t21 -7h38v-45h-124v45h24q-14 12 -14 31q0 23 18 36t42 13q14 0 28.5 -5.5t24.5 -13.5zM645 210h-173q-18 0 -35 -16.5t-17 -40.5h70q33 0 56.5 -23.5t23.5 -56.5v-50q0 -37 -14 -70t-38.5 -57.5t-57.5 -38.5t-70 -14h-165q-37 0 -70 14
t-57.5 38.5t-38.5 57.5t-14 70v125q0 8 6 14t14 6h90q8 0 14 -6t6 -14v-101q0 -14 1.5 -27.5t7 -24t15 -16.5t26.5 -6h140q11 0 24 2t24.5 8t19 15.5t7.5 24.5h-90q-25 0 -42.5 17.5t-17.5 42.5v50q0 42 16 77.5t44 61t64.5 39.5t77.5 14h263q8 0 14 -6t6 -14v-175h70v175
q0 8 6 14t14 6h90q8 0 14 -6t6 -14v-175h70v175q0 8 6 14t14 6h90q8 0 14 -6t6 -14v-175h85v-130h-535q-33 0 -56.5 23.5t-23.5 56.5v130z" />
    <glyph glyph-name="meemmaksura" unicode="&#xfee3;&#xfef0;" horiz-adv-x="1040" 
d="M645 200h-173q-18 0 -35 -14t-17 -38h70q33 0 56.5 -23.5t23.5 -56.5v-50q0 -37 -14 -70t-38.5 -57.5t-57.5 -38.5t-70 -14h-165q-37 0 -70 14t-57.5 38.5t-38.5 57.5t-14 70v125q0 8 6 14t14 6h90q8 0 14 -6t6 -14v-101q0 -14 1.5 -27.5t7 -24t15 -16.5t26.5 -6h140
q11 0 24 2t24.5 8t19 15.5t7.5 24.5h-90q-25 0 -42.5 17.5t-17.5 42.5v50q0 42 16 77.5t44 61t64.5 39.5t77.5 14h413q37 0 63.5 -26.5t26.5 -63.5v-80q0 -40 -17.5 -69t-45.5 -48t-63 -28.5t-71 -9.5q-38 0 -80.5 12.5t-72.5 35.5v157zM770 200v-73q11 -3 21 -5t19 -2
q24 0 42 10t18 30v40h-100z" />
    <glyph glyph-name="meemmaksuraf" unicode="&#xfee4;&#xfef0;" horiz-adv-x="1040" 
d="M645 200h-173q-18 0 -35 -14t-17 -38h70q33 0 56.5 -23.5t23.5 -56.5v-50q0 -37 -14 -70t-38.5 -57.5t-57.5 -38.5t-70 -14h-165q-37 0 -70 14t-57.5 38.5t-38.5 57.5t-14 70v125q0 8 6 14t14 6h90q8 0 14 -6t6 -14v-101q0 -14 1.5 -27.5t7 -24t15 -16.5t26.5 -6h140
q11 0 24 2t24.5 8t19 15.5t7.5 24.5h-90q-25 0 -42.5 17.5t-17.5 42.5v50q0 42 16 77.5t44 61t64.5 39.5t77.5 14h333q36 0 67 -8.5t54 -26.5t36 -46t13 -67v-42h45v-130h-208q-37 0 -70.5 8t-59.5 26t-41.5 46t-15.5 67v53zM775 160q0 -14 11.5 -22t28.5 -8h50v40
q0 14 -11.5 22t-28.5 8h-50v-40z" />
    <glyph glyph-name="meemyeh" unicode="&#xfee3;&#xfef2;" horiz-adv-x="1040" 
d="M190 -250.5q0 18.5 16 32t39 13.5t39 -13.5t16 -32t-16 -32t-39 -13.5t-39 13.5t-16 32zM320 -250.5q0 18.5 16 32t39 13.5t39 -13.5t16 -32t-16 -32t-39 -13.5t-39 13.5t-16 32zM645 200h-173q-18 0 -35 -14t-17 -38h70q33 0 56.5 -23.5t23.5 -56.5v-50q0 -37 -14 -70
t-38.5 -57.5t-57.5 -38.5t-70 -14h-165q-37 0 -70 14t-57.5 38.5t-38.5 57.5t-14 70v125q0 8 6 14t14 6h90q8 0 14 -6t6 -14v-101q0 -14 1.5 -27.5t7 -24t15 -16.5t26.5 -6h140q11 0 24 2t24.5 8t19 15.5t7.5 24.5h-90q-25 0 -42.5 17.5t-17.5 42.5v50q0 42 16 77.5t44 61
t64.5 39.5t77.5 14h413q37 0 63.5 -26.5t26.5 -63.5v-80q0 -40 -17.5 -69t-45.5 -48t-63 -28.5t-71 -9.5q-38 0 -80.5 12.5t-72.5 35.5v157zM770 200v-73q11 -3 21 -5t19 -2q24 0 42 10t18 30v40h-100z" />
    <glyph glyph-name="meemyehf" unicode="&#xfee4;&#xfef2;" horiz-adv-x="1040" 
d="M190 -250.5q0 18.5 16 32t39 13.5t39 -13.5t16 -32t-16 -32t-39 -13.5t-39 13.5t-16 32zM320 -250.5q0 18.5 16 32t39 13.5t39 -13.5t16 -32t-16 -32t-39 -13.5t-39 13.5t-16 32zM645 200h-173q-18 0 -35 -14t-17 -38h70q33 0 56.5 -23.5t23.5 -56.5v-50q0 -37 -14 -70
t-38.5 -57.5t-57.5 -38.5t-70 -14h-165q-37 0 -70 14t-57.5 38.5t-38.5 57.5t-14 70v125q0 8 6 14t14 6h90q8 0 14 -6t6 -14v-101q0 -14 1.5 -27.5t7 -24t15 -16.5t26.5 -6h140q11 0 24 2t24.5 8t19 15.5t7.5 24.5h-90q-25 0 -42.5 17.5t-17.5 42.5v50q0 42 16 77.5t44 61
t64.5 39.5t77.5 14h333q36 0 67 -8.5t54 -26.5t36 -46t13 -67v-42h45v-130h-208q-37 0 -70.5 8t-59.5 26t-41.5 46t-15.5 67v53zM775 160q0 -14 11.5 -22t28.5 -8h50v40q0 14 -11.5 22t-28.5 8h-50v-40z" />
    <glyph glyph-name="meemyehhmz" unicode="&#xfee3;&#xfe8a;" horiz-adv-x="1040" 
d="M152 316q-5 4 -12.5 6.5t-14.5 2.5q-8 0 -13.5 -4t-5.5 -14q0 -8 7 -15t21 -7h38v-45h-124v45h24q-14 12 -14 31q0 23 18 36t42 13q14 0 28.5 -5.5t24.5 -13.5zM645 200h-173q-18 0 -35 -14t-17 -38h70q33 0 56.5 -23.5t23.5 -56.5v-50q0 -37 -14 -70t-38.5 -57.5
t-57.5 -38.5t-70 -14h-165q-37 0 -70 14t-57.5 38.5t-38.5 57.5t-14 70v125q0 8 6 14t14 6h90q8 0 14 -6t6 -14v-101q0 -14 1.5 -27.5t7 -24t15 -16.5t26.5 -6h140q11 0 24 2t24.5 8t19 15.5t7.5 24.5h-90q-25 0 -42.5 17.5t-17.5 42.5v50q0 42 16 77.5t44 61t64.5 39.5
t77.5 14h413q37 0 63.5 -26.5t26.5 -63.5v-80q0 -40 -17.5 -69t-45.5 -48t-63 -28.5t-71 -9.5q-38 0 -80.5 12.5t-72.5 35.5v157zM770 200v-73q11 -3 21 -5t19 -2q24 0 42 10t18 30v40h-100z" />
    <glyph glyph-name="meemyehhmzf" unicode="&#xfee4;&#xfe8a;" horiz-adv-x="1040" 
d="M152 316q-5 4 -12.5 6.5t-14.5 2.5q-8 0 -13.5 -4t-5.5 -14q0 -8 7 -15t21 -7h38v-45h-124v45h24q-14 12 -14 31q0 23 18 36t42 13q14 0 28.5 -5.5t24.5 -13.5zM645 200h-173q-18 0 -35 -14t-17 -38h70q33 0 56.5 -23.5t23.5 -56.5v-50q0 -37 -14 -70t-38.5 -57.5
t-57.5 -38.5t-70 -14h-165q-37 0 -70 14t-57.5 38.5t-38.5 57.5t-14 70v125q0 8 6 14t14 6h90q8 0 14 -6t6 -14v-101q0 -14 1.5 -27.5t7 -24t15 -16.5t26.5 -6h140q11 0 24 2t24.5 8t19 15.5t7.5 24.5h-90q-25 0 -42.5 17.5t-17.5 42.5v50q0 42 16 77.5t44 61t64.5 39.5
t77.5 14h333q36 0 67 -8.5t54 -26.5t36 -46t13 -67v-42h45v-130h-208q-37 0 -70.5 8t-59.5 26t-41.5 46t-15.5 67v53zM775 160q0 -14 11.5 -22t28.5 -8h50v40q0 14 -11.5 22t-28.5 8h-50v-40z" />
    <glyph glyph-name="sadyehhmz" unicode="&#xfebb;&#xfe8a;" horiz-adv-x="1220" 
d="M152 316q-5 4 -12.5 6.5t-14.5 2.5q-8 0 -13.5 -4t-5.5 -14q0 -8 7 -15t21 -7h38v-45h-124v45h24q-14 12 -14 31q0 23 18 36t42 13q14 0 28.5 -5.5t24.5 -13.5zM622 203h-150q-18 0 -35 -13t-17 -37h70q33 0 56.5 -23.5t23.5 -56.5v-50q0 -37 -14 -70t-38.5 -57.5
t-57.5 -38.5t-70 -14h-165q-37 0 -70 14t-57.5 38.5t-38.5 57.5t-14 70v125q0 8 6 14t14 6h90q8 0 14 -6t6 -14v-101q0 -14 1.5 -27.5t7 -24t15 -16.5t26.5 -6h140q11 0 24 2t24.5 8t19 15.5t7.5 24.5h-90q-25 0 -42.5 17.5t-17.5 42.5v50q0 42 16 77.5t44 61t64.5 39.5
t77.5 14h217q19 0 24 -20l25 -116l107 116q14 16 33 23t42 7h155q33 0 56.5 -23.5t23.5 -56.5v-175q0 -33 -23.5 -56.5t-56.5 -23.5h-409q-19 0 -24 20zM847 130h198v80h-112z" />
    <glyph glyph-name="sadyehhmzf" unicode="&#xfebc;&#xfe8a;" horiz-adv-x="1220" 
d="M152 316q-5 4 -12.5 6.5t-14.5 2.5q-8 0 -13.5 -4t-5.5 -14q0 -8 7 -15t21 -7h38v-45h-124v45h24q-14 12 -14 31q0 23 18 36t42 13q14 0 28.5 -5.5t24.5 -13.5zM622 203h-150q-18 0 -35 -13t-17 -37h70q33 0 56.5 -23.5t23.5 -56.5v-50q0 -37 -14 -70t-38.5 -57.5
t-57.5 -38.5t-70 -14h-165q-37 0 -70 14t-57.5 38.5t-38.5 57.5t-14 70v125q0 8 6 14t14 6h90q8 0 14 -6t6 -14v-101q0 -14 1.5 -27.5t7 -24t15 -16.5t26.5 -6h140q11 0 24 2t24.5 8t19 15.5t7.5 24.5h-90q-25 0 -42.5 17.5t-17.5 42.5v50q0 42 16 77.5t44 61t64.5 39.5
t77.5 14h217q19 0 24 -20l25 -116l107 116q14 16 33 23t42 7h155q33 0 56.5 -23.5t23.5 -56.5v-125h45v-130h-534q-19 0 -24 20zM847 130h198v80h-112z" />
    <glyph glyph-name="dadyehhmz" unicode="&#xfebf;&#xfe8a;" horiz-adv-x="1220" 
d="M825 445q0 21 16 35.5t39 14.5t39 -14.5t16 -35.5t-16 -35.5t-39 -14.5t-39 14.5t-16 35.5zM152 316q-5 4 -12.5 6.5t-14.5 2.5q-8 0 -13.5 -4t-5.5 -14q0 -8 7 -15t21 -7h38v-45h-124v45h24q-14 12 -14 31q0 23 18 36t42 13q14 0 28.5 -5.5t24.5 -13.5zM622 203h-150
q-18 0 -35 -13t-17 -37h70q33 0 56.5 -23.5t23.5 -56.5v-50q0 -37 -14 -70t-38.5 -57.5t-57.5 -38.5t-70 -14h-165q-37 0 -70 14t-57.5 38.5t-38.5 57.5t-14 70v125q0 8 6 14t14 6h90q8 0 14 -6t6 -14v-101q0 -14 1.5 -27.5t7 -24t15 -16.5t26.5 -6h140q11 0 24 2t24.5 8
t19 15.5t7.5 24.5h-90q-25 0 -42.5 17.5t-17.5 42.5v50q0 42 16 77.5t44 61t64.5 39.5t77.5 14h217q19 0 24 -20l25 -116l107 116q14 16 33 23t42 7h155q33 0 56.5 -23.5t23.5 -56.5v-175q0 -33 -23.5 -56.5t-56.5 -23.5h-409q-19 0 -24 20zM847 130h198v80h-112z" />
    <glyph glyph-name="dadyehhmzf" unicode="&#xfec0;&#xfe8a;" horiz-adv-x="1220" 
d="M825 445q0 21 16 35.5t39 14.5t39 -14.5t16 -35.5t-16 -35.5t-39 -14.5t-39 14.5t-16 35.5zM152 316q-5 4 -12.5 6.5t-14.5 2.5q-8 0 -13.5 -4t-5.5 -14q0 -8 7 -15t21 -7h38v-45h-124v45h24q-14 12 -14 31q0 23 18 36t42 13q14 0 28.5 -5.5t24.5 -13.5zM622 203h-150
q-18 0 -35 -13t-17 -37h70q33 0 56.5 -23.5t23.5 -56.5v-50q0 -37 -14 -70t-38.5 -57.5t-57.5 -38.5t-70 -14h-165q-37 0 -70 14t-57.5 38.5t-38.5 57.5t-14 70v125q0 8 6 14t14 6h90q8 0 14 -6t6 -14v-101q0 -14 1.5 -27.5t7 -24t15 -16.5t26.5 -6h140q11 0 24 2t24.5 8
t19 15.5t7.5 24.5h-90q-25 0 -42.5 17.5t-17.5 42.5v50q0 42 16 77.5t44 61t64.5 39.5t77.5 14h217q19 0 24 -20l25 -116l107 116q14 16 33 23t42 7h155q33 0 56.5 -23.5t23.5 -56.5v-125h45v-130h-534q-19 0 -24 20zM847 130h198v80h-112z" />
    <glyph glyph-name="alefmd" unicode="&#x622;" horiz-adv-x="220" arabic-form="isolated" 
d="M155 550q8 0 14 -6t6 -14v-510q0 -8 -6 -14t-14 -6h-90q-8 0 -14 6t-6 14v510q0 8 6 14t14 6h90zM185 604q-12 -9 -22.5 -12.5t-19.5 -3.5q-17 0 -31 6.5t-31 6.5q-10 0 -21 -4.5t-25 -16.5v41q14 12 25 16.5t21 4.5q17 0 31 -6.5t31 -6.5q9 0 19.5 3.5t22.5 12.5v-41z
" />
    <glyph glyph-name="alefhmz" unicode="&#x623;" horiz-adv-x="220" arabic-form="isolated" 
d="M155 550q8 0 14 -6t6 -14v-510q0 -8 -6 -14t-14 -6h-90q-8 0 -14 6t-6 14v510q0 8 6 14t14 6h90zM152 656q-5 4 -12.5 6.5t-14.5 2.5q-8 0 -13.5 -4t-5.5 -14q0 -8 7 -15t21 -7h38v-45h-124v45h24q-14 12 -14 31q0 23 18 36t42 13q14 0 28.5 -5.5t24.5 -13.5z" />
    <glyph glyph-name="wawhmz" unicode="&#x624;" horiz-adv-x="440" arabic-form="isolated" 
d="M94 -43q15 -6 40 -10.5t50 -4.5q16 0 30.5 2.5t25.5 9.5t18 18t7 28h-120q-42 0 -71 29t-29 71v60q0 44 15.5 76t42 53t60.5 31t71 10q42 0 84 -12.5t77 -37.5v-280q0 -45 -13.5 -78.5t-36.5 -55.5t-54 -32.5t-66 -10.5t-79.5 10t-80.5 30zM265 130v64l-18 4q-9 2 -17 2
q-23 0 -39 -10t-16 -30v-30h90zM-38 0v0v0v0zM-38 0v0v0v0v0v0zM-38 0v0v0zM-38 0v0v0zM-38 0zM-38 0zM-38 0zM-38 0v0v0v0zM-38 0v0v0v0v0v0zM-38 0v0v0v0v0v0zM-38 0v0v0v0v0zM-38 0v0v0v0zM-38 0zM-38 0zM-38 0zM-38 0zM-38 0zM-38 0zM-38 0zM262 476q-5 4 -12.5 6.5
t-14.5 2.5q-8 0 -13.5 -4t-5.5 -14q0 -8 7 -15t21 -7h38v-45h-124v45h24q-14 12 -14 31q0 23 18 36t42 13q14 0 28.5 -5.5t24.5 -13.5z" />
    <glyph glyph-name="alefhmz2" unicode="&#x625;" horiz-adv-x="220" arabic-form="isolated" 
d="M155 550q8 0 14 -6t6 -14v-510q0 -8 -6 -14t-14 -6h-90q-8 0 -14 6t-6 14v510q0 8 6 14t14 6h90zM152 -84q-5 4 -12.5 6.5t-14.5 2.5q-8 0 -13.5 -4t-5.5 -14q0 -8 7 -15t21 -7h38v-45h-124v45h24q-14 12 -14 31q0 23 18 36t42 13q14 0 28.5 -5.5t24.5 -13.5z" />
    <glyph glyph-name="yehhmz" unicode="&#x626;" horiz-adv-x="670" arabic-form="isolated" 
d="M581 264q-38 11 -71 11q-30 0 -52.5 -14t-22.5 -42v-34h110q33 0 56.5 -23.5t23.5 -56.5v-55q0 -37 -14 -70t-38.5 -57.5t-57.5 -38.5t-70 -14h-220q-37 0 -70 14t-57.5 38.5t-38.5 57.5t-14 70v125q0 8 6 14t14 6h90q8 0 14 -6t6 -14v-101q0 -14 1.5 -27.5t7 -24
t15 -16.5t26.5 -6h220q7 0 16 2.5t16.5 8.5t12.5 15.5t5 23.5v5h-130q-25 0 -42.5 17.5t-17.5 42.5v103q0 47 14.5 80.5t40 55.5t60 32t73.5 10q29 0 58 -4t59 -14zM152 376q-5 4 -12.5 6.5t-14.5 2.5q-8 0 -13.5 -4t-5.5 -14q0 -8 7 -15t21 -7h38v-45h-124v45h24
q-14 12 -14 31q0 23 18 36t42 13q14 0 28.5 -5.5t24.5 -13.5z" />
    <glyph glyph-name="beh" unicode="&#x628;" horiz-adv-x="770" arabic-form="isolated" 
d="M330 -105q0 21 16 35.5t39 14.5t39 -14.5t16 -35.5t-16 -35.5t-39 -14.5t-39 14.5t-16 35.5zM725 80q0 -33 -23.5 -56.5t-56.5 -23.5h-520q-33 0 -56.5 23.5t-23.5 56.5v230q0 8 6 14t14 6h90q8 0 14 -6t6 -14v-180h420v180q0 8 6 14t14 6h90q8 0 14 -6t6 -14v-230z" />
    <glyph glyph-name="marbuta" unicode="&#x629;" horiz-adv-x="440" arabic-form="isolated" 
d="M100 445q0 21 16 35.5t39 14.5t39 -14.5t16 -35.5t-16 -35.5t-39 -14.5t-39 14.5t-16 35.5zM230 445q0 21 16 35.5t39 14.5t39 -14.5t16 -35.5t-16 -35.5t-39 -14.5t-39 14.5t-16 35.5zM45 0v170q0 41 17 71.5t44.5 50t63 29t72.5 9.5q41 0 81 -13t72 -37v-280h-350z
M265 130v63q-18 7 -35 7q-23 0 -39 -9t-16 -26v-35h90z" />
    <glyph glyph-name="teh" unicode="&#x62a;" horiz-adv-x="770" arabic-form="isolated" 
d="M265 445q0 21 16 35.5t39 14.5t39 -14.5t16 -35.5t-16 -35.5t-39 -14.5t-39 14.5t-16 35.5zM395 445q0 21 16 35.5t39 14.5t39 -14.5t16 -35.5t-16 -35.5t-39 -14.5t-39 14.5t-16 35.5zM725 80q0 -33 -23.5 -56.5t-56.5 -23.5h-520q-33 0 -56.5 23.5t-23.5 56.5v230
q0 8 6 14t14 6h90q8 0 14 -6t6 -14v-180h420v180q0 8 6 14t14 6h90q8 0 14 -6t6 -14v-230z" />
    <glyph glyph-name="theh" unicode="&#x62b;" horiz-adv-x="770" arabic-form="isolated" 
d="M265 425q0 19 16 32t39 13t39 -13t16 -32t-16 -32t-39 -13t-39 13t-16 32zM395 425q0 19 16 32t39 13t39 -13t16 -32t-16 -32t-39 -13t-39 13t-16 32zM330 525q0 19 16 32t39 13t39 -13t16 -32t-16 -32t-39 -13t-39 13t-16 32zM725 80q0 -33 -23.5 -56.5t-56.5 -23.5
h-520q-33 0 -56.5 23.5t-23.5 56.5v230q0 8 6 14t14 6h90q8 0 14 -6t6 -14v-180h420v180q0 8 6 14t14 6h90q8 0 14 -6t6 -14v-230z" />
    <glyph glyph-name="jeem" unicode="&#x62c;" horiz-adv-x="480" arabic-form="isolated" 
d="M260 -65q0 21 16 35.5t39 14.5t39 -14.5t16 -35.5t-16 -35.5t-39 -14.5t-39 14.5t-16 35.5zM251 130q-6 18 -13 37t-17 35t-24.5 26.5t-34.5 10.5q-17 0 -32.5 -6t-29.5 -15l-30 92q27 22 61.5 36t69.5 14q45 0 74 -23.5t48.5 -58t34 -75t32.5 -73.5h50v-130h-195
q-36 0 -53 -20t-17 -43q0 -20 10.5 -33.5t27 -22t37 -12.5t41.5 -4q19 0 35.5 2t28.5 5v-105q-23 -4 -43.5 -5.5t-40.5 -1.5q-54 0 -96 14.5t-71 40t-44 59.5t-15 72q0 37 14.5 70.5t39.5 59t59.5 40t74.5 14.5h18zM-17 0v0v0v0zM-17 0v0v0v0v0v0zM-17 0v0v0zM-17 0v0v0z
M-17 0zM-17 0zM-17 0zM-17 0v0v0v0zM-17 0v0v0v0v0v0zM-17 0v0v0v0v0v0zM-17 0v0v0v0v0zM-17 0v0v0v0zM-17 0zM-17 0zM-17 0zM-17 0zM-17 0zM-17 0zM-17 0zM-5 0v0v0v0zM-5 0v0v0v0v0v0zM-5 0v0v0zM-5 0v0v0zM-5 0zM-5 0zM-5 0zM-5 0v0v0v0zM-5 0v0v0v0v0v0zM-5 0v0v0v0v0v0
zM-5 0v0v0v0v0zM-5 0v0v0v0zM-5 0zM-5 0zM-5 0zM-5 0zM-5 0zM-5 0zM-5 0z" />
    <glyph glyph-name="khah" unicode="&#x62e;" horiz-adv-x="480" arabic-form="isolated" 
d="M135 455q0 21 16 35.5t39 14.5t39 -14.5t16 -35.5t-16 -35.5t-39 -14.5t-39 14.5t-16 35.5zM251 130q-6 18 -13 37t-17 35t-24.5 26.5t-34.5 10.5q-17 0 -32.5 -6t-29.5 -15l-30 92q27 22 61.5 36t69.5 14q45 0 74 -23.5t48.5 -58t34 -75t32.5 -73.5h50v-130h-195
q-36 0 -53 -20t-17 -43q0 -20 10.5 -33.5t27 -22t37 -12.5t41.5 -4q19 0 35.5 2t28.5 5v-105q-23 -4 -43.5 -5.5t-40.5 -1.5q-54 0 -96 14.5t-71 40t-44 59.5t-15 72q0 37 14.5 70.5t39.5 59t59.5 40t74.5 14.5h18zM-17 0v0v0v0zM-17 0v0v0v0v0v0zM-17 0v0v0zM-17 0v0v0z
M-17 0zM-17 0zM-17 0zM-17 0v0v0v0zM-17 0v0v0v0v0v0zM-17 0v0v0v0v0v0zM-17 0v0v0v0v0zM-17 0v0v0v0zM-17 0zM-17 0zM-17 0zM-17 0zM-17 0zM-17 0zM-17 0zM-5 0v0v0v0zM-5 0v0v0v0v0v0zM-5 0v0v0zM-5 0v0v0zM-5 0zM-5 0zM-5 0zM-5 0v0v0v0zM-5 0v0v0v0v0v0zM-5 0v0v0v0v0v0
zM-5 0v0v0v0v0zM-5 0v0v0v0zM-5 0zM-5 0zM-5 0zM-5 0zM-5 0zM-5 0zM-5 0z" />
    <glyph glyph-name="zal" unicode="&#x630;" horiz-adv-x="410" arabic-form="isolated" 
d="M100 485q0 21 16 35.5t39 14.5t39 -14.5t16 -35.5t-16 -35.5t-39 -14.5t-39 14.5t-16 35.5zM60 350q60 20 116 20q39 0 73.5 -10.5t60 -32.5t40.5 -56t15 -81v-170q0 -8 -6 -14t-14 -6h-305v130h195v60q0 32 -22 45t-54 13q-16 0 -34 -2.5t-37 -7.5z" />
    <glyph glyph-name="zain" unicode="&#x632;" horiz-adv-x="230" arabic-form="isolated" 
d="M75 445q0 21 16 35.5t39 14.5t39 -14.5t16 -35.5t-16 -35.5t-39 -14.5t-39 14.5t-16 35.5zM65 310q0 8 6 14t14 6h90q8 0 14 -6t6 -14v-310q0 -46 -13.5 -79.5t-36.5 -55.5t-54 -32.5t-66 -10.5t-72 10.5t-73 30.5l29 93q19 -6 39.5 -10.5t40.5 -4.5q31 0 53.5 13
t22.5 46v310z" />
    <glyph glyph-name="sheen" unicode="&#x634;" horiz-adv-x="920" arabic-form="isolated" 
d="M490 425q0 19 16 32t39 13t39 -13t16 -32t-16 -32t-39 -13t-39 13t-16 32zM620 425q0 19 16 32t39 13t39 -13t16 -32t-16 -32t-39 -13t-39 13t-16 32zM555 525q0 19 16 32t39 13t39 -13t16 -32t-16 -32t-39 -13t-39 13t-16 32zM345 -10v320q0 8 6 14t14 6h90q8 0 14 -6
t6 -14v-180h70v180q0 8 6 14t14 6h90q8 0 14 -6t6 -14v-180h70v180q0 8 6 14t14 6h90q8 0 14 -6t6 -14v-230q0 -33 -23.5 -56.5t-56.5 -23.5h-320v-60q0 -33 -23.5 -56.5t-56.5 -23.5h-170q-37 0 -70 14t-57.5 38.5t-38.5 57.5t-14 70v120q0 8 6 14t14 6h90q8 0 14 -6t6 -14
v-120q0 -20 15 -35t35 -15h120z" />
    <glyph glyph-name="dad" unicode="&#x636;" horiz-adv-x="920" arabic-form="isolated" 
d="M555 445q0 21 16 35.5t39 14.5t39 -14.5t16 -35.5t-16 -35.5t-39 -14.5t-39 14.5t-16 35.5zM475 218l90 82q16 14 34 22t41 8h155q33 0 56.5 -23.5t23.5 -56.5v-170q0 -33 -23.5 -56.5t-56.5 -23.5h-320v-60q0 -33 -23.5 -56.5t-56.5 -23.5h-170q-37 0 -70 14t-57.5 38.5
t-38.5 57.5t-14 70v120q0 8 6 14t14 6h90q8 0 14 -6t6 -14v-120q0 -20 15 -35t35 -15h120v320q0 8 6 14t14 6h90q8 0 14 -6t6 -14v-92zM541 130h204v70h-113z" />
    <glyph glyph-name="zah" unicode="&#x638;" horiz-adv-x="700" arabic-form="isolated" 
d="M405 445q0 21 16 35.5t39 14.5t39 -14.5t16 -35.5t-16 -35.5t-39 -14.5t-39 14.5t-16 35.5zM50 100q0 13 8.5 21.5t21.5 8.5h45v400q0 8 6 14t14 6h90q8 0 14 -6t6 -14v-278l53 48q16 14 34 22t41 8h192q33 0 56.5 -23.5t23.5 -56.5v-170q0 -33 -23.5 -56.5t-56.5 -23.5
h-495q-13 0 -21.5 8.5t-8.5 21.5v70zM284 130h241v70h-151z" />
    <glyph glyph-name="ghain" unicode="&#x63a;" horiz-adv-x="450" arabic-form="isolated" 
d="M185 445q0 21 16 35.5t39 14.5t39 -14.5t16 -35.5t-16 -35.5t-39 -14.5t-39 14.5t-16 35.5zM341 212q-14 7 -37.5 13.5t-45.5 6.5q-26 0 -40.5 -12.5t-14.5 -32.5q0 -22 18.5 -43t49.5 -21h134l-27 -123h-125q-36 0 -57 -20t-21 -43q0 -19 10 -32t26.5 -20.5t37 -10.5
t40.5 -3q40 0 66 8v-108q-23 -4 -43.5 -5.5t-40.5 -1.5q-54 0 -96 14t-71 38.5t-44 58t-15 71.5q0 47 21 86t57 64q-26 24 -38 51.5t-12 56.5q0 36 14 63t37.5 45t54.5 27t65 9q38 0 74.5 -11t68.5 -33z" />
    <glyph glyph-name="feh" unicode="&#x641;" horiz-adv-x="850" arabic-form="isolated" 
d="M576 445q0 21 16 35.5t39 14.5t39 -14.5t16 -35.5t-16 -35.5t-39 -14.5t-39 14.5t-16 35.5zM675 130v70h-54q-20 0 -33 -10t-13 -25q0 -14 13.5 -24.5t32.5 -10.5h54zM720 330q33 0 56.5 -23.5t23.5 -56.5v-230q0 -8 -6 -14t-14 -6h-650q-33 0 -56.5 23.5t-23.5 56.5v230
q0 8 6 14t14 6h90q8 0 14 -6t6 -14v-180h282q-17 36 -17 67q0 27 12 51.5t33.5 42.5t52 28.5t67.5 10.5h110z" />
    <glyph glyph-name="qaf" unicode="&#x642;" horiz-adv-x="640" arabic-form="isolated" 
d="M300 485q0 21 16 35.5t39 14.5t39 -14.5t16 -35.5t-16 -35.5t-39 -14.5t-39 14.5t-16 35.5zM430 485q0 21 16 35.5t39 14.5t39 -14.5t16 -35.5t-16 -35.5t-39 -14.5t-39 14.5t-16 35.5zM415 -10q21 0 35.5 15t14.5 35h-125q-40 0 -67.5 27.5t-27.5 67.5v70q0 43 16 74
t42.5 51t61 30t71.5 10q42 0 83.5 -12t75.5 -35v-283q0 -37 -14 -70t-38.5 -57.5t-57.5 -38.5t-70 -14h-190q-37 0 -70 14t-57.5 38.5t-38.5 57.5t-14 70v155q0 8 6 14t14 6h90q8 0 14 -6t6 -14v-155q0 -20 15 -35t35 -15h190zM465 170v63q-18 7 -35 7q-23 0 -39 -9t-16 -26
v-35h90z" />
    <glyph glyph-name="noon" unicode="&#x646;" horiz-adv-x="520" arabic-form="isolated" 
d="M205 445q0 21 16 35.5t39 14.5t39 -14.5t16 -35.5t-16 -35.5t-39 -14.5t-39 14.5t-16 35.5zM475 -20q0 -33 -23.5 -56.5t-56.5 -23.5h-170q-37 0 -70 14t-57.5 38.5t-38.5 57.5t-14 70v130q0 8 6 14t14 6h90q8 0 14 -6t6 -14v-130q0 -20 15 -35t35 -15h120v280q0 8 6 14
t14 6h90q8 0 14 -6t6 -14v-330zM28 0v0v0v0zM28 0v0v0v0v0v0zM28 0v0v0zM28 0v0v0zM28 0zM28 0zM28 0zM28 0v0v0v0zM28 0v0v0v0v0v0zM28 0v0v0v0v0v0zM28 0v0v0v0v0zM28 0v0v0v0zM28 0zM28 0zM28 0zM28 0zM28 0zM28 0zM28 0zM28 0v0v0v0zM28 0v0v0v0v0v0zM28 0v0v0zM28 0v0
v0zM28 0zM28 0zM28 0zM28 0v0v0v0zM28 0v0v0v0v0v0zM28 0v0v0v0v0v0zM28 0v0v0v0v0zM28 0v0v0v0zM28 0zM28 0zM28 0zM28 0zM28 0zM28 0zM28 0z" />
    <glyph glyph-name="yeh" unicode="&#x64a;" horiz-adv-x="670" arabic-form="isolated" 
d="M215 -230.5q0 18.5 16 32t39 13.5t39 -13.5t16 -32t-16 -32t-39 -13.5t-39 13.5t-16 32zM345 -230.5q0 18.5 16 32t39 13.5t39 -13.5t16 -32t-16 -32t-39 -13.5t-39 13.5t-16 32zM581 264q-38 11 -71 11q-30 0 -52.5 -14t-22.5 -42v-34h110q33 0 56.5 -23.5t23.5 -56.5
v-55q0 -37 -14 -70t-38.5 -57.5t-57.5 -38.5t-70 -14h-220q-37 0 -70 14t-57.5 38.5t-38.5 57.5t-14 70v125q0 8 6 14t14 6h90q8 0 14 -6t6 -14v-101q0 -14 1.5 -27.5t7 -24t15 -16.5t26.5 -6h220q7 0 16 2.5t16.5 8.5t12.5 15.5t5 23.5v5h-130q-25 0 -42.5 17.5t-17.5 42.5
v103q0 47 14.5 80.5t40 55.5t60 32t73.5 10q29 0 58 -4t59 -14z" />
    <glyph glyph-name="sennan" unicode="&#x66e;" horiz-adv-x="260" 
d="M-30 100q0 13 8.5 21.5t21.5 8.5h85v180q0 8 6 14t14 6h90q8 0 14 -6t6 -14v-230q0 -33 -23.5 -56.5t-56.5 -23.5h-135q-13 0 -21.5 8.5t-8.5 21.5v70z" />
    <glyph glyph-name="sennam" unicode="&#x66e;" horiz-adv-x="300" 
d="M-30 100q0 13 8.5 21.5t21.5 8.5h85v180q0 8 6 14t14 6h90q8 0 14 -6t6 -14v-180h85v-130h-300q-13 0 -21.5 8.5t-8.5 21.5v70z" />
    <glyph glyph-name="behfc" unicode="&#x66e;" horiz-adv-x="770" 
d="M725 130h45v-130h-645q-33 0 -56.5 23.5t-23.5 56.5v230q0 8 6 14t14 6h90q8 0 14 -6t6 -14v-180h420v180q0 8 6 14t14 6h90q8 0 14 -6t6 -14v-180z" />
    <glyph glyph-name="uni066F.init" unicode="&#x66f;" horiz-adv-x="450" 
d="M-30 100q0 13 8.5 21.5t21.5 8.5h62q-9 19 -13 36.5t-4 32.5q0 30 13 54t35 41.5t50.5 26.5t59.5 9h122q33 0 56.5 -23.5t23.5 -56.5v-230q0 -8 -6 -14t-14 -6h-385q-13 0 -21.5 8.5t-8.5 21.5v70zM221 200q-20 0 -33 -10t-13 -25q0 -14 13 -24.5t33 -10.5h54v70h-54z
" />
    <glyph glyph-name="uni066F.medi" unicode="&#x66f;" horiz-adv-x="450" 
d="M-30 100q0 13 8.5 21.5t21.5 8.5h62q-9 19 -13 36.5t-4 32.5q0 30 13 54t35 41.5t50.5 26.5t59.5 9h122q33 0 56.5 -23.5t23.5 -56.5v-120h45v-130h-450q-13 0 -21.5 8.5t-8.5 21.5v70zM221 200q-20 0 -33 -10t-13 -25q0 -14 13 -24.5t33 -10.5h54v70h-54z" />
    <glyph glyph-name="qaffc" unicode="&#x66f;" horiz-adv-x="640" 
d="M415 -50q21 0 35.5 15t14.5 35h-125q-40 0 -67.5 27.5t-27.5 67.5v70q0 43 16 74t42.5 51t61 30t71.5 10q42 0 83.5 -12t75.5 -35v-153h45v-130h-45q0 -37 -14 -70t-38.5 -57.5t-57.5 -38.5t-70 -14h-190q-37 0 -70 14t-57.5 38.5t-38.5 57.5t-14 70v155q0 8 6 14t14 6
h90q8 0 14 -6t6 -14v-155q0 -20 15 -35t35 -15h190zM465 130v63q-18 7 -35 7q-23 0 -39 -9t-16 -26v-35h90z" />
    <glyph glyph-name="wasl" unicode="&#x671;" horiz-adv-x="220" arabic-form="isolated" 
d="M155 550q8 0 14 -6t6 -14v-510q0 -8 -6 -14t-14 -6h-90q-8 0 -14 6t-6 14v510q0 8 6 14t14 6h90zM35 613h15v47q0 6 5 6h21q5 0 5.5 -2t0.5 -4v-15l12 12q8 8 19 8h44q8 0 14 -6.5t6 -15.5v-43q0 -8 -6 -14t-14 -6h-122v33zM88 613h57v20h-37z" />
    <glyph glyph-name="uni0679" unicode="&#x679;" horiz-adv-x="770" arabic-form="isolated" 
d="M725 80q0 -33 -23.5 -56.5t-56.5 -23.5h-520q-33 0 -56.5 23.5t-23.5 56.5v230q0 8 6 14t14 6h90q8 0 14 -6t6 -14v-180h420v180q0 8 6 14t14 6h90q8 0 14 -6t6 -14v-230zM320 433h15v107h32v-75l12 12q8 8 19 8h44q8 0 14 -6.5t6 -15.5v-43q0 -8 -6 -14t-14 -6h-122v33z
M373 433h57v20h-37z" />
    <glyph glyph-name="uni067E" unicode="&#x67e;" horiz-adv-x="770" arabic-form="isolated" 
d="M265 -95q0 19 16 32t39 13t39 -13t16 -32t-16 -32t-39 -13t-39 13t-16 32zM395 -95q0 19 16 32t39 13t39 -13t16 -32t-16 -32t-39 -13t-39 13t-16 32zM330 -195q0 19 16 32t39 13t39 -13t16 -32t-16 -32t-39 -13t-39 13t-16 32zM725 80q0 -33 -23.5 -56.5t-56.5 -23.5
h-520q-33 0 -56.5 23.5t-23.5 56.5v230q0 8 6 14t14 6h90q8 0 14 -6t6 -14v-180h420v180q0 8 6 14t14 6h90q8 0 14 -6t6 -14v-230z" />
    <glyph glyph-name="uni0686" unicode="&#x686;" horiz-adv-x="490" arabic-form="isolated" 
d="M269 -127v-32q0 -12 0.5 -22.5t0.5 -22.5v-32q-54 0 -96 14.5t-70.5 39t-43.5 58t-15 72.5q0 37 14.5 70t39.5 58t59.5 39.5t74.5 14.5h19q-6 18 -13 37t-17.5 35t-25 26.5t-34.5 10.5q-17 0 -32.5 -6t-29.5 -15l-30 92q27 22 61.5 36t69.5 14q44 0 73 -23.5t49 -58
t35 -75t32 -73.5h50v-130h-185q-37 0 -58.5 -19.5t-21.5 -43.5q0 -17 8 -28.5t21 -19t30 -11.5t35 -5zM234 -65q0 19 14.5 32t34.5 13t35 -13t15 -32t-15 -32t-35 -13t-34.5 13t-14.5 32zM351 -65q0 19 14.5 32t34.5 13t35 -13t15 -32t-15 -32t-35 -13t-34.5 13t-14.5 32z
M292 -165q0 19 15 32t35 13t34.5 -13t14.5 -32t-14.5 -32t-34.5 -13t-35 13t-15 32z" />
    <glyph glyph-name="uni0688" unicode="&#x688;" horiz-adv-x="410" arabic-form="isolated" 
d="M60 350q60 20 116 20q39 0 73.5 -10.5t60 -32.5t40.5 -56t15 -81v-170q0 -8 -6 -14t-14 -6h-305v130h195v60q0 32 -22 45t-54 13q-16 0 -34 -2.5t-37 -7.5zM95 463h15v107h32v-75l12 12q8 8 19 8h44q8 0 14 -6.5t6 -15.5v-43q0 -8 -6 -14t-14 -6h-122v33zM148 463h57v20
h-37z" />
    <glyph glyph-name="uni0691" unicode="&#x691;" horiz-adv-x="230" arabic-form="isolated" 
d="M65 310q0 8 6 14t14 6h90q8 0 14 -6t6 -14v-310q0 -46 -13.5 -79.5t-36.5 -55.5t-54 -32.5t-66 -10.5t-72 10.5t-73 30.5l29 93q19 -6 39.5 -10.5t40.5 -4.5q31 0 53.5 13t22.5 46v310zM39 433h15v107h32v-75l12 12q8 8 19 8h44q8 0 14 -6.5t6 -15.5v-43q0 -8 -6 -14
t-14 -6h-122v33zM92 433h57v20h-37z" />
    <glyph glyph-name="uni0698" unicode="&#x698;" horiz-adv-x="230" arabic-form="isolated" 
d="M7 425q0 19 14.5 32t35 13t35 -13t14.5 -32t-14.5 -32t-35 -13t-35 13t-14.5 32zM124 425q0 19 14.5 32t35 13t35 -13t14.5 -32t-14.5 -32t-35 -13t-35 13t-14.5 32zM65.5 525q0.5 19 14.5 32t35 13t35.5 -13t14.5 -32t-14.5 -32t-35.5 -13t-35.5 13t-14 32zM65 310
q0 8 6 14t14 6h90q8 0 14 -6t6 -14v-310q0 -46 -13.5 -79.5t-36.5 -55.5t-54 -32.5t-66 -10.5t-72 10.5t-73 30.5l29 93q19 -6 39.5 -10.5t40.5 -4.5q31 0 53.5 13t22.5 46v310z" />
    <glyph glyph-name="uni069C.init" unicode="&#x69c;" horiz-adv-x="660" 
d="M230 425q0 19 16 32t39 13t39 -13t16 -32t-16 -32t-39 -13t-39 13t-16 32zM360 425q0 19 16 32t39 13t39 -13t16 -32t-16 -32t-39 -13t-39 13t-16 32zM295 525q0 19 16 32t39 13t39 -13t16 -32t-16 -32t-39 -13t-39 13t-16 32zM230 -95q0 19 16 32t39 13t39 -13t16 -32
t-16 -32t-39 -13t-39 13t-16 32zM360 -95q0 19 16 32t39 13t39 -13t16 -32t-16 -32t-39 -13t-39 13t-16 32zM295 -195q0 19 16 32t39 13t39 -13t16 -32t-16 -32t-39 -13t-39 13t-16 32zM85 130v180q0 8 6 14t14 6h90q8 0 14 -6t6 -14v-180h70v180q0 8 6 14t14 6h90
q8 0 14 -6t6 -14v-180h70v180q0 8 6 14t14 6h90q8 0 14 -6t6 -14v-230q0 -33 -23.5 -56.5t-56.5 -23.5h-535q-13 0 -21.5 8.5t-8.5 21.5v70q0 13 8.5 21.5t21.5 8.5h85z" />
    <glyph glyph-name="uni069C.medi" unicode="&#x69c;" horiz-adv-x="700" 
d="M230 425q0 19 16 32t39 13t39 -13t16 -32t-16 -32t-39 -13t-39 13t-16 32zM360 425q0 19 16 32t39 13t39 -13t16 -32t-16 -32t-39 -13t-39 13t-16 32zM295 525q0 19 16 32t39 13t39 -13t16 -32t-16 -32t-39 -13t-39 13t-16 32zM230 -95q0 19 16 32t39 13t39 -13t16 -32
t-16 -32t-39 -13t-39 13t-16 32zM360 -95q0 19 16 32t39 13t39 -13t16 -32t-16 -32t-39 -13t-39 13t-16 32zM295 -195q0 19 16 32t39 13t39 -13t16 -32t-16 -32t-39 -13t-39 13t-16 32zM0 0q-13 0 -21.5 8.5t-8.5 21.5v70q0 13 8.5 21.5t21.5 8.5h85v180q0 8 6 14t14 6h90
q8 0 14 -6t6 -14v-180h70v180q0 8 6 14t14 6h90q8 0 14 -6t6 -14v-180h70v180q0 8 6 14t14 6h90q8 0 14 -6t6 -14v-180h85v-130h-700z" />
    <glyph glyph-name="uni069C.fina" unicode="&#x69c;" horiz-adv-x="960" 
d="M490 425q0 19 16 32t39 13t39 -13t16 -32t-16 -32t-39 -13t-39 13t-16 32zM620 425q0 19 16 32t39 13t39 -13t16 -32t-16 -32t-39 -13t-39 13t-16 32zM555 525q0 19 16 32t39 13t39 -13t16 -32t-16 -32t-39 -13t-39 13t-16 32zM538 -95q0 19 16 32t39 13t39 -13t16 -32
t-16 -32t-39 -13t-39 13t-16 32zM668 -95q0 19 16 32t39 13t39 -13t16 -32t-16 -32t-39 -13t-39 13t-16 32zM603 -195q0 19 16 32t39 13t39 -13t16 -32t-16 -32t-39 -13t-39 13t-16 32zM475 -60q0 -33 -23.5 -56.5t-56.5 -23.5h-170q-37 0 -70 14t-57.5 38.5t-38.5 57.5
t-14 70v120q0 8 6 14t14 6h90q8 0 14 -6t6 -14v-120q0 -20 15 -35t35 -15h120v320q0 8 6 14t14 6h90q8 0 14 -6t6 -14v-180h70v180q0 8 6 14t14 6h90q8 0 14 -6t6 -14v-180h70v180q0 8 6 14t14 6h90q8 0 14 -6t6 -14v-180h85v-130h-485v-60z" />
    <glyph glyph-name="fehnc" unicode="&#x6a1;" horiz-adv-x="450" 
d="M-30 100q0 13 8.5 21.5t21.5 8.5h62q-9 19 -13 36.5t-4 32.5q0 30 13 54t35 41.5t50.5 26.5t59.5 9h122q33 0 56.5 -23.5t23.5 -56.5v-230q0 -8 -6 -14t-14 -6h-385q-13 0 -21.5 8.5t-8.5 21.5v70zM221 200q-20 0 -33 -10t-13 -25q0 -14 13 -24.5t33 -10.5h54v70h-54z
" />
    <glyph glyph-name="fehmc" unicode="&#x6a1;" horiz-adv-x="450" 
d="M-30 100q0 13 8.5 21.5t21.5 8.5h62q-9 19 -13 36.5t-4 32.5q0 30 13 54t35 41.5t50.5 26.5t59.5 9h122q33 0 56.5 -23.5t23.5 -56.5v-120h45v-130h-450q-13 0 -21.5 8.5t-8.5 21.5v70zM221 200q-20 0 -33 -10t-13 -25q0 -14 13 -24.5t33 -10.5h54v70h-54z" />
    <glyph glyph-name="fehfc" unicode="&#x6a1;" horiz-adv-x="850" 
d="M720 330q33 0 56.5 -23.5t23.5 -56.5v-120h50v-130h-720q-33 0 -56.5 23.5t-23.5 56.5v230q0 8 6 14t14 6h90q8 0 14 -6t6 -14v-180h282q-17 36 -17 67q0 27 12 51.5t33.5 42.5t52 28.5t67.5 10.5h110zM675 130v70h-54q-20 0 -33 -10t-13 -25q0 -14 13.5 -24.5
t32.5 -10.5h54z" />
    <glyph glyph-name="uni06A2.init" unicode="&#x6a2;" horiz-adv-x="450" 
d="M170 -105q0 21 16 35.5t39 14.5t39 -14.5t16 -35.5t-16 -35.5t-39 -14.5t-39 14.5t-16 35.5zM-30 100q0 13 8.5 21.5t21.5 8.5h62q-9 19 -13 36.5t-4 32.5q0 30 13 54t35 41.5t50.5 26.5t59.5 9h122q33 0 56.5 -23.5t23.5 -56.5v-230q0 -8 -6 -14t-14 -6h-385
q-13 0 -21.5 8.5t-8.5 21.5v70zM221 200q-20 0 -33 -10t-13 -25q0 -14 13 -24.5t33 -10.5h54v70h-54z" />
    <glyph glyph-name="uni06A2.medi" unicode="&#x6a2;" horiz-adv-x="450" 
d="M170 -105q0 21 16 35.5t39 14.5t39 -14.5t16 -35.5t-16 -35.5t-39 -14.5t-39 14.5t-16 35.5zM-30 100q0 13 8.5 21.5t21.5 8.5h62q-9 19 -13 36.5t-4 32.5q0 30 13 54t35 41.5t50.5 26.5t59.5 9h122q33 0 56.5 -23.5t23.5 -56.5v-120h45v-130h-450q-13 0 -21.5 8.5
t-8.5 21.5v70zM221 200q-20 0 -33 -10t-13 -25q0 -14 13 -24.5t33 -10.5h54v70h-54z" />
    <glyph glyph-name="uni06A2.fina" unicode="&#x6a2;" horiz-adv-x="850" 
d="M575 -105q0 21 16 35.5t39 14.5t39 -14.5t16 -35.5t-16 -35.5t-39 -14.5t-39 14.5t-16 35.5zM720 330q33 0 56.5 -23.5t23.5 -56.5v-120h50v-130h-720q-33 0 -56.5 23.5t-23.5 56.5v230q0 8 6 14t14 6h90q8 0 14 -6t6 -14v-180h282q-17 36 -17 67q0 27 12 51.5t33.5 42.5
t52 28.5t67.5 10.5h110zM675 130v70h-54q-20 0 -33 -10t-13 -25q0 -14 13.5 -24.5t32.5 -10.5h54z" />
    <glyph glyph-name="uni06A4" unicode="&#x6a4;" horiz-adv-x="850" arabic-form="isolated" 
d="M510 425q0 19 16 32t39 13t39 -13t16 -32t-16 -32t-39 -13t-39 13t-16 32zM640 425q0 19 16 32t39 13t39 -13t16 -32t-16 -32t-39 -13t-39 13t-16 32zM575 525q0 19 16 32t39 13t39 -13t16 -32t-16 -32t-39 -13t-39 13t-16 32zM675 130v70h-54q-20 0 -33 -10t-13 -25
q0 -14 13.5 -24.5t32.5 -10.5h54zM720 330q33 0 56.5 -23.5t23.5 -56.5v-230q0 -8 -6 -14t-14 -6h-650q-33 0 -56.5 23.5t-23.5 56.5v230q0 8 6 14t14 6h90q8 0 14 -6t6 -14v-180h282q-17 36 -17 67q0 27 12 51.5t33.5 42.5t52 28.5t67.5 10.5h110z" />
    <glyph glyph-name="uni06A5.init" unicode="&#x6a5;" horiz-adv-x="450" 
d="M110 -95q0 19 16 32t39 13t39 -13t16 -32t-16 -32t-39 -13t-39 13t-16 32zM240 -95q0 19 16 32t39 13t39 -13t16 -32t-16 -32t-39 -13t-39 13t-16 32zM175 -195q0 19 16 32t39 13t39 -13t16 -32t-16 -32t-39 -13t-39 13t-16 32zM-30 100q0 13 8.5 21.5t21.5 8.5h62
q-9 19 -13 36.5t-4 32.5q0 30 13 54t35 41.5t50.5 26.5t59.5 9h122q33 0 56.5 -23.5t23.5 -56.5v-230q0 -8 -6 -14t-14 -6h-385q-13 0 -21.5 8.5t-8.5 21.5v70zM221 200q-20 0 -33 -10t-13 -25q0 -14 13 -24.5t33 -10.5h54v70h-54z" />
    <glyph glyph-name="uni06A5.medi" unicode="&#x6a5;" horiz-adv-x="450" 
d="M110 -95q0 19 16 32t39 13t39 -13t16 -32t-16 -32t-39 -13t-39 13t-16 32zM240 -95q0 19 16 32t39 13t39 -13t16 -32t-16 -32t-39 -13t-39 13t-16 32zM175 -195q0 19 16 32t39 13t39 -13t16 -32t-16 -32t-39 -13t-39 13t-16 32zM-30 100q0 13 8.5 21.5t21.5 8.5h62
q-9 19 -13 36.5t-4 32.5q0 30 13 54t35 41.5t50.5 26.5t59.5 9h122q33 0 56.5 -23.5t23.5 -56.5v-120h45v-130h-450q-13 0 -21.5 8.5t-8.5 21.5v70zM221 200q-20 0 -33 -10t-13 -25q0 -14 13 -24.5t33 -10.5h54v70h-54z" />
    <glyph glyph-name="uni06A5.fina" unicode="&#x6a5;" horiz-adv-x="850" 
d="M510 -95q0 19 16 32t39 13t39 -13t16 -32t-16 -32t-39 -13t-39 13t-16 32zM640 -95q0 19 16 32t39 13t39 -13t16 -32t-16 -32t-39 -13t-39 13t-16 32zM575 -195q0 19 16 32t39 13t39 -13t16 -32t-16 -32t-39 -13t-39 13t-16 32zM720 330q33 0 56.5 -23.5t23.5 -56.5v-120
h50v-130h-720q-33 0 -56.5 23.5t-23.5 56.5v230q0 8 6 14t14 6h90q8 0 14 -6t6 -14v-180h282q-17 36 -17 67q0 27 12 51.5t33.5 42.5t52 28.5t67.5 10.5h110zM675 130v70h-54q-20 0 -33 -10t-13 -25q0 -14 13.5 -24.5t32.5 -10.5h54z" />
    <glyph glyph-name="uni06A7.fina" unicode="&#x6a7;" horiz-adv-x="640" 
d="M365 445q0 21 16 35.5t39 14.5t39 -14.5t16 -35.5t-16 -35.5t-39 -14.5t-39 14.5t-16 35.5zM415 -50q21 0 35.5 15t14.5 35h-125q-40 0 -67.5 27.5t-27.5 67.5v70q0 43 16 74t42.5 51t61 30t71.5 10q42 0 83.5 -12t75.5 -35v-153h45v-130h-45q0 -37 -14 -70t-38.5 -57.5
t-57.5 -38.5t-70 -14h-190q-37 0 -70 14t-57.5 38.5t-38.5 57.5t-14 70v155q0 8 6 14t14 6h90q8 0 14 -6t6 -14v-155q0 -20 15 -35t35 -15h190zM465 130v63q-18 7 -35 7q-23 0 -39 -9t-16 -26v-35h90z" />
    <glyph glyph-name="uni06A8.fina" unicode="&#x6a8;" horiz-adv-x="640" 
d="M300 425q0 19 16 32t39 13t39 -13t16 -32t-16 -32t-39 -13t-39 13t-16 32zM430 425q0 19 16 32t39 13t39 -13t16 -32t-16 -32t-39 -13t-39 13t-16 32zM365 525q0 19 16 32t39 13t39 -13t16 -32t-16 -32t-39 -13t-39 13t-16 32zM415 -50q21 0 35.5 15t14.5 35h-125
q-40 0 -67.5 27.5t-27.5 67.5v70q0 43 16 74t42.5 51t61 30t71.5 10q42 0 83.5 -12t75.5 -35v-153h45v-130h-45q0 -37 -14 -70t-38.5 -57.5t-57.5 -38.5t-70 -14h-190q-37 0 -70 14t-57.5 38.5t-38.5 57.5t-14 70v155q0 8 6 14t14 6h90q8 0 14 -6t6 -14v-155q0 -20 15 -35
t35 -15h190zM465 130v63q-18 7 -35 7q-23 0 -39 -9t-16 -26v-35h90z" />
    <glyph glyph-name="uni06A9" unicode="&#x6a9;" horiz-adv-x="920" arabic-form="isolated" 
d="M125 0q-33 0 -56.5 23.5t-23.5 56.5v215q0 8 6 14t14 6h90q8 0 14 -6t6 -14v-165h570v55h-413v130l250 251l92 -92l-159 -159h280q33 0 56.5 -23.5t23.5 -56.5v-155q0 -33 -23.5 -56.5t-56.5 -23.5h-670z" />
    <glyph glyph-name="uni06AF" unicode="&#x6af;" horiz-adv-x="920" arabic-form="isolated" 
d="M125 0q-33 0 -56.5 23.5t-23.5 56.5v215q0 8 6 14t14 6h90q8 0 14 -6t6 -14v-165h570v55h-413v130l250 251l92 -92l-159 -159h280q33 0 56.5 -23.5t23.5 -56.5v-155q0 -33 -23.5 -56.5t-56.5 -23.5h-670zM542 608l-244 -244l-37 51l237 237z" />
    <glyph glyph-name="uni06BA.init" unicode="&#x6ba;" horiz-adv-x="260" 
d="M95 445q0 21 16 35.5t39 14.5t39 -14.5t16 -35.5t-16 -35.5t-39 -14.5t-39 14.5t-16 35.5zM-30 100q0 13 8.5 21.5t21.5 8.5h85v180q0 8 6 14t14 6h90q8 0 14 -6t6 -14v-230q0 -33 -23.5 -56.5t-56.5 -23.5h-135q-13 0 -21.5 8.5t-8.5 21.5v70z" />
    <glyph glyph-name="uni06BA.medi" unicode="&#x6ba;" horiz-adv-x="300" 
d="M95 445q0 21 16 35.5t39 14.5t39 -14.5t16 -35.5t-16 -35.5t-39 -14.5t-39 14.5t-16 35.5zM-30 100q0 13 8.5 21.5t21.5 8.5h85v180q0 8 6 14t14 6h90q8 0 14 -6t6 -14v-180h85v-130h-300q-13 0 -21.5 8.5t-8.5 21.5v70z" />
    <glyph glyph-name="uni06BE" unicode="&#x6be;" horiz-adv-x="640" arabic-form="isolated" 
d="M20 100q0 13 8.5 21.5t21.5 8.5h52q-17 27 -17 63q0 28 12 52.5t33.5 43.5t51 30t64.5 11h59l-15 60q29 10 59 14.5t57 4.5q39 0 73.5 -10.5t60 -32t40.5 -55.5t15 -81v-210q0 -8 -6 -14t-14 -6h-525q-13 0 -21.5 8.5t-8.5 21.5v70zM465 230q0 30 -19.5 42.5t-49.5 13.5
q12 -17 12 -36v-120h57v100zM285 130v70h-32q-18 0 -28 -10.5t-10 -24.5t10 -24.5t28 -10.5h32z" />
    <glyph glyph-name="uni06C0" unicode="&#x6c0;" horiz-adv-x="440" arabic-form="isolated" 
d="M45 0v170q0 41 17 71.5t44.5 50t63 29t72.5 9.5q41 0 81 -13t72 -37v-280h-350zM265 130v63q-18 7 -35 7q-23 0 -39 -9t-16 -26v-35h90zM262 476q-5 4 -12.5 6.5t-14.5 2.5q-8 0 -13.5 -4t-5.5 -14q0 -8 7 -15t21 -7h38v-45h-124v45h24q-14 12 -14 31q0 23 18 36t42 13
q14 0 28.5 -5.5t24.5 -13.5z" />
    <glyph glyph-name="uni06C1" unicode="&#x6c1;" horiz-adv-x="440" arabic-form="isolated" 
d="M45 0v170q0 41 17 71.5t44.5 50t63 29t72.5 9.5q41 0 81 -13t72 -37v-280h-350zM265 130v63q-18 7 -35 7q-23 0 -39 -9t-16 -26v-35h90z" />
    <glyph glyph-name="uni06C2.fina" unicode="&#x6c2;" horiz-adv-x="500" 
d="M339 476q-5 4 -12.5 6.5t-14.5 2.5q-8 0 -13.5 -4t-5.5 -14q0 -8 7 -15t21 -7h38v-45h-124v45h24q-14 12 -14 31q0 23 18 36t42 13q14 0 28.5 -5.5t24.5 -13.5zM405 0q-33 0 -56.5 23.5t-23.5 56.5v120h-60l-72 -180q-3 -8 -11.5 -14t-17.5 -6h-119l106 266
q11 29 36.5 46.5t57.5 17.5h190q8 0 14 -6t6 -14v-180h45v-130h-95z" />
    <glyph glyph-name="uni06C3.fina" unicode="&#x6c3;" horiz-adv-x="500" 
d="M178 445q0 21 16 35.5t39 14.5t39 -14.5t16 -35.5t-16 -35.5t-39 -14.5t-39 14.5t-16 35.5zM308 445q0 21 16 35.5t39 14.5t39 -14.5t16 -35.5t-16 -35.5t-39 -14.5t-39 14.5t-16 35.5zM405 0q-33 0 -56.5 23.5t-23.5 56.5v120h-60l-72 -180q-3 -8 -11.5 -14t-17.5 -6
h-119l106 266q11 29 36.5 46.5t57.5 17.5h190q8 0 14 -6t6 -14v-180h45v-130h-95z" />
    <glyph glyph-name="uni06CC" unicode="&#x6cc;" horiz-adv-x="670" arabic-form="isolated" 
d="M581 264q-38 11 -71 11q-30 0 -52.5 -14t-22.5 -42v-34h110q33 0 56.5 -23.5t23.5 -56.5v-55q0 -37 -14 -70t-38.5 -57.5t-57.5 -38.5t-70 -14h-220q-37 0 -70 14t-57.5 38.5t-38.5 57.5t-14 70v125q0 8 6 14t14 6h90q8 0 14 -6t6 -14v-101q0 -14 1.5 -27.5t7 -24
t15 -16.5t26.5 -6h220q7 0 16 2.5t16.5 8.5t12.5 15.5t5 23.5v5h-130q-25 0 -42.5 17.5t-17.5 42.5v103q0 47 14.5 80.5t40 55.5t60 32t73.5 10q29 0 58 -4t59 -14z" />
    <glyph glyph-name="uni06D2" unicode="&#x6d2;" horiz-adv-x="620" arabic-form="isolated" 
d="M570 20q0 -8 -6 -14t-14 -6h-340q-17 0 -28.5 -11.5t-11.5 -28.5v-20h210q27 0 50.5 -10t41.5 -28t28 -41.5t10 -50.5h-380q-33 0 -56.5 23.5t-23.5 56.5v80q0 33 12.5 62t34.5 51t51 34.5t62 12.5h230v100q27 0 50.5 -10t41.5 -28t28 -41.5t10 -50.5v-80z" />
    <glyph glyph-name="uni06D3" unicode="&#x6d3;" horiz-adv-x="620" arabic-form="isolated" 
d="M302 316q-5 4 -12.5 6.5t-14.5 2.5q-8 0 -13.5 -4t-5.5 -14q0 -8 7 -15t21 -7h38v-45h-124v45h24q-14 12 -14 31q0 23 18 36t42 13q14 0 28.5 -5.5t24.5 -13.5zM570 20q0 -8 -6 -14t-14 -6h-340q-17 0 -28.5 -11.5t-11.5 -28.5v-20h210q27 0 50.5 -10t41.5 -28t28 -41.5
t10 -50.5h-380q-33 0 -56.5 23.5t-23.5 56.5v80q0 33 12.5 62t34.5 51t51 34.5t62 12.5h230v100q27 0 50.5 -10t41.5 -28t28 -41.5t10 -50.5v-80z" />
    <glyph glyph-name="uni06D5.fina" unicode="&#x6d5;" horiz-adv-x="460" 
d="M460 0h-315q-54 0 -77 20.5t-23 52.5q0 24 12 54l55 139q11 28 36 46t57 18h190q8 0 14 -6t6 -14v-180h45v-130zM285 130v70h-60l-27 -70h87z" />
    <glyph glyph-name="waslf" unicode="&#x671;" horiz-adv-x="220" arabic-form="final" 
d="M155 550q8 0 14 -6t6 -14v-400h45v-130h-155q-8 0 -14 6t-6 14v510q0 8 6 14t14 6h90zM35 613h15v47q0 6 5 6h21q5 0 5.5 -2t0.5 -4v-15l12 12q8 8 19 8h44q8 0 14 -6.5t6 -15.5v-43q0 -8 -6 -14t-14 -6h-122v33zM88 613h57v20h-37z" />
    <glyph glyph-name="uni067E.fina" unicode="&#x67e;" horiz-adv-x="770" arabic-form="final" 
d="M265 -95q0 19 16 32t39 13t39 -13t16 -32t-16 -32t-39 -13t-39 13t-16 32zM395 -95q0 19 16 32t39 13t39 -13t16 -32t-16 -32t-39 -13t-39 13t-16 32zM330 -195q0 19 16 32t39 13t39 -13t16 -32t-16 -32t-39 -13t-39 13t-16 32zM725 130h45v-130h-645q-33 0 -56.5 23.5
t-23.5 56.5v230q0 8 6 14t14 6h90q8 0 14 -6t6 -14v-180h420v180q0 8 6 14t14 6h90q8 0 14 -6t6 -14v-180z" />
    <glyph glyph-name="uni067E.init" unicode="&#x67e;" horiz-adv-x="260" arabic-form="initial" 
d="M-20 -95q0 19 16 32t39 13t39 -13t16 -32t-16 -32t-39 -13t-39 13t-16 32zM110 -95q0 19 16 32t39 13t39 -13t16 -32t-16 -32t-39 -13t-39 13t-16 32zM45 -195q0 19 16 32t39 13t39 -13t16 -32t-16 -32t-39 -13t-39 13t-16 32zM-30 100q0 13 8.5 21.5t21.5 8.5h85v180
q0 8 6 14t14 6h90q8 0 14 -6t6 -14v-230q0 -33 -23.5 -56.5t-56.5 -23.5h-135q-13 0 -21.5 8.5t-8.5 21.5v70z" />
    <glyph glyph-name="uni067E.medi" unicode="&#x67e;" horiz-adv-x="300" arabic-form="medial" 
d="M5 -95q0 19 16 32t39 13t39 -13t16 -32t-16 -32t-39 -13t-39 13t-16 32zM135 -95q0 19 16 32t39 13t39 -13t16 -32t-16 -32t-39 -13t-39 13t-16 32zM70 -195q0 19 16 32t39 13t39 -13t16 -32t-16 -32t-39 -13t-39 13t-16 32zM-30 100q0 13 8.5 21.5t21.5 8.5h85v180
q0 8 6 14t14 6h90q8 0 14 -6t6 -14v-180h85v-130h-300q-13 0 -21.5 8.5t-8.5 21.5v70z" />
    <glyph glyph-name="uni0679.fina" unicode="&#x679;" horiz-adv-x="770" arabic-form="final" 
d="M725 130h45v-130h-645q-33 0 -56.5 23.5t-23.5 56.5v230q0 8 6 14t14 6h90q8 0 14 -6t6 -14v-180h420v180q0 8 6 14t14 6h90q8 0 14 -6t6 -14v-180zM320 433h15v107h32v-75l12 12q8 8 19 8h44q8 0 14 -6.5t6 -15.5v-43q0 -8 -6 -14t-14 -6h-122v33zM373 433h57v20h-37z
" />
    <glyph glyph-name="uni0679.init" unicode="&#x679;" horiz-adv-x="260" arabic-form="initial" 
d="M-30 100q0 13 8.5 21.5t21.5 8.5h85v180q0 8 6 14t14 6h90q8 0 14 -6t6 -14v-230q0 -33 -23.5 -56.5t-56.5 -23.5h-135q-13 0 -21.5 8.5t-8.5 21.5v70zM65 433h15v107h32v-75l12 12q8 8 19 8h44q8 0 14 -6.5t6 -15.5v-43q0 -8 -6 -14t-14 -6h-122v33zM118 433h57v20h-37z
" />
    <glyph glyph-name="uni0679.medi" unicode="&#x679;" horiz-adv-x="300" arabic-form="medial" 
d="M-30 100q0 13 8.5 21.5t21.5 8.5h85v180q0 8 6 14t14 6h90q8 0 14 -6t6 -14v-180h85v-130h-300q-13 0 -21.5 8.5t-8.5 21.5v70zM65 433h15v107h32v-75l12 12q8 8 19 8h44q8 0 14 -6.5t6 -15.5v-43q0 -8 -6 -14t-14 -6h-122v33zM118 433h57v20h-37z" />
    <glyph glyph-name="uni06A4.fina" unicode="&#x6a4;" horiz-adv-x="850" arabic-form="final" 
d="M510 425q0 19 16 32t39 13t39 -13t16 -32t-16 -32t-39 -13t-39 13t-16 32zM640 425q0 19 16 32t39 13t39 -13t16 -32t-16 -32t-39 -13t-39 13t-16 32zM575 525q0 19 16 32t39 13t39 -13t16 -32t-16 -32t-39 -13t-39 13t-16 32zM720 330q33 0 56.5 -23.5t23.5 -56.5v-120
h50v-130h-720q-33 0 -56.5 23.5t-23.5 56.5v230q0 8 6 14t14 6h90q8 0 14 -6t6 -14v-180h282q-17 36 -17 67q0 27 12 51.5t33.5 42.5t52 28.5t67.5 10.5h110zM675 130v70h-54q-20 0 -33 -10t-13 -25q0 -14 13.5 -24.5t32.5 -10.5h54z" />
    <glyph glyph-name="uni06A4.init" unicode="&#x6a4;" horiz-adv-x="450" arabic-form="initial" 
d="M105 425q0 19 16 32t39 13t39 -13t16 -32t-16 -32t-39 -13t-39 13t-16 32zM235 425q0 19 16 32t39 13t39 -13t16 -32t-16 -32t-39 -13t-39 13t-16 32zM170 525q0 19 16 32t39 13t39 -13t16 -32t-16 -32t-39 -13t-39 13t-16 32zM-30 100q0 13 8.5 21.5t21.5 8.5h62
q-9 19 -13 36.5t-4 32.5q0 30 13 54t35 41.5t50.5 26.5t59.5 9h122q33 0 56.5 -23.5t23.5 -56.5v-230q0 -8 -6 -14t-14 -6h-385q-13 0 -21.5 8.5t-8.5 21.5v70zM221 200q-20 0 -33 -10t-13 -25q0 -14 13 -24.5t33 -10.5h54v70h-54z" />
    <glyph glyph-name="uni06A4.medi" unicode="&#x6a4;" horiz-adv-x="450" arabic-form="medial" 
d="M105 425q0 19 16 32t39 13t39 -13t16 -32t-16 -32t-39 -13t-39 13t-16 32zM235 425q0 19 16 32t39 13t39 -13t16 -32t-16 -32t-39 -13t-39 13t-16 32zM170 525q0 19 16 32t39 13t39 -13t16 -32t-16 -32t-39 -13t-39 13t-16 32zM-30 100q0 13 8.5 21.5t21.5 8.5h62
q-9 19 -13 36.5t-4 32.5q0 30 13 54t35 41.5t50.5 26.5t59.5 9h122q33 0 56.5 -23.5t23.5 -56.5v-120h45v-130h-450q-13 0 -21.5 8.5t-8.5 21.5v70zM221 200q-20 0 -33 -10t-13 -25q0 -14 13 -24.5t33 -10.5h54v70h-54z" />
    <glyph glyph-name="uni0686.fina" unicode="&#x686;" horiz-adv-x="470" arabic-form="final" 
d="M269 -127v-32q0 -12 0.5 -22.5t0.5 -22.5v-32q-54 0 -96 14.5t-70.5 39t-43.5 58t-15 72.5q0 37 14.5 70t39.5 58t59.5 39.5t74.5 14.5h19q-6 18 -13 37t-17.5 35t-25 26.5t-34.5 10.5q-17 0 -32.5 -6t-29.5 -15l-30 92q27 22 61.5 36t69.5 14q44 0 73 -23.5t49 -58
t35 -75t32 -73.5h80v-130h-215q-37 0 -58.5 -19.5t-21.5 -43.5q0 -17 8 -28.5t21 -19t30 -11.5t35 -5zM234 -65q0 19 14.5 32t34.5 13t35 -13t15 -32t-15 -32t-35 -13t-34.5 13t-14.5 32zM351 -65q0 19 14.5 32t34.5 13t35 -13t15 -32t-15 -32t-35 -13t-34.5 13t-14.5 32z
M292 -165q0 19 15 32t35 13t34.5 -13t14.5 -32t-14.5 -32t-34.5 -13t-35 13t-15 32z" />
    <glyph glyph-name="uni0686.init" unicode="&#x686;" horiz-adv-x="440" arabic-form="initial" 
d="M100 -95q0 19 16 32t39 13t39 -13t16 -32t-16 -32t-39 -13t-39 13t-16 32zM230 -95q0 19 16 32t39 13t39 -13t16 -32t-16 -32t-39 -13t-39 13t-16 32zM165 -195q0 19 16 32t39 13t39 -13t16 -32t-16 -32t-39 -13t-39 13t-16 32zM-30 100q0 13 8.5 21.5t21.5 8.5h212
q-6 18 -13 37t-17.5 35t-25 26.5t-34.5 10.5q-17 0 -32.5 -6t-29.5 -15l-30 92q27 22 61.5 36t69.5 14q46 0 74.5 -23.5t48 -58.5t34 -75t32.5 -73h50v-130h-400q-13 0 -21.5 8.5t-8.5 21.5v70z" />
    <glyph glyph-name="uni0686.medi" unicode="&#x686;" horiz-adv-x="400" arabic-form="medial" 
d="M100 -95q0 19 16 32t39 13t39 -13t16 -32t-16 -32t-39 -13t-39 13t-16 32zM230 -95q0 19 16 32t39 13t39 -13t16 -32t-16 -32t-39 -13t-39 13t-16 32zM165 -195q0 19 16 32t39 13t39 -13t16 -32t-16 -32t-39 -13t-39 13t-16 32zM-30 100q0 13 8.5 21.5t21.5 8.5h212
q-6 18 -13 37t-17.5 35t-25 26.5t-34.5 10.5q-17 0 -32.5 -6t-29.5 -15l-30 92q27 22 61.5 36t69.5 14q46 0 74.5 -23.5t48 -58.5t34 -75t32.5 -73h50v-130h-400q-13 0 -21.5 8.5t-8.5 21.5v70z" />
    <glyph glyph-name="uni0688.fina" unicode="&#x688;" horiz-adv-x="410" arabic-form="final" 
d="M40 130h195v60q0 32 -22 45t-54 13q-16 0 -34 -2.5t-37 -7.5l-28 112q60 20 116 20q39 0 73.5 -10.5t60 -32.5t40.5 -56t15 -81v-60h45v-130h-370v130zM95 463h15v107h32v-75l12 12q8 8 19 8h44q8 0 14 -6.5t6 -15.5v-43q0 -8 -6 -14t-14 -6h-122v33zM148 463h57v20h-37z
" />
    <glyph glyph-name="uni0698.fina" unicode="&#x698;" horiz-adv-x="240" arabic-form="final" 
d="M7 425q0 19 14.5 32t35 13t35 -13t14.5 -32t-14.5 -32t-35 -13t-35 13t-14.5 32zM124 425q0 19 14.5 32t35 13t35 -13t14.5 -32t-14.5 -32t-35 -13t-35 13t-14.5 32zM65.5 525q0.5 19 14.5 32t35 13t35.5 -13t14.5 -32t-14.5 -32t-35.5 -13t-35.5 13t-14 32zM-89 -42
q17 -6 38 -11t41 -5q30 0 52.5 13t22.5 45v310q0 8 6 14t14 6h90q8 0 14 -6t6 -14v-180h45v-130h-45q0 -46 -13.5 -79.5t-36.5 -55t-54 -32t-66 -10.5q-71 0 -145 40z" />
    <glyph glyph-name="uni0691.fina" unicode="&#x691;" horiz-adv-x="240" arabic-form="final" 
d="M-89 -42q17 -6 38 -11t41 -5q30 0 52.5 13t22.5 45v310q0 8 6 14t14 6h90q8 0 14 -6t6 -14v-180h45v-130h-45q0 -46 -13.5 -79.5t-36.5 -55t-54 -32t-66 -10.5q-71 0 -145 40zM39 433h15v107h32v-75l12 12q8 8 19 8h44q8 0 14 -6.5t6 -15.5v-43q0 -8 -6 -14t-14 -6h-122
v33zM92 433h57v20h-37z" />
    <glyph glyph-name="uni06A9.fina" unicode="&#x6a9;" horiz-adv-x="920" arabic-form="final" 
d="M125 0q-33 0 -56.5 23.5t-23.5 56.5v215q0 8 6 14t14 6h90q8 0 14 -6t6 -14v-165h570v55h-413v130l250 251l92 -92l-159 -159h280q33 0 56.5 -23.5t23.5 -56.5v-105h45v-130h-795z" />
    <glyph glyph-name="uni06A9.init" unicode="&#x6a9;" horiz-adv-x="410" arabic-form="initial" 
d="M0 0q-13 0 -21.5 8.5t-8.5 21.5v70q0 13 8.5 21.5t21.5 8.5h235v38q0 40 -25 56t-57 16q-30 0 -58 -11q-9 19 -15.5 31t-13 22.5t-13 22.5t-15.5 31l241 242l92 -92l-138 -139q28 -6 52.5 -19t42 -34.5t27.5 -52.5t10 -73v-148q0 -8 -6 -14t-14 -6h-345z" />
    <glyph glyph-name="uni06A9.medi" unicode="&#x6a9;" horiz-adv-x="410" arabic-form="medial" 
d="M0 0q-13 0 -21.5 8.5t-8.5 21.5v70q0 13 8.5 21.5t21.5 8.5h235v38q0 40 -25 56t-57 16q-30 0 -58 -11q-9 19 -15.5 31t-13 22.5t-13 22.5t-15.5 31l242 242l92 -92l-139 -139q28 -6 52.5 -19t42 -34.5t27.5 -52.5t10 -73v-38h45v-130h-410z" />
    <glyph glyph-name="uni06AF.fina" unicode="&#x6af;" horiz-adv-x="920" arabic-form="final" 
d="M125 0q-33 0 -56.5 23.5t-23.5 56.5v215q0 8 6 14t14 6h90q8 0 14 -6t6 -14v-165h570v55h-413v130l250 251l92 -92l-159 -159h280q33 0 56.5 -23.5t23.5 -56.5v-105h45v-130h-795zM542 608l-244 -244l-37 51l237 237z" />
    <glyph glyph-name="uni06AF.init" unicode="&#x6af;" horiz-adv-x="410" arabic-form="initial" 
d="M0 0q-13 0 -21.5 8.5t-8.5 21.5v70q0 13 8.5 21.5t21.5 8.5h235v38q0 40 -25 56t-57 16q-30 0 -58 -11q-9 19 -15.5 31t-13 22.5t-13 22.5t-15.5 31l241 242l92 -92l-138 -139q28 -6 52.5 -19t42 -34.5t27.5 -52.5t10 -73v-148q0 -8 -6 -14t-14 -6h-345zM251 618
l-244 -244l-37 51l237 237z" />
    <glyph glyph-name="uni06AF.medi" unicode="&#x6af;" horiz-adv-x="410" arabic-form="medial" 
d="M0 0q-13 0 -21.5 8.5t-8.5 21.5v70q0 13 8.5 21.5t21.5 8.5h235v38q0 40 -25 56t-57 16q-30 0 -58 -11q-9 19 -15.5 31t-13 22.5t-13 22.5t-15.5 31l242 242l92 -92l-139 -139q28 -6 52.5 -19t42 -34.5t27.5 -52.5t10 -73v-38h45v-130h-410zM251 618l-244 -244l-37 51
l237 237z" />
    <glyph glyph-name="noonfc" unicode="&#x6ba;" horiz-adv-x="520" arabic-form="final" 
d="M475 130h45v-130h-45v-70q0 -33 -23.5 -56.5t-56.5 -23.5h-170q-37 0 -70 14t-57.5 38.5t-38.5 57.5t-14 70v153q0 8 6 14t14 6h90q8 0 14 -6t6 -14v-153q0 -18 6.5 -28t17 -15t23.5 -6t26 -1h97v330q0 8 6 14t14 6h90q8 0 14 -6t6 -14v-180z" />
    <glyph glyph-name="uni06C0.fina" unicode="&#x6c0;" horiz-adv-x="460" arabic-form="final" 
d="M460 0h-315q-54 0 -77 20.5t-23 52.5q0 24 12 54l55 139q11 28 36 46t57 18h190q8 0 14 -6t6 -14v-180h45v-130zM285 130v70h-60l-27 -70h87zM302 476q-5 4 -12.5 6.5t-14.5 2.5q-8 0 -13.5 -4t-5.5 -14q0 -8 7 -15t21 -7h38v-45h-124v45h24q-14 12 -14 31q0 23 18 36
t42 13q14 0 28.5 -5.5t24.5 -13.5z" />
    <glyph glyph-name="uni06C1.fina" unicode="&#x6c1;" horiz-adv-x="500" arabic-form="final" 
d="M405 0q-33 0 -56.5 23.5t-23.5 56.5v120h-60l-72 -180q-3 -8 -11.5 -14t-17.5 -6h-119l106 266q11 29 36.5 46.5t57.5 17.5h190q8 0 14 -6t6 -14v-180h45v-130h-95z" />
    <glyph glyph-name="uni06C1.init" unicode="&#x6c1;" horiz-adv-x="470" arabic-form="initial" 
d="M-30 100q0 13 8.5 21.5t21.5 8.5h85v130q0 8 6 14t14 6h90q8 0 14 -6t6 -14v-130h80v180q0 8 6 14t14 6h90q8 0 14 -6t6 -14v-230q0 -33 -23.5 -56.5t-56.5 -23.5h-75q-11 -18 -19 -37t-8 -39q0 -17 6.5 -32.5t21.5 -31.5l-69 -94q-22 20 -32 50t-10 63t10 65t29 56h-199
q-13 0 -21.5 8.5t-8.5 21.5v70z" />
    <glyph glyph-name="uni06C1.medi" unicode="&#x6c1;" horiz-adv-x="340" arabic-form="medial" 
d="M197 280q-33 -107 -33 -204q0 -70 17 -136q0 95 30 142.5t79 47.5h50v-130h-40q-38 0 -54 -22t-16 -53q0 -40 19 -75l-125 -60q-30 52 -48.5 104t-26.5 106h-49q-13 0 -21.5 8.5t-8.5 21.5v70q0 13 8.5 21.5t21.5 8.5h44q1 18 5 46.5t10 56t15.5 47.5t23.5 20h82
q8 0 12.5 -6t4.5 -14z" />
    <glyph glyph-name="hehf2" unicode="&#x6be;" horiz-adv-x="680" arabic-form="final" 
d="M40 100q0 13 8.5 21.5t21.5 8.5h52q-8 14 -11.5 29.5t-3.5 30.5q0 29 11.5 54.5t32 44.5t50 30t65.5 11h59l-15 60q29 10 59 14.5t57 4.5q39 0 73.5 -10.5t60 -32t40.5 -55.5t15 -81v-100h65v-130h-610q-13 0 -21.5 8.5t-8.5 21.5v70zM485 230q0 30 -20 43t-49 15
q5 -9 8.5 -18t3.5 -20v-120h57v100zM273 200q-18 0 -28 -10.5t-10 -24.5q0 -13 9.5 -24t27.5 -11h33v70h-32z" />
    <glyph glyph-name="uni06BE.init" unicode="&#x6be;" horiz-adv-x="600" arabic-form="initial" 
d="M-30 100q0 13 8.5 21.5t21.5 8.5h62q-17 27 -17 63q0 28 12 52.5t33.5 43.5t51 30t64.5 11h59l-15 60q29 10 59 14.5t57 4.5q39 0 73.5 -10.5t60 -32t40.5 -55.5t15 -81v-210q0 -8 -6 -14t-14 -6h-535q-13 0 -21.5 8.5t-8.5 21.5v70zM425 230q0 30 -19.5 42.5t-49.5 13.5
q12 -17 12 -36v-120h57v100zM245 130v70h-32q-18 0 -28 -10.5t-10 -24.5t10 -24.5t28 -10.5h32z" />
    <glyph glyph-name="uni06BE.medi" unicode="&#x6be;" horiz-adv-x="600" arabic-form="medial" 
d="M-30 100q0 13 8.5 21.5t21.5 8.5h62q-17 27 -17 63q0 28 12 52.5t33.5 43.5t51 30t64.5 11h59l-15 60q29 10 59 14.5t57 4.5q39 0 73.5 -10.5t60 -32t40.5 -55.5t15 -81v-100h45v-130h-600q-13 0 -21.5 8.5t-8.5 21.5v70zM425 230q0 30 -19.5 42.5t-49.5 13.5
q12 -17 12 -36v-120h57v100zM245 130v70h-32q-18 0 -28 -10.5t-10 -24.5t10 -24.5t28 -10.5h32z" />
    <glyph glyph-name="uni06D2.fina" unicode="&#x6d2;" horiz-adv-x="560" arabic-form="final" 
d="M560 0h-350q-17 0 -28.5 -11.5t-11.5 -28.5v-20h210q27 0 50.5 -10t41.5 -28t28 -41.5t10 -50.5h-380q-33 0 -56.5 23.5t-23.5 56.5v80q0 33 12.5 62t34.5 51t51 34.5t62 12.5h350v-130z" />
    <glyph glyph-name="uni06D3.fina" unicode="&#x6d3;" horiz-adv-x="560" arabic-form="final" 
d="M302 316q-5 4 -12.5 6.5t-14.5 2.5q-8 0 -13.5 -4t-5.5 -14q0 -8 7 -15t21 -7h38v-45h-124v45h24q-14 12 -14 31q0 23 18 36t42 13q14 0 28.5 -5.5t24.5 -13.5zM560 0h-350q-17 0 -28.5 -11.5t-11.5 -28.5v-20h210q27 0 50.5 -10t41.5 -28t28 -41.5t10 -50.5h-380
q-33 0 -56.5 23.5t-23.5 56.5v80q0 33 12.5 62t34.5 51t51 34.5t62 12.5h350v-130z" />
    <glyph glyph-name="maksuran" unicode="&#x649;" horiz-adv-x="260" arabic-form="initial" 
d="M-30 100q0 13 8.5 21.5t21.5 8.5h85v180q0 8 6 14t14 6h90q8 0 14 -6t6 -14v-230q0 -33 -23.5 -56.5t-56.5 -23.5h-135q-13 0 -21.5 8.5t-8.5 21.5v70z" />
    <glyph glyph-name="maksuram" unicode="&#x649;" horiz-adv-x="300" arabic-form="medial" 
d="M-30 100q0 13 8.5 21.5t21.5 8.5h85v180q0 8 6 14t14 6h90q8 0 14 -6t6 -14v-180h85v-130h-300q-13 0 -21.5 8.5t-8.5 21.5v70z" />
    <glyph glyph-name="uni06CC.fina" unicode="&#x6cc;" horiz-adv-x="550" arabic-form="final" 
d="M548 -22q13 -14 22 -30.5t9 -37.5q0 -38 -26 -64t-64 -26h-264q-37 0 -70 14t-57.5 38.5t-38.5 57.5t-14 70v120q0 8 6 14t14 6h90q8 0 14 -6t6 -14v-120q0 -21 15 -35.5t35 -14.5h194l-120 119q-10 10 -14.5 22t-4.5 24q0 27 19.5 46t45.5 19q25 0 46 -19l31 -31h128
v-130h-24z" />
    <glyph glyph-name="uni06CC.init" unicode="&#x6cc;" horiz-adv-x="260" arabic-form="initial" 
d="M-22 -105q0 21 16 35.5t39 14.5t39 -14.5t16 -35.5t-16 -35.5t-39 -14.5t-39 14.5t-16 35.5zM108 -105q0 21 16 35.5t39 14.5t39 -14.5t16 -35.5t-16 -35.5t-39 -14.5t-39 14.5t-16 35.5zM-30 100q0 13 8.5 21.5t21.5 8.5h85v180q0 8 6 14t14 6h90q8 0 14 -6t6 -14v-230
q0 -33 -23.5 -56.5t-56.5 -23.5h-135q-13 0 -21.5 8.5t-8.5 21.5v70z" />
    <glyph glyph-name="uni0651064C" unicode="&#xfc5e;" arabic-form="isolated" 
d="M-10 162q33 18 49 42q-2 0 -4.5 -0.5t-3.5 -0.5q-21 0 -37 12.5t-16 37.5t17 37t33 12q22 0 36 -15.5t14 -35.5q0 -10 -4 -23.5t-13 -29t-23.5 -31t-36.5 -26.5zM-40 171q-19 18 -27.5 38.5t-8.5 41.5q0 36 20 65l22 -14q-16 -24 -16 -49q0 -18 8 -35t26 -30zM54 233
q3 9 3 17q0 11 -8 19.5t-20 8.5q-7 0 -16 -6t-9 -19t9.5 -18.5t21 -5.5t19.5 4zM15 104q-1 -5 -1 -8v-8q0 -21 7.5 -31.5t13.5 -10.5t10.5 8t4.5 29q0 5 -0.5 11.5t-1.5 13.5l29 5q1 -5 1.5 -11.5t0.5 -14.5q0 -12 -2 -25t-7 -23.5t-13.5 -17t-21.5 -6.5q-8 0 -17 5t-14 13
q-6 -13 -16 -20t-20 -7q-17 0 -31.5 13.5t-14.5 43.5q0 11 3 25l30 5q-3 -15 -3 -26q0 -32 16 -32q7 0 14 10.5t7 30.5v11q0 5 -2 12z" />
    <glyph glyph-name="uni0651064D" unicode="&#xfc5f;" arabic-form="isolated" 
d="M-88 46l177 28v-28l-177 -29v29zM-88 103l177 29v-29l-177 -28v28zM15 259q-1 -5 -1 -8v-8q0 -21 7.5 -31.5t13.5 -10.5t10.5 8t4.5 29q0 5 -0.5 11.5t-1.5 13.5l29 5q1 -5 1.5 -11.5t0.5 -14.5q0 -12 -2 -25t-7 -23.5t-13.5 -17t-21.5 -6.5q-8 0 -17 5t-14 13
q-6 -13 -16 -20t-20 -7q-17 0 -31.5 13.5t-14.5 43.5q0 11 3 25l30 5q-3 -15 -3 -26q0 -32 16 -32q7 0 14 10.5t7 30.5v11q0 5 -2 12z" />
    <glyph glyph-name="uni0651064E" unicode="&#xfc60;" arabic-form="isolated" 
d="M-89 171l177 28v-28l-177 -28v28zM15 104q-1 -5 -1 -8v-8q0 -21 7.5 -31.5t13.5 -10.5t10.5 8t4.5 29q0 5 -0.5 11.5t-1.5 13.5l29 5q1 -5 1.5 -11.5t0.5 -14.5q0 -12 -2 -25t-7 -23.5t-13.5 -17t-21.5 -6.5q-8 0 -17 5t-14 13q-6 -13 -16 -20t-20 -7q-17 0 -31.5 13.5
t-14.5 43.5q0 11 3 25l30 5q-3 -15 -3 -26q0 -32 16 -32q7 0 14 10.5t7 30.5v11q0 5 -2 12z" />
    <glyph glyph-name="uni0651064F" unicode="&#xfc61;" arabic-form="isolated" 
d="M-41 156q18 10 31 21t21 23q-4 -1 -10 -1q-22 0 -37.5 12.5t-15.5 38.5t17 39t35 13q23 0 38 -16t15 -39q0 -9 -4 -23t-14 -30.5t-25.5 -32t-38.5 -28.5zM-26 250q0 -13 10 -19t22 -6q16 0 19.5 6.5t3.5 15.5q0 12 -8 21t-20 9q-7 0 -17 -6t-10 -21zM15 104q-1 -5 -1 -8
v-8q0 -21 7.5 -31.5t13.5 -10.5t10.5 8t4.5 29q0 5 -0.5 11.5t-1.5 13.5l29 5q1 -5 1.5 -11.5t0.5 -14.5q0 -12 -2 -25t-7 -23.5t-13.5 -17t-21.5 -6.5q-8 0 -17 5t-14 13q-6 -13 -16 -20t-20 -7q-17 0 -31.5 13.5t-14.5 43.5q0 11 3 25l30 5q-3 -15 -3 -26q0 -32 16 -32
q7 0 14 10.5t7 30.5v11q0 5 -2 12z" />
    <glyph glyph-name="uni06510650" unicode="&#xfc62;" arabic-form="isolated" 
d="M-64 43l147 24v-28l-147 -24v28zM15 195q-1 -5 -1 -8v-8q0 -21 7.5 -31.5t13.5 -10.5t10.5 8t4.5 29q0 5 -0.5 11.5t-1.5 13.5l29 5q1 -5 1.5 -11.5t0.5 -14.5q0 -12 -2 -25t-7 -23.5t-13.5 -17t-21.5 -6.5q-8 0 -17 5t-14 13q-6 -13 -16 -20t-20 -7q-17 0 -31.5 13.5
t-14.5 43.5q0 11 3 25l30 5q-3 -15 -3 -26q0 -32 16 -32q7 0 14 10.5t7 30.5v11q0 5 -2 12z" />
    <glyph glyph-name="uni06510670" unicode="&#xfc63;" arabic-form="isolated" 
d="M15 104q-1 -5 -1 -8v-8q0 -21 7.5 -31.5t13.5 -10.5t10.5 8t4.5 29q0 5 -0.5 11.5t-1.5 13.5l29 5q1 -5 1.5 -11.5t0.5 -14.5q0 -12 -2 -25t-7 -23.5t-13.5 -17t-21.5 -6.5q-8 0 -17 5t-14 13q-6 -13 -16 -20t-20 -7q-17 0 -31.5 13.5t-14.5 43.5q0 11 3 25l30 5
q-3 -15 -3 -26q0 -32 16 -32q7 0 14 10.5t7 30.5v11q0 5 -2 12zM-11 323q11 -29 16.5 -67t5.5 -72v-15q0 -8 -1 -15l-23 -9q0 36 -7.5 71t-21.5 65z" />
    <glyph glyph-name="behmaksuraf" unicode="&#xfc6e;" horiz-adv-x="840" arabic-form="final" 
d="M619 -155q0 21 16 35.5t39 14.5t39 -14.5t16 -35.5t-16 -35.5t-39 -14.5t-39 14.5t-16 35.5zM622 203h-150q-18 0 -35 -13t-17 -37h70q33 0 56.5 -23.5t23.5 -56.5v-50q0 -37 -14 -70t-38.5 -57.5t-57.5 -38.5t-70 -14h-165q-37 0 -70 14t-57.5 38.5t-38.5 57.5t-14 70
v125q0 8 6 14t14 6h90q8 0 14 -6t6 -14v-101q0 -14 1.5 -27.5t7 -24t15 -16.5t26.5 -6h140q11 0 24 2t24.5 8t19 15.5t7.5 24.5h-90q-25 0 -42.5 17.5t-17.5 42.5v50q0 42 16 77.5t44 61t64.5 39.5t77.5 14h217q19 0 24 -20l38 -175h69v-130h-154q-19 0 -24 20z" />
    <glyph glyph-name="behyehf" unicode="&#xfc6f;" horiz-adv-x="840" arabic-form="final" 
d="M619 -105q0 21 16 35.5t39 14.5t39 -14.5t16 -35.5t-16 -35.5t-39 -14.5t-39 14.5t-16 35.5zM190 -250.5q0 18.5 16 32t39 13.5t39 -13.5t16 -32t-16 -32t-39 -13.5t-39 13.5t-16 32zM320 -250.5q0 18.5 16 32t39 13.5t39 -13.5t16 -32t-16 -32t-39 -13.5t-39 13.5
t-16 32zM622 203h-150q-18 0 -35 -13t-17 -37h70q33 0 56.5 -23.5t23.5 -56.5v-50q0 -37 -14 -70t-38.5 -57.5t-57.5 -38.5t-70 -14h-165q-37 0 -70 14t-57.5 38.5t-38.5 57.5t-14 70v125q0 8 6 14t14 6h90q8 0 14 -6t6 -14v-101q0 -14 1.5 -27.5t7 -24t15 -16.5t26.5 -6
h140q11 0 24 2t24.5 8t19 15.5t7.5 24.5h-90q-25 0 -42.5 17.5t-17.5 42.5v50q0 42 16 77.5t44 61t64.5 39.5t77.5 14h217q19 0 24 -20l38 -175h69v-130h-154q-19 0 -24 20z" />
    <glyph glyph-name="Salla" unicode="&#xfdfa;" horiz-adv-x="1540" arabic-form="isolated" 
d="M895 210q7 0 11 4.5t4 9.5q0 6 -7 13l-86 87l22 22l46 -46h115v245h30v-245h100v135h30v-81l37 30q23 19 39 29t27.5 15t20 6t16.5 1q29 0 49.5 -20.5t20.5 -49.5v-55q0 -17 -11.5 -28.5t-28.5 -11.5h-415l11 -12q8 -8 11 -18t3 -16q0 -18 -12.5 -31t-32.5 -13h-120
q-38 0 -64 26t-26 64v70h30v-70q0 -25 17.5 -42.5t42.5 -17.5h120zM70 17q0 39 23.5 56t54.5 17q18 0 37 -6t35 -15v-104h66v245h30v-245h76v135h30v-135h75v135h30v-135h65q10 0 10 10v125h30v-125q0 -17 -11.5 -28.5t-28.5 -11.5h-492v-80h-30v162zM1470 -35v-30h-555
q-23 0 -31.5 10.5t-8.5 27.5q0 9 5 22l26 73q5 14 17.5 23t29.5 9h77v-135h76v135h30v-135h91v245h30v-245h106q-17 17 -27.5 39t-10.5 42q0 27 17 45.5t55 18.5q17 0 34 -6t33 -16l-9 -29q-14 10 -29 15.5t-29 5.5q-22 0 -32 -10t-10 -24q0 -11 5.5 -24t14.5 -24.5
t20.5 -20.5t24.5 -12h50zM195 270q-23 0 -31.5 10.5t-8.5 27.5q0 9 5 22l26 73q5 14 17.5 23t29.5 9h77v-135h80v200h30v-200h85v235h30v-265h-340zM729 -65q-21 0 -35.5 14.5t-14.5 35.5v30q0 44 22.5 64.5t54.5 20.5q13 0 31.5 -6t41.5 -19v-140q0 -46 -22.5 -63
t-54.5 -17q-16 0 -35 4t-38 10l12 29q18 -6 34 -9.5t27 -3.5q20 0 33.5 10.5t13.5 39.5h-70zM1160 317v-17h170q10 0 10 10v55q0 16 -11.5 28t-28.5 12q-8 0 -14 -1t-15 -5.5t-21 -13.5l-34 -25zM799 -35v93q-11 5 -23 8.5t-20 3.5q-19 0 -33 -13t-14 -42v-30q0 -8 6 -14
t14 -6h70zM1000 -35v105h-47q-6 0 -11 -4t-7 -9l-27 -73q0 -3 -1.5 -6t-1.5 -5q0 -8 10 -8h85zM280 300v105h-47q-6 0 -11 -4t-7 -9l-27 -73q0 -3 -1.5 -6t-1.5 -5q0 -8 10 -8h85zM190 -35v85q-11 4 -22 7t-20 3q-18 0 -33 -10t-15 -33v-52h90zM630 540v-275h-30v275h30z
M1082 -85l33 -33l-22 -22l-33 33zM1142 -85l33 -33l-22 -22l-33 33z" />
    <glyph glyph-name="alefmdf" unicode="&#x622;" horiz-adv-x="220" arabic-form="final" 
d="M155 550q8 0 14 -6t6 -14v-400h45v-130h-155q-8 0 -14 6t-6 14v510q0 8 6 14t14 6h90zM185 604q-12 -9 -22.5 -12.5t-19.5 -3.5q-17 0 -31 6.5t-31 6.5q-10 0 -21 -4.5t-25 -16.5v41q14 12 25 16.5t21 4.5q17 0 31 -6.5t31 -6.5q9 0 19.5 3.5t22.5 12.5v-41z" />
    <glyph glyph-name="alefhmzf" unicode="&#x623;" horiz-adv-x="220" arabic-form="final" 
d="M155 550q8 0 14 -6t6 -14v-400h45v-130h-155q-8 0 -14 6t-6 14v510q0 8 6 14t14 6h90zM152 656q-5 4 -12.5 6.5t-14.5 2.5q-8 0 -13.5 -4t-5.5 -14q0 -8 7 -15t21 -7h38v-45h-124v45h24q-14 12 -14 31q0 23 18 36t42 13q14 0 28.5 -5.5t24.5 -13.5z" />
    <glyph glyph-name="wawhmzf" unicode="&#x624;" horiz-adv-x="440" arabic-form="final" 
d="M145 0q-42 0 -71 29t-29 71v60q0 44 15.5 76t42 53t60.5 31t71 10q42 0 84 -12.5t77 -37.5v-150h45v-130h-45q0 -45 -13.5 -78.5t-36.5 -55.5t-54 -33t-66 -11t-79.5 10t-80.5 31l29 94q20 -7 44 -12.5t48 -5.5q32 0 55.5 13t23.5 48h-120zM265 130v64l-18 4q-9 2 -17 2
q-23 0 -39 -10t-16 -30v-30h90zM262 476q-5 4 -12.5 6.5t-14.5 2.5q-8 0 -13.5 -4t-5.5 -14q0 -8 7 -15t21 -7h38v-45h-124v45h24q-14 12 -14 31q0 23 18 36t42 13q14 0 28.5 -5.5t24.5 -13.5z" />
    <glyph glyph-name="alefhmz2f" unicode="&#x625;" horiz-adv-x="220" arabic-form="final" 
d="M155 550q8 0 14 -6t6 -14v-400h45v-130h-155q-8 0 -14 6t-6 14v510q0 8 6 14t14 6h90zM152 -84q-5 4 -12.5 6.5t-14.5 2.5q-8 0 -13.5 -4t-5.5 -14q0 -8 7 -15t21 -7h38v-45h-124v45h24q-14 12 -14 31q0 23 18 36t42 13q14 0 28.5 -5.5t24.5 -13.5z" />
    <glyph glyph-name="yehhmzf" unicode="&#x626;" horiz-adv-x="550" arabic-form="final" 
d="M152 316q-5 4 -12.5 6.5t-14.5 2.5q-8 0 -13.5 -4t-5.5 -14q0 -8 7 -15t21 -7h38v-45h-124v45h24q-14 12 -14 31q0 23 18 36t42 13q14 0 28.5 -5.5t24.5 -13.5zM548 -22q13 -14 22 -30.5t9 -37.5q0 -38 -26 -64t-64 -26h-264q-37 0 -70 14t-57.5 38.5t-38.5 57.5t-14 70
v120q0 8 6 14t14 6h90q8 0 14 -6t6 -14v-120q0 -21 15 -35.5t35 -14.5h194l-120 119q-10 10 -14.5 22t-4.5 24q0 27 19.5 46t45.5 19q25 0 46 -19l31 -31h128v-130h-24z" />
    <glyph glyph-name="hmzn" unicode="&#x626;" horiz-adv-x="260" arabic-form="initial" 
d="M-30 100q0 13 8.5 21.5t21.5 8.5h85v180q0 8 6 14t14 6h90q8 0 14 -6t6 -14v-230q0 -33 -23.5 -56.5t-56.5 -23.5h-135q-13 0 -21.5 8.5t-8.5 21.5v70zM192 476q-5 4 -12.5 6.5t-14.5 2.5q-8 0 -13.5 -4t-5.5 -14q0 -8 7 -15t21 -7h38v-45h-124v45h24q-14 12 -14 31
q0 23 18 36t42 13q14 0 28.5 -5.5t24.5 -13.5z" />
    <glyph glyph-name="hmzm" unicode="&#x626;" horiz-adv-x="300" arabic-form="medial" 
d="M-30 100q0 13 8.5 21.5t21.5 8.5h85v180q0 8 6 14t14 6h90q8 0 14 -6t6 -14v-180h85v-130h-300q-13 0 -21.5 8.5t-8.5 21.5v70zM192 476q-5 4 -12.5 6.5t-14.5 2.5q-8 0 -13.5 -4t-5.5 -14q0 -8 7 -15t21 -7h38v-45h-124v45h24q-14 12 -14 31q0 23 18 36t42 13
q14 0 28.5 -5.5t24.5 -13.5z" />
    <glyph glyph-name="aleff" unicode="&#x627;" horiz-adv-x="220" arabic-form="final" 
d="M155 550q8 0 14 -6t6 -14v-400h45v-130h-155q-8 0 -14 6t-6 14v510q0 8 6 14t14 6h90z" />
    <glyph glyph-name="behf" unicode="&#x628;" horiz-adv-x="770" arabic-form="final" 
d="M330 -135q0 21 16 35.5t39 14.5t39 -14.5t16 -35.5t-16 -35.5t-39 -14.5t-39 14.5t-16 35.5zM725 130h45v-130h-645q-33 0 -56.5 23.5t-23.5 56.5v230q0 8 6 14t14 6h90q8 0 14 -6t6 -14v-180h420v180q0 8 6 14t14 6h90q8 0 14 -6t6 -14v-180z" />
    <glyph glyph-name="behn" unicode="&#x628;" horiz-adv-x="260" arabic-form="initial" 
d="M46 -105q0 21 16 35.5t39 14.5t39 -14.5t16 -35.5t-16 -35.5t-39 -14.5t-39 14.5t-16 35.5zM-30 100q0 13 8.5 21.5t21.5 8.5h85v180q0 8 6 14t14 6h90q8 0 14 -6t6 -14v-230q0 -33 -23.5 -56.5t-56.5 -23.5h-135q-13 0 -21.5 8.5t-8.5 21.5v70z" />
    <glyph glyph-name="behm" unicode="&#x628;" horiz-adv-x="300" arabic-form="medial" 
d="M95 -105q0 21 16 35.5t39 14.5t39 -14.5t16 -35.5t-16 -35.5t-39 -14.5t-39 14.5t-16 35.5zM-30 100q0 13 8.5 21.5t21.5 8.5h85v180q0 8 6 14t14 6h90q8 0 14 -6t6 -14v-180h85v-130h-300q-13 0 -21.5 8.5t-8.5 21.5v70z" />
    <glyph glyph-name="marbutaf" unicode="&#x629;" horiz-adv-x="460" arabic-form="final" 
d="M160 445q0 21 16 35.5t39 14.5t39 -14.5t16 -35.5t-16 -35.5t-39 -14.5t-39 14.5t-16 35.5zM290 445q0 21 16 35.5t39 14.5t39 -14.5t16 -35.5t-16 -35.5t-39 -14.5t-39 14.5t-16 35.5zM460 0h-315q-54 0 -77 20.5t-23 52.5q0 24 12 54l55 139q11 28 36 46t57 18h190
q8 0 14 -6t6 -14v-180h45v-130zM285 130v70h-60l-27 -70h87zM-16 0v0v0v0zM-16 0v0v0v0v0v0zM-16 0v0v0zM-16 0v0v0zM-16 0zM-16 0zM-16 0zM-16 0v0v0v0zM-16 0v0v0v0v0v0zM-16 0v0v0v0v0v0zM-16 0v0v0v0v0zM-16 0v0v0v0zM-16 0zM-16 0zM-16 0zM-16 0zM-16 0zM-16 0zM-16 0z
" />
    <glyph glyph-name="tehf" unicode="&#x62a;" horiz-adv-x="770" arabic-form="final" 
d="M265 445q0 21 16 35.5t39 14.5t39 -14.5t16 -35.5t-16 -35.5t-39 -14.5t-39 14.5t-16 35.5zM395 445q0 21 16 35.5t39 14.5t39 -14.5t16 -35.5t-16 -35.5t-39 -14.5t-39 14.5t-16 35.5zM725 130h45v-130h-645q-33 0 -56.5 23.5t-23.5 56.5v230q0 8 6 14t14 6h90
q8 0 14 -6t6 -14v-180h420v180q0 8 6 14t14 6h90q8 0 14 -6t6 -14v-180z" />
    <glyph glyph-name="tehn" unicode="&#x62a;" horiz-adv-x="260" arabic-form="initial" 
d="M5 445q0 21 16 35.5t39 14.5t39 -14.5t16 -35.5t-16 -35.5t-39 -14.5t-39 14.5t-16 35.5zM135 445q0 21 16 35.5t39 14.5t39 -14.5t16 -35.5t-16 -35.5t-39 -14.5t-39 14.5t-16 35.5zM-30 100q0 13 8.5 21.5t21.5 8.5h85v180q0 8 6 14t14 6h90q8 0 14 -6t6 -14v-230
q0 -33 -23.5 -56.5t-56.5 -23.5h-135q-13 0 -21.5 8.5t-8.5 21.5v70z" />
    <glyph glyph-name="tehm" unicode="&#x62a;" horiz-adv-x="300" arabic-form="medial" 
d="M5 445q0 21 16 35.5t39 14.5t39 -14.5t16 -35.5t-16 -35.5t-39 -14.5t-39 14.5t-16 35.5zM135 445q0 21 16 35.5t39 14.5t39 -14.5t16 -35.5t-16 -35.5t-39 -14.5t-39 14.5t-16 35.5zM-30 100q0 13 8.5 21.5t21.5 8.5h85v180q0 8 6 14t14 6h90q8 0 14 -6t6 -14v-180h85
v-130h-300q-13 0 -21.5 8.5t-8.5 21.5v70z" />
    <glyph glyph-name="thehf" unicode="&#x62b;" horiz-adv-x="770" arabic-form="final" 
d="M265 425q0 19 16 32t39 13t39 -13t16 -32t-16 -32t-39 -13t-39 13t-16 32zM395 425q0 19 16 32t39 13t39 -13t16 -32t-16 -32t-39 -13t-39 13t-16 32zM330 525q0 19 16 32t39 13t39 -13t16 -32t-16 -32t-39 -13t-39 13t-16 32zM725 130h45v-130h-645q-33 0 -56.5 23.5
t-23.5 56.5v230q0 8 6 14t14 6h90q8 0 14 -6t6 -14v-180h420v180q0 8 6 14t14 6h90q8 0 14 -6t6 -14v-180z" />
    <glyph glyph-name="thehn" unicode="&#x62b;" horiz-adv-x="260" arabic-form="initial" 
d="M5 425q0 19 16 32t39 13t39 -13t16 -32t-16 -32t-39 -13t-39 13t-16 32zM135 425q0 19 16 32t39 13t39 -13t16 -32t-16 -32t-39 -13t-39 13t-16 32zM70 525q0 19 16 32t39 13t39 -13t16 -32t-16 -32t-39 -13t-39 13t-16 32zM-30 100q0 13 8.5 21.5t21.5 8.5h85v180
q0 8 6 14t14 6h90q8 0 14 -6t6 -14v-230q0 -33 -23.5 -56.5t-56.5 -23.5h-135q-13 0 -21.5 8.5t-8.5 21.5v70z" />
    <glyph glyph-name="thehm" unicode="&#x62b;" horiz-adv-x="300" arabic-form="medial" 
d="M5 425q0 19 16 32t39 13t39 -13t16 -32t-16 -32t-39 -13t-39 13t-16 32zM135 425q0 19 16 32t39 13t39 -13t16 -32t-16 -32t-39 -13t-39 13t-16 32zM70 525q0 19 16 32t39 13t39 -13t16 -32t-16 -32t-39 -13t-39 13t-16 32zM-30 100q0 13 8.5 21.5t21.5 8.5h85v180
q0 8 6 14t14 6h90q8 0 14 -6t6 -14v-180h85v-130h-300q-13 0 -21.5 8.5t-8.5 21.5v70z" />
    <glyph glyph-name="jeemf" unicode="&#x62c;" horiz-adv-x="440" arabic-form="final" 
d="M260 -65q0 21 16 35.5t39 14.5t39 -14.5t16 -35.5t-16 -35.5t-39 -14.5t-39 14.5t-16 35.5zM252 130q-6 18 -13 37t-17.5 35t-25 26.5t-34.5 10.5q-17 0 -32.5 -6t-29.5 -15l-30 92q27 22 61.5 36t69.5 14q45 0 74 -23.5t48.5 -58t34 -75t32.5 -73.5h50v-130h-195
q-34 0 -52 -20t-18 -43q0 -20 10.5 -33.5t27 -22t37 -12.5t41.5 -4q19 0 35.5 2t28.5 5v-105q-23 -4 -43.5 -5.5t-40.5 -1.5q-54 0 -96 14.5t-71 40t-44 59.5t-15 72q0 37 14.5 70.5t39.5 59t59.5 40t74.5 14.5h19zM-17 0v0v0v0zM-17 0v0v0v0v0v0zM-17 0v0v0zM-17 0v0v0z
M-17 0zM-17 0zM-17 0zM-17 0v0v0v0zM-17 0v0v0v0v0v0zM-17 0v0v0v0v0v0zM-17 0v0v0v0v0zM-17 0v0v0v0zM-17 0zM-17 0zM-17 0zM-17 0zM-17 0zM-17 0zM-17 0zM-17 0v0v0v0zM-17 0v0v0v0v0v0zM-17 0v0v0zM-17 0v0v0zM-17 0zM-17 0zM-17 0zM-17 0v0v0v0zM-17 0v0v0v0v0v0zM-17 0
v0v0v0v0v0zM-17 0v0v0v0v0zM-17 0v0v0v0zM-17 0zM-17 0zM-17 0zM-17 0zM-17 0zM-17 0zM-17 0z" />
    <glyph glyph-name="jeemn" unicode="&#x62c;" horiz-adv-x="440" arabic-form="initial" 
d="M170 -105q0 21 16 35.5t39 14.5t39 -14.5t16 -35.5t-16 -35.5t-39 -14.5t-39 14.5t-16 35.5zM-30 100q0 13 8.5 21.5t21.5 8.5h212q-6 18 -13 37t-17.5 35t-25 26.5t-34.5 10.5q-17 0 -32.5 -6t-29.5 -15l-30 92q27 22 61.5 36t69.5 14q46 0 74.5 -23.5t48 -58.5t34 -75
t32.5 -73h50v-130h-400q-13 0 -21.5 8.5t-8.5 21.5v70z" />
    <glyph glyph-name="jeemm" unicode="&#x62c;" horiz-adv-x="400" arabic-form="medial" 
d="M170 -105q0 21 16 35.5t39 14.5t39 -14.5t16 -35.5t-16 -35.5t-39 -14.5t-39 14.5t-16 35.5zM-30 100q0 13 8.5 21.5t21.5 8.5h212q-6 18 -13 37t-17.5 35t-25 26.5t-34.5 10.5q-17 0 -32.5 -6t-29.5 -15l-30 92q27 22 61.5 36t69.5 14q46 0 74.5 -23.5t48 -58.5t34 -75
t32.5 -73h50v-130h-400q-13 0 -21.5 8.5t-8.5 21.5v70z" />
    <glyph glyph-name="hahf" unicode="&#x62d;" horiz-adv-x="440" arabic-form="final" 
d="M252 130q-6 18 -13 37t-17.5 35t-25 26.5t-34.5 10.5q-17 0 -32.5 -6t-29.5 -15l-30 92q27 22 61.5 36t69.5 14q45 0 74 -23.5t48.5 -58t34 -75t32.5 -73.5h50v-130h-195q-34 0 -52 -20t-18 -43q0 -20 10.5 -33.5t27 -22t37 -12.5t41.5 -4q19 0 35.5 2t28.5 5v-105
q-23 -4 -43.5 -5.5t-40.5 -1.5q-54 0 -96 14.5t-71 40t-44 59.5t-15 72q0 37 14.5 70.5t39.5 59t59.5 40t74.5 14.5h19z" />
    <glyph glyph-name="hahn" unicode="&#x62d;" horiz-adv-x="440" arabic-form="initial" 
d="M-30 100q0 13 8.5 21.5t21.5 8.5h212q-6 18 -13 37t-17.5 35t-25 26.5t-34.5 10.5q-17 0 -32.5 -6t-29.5 -15l-30 92q27 22 61.5 36t69.5 14q46 0 74.5 -23.5t48 -58.5t34 -75t32.5 -73h50v-130h-400q-13 0 -21.5 8.5t-8.5 21.5v70z" />
    <glyph glyph-name="hahm" unicode="&#x62d;" horiz-adv-x="400" arabic-form="medial" 
d="M-30 100q0 13 8.5 21.5t21.5 8.5h212q-6 18 -13 37t-17.5 35t-25 26.5t-34.5 10.5q-17 0 -32.5 -6t-29.5 -15l-30 92q27 22 61.5 36t69.5 14q46 0 74.5 -23.5t48 -58.5t34 -75t32.5 -73h50v-130h-400q-13 0 -21.5 8.5t-8.5 21.5v70z" />
    <glyph glyph-name="khahf" unicode="&#x62e;" horiz-adv-x="440" arabic-form="final" 
d="M135 455q0 21 16 35.5t39 14.5t39 -14.5t16 -35.5t-16 -35.5t-39 -14.5t-39 14.5t-16 35.5zM252 130q-6 18 -13 37t-17.5 35t-25 26.5t-34.5 10.5q-17 0 -32.5 -6t-29.5 -15l-30 92q27 22 61.5 36t69.5 14q45 0 74 -23.5t48.5 -58t34 -75t32.5 -73.5h50v-130h-195
q-34 0 -52 -20t-18 -43q0 -20 10.5 -33.5t27 -22t37 -12.5t41.5 -4q19 0 35.5 2t28.5 5v-105q-23 -4 -43.5 -5.5t-40.5 -1.5q-54 0 -96 14.5t-71 40t-44 59.5t-15 72q0 37 14.5 70.5t39.5 59t59.5 40t74.5 14.5h19zM-17 0v0v0v0zM-17 0v0v0v0v0v0zM-17 0v0v0zM-17 0v0v0z
M-17 0zM-17 0zM-17 0zM-17 0v0v0v0zM-17 0v0v0v0v0v0zM-17 0v0v0v0v0v0zM-17 0v0v0v0v0zM-17 0v0v0v0zM-17 0zM-17 0zM-17 0zM-17 0zM-17 0zM-17 0zM-17 0zM-17 0v0v0v0zM-17 0v0v0v0v0v0zM-17 0v0v0zM-17 0v0v0zM-17 0zM-17 0zM-17 0zM-17 0v0v0v0zM-17 0v0v0v0v0v0zM-17 0
v0v0v0v0v0zM-17 0v0v0v0v0zM-17 0v0v0v0zM-17 0zM-17 0zM-17 0zM-17 0zM-17 0zM-17 0zM-17 0z" />
    <glyph glyph-name="khahn" unicode="&#x62e;" horiz-adv-x="440" arabic-form="initial" 
d="M100 455q0 21 16 35.5t39 14.5t39 -14.5t16 -35.5t-16 -35.5t-39 -14.5t-39 14.5t-16 35.5zM-30 100q0 13 8.5 21.5t21.5 8.5h212q-6 18 -13 37t-17.5 35t-25 26.5t-34.5 10.5q-17 0 -32.5 -6t-29.5 -15l-30 92q27 22 61.5 36t69.5 14q46 0 74.5 -23.5t48 -58.5t34 -75
t32.5 -73h50v-130h-400q-13 0 -21.5 8.5t-8.5 21.5v70zM-4 0v0v0v0zM-4 0v0v0v0v0v0zM-4 0v0v0zM-4 0v0v0zM-4 0zM-4 0zM-4 0zM-4 0v0v0v0zM-4 0v0v0v0v0v0zM-4 0v0v0v0v0v0zM-4 0v0v0v0v0zM-4 0v0v0v0zM-4 0zM-4 0zM-4 0zM-4 0zM-4 0zM-4 0zM-4 0zM-4 0v0v0v0zM-4 0v0v0v0
v0v0zM-4 0v0v0zM-4 0v0v0zM-4 0zM-4 0zM-4 0zM-4 0v0v0v0zM-4 0v0v0v0v0v0zM-4 0v0v0v0v0v0zM-4 0v0v0v0v0zM-4 0v0v0v0zM-4 0zM-4 0zM-4 0zM-4 0zM-4 0zM-4 0zM-4 0z" />
    <glyph glyph-name="khahm" unicode="&#x62e;" horiz-adv-x="400" arabic-form="medial" 
d="M100 455q0 21 16 35.5t39 14.5t39 -14.5t16 -35.5t-16 -35.5t-39 -14.5t-39 14.5t-16 35.5zM-30 100q0 13 8.5 21.5t21.5 8.5h212q-6 18 -13 37t-17.5 35t-25 26.5t-34.5 10.5q-17 0 -32.5 -6t-29.5 -15l-30 92q27 22 61.5 36t69.5 14q46 0 74.5 -23.5t48 -58.5t34 -75
t32.5 -73h50v-130h-400q-13 0 -21.5 8.5t-8.5 21.5v70zM-2 0v0v0v0zM-2 0v0v0v0v0v0zM-2 0v0v0zM-2 0v0v0zM-2 0zM-2 0zM-2 0zM-2 0v0v0v0zM-2 0v0v0v0v0v0zM-2 0v0v0v0v0v0zM-2 0v0v0v0v0zM-2 0v0v0v0zM-2 0zM-2 0zM-2 0zM-2 0zM-2 0zM-2 0zM-2 0zM-2 0v0v0v0zM-2 0v0v0v0
v0v0zM-2 0v0v0zM-2 0v0v0zM-2 0zM-2 0zM-2 0zM-2 0v0v0v0zM-2 0v0v0v0v0v0zM-2 0v0v0v0v0v0zM-2 0v0v0v0v0zM-2 0v0v0v0zM-2 0zM-2 0zM-2 0zM-2 0zM-2 0zM-2 0zM-2 0zM-2 0v0v0v0zM-2 0v0v0v0v0v0zM-2 0v0v0zM-2 0v0v0zM-2 0zM-2 0zM-2 0zM-2 0v0v0v0zM-2 0v0v0v0v0v0zM-2 0
v0v0v0v0v0zM-2 0v0v0v0v0zM-2 0v0v0v0zM-2 0zM-2 0zM-2 0zM-2 0zM-2 0zM-2 0zM-2 0z" />
    <glyph glyph-name="dalf" unicode="&#x62f;" horiz-adv-x="410" arabic-form="final" 
d="M40 130h195v60q0 32 -22 45t-54 13q-16 0 -34 -2.5t-37 -7.5l-28 112q60 20 116 20q39 0 73.5 -10.5t60 -32.5t40.5 -56t15 -81v-60h45v-130h-370v130z" />
    <glyph glyph-name="zalf" unicode="&#x630;" horiz-adv-x="410" arabic-form="final" 
d="M100 485q0 21 16 35.5t39 14.5t39 -14.5t16 -35.5t-16 -35.5t-39 -14.5t-39 14.5t-16 35.5zM40 130h195v60q0 32 -22 45t-54 13q-16 0 -34 -2.5t-37 -7.5l-28 112q60 20 116 20q39 0 73.5 -10.5t60 -32.5t40.5 -56t15 -81v-60h45v-130h-370v130z" />
    <glyph glyph-name="rehf" unicode="&#x631;" horiz-adv-x="240" arabic-form="final" 
d="M-89 -42q17 -6 38 -11t41 -5q30 0 52.5 13t22.5 45v310q0 8 6 14t14 6h90q8 0 14 -6t6 -14v-180h45v-130h-45q0 -46 -13.5 -79.5t-36.5 -55t-54 -32t-66 -10.5q-71 0 -145 40z" />
    <glyph glyph-name="zainf" unicode="&#x632;" horiz-adv-x="240" arabic-form="final" 
d="M75 445q0 21 16 35.5t39 14.5t39 -14.5t16 -35.5t-16 -35.5t-39 -14.5t-39 14.5t-16 35.5zM-89 -42q17 -6 38 -11t41 -5q30 0 52.5 13t22.5 45v310q0 8 6 14t14 6h90q8 0 14 -6t6 -14v-180h45v-130h-45q0 -46 -13.5 -79.5t-36.5 -55t-54 -32t-66 -10.5q-71 0 -145 40z
" />
    <glyph glyph-name="seenf" unicode="&#x633;" horiz-adv-x="960" arabic-form="final" 
d="M475 -60q0 -33 -23.5 -56.5t-56.5 -23.5h-170q-37 0 -70 14t-57.5 38.5t-38.5 57.5t-14 70v120q0 8 6 14t14 6h90q8 0 14 -6t6 -14v-120q0 -20 15 -35t35 -15h120v320q0 8 6 14t14 6h90q8 0 14 -6t6 -14v-180h70v180q0 8 6 14t14 6h90q8 0 14 -6t6 -14v-180h70v180
q0 8 6 14t14 6h90q8 0 14 -6t6 -14v-180h85v-130h-485v-60z" />
    <glyph glyph-name="seenn" unicode="&#x633;" horiz-adv-x="660" arabic-form="initial" 
d="M85 130v180q0 8 6 14t14 6h90q8 0 14 -6t6 -14v-180h70v180q0 8 6 14t14 6h90q8 0 14 -6t6 -14v-180h70v180q0 8 6 14t14 6h90q8 0 14 -6t6 -14v-230q0 -33 -23.5 -56.5t-56.5 -23.5h-535q-13 0 -21.5 8.5t-8.5 21.5v70q0 13 8.5 21.5t21.5 8.5h85z" />
    <glyph glyph-name="seenm" unicode="&#x633;" horiz-adv-x="700" arabic-form="medial" 
d="M0 0q-13 0 -21.5 8.5t-8.5 21.5v70q0 13 8.5 21.5t21.5 8.5h85v180q0 8 6 14t14 6h90q8 0 14 -6t6 -14v-180h70v180q0 8 6 14t14 6h90q8 0 14 -6t6 -14v-180h70v180q0 8 6 14t14 6h90q8 0 14 -6t6 -14v-180h85v-130h-700z" />
    <glyph glyph-name="sheenf" unicode="&#x634;" horiz-adv-x="960" arabic-form="final" 
d="M490 425q0 19 16 32t39 13t39 -13t16 -32t-16 -32t-39 -13t-39 13t-16 32zM620 425q0 19 16 32t39 13t39 -13t16 -32t-16 -32t-39 -13t-39 13t-16 32zM555 525q0 19 16 32t39 13t39 -13t16 -32t-16 -32t-39 -13t-39 13t-16 32zM475 -60q0 -33 -23.5 -56.5t-56.5 -23.5
h-170q-37 0 -70 14t-57.5 38.5t-38.5 57.5t-14 70v120q0 8 6 14t14 6h90q8 0 14 -6t6 -14v-120q0 -20 15 -35t35 -15h120v320q0 8 6 14t14 6h90q8 0 14 -6t6 -14v-180h70v180q0 8 6 14t14 6h90q8 0 14 -6t6 -14v-180h70v180q0 8 6 14t14 6h90q8 0 14 -6t6 -14v-180h85v-130
h-485v-60z" />
    <glyph glyph-name="sheenn" unicode="&#x634;" horiz-adv-x="660" arabic-form="initial" 
d="M230 425q0 19 16 32t39 13t39 -13t16 -32t-16 -32t-39 -13t-39 13t-16 32zM360 425q0 19 16 32t39 13t39 -13t16 -32t-16 -32t-39 -13t-39 13t-16 32zM295 525q0 19 16 32t39 13t39 -13t16 -32t-16 -32t-39 -13t-39 13t-16 32zM85 130v180q0 8 6 14t14 6h90q8 0 14 -6
t6 -14v-180h70v180q0 8 6 14t14 6h90q8 0 14 -6t6 -14v-180h70v180q0 8 6 14t14 6h90q8 0 14 -6t6 -14v-230q0 -33 -23.5 -56.5t-56.5 -23.5h-535q-13 0 -21.5 8.5t-8.5 21.5v70q0 13 8.5 21.5t21.5 8.5h85z" />
    <glyph glyph-name="sheenm" unicode="&#x634;" horiz-adv-x="700" arabic-form="medial" 
d="M230 425q0 19 16 32t39 13t39 -13t16 -32t-16 -32t-39 -13t-39 13t-16 32zM360 425q0 19 16 32t39 13t39 -13t16 -32t-16 -32t-39 -13t-39 13t-16 32zM295 525q0 19 16 32t39 13t39 -13t16 -32t-16 -32t-39 -13t-39 13t-16 32zM0 0q-13 0 -21.5 8.5t-8.5 21.5v70
q0 13 8.5 21.5t21.5 8.5h85v180q0 8 6 14t14 6h90q8 0 14 -6t6 -14v-180h70v180q0 8 6 14t14 6h90q8 0 14 -6t6 -14v-180h70v180q0 8 6 14t14 6h90q8 0 14 -6t6 -14v-180h85v-130h-700z" />
    <glyph glyph-name="sadf" unicode="&#x635;" horiz-adv-x="920" arabic-form="final" 
d="M475 218l90 82q16 14 34 22t41 8h155q33 0 56.5 -23.5t23.5 -56.5v-120h45v-130h-445v-60q0 -33 -23.5 -56.5t-56.5 -23.5h-170q-37 0 -70 14t-57.5 38.5t-38.5 57.5t-14 70v120q0 8 6 14t14 6h90q8 0 14 -6t6 -14v-120q0 -20 15 -35t35 -15h120v320q0 8 6 14t14 6h90
q8 0 14 -6t6 -14v-92zM541 130h204v70h-113z" />
    <glyph glyph-name="sadn" unicode="&#x635;" horiz-adv-x="620" arabic-form="initial" 
d="M-30 100q0 13 8.5 21.5t21.5 8.5h45v180q0 8 6 14t14 6h90q8 0 14 -6t6 -14v-92l90 82q16 14 34 22t41 8h155q33 0 56.5 -23.5t23.5 -56.5v-170q0 -33 -23.5 -56.5t-56.5 -23.5h-495q-13 0 -21.5 8.5t-8.5 21.5v70zM241 130h204v70h-113z" />
    <glyph glyph-name="sadm" unicode="&#x635;" horiz-adv-x="620" arabic-form="medial" 
d="M-30 100q0 13 8.5 21.5t21.5 8.5h45v180q0 8 6 14t14 6h90q8 0 14 -6t6 -14v-92l90 82q16 14 34 22t41 8h155q33 0 56.5 -23.5t23.5 -56.5v-120h45v-130h-620q-13 0 -21.5 8.5t-8.5 21.5v70zM241 130h204v70h-113z" />
    <glyph glyph-name="dadf" unicode="&#x636;" horiz-adv-x="920" arabic-form="final" 
d="M555 445q0 21 16 35.5t39 14.5t39 -14.5t16 -35.5t-16 -35.5t-39 -14.5t-39 14.5t-16 35.5zM475 218l90 82q16 14 34 22t41 8h155q33 0 56.5 -23.5t23.5 -56.5v-120h45v-130h-445v-60q0 -33 -23.5 -56.5t-56.5 -23.5h-170q-37 0 -70 14t-57.5 38.5t-38.5 57.5t-14 70v120
q0 8 6 14t14 6h90q8 0 14 -6t6 -14v-120q0 -20 15 -35t35 -15h120v320q0 8 6 14t14 6h90q8 0 14 -6t6 -14v-92zM541 130h204v70h-113z" />
    <glyph glyph-name="dadn" unicode="&#x636;" horiz-adv-x="620" arabic-form="initial" 
d="M295 445q0 21 16 35.5t39 14.5t39 -14.5t16 -35.5t-16 -35.5t-39 -14.5t-39 14.5t-16 35.5zM-30 100q0 13 8.5 21.5t21.5 8.5h45v180q0 8 6 14t14 6h90q8 0 14 -6t6 -14v-92l90 82q16 14 34 22t41 8h155q33 0 56.5 -23.5t23.5 -56.5v-170q0 -33 -23.5 -56.5t-56.5 -23.5
h-495q-13 0 -21.5 8.5t-8.5 21.5v70zM241 130h204v70h-113z" />
    <glyph glyph-name="dadm" unicode="&#x636;" horiz-adv-x="620" arabic-form="medial" 
d="M295 445q0 21 16 35.5t39 14.5t39 -14.5t16 -35.5t-16 -35.5t-39 -14.5t-39 14.5t-16 35.5zM-30 100q0 13 8.5 21.5t21.5 8.5h45v180q0 8 6 14t14 6h90q8 0 14 -6t6 -14v-92l90 82q16 14 34 22t41 8h155q33 0 56.5 -23.5t23.5 -56.5v-120h45v-130h-620q-13 0 -21.5 8.5
t-8.5 21.5v70zM241 130h204v70h-113z" />
    <glyph glyph-name="tahf" unicode="&#x637;" horiz-adv-x="700" arabic-form="final" 
d="M50 100q0 13 8.5 21.5t21.5 8.5h45v400q0 8 6 14t14 6h90q8 0 14 -6t6 -14v-278l53 48q16 14 34 22t41 8h192q33 0 56.5 -23.5t23.5 -56.5v-120h45v-130h-620q-13 0 -21.5 8.5t-8.5 21.5v70zM284 130h241v70h-151z" />
    <glyph glyph-name="tahn" unicode="&#x637;" horiz-adv-x="620" arabic-form="initial" 
d="M-30 100q0 13 8.5 21.5t21.5 8.5h45v400q0 8 6 14t14 6h90q8 0 14 -6t6 -14v-278l53 48q16 14 34 22t41 8h192q33 0 56.5 -23.5t23.5 -56.5v-170q0 -33 -23.5 -56.5t-56.5 -23.5h-495q-13 0 -21.5 8.5t-8.5 21.5v70zM204 130h241v70h-151z" />
    <glyph glyph-name="tahm" unicode="&#x637;" horiz-adv-x="620" arabic-form="medial" 
d="M-30 100q0 13 8.5 21.5t21.5 8.5h45v400q0 8 6 14t14 6h90q8 0 14 -6t6 -14v-278l53 48q16 14 34 22t41 8h192q33 0 56.5 -23.5t23.5 -56.5v-120h45v-130h-620q-13 0 -21.5 8.5t-8.5 21.5v70zM204 130h241v70h-151z" />
    <glyph glyph-name="zahf" unicode="&#x638;" horiz-adv-x="700" arabic-form="final" 
d="M405 445q0 21 16 35.5t39 14.5t39 -14.5t16 -35.5t-16 -35.5t-39 -14.5t-39 14.5t-16 35.5zM50 100q0 13 8.5 21.5t21.5 8.5h45v400q0 8 6 14t14 6h90q8 0 14 -6t6 -14v-278l53 48q16 14 34 22t41 8h192q33 0 56.5 -23.5t23.5 -56.5v-120h45v-130h-620q-13 0 -21.5 8.5
t-8.5 21.5v70zM284 130h241v70h-151z" />
    <glyph glyph-name="zahn" unicode="&#x638;" horiz-adv-x="620" arabic-form="initial" 
d="M325 445q0 21 16 35.5t39 14.5t39 -14.5t16 -35.5t-16 -35.5t-39 -14.5t-39 14.5t-16 35.5zM-30 100q0 13 8.5 21.5t21.5 8.5h45v400q0 8 6 14t14 6h90q8 0 14 -6t6 -14v-278l53 48q16 14 34 22t41 8h192q33 0 56.5 -23.5t23.5 -56.5v-170q0 -33 -23.5 -56.5t-56.5 -23.5
h-495q-13 0 -21.5 8.5t-8.5 21.5v70zM204 130h241v70h-151z" />
    <glyph glyph-name="zahm" unicode="&#x638;" horiz-adv-x="620" arabic-form="medial" 
d="M325 445q0 21 16 35.5t39 14.5t39 -14.5t16 -35.5t-16 -35.5t-39 -14.5t-39 14.5t-16 35.5zM-30 100q0 13 8.5 21.5t21.5 8.5h45v400q0 8 6 14t14 6h90q8 0 14 -6t6 -14v-278l53 48q16 14 34 22t41 8h192q33 0 56.5 -23.5t23.5 -56.5v-120h45v-130h-620q-13 0 -21.5 8.5
t-8.5 21.5v70zM204 130h241v70h-151z" />
    <glyph glyph-name="ainf" unicode="&#x639;" horiz-adv-x="510" arabic-form="final" 
d="M233 0q-26 0 -42 -16t-16 -36q0 -18 9.5 -30t25 -19t34.5 -10t38 -3q46 0 73 8v-123q-23 -4 -43.5 -5.5t-40.5 -1.5q-54 0 -96 14t-71 38.5t-44 58t-15 71.5q0 42 19.5 82t57.5 66l-56 98q-5 9 -8 22t-3 25q0 17 5 33.5t15 29t25 20.5t35 8h250q20 0 35 -8t25 -20.5
t15 -29t5 -33.5q0 -12 -2.5 -24t-8.5 -23l-36 -62h92v-130h-277zM312 200h-103l25 -70h51z" />
    <glyph glyph-name="ainn" unicode="&#x639;" horiz-adv-x="420" arabic-form="initial" 
d="M-30 100q0 12 8 21t22 9h65q-22 34 -22 74q0 36 14 63t37.5 45t54.5 27t65 9q38 0 74.5 -11t68.5 -33l-46 -92q-14 7 -37.5 13.5t-45.5 6.5q-29 0 -40 -13.5t-11 -28.5q0 -29 22.5 -44.5t64.5 -15.5h114l-28 -130h-350q-13 0 -21.5 8.5t-8.5 21.5v70z" />
    <glyph glyph-name="ainm" unicode="&#x639;" horiz-adv-x="500" arabic-form="medial" 
d="M-30 100q0 13 8.5 21.5t21.5 8.5h91l-35 62q-5 10 -8 22.5t-3 24.5q0 17 5 33.5t15 29t25 20.5t35 8h250q20 0 35 -8t25 -20.5t15 -29t5 -33.5q0 -12 -2.5 -24t-8.5 -23l-36 -62h92v-130h-500q-13 0 -21.5 8.5t-8.5 21.5v70zM302 200h-103l25 -70h51z" />
    <glyph glyph-name="ghainf" unicode="&#x63a;" horiz-adv-x="510" arabic-form="final" 
d="M200 445q0 21 16 35.5t39 14.5t39 -14.5t16 -35.5t-16 -35.5t-39 -14.5t-39 14.5t-16 35.5zM233 0q-26 0 -42 -16t-16 -36q0 -18 9.5 -30t25 -19t34.5 -10t38 -3q46 0 73 8v-123q-23 -4 -43.5 -5.5t-40.5 -1.5q-54 0 -96 14t-71 38.5t-44 58t-15 71.5q0 42 19.5 82
t57.5 66l-56 98q-5 9 -8 22t-3 25q0 17 5 33.5t15 29t25 20.5t35 8h250q20 0 35 -8t25 -20.5t15 -29t5 -33.5q0 -12 -2.5 -24t-8.5 -23l-36 -62h92v-130h-277zM312 200h-103l25 -70h51z" />
    <glyph glyph-name="ghainn" unicode="&#x63a;" horiz-adv-x="420" arabic-form="initial" 
d="M135 445q0 21 16 35.5t39 14.5t39 -14.5t16 -35.5t-16 -35.5t-39 -14.5t-39 14.5t-16 35.5zM-30 100q0 12 8 21t22 9h65q-22 34 -22 74q0 36 14 63t37.5 45t54.5 27t65 9q38 0 74.5 -11t68.5 -33l-46 -92q-14 7 -37.5 13.5t-45.5 6.5q-29 0 -40 -13.5t-11 -28.5
q0 -29 22.5 -44.5t64.5 -15.5h114l-28 -130h-350q-13 0 -21.5 8.5t-8.5 21.5v70z" />
    <glyph glyph-name="ghainm" unicode="&#x63a;" horiz-adv-x="500" arabic-form="medial" 
d="M195 445q0 21 16 35.5t39 14.5t39 -14.5t16 -35.5t-16 -35.5t-39 -14.5t-39 14.5t-16 35.5zM-30 100q0 13 8.5 21.5t21.5 8.5h91l-35 62q-5 10 -8 22.5t-3 24.5q0 17 5 33.5t15 29t25 20.5t35 8h250q20 0 35 -8t25 -20.5t15 -29t5 -33.5q0 -12 -2.5 -24t-8.5 -23l-36 -62
h92v-130h-500q-13 0 -21.5 8.5t-8.5 21.5v70zM302 200h-103l25 -70h51z" />
    <glyph glyph-name="fehf" unicode="&#x641;" horiz-adv-x="850" arabic-form="final" 
d="M576 445q0 21 16 35.5t39 14.5t39 -14.5t16 -35.5t-16 -35.5t-39 -14.5t-39 14.5t-16 35.5zM720 330q33 0 56.5 -23.5t23.5 -56.5v-120h50v-130h-720q-33 0 -56.5 23.5t-23.5 56.5v230q0 8 6 14t14 6h90q8 0 14 -6t6 -14v-180h282q-17 36 -17 67q0 27 12 51.5t33.5 42.5
t52 28.5t67.5 10.5h110zM675 130v70h-54q-20 0 -33 -10t-13 -25q0 -14 13.5 -24.5t32.5 -10.5h54z" />
    <glyph glyph-name="fehn" unicode="&#x641;" horiz-adv-x="450" arabic-form="initial" 
d="M180 445q0 21 16 35.5t39 14.5t39 -14.5t16 -35.5t-16 -35.5t-39 -14.5t-39 14.5t-16 35.5zM-30 100q0 13 8.5 21.5t21.5 8.5h62q-9 19 -13 36.5t-4 32.5q0 30 13 54t35 41.5t50.5 26.5t59.5 9h122q33 0 56.5 -23.5t23.5 -56.5v-230q0 -8 -6 -14t-14 -6h-385
q-13 0 -21.5 8.5t-8.5 21.5v70zM221 200q-20 0 -33 -10t-13 -25q0 -14 13 -24.5t33 -10.5h54v70h-54z" />
    <glyph glyph-name="fehm" unicode="&#x641;" horiz-adv-x="450" arabic-form="medial" 
d="M180 445q0 21 16 35.5t39 14.5t39 -14.5t16 -35.5t-16 -35.5t-39 -14.5t-39 14.5t-16 35.5zM-30 100q0 13 8.5 21.5t21.5 8.5h62q-9 19 -13 36.5t-4 32.5q0 30 13 54t35 41.5t50.5 26.5t59.5 9h122q33 0 56.5 -23.5t23.5 -56.5v-120h45v-130h-450q-13 0 -21.5 8.5
t-8.5 21.5v70zM221 200q-20 0 -33 -10t-13 -25q0 -14 13 -24.5t33 -10.5h54v70h-54z" />
    <glyph glyph-name="qaff" unicode="&#x642;" horiz-adv-x="640" arabic-form="final" 
d="M300 445q0 21 16 35.5t39 14.5t39 -14.5t16 -35.5t-16 -35.5t-39 -14.5t-39 14.5t-16 35.5zM430 445q0 21 16 35.5t39 14.5t39 -14.5t16 -35.5t-16 -35.5t-39 -14.5t-39 14.5t-16 35.5zM415 -50q21 0 35.5 15t14.5 35h-125q-40 0 -67.5 27.5t-27.5 67.5v70q0 43 16 74
t42.5 51t61 30t71.5 10q42 0 83.5 -12t75.5 -35v-153h45v-130h-45q0 -37 -14 -70t-38.5 -57.5t-57.5 -38.5t-70 -14h-190q-37 0 -70 14t-57.5 38.5t-38.5 57.5t-14 70v155q0 8 6 14t14 6h90q8 0 14 -6t6 -14v-155q0 -20 15 -35t35 -15h190zM465 130v63q-18 7 -35 7
q-23 0 -39 -9t-16 -26v-35h90z" />
    <glyph glyph-name="qafn" unicode="&#x642;" horiz-adv-x="450" arabic-form="initial" 
d="M105 445q0 21 16 35.5t39 14.5t39 -14.5t16 -35.5t-16 -35.5t-39 -14.5t-39 14.5t-16 35.5zM235 445q0 21 16 35.5t39 14.5t39 -14.5t16 -35.5t-16 -35.5t-39 -14.5t-39 14.5t-16 35.5zM-30 100q0 13 8.5 21.5t21.5 8.5h62q-9 19 -13 36.5t-4 32.5q0 30 13 54t35 41.5
t50.5 26.5t59.5 9h122q33 0 56.5 -23.5t23.5 -56.5v-230q0 -8 -6 -14t-14 -6h-385q-13 0 -21.5 8.5t-8.5 21.5v70zM221 200q-20 0 -33 -10t-13 -25q0 -14 13 -24.5t33 -10.5h54v70h-54z" />
    <glyph glyph-name="qafm" unicode="&#x642;" horiz-adv-x="450" arabic-form="medial" 
d="M105 445q0 21 16 35.5t39 14.5t39 -14.5t16 -35.5t-16 -35.5t-39 -14.5t-39 14.5t-16 35.5zM235 445q0 21 16 35.5t39 14.5t39 -14.5t16 -35.5t-16 -35.5t-39 -14.5t-39 14.5t-16 35.5zM-30 100q0 13 8.5 21.5t21.5 8.5h62q-9 19 -13 36.5t-4 32.5q0 30 13 54t35 41.5
t50.5 26.5t59.5 9h122q33 0 56.5 -23.5t23.5 -56.5v-120h45v-130h-450q-13 0 -21.5 8.5t-8.5 21.5v70zM221 200q-20 0 -33 -10t-13 -25q0 -14 13 -24.5t33 -10.5h54v70h-54z" />
    <glyph glyph-name="kaff" unicode="&#x643;" horiz-adv-x="670" arabic-form="final" 
d="M125 0q-33 0 -56.5 23.5t-23.5 56.5v200q0 8 6 14t14 6h90q8 0 14 -6t6 -14v-150h320v400q0 8 6 14t14 6h90q8 0 14 -6t6 -14v-400h45v-130h-545zM250 298h103v7q0 20 -13 27.5t-28 7.5q-14 0 -27 -5l-34 56l123 124l38 -59l-66 -66q35 -5 54.5 -23.5t19.5 -56.5v-80
h-170v68z" />
    <glyph glyph-name="kafn" unicode="&#x643;" horiz-adv-x="410" arabic-form="initial" 
d="M0 0q-13 0 -21.5 8.5t-8.5 21.5v70q0 13 8.5 21.5t21.5 8.5h235v38q0 40 -25 56t-57 16q-30 0 -58 -11q-9 19 -15.5 31t-13 22.5t-13 22.5t-15.5 31l241 242l92 -92l-138 -139q28 -6 52.5 -19t42 -34.5t27.5 -52.5t10 -73v-148q0 -8 -6 -14t-14 -6h-345z" />
    <glyph glyph-name="kafm" unicode="&#x643;" horiz-adv-x="410" arabic-form="medial" 
d="M0 0q-13 0 -21.5 8.5t-8.5 21.5v70q0 13 8.5 21.5t21.5 8.5h235v38q0 40 -25 56t-57 16q-30 0 -58 -11q-9 19 -15.5 31t-13 22.5t-13 22.5t-15.5 31l242 242l92 -92l-139 -139q28 -6 52.5 -19t42 -34.5t27.5 -52.5t10 -73v-38h45v-130h-410z" />
    <glyph glyph-name="lamf" unicode="&#x644;" horiz-adv-x="520" arabic-form="final" 
d="M475 130h45v-130h-45v-70q0 -33 -23.5 -56.5t-56.5 -23.5h-170q-37 0 -70 14t-57.5 38.5t-38.5 57.5t-14 70v130q0 8 6 14t14 6h90q8 0 14 -6t6 -14v-130q0 -18 15 -34t35 -16h120v550q0 8 6 14t14 6h90q8 0 14 -6t6 -14v-400z" />
    <glyph glyph-name="lamn" unicode="&#x644;" horiz-adv-x="220" arabic-form="initial" 
d="M45 130v400q0 8 6 14t14 6h90q8 0 14 -6t6 -14v-450q0 -33 -23.5 -56.5t-56.5 -23.5h-95q-13 0 -21.5 8.5t-8.5 21.5v70q0 13 8.5 21.5t21.5 8.5h45z" />
    <glyph glyph-name="lamm" unicode="&#x644;" horiz-adv-x="220" arabic-form="medial" 
d="M-30 100q0 13 8.5 21.5t21.5 8.5h45v400q0 8 6 14t14 6h90q8 0 14 -6t6 -14v-400h45v-130h-220q-13 0 -21.5 8.5t-8.5 21.5v70z" />
    <glyph glyph-name="meemf" unicode="&#x645;" horiz-adv-x="440" arabic-form="final" 
d="M45 170q0 41 17 71.5t44.5 50t63 29t72.5 9.5q41 0 81 -13t72 -37v-150h45v-130h-265v-120h-130v290zM265 130v63q-18 7 -35 7q-23 0 -39 -9t-16 -26v-35h90z" />
    <glyph glyph-name="meemn" unicode="&#x645;" horiz-adv-x="440" arabic-form="initial" 
d="M0 0q-13 0 -21.5 8.5t-8.5 21.5v70q0 13 8.5 21.5t21.5 8.5h45v28q0 36 17.5 63.5t45.5 45.5t63.5 27t72.5 9q42 0 83.5 -13t67.5 -36v-162q0 -35 -14 -60t-37.5 -41t-54.5 -23.5t-64 -7.5q-42 0 -80.5 10.5t-70.5 29.5h-74zM175 101q24 -11 46 -11q18 0 31 5t13 12v59
q-17 7 -37 7q-23 0 -38 -8t-15 -22v-42z" />
    <glyph glyph-name="meemm" unicode="&#x645;" horiz-adv-x="440" arabic-form="medial" 
d="M-30 100q0 13 8.5 21.5t21.5 8.5h45v32q0 40 17 67t42.5 43.5t56.5 23.5t59 7q31 0 62.5 -8t56.5 -25.5t40.5 -46t15.5 -70.5v-23h45v-130h-61q-25 -26 -67 -38t-89 -12t-90.5 12.5t-71.5 37.5h-61q-13 0 -21.5 8.5t-8.5 21.5v70zM175 100q0 -11 14 -15.5t31 -4.5t31 4.5
t14 15.5v40q0 17 -14 25t-31 8t-31 -8t-14 -25v-40z" />
    <glyph glyph-name="noonf" unicode="&#x646;" horiz-adv-x="520" arabic-form="final" 
d="M205 445q0 21 16 35.5t39 14.5t39 -14.5t16 -35.5t-16 -35.5t-39 -14.5t-39 14.5t-16 35.5zM475 130h45v-130h-45v-70q0 -33 -23.5 -56.5t-56.5 -23.5h-170q-37 0 -70 14t-57.5 38.5t-38.5 57.5t-14 70v153q0 8 6 14t14 6h90q8 0 14 -6t6 -14v-153q0 -18 6.5 -28t17 -15
t23.5 -6t26 -1h97v330q0 8 6 14t14 6h90q8 0 14 -6t6 -14v-180z" />
    <glyph glyph-name="noonn" unicode="&#x646;" horiz-adv-x="260" arabic-form="initial" 
d="M95 445q0 21 16 35.5t39 14.5t39 -14.5t16 -35.5t-16 -35.5t-39 -14.5t-39 14.5t-16 35.5zM-30 100q0 13 8.5 21.5t21.5 8.5h85v180q0 8 6 14t14 6h90q8 0 14 -6t6 -14v-230q0 -33 -23.5 -56.5t-56.5 -23.5h-135q-13 0 -21.5 8.5t-8.5 21.5v70z" />
    <glyph glyph-name="noonm" unicode="&#x646;" horiz-adv-x="300" arabic-form="medial" 
d="M95 445q0 21 16 35.5t39 14.5t39 -14.5t16 -35.5t-16 -35.5t-39 -14.5t-39 14.5t-16 35.5zM-30 100q0 13 8.5 21.5t21.5 8.5h85v180q0 8 6 14t14 6h90q8 0 14 -6t6 -14v-180h85v-130h-300q-13 0 -21.5 8.5t-8.5 21.5v70z" />
    <glyph glyph-name="heh" unicode="&#x647;" horiz-adv-x="440" arabic-form="isolated" 
d="M45 0v170q0 41 17 71.5t44.5 50t63 29t72.5 9.5q41 0 81 -13t72 -37v-280h-350zM265 130v63q-18 7 -35 7q-23 0 -39 -9t-16 -26v-35h90z" />
    <glyph glyph-name="hehf" unicode="&#x647;" horiz-adv-x="460" arabic-form="final" 
d="M460 0h-315q-54 0 -77 20.5t-23 52.5q0 24 12 54l55 139q11 28 36 46t57 18h190q8 0 14 -6t6 -14v-180h45v-130zM285 130v70h-60l-27 -70h87z" />
    <glyph glyph-name="hehn" unicode="&#x647;" horiz-adv-x="600" arabic-form="initial" 
d="M-30 100q0 13 8.5 21.5t21.5 8.5h62q-17 27 -17 63q0 28 12 52.5t33.5 43.5t51 30t64.5 11h59l-15 60q29 10 59 14.5t57 4.5q39 0 73.5 -10.5t60 -32t40.5 -55.5t15 -81v-210q0 -8 -6 -14t-14 -6h-535q-13 0 -21.5 8.5t-8.5 21.5v70zM425 230q0 30 -19.5 42.5t-49.5 13.5
q12 -17 12 -36v-120h57v100zM245 130v70h-32q-18 0 -28 -10.5t-10 -24.5t10 -24.5t28 -10.5h32z" />
    <glyph glyph-name="hehm" unicode="&#x647;" horiz-adv-x="600" arabic-form="medial" 
d="M-30 100q0 13 8.5 21.5t21.5 8.5h62q-17 27 -17 63q0 28 12 52.5t33.5 43.5t51 30t64.5 11h59l-15 60q29 10 59 14.5t57 4.5q39 0 73.5 -10.5t60 -32t40.5 -55.5t15 -81v-100h45v-130h-600q-13 0 -21.5 8.5t-8.5 21.5v70zM425 230q0 30 -19.5 42.5t-49.5 13.5
q12 -17 12 -36v-120h57v100zM245 130v70h-32q-18 0 -28 -10.5t-10 -24.5t10 -24.5t28 -10.5h32z" />
    <glyph glyph-name="wawf" unicode="&#x648;" horiz-adv-x="440" arabic-form="final" 
d="M145 0q-42 0 -71 29t-29 71v60q0 44 15.5 76t42 53t60.5 31t71 10q42 0 84 -12.5t77 -37.5v-150h45v-130h-45q0 -45 -13.5 -78.5t-36.5 -55.5t-54 -33t-66 -11t-79.5 10t-80.5 31l29 94q20 -7 44 -12.5t48 -5.5q32 0 55.5 13t23.5 48h-120zM265 130v64l-18 4q-9 2 -17 2
q-23 0 -39 -10t-16 -30v-30h90z" />
    <glyph glyph-name="maksuraf" unicode="&#x649;" horiz-adv-x="550" arabic-form="final" 
d="M548 -22q13 -14 22 -30.5t9 -37.5q0 -38 -26 -64t-64 -26h-264q-37 0 -70 14t-57.5 38.5t-38.5 57.5t-14 70v120q0 8 6 14t14 6h90q8 0 14 -6t6 -14v-120q0 -21 15 -35.5t35 -14.5h194l-120 119q-10 10 -14.5 22t-4.5 24q0 27 19.5 46t45.5 19q25 0 46 -19l31 -31h128
v-130h-24z" />
    <glyph glyph-name="yehf" unicode="&#x64a;" horiz-adv-x="550" arabic-form="final" 
d="M215 -280.5q0 18.5 16 32t39 13.5t39 -13.5t16 -32t-16 -32t-39 -13.5t-39 13.5t-16 32zM345 -280.5q0 18.5 16 32t39 13.5t39 -13.5t16 -32t-16 -32t-39 -13.5t-39 13.5t-16 32zM548 -22q13 -14 22 -30.5t9 -37.5q0 -38 -26 -64t-64 -26h-264q-37 0 -70 14t-57.5 38.5
t-38.5 57.5t-14 70v120q0 8 6 14t14 6h90q8 0 14 -6t6 -14v-120q0 -21 15 -35.5t35 -14.5h194l-120 119q-10 10 -14.5 22t-4.5 24q0 27 19.5 46t45.5 19q25 0 46 -19l31 -31h128v-130h-24z" />
    <glyph glyph-name="yehn" unicode="&#x64a;" horiz-adv-x="260" arabic-form="initial" 
d="M-20 -105q0 21 16 35.5t39 14.5t39 -14.5t16 -35.5t-16 -35.5t-39 -14.5t-39 14.5t-16 35.5zM110 -105q0 21 16 35.5t39 14.5t39 -14.5t16 -35.5t-16 -35.5t-39 -14.5t-39 14.5t-16 35.5zM-30 100q0 13 8.5 21.5t21.5 8.5h85v180q0 8 6 14t14 6h90q8 0 14 -6t6 -14v-230
q0 -33 -23.5 -56.5t-56.5 -23.5h-135q-13 0 -21.5 8.5t-8.5 21.5v70z" />
    <glyph glyph-name="yehm" unicode="&#x64a;" horiz-adv-x="300" arabic-form="medial" 
d="M0 -105q0 21 16 35.5t39 14.5t39 -14.5t16 -35.5t-16 -35.5t-39 -14.5t-39 14.5t-16 35.5zM130 -105q0 21 16 35.5t39 14.5t39 -14.5t16 -35.5t-16 -35.5t-39 -14.5t-39 14.5t-16 35.5zM-30 100q0 13 8.5 21.5t21.5 8.5h85v180q0 8 6 14t14 6h90q8 0 14 -6t6 -14v-180h85
v-130h-300q-13 0 -21.5 8.5t-8.5 21.5v70z" />
    <glyph glyph-name=".notdef" horiz-adv-x="592" 
d="M108 365h-21v-47h-37v146h95v-146h-37v47zM490 -40h-37v87h-21v-87h-37v87h-21v-87h-37v106h153v-106zM165 464h37v-40h58v-106h-95v146zM375 318h-95v106h58v40h37v-146zM490 318h-95v106h95v-106zM235 117h-95v106h95v-106zM317 -40h-95v106h95v-106zM350 117h-37v87
h-21v-87h-37v106h95v-106zM107 66h95v-34h-37v15h-21v-68h21v15h37v-34h-95v106zM484 204v-24h58v-63h-95v19h58v25h-58v62h95v-19h-58zM87 164v-47h-37v146h75v-19h-38v-61h38v-19h-38zM407 204v-87h-37v146h37v-40h25v-19h-25zM317 337h21v68h-21v-68zM177 136h21v68h-21
v-68zM202 337h21v68h-21v-68zM259 -21h21v68h-21v-68zM432 337h21v68h-21v-68zM87 384h21v61h-21v-61zM87 -40h-37v29h37v-29z" />
    <glyph glyph-name=".null" 
 />
    <glyph glyph-name="nonmarkingreturn" horiz-adv-x="439" 
 />
    <glyph glyph-name="space" unicode=" " horiz-adv-x="120" 
 />
    <glyph glyph-name="space" unicode="&#xa0;" horiz-adv-x="120" 
 />
    <glyph glyph-name="exclam" unicode="!" horiz-adv-x="290" 
d="M100 180q-8 0 -14 6t-6 14v310q0 8 6 14t14 6h90q8 0 14 -6t6 -14v-310q0 -8 -6 -14t-14 -6h-90zM100 0q-8 0 -14 6t-6 14v90q0 8 6 14t14 6h90q8 0 14 -6t6 -14v-90q0 -8 -6 -14t-14 -6h-90z" />
    <glyph glyph-name="quotedbl" unicode="&#x22;" horiz-adv-x="453" 
d="M100 370l-20 220h118l-20 -220h-78zM275 370l-20 220h118l-20 -220h-78z" />
    <glyph glyph-name="numbersign" unicode="#" horiz-adv-x="630" 
d="M110 460h86l13 90h98l-13 -90h102l13 90h98l-13 -90h56v-90h-68l-19 -140h57v-90h-70l-12 -90h-98l12 90h-102l-12 -90h-98l12 90h-72v90h85l19 140h-74v90zM263 230h102l19 140h-102z" />
    <glyph glyph-name="percent" unicode="%" horiz-adv-x="691" 
d="M185 0l219 550h106l-219 -550h-106zM148 520q23 0 43.5 -7.5t35.5 -21t24 -32.5t9 -43q0 -25 -9 -44.5t-24 -33t-35.5 -20.5t-43.5 -7q-46 0 -77 27.5t-31 77.5q0 48 31 76t77 28zM150 475q-21 0 -36 -16.5t-15 -42.5t14.5 -42.5t36.5 -16.5t35.5 16t13.5 40q0 28 -14 45
t-35 17zM539 238q23 0 43.5 -7.5t35.5 -21t24 -32.5t9 -43q0 -25 -9 -44.5t-24 -33t-35.5 -20.5t-43.5 -7q-46 0 -77 27.5t-31 77.5q0 48 31 76t77 28zM541 193q-21 0 -36 -16.5t-15 -42.5t14.5 -42.5t36.5 -16.5t35.5 16t13.5 40q0 28 -14 45t-35 17z" />
    <glyph glyph-name="ampersand" unicode="&#x26;" horiz-adv-x="580" 
d="M525 160q-17 -17 -34 -31l-37 -30l79 -99h-150l-33 41q-42 -20 -83.5 -30.5t-78.5 -10.5t-65 10.5t-46.5 28.5t-27.5 41t-9 49q0 45 29 89.5t86 70.5q-16 24 -23 48.5t-7 47.5q0 34 11 58t29.5 39t43.5 22t53 7q41 0 84 -13.5t79 -37.5l-34 -102q-10 8 -24.5 15.5t-30 13
t-31 9t-27.5 3.5q-31 0 -31 -22q0 -14 18 -36l124 -159q17 11 33 24t32 28zM206 112q33 0 77 15l-55 70q-31 -11 -49 -27t-18 -31q0 -12 11.5 -19.5t33.5 -7.5z" />
    <glyph glyph-name="quotesingle" unicode="'" horiz-adv-x="278" 
d="M100 370l-20 220h118l-20 -220h-78z" />
    <glyph glyph-name="parenleft" unicode="(" horiz-adv-x="429" 
d="M258 -129q-37 42 -69.5 89.5t-56.5 99t-38 106t-14 109.5q0 56 13.5 109t37 102t55 94t68.5 85l72 -40q-64 -88 -100 -179.5t-36 -170.5q0 -45 10.5 -91t29.5 -91t44.5 -89t54.5 -85z" />
    <glyph glyph-name="parenright" unicode=")" horiz-adv-x="429" 
d="M171 -129q37 42 69.5 89.5t56.5 99t38 106t14 109.5q0 56 -13.5 109t-37 102t-55 94t-68.5 85l-72 -40q64 -88 100 -179.5t36 -170.5q0 -45 -10.5 -91t-29.5 -91t-44.5 -89t-54.5 -85z" />
    <glyph glyph-name="asterisk" unicode="*" horiz-adv-x="374" 
d="M257 370l-6 -43l-50 -14l-26 35l11 108l-48 -100l-39 -17l-37 39l17 39l101 45l-110 -12l-34 27l13 53l43 4l91 -65l-65 90l5 43l50 14l27 -35l-12 -110l47 101l40 18l37 -39l-15 -40l-102 -45l111 12l32 -26l-12 -52l-44 -6l-90 64z" />
    <glyph glyph-name="plus" unicode="+" horiz-adv-x="510" 
d="M303 288h127v-97h-127v-126h-97v126h-126v97h126v127h97v-127z" />
    <glyph glyph-name="comma" unicode="," horiz-adv-x="300" 
d="M80 110q69 0 104.5 -36.5t35.5 -88.5q0 -42 -25.5 -87.5t-78.5 -83.5l-28 41q24 18 41.5 44t17.5 50q0 19 -15 33.5t-52 17.5v110z" />
    <glyph glyph-name="hyphen" unicode="-" horiz-adv-x="460" 
d="M80 100v98h300v-98h-300z" />
    <glyph glyph-name="period" unicode="." horiz-adv-x="295" 
d="M100 0q-8 0 -14 6t-6 14v95q0 8 6 14t14 6h95q8 0 14 -6t6 -14v-95q0 -8 -6 -14t-14 -6h-95z" />
    <glyph glyph-name="slash" unicode="/" horiz-adv-x="485" 
d="M80 0l219 550h106l-219 -550h-106z" />
    <glyph glyph-name="zero" unicode="0" horiz-adv-x="490" 
d="M440 179q0 -45 -17 -78.5t-44.5 -56t-62.5 -33.5t-71 -11q-37 0 -72 11t-62.5 33.5t-44 56t-16.5 78.5v171q0 45 16.5 78.5t43.5 56t62 33.5t72 11q36 0 71.5 -11.5t63 -34t44.5 -56t17 -77.5v-171zM310 350q0 25 -21 37t-45 12q-25 0 -44.5 -12t-19.5 -37v-171
q0 -25 19.5 -37t45.5 -12q23 0 44 12t21 37v171z" />
    <glyph glyph-name="one" unicode="1" horiz-adv-x="303" 
d="M33 470l100 60h90q8 0 14 -6t6 -14v-490q0 -8 -6 -14t-14 -6h-90q-8 0 -14 6t-6 14v344l-52 -31z" />
    <glyph glyph-name="two" unicode="2" horiz-adv-x="460" 
d="M175 340h-130v60q0 39 14.5 64t40 39.5t59 20.5t71.5 6t73 -6t62 -20.5t43.5 -39.5t16.5 -64v-35q0 -43 -17 -72.5t-48 -54t-74.5 -49.5t-95.5 -59h225v-130h-360q-8 0 -14 6t-6 14v65q0 37 19.5 65.5t48 50.5t62.5 40.5t62.5 36t48 36t19.5 41.5v30q0 18 -15.5 24
t-49.5 6q-32 0 -43.5 -6t-11.5 -24v-45z" />
    <glyph glyph-name="three" unicode="3" horiz-adv-x="482" 
d="M375 269q38 -24 54.5 -53t16.5 -59q0 -39 -16.5 -68t-44.5 -49t-63.5 -30t-72.5 -10q-38 0 -74.5 10.5t-65.5 31.5t-48 53t-21 75h130q2 -29 23 -42t47 -13q22 0 37 4t23 10.5t11.5 14t3.5 14.5q0 18 -20 33t-60 15h-15v119h15q38 0 54 12.5t16 29.5q0 23 -15 35.5
t-37 12.5q-21 0 -42.5 -13.5t-30.5 -41.5h-130q7 42 27 74t47.5 53.5t60.5 32t68 10.5q33 0 65.5 -9t58.5 -27.5t42 -46.5t16 -65q0 -29 -14 -58t-46 -55z" />
    <glyph glyph-name="four" unicode="4" horiz-adv-x="460" 
d="M198 510q5 7 12.5 13.5t15.5 6.5h154q8 0 14 -6t6 -14v-490q0 -8 -6 -14t-14 -6h-90q-8 0 -14 6t-6 14v120h-250v135zM270 270v174l-131 -174h131z" />
    <glyph glyph-name="five" unicode="5" horiz-adv-x="445" 
d="M60 145q27 -12 68 -21.5t78 -9.5q43 0 63.5 15t20.5 32t-20 35.5t-58 18.5h-149q-8 0 -14 6t-6 14l56 275q2 8 7.5 14t14.5 6h264v-122h-185l-16 -70h51q46 0 80.5 -15t58 -39t35 -54.5t11.5 -62.5t-11.5 -62t-35 -53.5t-58.5 -37.5t-82 -14q-51 0 -103.5 15t-99.5 43z
" />
    <glyph glyph-name="six" unicode="6" horiz-adv-x="490" 
d="M180 218v-90q0 -1 21 -4t44 -3t44 3t21 4v72q0 12 -5.5 15t-14.5 3h-110zM244 348q37 0 72.5 -2t63 -13t44 -35t16.5 -69v-110q0 -45 -16.5 -69t-43.5 -35t-62.5 -13t-72.5 -2q-38 0 -73 2t-62 13t-43.5 35t-16.5 69v236q0 47 15.5 80t42.5 54t62.5 31t74.5 10
q49 0 100.5 -15t93.5 -42l-21 -105q-31 19 -72 31t-79 12q-34 0 -60.5 -18.5t-26.5 -44.5h64z" />
    <glyph glyph-name="seven" unicode="7" horiz-adv-x="460" 
d="M410 530l-174 -510q-3 -8 -10 -14t-15 -6h-119l136 400h-188v130h370z" />
    <glyph glyph-name="eight" unicode="8" horiz-adv-x="520" 
d="M180 0q-29 0 -54.5 12t-44.5 32t-30 46t-11 55q0 38 19 71t51 53q-31 26 -45.5 57t-14.5 63q0 27 10 52.5t28 45t44 31.5t58 12h140q31 0 57 -12t44.5 -31.5t28.5 -45t10 -53.5q0 -32 -14.5 -62.5t-45.5 -56.5q32 -20 51 -53t19 -71q0 -29 -11 -55t-30 -46t-44.5 -32
t-54.5 -12h-160zM260 205q-42 0 -66 -17t-24 -40q0 -11 8.5 -20.5t36.5 -9.5h90q29 0 37 9.5t8 20.5q0 23 -24 40t-66 17zM260 325q42 0 61 17.5t19 40.5q0 11 -8 20.5t-37 9.5h-70q-28 0 -36.5 -9.5t-8.5 -20.5q0 -24 19 -41t61 -17z" />
    <glyph glyph-name="nine" unicode="9" horiz-adv-x="508" 
d="M254 183q-38 0 -73 2t-62.5 13t-44 35t-16.5 69v109q0 45 16.5 69t43.5 35t62 13t73 2q37 0 72.5 -2t62.5 -13t43.5 -35t16.5 -69v-236q0 -47 -16 -80t-42.5 -54t-62 -31t-74.5 -10q-51 0 -101.5 15t-94.5 42q5 18 7.5 29.5l4.5 21.5l4 22q2 12 7 30q29 -19 69.5 -30
t78.5 -11q36 0 63 18t27 46h-64zM318 313v82q0 4 -6.5 6.5t-16.5 3.5t-21 1.5t-21 0.5t-21.5 -0.5t-21 -1.5t-16 -3.5t-6.5 -6.5v-65q0 -8 5.5 -12.5t13.5 -4.5h111z" />
    <glyph glyph-name="colon" unicode=":" horiz-adv-x="280" 
d="M100 0q-8 0 -14 6t-6 14v80q0 8 6 14t14 6h80q8 0 14 -6t6 -14v-80q0 -8 -6 -14t-14 -6h-80zM100 200q-8 0 -14 6t-6 14v80q0 8 6 14t14 6h80q8 0 14 -6t6 -14v-80q0 -8 -6 -14t-14 -6h-80z" />
    <glyph glyph-name="semicolon" unicode=";" horiz-adv-x="300" 
d="M100 180q-8 0 -14 6t-6 14v80q0 8 6 14t14 6h80q8 0 14 -6t6 -14v-80q0 -8 -6 -14t-14 -6h-80zM80 110q69 0 104.5 -36.5t35.5 -88.5q0 -42 -25.5 -87.5t-78.5 -83.5l-28 41q24 18 41.5 44t17.5 50q0 19 -15 33.5t-52 17.5v110z" />
    <glyph glyph-name="less" unicode="&#x3c;" horiz-adv-x="609" 
d="M80 200v128l449 196v-112l-349 -147l349 -147v-116z" />
    <glyph glyph-name="equal" unicode="=" horiz-adv-x="560" 
d="M80 110v98h400v-98h-400zM80 270v98h400v-98h-400z" />
    <glyph glyph-name="greater" unicode="&#x3e;" horiz-adv-x="604" 
d="M524 200v128l-449 196v-112l349 -147l-349 -147v-116z" />
    <glyph glyph-name="question" unicode="?" horiz-adv-x="480" 
d="M175 380q0 -8 -6 -14t-14 -6h-90q-8 0 -14 6t-6 14v70q0 39 16.5 61t43.5 33t62 13.5t73 2.5t73 -2.5t62 -13.5t43.5 -33t16.5 -61v-155q0 -23 -9.5 -36t-24 -20.5t-31.5 -12t-31.5 -10t-24 -13.5t-9.5 -23v-20q0 -8 -6 -14t-14 -6h-90q-8 0 -14 6t-6 14v60
q0 22 9.5 34.5t24 20t31.5 12t31.5 10.5t24 17t9.5 31v75q0 10 -20.5 14.5t-43.5 4.5q-11 0 -23 -1t-21.5 -3.5t-15.5 -6t-6 -8.5v-40zM195 0q-8 0 -14 6t-6 14v60q0 8 6 14t14 6h90q8 0 14 -6t6 -14v-60q0 -8 -6 -14t-14 -6h-90z" />
    <glyph glyph-name="at" unicode="@" horiz-adv-x="615" 
d="M544 68q-42 -34 -96.5 -51t-113.5 -17q-76 0 -130.5 21t-90 56.5t-52.5 80.5t-17 93q0 53 19 104.5t55 92.5t88 66t117 25q48 0 93 -15t80 -44.5t56 -73.5t21 -103q0 -41 -12.5 -73.5t-33 -55t-45 -34.5t-48.5 -12q-27 0 -44 7.5t-27 21.5q-29 -23 -67 -23q-29 0 -50 9.5
t-34.5 25t-20.5 36t-7 42.5q0 25 9 50.5t26 45t43 32t59 12.5q35 0 58 -18l5 19h70l-34 -139q-4 -15 -4 -28q0 -19 7.5 -27.5t18.5 -8.5t23.5 8t23.5 23t18 37t7 50q0 33 -13 65t-37.5 56.5t-60.5 40t-81 15.5q-49 0 -87 -20t-64.5 -52.5t-40.5 -74t-14 -84.5q0 -41 13 -79
t41 -68t70 -48t101 -18q49 0 98.5 15.5t94.5 46.5zM321 327q-14 0 -24.5 -8t-17.5 -20t-11 -27t-4 -29q0 -20 7.5 -34.5t24.5 -14.5q12 0 22.5 8.5t18 22t12 29t4.5 30.5q0 18 -7.5 30.5t-24.5 12.5z" />
    <glyph glyph-name="A" unicode="A" horiz-adv-x="470" 
d="M430 20q0 -8 -6 -14t-14 -6h-90q-8 0 -14 6t-6 14v135h-130v-135q0 -8 -6 -14t-14 -6h-90q-8 0 -14 6t-6 14v345q0 42 16.5 73.5t44 51.5t62.5 30t72 10t72 -10t62.5 -30.5t44 -51.5t16.5 -73v-345zM170 285h130v76q0 19 -21 29t-44 10q-11 0 -22.5 -2.5t-21 -7.5
t-15.5 -12t-6 -17v-76z" />
    <glyph glyph-name="B" unicode="B" horiz-adv-x="508" 
d="M325 530q29 0 55 -11t45.5 -30t31 -44.5t11.5 -54.5q0 -38 -19 -70t-51 -51q32 -20 51 -53t19 -71q0 -29 -11 -55t-30 -46t-44.5 -32t-54.5 -12h-268q-8 0 -14 6t-6 14v490q0 8 6 14t14 6h265zM286 130q26 0 39 12t13 29q0 14 -13 27t-39 13h-116v-81h116zM286 318
q26 0 39 12.5t13 28.5q0 15 -13 28t-39 13h-116v-82h116z" />
    <glyph glyph-name="C" unicode="C" horiz-adv-x="470" 
d="M300 185q0 8 6 14t14 6h90q8 0 14 -6t6 -14v-36q0 -43 -17 -71.5t-44.5 -46t-63 -24.5t-71.5 -7q-37 0 -72 7t-62 24.5t-43.5 46t-16.5 71.5v231q0 43 16.5 71.5t43.5 46t62 24.5t72 7q36 0 71.5 -7.5t63 -24.5t44.5 -45.5t17 -71.5v-35q0 -8 -6 -14t-14 -6h-90
q-8 0 -14 6t-6 14v13q0 23 -20 32.5t-45 9.5q-24 0 -44.5 -9.5t-20.5 -32.5v-185q0 -24 20.5 -33.5t44.5 -9.5q25 0 45 9.5t20 33.5v12z" />
    <glyph glyph-name="D" unicode="D" horiz-adv-x="490" 
d="M250 530q37 0 73 -11.5t64.5 -34t45.5 -56t17 -78.5v-171q0 -45 -17 -78.5t-45.5 -56t-64.5 -33.5t-73 -11h-190q-8 0 -14 6t-6 14v490q0 8 6 14t14 6h190zM170 400v-270h80q26 0 48 20.5t22 61.5v105q0 42 -22 62.5t-48 20.5h-80z" />
    <glyph glyph-name="E" unicode="E" horiz-adv-x="448" 
d="M408 0h-348q-8 0 -14 6t-6 14v490q0 8 6 14t14 6h348v-130h-238v-72h238v-123h-238v-75h238v-130z" />
    <glyph glyph-name="F" unicode="F" horiz-adv-x="380" 
d="M170 20q0 -8 -6 -14t-14 -6h-90q-8 0 -14 6t-6 14v490q0 8 6 14t14 6h300v-130h-190v-75h170v-122h-170v-183z" />
    <glyph glyph-name="G" unicode="G" horiz-adv-x="475" 
d="M245 190v108h170q8 0 14 -6t6 -14v-154q0 -45 -17 -70t-44.5 -37t-63.5 -14.5t-73 -2.5q-38 0 -73 2.5t-63 14.5t-44.5 37t-16.5 70v281q0 45 16.5 70t44.5 37.5t63 15t73 2.5q37 0 73 -3t63.5 -15t44.5 -37t17 -70v-35q0 -8 -6 -14t-14 -6h-90q-20 0 -20 20v8
q0 12 -21 17t-47 5t-46.5 -5t-20.5 -17v-227q0 -12 20.5 -16.5t46.5 -4.5t47 4.5t21 16.5v39h-60z" />
    <glyph glyph-name="H" unicode="H" horiz-adv-x="500" 
d="M440 530q8 0 14 -6t6 -14v-490q0 -8 -6 -14t-14 -6h-90q-8 0 -14 6t-6 14v175h-160v-175q0 -8 -6 -14t-14 -6h-90q-8 0 -14 6t-6 14v490q0 8 6 14t14 6h90q8 0 14 -6t6 -14v-185h160v185q0 8 6 14t14 6h90z" />
    <glyph glyph-name="I" unicode="I" horiz-adv-x="210" 
d="M150 530q8 0 14 -6t6 -14v-490q0 -8 -6 -14t-14 -6h-90q-8 0 -14 6t-6 14v490q0 8 6 14t14 6h90z" />
    <glyph glyph-name="J" unicode="J" horiz-adv-x="345" 
d="M21 136q15 -5 39 -10.5t49 -5.5q27 0 46.5 9t19.5 34v347q0 8 6 14t14 6h90q8 0 14 -6t6 -14v-370q0 -38 -12.5 -64.5t-33.5 -43.5t-49 -24.5t-59 -7.5q-37 0 -76 10t-73 28z" />
    <glyph glyph-name="K" unicode="K" horiz-adv-x="517" 
d="M482 0h-135q-14 0 -19.5 6t-10.5 14l-147 206v-206q0 -8 -6 -14t-14 -6h-90q-8 0 -14 6t-6 14v490q0 8 6 14t14 6h90q8 0 14 -6t6 -14v-206l147 206q5 8 11.5 14t20.5 6h133l-190 -265z" />
    <glyph glyph-name="L" unicode="L" horiz-adv-x="335" 
d="M170 130h145v-130h-255q-8 0 -14 6t-6 14v490q0 8 6 14t14 6h90q8 0 14 -6t6 -14v-380z" />
    <glyph glyph-name="M" unicode="M" horiz-adv-x="793" 
d="M317 0q-8 0 -12.5 6t-7.5 14l-87 380l-49 -380q-1 -8 -6.5 -14t-13.5 -6h-113l67 510q1 8 6.5 14t13.5 6h177q8 0 13 -6t7 -14l84 -363l83 363q2 8 7 14t13 6h179q8 0 13.5 -6t6.5 -14l67 -510h-114q-8 0 -13.5 6t-6.5 14l-50 380l-87 -380q-2 -8 -7 -14t-13 -6h-157z
" />
    <glyph glyph-name="N" unicode="N" horiz-adv-x="580" 
d="M170 334v-314q0 -8 -6 -14t-14 -6h-90q-8 0 -14 6t-6 14v490q0 8 6 14t14 6h126l224 -337v317q0 8 6 14t14 6h90q8 0 14 -6t6 -14v-490q0 -8 -6 -14t-14 -6h-130z" />
    <glyph glyph-name="O" unicode="O" horiz-adv-x="470" 
d="M430 132q0 -45 -16.5 -71t-44 -39.5t-63 -17.5t-72.5 -4q-38 0 -73 3.5t-62 17t-43 40t-16 71.5v266q0 45 16 71t43 39.5t62 17.5t73 4q37 0 72.5 -4t63 -17.5t44 -39.5t16.5 -71v-266zM300 383q0 11 -20 15t-46 4q-25 0 -44.5 -4t-19.5 -15v-236q0 -11 19.5 -14.5
t43.5 -3.5q26 0 46.5 3.5t20.5 14.5v236z" />
    <glyph glyph-name="P" unicode="P" horiz-adv-x="490" 
d="M271 295q29 0 44 15.5t15 34.5q0 21 -15 38t-44 17h-101v-105h101zM170 165v-145q0 -8 -6 -14t-14 -6h-90q-8 0 -14 6t-6 14v490q0 8 6 14t14 6h218q45 0 79 -16t57 -42t34.5 -59.5t11.5 -67.5t-11.5 -66.5t-34 -57.5t-56.5 -40.5t-80 -15.5h-108z" />
    <glyph glyph-name="Q" unicode="Q" horiz-adv-x="470" 
d="M430 179q0 -37 -11.5 -66t-31.5 -50h83v-63h-236q-37 0 -72 11t-62 33.5t-43.5 56t-16.5 78.5v171q0 45 16.5 78.5t43.5 56t62 33.5t72 11q36 0 71.5 -11.5t63 -34t44.5 -56t17 -77.5v-171zM300 350q0 27 -20.5 38.5t-45.5 11.5q-24 0 -44 -11.5t-20 -38.5v-171
q0 -29 20.5 -39t44.5 -10q27 0 46 10t19 39v171z" />
    <glyph glyph-name="R" unicode="R" horiz-adv-x="498" 
d="M185 200h-15v-180q0 -8 -6 -14t-14 -6h-90q-8 0 -14 6t-6 14v490q0 8 6 14t14 6h218q45 0 79.5 -15t57 -39t34 -54.5t11.5 -61.5q0 -55 -34.5 -95.5t-103.5 -52.5l47 -62l33 -44l31 -44l47 -62h-136q-12 0 -19.5 6.5t-12.5 13.5zM272 323q29 0 43.5 11.5t14.5 25.5
q0 15 -14.5 27.5t-43.5 12.5h-102v-77h102z" />
    <glyph glyph-name="S" unicode="S" horiz-adv-x="420" 
d="M390 142q0 -36 -15 -63t-41 -44.5t-60 -26t-71 -8.5q-38 0 -80 9t-77 27l36 103q30 -13 60 -19.5t55 -6.5q27 0 45 8.5t18 25.5q0 19 -17 33.5t-43 28.5l-55 28q-30 15 -55.5 35t-42.5 48t-17 67q0 37 15 64t40.5 44.5t59.5 26t72 8.5q39 0 79 -9t78 -26l-36 -105
q-62 28 -114 28q-29 0 -46.5 -9t-17.5 -26q0 -19 17 -33.5t43 -27.5l55 -28q30 -15 55.5 -35.5t42.5 -48.5t17 -68z" />
    <glyph glyph-name="T" unicode="T" horiz-adv-x="450" 
d="M290 408v-388q0 -8 -6 -14t-14 -6h-90q-8 0 -14 6t-6 14v388h-120q-8 0 -14 6t-6 14v82q0 8 6 14t14 6h370q8 0 14 -6t6 -14v-82q0 -8 -6 -14t-14 -6h-120z" />
    <glyph glyph-name="U" unicode="U" horiz-adv-x="470" 
d="M430 157q0 -45 -17 -75t-44.5 -48.5t-62.5 -26t-71 -7.5q-45 0 -81.5 9t-61.5 31t-38.5 59.5t-13.5 94.5v316q0 8 6 14t14 6h90q8 0 14 -6t6 -14v-302q0 -19 1 -34.5t7.5 -27t19.5 -17.5t37 -6t37 6t19.5 17t7.5 26.5t1 35.5v302q0 8 6 14t14 6h90q8 0 14 -6t6 -14v-353z
" />
    <glyph glyph-name="V" unicode="V" horiz-adv-x="472" 
d="M223 130h9l77 380q2 8 7 14t13 6h116l-100 -510q-2 -8 -7 -14t-13 -6h-196q-8 0 -13 6t-7 14l-102 510h117q8 0 13 -6t7 -14z" />
    <glyph glyph-name="W" unicode="W" horiz-adv-x="793" 
d="M469 530q8 0 13 -6t7 -14l68 -379l74 379q2 8 7 14t13 6h115q-13 -64 -21 -109l-15 -80l-11 -66l-11 -67l-14 -80l-20 -108q-2 -8 -7 -14t-13 -6h-178q-8 0 -13 6t-7 14l-60 349l-59 -349q-2 -8 -7 -14t-13 -6h-177q-8 0 -13 6t-7 14q-13 64 -21 108l-14 80q-7 36 -12 67
l-11 66l-14 80l-20 109h113q8 0 13 -6t7 -14l74 -379l68 379q2 8 7 14t13 6h146z" />
    <glyph glyph-name="X" unicode="X" horiz-adv-x="538" 
d="M346 264l165 -264h-140q-10 0 -15.5 6.5t-10.5 13.5l-76 122l-75 -122q-5 -7 -10.5 -13.5t-15.5 -6.5h-140l164 264l-164 266h137q8 0 15 -6.5t12 -13.5l77 -123l76 123q5 7 12 13.5t15 6.5h139z" />
    <glyph glyph-name="Y" unicode="Y" horiz-adv-x="545" 
d="M338 210v-190q0 -8 -6 -14t-14 -6h-90q-8 0 -14 6t-6 14v190l-180 320h129q8 0 15.5 -6.5t11.5 -13.5l89 -159l87 159q4 7 11.5 13.5t15.5 6.5h131z" />
    <glyph glyph-name="Z" unicode="Z" horiz-adv-x="505" 
d="M59 0q-19 0 -19 13q0 6 6 17l205 370h-203q-8 0 -14 6t-6 14v90q0 8 6 14t14 6h398q19 0 19 -13q0 -7 -6 -17l-204 -370h203q8 0 14 -6t6 -14v-90q0 -8 -6 -14t-14 -6h-399z" />
    <glyph glyph-name="bracketleft" unicode="[" horiz-adv-x="348" 
d="M80 -90v710h188v-77h-100v-545h100v-88h-188z" />
    <glyph glyph-name="backslash" unicode="\" horiz-adv-x="485" 
d="M405 0l-219 550h-106l219 -550h106z" />
    <glyph glyph-name="bracketright" unicode="]" horiz-adv-x="348" 
d="M268 -90v710h-188v-77h100v-545h-100v-88h188z" />
    <glyph glyph-name="asciicircum" unicode="^" horiz-adv-x="420" 
d="M380 430h-105l-65 67l-65 -67h-105l134 130h72z" />
    <glyph glyph-name="underscore" unicode="_" horiz-adv-x="660" 
d="M620 90v-90h-580v90h580z" />
    <glyph glyph-name="grave" unicode="`" horiz-adv-x="282" 
d="M40 550h111l91 -130h-72z" />
    <glyph glyph-name="a" unicode="a" horiz-adv-x="410" 
d="M30 120q0 49 48 79t161 31q-4 20 -22 28.5t-44 8.5q-31 0 -66.5 -9.5t-56.5 -22.5l-20 95q17 10 39 17.5t45.5 12.5t46 7.5t40.5 2.5q34 0 65 -8t54 -26t36.5 -48t13.5 -75v-193q0 -8 -6 -14t-14 -6h-240q-33 0 -56.5 23.5t-23.5 56.5v40zM240 115v50q-26 -4 -51 -14
t-29 -36h80z" />
    <glyph glyph-name="b" unicode="b" horiz-adv-x="440" 
d="M170 235v-105h51q29 0 44 16.5t15 37.5q0 19 -15 35t-44 16h-51zM228 365q46 0 80 -15.5t56.5 -41t34 -58t11.5 -66.5q0 -35 -11.5 -68t-34.5 -58.5t-57 -41.5t-79 -16h-168q-8 0 -14 6t-6 14v490q0 8 6 14t14 6h90q8 0 14 -6t6 -14v-145h58z" />
    <glyph glyph-name="c" unicode="c" horiz-adv-x="390" 
d="M360 151v-11q0 -33 -12.5 -59t-34.5 -44t-51 -27.5t-62 -9.5h-10q-33 0 -62 9.5t-51 27.5t-34.5 44t-12.5 59v90q0 33 12.5 59t34.5 44t51 27.5t62 9.5h10q33 0 62 -9.5t51 -27.5t34.5 -44t12.5 -59v-12h-130q0 13 -8.5 19t-21.5 6h-10q-11 0 -20.5 -4t-9.5 -21v-67
q0 -17 10.5 -21t19.5 -4h10q10 0 20 3.5t10 21.5h130z" />
    <glyph glyph-name="d" unicode="d" horiz-adv-x="440" 
d="M218 235q-29 0 -43.5 -16t-14.5 -35q0 -21 14.5 -37.5t43.5 -16.5h52v105h-52zM270 365v145q0 8 6 14t14 6h90q8 0 14 -6t6 -14v-490q0 -8 -6 -14t-14 -6h-168q-45 0 -79.5 16t-57 41.5t-34 58.5t-11.5 68q0 34 11.5 66.5t34 58t56.5 41t80 15.5h58z" />
    <glyph glyph-name="e" unicode="e" horiz-adv-x="410" 
d="M40 272q0 40 30 69t85 29h125q51 0 75.5 -22.5t24.5 -54.5q0 -25 -13.5 -51.5t-39 -50t-63 -42.5t-84.5 -29q8 -11 23 -14.5t33 -3.5q32 0 67 9.5t57 22.5l20 -94q-18 -10 -40 -17.5t-45 -12.5t-45.5 -7.5t-40.5 -2.5q-34 0 -64.5 7.5t-54 26t-37 49t-13.5 75.5v114z
M170 186q25 10 48.5 26.5t31.5 42.5h-80v-69z" />
    <glyph glyph-name="f" unicode="f" horiz-adv-x="323" 
d="M170 20q0 -8 -6 -14t-14 -6h-90q-8 0 -14 6t-6 14v391q0 32 10.5 54.5t29 36.5t44.5 20.5t56 6.5q28 0 58.5 -5t61.5 -14v-120q-26 6 -46 9.5t-34 3.5q-27 0 -38.5 -9t-11.5 -23v-71h118v-130h-118v-150z" />
    <glyph glyph-name="g" unicode="g" horiz-adv-x="420" 
d="M80 -42q19 -6 42.5 -11.5t46.5 -5.5q30 0 55.5 15.5t25.5 43.5h-120q-42 0 -71 29t-29 71v100q0 44 15.5 76t42 53t60.5 31t71 10q42 0 84 -12.5t77 -37.5v-320q0 -45 -13.5 -75.5t-37 -49t-54.5 -27t-66 -8.5q-17 0 -37.5 2.5t-41.5 7t-41.5 12t-38.5 16.5zM250 130v104
l-18 4q-9 2 -17 2q-23 0 -39 -10t-16 -30v-70h90z" />
    <glyph glyph-name="h" unicode="h" horiz-adv-x="430" 
d="M150 530q8 0 14 -6t6 -14v-163q23 10 49 16t49 6q26 0 50 -8t42 -26.5t29 -49t11 -75.5v-190q0 -8 -6 -14t-14 -6h-90q-8 0 -14 6t-6 14v203q0 26 -13.5 36.5t-29.5 10.5q-15 0 -30 -6.5t-27 -14.5v-229q0 -8 -6 -14t-14 -6h-90q-8 0 -14 6t-6 14v490q0 8 6 14t14 6h90z
" />
    <glyph glyph-name="i" unicode="i" horiz-adv-x="210" 
d="M150 530q8 0 14 -6t6 -14v-65q0 -8 -6 -14t-14 -6h-90q-8 0 -14 6t-6 14v65q0 8 6 14t14 6h90zM150 370q8 0 14 -6t6 -14v-330q0 -8 -6 -14t-14 -6h-90q-8 0 -14 6t-6 14v330q0 8 6 14t14 6h90z" />
    <glyph glyph-name="j" unicode="j" horiz-adv-x="213" 
d="M-42 -49q6 -2 13 -2h11q28 0 44.5 16t16.5 49v336q0 8 6 14t14 6h90q8 0 14 -6t6 -14v-336q0 -45 -12 -77.5t-33.5 -54.5t-51 -32.5t-63.5 -10.5q-39 0 -84 15zM153 530q8 0 14 -6t6 -14v-65q0 -8 -6 -14t-14 -6h-90q-8 0 -14 6t-6 14v65q0 8 6 14t14 6h90z" />
    <glyph glyph-name="k" unicode="k" horiz-adv-x="486" 
d="M486 0h-154q-11 0 -19 6.5t-14 13.5l-129 147v-147q0 -8 -6 -14t-14 -6h-90q-8 0 -14 6t-6 14v490q0 8 6 14t14 6h90q8 0 14 -6t6 -14v-236l110 126q7 8 14.5 14t18.5 6h156l-173 -200z" />
    <glyph glyph-name="l" unicode="l" horiz-adv-x="210" 
d="M150 530q8 0 14 -6t6 -14v-490q0 -8 -6 -14t-14 -6h-90q-8 0 -14 6t-6 14v490q0 8 6 14t14 6h90z" />
    <glyph glyph-name="m" unicode="m" horiz-adv-x="650" 
d="M170 370v-44q30 19 62 31.5t61 12.5q27 0 49 -13t33 -44q35 26 71.5 41.5t68.5 15.5q41 0 68 -30.5t27 -99.5v-220q0 -8 -6 -14t-14 -6h-90q-8 0 -14 6t-6 14v203q0 26 -9.5 36t-23.5 10q-15 0 -32 -11t-25 -24v-214q0 -8 -6 -14t-14 -6h-90q-8 0 -14 6t-6 14v203
q0 26 -9.5 36t-23.5 10q-15 0 -32 -11t-25 -24v-214q0 -8 -6 -14t-14 -6h-90q-8 0 -14 6t-6 14v330q0 8 6 14t14 6h110z" />
    <glyph glyph-name="n" unicode="n" horiz-adv-x="433" 
d="M170 370v-41q29 18 61 29.5t63 11.5q22 0 41 -7.5t33.5 -25t23 -45.5t8.5 -69v-203q0 -8 -6 -14t-14 -6h-90q-8 0 -14 6t-6 14v206q0 24 -12.5 34t-26.5 10q-18 0 -35.5 -11t-25.5 -22v-217q0 -8 -6 -14t-14 -6h-90q-8 0 -14 6t-6 14v330q0 8 6 14t14 6h110z" />
    <glyph glyph-name="o" unicode="o" horiz-adv-x="458" 
d="M263 370q33 0 62 -9.5t51 -27.5t34.5 -44t12.5 -59v-90q0 -33 -12.5 -59t-34.5 -44t-51 -27.5t-62 -9.5h-70q-33 0 -62 9.5t-51 27.5t-34.5 44t-12.5 59v90q0 33 12.5 59t34.5 44t51 27.5t62 9.5h70zM194 243q-11 0 -21 -4t-10 -21v-67q0 -17 12.5 -21t29.5 -4h58
q1 0 6 0.5t10 3t9.5 7.5t4.5 14v67q0 13 -8.5 19t-21.5 6h-69z" />
    <glyph glyph-name="p" unicode="p" horiz-adv-x="440" 
d="M221 135q29 0 44 15.5t15 34.5q0 21 -15 38t-44 17h-51v-105h51zM170 5v-145q0 -8 -6 -14t-14 -6h-90q-8 0 -14 6t-6 14v490q0 8 6 14t14 6h168q45 0 79 -16t57 -42t34.5 -59.5t11.5 -67.5t-11.5 -66.5t-34 -57.5t-56.5 -40.5t-80 -15.5h-58z" />
    <glyph glyph-name="q" unicode="q" horiz-adv-x="440" 
d="M270 135v105h-52q-29 0 -43.5 -17t-14.5 -38q0 -19 14.5 -34.5t43.5 -15.5h52zM212 5q-46 0 -80 15.5t-56.5 40.5t-34 57.5t-11.5 66.5t11.5 67.5t34 59.5t57 42t79.5 16h168q8 0 14 -6t6 -14v-490q0 -8 -6 -14t-14 -6h-90q-8 0 -14 6t-6 14v145h-58z" />
    <glyph glyph-name="r" unicode="r" horiz-adv-x="408" 
d="M170 370v-45q11 7 27 15t34 14t36.5 10t35.5 4q35 0 58.5 -17t23.5 -58v-63q0 -8 -6 -14t-14 -6h-110v27q0 14 -8.5 19.5t-19.5 5.5q-13 0 -29.5 -6t-27.5 -13v-223q0 -8 -6 -14t-14 -6h-90q-8 0 -14 6t-6 14v330q0 8 6 14t14 6h110z" />
    <glyph glyph-name="s" unicode="s" horiz-adv-x="420" 
d="M337 244q-35 14 -70 25t-68 11q-17 0 -28 -4t-11 -12q0 -10 17 -16t42.5 -12t55.5 -14.5t55.5 -22t42.5 -35t17 -54.5q0 -30 -13.5 -51t-37 -34t-54.5 -19t-65 -6q-51 0 -98 9t-89 27l25 89q15 -7 34.5 -13.5t40 -11.5t40.5 -8t37 -3q21 0 35.5 4.5t14.5 14.5q0 8 -17 14
t-42.5 12.5t-55.5 15.5t-55.5 23t-42.5 36t-17 54q0 30 11.5 50.5t32 33t49 18t61.5 5.5q50 0 93.5 -9.5t80.5 -20.5z" />
    <glyph glyph-name="t" unicode="t" horiz-adv-x="298" 
d="M150 530q8 0 14 -6t6 -14v-52h83q8 0 14 -6t6 -14v-75q0 -8 -6 -14t-14 -6h-83v-168q0 -32 16.5 -48.5t45.5 -16.5h12q5 0 11 2l9 -34q2 -9 4 -16l5 -15q3 -9 10 -32q-45 -15 -83 -15q-69 0 -114.5 43t-45.5 132v335q0 8 6 14t14 6h90z" />
    <glyph glyph-name="u" unicode="u" horiz-adv-x="440" 
d="M270 0v40q-20 -17 -51.5 -28.5t-65.5 -11.5q-53 0 -83 32.5t-30 116.5v201q0 8 6 14t14 6h90q8 0 14 -6t6 -14v-202q0 -26 11 -37t27 -11q17 0 35 10t27 22v218q0 8 6 14t14 6h90q8 0 14 -6t6 -14v-330q0 -8 -6 -14t-14 -6h-110z" />
    <glyph glyph-name="v" unicode="v" horiz-adv-x="425" 
d="M121 0q-8 0 -13 6t-7 14l-73 350h116q8 0 13 -6t7 -14l49 -236l48 236q2 8 7 14t13 6h117l-72 -350q-2 -8 -7 -14t-13 -6h-185z" />
    <glyph glyph-name="w" unicode="w" horiz-adv-x="671" 
d="M388 370q8 0 13 -6t7 -14l55 -244l43 244q2 8 7 14t13 6h118l-64 -350q-2 -8 -7 -14t-13 -6h-161q-8 0 -13 6t-7 14l-43 184l-43 -184q-2 -8 -7 -14t-13 -6h-163q-8 0 -13 6t-7 14l-62 350h116q8 0 13 -6t7 -14l44 -244l55 244q2 8 7 14t13 6h105z" />
    <glyph glyph-name="x" unicode="x" horiz-adv-x="466" 
d="M306 186l140 -186h-129q-10 0 -18.5 7t-13.5 13l-52 68l-62 -78q-5 -7 -12 -8.5t-15 -1.5h-124l139 186l-136 184h129q7 0 15 -3.5t16 -14.5l50 -69l49 67q8 11 15.5 15.5t15.5 4.5h130z" />
    <glyph glyph-name="y" unicode="y" horiz-adv-x="430" 
d="M390 0q0 -45 -13.5 -75.5t-37 -49t-54.5 -27t-66 -8.5q-17 0 -37.5 2.5t-41.5 7t-41.5 12t-38.5 16.5l30 80q19 -6 42.5 -11.5t46.5 -5.5q33 0 57 13.5t24 45.5v23q-48 -20 -89 -20q-56 0 -93.5 38t-37.5 119v190q0 8 6 14t14 6h90q8 0 14 -6t6 -14v-203q0 -25 11 -35.5
t27 -10.5q12 0 26 5.5t26 14.5v229q0 8 6 14t14 6h90q8 0 14 -6t6 -14v-350z" />
    <glyph glyph-name="z" unicode="z" horiz-adv-x="411" 
d="M50 0q-19 0 -19 13q0 6 6 17l141 218h-128q-8 0 -14 6t-6 14v82q0 8 6 14t14 6h312q19 0 19 -13q0 -7 -6 -17l-137 -217h122q8 0 14 -6t6 -14v-83q0 -8 -6 -14t-14 -6h-310z" />
    <glyph glyph-name="braceleft" unicode="{" horiz-adv-x="367" 
d="M80 290q36 2 49 30t13 66q0 26 -4.5 55t-9.5 53q-6 28 -14 56l122 92l31 -78l-59 -45q11 -43 15.5 -76t4.5 -59q0 -40 -10 -69t-30 -55q20 -26 30 -55t10 -68q0 -26 -4.5 -59t-15.5 -76l59 -45l-31 -78l-122 92q8 28 14 56q5 24 9.5 53t4.5 55q0 38 -13 65.5t-49 29.5v60
z" />
    <glyph glyph-name="braceright" unicode="}" horiz-adv-x="367" 
d="M287 290q-36 2 -49 30t-13 66q0 26 4.5 55t9.5 53q6 28 14 56l-122 92l-31 -78l59 -45q-11 -43 -15.5 -76t-4.5 -59q0 -40 10 -69t30 -55q-20 -26 -30 -55t-10 -68q0 -26 4.5 -59t15.5 -76l-59 -45l31 -78l122 92q-8 28 -14 56q-5 24 -9.5 53t-4.5 55q0 38 13 65.5
t49 29.5v60z" />
    <glyph glyph-name="asciitilde" unicode="~" horiz-adv-x="612" 
d="M532 349q-41 -41 -77 -56t-69 -15q-27 0 -51 7t-45 15l-42 15q-21 7 -40 7q-20 0 -41 -9.5t-45 -33.5l-42 72q35 35 66.5 48t61.5 13q24 0 46.5 -7t44.5 -15t43.5 -15t43.5 -7q23 0 48.5 11.5t55.5 41.5z" />
    <glyph glyph-name="copyright" unicode="&#xa9;" horiz-adv-x="533" 
d="M272 246q21 0 35 6t14 29q0 20 -17.5 25.5t-34.5 5.5h-42v-66h45zM272 351q48 0 73.5 -16.5t25.5 -58.5q0 -35 -19 -50t-47 -17l67 -110h-52l-61 108h-32v-108h-49v252h94zM45 222q0 46 17.5 86.5t47.5 70.5t70.5 47.5t86.5 17.5t86.5 -17.5t70.5 -47.5t47.5 -70.5
t17.5 -86.5t-17.5 -86.5t-47.5 -70.5t-70.5 -47.5t-86.5 -17.5t-86.5 17.5t-70.5 47.5t-47.5 70.5t-17.5 86.5zM87 222q0 -38 14 -70.5t38.5 -57t57 -38.5t70.5 -14q37 0 70 14t57.5 38.5t38.5 57t14 70.5q0 37 -14 70t-38.5 57.5t-57.5 38.5t-70 14q-38 0 -70.5 -14
t-57 -38.5t-38.5 -57.5t-14 -70z" />
    <glyph glyph-name="guillemotleft" unicode="&#xab;" horiz-adv-x="618" 
d="M205 10l-125 188l124 182h124l-126 -184l126 -186h-123zM415 10l-125 188l124 182h124l-126 -184l126 -186h-123z" />
    <glyph glyph-name="registered" unicode="&#xae;" horiz-adv-x="529" 
d="M382 185q-8 -45 -38 -70t-72 -25q-29 0 -52.5 10.5t-40.5 28.5t-26.5 42t-9.5 52t9 53t25.5 43t40 28.5t53.5 10.5q42 0 72.5 -24t36.5 -69h-47q-5 21 -21.5 33t-40.5 12q-34 0 -52 -24t-18 -61q0 -36 19.5 -61.5t51.5 -25.5q26 0 42 12.5t19 34.5h49zM43 222
q0 46 17.5 86.5t47.5 70.5t70.5 47.5t86.5 17.5t86.5 -17.5t70.5 -47.5t47.5 -70.5t17.5 -86.5t-17.5 -86.5t-47.5 -70.5t-70.5 -47.5t-86.5 -17.5t-86.5 17.5t-70.5 47.5t-47.5 70.5t-17.5 86.5zM85 222q0 -38 14 -70.5t38.5 -57t57 -38.5t70.5 -14q37 0 70 14t57.5 38.5
t38.5 57t14 70.5q0 37 -14 70t-38.5 57.5t-57.5 38.5t-70 14q-38 0 -70.5 -14t-57 -38.5t-38.5 -57.5t-14 -70z" />
    <glyph glyph-name="degree" unicode="&#xb0;" horiz-adv-x="332" 
d="M170 574q25 0 48 -8t39.5 -23t26.5 -36.5t10 -47.5q0 -28 -10 -49.5t-26.5 -36.5t-39.5 -23t-48 -8q-51 0 -85.5 30.5t-34.5 86.5q0 53 34.5 84t85.5 31zM172 524q-23 0 -39.5 -18t-16.5 -47t16 -47.5t40 -18.5q25 0 40 18t15 44q0 32 -15.5 50.5t-39.5 18.5z" />
    <glyph glyph-name="paragraph" unicode="&#xb6;" horiz-adv-x="603" 
d="M228 0v320q-41 1 -71 14.5t-49.5 34.5t-29.5 47.5t-10 53.5t10 53.5t29.5 47t49 33t68.5 12.5h310v-56h-50v-560h-87v560h-73v-560h-97z" />
    <glyph glyph-name="periodcentered" unicode="&#xb7;" horiz-adv-x="238" 
d="M117 133q-29 0 -48 19t-19 54q0 29 19 49t48 20q31 0 51 -20t20 -49q0 -35 -20 -54t-51 -19z" />
    <glyph glyph-name="guillemotright" unicode="&#xbb;" horiz-adv-x="618" 
d="M413 10l125 188l-124 182h-124l126 -184l-126 -186h123zM203 10l125 188l-124 182h-124l126 -184l-126 -186h123z" />
    <glyph glyph-name="multiply" unicode="&#xd7;" horiz-adv-x="477" 
d="M238 309l89 89l70 -69l-89 -89l89 -89l-70 -70l-89 89l-89 -89l-69 70l89 89l-89 89l69 69z" />
    <glyph glyph-name="divide" unicode="&#xf7;" horiz-adv-x="560" 
d="M80 190v98h400v-98h-400zM239 0q-7 0 -12.5 5.5t-5.5 12.5v86q0 7 5.5 12.5t12.5 5.5h86q7 0 12.5 -5.5t5.5 -12.5v-86q0 -7 -5.5 -12.5t-12.5 -5.5h-86zM239 354q-7 0 -12.5 5.5t-5.5 12.5v86q0 7 5.5 12.5t12.5 5.5h86q7 0 12.5 -5.5t5.5 -12.5v-86q0 -7 -5.5 -12.5
t-12.5 -5.5h-86z" />
    <glyph glyph-name="uni060C" unicode="&#x60c;" horiz-adv-x="300" 
d="M220 0q-69 0 -104.5 36.5t-35.5 88.5q0 42 25.5 87.5t78.5 83.5l28 -41q-26 -20 -43 -45.5t-17 -48.5q0 -20 16 -35.5t52 -19.5v-106z" />
    <glyph glyph-name="uni0615" unicode="&#x615;" 
d="M-65 33h15v107h32v-75l12 12q8 8 19 8h44q8 0 14 -6.5t6 -15.5v-43q0 -8 -6 -14t-14 -6h-122v33zM-12 33h57v20h-37z" />
    <glyph glyph-name="uni061B" unicode="&#x61b;" horiz-adv-x="302" 
d="M120 0q-8 0 -14 6t-6 14v80q0 8 6 14t14 6h80q8 0 14 -6t6 -14v-80q0 -8 -6 -14t-14 -6h-80zM222 180q-35 0 -61.5 10t-44.5 27t-27 39.5t-9 48.5q0 42 25.5 87.5t78.5 83.5l28 -41q-32 -23 -46 -48t-14 -46q0 -26 18.5 -44t51.5 -20v-97z" />
    <glyph glyph-name="uni061F" unicode="&#x61f;" horiz-adv-x="480" 
d="M305 423q0 5 -6 8.5t-16 6t-21.5 3.5t-22.5 1q-23 0 -43.5 -4.5t-20.5 -14.5v-78q0 -20 9.5 -31t24 -17t31.5 -10.5t31.5 -12t24 -20t9.5 -34.5v-60q0 -8 -6 -14t-14 -6h-90q-8 0 -14 6t-6 14v20q0 15 -9.5 23t-24 13.5t-31.5 10t-31.5 12t-24 20.5t-9.5 36v155
q0 39 16.5 61t43.5 33t62 13.5t73 2.5t73 -2.5t62 -13.5t43.5 -33t16.5 -61v-70q0 -8 -6 -14t-14 -6h-90q-8 0 -14 6t-6 14v43zM195 0q-8 0 -14 6t-6 14v60q0 8 6 14t14 6h90q8 0 14 -6t6 -14v-60q0 -8 -6 -14t-14 -6h-90z" />
    <glyph glyph-name="hmz" unicode="&#x621;" horiz-adv-x="380" 
d="M63 0q-8 0 -14 6t-6 14v80q0 8 6 14t14 6h50q-26 27 -38 55t-12 55q0 45 30 73.5t86 28.5q35 0 69.5 -11t60.5 -28l-31 -77q-28 13 -52 13q-19 0 -29.5 -10t-10.5 -24q0 -20 19 -42t48 -33h65q8 0 14 -6t6 -14v-80q0 -8 -6 -14t-14 -6h-255z" />
    <glyph glyph-name="aalef" unicode="&#x627;" horiz-adv-x="220" 
d="M155 550q8 0 14 -6t6 -14v-510q0 -8 -6 -14t-14 -6h-90q-8 0 -14 6t-6 14v510q0 8 6 14t14 6h90z" />
    <glyph glyph-name="hah" unicode="&#x62d;" horiz-adv-x="480" 
d="M251 130q-6 18 -13 37t-17 35t-24.5 26.5t-34.5 10.5q-17 0 -32.5 -6t-29.5 -15l-30 92q27 22 61.5 36t69.5 14q45 0 74 -23.5t48.5 -58t34 -75t32.5 -73.5h50v-130h-195q-36 0 -53 -20t-17 -43q0 -20 10.5 -33.5t27 -22t37 -12.5t41.5 -4q19 0 35.5 2t28.5 5v-105
q-23 -4 -43.5 -5.5t-40.5 -1.5q-54 0 -96 14.5t-71 40t-44 59.5t-15 72q0 37 14.5 70.5t39.5 59t59.5 40t74.5 14.5h18z" />
    <glyph glyph-name="dal" unicode="&#x62f;" horiz-adv-x="410" 
d="M60 350q60 20 116 20q39 0 73.5 -10.5t60 -32.5t40.5 -56t15 -81v-170q0 -8 -6 -14t-14 -6h-305v130h195v60q0 32 -22 45t-54 13q-16 0 -34 -2.5t-37 -7.5z" />
    <glyph glyph-name="reh" unicode="&#x631;" horiz-adv-x="240" 
d="M65 310q0 8 6 14t14 6h90q8 0 14 -6t6 -14v-310q0 -46 -13.5 -79.5t-36.5 -55.5t-54 -32.5t-66 -10.5t-72 10.5t-73 30.5l29 93q19 -6 39.5 -10.5t40.5 -4.5q31 0 53.5 13t22.5 46v310z" />
    <glyph glyph-name="seen" unicode="&#x633;" horiz-adv-x="920" 
d="M345 -10v320q0 8 6 14t14 6h90q8 0 14 -6t6 -14v-180h70v180q0 8 6 14t14 6h90q8 0 14 -6t6 -14v-180h70v180q0 8 6 14t14 6h90q8 0 14 -6t6 -14v-230q0 -33 -23.5 -56.5t-56.5 -23.5h-320v-60q0 -33 -23.5 -56.5t-56.5 -23.5h-170q-37 0 -70 14t-57.5 38.5t-38.5 57.5
t-14 70v120q0 8 6 14t14 6h90q8 0 14 -6t6 -14v-120q0 -20 15 -35t35 -15h120z" />
    <glyph glyph-name="sad" unicode="&#x635;" horiz-adv-x="920" 
d="M475 218l90 82q16 14 34 22t41 8h155q33 0 56.5 -23.5t23.5 -56.5v-170q0 -33 -23.5 -56.5t-56.5 -23.5h-320v-60q0 -33 -23.5 -56.5t-56.5 -23.5h-170q-37 0 -70 14t-57.5 38.5t-38.5 57.5t-14 70v120q0 8 6 14t14 6h90q8 0 14 -6t6 -14v-120q0 -20 15 -35t35 -15h120
v320q0 8 6 14t14 6h90q8 0 14 -6t6 -14v-92zM541 130h204v70h-113z" />
    <glyph glyph-name="tah" unicode="&#x637;" horiz-adv-x="700" 
d="M50 100q0 13 8.5 21.5t21.5 8.5h45v400q0 8 6 14t14 6h90q8 0 14 -6t6 -14v-278l53 48q16 14 34 22t41 8h192q33 0 56.5 -23.5t23.5 -56.5v-170q0 -33 -23.5 -56.5t-56.5 -23.5h-495q-13 0 -21.5 8.5t-8.5 21.5v70zM284 130h241v70h-151z" />
    <glyph glyph-name="ain" unicode="&#x639;" horiz-adv-x="450" 
d="M341 212q-14 7 -37.5 13.5t-45.5 6.5q-26 0 -40.5 -12.5t-14.5 -32.5q0 -22 18.5 -43t49.5 -21h134l-27 -123h-125q-36 0 -57 -20t-21 -43q0 -19 10 -32t26.5 -20.5t37 -10.5t40.5 -3q40 0 66 8v-108q-23 -4 -43.5 -5.5t-40.5 -1.5q-54 0 -96 14t-71 38.5t-44 58
t-15 71.5q0 47 21 86t57 64q-26 24 -38 51.5t-12 56.5q0 36 14 63t37.5 45t54.5 27t65 9q38 0 74.5 -11t68.5 -33z" />
    <glyph glyph-name="tatweel" unicode="&#x640;" horiz-adv-x="200" 
d="M-30 100q0 13 8.5 21.5t21.5 8.5h200v-130h-200q-13 0 -21.5 8.5t-8.5 21.5v70z" />
    <glyph glyph-name="kaf" unicode="&#x643;" horiz-adv-x="670" 
d="M625 80q0 -33 -23.5 -56.5t-56.5 -23.5h-420q-33 0 -56.5 23.5t-23.5 56.5v200q0 8 6 14t14 6h90q8 0 14 -6t6 -14v-150h320v400q0 8 6 14t14 6h90q8 0 14 -6t6 -14v-450zM250 298h103v7q0 20 -13 27.5t-28 7.5q-14 0 -27 -5l-34 56l123 124l38 -59l-66 -66
q35 -5 54.5 -23.5t19.5 -56.5v-80h-170v68z" />
    <glyph glyph-name="lam" unicode="&#x644;" horiz-adv-x="520" 
d="M475 -20q0 -33 -23.5 -56.5t-56.5 -23.5h-170q-37 0 -70 14t-57.5 38.5t-38.5 57.5t-14 70v128q0 8 6 14t14 6h90q8 0 14 -6t6 -14v-128q0 -18 15 -34t35 -16h120v500q0 8 6 14t14 6h90q8 0 14 -6t6 -14v-550z" />
    <glyph glyph-name="meem" unicode="&#x645;" horiz-adv-x="440" 
d="M45 170q0 41 17 71.5t44.5 50t63 29t72.5 9.5q41 0 81 -13t72 -37v-280h-220v-120h-130v290zM265 130v63q-18 7 -35 7q-23 0 -39 -9t-16 -26v-35h90z" />
    <glyph glyph-name="heh2" unicode="&#x647;" horiz-adv-x="660" 
d="M40 100q0 13 8.5 21.5t21.5 8.5h52q-17 27 -17 63q0 28 12 52.5t33.5 43.5t51 30t64.5 11h59l-15 60q29 10 59 14.5t57 4.5q39 0 73.5 -10.5t60 -32t40.5 -55.5t15 -81v-210q0 -8 -6 -14t-14 -6h-525q-13 0 -21.5 8.5t-8.5 21.5v70zM485 230q0 30 -19.5 42.5t-49.5 13.5
q12 -17 12 -36v-120h57v100zM305 130v70h-32q-18 0 -28 -10.5t-10 -24.5t10 -24.5t28 -10.5h32z" />
    <glyph glyph-name="waw" unicode="&#x648;" horiz-adv-x="440" 
d="M94 -43q15 -6 40 -10.5t50 -4.5q16 0 30.5 2.5t25.5 9.5t18 18t7 28h-120q-42 0 -71 29t-29 71v60q0 44 15.5 76t42 53t60.5 31t71 10q42 0 84 -12.5t77 -37.5v-280q0 -45 -13.5 -78.5t-36.5 -55.5t-54 -32.5t-66 -10.5t-79.5 10t-80.5 30zM265 130v64l-18 4q-9 2 -17 2
q-23 0 -39 -10t-16 -30v-30h90z" />
    <glyph glyph-name="maksura" unicode="&#x649;" horiz-adv-x="670" 
d="M581 264q-38 11 -71 11q-30 0 -52.5 -14t-22.5 -42v-34h110q33 0 56.5 -23.5t23.5 -56.5v-55q0 -37 -14 -70t-38.5 -57.5t-57.5 -38.5t-70 -14h-220q-37 0 -70 14t-57.5 38.5t-38.5 57.5t-14 70v125q0 8 6 14t14 6h90q8 0 14 -6t6 -14v-101q0 -14 1.5 -27.5t7 -24
t15 -16.5t26.5 -6h220q7 0 16 2.5t16.5 8.5t12.5 15.5t5 23.5v5h-130q-25 0 -42.5 17.5t-17.5 42.5v103q0 47 14.5 80.5t40 55.5t60 32t73.5 10q29 0 58 -4t59 -14z" />
    <glyph glyph-name="uni064B" unicode="&#x64b;" 
d="M-89 46l177 28v-28l-177 -29v29zM-89 103l177 29v-29l-177 -28v28z" />
    <glyph glyph-name="uni064C" unicode="&#x64c;" 
d="M-11 37q36 20 54 46q-2 0 -4.5 -0.5t-4.5 -0.5q-23 0 -40.5 14t-17.5 42q0 27 18.5 40.5t36.5 13.5q25 0 40.5 -17t15.5 -40q0 -11 -4.5 -26t-14.5 -32t-26.5 -34t-40.5 -30zM-44 47q-22 20 -31.5 42.5t-9.5 46.5q0 40 23 72l24 -16q-18 -27 -18 -54q0 -20 9 -39t29 -34z
M60 115q3 10 3 19q0 13 -9 22t-22 9q-8 0 -18 -6.5t-10 -20.5q0 -15 10.5 -21t23.5 -6t22 4z" />
    <glyph glyph-name="uni064D" unicode="&#x64d;" 
d="M-88 -86l177 28v-28l-177 -29v29zM-88 -29l177 29v-29l-177 -28v28z" />
    <glyph glyph-name="uni064E" unicode="&#x64e;" 
d="M-89 32l177 28v-28l-177 -28v28z" />
    <glyph glyph-name="uni064F" unicode="&#x64f;" 
d="M-46 24q21 11 35 23.5t23 25.5q-4 -1 -11 -1q-24 0 -41.5 14t-17.5 43t19 43.5t39 14.5q26 0 42.5 -18t16.5 -43q0 -11 -4.5 -26.5t-15.5 -33.5t-28.5 -35.5t-42.5 -31.5zM-29 129q0 -15 11 -21.5t25 -6.5q17 0 21 7t4 17q0 14 -8.5 24t-22.5 10q-8 0 -19 -7t-11 -23z
" />
    <glyph glyph-name="uni0650" unicode="&#x650;" 
d="M-74 -24l147 24v-28l-147 -24v28z" />
    <glyph glyph-name="uni0651" unicode="&#x651;" 
d="M15 104q-1 -5 -1 -8v-8q0 -21 7.5 -31.5t13.5 -10.5t10.5 8t4.5 29q0 5 -0.5 11.5t-1.5 13.5l29 5q1 -5 1.5 -11.5t0.5 -14.5q0 -12 -2 -25t-7 -23.5t-13.5 -17t-21.5 -6.5q-8 0 -17 5t-14 13q-6 -13 -16 -20t-20 -7q-17 0 -31.5 13.5t-14.5 43.5q0 11 3 25l30 5
q-3 -15 -3 -26q0 -32 16 -32q7 0 14 10.5t7 30.5v11q0 5 -2 12z" />
    <glyph glyph-name="uni0652" unicode="&#x652;" 
d="M-64 64q0 26 19 44.5t45 18.5t44.5 -18.5t18.5 -44.5t-18.5 -45t-44.5 -19t-45 19t-19 45zM-34 64q0 -14 10 -24t24 -10t24 10t10 24t-10 24t-24 10t-24 -10t-10 -24z" />
    <glyph glyph-name="uni0653" unicode="&#x653;" 
d="M74 24q-12 -9 -22.5 -12.5t-19.5 -3.5q-17 0 -31 6.5t-31 6.5q-10 0 -21 -4.5t-25 -16.5v41q14 12 25 16.5t21 4.5q17 0 31 -6.5t31 -6.5q9 0 19.5 3.5t22.5 12.5v-41z" />
    <glyph glyph-name="uni0654" unicode="&#x654;" 
d="M42 76q-5 4 -12.5 6.5t-14.5 2.5q-8 0 -13.5 -4t-5.5 -14q0 -8 7 -15t21 -7h38v-45h-124v45h24q-14 12 -14 31q0 23 18 36t42 13q14 0 28.5 -5.5t24.5 -13.5z" />
    <glyph glyph-name="uni0655" unicode="&#x655;" 
d="M42 -89q-5 4 -12.5 6.5t-14.5 2.5q-8 0 -13.5 -4t-5.5 -14q0 -8 7 -15t21 -7h38v-45h-124v45h24q-14 12 -14 31q0 23 18 36t42 13q14 0 28.5 -5.5t24.5 -13.5z" />
    <glyph glyph-name="uni0656" unicode="&#x656;" 
d="M-4 -39q11 -29 16.5 -67t5.5 -72v-16q0 -7 -1 -14l-23 -9q0 36 -7.5 71t-21.5 65z" />
    <glyph glyph-name="uni0657" unicode="&#x657;" 
d="M46 163q-21 -12 -35 -24.5t-23 -24.5q2 0 4.5 0.5t4.5 0.5q24 0 42.5 -14.5t18.5 -42.5q0 -29 -19 -43.5t-39 -14.5q-26 0 -42.5 18t-16.5 43q0 10 4.5 26t15.5 34t28 35.5t43 31.5zM29 58q0 15 -11 21.5t-25 6.5q-17 0 -21 -8t-4 -13q0 -14 8.5 -25.5t22.5 -11.5
q8 0 19 7t11 23z" />
    <glyph glyph-name="uni0658" unicode="&#x658;" 
d="M-41 93q2 -31 15.5 -46.5t28.5 -15.5q14 0 24.5 13.5t10.5 40.5v8q0 4 -1 9l33 8q1 -5 1 -10v-11q0 -43 -22.5 -66t-49.5 -23q-25 0 -46.5 21.5t-23.5 68.5z" />
    <glyph glyph-name="uni0660" unicode="&#x660;" horiz-adv-x="310" 
d="M210 295q8 0 14 -6t6 -14v-110q0 -8 -6 -14t-14 -6h-110q-8 0 -14 6t-6 14v110q0 8 6 14t14 6h110z" />
    <glyph glyph-name="uni0661" unicode="&#x661;" horiz-adv-x="290" 
d="M190 530q8 0 14 -6t6 -14v-490q0 -8 -6 -14t-14 -6h-90q-8 0 -14 6t-6 14v490q0 8 6 14t14 6h90z" />
    <glyph glyph-name="uni0662" unicode="&#x662;" horiz-adv-x="436" 
d="M181 0q-8 0 -14 6t-8 14l-49 165l-30 105q-11 41 -15.5 61.5t-4.5 31.5q0 35 14 62.5t38 46t55.5 28.5t67.5 10t72.5 -10t68.5 -30l-9 -123q-21 17 -51.5 27.5t-57.5 10.5q-26 0 -42.5 -11t-16.5 -35q0 -1 0.5 -4t3.5 -14t9.5 -32.5t17.5 -61.5l28 -99l41 -148h-118z" />
    <glyph glyph-name="uni0663" unicode="&#x663;" horiz-adv-x="710" 
d="M650 365q0 -36 -10.5 -62t-28 -43t-41.5 -25t-51 -8t-56.5 7.5t-58.5 24.5q-24 -21 -49 -30t-50 -9t-49 6.5t-46 17.5v-224q0 -8 -6 -14t-14 -6h-90q-8 0 -14 6t-6 14v490q0 8 6 14t14 6h90q8 0 14 -6t6 -14v-112q0 -11 6 -20t15.5 -15t20.5 -9t21 -3q12 0 19.5 4t7.5 15
v140q0 8 6 14t14 6h90q8 0 14 -6t6 -14v-100q0 -17 7 -28.5t17 -18t21.5 -9.5t21.5 -3t16.5 4t6.5 15v140q0 8 6 14t14 6h90q8 0 14 -6t6 -14v-145z" />
    <glyph glyph-name="uni0664" unicode="&#x664;" horiz-adv-x="430" 
d="M239 0q-46 0 -79.5 11t-55.5 30t-33 44t-11 53q0 32 14.5 65.5t43.5 62.5q-29 28 -43 60t-14 64q0 28 11.5 53t34 44.5t57 31t79.5 11.5q64 0 123 -25l-17 -114q-24 10 -47 14.5t-43 4.5q-29 0 -48.5 -8.5t-19.5 -28.5q0 -18 24.5 -36t68.5 -18q9 0 19 1t21 4v-119
q-10 2 -18.5 2.5t-16.5 0.5q-50 0 -74 -18t-24 -37q0 -17 15.5 -26t42.5 -9q21 0 47 6.5t54 17.5l20 -116q-29 -13 -63 -19.5t-68 -6.5z" />
    <glyph glyph-name="uni0665" unicode="&#x665;" horiz-adv-x="530" 
d="M460 310q4 -53 6 -83.5t3 -47t1 -21.5v-9q0 -38 -19 -63t-49 -39.5t-66.5 -20.5t-71.5 -6t-71.5 6t-66 20.5t-48 39.5t-18.5 63v7q0 4 1 20l3 47q2 31 6 87q3 45 19.5 78.5t43 56t60 33.5t71.5 11q37 0 71.5 -11t61 -33.5t43.5 -56t20 -78.5zM330 300q-3 29 -21.5 44
t-44.5 15t-43 -14.5t-21 -42.5q-1 -6 -3 -27t-3.5 -44.5t-2.5 -42.5t-1 -21q0 -4 6.5 -7t17 -5.5t24 -3.5t26.5 -1q27 0 51.5 4.5t24.5 12.5q0 3 -0.5 15t-2.5 30l-3 40z" />
    <glyph glyph-name="uni0666" unicode="&#x666;" horiz-adv-x="430" 
d="M220 400h-200v130h310q8 0 14 -6t6 -14v-490q0 -8 -6 -14t-14 -6h-90q-8 0 -14 6t-6 14v380z" />
    <glyph glyph-name="uni0667" unicode="&#x667;" horiz-adv-x="478" 
d="M131 0q-8 0 -13 6t-7 14l-91 510h114q8 0 13 -6t7 -14l68 -380h34l67 380q2 8 7 14t13 6h115l-91 -510q-2 -8 -7 -14t-13 -6h-216z" />
    <glyph glyph-name="uni0668" unicode="&#x668;" horiz-adv-x="478" 
d="M347 530q8 0 13 -6t7 -14l91 -510h-115q-8 0 -13 6t-7 14l-67 380h-34l-68 -380q-2 -8 -7 -14t-13 -6h-114l91 510q2 8 7 14t13 6h216z" />
    <glyph glyph-name="uni0669" unicode="&#x669;" horiz-adv-x="520" 
d="M190 345q0 -13 7.5 -24t22.5 -11h90v90h-90q-15 0 -22.5 -10.5t-7.5 -23.5v-21zM440 20q0 -8 -6 -14t-14 -6h-90q-8 0 -14 6t-6 14v160h-105q-31 0 -57.5 11.5t-46 31t-30.5 46t-11 56.5v60q0 30 11 56.5t30.5 46t46 31t57.5 11.5h215q8 0 14 -6t6 -14v-490z" />
    <glyph glyph-name="uni066A" unicode="&#x66a;" horiz-adv-x="605" 
d="M137 0l219 550h106l-219 -550h-106zM98 375q-7 0 -12.5 5.5t-5.5 12.5v86q0 7 5.5 12.5t12.5 5.5h86q7 0 12.5 -5.5t5.5 -12.5v-86q0 -7 -5.5 -12.5t-12.5 -5.5h-86zM422 50q-7 0 -12.5 5.5t-5.5 12.5v86q0 7 5.5 12.5t12.5 5.5h86q7 0 12.5 -5.5t5.5 -12.5v-86
q0 -7 -5.5 -12.5t-12.5 -5.5h-86z" />
    <glyph glyph-name="uni066B" unicode="&#x66b;" horiz-adv-x="300" 
d="M80 110q69 0 104.5 -36.5t35.5 -88.5q0 -42 -25.5 -87.5t-78.5 -83.5l-28 41q24 18 41.5 44t17.5 50q0 19 -15 33.5t-52 17.5v110z" />
    <glyph glyph-name="uni066C" unicode="&#x66c;" horiz-adv-x="302" 
d="M222 0q-35 0 -61.5 10t-44.5 27t-27 39.5t-9 48.5q0 42 25.5 87.5t78.5 83.5l28 -41q-32 -23 -46 -48t-14 -46q0 -26 18.5 -44t51.5 -20v-97z" />
    <glyph glyph-name="uni066D" unicode="&#x66d;" horiz-adv-x="509" 
d="M443 284l-108 -84l36 -131l-5 -3l-113 75l-112 -75l-6 3l38 131l-107 84l2 7l136 6l47 128h6l48 -128l136 -6z" />
    <glyph glyph-name="behc" unicode="&#x66e;" horiz-adv-x="770" 
d="M725 80q0 -33 -23.5 -56.5t-56.5 -23.5h-520q-33 0 -56.5 23.5t-23.5 56.5v230q0 8 6 14t14 6h90q8 0 14 -6t6 -14v-180h420v180q0 8 6 14t14 6h90q8 0 14 -6t6 -14v-230z" />
    <glyph glyph-name="qafc" unicode="&#x66f;" horiz-adv-x="640" 
d="M415 -10q21 0 35.5 15t14.5 35h-125q-40 0 -67.5 27.5t-27.5 67.5v70q0 43 16 74t42.5 51t61 30t71.5 10q42 0 83.5 -12t75.5 -35v-283q0 -37 -14 -70t-38.5 -57.5t-57.5 -38.5t-70 -14h-190q-37 0 -70 14t-57.5 38.5t-38.5 57.5t-14 70v155q0 8 6 14t14 6h90q8 0 14 -6
t6 -14v-155q0 -20 15 -35t35 -15h190zM465 170v63q-18 7 -35 7q-23 0 -39 -9t-16 -26v-35h90z" />
    <glyph glyph-name="uni0670" unicode="&#x670;" 
d="M0 173q11 -29 16.5 -67t5.5 -72v-16q0 -7 -1 -14l-23 -9q0 36 -7.5 71t-21.5 65z" />
    <glyph glyph-name="uni0674" unicode="&#x674;" horiz-adv-x="214" 
d="M149 635q-5 4 -12.5 6.5t-14.5 2.5q-8 0 -13.5 -4t-5.5 -14q0 -8 7 -15t21 -7h38v-45h-124v45h24q-14 12 -14 31q0 23 18 36t42 13q14 0 28.5 -5.5t24.5 -13.5z" />
    <glyph glyph-name="uni069C" unicode="&#x69c;" horiz-adv-x="920" 
d="M490 425q0 19 16 32t39 13t39 -13t16 -32t-16 -32t-39 -13t-39 13t-16 32zM620 425q0 19 16 32t39 13t39 -13t16 -32t-16 -32t-39 -13t-39 13t-16 32zM555 525q0 19 16 32t39 13t39 -13t16 -32t-16 -32t-39 -13t-39 13t-16 32zM538 -95q0 19 16 32t39 13t39 -13t16 -32
t-16 -32t-39 -13t-39 13t-16 32zM668 -95q0 19 16 32t39 13t39 -13t16 -32t-16 -32t-39 -13t-39 13t-16 32zM603 -195q0 19 16 32t39 13t39 -13t16 -32t-16 -32t-39 -13t-39 13t-16 32zM345 -10v320q0 8 6 14t14 6h90q8 0 14 -6t6 -14v-180h70v180q0 8 6 14t14 6h90
q8 0 14 -6t6 -14v-180h70v180q0 8 6 14t14 6h90q8 0 14 -6t6 -14v-230q0 -33 -23.5 -56.5t-56.5 -23.5h-320v-60q0 -33 -23.5 -56.5t-56.5 -23.5h-170q-37 0 -70 14t-57.5 38.5t-38.5 57.5t-14 70v120q0 8 6 14t14 6h90q8 0 14 -6t6 -14v-120q0 -20 15 -35t35 -15h120z" />
    <glyph glyph-name="fehc" unicode="&#x6a1;" horiz-adv-x="850" 
d="M675 130v70h-54q-20 0 -33 -10t-13 -25q0 -14 13.5 -24.5t32.5 -10.5h54zM720 330q33 0 56.5 -23.5t23.5 -56.5v-230q0 -8 -6 -14t-14 -6h-650q-33 0 -56.5 23.5t-23.5 56.5v230q0 8 6 14t14 6h90q8 0 14 -6t6 -14v-180h282q-17 36 -17 67q0 27 12 51.5t33.5 42.5
t52 28.5t67.5 10.5h110z" />
    <glyph glyph-name="uni06A2" unicode="&#x6a2;" horiz-adv-x="850" 
d="M575 -105q0 21 16 35.5t39 14.5t39 -14.5t16 -35.5t-16 -35.5t-39 -14.5t-39 14.5t-16 35.5zM675 130v70h-54q-20 0 -33 -10t-13 -25q0 -14 13.5 -24.5t32.5 -10.5h54zM720 330q33 0 56.5 -23.5t23.5 -56.5v-230q0 -8 -6 -14t-14 -6h-650q-33 0 -56.5 23.5t-23.5 56.5
v230q0 8 6 14t14 6h90q8 0 14 -6t6 -14v-180h282q-17 36 -17 67q0 27 12 51.5t33.5 42.5t52 28.5t67.5 10.5h110z" />
    <glyph glyph-name="uni06A5" unicode="&#x6a5;" horiz-adv-x="850" 
d="M510 -95q0 19 16 32t39 13t39 -13t16 -32t-16 -32t-39 -13t-39 13t-16 32zM640 -95q0 19 16 32t39 13t39 -13t16 -32t-16 -32t-39 -13t-39 13t-16 32zM575 -195q0 19 16 32t39 13t39 -13t16 -32t-16 -32t-39 -13t-39 13t-16 32zM675 130v70h-54q-20 0 -33 -10t-13 -25
q0 -14 13.5 -24.5t32.5 -10.5h54zM720 330q33 0 56.5 -23.5t23.5 -56.5v-230q0 -8 -6 -14t-14 -6h-650q-33 0 -56.5 23.5t-23.5 56.5v230q0 8 6 14t14 6h90q8 0 14 -6t6 -14v-180h282q-17 36 -17 67q0 27 12 51.5t33.5 42.5t52 28.5t67.5 10.5h110z" />
    <glyph glyph-name="uni06A7" unicode="&#x6a7;" horiz-adv-x="640" 
d="M365 475q0 21 16 35.5t39 14.5t39 -14.5t16 -35.5t-16 -35.5t-39 -14.5t-39 14.5t-16 35.5zM415 -10q21 0 35.5 15t14.5 35h-125q-40 0 -67.5 27.5t-27.5 67.5v70q0 43 16 74t42.5 51t61 30t71.5 10q42 0 83.5 -12t75.5 -35v-283q0 -37 -14 -70t-38.5 -57.5t-57.5 -38.5
t-70 -14h-190q-37 0 -70 14t-57.5 38.5t-38.5 57.5t-14 70v155q0 8 6 14t14 6h90q8 0 14 -6t6 -14v-155q0 -20 15 -35t35 -15h190zM465 170v63q-18 7 -35 7q-23 0 -39 -9t-16 -26v-35h90z" />
    <glyph glyph-name="uni06A8" unicode="&#x6a8;" horiz-adv-x="640" 
d="M300 475q0 19 16 32t39 13t39 -13t16 -32t-16 -32t-39 -13t-39 13t-16 32zM430 475q0 19 16 32t39 13t39 -13t16 -32t-16 -32t-39 -13t-39 13t-16 32zM365 575q0 19 16 32t39 13t39 -13t16 -32t-16 -32t-39 -13t-39 13t-16 32zM415 -10q21 0 35.5 15t14.5 35h-125
q-40 0 -67.5 27.5t-27.5 67.5v70q0 43 16 74t42.5 51t61 30t71.5 10q42 0 83.5 -12t75.5 -35v-283q0 -37 -14 -70t-38.5 -57.5t-57.5 -38.5t-70 -14h-190q-37 0 -70 14t-57.5 38.5t-38.5 57.5t-14 70v155q0 8 6 14t14 6h90q8 0 14 -6t6 -14v-155q0 -20 15 -35t35 -15h190z
M465 170v63q-18 7 -35 7q-23 0 -39 -9t-16 -26v-35h90z" />
    <glyph glyph-name="noonc" unicode="&#x6ba;" horiz-adv-x="520" 
d="M475 -20q0 -33 -23.5 -56.5t-56.5 -23.5h-170q-37 0 -70 14t-57.5 38.5t-38.5 57.5t-14 70v130q0 8 6 14t14 6h90q8 0 14 -6t6 -14v-130q0 -20 15 -35t35 -15h120v280q0 8 6 14t14 6h90q8 0 14 -6t6 -14v-330z" />
    <glyph glyph-name="uni06C2" unicode="&#x6c2;" horiz-adv-x="440" 
d="M45 0v170q0 41 17 71.5t44.5 50t63 29t72.5 9.5q41 0 81 -13t72 -37v-280h-350zM265 130v63q-18 7 -35 7q-23 0 -39 -9t-16 -26v-35h90zM262 476q-5 4 -12.5 6.5t-14.5 2.5q-8 0 -13.5 -4t-5.5 -14q0 -8 7 -15t21 -7h38v-45h-124v45h24q-14 12 -14 31q0 23 18 36t42 13
q14 0 28.5 -5.5t24.5 -13.5z" />
    <glyph glyph-name="uni06C3" unicode="&#x6c3;" horiz-adv-x="440" 
d="M100 445q0 21 16 35.5t39 14.5t39 -14.5t16 -35.5t-16 -35.5t-39 -14.5t-39 14.5t-16 35.5zM230 445q0 21 16 35.5t39 14.5t39 -14.5t16 -35.5t-16 -35.5t-39 -14.5t-39 14.5t-16 35.5zM45 0v170q0 41 17 71.5t44.5 50t63 29t72.5 9.5q41 0 81 -13t72 -37v-280h-350z
M265 130v63q-18 7 -35 7q-23 0 -39 -9t-16 -26v-35h90z" />
    <glyph glyph-name="uni06D4" unicode="&#x6d4;" horiz-adv-x="494" 
d="M80 115h350v-115h-350v115z" />
    <glyph glyph-name="uni06D5" unicode="&#x6d5;" horiz-adv-x="440" 
d="M45 0v170q0 41 17 71.5t44.5 50t63 29t72.5 9.5q41 0 81 -13t72 -37v-280h-350zM265 130v63q-18 7 -35 7q-23 0 -39 -9t-16 -26v-35h90z" />
    <glyph glyph-name="uni06F0" unicode="&#x6f0;" horiz-adv-x="310" 
d="M210 295q8 0 14 -6t6 -14v-110q0 -8 -6 -14t-14 -6h-110q-8 0 -14 6t-6 14v110q0 8 6 14t14 6h110z" />
    <glyph glyph-name="uni06F1" unicode="&#x6f1;" horiz-adv-x="290" 
d="M190 530q8 0 14 -6t6 -14v-490q0 -8 -6 -14t-14 -6h-90q-8 0 -14 6t-6 14v490q0 8 6 14t14 6h90z" />
    <glyph glyph-name="uni06F2" unicode="&#x6f2;" horiz-adv-x="436" 
d="M181 0q-8 0 -14 6t-8 14l-49 165l-30 105q-11 41 -15.5 61.5t-4.5 31.5q0 35 14 62.5t38 46t55.5 28.5t67.5 10t72.5 -10t68.5 -30l-9 -123q-21 17 -51.5 27.5t-57.5 10.5q-26 0 -42.5 -11t-16.5 -35q0 -1 0.5 -4t3.5 -14t9.5 -32.5t17.5 -61.5l28 -99l41 -148h-118z" />
    <glyph glyph-name="uni06F3" unicode="&#x6f3;" horiz-adv-x="710" 
d="M650 365q0 -36 -10.5 -62t-28 -43t-41.5 -25t-51 -8t-56.5 7.5t-58.5 24.5q-24 -21 -49 -30t-50 -9t-49 6.5t-46 17.5v-224q0 -8 -6 -14t-14 -6h-90q-8 0 -14 6t-6 14v490q0 8 6 14t14 6h90q8 0 14 -6t6 -14v-112q0 -11 6 -20t15.5 -15t20.5 -9t21 -3q12 0 19.5 4t7.5 15
v140q0 8 6 14t14 6h90q8 0 14 -6t6 -14v-100q0 -17 7 -28.5t17 -18t21.5 -9.5t21.5 -3t16.5 4t6.5 15v140q0 8 6 14t14 6h90q8 0 14 -6t6 -14v-145z" />
    <glyph glyph-name="uni06F4" unicode="&#x6f4;" horiz-adv-x="680" 
d="M540 381q-14 8 -33.5 13.5t-38.5 5.5q-23 0 -38 -11t-15 -31q0 -17 10.5 -30t29.5 -13h130v-130h-370v-165q0 -8 -6 -14t-14 -6h-90q-8 0 -14 6t-6 14v490q0 8 6 14t14 6h90q8 0 14 -6t6 -14v-195h76q-6 19 -6 43q0 40 15 72t39.5 54t57.5 33.5t69 11.5q32 0 65 -10
t62 -31z" />
    <glyph glyph-name="uni06F5" unicode="&#x6f5;" horiz-adv-x="690" 
d="M412 520q31 0 56.5 -11.5t44 -31.5t31 -46.5t18.5 -57.5l24 -135q9 -49 13 -74t5 -32.5t1 -10.5q0 -28 -11 -50t-30 -37.5t-44 -24t-53 -8.5q-32 0 -59.5 11.5t-62.5 37.5q-35 -26 -62.5 -37.5t-59.5 -11.5q-28 0 -53 8.5t-44 24t-30 37.5t-11 50q0 3 1 10.5t5 32.5
t13 74l24 135q6 31 18.5 57.5t31 46.5t44 31.5t56.5 11.5h134zM286 390q-15 0 -21 -10.5t-9 -26.5l-14 -73l-12 -68l-9 -50q-3 -20 -3 -21q0 -11 14 -11q8 0 24 10l33 20l33 20q16 10 24 10q9 0 23 -9l26 -18l25 -17q12 -7 21.5 -11.5t15.5 -4.5q14 0 14 11q0 -1 -5 25.5
t-11 62.5l-13 72l-9 54q-4 23 -11.5 29t-18.5 6h-117z" />
    <glyph glyph-name="uni06F6" unicode="&#x6f6;" horiz-adv-x="520" 
d="M373 379q-14 8 -35 15t-41 7q-23 0 -37 -10t-14 -32q0 -29 18.5 -36.5t50.5 -7.5h123v-130h-165q-26 0 -42 -16.5t-16 -37.5v-111q0 -8 -6 -14t-14 -6h-90q-8 0 -14 6t-6 14v111q0 40 16 75t45 60q-17 22 -24.5 48.5t-7.5 55.5q0 38 15.5 67.5t40.5 50t57 31t66 10.5
t68 -10.5t66 -31.5z" />
    <glyph glyph-name="uni06F7" unicode="&#x6f7;" horiz-adv-x="478" 
d="M131 0q-8 0 -13 6t-7 14l-91 510h114q8 0 13 -6t7 -14l68 -380h34l67 380q2 8 7 14t13 6h115l-91 -510q-2 -8 -7 -14t-13 -6h-216z" />
    <glyph glyph-name="uni06F8" unicode="&#x6f8;" horiz-adv-x="478" 
d="M347 530q8 0 13 -6t7 -14l91 -510h-115q-8 0 -13 6t-7 14l-67 380h-34l-68 -380q-2 -8 -7 -14t-13 -6h-114l91 510q2 8 7 14t13 6h216z" />
    <glyph glyph-name="uni06F9" unicode="&#x6f9;" horiz-adv-x="520" 
d="M190 345q0 -13 7.5 -24t22.5 -11h90v90h-90q-15 0 -22.5 -10.5t-7.5 -23.5v-21zM440 20q0 -8 -6 -14t-14 -6h-90q-8 0 -14 6t-6 14v160h-105q-31 0 -57.5 11.5t-46 31t-30.5 46t-11 56.5v60q0 30 11 56.5t30.5 46t46 31t57.5 11.5h215q8 0 14 -6t6 -14v-490z" />
    <glyph glyph-name="uni0763" unicode="&#x763;" horiz-adv-x="920" 
d="M180 553q0 19 16 32t39 13t39 -13t16 -32t-16 -32t-39 -13t-39 13t-16 32zM310 553q0 19 16 32t39 13t39 -13t16 -32t-16 -32t-39 -13t-39 13t-16 32zM245 453q0 19 16 32t39 13t39 -13t16 -32t-16 -32t-39 -13t-39 13t-16 32zM125 0q-33 0 -56.5 23.5t-23.5 56.5v215
q0 8 6 14t14 6h90q8 0 14 -6t6 -14v-165h570v55h-413v130l250 251l92 -92l-159 -159h280q33 0 56.5 -23.5t23.5 -56.5v-155q0 -33 -23.5 -56.5t-56.5 -23.5h-670z" />
    <glyph glyph-name="uni200C" unicode="&#x200c;" horiz-adv-x="36" 
d="M36 -508h-36v1292h36v-1292z" />
    <glyph glyph-name="uni200D" unicode="&#x200d;" horiz-adv-x="32" 
d="M116 608l-22 -23l-61 60v-1153h-35v1153l-61 -60l-22 23l77 77q-5 4 -16 15l-23 23l-23 23q-11 11 -15 16l22 25l79 -79l78 79l22 -25l-78 -77z" />
    <glyph glyph-name="uni200E" unicode="&#x200e;" horiz-adv-x="35" 
d="M222 683l-99 -101l-24 24l59 62h-122v-1176h-36v1211h156l-57 57l24 24z" />
    <glyph glyph-name="uni200F" unicode="&#x200f;" horiz-adv-x="33" 
d="M34 -508h-36v1176h-122l59 -62l-23 -24l-99 101l99 101l23 -24l-57 -57h156v-1211z" />
    <glyph glyph-name="endash" unicode="&#x2013;" horiz-adv-x="560" 
d="M80 190v98h400v-98h-400z" />
    <glyph glyph-name="emdash" unicode="&#x2014;" horiz-adv-x="830" 
d="M80 190v98h670v-98h-670z" />
    <glyph glyph-name="quoteleft" unicode="&#x2018;" horiz-adv-x="326" 
d="M166 470h-66l60 170h66z" />
    <glyph glyph-name="quoteright" unicode="&#x2019;" horiz-adv-x="326" 
d="M160 470h66l-60 170h-66z" />
    <glyph glyph-name="quotedblleft" unicode="&#x201c;" horiz-adv-x="440" 
d="M166 470h-66l60 170h66zM280 470h-66l60 170h66z" />
    <glyph glyph-name="quotedblright" unicode="&#x201d;" horiz-adv-x="440" 
d="M160 470h66l-60 170h-66zM274 470h66l-60 170h-66z" />
    <glyph glyph-name="abdofonts.com" unicode="&#x2020;" horiz-adv-x="592" 
d="M108 365h-21v-47h-37v146h95v-146h-37v47zM490 -40h-37v87h-21v-87h-37v87h-21v-87h-37v106h153v-106zM165 464h37v-40h58v-106h-95v146zM375 318h-95v106h58v40h37v-146zM490 318h-95v106h95v-106zM235 117h-95v106h95v-106zM317 -40h-95v106h95v-106zM350 117h-37v87
h-21v-87h-37v106h95v-106zM107 66h95v-34h-37v15h-21v-68h21v15h37v-34h-95v106zM484 204v-24h58v-63h-95v19h58v25h-58v62h95v-19h-58zM87 164v-47h-37v146h75v-19h-38v-61h38v-19h-38zM407 204v-87h-37v146h37v-40h25v-19h-25zM317 337h21v68h-21v-68zM177 136h21v68h-21
v-68zM202 337h21v68h-21v-68zM259 -21h21v68h-21v-68zM432 337h21v68h-21v-68zM87 384h21v61h-21v-61zM87 -40h-37v29h37v-29z" />
    <glyph glyph-name="bullet" unicode="&#x2022;" horiz-adv-x="344" 
d="M172 318q25 0 47.5 -9.5t39 -26t26 -39.5t9.5 -50t-9.5 -50t-26 -40t-39 -26.5t-47.5 -9.5t-47 9.5t-38.5 26.5t-26.5 40t-10 50t10 50t26.5 39.5t38.5 26t47 9.5z" />
    <glyph glyph-name="uni2026" unicode="&#x2026;" horiz-adv-x="600" 
d="M70 0q-8 0 -14 6t-6 14v95q0 8 6 14t14 6h95q8 0 14 -6t6 -14v-95q0 -8 -6 -14t-14 -6h-95zM250 0q-8 0 -14 6t-6 14v95q0 8 6 14t14 6h95q8 0 14 -6t6 -14v-95q0 -8 -6 -14t-14 -6h-95zM430 0q-8 0 -14 6t-6 14v95q0 8 6 14t14 6h95q8 0 14 -6t6 -14v-95q0 -8 -6 -14
t-14 -6h-95z" />
    <glyph glyph-name="guilsinglleft" unicode="&#x2039;" horiz-adv-x="408" 
d="M205 10l-125 188l124 182h124l-126 -184l126 -186h-123z" />
    <glyph glyph-name="guilsinglright" unicode="&#x203a;" horiz-adv-x="408" 
d="M203 10l125 188l-124 182h-124l126 -184l-126 -186h123z" />
    <glyph glyph-name="trademark" unicode="&#x2122;" horiz-adv-x="605" 
d="M175 380v-199h-62v199h-70v48h202v-48h-70zM505 181v175l-65 -175h-41l-65 175v-175h-57v247h81l62 -162l62 162h81v-247h-58z" />
    <glyph glyph-name="minus" unicode="&#x2212;" horiz-adv-x="560" 
d="M80 190v100h400v-100h-400z" />
    <glyph glyph-name="uni25CC" unicode="&#x25cc;" horiz-adv-x="715" 
d="M105 168q-10 20 -15 41t-5 45l32 3q1 -19 5 -38t15 -41zM177 68q-19 16 -32.5 33t-25.5 35l29 17q18 -33 50 -61zM286 9q-23 8 -43.5 17t-40.5 24l18 24q18 -11 35.5 -18.5t37.5 -13.5zM406 3q-14 -2 -25 -2.5t-21 -0.5q-9 0 -19.5 0.5t-24.5 2.5l3 32q14 -2 21 -2h16
q8 0 19 1t24 3zM520 51q-22 -14 -42.5 -23t-40.5 -16l-11 32q38 13 71 35zM598 143q-11 -19 -26 -37l-28 -35l-24 26q16 14 27 30l24 32zM631 263q-1 -23 -5.5 -45.5t-12.5 -43.5l-30 12l8 38q5 19 7 39h33zM609 382q8 -20 13.5 -42t5.5 -46l-30 -4q-2 19 -8 39.5t-13 41.5z
M538 480q17 -17 30 -33.5t26 -36.5l-31 -16q-8 19 -20.5 33.5t-27.5 29.5zM429 538q23 -7 43.5 -15.5t39.5 -24.5l-20 -26q-18 14 -35 21.5t-37 14.5zM307 542q24 7 49 7q10 0 21 -1t19 -2l-2 -33q-12 2 -21 2.5t-17 0.5q-10 0 -20 -0.5t-23 -5.5zM195 496q22 15 41.5 24.5
t38.5 16.5l12 -33q-20 -7 -38.5 -15t-32.5 -19zM117 404q11 20 23.5 38.5t29.5 32.5l24 -25q-16 -13 -28.5 -28.5t-21.5 -32.5zM84 287q1 23 5 45t12 42l31 -10q-7 -19 -10.5 -39t-4.5 -38h-33z" />
    <glyph glyph-name="uni2639" unicode="&#x2639;" horiz-adv-x="698" 
d="M349 538q55 0 103.5 -21.5t85.5 -58t58.5 -85.5t21.5 -104q0 -56 -21.5 -104.5t-58.5 -85.5t-85.5 -58t-103.5 -21t-104 21.5t-85.5 58t-58 85.5t-21.5 104t21.5 104t58 85.5t85.5 58t104 21.5zM349 26q49 0 93 19.5t77 52.5t52.5 77t19.5 94t-19.5 94t-52.5 77t-77 52.5
t-93 19.5q-50 0 -94 -19.5t-77 -52.5t-52.5 -77.5t-19.5 -93.5q0 -50 19.5 -94t52.5 -77t77 -52.5t94 -19.5zM444 368q14 0 24 -10t10 -24t-10.5 -24.5t-23.5 -10.5q-14 0 -24.5 10t-10.5 25q0 14 10.5 24t24.5 10zM254 368q14 0 24 -10t10 -24t-10 -24.5t-24 -10.5
t-24.5 10t-10.5 25q0 14 10.5 24t24.5 10zM461 129q-19 29 -49.5 45t-62.5 16q-33 0 -64 -16t-48 -45l-19 11q43 86 131 86q87 0 131 -86z" />
    <glyph glyph-name="uni263A" unicode="&#x263a;" horiz-adv-x="698" 
d="M349 538q55 0 103.5 -21.5t85.5 -58t58.5 -85.5t21.5 -104q0 -56 -21.5 -104.5t-58.5 -85.5t-85.5 -58t-103.5 -21t-104 21.5t-85.5 58t-58 85.5t-21.5 104t21.5 104t58 85.5t85.5 58t104 21.5zM349 26q49 0 93 19.5t77 52.5t52.5 77t19.5 94t-19.5 94t-52.5 77t-77 52.5
t-93 19.5q-50 0 -94 -19.5t-77 -52.5t-52.5 -77.5t-19.5 -93.5q0 -50 19.5 -94t52.5 -77t77 -52.5t94 -19.5zM444 368q14 0 24 -10t10 -24t-10.5 -24.5t-23.5 -10.5q-14 0 -24.5 10t-10.5 25q0 14 10.5 24t24.5 10zM254 368q14 0 24 -10t10 -24t-10 -24.5t-24 -10.5
t-24.5 10t-10.5 25q0 14 10.5 24t24.5 10zM480 196q-45 -86 -131 -86q-87 0 -131 86l19 11q17 -29 48 -45t64 -16t63.5 16t48.5 45z" />
    <glyph glyph-name="uni0654064E" unicode="&#xe832;" 
d="M-60 -46h120v-29h-120v29zM42 76q-5 4 -12.5 6.5t-14.5 2.5q-8 0 -13.5 -4t-5.5 -14q0 -8 7 -15t21 -7h38v-45h-124v45h24q-14 12 -14 31q0 23 18 36t42 13q14 0 28.5 -5.5t24.5 -13.5z" />
    <glyph glyph-name="uni0654064B" unicode="&#xe833;" 
d="M-60 -40h120v-29h-120v29zM-60 -98h120v-29h-120v29zM42 76q-5 4 -12.5 6.5t-14.5 2.5q-8 0 -13.5 -4t-5.5 -14q0 -8 7 -15t21 -7h38v-45h-124v45h24q-14 12 -14 31q0 23 18 36t42 13q14 0 28.5 -5.5t24.5 -13.5z" />
    <glyph glyph-name="uni06540652" unicode="&#xe834;" 
d="M-57 212.5q0 23.5 17.5 40t40.5 16.5t40 -16.5t17 -40t-17 -40.5t-40 -17t-40.5 17t-17.5 40.5zM-30 212.5q0 -12.5 9 -21.5t22 -9t22 9t9 21.5t-9 21.5t-22 9t-22 -9t-9 -21.5zM42 76q-5 4 -12.5 6.5t-14.5 2.5q-8 0 -13.5 -4t-5.5 -14q0 -8 7 -15t21 -7h38v-45h-124v45
h24q-14 12 -14 31q0 23 18 36t42 13q14 0 28.5 -5.5t24.5 -13.5z" />
    <glyph glyph-name="uni0654064F" unicode="&#xe835;" 
d="M-41 167q18 10 31 21t21 23q-4 -1 -10 -1q-22 0 -37.5 12.5t-15.5 38.5t17 39t35 13q23 0 38 -16t15 -39q0 -9 -4 -23t-14 -30.5t-25.5 -32t-38.5 -28.5zM-26 261q0 -13 10 -19t22 -6q16 0 19.5 6.5t3.5 15.5q0 12 -8 21t-20 9q-7 0 -17 -6t-10 -21zM42 76
q-5 4 -12.5 6.5t-14.5 2.5q-8 0 -13.5 -4t-5.5 -14q0 -8 7 -15t21 -7h38v-45h-124v45h24q-14 12 -14 31q0 23 18 36t42 13q14 0 28.5 -5.5t24.5 -13.5z" />
    <glyph glyph-name="uni0654064C" unicode="&#xe836;" 
d="M-10 160q33 18 49 42q-2 0 -4.5 -0.5t-3.5 -0.5q-21 0 -37 12.5t-16 37.5t17 37t33 12q22 0 36 -15.5t14 -35.5q0 -10 -4 -23.5t-13 -29t-23.5 -31t-36.5 -26.5zM-40 169q-19 18 -27.5 38.5t-8.5 41.5q0 36 20 65l22 -14q-16 -24 -16 -49q0 -18 8 -35t26 -30zM54 231
q3 9 3 17q0 11 -8 19.5t-20 8.5q-7 0 -16 -6t-9 -19t9.5 -18.5t21 -5.5t19.5 4zM42 76q-5 4 -12.5 6.5t-14.5 2.5q-8 0 -13.5 -4t-5.5 -14q0 -8 7 -15t21 -7h38v-45h-124v45h24q-14 12 -14 31q0 23 18 36t42 13q14 0 28.5 -5.5t24.5 -13.5z" />
    <glyph glyph-name="uni06550650" unicode="&#xe837;" 
d="M-60 -208h120v-29h-120v29zM42 -89q-5 4 -12.5 6.5t-14.5 2.5q-8 0 -13.5 -4t-5.5 -14q0 -8 7 -15t21 -7h38v-45h-124v45h24q-14 12 -14 31q0 23 18 36t42 13q14 0 28.5 -5.5t24.5 -13.5z" />
    <glyph glyph-name="uni0654064D" unicode="&#xe838;" 
d="M-48 -389h120v-29h-120v29zM-48 -451h120v-29h-120v29zM42 -89q-5 4 -12.5 6.5t-14.5 2.5q-8 0 -13.5 -4t-5.5 -14q0 -8 7 -15t21 -7h38v-45h-124v45h24q-14 12 -14 31q0 23 18 36t42 13q14 0 28.5 -5.5t24.5 -13.5z" />
    <glyph glyph-name="logo" unicode="&#xf8ff;" horiz-adv-x="648" 
d="M598 -55h-548v548h548v-548zM534 279q3 -15 3 -30q0 -39 -14.5 -72.5t-39.5 -58.5t-59 -39.5t-72 -14.5q-39 0 -72.5 14.5t-58.5 39.5t-39.5 58.5t-14.5 72.5q0 37 14 70.5t38.5 58.5t57.5 40t71 16q-5 0 -12 1t-12 1q-45 0 -85 -17t-70 -47t-47 -70t-17 -85t17 -85
t47 -70t70 -47.5t85 -17.5t85 17.5t70 47.5t47 70t17 85q0 32 -9 62zM445 182q0 19 -7.5 36.5t-20 30t-29.5 20t-36 7.5q-20 0 -37 -7.5t-29.5 -20t-20 -30t-7.5 -36.5t7.5 -36t20 -29.5t29.5 -20t37 -7.5q19 0 36 7.5t29.5 20t20 29.5t7.5 36z" />
    <glyph glyph-name="p1" unicode="&#xfbb2;" 
d="M-55 45q0 21 16 35.5t39 14.5t39 -14.5t16 -35.5t-16 -35.5t-39 -14.5t-39 14.5t-16 35.5z" />
    <glyph glyph-name="p2" unicode="&#xfbb4;" 
d="M-120 45q0 21 16 35.5t39 14.5t39 -14.5t16 -35.5t-16 -35.5t-39 -14.5t-39 14.5t-16 35.5zM10 45q0 21 16 35.5t39 14.5t39 -14.5t16 -35.5t-16 -35.5t-39 -14.5t-39 14.5t-16 35.5z" />
    <glyph glyph-name="p3" unicode="&#xfbb6;" 
d="M-120 45q0 19 16 32t39 13t39 -13t16 -32t-16 -32t-39 -13t-39 13t-16 32zM10 45q0 19 16 32t39 13t39 -13t16 -32t-16 -32t-39 -13t-39 13t-16 32zM-55 145q0 19 16 32t39 13t39 -13t16 -32t-16 -32t-39 -13t-39 13t-16 32z" />
    <glyph glyph-name="uniFD3E" unicode="&#xfd3e;" horiz-adv-x="636" 
d="M50 220q11 6 20.5 18t20.5 24.5t23.5 21.5t29.5 9q9 0 24 -5q0 23 9 44.5t30 41.5q0 29 9 47.5t22 29t28 14.5t26 4q14 0 18 -4q0 39 11 64t29 41.5t41 28.5l46 23q24 11 46 25.5t39 37.5l14 -12l-50 -72q-24 -37 -44 -76t-32.5 -80t-12.5 -85v-280q0 -44 12.5 -85.5
t32.5 -80.5t44 -75l50 -72l-14 -12q-17 23 -39 37.5t-46 25.5l-46 22q-23 11 -41 28t-29 42t-11 65q-3 -4 -18 -4q-11 0 -26 4t-28 14.5t-22 29t-9 47.5q-21 20 -30 41.5t-9 44.5q-11 -5 -24 -5q-17 0 -29.5 9t-23.5 21t-20.5 24.5t-20.5 18.5zM216 70q9 -13 19.5 -18.5
t21.5 -5.5q13 0 25.5 7.5t22 20.5t15.5 28.5t6 32.5q0 34 -26 59q0 -21 -14 -31.5t-30.5 -19t-30.5 -19t-14 -31.5q0 -8 5 -23zM216 370q-5 -15 -5 -24q0 -21 14 -31.5t30.5 -19.5t30.5 -19.5t14 -30.5q26 25 26 59q0 17 -6 33t-15.5 29t-22 20.5t-25.5 7.5
q-11 0 -21.5 -5.5t-19.5 -18.5zM218 220q-23 12 -37 30q-11 -2 -21 -10.5t-13 -19.5q3 -11 13 -19.5t21 -10.5q7 8 16 16t21 14z" />
    <glyph glyph-name="uniFD3F" unicode="&#xfd3f;" horiz-adv-x="636" 
d="M586 220q-11 6 -20.5 18t-20.5 24.5t-23.5 21.5t-29.5 9q-9 0 -24 -5q0 23 -9 44.5t-30 41.5q0 29 -9 47.5t-22 29t-28 14.5t-26 4q-14 0 -18 -4q0 39 -11 64t-29 41.5t-41 28.5l-46 23q-24 11 -46 25.5t-39 37.5l-14 -12l50 -72q24 -37 44 -76t32.5 -80t12.5 -85v-280
q0 -44 -12.5 -85.5t-32.5 -80.5t-44 -75l-50 -72l14 -12q17 23 39 37.5t46 25.5l46 22q23 11 41 28t29 42t11 65q3 -4 18 -4q11 0 26 4t28 14.5t22 29t9 47.5q21 20 30 41.5t9 44.5q11 -5 24 -5q17 0 29.5 9t23.5 21t20.5 24.5t20.5 18.5zM420 70q-9 -13 -19.5 -18.5
t-21.5 -5.5q-13 0 -25.5 7.5t-22 20.5t-15.5 28.5t-6 32.5q0 34 26 59q0 -21 14 -31.5t30.5 -19t30.5 -19t14 -31.5q0 -8 -5 -23zM420 370q5 -15 5 -24q0 -21 -14 -31.5t-30.5 -19.5t-30.5 -19.5t-14 -30.5q-26 25 -26 59q0 17 6 33t15.5 29t22 20.5t25.5 7.5
q11 0 21.5 -5.5t19.5 -18.5zM418 220q23 12 37 30q11 -2 21 -10.5t13 -19.5q-3 -11 -13 -19.5t-21 -10.5q-7 8 -16 16t-21 14z" />
    <glyph glyph-name="alef2" horiz-adv-x="220" 
d="M155 550q8 0 14 -6t6 -14v-510q0 -8 -6 -14t-14 -6h-90q-8 0 -14 6t-6 14v510q0 8 6 14t14 6h90z" />
    <glyph glyph-name="aleff2" horiz-adv-x="220" 
d="M155 550q8 0 14 -6t6 -14v-400h45v-130h-155q-8 0 -14 6t-6 14v510q0 8 6 14t14 6h90z" />
    <glyph glyph-name="uni06A7.init" horiz-adv-x="450" 
d="M170 445q0 21 16 35.5t39 14.5t39 -14.5t16 -35.5t-16 -35.5t-39 -14.5t-39 14.5t-16 35.5zM-30 100q0 13 8.5 21.5t21.5 8.5h62q-9 19 -13 36.5t-4 32.5q0 30 13 54t35 41.5t50.5 26.5t59.5 9h122q33 0 56.5 -23.5t23.5 -56.5v-230q0 -8 -6 -14t-14 -6h-385
q-13 0 -21.5 8.5t-8.5 21.5v70zM221 200q-20 0 -33 -10t-13 -25q0 -14 13 -24.5t33 -10.5h54v70h-54z" />
    <glyph glyph-name="uni06A7.medi" horiz-adv-x="450" 
d="M170 445q0 21 16 35.5t39 14.5t39 -14.5t16 -35.5t-16 -35.5t-39 -14.5t-39 14.5t-16 35.5zM-30 100q0 13 8.5 21.5t21.5 8.5h62q-9 19 -13 36.5t-4 32.5q0 30 13 54t35 41.5t50.5 26.5t59.5 9h122q33 0 56.5 -23.5t23.5 -56.5v-120h45v-130h-450q-13 0 -21.5 8.5
t-8.5 21.5v70zM221 200q-20 0 -33 -10t-13 -25q0 -14 13 -24.5t33 -10.5h54v70h-54z" />
    <glyph glyph-name="uni06A8.init" horiz-adv-x="450" 
d="M105 425q0 19 16 32t39 13t39 -13t16 -32t-16 -32t-39 -13t-39 13t-16 32zM235 425q0 19 16 32t39 13t39 -13t16 -32t-16 -32t-39 -13t-39 13t-16 32zM170 525q0 19 16 32t39 13t39 -13t16 -32t-16 -32t-39 -13t-39 13t-16 32zM-30 100q0 13 8.5 21.5t21.5 8.5h62
q-9 19 -13 36.5t-4 32.5q0 30 13 54t35 41.5t50.5 26.5t59.5 9h122q33 0 56.5 -23.5t23.5 -56.5v-230q0 -8 -6 -14t-14 -6h-385q-13 0 -21.5 8.5t-8.5 21.5v70zM221 200q-20 0 -33 -10t-13 -25q0 -14 13 -24.5t33 -10.5h54v70h-54z" />
    <glyph glyph-name="uni06A8.medi" horiz-adv-x="450" 
d="M105 425q0 19 16 32t39 13t39 -13t16 -32t-16 -32t-39 -13t-39 13t-16 32zM235 425q0 19 16 32t39 13t39 -13t16 -32t-16 -32t-39 -13t-39 13t-16 32zM170 525q0 19 16 32t39 13t39 -13t16 -32t-16 -32t-39 -13t-39 13t-16 32zM-30 100q0 13 8.5 21.5t21.5 8.5h62
q-9 19 -13 36.5t-4 32.5q0 30 13 54t35 41.5t50.5 26.5t59.5 9h122q33 0 56.5 -23.5t23.5 -56.5v-120h45v-130h-450q-13 0 -21.5 8.5t-8.5 21.5v70zM221 200q-20 0 -33 -10t-13 -25q0 -14 13 -24.5t33 -10.5h54v70h-54z" />
    <glyph glyph-name="uni06CC.medi" horiz-adv-x="300" 
d="M30 -105q0 21 16 35.5t39 14.5t39 -14.5t16 -35.5t-16 -35.5t-39 -14.5t-39 14.5t-16 35.5zM160 -105q0 21 16 35.5t39 14.5t39 -14.5t16 -35.5t-16 -35.5t-39 -14.5t-39 14.5t-16 35.5zM-30 100q0 13 8.5 21.5t21.5 8.5h85v180q0 8 6 14t14 6h90q8 0 14 -6t6 -14v-180
h85v-130h-300q-13 0 -21.5 8.5t-8.5 21.5v70z" />
    <glyph glyph-name="uni0763.fina" horiz-adv-x="920" 
d="M180 553q0 19 16 32t39 13t39 -13t16 -32t-16 -32t-39 -13t-39 13t-16 32zM310 553q0 19 16 32t39 13t39 -13t16 -32t-16 -32t-39 -13t-39 13t-16 32zM245 453q0 19 16 32t39 13t39 -13t16 -32t-16 -32t-39 -13t-39 13t-16 32zM125 0q-33 0 -56.5 23.5t-23.5 56.5v215
q0 8 6 14t14 6h90q8 0 14 -6t6 -14v-165h570v55h-413v130l250 251l92 -92l-159 -159h280q33 0 56.5 -23.5t23.5 -56.5v-105h45v-130h-795z" />
    <glyph glyph-name="uni0763.init" horiz-adv-x="410" 
d="M8 632q0 19 16 32t39 13t39 -13t16 -32t-16 -32t-39 -13t-39 13t-16 32zM138 632q0 19 16 32t39 13t39 -13t16 -32t-16 -32t-39 -13t-39 13t-16 32zM73 532q0 19 16 32t39 13t39 -13t16 -32t-16 -32t-39 -13t-39 13t-16 32zM0 0q-13 0 -21.5 8.5t-8.5 21.5v70
q0 13 8.5 21.5t21.5 8.5h235v38q0 40 -25 56t-57 16q-30 0 -58 -11q-9 19 -15.5 31t-13 22.5t-13 22.5t-15.5 31l241 242l92 -92l-138 -139q28 -6 52.5 -19t42 -34.5t27.5 -52.5t10 -73v-148q0 -8 -6 -14t-14 -6h-345z" />
    <glyph glyph-name="uni0763.medi" horiz-adv-x="410" 
d="M8 632q0 19 16 32t39 13t39 -13t16 -32t-16 -32t-39 -13t-39 13t-16 32zM138 632q0 19 16 32t39 13t39 -13t16 -32t-16 -32t-39 -13t-39 13t-16 32zM73 532q0 19 16 32t39 13t39 -13t16 -32t-16 -32t-39 -13t-39 13t-16 32zM0 0q-13 0 -21.5 8.5t-8.5 21.5v70
q0 13 8.5 21.5t21.5 8.5h235v38q0 40 -25 56t-57 16q-30 0 -58 -11q-9 19 -15.5 31t-13 22.5t-13 22.5t-15.5 31l242 242l92 -92l-139 -139q28 -6 52.5 -19t42 -34.5t27.5 -52.5t10 -73v-38h45v-130h-410z" />
    <glyph glyph-name="uni0651064B" 
d="M-89 172l177 28v-28l-177 -29v29zM-89 229l177 29v-29l-177 -28v28zM15 104q-1 -5 -1 -8v-8q0 -21 7.5 -31.5t13.5 -10.5t10.5 8t4.5 29q0 5 -0.5 11.5t-1.5 13.5l29 5q1 -5 1.5 -11.5t0.5 -14.5q0 -12 -2 -25t-7 -23.5t-13.5 -17t-21.5 -6.5q-8 0 -17 5t-14 13
q-6 -13 -16 -20t-20 -7q-17 0 -31.5 13.5t-14.5 43.5q0 11 3 25l30 5q-3 -15 -3 -26q0 -32 16 -32q7 0 14 10.5t7 30.5v11q0 5 -2 12z" />
    <glyph glyph-name="uni06F4.urdu" horiz-adv-x="550" 
d="M470 530q8 0 14 -6t6 -14v-157q0 -33 -13 -58.5t-35.5 -42t-52 -25t-62.5 -8.5q-29 0 -59 6t-58 19v-224q0 -8 -6 -14t-14 -6h-90q-8 0 -14 6t-6 14v490q0 8 6 14t14 6h90q8 0 14 -6t6 -14v-115q0 -11 8 -19.5t20 -14.5t27.5 -9t30.5 -3q25 0 44.5 10t19.5 31v120
q0 8 6 14t14 6h90z" />
    <glyph glyph-name="uni06F7.urdu" horiz-adv-x="410" 
d="M20 0l174 510q3 8 10 14t15 6h120l-137 -400h188v-130h-370z" />
    <glyph glyph-name="bar" horiz-adv-x="248" 
d="M80 -210v860h88v-860h-88z" />
    <glyph glyph-name="p32" 
d="M-120 85q0 19 16 32t39 13t39 -13t16 -32t-16 -32t-39 -13t-39 13t-16 32zM10 85q0 19 16 32t39 13t39 -13t16 -32t-16 -32t-39 -13t-39 13t-16 32zM-55 -15q0 19 16 32t39 13t39 -13t16 -32t-16 -32t-39 -13t-39 13t-16 32z" />
    <glyph glyph-name="x.1dot.small" 
d="M-55 110h110v-110h-110v110z" />
    <glyph glyph-name="p22" 
d="M-55 45q0 19 16 32t39 13t39 -13t16 -32t-16 -32t-39 -13t-39 13t-16 32zM-55 -55q0 19 16 32t39 13t39 -13t16 -32t-16 -32t-39 -13t-39 13t-16 32z" />
    <glyph glyph-name="p3s" 
d="M-117 110h107v-110h-107v110zM11 110h107v-110h-107v110zM-55 235h110v-107h-110v107z" />
    <glyph glyph-name="x.3dots.dsmall" 
d="M118 125h-107v110h107v-110zM-10 125h-107v110h107v-110zM56 0h-110v107h110v-107z" />
    <glyph glyph-name="x.wasla" 
d="M-65 33h15v47q0 6 5 6h21q5 0 5.5 -2t0.5 -4v-15l12 12q8 8 19 8h44q8 0 14 -6.5t6 -15.5v-43q0 -8 -6 -14t-14 -6h-122v33zM-12 33h57v20h-37z" />
    <glyph glyph-name="x.hehgoalcomma" 
d="M-1 0q-4 -11 -15 -33.5t-11 -44.5q0 -11 4.5 -19t17.5 -8q11 0 21 11t24 43l31 -14q-17 -42 -38 -60.5t-42 -18.5q-30 0 -42 18t-12 41q0 16 3.5 31.5t8.5 27.5q5 14 13 26h37z" />
    <glyph glyph-name="x.ghehstroke" 
d="M651 463l-244 -244l-37 51l237 237z" />
    <glyph glyph-name="uni0691_2" horiz-adv-x="240" 
d="M-19 -62q6 -2 12 -2.5t11 -0.5q28 0 44.5 16.5t16.5 48.5v310q0 8 6 14t14 6h90q8 0 14 -6t6 -14v-310q0 -45 -13 -78.5t-35.5 -55.5t-53 -32.5t-66.5 -10.5q-38 0 -75 10zM49 433h15v107h32v-75l12 12q8 8 19 8h44q8 0 14 -6.5t6 -15.5v-43q0 -8 -6 -14t-14 -6h-122v33z
M102 433h57v20h-37z" />
    <glyph glyph-name="uni0698_2" horiz-adv-x="240" 
d="M17 425q0 19 14.5 32t35 13t35 -13t14.5 -32t-14.5 -32t-35 -13t-35 13t-14.5 32zM134 425q0 19 14.5 32t35 13t35 -13t14.5 -32t-14.5 -32t-35 -13t-35 13t-14.5 32zM75 525q0 19 14.5 32t35.5 13t35.5 -13t14.5 -32t-14.5 -32t-35.5 -13t-35.5 13t-14.5 32zM-19 -62
q6 -2 12 -2.5t11 -0.5q28 0 44.5 16.5t16.5 48.5v310q0 8 6 14t14 6h90q8 0 14 -6t6 -14v-310q0 -45 -13 -78.5t-35.5 -55.5t-53 -32.5t-66.5 -10.5q-38 0 -75 10z" />
    <glyph glyph-name="uni0698.fina2" horiz-adv-x="240" 
d="M17 425q0 19 14.5 32t35 13t35 -13t14.5 -32t-14.5 -32t-35 -13t-35 13t-14.5 32zM134 425q0 19 14.5 32t35 13t35 -13t14.5 -32t-14.5 -32t-35 -13t-35 13t-14.5 32zM75 525q0 19 14.5 32t35.5 13t35.5 -13t14.5 -32t-14.5 -32t-35.5 -13t-35.5 13t-14.5 32zM175 330
q8 0 14 -6t6 -14v-180h45v-130h-45q0 -45 -13 -78.5t-35.5 -55.5t-53 -32.5t-66.5 -10.5q-38 0 -74 10l28 105q12 -3 23 -3q29 0 45 16.5t16 48.5v310q0 8 6 14t14 6h90z" />
    <glyph glyph-name="rehf2" horiz-adv-x="240" 
d="M175 330q8 0 14 -6t6 -14v-180h45v-130h-45q0 -45 -13 -78.5t-35.5 -55.5t-53 -32.5t-66.5 -10.5q-38 0 -74 10l28 105q12 -3 23 -3q29 0 45 16.5t16 48.5v310q0 8 6 14t14 6h90z" />
    <glyph glyph-name="reh2" horiz-adv-x="240" 
d="M-19 -62q6 -2 12 -2.5t11 -0.5q28 0 44.5 16.5t16.5 48.5v310q0 8 6 14t14 6h90q8 0 14 -6t6 -14v-310q0 -45 -13 -78.5t-35.5 -55.5t-53 -32.5t-66.5 -10.5q-38 0 -75 10z" />
    <glyph glyph-name="zainf2" horiz-adv-x="240" 
d="M75 445q0 21 16 35.5t39 14.5t39 -14.5t16 -35.5t-16 -35.5t-39 -14.5t-39 14.5t-16 35.5zM175 330q8 0 14 -6t6 -14v-180h45v-130h-45q0 -45 -13 -78.5t-35.5 -55.5t-53 -32.5t-66.5 -10.5q-38 0 -74 10l28 105q12 -3 23 -3q29 0 45 16.5t16 48.5v310q0 8 6 14t14 6h90z
" />
    <glyph glyph-name="zain2" horiz-adv-x="240" 
d="M75 445q0 21 16 35.5t39 14.5t39 -14.5t16 -35.5t-16 -35.5t-39 -14.5t-39 14.5t-16 35.5zM-19 -62q6 -2 12 -2.5t11 -0.5q28 0 44.5 16.5t16.5 48.5v310q0 8 6 14t14 6h90q8 0 14 -6t6 -14v-310q0 -45 -13 -78.5t-35.5 -55.5t-53 -32.5t-66.5 -10.5q-38 0 -75 10z" />
    <glyph glyph-name="uni0691.fina2" horiz-adv-x="240" 
d="M175 330q8 0 14 -6t6 -14v-180h45v-130h-45q0 -45 -13 -78.5t-35.5 -55.5t-53 -32.5t-66.5 -10.5q-38 0 -74 10l28 105q12 -3 23 -3q29 0 45 16.5t16 48.5v310q0 8 6 14t14 6h90zM49 433h15v107h32v-75l12 12q8 8 19 8h44q8 0 14 -6.5t6 -15.5v-43q0 -8 -6 -14t-14 -6
h-122v33zM102 433h57v20h-37z" />
    <glyph glyph-name="sennam2" horiz-adv-x="235" 
 />
    <glyph glyph-name="sennan2" horiz-adv-x="310" 
d="M-30 100q0 13 8.5 21.5t21.5 8.5h135v180q0 8 6 14t14 6h90q8 0 14 -6t6 -14v-230q0 -33 -23.5 -56.5t-56.5 -23.5h-185q-13 0 -21.5 8.5t-8.5 21.5v70z" />
    <glyph glyph-name="hmzn2" horiz-adv-x="300" 
 />
    <glyph glyph-name="hmzm2" horiz-adv-x="235" 
 />
    <glyph glyph-name="behn2" horiz-adv-x="300" 
 />
    <glyph glyph-name="behm2" horiz-adv-x="235" 
 />
    <glyph glyph-name="tehn2" horiz-adv-x="300" 
 />
    <glyph glyph-name="tehm2" horiz-adv-x="235" 
 />
    <glyph glyph-name="thehn2" horiz-adv-x="300" 
 />
    <glyph glyph-name="thehm2" horiz-adv-x="235" 
 />
    <glyph glyph-name="noonn2" horiz-adv-x="300" 
 />
    <glyph glyph-name="noonm2" horiz-adv-x="235" 
 />
    <glyph glyph-name="yehn2" horiz-adv-x="310" 
d="M-20 -135q0 21 16 35.5t39 14.5t39 -14.5t16 -35.5t-16 -35.5t-39 -14.5t-39 14.5t-16 35.5zM110 -135q0 21 16 35.5t39 14.5t39 -14.5t16 -35.5t-16 -35.5t-39 -14.5t-39 14.5t-16 35.5zM-30 100q0 13 8.5 21.5t21.5 8.5h135v180q0 8 6 14t14 6h90q8 0 14 -6t6 -14v-230
q0 -33 -23.5 -56.5t-56.5 -23.5h-185q-13 0 -21.5 8.5t-8.5 21.5v70z" />
    <glyph glyph-name="yehm2" horiz-adv-x="235" 
 />
    <glyph glyph-name="uni0679.init2" horiz-adv-x="300" 
 />
    <glyph glyph-name="uni0679.medi2" horiz-adv-x="310" 
d="M-20 -95q0 19 16 32t39 13t39 -13t16 -32t-16 -32t-39 -13t-39 13t-16 32zM110 -95q0 19 16 32t39 13t39 -13t16 -32t-16 -32t-39 -13t-39 13t-16 32zM45 -195q0 19 16 32t39 13t39 -13t16 -32t-16 -32t-39 -13t-39 13t-16 32zM-30 100q0 13 8.5 21.5t21.5 8.5h135v180
q0 8 6 14t14 6h90q8 0 14 -6t6 -14v-230q0 -33 -23.5 -56.5t-56.5 -23.5h-185q-13 0 -21.5 8.5t-8.5 21.5v70z" />
    <glyph glyph-name="uni067E.init2" horiz-adv-x="235" 
 />
    <glyph glyph-name="uni067E.medi2" horiz-adv-x="235" 
 />
    <glyph glyph-name="sennayehf" horiz-adv-x="840" 
d="M622 203h-150q-18 0 -35 -13t-17 -37h70q33 0 56.5 -23.5t23.5 -56.5v-50q0 -37 -14 -70t-38.5 -57.5t-57.5 -38.5t-70 -14h-165q-37 0 -70 14t-57.5 38.5t-38.5 57.5t-14 70v125q0 8 6 14t14 6h90q8 0 14 -6t6 -14v-101q0 -14 1.5 -27.5t7 -24t15 -16.5t26.5 -6h140
q11 0 24 2t24.5 8t19 15.5t7.5 24.5h-90q-25 0 -42.5 17.5t-17.5 42.5v50q0 42 16 77.5t44 61t64.5 39.5t77.5 14h217q19 0 24 -20l38 -175h69v-130h-154q-19 0 -24 20z" />
    <glyph glyph-name="yehyehf" horiz-adv-x="840" 
d="M190 -250.5q0 18.5 16 32t39 13.5t39 -13.5t16 -32t-16 -32t-39 -13.5t-39 13.5t-16 32zM320 -250.5q0 18.5 16 32t39 13.5t39 -13.5t16 -32t-16 -32t-39 -13.5t-39 13.5t-16 32zM620 -105q0 19 16 32t39 13t39 -13t16 -32t-16 -32t-39 -13t-39 13t-16 32zM620 -205
q0 19 16 32t39 13t39 -13t16 -32t-16 -32t-39 -13t-39 13t-16 32zM622 203h-150q-18 0 -35 -13t-17 -37h70q33 0 56.5 -23.5t23.5 -56.5v-50q0 -37 -14 -70t-38.5 -57.5t-57.5 -38.5t-70 -14h-165q-37 0 -70 14t-57.5 38.5t-38.5 57.5t-14 70v125q0 8 6 14t14 6h90
q8 0 14 -6t6 -14v-101q0 -14 1.5 -27.5t7 -24t15 -16.5t26.5 -6h140q11 0 24 2t24.5 8t19 15.5t7.5 24.5h-90q-25 0 -42.5 17.5t-17.5 42.5v50q0 42 16 77.5t44 61t64.5 39.5t77.5 14h217q19 0 24 -20l38 -175h69v-130h-154q-19 0 -24 20z" />
    <glyph glyph-name="uni067Eyehf" horiz-adv-x="840" 
d="M190 -250.5q0 18.5 16 32t39 13.5t39 -13.5t16 -32t-16 -32t-39 -13.5t-39 13.5t-16 32zM320 -250.5q0 18.5 16 32t39 13.5t39 -13.5t16 -32t-16 -32t-39 -13.5t-39 13.5t-16 32zM551 -205q0 19 16 32t39 13t39 -13t16 -32t-16 -32t-39 -13t-39 13t-16 32zM681 -205
q0 19 16 32t39 13t39 -13t16 -32t-16 -32t-39 -13t-39 13t-16 32zM616 -105q0 19 16 32t39 13t39 -13t16 -32t-16 -32t-39 -13t-39 13t-16 32zM622 203h-150q-18 0 -35 -13t-17 -37h70q33 0 56.5 -23.5t23.5 -56.5v-50q0 -37 -14 -70t-38.5 -57.5t-57.5 -38.5t-70 -14h-165
q-37 0 -70 14t-57.5 38.5t-38.5 57.5t-14 70v125q0 8 6 14t14 6h90q8 0 14 -6t6 -14v-101q0 -14 1.5 -27.5t7 -24t15 -16.5t26.5 -6h140q11 0 24 2t24.5 8t19 15.5t7.5 24.5h-90q-25 0 -42.5 17.5t-17.5 42.5v50q0 42 16 77.5t44 61t64.5 39.5t77.5 14h217q19 0 24 -20
l38 -175h69v-130h-154q-19 0 -24 20z" />
    </font>
</defs>
</svg>
