<?xml version="1.0" standalone="no"?>
<!DOCTYPE svg PUBLIC "-//W3C//DTD SVG 1.1//EN" "http://www.w3.org/Graphics/SVG/1.1/DTD/svg11.dtd" >
<svg>
<metadata>
Created by FontForge 20090622 at Mon Sep  3 11:34:48 2018
 By deploy user
Copyright (c) 2014 by AbdoFonts. All rights reserved.
</metadata>
<defs>
<font id="AbdoMaster-DemiBold" horiz-adv-x="0" >
  <font-face 
    font-family="AbdoMaster-DemiBold"
    font-weight="400"
    font-stretch="normal"
    units-per-em="700"
    panose-1="2 0 5 0 3 0 0 2 0 4"
    ascent="537"
    descent="-163"
    x-height="370"
    cap-height="530"
    bbox="-187 -508 1470 787"
    underline-thickness="55"
    underline-position="-46"
    unicode-range="U+0020-U+FEFA"
  />
<missing-glyph horiz-adv-x="592" 
d="M108 365h-21v-47h-37v146h95v-146h-37v47zM490 -40h-37v87h-21v-87h-37v87h-21v-87h-37v106h153v-106zM165 464h37v-40h58v-106h-95v146zM375 318h-95v106h58v40h37v-146zM490 318h-95v106h95v-106zM235 117h-95v106h95v-106zM317 -40h-95v106h95v-106zM350 117h-37v87
h-21v-87h-37v106h95v-106zM107 66h95v-34h-37v15h-21v-68h21v15h37v-34h-95v106zM484 204v-24h58v-63h-95v19h58v25h-58v62h95v-19h-58zM87 164v-47h-37v146h75v-19h-38v-61h38v-19h-38zM407 204v-87h-37v146h37v-40h25v-19h-25zM317 337h21v68h-21v-68zM177 136h21v68h-21
v-68zM202 337h21v68h-21v-68zM259 -21h21v68h-21v-68zM432 337h21v68h-21v-68zM87 384h21v61h-21v-61zM87 -40h-37v29h37v-29z" />
    <glyph glyph-name="hmzyehf" unicode="&#xfe8c;&#xfef2;" horiz-adv-x="840" arabic-form="final" 
d="M190 -250.5q0 17.5 16 29t39 11.5t39 -11.5t16 -29t-16 -29t-39 -11.5t-39 11.5t-16 29zM320 -250.5q0 17.5 16 29t39 11.5t39 -11.5t16 -29t-16 -29t-39 -11.5t-39 11.5t-16 29zM602 476q-5 4 -12.5 6.5t-14.5 2.5q-8 0 -13.5 -4t-5.5 -14q0 -8 7 -15t21 -7h38v-45h-124
v45h24q-14 12 -14 31q0 23 18 36t42 13q14 0 28.5 -5.5t24.5 -13.5zM510 123q26 0 43 -17t17 -43v-30q0 -37 -14 -70t-38.5 -57.5t-57.5 -38.5t-70 -14h-145q-37 0 -70 14t-57.5 38.5t-38.5 57.5t-14 70v105q0 8 6 14t14 6h50q8 0 14 -6t6 -14v-113q0 -17 8 -32t20.5 -26
t28.5 -17.5t33 -6.5h154q18 0 33 7.5t25.5 20t16.5 29t6 33.5h-90q-25 0 -42.5 17.5t-17.5 42.5v36q0 48 12.5 81.5t35 54.5t53.5 30.5t67 9.5h195q19 0 24 -20l42 -195h81v-90h-134q-19 0 -24 20l-42 193h-136q-35 0 -59.5 -18t-24.5 -60v-12h90z" />
    <glyph glyph-name="hmzmaksuraf" unicode="&#xfe8c;&#xfef0;" horiz-adv-x="840" arabic-form="final" 
d="M602 476q-5 4 -12.5 6.5t-14.5 2.5q-8 0 -13.5 -4t-5.5 -14q0 -8 7 -15t21 -7h38v-45h-124v45h24q-14 12 -14 31q0 23 18 36t42 13q14 0 28.5 -5.5t24.5 -13.5zM510 123q26 0 43 -17t17 -43v-30q0 -37 -14 -70t-38.5 -57.5t-57.5 -38.5t-70 -14h-145q-37 0 -70 14
t-57.5 38.5t-38.5 57.5t-14 70v105q0 8 6 14t14 6h50q8 0 14 -6t6 -14v-113q0 -17 8 -32t20.5 -26t28.5 -17.5t33 -6.5h154q18 0 33 7.5t25.5 20t16.5 29t6 33.5h-90q-25 0 -42.5 17.5t-17.5 42.5v36q0 48 12.5 81.5t35 54.5t53.5 30.5t67 9.5h195q19 0 24 -20l42 -195h81
v-90h-134q-19 0 -24 20l-42 193h-136q-35 0 -59.5 -18t-24.5 -60v-12h90z" />
    <glyph glyph-name="tehmaksuraf" unicode="&#xfe98;&#xfef0;" horiz-adv-x="840" arabic-form="final" 
d="M440 445q0 19 16 32t39 13t39 -13t16 -32t-16 -32t-39 -13t-39 13t-16 32zM570 445q0 19 16 32t39 13t39 -13t16 -32t-16 -32t-39 -13t-39 13t-16 32zM510 123q26 0 43 -17t17 -43v-30q0 -37 -14 -70t-38.5 -57.5t-57.5 -38.5t-70 -14h-145q-37 0 -70 14t-57.5 38.5
t-38.5 57.5t-14 70v105q0 8 6 14t14 6h50q8 0 14 -6t6 -14v-113q0 -17 8 -32t20.5 -26t28.5 -17.5t33 -6.5h154q18 0 33 7.5t25.5 20t16.5 29t6 33.5h-90q-25 0 -42.5 17.5t-17.5 42.5v36q0 48 12.5 81.5t35 54.5t53.5 30.5t67 9.5h195q19 0 24 -20l42 -195h81v-90h-134
q-19 0 -24 20l-42 193h-136q-35 0 -59.5 -18t-24.5 -60v-12h90z" />
    <glyph glyph-name="tehyehf" unicode="&#xfe98;&#xfef2;" horiz-adv-x="840" arabic-form="final" 
d="M440 445q0 19 16 32t39 13t39 -13t16 -32t-16 -32t-39 -13t-39 13t-16 32zM570 445q0 19 16 32t39 13t39 -13t16 -32t-16 -32t-39 -13t-39 13t-16 32zM190 -250.5q0 17.5 16 29t39 11.5t39 -11.5t16 -29t-16 -29t-39 -11.5t-39 11.5t-16 29zM320 -250.5q0 17.5 16 29
t39 11.5t39 -11.5t16 -29t-16 -29t-39 -11.5t-39 11.5t-16 29zM510 123q26 0 43 -17t17 -43v-30q0 -37 -14 -70t-38.5 -57.5t-57.5 -38.5t-70 -14h-145q-37 0 -70 14t-57.5 38.5t-38.5 57.5t-14 70v105q0 8 6 14t14 6h50q8 0 14 -6t6 -14v-113q0 -17 8 -32t20.5 -26
t28.5 -17.5t33 -6.5h154q18 0 33 7.5t25.5 20t16.5 29t6 33.5h-90q-25 0 -42.5 17.5t-17.5 42.5v36q0 48 12.5 81.5t35 54.5t53.5 30.5t67 9.5h195q19 0 24 -20l42 -195h81v-90h-134q-19 0 -24 20l-42 193h-136q-35 0 -59.5 -18t-24.5 -60v-12h90z" />
    <glyph glyph-name="thehmaksuraf" unicode="&#xfe9c;&#xfef0;" horiz-adv-x="840" arabic-form="final" 
d="M440 425q0 19 16 32t39 13t39 -13t16 -32t-16 -32t-39 -13t-39 13t-16 32zM570 425q0 19 16 32t39 13t39 -13t16 -32t-16 -32t-39 -13t-39 13t-16 32zM505 525q0 19 16 32t39 13t39 -13t16 -32t-16 -32t-39 -13t-39 13t-16 32zM510 123q26 0 43 -17t17 -43v-30
q0 -37 -14 -70t-38.5 -57.5t-57.5 -38.5t-70 -14h-145q-37 0 -70 14t-57.5 38.5t-38.5 57.5t-14 70v105q0 8 6 14t14 6h50q8 0 14 -6t6 -14v-113q0 -17 8 -32t20.5 -26t28.5 -17.5t33 -6.5h154q18 0 33 7.5t25.5 20t16.5 29t6 33.5h-90q-25 0 -42.5 17.5t-17.5 42.5v36
q0 48 12.5 81.5t35 54.5t53.5 30.5t67 9.5h195q19 0 24 -20l42 -195h81v-90h-134q-19 0 -24 20l-42 193h-136q-35 0 -59.5 -18t-24.5 -60v-12h90z" />
    <glyph glyph-name="thehyehf" unicode="&#xfe9c;&#xfef2;" horiz-adv-x="840" arabic-form="final" 
d="M190 -250.5q0 17.5 16 29t39 11.5t39 -11.5t16 -29t-16 -29t-39 -11.5t-39 11.5t-16 29zM320 -250.5q0 17.5 16 29t39 11.5t39 -11.5t16 -29t-16 -29t-39 -11.5t-39 11.5t-16 29zM440 425q0 19 16 32t39 13t39 -13t16 -32t-16 -32t-39 -13t-39 13t-16 32zM570 425
q0 19 16 32t39 13t39 -13t16 -32t-16 -32t-39 -13t-39 13t-16 32zM505 525q0 19 16 32t39 13t39 -13t16 -32t-16 -32t-39 -13t-39 13t-16 32zM510 123q26 0 43 -17t17 -43v-30q0 -37 -14 -70t-38.5 -57.5t-57.5 -38.5t-70 -14h-145q-37 0 -70 14t-57.5 38.5t-38.5 57.5
t-14 70v105q0 8 6 14t14 6h50q8 0 14 -6t6 -14v-113q0 -17 8 -32t20.5 -26t28.5 -17.5t33 -6.5h154q18 0 33 7.5t25.5 20t16.5 29t6 33.5h-90q-25 0 -42.5 17.5t-17.5 42.5v36q0 48 12.5 81.5t35 54.5t53.5 30.5t67 9.5h195q19 0 24 -20l42 -195h81v-90h-134q-19 0 -24 20
l-42 193h-136q-35 0 -59.5 -18t-24.5 -60v-12h90z" />
    <glyph glyph-name="seenmaksura" unicode="&#xfeb3;&#xfef0;" horiz-adv-x="1220" arabic-form="isolated" 
d="M735 305q8 0 14 -6t6 -14v-195h110v195q0 8 6 14t14 6h50q8 0 14 -6t6 -14v-195h110v195q0 8 6 14t14 6h50q8 0 14 -6t6 -14v-205q0 -33 -23.5 -56.5t-56.5 -23.5h-330q-33 0 -56.5 23.5t-23.5 56.5v133h-161q-35 0 -59.5 -18t-24.5 -60v-12h70q33 0 56.5 -23.5
t23.5 -56.5v-10q0 -38 -14 -70.5t-38.5 -57.5t-57.5 -39t-70 -14h-145q-37 0 -70 14t-57.5 39t-38.5 57.5t-14 70.5v105q0 8 6 14t14 6h50q8 0 14 -6t6 -14v-105q0 -17 6 -33.5t16.5 -29t25.5 -20.5t32 -8h155q39 0 64.5 26.5t25.5 64.5h-90q-26 0 -43 17t-17 43v36
q0 48 12.5 81.5t35 54.5t53.5 30.5t67 9.5h237z" />
    <glyph glyph-name="seenyeh" unicode="&#xfeb3;&#xfef2;" horiz-adv-x="1220" arabic-form="isolated" 
d="M190 -240.5q0 17.5 16 29t39 11.5t39 -11.5t16 -29t-16 -29t-39 -11.5t-39 11.5t-16 29zM320 -240.5q0 17.5 16 29t39 11.5t39 -11.5t16 -29t-16 -29t-39 -11.5t-39 11.5t-16 29zM735 305q8 0 14 -6t6 -14v-195h110v195q0 8 6 14t14 6h50q8 0 14 -6t6 -14v-195h110v195
q0 8 6 14t14 6h50q8 0 14 -6t6 -14v-205q0 -33 -23.5 -56.5t-56.5 -23.5h-330q-33 0 -56.5 23.5t-23.5 56.5v133h-161q-35 0 -59.5 -18t-24.5 -60v-12h70q33 0 56.5 -23.5t23.5 -56.5v-10q0 -38 -14 -70.5t-38.5 -57.5t-57.5 -39t-70 -14h-145q-37 0 -70 14t-57.5 39
t-38.5 57.5t-14 70.5v105q0 8 6 14t14 6h50q8 0 14 -6t6 -14v-105q0 -17 6 -33.5t16.5 -29t25.5 -20.5t32 -8h155q39 0 64.5 26.5t25.5 64.5h-90q-26 0 -43 17t-17 43v36q0 48 12.5 81.5t35 54.5t53.5 30.5t67 9.5h237z" />
    <glyph glyph-name="sheenmaksura" unicode="&#xfeb7;&#xfef0;" horiz-adv-x="1220" arabic-form="isolated" 
d="M790 425q0 19 16 32t39 13t39 -13t16 -32t-16 -32t-39 -13t-39 13t-16 32zM920 425q0 19 16 32t39 13t39 -13t16 -32t-16 -32t-39 -13t-39 13t-16 32zM855 525q0 19 16 32t39 13t39 -13t16 -32t-16 -32t-39 -13t-39 13t-16 32zM735 305q8 0 14 -6t6 -14v-195h110v195
q0 8 6 14t14 6h50q8 0 14 -6t6 -14v-195h110v195q0 8 6 14t14 6h50q8 0 14 -6t6 -14v-205q0 -33 -23.5 -56.5t-56.5 -23.5h-330q-33 0 -56.5 23.5t-23.5 56.5v133h-161q-35 0 -59.5 -18t-24.5 -60v-12h70q33 0 56.5 -23.5t23.5 -56.5v-10q0 -38 -14 -70.5t-38.5 -57.5
t-57.5 -39t-70 -14h-145q-37 0 -70 14t-57.5 39t-38.5 57.5t-14 70.5v105q0 8 6 14t14 6h50q8 0 14 -6t6 -14v-105q0 -17 6 -33.5t16.5 -29t25.5 -20.5t32 -8h155q39 0 64.5 26.5t25.5 64.5h-90q-26 0 -43 17t-17 43v36q0 48 12.5 81.5t35 54.5t53.5 30.5t67 9.5h237z" />
    <glyph glyph-name="sheenyeh" unicode="&#xfeb7;&#xfef2;" horiz-adv-x="1220" arabic-form="isolated" 
d="M190 -240.5q0 17.5 16 29t39 11.5t39 -11.5t16 -29t-16 -29t-39 -11.5t-39 11.5t-16 29zM320 -240.5q0 17.5 16 29t39 11.5t39 -11.5t16 -29t-16 -29t-39 -11.5t-39 11.5t-16 29zM790 425q0 19 16 32t39 13t39 -13t16 -32t-16 -32t-39 -13t-39 13t-16 32zM920 425
q0 19 16 32t39 13t39 -13t16 -32t-16 -32t-39 -13t-39 13t-16 32zM855 525q0 19 16 32t39 13t39 -13t16 -32t-16 -32t-39 -13t-39 13t-16 32zM735 305q8 0 14 -6t6 -14v-195h110v195q0 8 6 14t14 6h50q8 0 14 -6t6 -14v-195h110v195q0 8 6 14t14 6h50q8 0 14 -6t6 -14v-205
q0 -33 -23.5 -56.5t-56.5 -23.5h-330q-33 0 -56.5 23.5t-23.5 56.5v133h-161q-35 0 -59.5 -18t-24.5 -60v-12h70q33 0 56.5 -23.5t23.5 -56.5v-10q0 -38 -14 -70.5t-38.5 -57.5t-57.5 -39t-70 -14h-145q-37 0 -70 14t-57.5 39t-38.5 57.5t-14 70.5v105q0 8 6 14t14 6h50
q8 0 14 -6t6 -14v-105q0 -17 6 -33.5t16.5 -29t25.5 -20.5t32 -8h155q39 0 64.5 26.5t25.5 64.5h-90q-26 0 -43 17t-17 43v36q0 48 12.5 81.5t35 54.5t53.5 30.5t67 9.5h237z" />
    <glyph glyph-name="sadmaksura" unicode="&#xfebb;&#xfef0;" horiz-adv-x="1220" arabic-form="isolated" 
d="M938 240l-147 -150h274v150h-127zM570 33q0 -38 -14 -71t-38.5 -57.5t-57.5 -38.5t-70 -14h-145q-37 0 -70 14t-57.5 39t-38.5 57.5t-14 70.5v105q0 8 6 14t14 6h50q8 0 14 -6t6 -14v-105q0 -17 6.5 -33.5t17.5 -29.5t26 -20.5t32 -7.5h153q39 0 64.5 26.5t25.5 64.5h-90
q-26 0 -43 17t-17 43v36q0 48 12.5 81.5t35 54.5t53.5 30.5t67 9.5h195q8 0 15 -3.5t9 -13.5l26 -122l127 134q28 30 75 30h130q33 0 56.5 -23.5t23.5 -56.5v-170q0 -33 -23.5 -56.5t-56.5 -23.5h-369q-19 0 -24 20l-42 193h-136q-35 0 -59.5 -18t-24.5 -60v-12h90
q26 0 43 -17t17 -43v-30z" />
    <glyph glyph-name="sadyeh" unicode="&#xfebb;&#xfef2;" horiz-adv-x="1220" arabic-form="isolated" 
d="M190 -239.5q0 17.5 16 29t39 11.5t39 -11.5t16 -29t-16 -29t-39 -11.5t-39 11.5t-16 29zM320 -239.5q0 17.5 16 29t39 11.5t39 -11.5t16 -29t-16 -29t-39 -11.5t-39 11.5t-16 29zM938 240l-147 -150h274v150h-127zM570 33q0 -38 -14 -71t-38.5 -57.5t-57.5 -38.5t-70 -14
h-145q-37 0 -70 14t-57.5 39t-38.5 57.5t-14 70.5v105q0 8 6 14t14 6h50q8 0 14 -6t6 -14v-105q0 -17 6.5 -33.5t17.5 -29.5t26 -20.5t32 -7.5h153q39 0 64.5 26.5t25.5 64.5h-90q-26 0 -43 17t-17 43v36q0 48 12.5 81.5t35 54.5t53.5 30.5t67 9.5h195q8 0 15 -3.5t9 -13.5
l26 -122l127 134q28 30 75 30h130q33 0 56.5 -23.5t23.5 -56.5v-170q0 -33 -23.5 -56.5t-56.5 -23.5h-369q-19 0 -24 20l-42 193h-136q-35 0 -59.5 -18t-24.5 -60v-12h90q26 0 43 -17t17 -43v-30z" />
    <glyph glyph-name="dadmaksura" unicode="&#xfebf;&#xfef0;" horiz-adv-x="1220" arabic-form="isolated" 
d="M825 445q0 19 16 32t39 13t39 -13t16 -32t-16 -32t-39 -13t-39 13t-16 32zM938 240l-147 -150h274v150h-127zM570 33q0 -38 -14 -71t-38.5 -57.5t-57.5 -38.5t-70 -14h-145q-37 0 -70 14t-57.5 39t-38.5 57.5t-14 70.5v105q0 8 6 14t14 6h50q8 0 14 -6t6 -14v-105
q0 -17 6.5 -33.5t17.5 -29.5t26 -20.5t32 -7.5h153q39 0 64.5 26.5t25.5 64.5h-90q-26 0 -43 17t-17 43v36q0 48 12.5 81.5t35 54.5t53.5 30.5t67 9.5h195q8 0 15 -3.5t9 -13.5l26 -122l127 134q28 30 75 30h130q33 0 56.5 -23.5t23.5 -56.5v-170q0 -33 -23.5 -56.5
t-56.5 -23.5h-369q-19 0 -24 20l-42 193h-136q-35 0 -59.5 -18t-24.5 -60v-12h90q26 0 43 -17t17 -43v-30z" />
    <glyph glyph-name="dadyeh" unicode="&#xfebf;&#xfef2;" horiz-adv-x="1220" arabic-form="isolated" 
d="M825 445q0 19 16 32t39 13t39 -13t16 -32t-16 -32t-39 -13t-39 13t-16 32zM190 -240.5q0 17.5 16 29t39 11.5t39 -11.5t16 -29t-16 -29t-39 -11.5t-39 11.5t-16 29zM320 -240.5q0 17.5 16 29t39 11.5t39 -11.5t16 -29t-16 -29t-39 -11.5t-39 11.5t-16 29zM938 240
l-147 -150h274v150h-127zM570 33q0 -38 -14 -71t-38.5 -57.5t-57.5 -38.5t-70 -14h-145q-37 0 -70 14t-57.5 39t-38.5 57.5t-14 70.5v105q0 8 6 14t14 6h50q8 0 14 -6t6 -14v-105q0 -17 6.5 -33.5t17.5 -29.5t26 -20.5t32 -7.5h153q39 0 64.5 26.5t25.5 64.5h-90
q-26 0 -43 17t-17 43v36q0 48 12.5 81.5t35 54.5t53.5 30.5t67 9.5h195q8 0 15 -3.5t9 -13.5l26 -122l127 134q28 30 75 30h130q33 0 56.5 -23.5t23.5 -56.5v-170q0 -33 -23.5 -56.5t-56.5 -23.5h-369q-19 0 -24 20l-42 193h-136q-35 0 -59.5 -18t-24.5 -60v-12h90
q26 0 43 -17t17 -43v-30z" />
    <glyph glyph-name="seenmaksuraf" unicode="&#xfeb4;&#xfef0;" horiz-adv-x="1260" arabic-form="final" 
d="M745 0q-33 0 -56.5 23.5t-23.5 56.5v133h-161q-35 0 -59.5 -18t-24.5 -60v-12h70q33 0 56.5 -23.5t23.5 -56.5v-10q0 -38 -14 -70.5t-38.5 -57.5t-57.5 -39t-70 -14h-145q-37 0 -70 14t-57.5 39t-38.5 57.5t-14 70.5v105q0 8 6 14t14 6h50q8 0 14 -6t6 -14v-105
q0 -17 6 -33.5t16.5 -29t25.5 -20.5t32 -8h155q39 0 64.5 26.5t25.5 64.5h-90q-26 0 -43 17t-17 43v36q0 48 12.5 81.5t35 54.5t53.5 30.5t67 9.5h237q8 0 14 -5.5t6 -14.5v-195h110v195q0 8 6 14t14 6h50q8 0 14 -6t6 -14v-195h110v195q0 8 6 14t14 6h50q8 0 14 -6t6 -14
v-195h105v-90h-515z" />
    <glyph glyph-name="seenyehf" unicode="&#xfeb4;&#xfef2;" horiz-adv-x="1260" arabic-form="final" 
d="M190 -240.5q0 17.5 16 29t39 11.5t39 -11.5t16 -29t-16 -29t-39 -11.5t-39 11.5t-16 29zM320 -240.5q0 17.5 16 29t39 11.5t39 -11.5t16 -29t-16 -29t-39 -11.5t-39 11.5t-16 29zM745 0q-33 0 -56.5 23.5t-23.5 56.5v133h-161q-35 0 -59.5 -18t-24.5 -60v-12h70
q33 0 56.5 -23.5t23.5 -56.5v-10q0 -38 -14 -70.5t-38.5 -57.5t-57.5 -39t-70 -14h-145q-37 0 -70 14t-57.5 39t-38.5 57.5t-14 70.5v105q0 8 6 14t14 6h50q8 0 14 -6t6 -14v-105q0 -17 6 -33.5t16.5 -29t25.5 -20.5t32 -8h155q39 0 64.5 26.5t25.5 64.5h-90q-26 0 -43 17
t-17 43v36q0 48 12.5 81.5t35 54.5t53.5 30.5t67 9.5h237q8 0 14 -5.5t6 -14.5v-195h110v195q0 8 6 14t14 6h50q8 0 14 -6t6 -14v-195h110v195q0 8 6 14t14 6h50q8 0 14 -6t6 -14v-195h105v-90h-515z" />
    <glyph glyph-name="sheenmaksuraf" unicode="&#xfeb8;&#xfef0;" horiz-adv-x="1260" arabic-form="final" 
d="M790 425q0 19 16 32t39 13t39 -13t16 -32t-16 -32t-39 -13t-39 13t-16 32zM920 425q0 19 16 32t39 13t39 -13t16 -32t-16 -32t-39 -13t-39 13t-16 32zM855 525q0 19 16 32t39 13t39 -13t16 -32t-16 -32t-39 -13t-39 13t-16 32zM745 0q-33 0 -56.5 23.5t-23.5 56.5v133
h-161q-35 0 -59.5 -18t-24.5 -60v-12h70q33 0 56.5 -23.5t23.5 -56.5v-10q0 -38 -14 -70.5t-38.5 -57.5t-57.5 -39t-70 -14h-145q-37 0 -70 14t-57.5 39t-38.5 57.5t-14 70.5v105q0 8 6 14t14 6h50q8 0 14 -6t6 -14v-105q0 -17 6 -33.5t16.5 -29t25.5 -20.5t32 -8h155
q39 0 64.5 26.5t25.5 64.5h-90q-26 0 -43 17t-17 43v36q0 48 12.5 81.5t35 54.5t53.5 30.5t67 9.5h237q8 0 14 -5.5t6 -14.5v-195h110v195q0 8 6 14t14 6h50q8 0 14 -6t6 -14v-195h110v195q0 8 6 14t14 6h50q8 0 14 -6t6 -14v-195h105v-90h-515z" />
    <glyph glyph-name="sheenyehf" unicode="&#xfeb8;&#xfef2;" horiz-adv-x="1260" arabic-form="final" 
d="M190 -240.5q0 17.5 16 29t39 11.5t39 -11.5t16 -29t-16 -29t-39 -11.5t-39 11.5t-16 29zM320 -240.5q0 17.5 16 29t39 11.5t39 -11.5t16 -29t-16 -29t-39 -11.5t-39 11.5t-16 29zM790 425q0 19 16 32t39 13t39 -13t16 -32t-16 -32t-39 -13t-39 13t-16 32zM920 425
q0 19 16 32t39 13t39 -13t16 -32t-16 -32t-39 -13t-39 13t-16 32zM855 525q0 19 16 32t39 13t39 -13t16 -32t-16 -32t-39 -13t-39 13t-16 32zM745 0q-33 0 -56.5 23.5t-23.5 56.5v133h-161q-35 0 -59.5 -18t-24.5 -60v-12h70q33 0 56.5 -23.5t23.5 -56.5v-10
q0 -38 -14 -70.5t-38.5 -57.5t-57.5 -39t-70 -14h-145q-37 0 -70 14t-57.5 39t-38.5 57.5t-14 70.5v105q0 8 6 14t14 6h50q8 0 14 -6t6 -14v-105q0 -17 6 -33.5t16.5 -29t25.5 -20.5t32 -8h155q39 0 64.5 26.5t25.5 64.5h-90q-26 0 -43 17t-17 43v36q0 48 12.5 81.5t35 54.5
t53.5 30.5t67 9.5h237q8 0 14 -5.5t6 -14.5v-195h110v195q0 8 6 14t14 6h50q8 0 14 -6t6 -14v-195h110v195q0 8 6 14t14 6h50q8 0 14 -6t6 -14v-195h105v-90h-515z" />
    <glyph glyph-name="sadmaksuraf" unicode="&#xfebc;&#xfef0;" horiz-adv-x="1220" arabic-form="final" 
d="M706 0q-19 0 -24 20l-42 193h-136q-35 0 -59.5 -18t-24.5 -60v-12h90q26 0 43 -17t17 -43v-30q0 -38 -14 -71t-38.5 -57.5t-57.5 -38.5t-70 -14h-145q-37 0 -70 14t-57.5 39t-38.5 57.5t-14 70.5v105q0 8 6 14t14 6h50q8 0 14 -6t6 -14v-105q0 -17 6.5 -33.5t17.5 -29.5
t26 -20.5t32 -7.5h153q39 0 64.5 26.5t25.5 64.5h-90q-26 0 -43 17t-17 43v36q0 48 12.5 81.5t35 54.5t53.5 30.5t67 9.5h195q8 0 15 -3.5t9 -13.5l26 -122l127 134q28 30 75 30h130q33 0 56.5 -23.5t23.5 -56.5v-160h65v-90h-514zM938 240l-147 -150h274v150h-127z" />
    <glyph glyph-name="sadyehf" unicode="&#xfebc;&#xfef2;" horiz-adv-x="1220" arabic-form="final" 
d="M190 -239.5q0 17.5 16 29t39 11.5t39 -11.5t16 -29t-16 -29t-39 -11.5t-39 11.5t-16 29zM320 -239.5q0 17.5 16 29t39 11.5t39 -11.5t16 -29t-16 -29t-39 -11.5t-39 11.5t-16 29zM706 0q-19 0 -24 20l-42 193h-136q-35 0 -59.5 -18t-24.5 -60v-12h90q26 0 43 -17t17 -43
v-30q0 -38 -14 -71t-38.5 -57.5t-57.5 -38.5t-70 -14h-145q-37 0 -70 14t-57.5 39t-38.5 57.5t-14 70.5v105q0 8 6 14t14 6h50q8 0 14 -6t6 -14v-105q0 -17 6.5 -33.5t17.5 -29.5t26 -20.5t32 -7.5h153q39 0 64.5 26.5t25.5 64.5h-90q-26 0 -43 17t-17 43v36q0 48 12.5 81.5
t35 54.5t53.5 30.5t67 9.5h195q8 0 15 -3.5t9 -13.5l26 -122l127 134q28 30 75 30h130q33 0 56.5 -23.5t23.5 -56.5v-160h65v-90h-514zM938 240l-147 -150h274v150h-127z" />
    <glyph glyph-name="dadmaksuraf" unicode="&#xfec0;&#xfef0;" horiz-adv-x="1220" arabic-form="final" 
d="M825 445q0 19 16 32t39 13t39 -13t16 -32t-16 -32t-39 -13t-39 13t-16 32zM706 0q-19 0 -24 20l-42 193h-136q-35 0 -59.5 -18t-24.5 -60v-12h90q26 0 43 -17t17 -43v-30q0 -38 -14 -71t-38.5 -57.5t-57.5 -38.5t-70 -14h-145q-37 0 -70 14t-57.5 39t-38.5 57.5t-14 70.5
v105q0 8 6 14t14 6h50q8 0 14 -6t6 -14v-105q0 -17 6.5 -33.5t17.5 -29.5t26 -20.5t32 -7.5h153q39 0 64.5 26.5t25.5 64.5h-90q-26 0 -43 17t-17 43v36q0 48 12.5 81.5t35 54.5t53.5 30.5t67 9.5h195q8 0 15 -3.5t9 -13.5l26 -122l127 134q28 30 75 30h130q33 0 56.5 -23.5
t23.5 -56.5v-160h65v-90h-514zM938 240l-147 -150h274v150h-127z" />
    <glyph glyph-name="dadyehf" unicode="&#xfec0;&#xfef2;" horiz-adv-x="1220" arabic-form="final" 
d="M825 445q0 19 16 32t39 13t39 -13t16 -32t-16 -32t-39 -13t-39 13t-16 32zM190 -239.5q0 17.5 16 29t39 11.5t39 -11.5t16 -29t-16 -29t-39 -11.5t-39 11.5t-16 29zM320 -239.5q0 17.5 16 29t39 11.5t39 -11.5t16 -29t-16 -29t-39 -11.5t-39 11.5t-16 29zM706 0
q-19 0 -24 20l-42 193h-136q-35 0 -59.5 -18t-24.5 -60v-12h90q26 0 43 -17t17 -43v-30q0 -38 -14 -71t-38.5 -57.5t-57.5 -38.5t-70 -14h-145q-37 0 -70 14t-57.5 39t-38.5 57.5t-14 70.5v105q0 8 6 14t14 6h50q8 0 14 -6t6 -14v-105q0 -17 6.5 -33.5t17.5 -29.5t26 -20.5
t32 -7.5h153q39 0 64.5 26.5t25.5 64.5h-90q-26 0 -43 17t-17 43v36q0 48 12.5 81.5t35 54.5t53.5 30.5t67 9.5h195q8 0 15 -3.5t9 -13.5l26 -122l127 134q28 30 75 30h130q33 0 56.5 -23.5t23.5 -56.5v-160h65v-90h-514zM938 240l-147 -150h274v150h-127z" />
    <glyph glyph-name="uniFDF2" unicode="&#x627;&#xfedf;&#xfee0;&#xfeea;" horiz-adv-x="1120" arabic-form="isolated" 
d="M1035 550q8 0 14 -6t6 -14v-510q0 -8 -6 -14t-14 -6h-50q-8 0 -14 6t-6 14v510q0 8 6 14t14 6h50zM745 90v420q0 8 6 14t14 6h50q8 0 14 -6t6 -14v-430q0 -33 -23.5 -56.5t-56.5 -23.5h-590q-54 0 -77 20.5t-23 52.5q0 24 12 54l55 139q11 28 36 46t57 18h150q8 0 14 -6
t6 -14v-220h130v350q0 8 6 14t14 6h50q8 0 14 -6t6 -14v-350h130zM305 90v150h-86l-59 -150h145z" />
    <glyph glyph-name="uniFDFC" unicode="&#x631;&#xfef3;&#xfe8e;&#x644;" horiz-adv-x="1240" arabic-form="isolated" 
d="M455 -20q0 -33 -23.5 -56.5t-56.5 -23.5h-130q-37 0 -70 14t-57.5 38.5t-38.5 57.5t-14 70v118q0 8 6 14t14 6h50q8 0 14 -6t6 -14v-118q0 -40 26 -65t64 -25h120v540q0 8 6 14t14 6h50q8 0 14 -6t6 -14v-550zM655 550q8 0 14 -6t6 -14v-440h190v220q0 8 6 14t14 6h50
q8 0 14 -6t6 -14v-230q0 -33 -23.5 -56.5t-56.5 -23.5h-270q-8 0 -14 6t-6 14v510q0 8 6 14t14 6h50zM1095 310q0 8 6 14t14 6h50q8 0 14 -6t6 -14v-310q0 -89 -39.5 -130t-101.5 -41q-70 0 -154 43l29 71q23 -11 53 -20.5t57 -9.5q29 0 47.5 19t18.5 68v310zM700 -135
q0 19 16 32t39 13t39 -13t16 -32t-16 -32t-39 -13t-39 13t-16 32zM570 -135q0 19 16 32t39 13t39 -13t16 -32t-16 -32t-39 -13t-39 13t-16 32z" />
    <glyph glyph-name="lamalefmd" unicode="&#xfedf;&#xfe82;" horiz-adv-x="470" arabic-form="isolated" 
d="M95 -75l8 25q3 9 5 16l5 17q2 9 7 25q14 -5 44 -11t61 -6q18 0 34 2.5t28.5 9.5t20 17.5t7.5 27.5v482q0 8 6 14t14 6h50q8 0 14 -6t6 -14v-482q0 -42 -14 -70.5t-38 -46t-55.5 -25t-65.5 -7.5q-35 0 -70.5 7t-66.5 19zM141 500q8 0 15 -5t9 -15l50 -425h-70
q-8 0 -15.5 5t-8.5 15l-50 425h70zM178 554q-12 -9 -22.5 -12.5t-19.5 -3.5q-17 0 -31 6.5t-31 6.5q-10 0 -21 -4.5t-25 -16.5v41q14 12 25 16.5t21 4.5q17 0 31 -6.5t31 -6.5q9 0 19.5 3.5t22.5 12.5v-41z" />
    <glyph glyph-name="lamalefmdf" unicode="&#xfee0;&#xfe82;" horiz-adv-x="470" arabic-form="final" 
d="M178 554q-12 -9 -22.5 -12.5t-19.5 -3.5q-17 0 -31 6.5t-31 6.5q-10 0 -21 -4.5t-25 -16.5v41q14 12 25 16.5t21 4.5q17 0 31 -6.5t31 -6.5q9 0 19.5 3.5t22.5 12.5v-41zM95 -75l8 25q3 9 5 17l5 16q2 9 7 25q14 -5 44 -11t61 -6q17 0 33.5 3t29 9.5t20 17.5t7.5 27v482
q0 8 6 14t14 6h50q8 0 14 -6t6 -14v-440h65v-90h-71q-8 -28 -24 -47t-38.5 -31t-49.5 -17.5t-55 -5.5q-35 0 -70.5 6.5t-66.5 19.5zM141 500q8 0 15 -5t9 -15l50 -425h-70q-8 0 -15.5 5t-8.5 15l-50 425h70z" />
    <glyph glyph-name="lamalefhmz" unicode="&#xfedf;&#xfe84;" horiz-adv-x="470" arabic-form="isolated" 
d="M95 -75l8 25q3 9 5 16l5 17q2 9 7 25q14 -5 44 -11t61 -6q18 0 34 2.5t28.5 9.5t20 17.5t7.5 27.5v482q0 8 6 14t14 6h50q8 0 14 -6t6 -14v-482q0 -42 -14 -70.5t-38 -46t-55.5 -25t-65.5 -7.5q-35 0 -70.5 7t-66.5 19zM141 500q8 0 15 -5t9 -15l50 -425h-70
q-8 0 -15.5 5t-8.5 15l-50 425h70zM147 616q-5 4 -12.5 6.5t-14.5 2.5q-8 0 -13.5 -4t-5.5 -14q0 -8 7 -15t21 -7h38v-45h-124v45h24q-14 12 -14 31q0 23 18 36t42 13q14 0 28.5 -5.5t24.5 -13.5z" />
    <glyph glyph-name="lamalefhmzf" unicode="&#xfee0;&#xfe84;" horiz-adv-x="470" arabic-form="final" 
d="M147 616q-5 4 -12.5 6.5t-14.5 2.5q-8 0 -13.5 -4t-5.5 -14q0 -8 7 -15t21 -7h38v-45h-124v45h24q-14 12 -14 31q0 23 18 36t42 13q14 0 28.5 -5.5t24.5 -13.5zM95 -75l8 25q3 9 5 17l5 16q2 9 7 25q14 -5 44 -11t61 -6q17 0 33.5 3t29 9.5t20 17.5t7.5 27v482q0 8 6 14
t14 6h50q8 0 14 -6t6 -14v-440h65v-90h-71q-8 -28 -24 -47t-38.5 -31t-49.5 -17.5t-55 -5.5q-35 0 -70.5 6.5t-66.5 19.5zM141 500q8 0 15 -5t9 -15l50 -425h-70q-8 0 -15.5 5t-8.5 15l-50 425h70z" />
    <glyph glyph-name="lamalefhmz2" unicode="&#xfedf;&#xfe88;" horiz-adv-x="470" arabic-form="isolated" 
d="M95 -75l8 25q3 9 5 16l5 17q2 9 7 25q14 -5 44 -11t61 -6q18 0 34 2.5t28.5 9.5t20 17.5t7.5 27.5v482q0 8 6 14t14 6h50q8 0 14 -6t6 -14v-482q0 -42 -14 -70.5t-38 -46t-55.5 -25t-65.5 -7.5q-35 0 -70.5 7t-66.5 19zM141 500q8 0 15 -5t9 -15l50 -425h-70
q-8 0 -15.5 5t-8.5 15l-50 425h70zM187 -182q-5 4 -12.5 6.5t-14.5 2.5q-8 0 -13.5 -4t-5.5 -13q0 -7 7 -13t21 -6h38v-41h-124v41h24q-14 10 -14 27q0 21 18 33t42 12q14 0 28.5 -5t24.5 -13z" />
    <glyph glyph-name="lamalefhmz2f" unicode="&#xfee0;&#xfe88;" horiz-adv-x="470" arabic-form="final" 
d="M187 -182q-5 4 -12.5 6.5t-14.5 2.5q-8 0 -13.5 -4t-5.5 -13q0 -7 7 -13t21 -6h38v-41h-124v41h24q-14 10 -14 27q0 21 18 33t42 12q14 0 28.5 -5t24.5 -13zM95 -75l8 25q3 9 5 17l5 16q2 9 7 25q14 -5 44 -11t61 -6q17 0 33.5 3t29 9.5t20 17.5t7.5 27v482q0 8 6 14
t14 6h50q8 0 14 -6t6 -14v-440h65v-90h-71q-8 -28 -24 -47t-38.5 -31t-49.5 -17.5t-55 -5.5q-35 0 -70.5 6.5t-66.5 19.5zM141 500q8 0 15 -5t9 -15l50 -425h-70q-8 0 -15.5 5t-8.5 15l-50 425h70z" />
    <glyph glyph-name="lamalef" unicode="&#xfedf;&#xfe8e;" horiz-adv-x="470" 
d="M95 -75l8 25q3 9 5 16l5 17q2 9 7 25q14 -5 44 -11t61 -6q18 0 34 2.5t28.5 9.5t20 17.5t7.5 27.5v482q0 8 6 14t14 6h50q8 0 14 -6t6 -14v-482q0 -42 -14 -70.5t-38 -46t-55.5 -25t-65.5 -7.5q-35 0 -70.5 7t-66.5 19zM141 500q8 0 15 -5t9 -15l50 -425h-70
q-8 0 -15.5 5t-8.5 15l-50 425h70z" />
    <glyph glyph-name="lamaleff" unicode="&#xfee0;&#xfe8e;" horiz-adv-x="470" 
d="M95 -75l8 25q3 9 5 17l5 16q2 9 7 25q14 -5 44 -11t61 -6q17 0 33.5 3t29 9.5t20 17.5t7.5 27v482q0 8 6 14t14 6h50q8 0 14 -6t6 -14v-440h65v-90h-71q-8 -28 -24 -47t-38.5 -31t-49.5 -17.5t-55 -5.5q-35 0 -70.5 6.5t-66.5 19.5zM141 500q8 0 15 -5t9 -15l50 -425h-70
q-8 0 -15.5 5t-8.5 15l-50 425h70z" />
    <glyph glyph-name="lamalefwasl" unicode="&#xfedf;&#xfb51;" horiz-adv-x="470" 
d="M95 -75l8 25q3 9 5 16l5 17q2 9 7 25q14 -5 44 -11t61 -6q18 0 34 2.5t28.5 9.5t20 17.5t7.5 27.5v482q0 8 6 14t14 6h50q8 0 14 -6t6 -14v-482q0 -42 -14 -70.5t-38 -46t-55.5 -25t-65.5 -7.5q-35 0 -70.5 7t-66.5 19zM141 500q8 0 15 -5t9 -15l50 -425h-70
q-8 0 -15.5 5t-8.5 15l-50 425h70zM40 570h15v53h27v-22l14 14q8 8 19 8h32q8 0 14 -6.5t6 -15.5v-41q0 -8 -6 -14t-14 -6h-107v30zM85 570h52v23h-27z" />
    <glyph glyph-name="lamalefwaslf" unicode="&#xfee0;&#xfb51;" horiz-adv-x="470" 
d="M40 570h15v53h27v-22l14 14q8 8 19 8h32q8 0 14 -6.5t6 -15.5v-41q0 -8 -6 -14t-14 -6h-107v30zM85 570h52v23h-27zM95 -75l8 25q3 9 5 17l5 16q2 9 7 25q14 -5 44 -11t61 -6q17 0 33.5 3t29 9.5t20 17.5t7.5 27v482q0 8 6 14t14 6h50q8 0 14 -6t6 -14v-440h65v-90h-71
q-8 -28 -24 -47t-38.5 -31t-49.5 -17.5t-55 -5.5q-35 0 -70.5 6.5t-66.5 19.5zM141 500q8 0 15 -5t9 -15l50 -425h-70q-8 0 -15.5 5t-8.5 15l-50 425h70z" />
    <glyph glyph-name="lellah" unicode="&#xfedf;&#xfee0;&#xfeea;" horiz-adv-x="900" 
d="M745 90v420q0 8 6 14t14 6h50q8 0 14 -6t6 -14v-430q0 -33 -23.5 -56.5t-56.5 -23.5h-590q-54 0 -77 20.5t-23 52.5q0 24 12 54l55 139q11 28 36 46t57 18h150q8 0 14 -6t6 -14v-220h130v350q0 8 6 14t14 6h50q8 0 14 -6t6 -14v-350h130zM305 90v150h-86l-59 -150h145z
" />
    <glyph glyph-name="noonyehf" unicode="&#xfee8;&#xfef2;" horiz-adv-x="840" 
d="M505 445q0 19 16 32t39 13t39 -13t16 -32t-16 -32t-39 -13t-39 13t-16 32zM190 -250.5q0 17.5 16 29t39 11.5t39 -11.5t16 -29t-16 -29t-39 -11.5t-39 11.5t-16 29zM320 -250.5q0 17.5 16 29t39 11.5t39 -11.5t16 -29t-16 -29t-39 -11.5t-39 11.5t-16 29zM510 123
q26 0 43 -17t17 -43v-30q0 -37 -14 -70t-38.5 -57.5t-57.5 -38.5t-70 -14h-145q-37 0 -70 14t-57.5 38.5t-38.5 57.5t-14 70v105q0 8 6 14t14 6h50q8 0 14 -6t6 -14v-113q0 -17 8 -32t20.5 -26t28.5 -17.5t33 -6.5h154q18 0 33 7.5t25.5 20t16.5 29t6 33.5h-90
q-25 0 -42.5 17.5t-17.5 42.5v36q0 48 12.5 81.5t35 54.5t53.5 30.5t67 9.5h195q19 0 24 -20l42 -195h81v-90h-134q-19 0 -24 20l-42 193h-136q-35 0 -59.5 -18t-24.5 -60v-12h90z" />
    <glyph glyph-name="uni0679yehf" unicode="&#xfb69;&#xfef2;" horiz-adv-x="840" 
d="M190 -250.5q0 17.5 16 29t39 11.5t39 -11.5t16 -29t-16 -29t-39 -11.5t-39 11.5t-16 29zM320 -250.5q0 17.5 16 29t39 11.5t39 -11.5t16 -29t-16 -29t-39 -11.5t-39 11.5t-16 29zM503 430h15v103h27v-72l14 14q8 8 19 8h32q8 0 14 -6.5t6 -15.5v-41q0 -8 -6 -14t-14 -6
h-107v30zM548 430h52v23h-27zM510 123q26 0 43 -17t17 -43v-30q0 -37 -14 -70t-38.5 -57.5t-57.5 -38.5t-70 -14h-145q-37 0 -70 14t-57.5 38.5t-38.5 57.5t-14 70v105q0 8 6 14t14 6h50q8 0 14 -6t6 -14v-113q0 -17 8 -32t20.5 -26t28.5 -17.5t33 -6.5h154q18 0 33 7.5
t25.5 20t16.5 29t6 33.5h-90q-25 0 -42.5 17.5t-17.5 42.5v36q0 48 12.5 81.5t35 54.5t53.5 30.5t67 9.5h195q19 0 24 -20l42 -195h81v-90h-134q-19 0 -24 20l-42 193h-136q-35 0 -59.5 -18t-24.5 -60v-12h90z" />
    <glyph glyph-name="hmzyehhmzf" unicode="&#xfe8c;&#xfe8a;" horiz-adv-x="840" 
d="M152 316q-5 4 -12.5 6.5t-14.5 2.5q-8 0 -13.5 -4t-5.5 -14q0 -8 7 -15t21 -7h38v-45h-124v45h24q-14 12 -14 31q0 23 18 36t42 13q14 0 28.5 -5.5t24.5 -13.5zM602 476q-5 4 -12.5 6.5t-14.5 2.5q-8 0 -13.5 -4t-5.5 -14q0 -8 7 -15t21 -7h38v-45h-124v45h24
q-14 12 -14 31q0 23 18 36t42 13q14 0 28.5 -5.5t24.5 -13.5zM510 123q26 0 43 -17t17 -43v-30q0 -37 -14 -70t-38.5 -57.5t-57.5 -38.5t-70 -14h-145q-37 0 -70 14t-57.5 38.5t-38.5 57.5t-14 70v105q0 8 6 14t14 6h50q8 0 14 -6t6 -14v-113q0 -17 8 -32t20.5 -26
t28.5 -17.5t33 -6.5h154q18 0 33 7.5t25.5 20t16.5 29t6 33.5h-90q-25 0 -42.5 17.5t-17.5 42.5v36q0 48 12.5 81.5t35 54.5t53.5 30.5t67 9.5h195q19 0 24 -20l42 -195h81v-90h-134q-19 0 -24 20l-42 193h-136q-35 0 -59.5 -18t-24.5 -60v-12h90z" />
    <glyph glyph-name="tehyehhmzf" unicode="&#xfe98;&#xfe8a;" horiz-adv-x="840" 
d="M440 445q0 19 16 32t39 13t39 -13t16 -32t-16 -32t-39 -13t-39 13t-16 32zM570 445q0 19 16 32t39 13t39 -13t16 -32t-16 -32t-39 -13t-39 13t-16 32zM152 316q-5 4 -12.5 6.5t-14.5 2.5q-8 0 -13.5 -4t-5.5 -14q0 -8 7 -15t21 -7h38v-45h-124v45h24q-14 12 -14 31
q0 23 18 36t42 13q14 0 28.5 -5.5t24.5 -13.5zM510 123q26 0 43 -17t17 -43v-30q0 -37 -14 -70t-38.5 -57.5t-57.5 -38.5t-70 -14h-145q-37 0 -70 14t-57.5 38.5t-38.5 57.5t-14 70v105q0 8 6 14t14 6h50q8 0 14 -6t6 -14v-113q0 -17 8 -32t20.5 -26t28.5 -17.5t33 -6.5h154
q18 0 33 7.5t25.5 20t16.5 29t6 33.5h-90q-25 0 -42.5 17.5t-17.5 42.5v36q0 48 12.5 81.5t35 54.5t53.5 30.5t67 9.5h195q19 0 24 -20l42 -195h81v-90h-134q-19 0 -24 20l-42 193h-136q-35 0 -59.5 -18t-24.5 -60v-12h90z" />
    <glyph glyph-name="thehyehhmzf" unicode="&#xfe9c;&#xfe8a;" horiz-adv-x="840" 
d="M440 425q0 19 16 32t39 13t39 -13t16 -32t-16 -32t-39 -13t-39 13t-16 32zM570 425q0 19 16 32t39 13t39 -13t16 -32t-16 -32t-39 -13t-39 13t-16 32zM505 525q0 19 16 32t39 13t39 -13t16 -32t-16 -32t-39 -13t-39 13t-16 32zM152 316q-5 4 -12.5 6.5t-14.5 2.5
q-8 0 -13.5 -4t-5.5 -14q0 -8 7 -15t21 -7h38v-45h-124v45h24q-14 12 -14 31q0 23 18 36t42 13q14 0 28.5 -5.5t24.5 -13.5zM510 123q26 0 43 -17t17 -43v-30q0 -37 -14 -70t-38.5 -57.5t-57.5 -38.5t-70 -14h-145q-37 0 -70 14t-57.5 38.5t-38.5 57.5t-14 70v105q0 8 6 14
t14 6h50q8 0 14 -6t6 -14v-113q0 -17 8 -32t20.5 -26t28.5 -17.5t33 -6.5h154q18 0 33 7.5t25.5 20t16.5 29t6 33.5h-90q-25 0 -42.5 17.5t-17.5 42.5v36q0 48 12.5 81.5t35 54.5t53.5 30.5t67 9.5h195q19 0 24 -20l42 -195h81v-90h-134q-19 0 -24 20l-42 193h-136
q-35 0 -59.5 -18t-24.5 -60v-12h90z" />
    <glyph glyph-name="noonyehhmzf" unicode="&#xfee8;&#xfe8a;" horiz-adv-x="840" 
d="M505 445q0 19 16 32t39 13t39 -13t16 -32t-16 -32t-39 -13t-39 13t-16 32zM152 316q-5 4 -12.5 6.5t-14.5 2.5q-8 0 -13.5 -4t-5.5 -14q0 -8 7 -15t21 -7h38v-45h-124v45h24q-14 12 -14 31q0 23 18 36t42 13q14 0 28.5 -5.5t24.5 -13.5zM510 123q26 0 43 -17t17 -43v-30
q0 -37 -14 -70t-38.5 -57.5t-57.5 -38.5t-70 -14h-145q-37 0 -70 14t-57.5 38.5t-38.5 57.5t-14 70v105q0 8 6 14t14 6h50q8 0 14 -6t6 -14v-113q0 -17 8 -32t20.5 -26t28.5 -17.5t33 -6.5h154q18 0 33 7.5t25.5 20t16.5 29t6 33.5h-90q-25 0 -42.5 17.5t-17.5 42.5v36
q0 48 12.5 81.5t35 54.5t53.5 30.5t67 9.5h195q19 0 24 -20l42 -195h81v-90h-134q-19 0 -24 20l-42 193h-136q-35 0 -59.5 -18t-24.5 -60v-12h90z" />
    <glyph glyph-name="uni0679yehhmzf" unicode="&#xfb69;&#xfe8a;" horiz-adv-x="840" 
d="M503 430h15v103h27v-72l14 14q8 8 19 8h32q8 0 14 -6.5t6 -15.5v-41q0 -8 -6 -14t-14 -6h-107v30zM548 430h52v23h-27zM152 316q-5 4 -12.5 6.5t-14.5 2.5q-8 0 -13.5 -4t-5.5 -14q0 -8 7 -15t21 -7h38v-45h-124v45h24q-14 12 -14 31q0 23 18 36t42 13q14 0 28.5 -5.5
t24.5 -13.5zM510 123q26 0 43 -17t17 -43v-30q0 -37 -14 -70t-38.5 -57.5t-57.5 -38.5t-70 -14h-145q-37 0 -70 14t-57.5 38.5t-38.5 57.5t-14 70v105q0 8 6 14t14 6h50q8 0 14 -6t6 -14v-113q0 -17 8 -32t20.5 -26t28.5 -17.5t33 -6.5h154q18 0 33 7.5t25.5 20t16.5 29
t6 33.5h-90q-25 0 -42.5 17.5t-17.5 42.5v36q0 48 12.5 81.5t35 54.5t53.5 30.5t67 9.5h195q19 0 24 -20l42 -195h81v-90h-134q-19 0 -24 20l-42 193h-136q-35 0 -59.5 -18t-24.5 -60v-12h90z" />
    <glyph glyph-name="noonmaksuraf" unicode="&#xfee8;&#xfef0;" horiz-adv-x="840" 
d="M505 445q0 19 16 32t39 13t39 -13t16 -32t-16 -32t-39 -13t-39 13t-16 32zM510 123q26 0 43 -17t17 -43v-30q0 -37 -14 -70t-38.5 -57.5t-57.5 -38.5t-70 -14h-145q-37 0 -70 14t-57.5 38.5t-38.5 57.5t-14 70v105q0 8 6 14t14 6h50q8 0 14 -6t6 -14v-113q0 -17 8 -32
t20.5 -26t28.5 -17.5t33 -6.5h154q18 0 33 7.5t25.5 20t16.5 29t6 33.5h-90q-25 0 -42.5 17.5t-17.5 42.5v36q0 48 12.5 81.5t35 54.5t53.5 30.5t67 9.5h195q19 0 24 -20l42 -195h81v-90h-134q-19 0 -24 20l-42 193h-136q-35 0 -59.5 -18t-24.5 -60v-12h90z" />
    <glyph glyph-name="uni0679maksuraf" unicode="&#xfb69;&#xfef0;" horiz-adv-x="840" 
d="M503 430h15v103h27v-72l14 14q8 8 19 8h32q8 0 14 -6.5t6 -15.5v-41q0 -8 -6 -14t-14 -6h-107v30zM548 430h52v23h-27zM510 123q26 0 43 -17t17 -43v-30q0 -37 -14 -70t-38.5 -57.5t-57.5 -38.5t-70 -14h-145q-37 0 -70 14t-57.5 38.5t-38.5 57.5t-14 70v105q0 8 6 14
t14 6h50q8 0 14 -6t6 -14v-113q0 -17 8 -32t20.5 -26t28.5 -17.5t33 -6.5h154q18 0 33 7.5t25.5 20t16.5 29t6 33.5h-90q-25 0 -42.5 17.5t-17.5 42.5v36q0 48 12.5 81.5t35 54.5t53.5 30.5t67 9.5h195q19 0 24 -20l42 -195h81v-90h-134q-19 0 -24 20l-42 193h-136
q-35 0 -59.5 -18t-24.5 -60v-12h90z" />
    <glyph glyph-name="seenyehhmz" unicode="&#xfeb3;&#xfe8a;" horiz-adv-x="1220" 
d="M152 316q-5 4 -12.5 6.5t-14.5 2.5q-8 0 -13.5 -4t-5.5 -14q0 -8 7 -15t21 -7h38v-45h-124v45h24q-14 12 -14 31q0 23 18 36t42 13q14 0 28.5 -5.5t24.5 -13.5zM735 305q8 0 14 -6t6 -14v-195h110v195q0 8 6 14t14 6h50q8 0 14 -6t6 -14v-195h110v195q0 8 6 14t14 6h50
q8 0 14 -6t6 -14v-205q0 -33 -23.5 -56.5t-56.5 -23.5h-330q-33 0 -56.5 23.5t-23.5 56.5v133h-161q-35 0 -59.5 -18t-24.5 -60v-12h70q33 0 56.5 -23.5t23.5 -56.5v-10q0 -38 -14 -70.5t-38.5 -57.5t-57.5 -39t-70 -14h-145q-37 0 -70 14t-57.5 39t-38.5 57.5t-14 70.5v105
q0 8 6 14t14 6h50q8 0 14 -6t6 -14v-105q0 -17 6 -33.5t16.5 -29t25.5 -20.5t32 -8h155q39 0 64.5 26.5t25.5 64.5h-90q-26 0 -43 17t-17 43v36q0 48 12.5 81.5t35 54.5t53.5 30.5t67 9.5h237z" />
    <glyph glyph-name="seenyehhmzf" unicode="&#xfeb4;&#xfe8a;" horiz-adv-x="1260" 
d="M152 316q-5 4 -12.5 6.5t-14.5 2.5q-8 0 -13.5 -4t-5.5 -14q0 -8 7 -15t21 -7h38v-45h-124v45h24q-14 12 -14 31q0 23 18 36t42 13q14 0 28.5 -5.5t24.5 -13.5zM745 0q-33 0 -56.5 23.5t-23.5 56.5v133h-161q-35 0 -59.5 -18t-24.5 -60v-12h70q33 0 56.5 -23.5
t23.5 -56.5v-10q0 -38 -14 -70.5t-38.5 -57.5t-57.5 -39t-70 -14h-145q-37 0 -70 14t-57.5 39t-38.5 57.5t-14 70.5v105q0 8 6 14t14 6h50q8 0 14 -6t6 -14v-105q0 -17 6 -33.5t16.5 -29t25.5 -20.5t32 -8h155q39 0 64.5 26.5t25.5 64.5h-90q-26 0 -43 17t-17 43v36
q0 48 12.5 81.5t35 54.5t53.5 30.5t67 9.5h237q8 0 14 -5.5t6 -14.5v-195h110v195q0 8 6 14t14 6h50q8 0 14 -6t6 -14v-195h110v195q0 8 6 14t14 6h50q8 0 14 -6t6 -14v-195h105v-90h-515z" />
    <glyph glyph-name="sheenyehhmz" unicode="&#xfeb7;&#xfe8a;" horiz-adv-x="1220" 
d="M790 425q0 19 16 32t39 13t39 -13t16 -32t-16 -32t-39 -13t-39 13t-16 32zM920 425q0 19 16 32t39 13t39 -13t16 -32t-16 -32t-39 -13t-39 13t-16 32zM855 525q0 19 16 32t39 13t39 -13t16 -32t-16 -32t-39 -13t-39 13t-16 32zM152 316q-5 4 -12.5 6.5t-14.5 2.5
q-8 0 -13.5 -4t-5.5 -14q0 -8 7 -15t21 -7h38v-45h-124v45h24q-14 12 -14 31q0 23 18 36t42 13q14 0 28.5 -5.5t24.5 -13.5zM735 305q8 0 14 -6t6 -14v-195h110v195q0 8 6 14t14 6h50q8 0 14 -6t6 -14v-195h110v195q0 8 6 14t14 6h50q8 0 14 -6t6 -14v-205
q0 -33 -23.5 -56.5t-56.5 -23.5h-330q-33 0 -56.5 23.5t-23.5 56.5v133h-161q-35 0 -59.5 -18t-24.5 -60v-12h70q33 0 56.5 -23.5t23.5 -56.5v-10q0 -38 -14 -70.5t-38.5 -57.5t-57.5 -39t-70 -14h-145q-37 0 -70 14t-57.5 39t-38.5 57.5t-14 70.5v105q0 8 6 14t14 6h50
q8 0 14 -6t6 -14v-105q0 -17 6 -33.5t16.5 -29t25.5 -20.5t32 -8h155q39 0 64.5 26.5t25.5 64.5h-90q-26 0 -43 17t-17 43v36q0 48 12.5 81.5t35 54.5t53.5 30.5t67 9.5h237z" />
    <glyph glyph-name="sheenyehhmzf" unicode="&#xfeb8;&#xfe8a;" horiz-adv-x="1260" 
d="M790 425q0 19 16 32t39 13t39 -13t16 -32t-16 -32t-39 -13t-39 13t-16 32zM920 425q0 19 16 32t39 13t39 -13t16 -32t-16 -32t-39 -13t-39 13t-16 32zM855 525q0 19 16 32t39 13t39 -13t16 -32t-16 -32t-39 -13t-39 13t-16 32zM152 316q-5 4 -12.5 6.5t-14.5 2.5
q-8 0 -13.5 -4t-5.5 -14q0 -8 7 -15t21 -7h38v-45h-124v45h24q-14 12 -14 31q0 23 18 36t42 13q14 0 28.5 -5.5t24.5 -13.5zM745 0q-33 0 -56.5 23.5t-23.5 56.5v133h-161q-35 0 -59.5 -18t-24.5 -60v-12h70q33 0 56.5 -23.5t23.5 -56.5v-10q0 -38 -14 -70.5t-38.5 -57.5
t-57.5 -39t-70 -14h-145q-37 0 -70 14t-57.5 39t-38.5 57.5t-14 70.5v105q0 8 6 14t14 6h50q8 0 14 -6t6 -14v-105q0 -17 6 -33.5t16.5 -29t25.5 -20.5t32 -8h155q39 0 64.5 26.5t25.5 64.5h-90q-26 0 -43 17t-17 43v36q0 48 12.5 81.5t35 54.5t53.5 30.5t67 9.5h237
q8 0 14 -5.5t6 -14.5v-195h110v195q0 8 6 14t14 6h50q8 0 14 -6t6 -14v-195h110v195q0 8 6 14t14 6h50q8 0 14 -6t6 -14v-195h105v-90h-515z" />
    <glyph glyph-name="meemmaksura" unicode="&#xfee3;&#xfef0;" horiz-adv-x="1040" 
d="M975 128q0 -36 -15 -62.5t-40 -44t-57 -26t-65 -8.5q-36 0 -70 10.5t-63 30.5v187h-161q-36 0 -60 -17.5t-24 -59.5v-13h70q33 0 56.5 -23.5t23.5 -56.5v-10q0 -37 -14 -70t-38.5 -57.5t-57.5 -38.5t-70 -14h-145q-37 0 -70 14t-57.5 38.5t-38.5 57.5t-14 70v105
q0 8 6 14t14 6h50q8 0 14 -6t6 -14v-105q0 -38 26.5 -64t63.5 -26h145q45 0 67.5 26.5t22.5 63.5h-90q-26 0 -43 17.5t-17 42.5v37q0 48 12.5 81.5t35 53.5t53.5 29t67 9h372q22 0 41 -8.5t33 -22.5t22.5 -33t8.5 -41v-72zM755 215v-126q35 -11 55 -11q32 0 53.5 13.5
t21.5 41.5v82h-130z" />
    <glyph glyph-name="meemmaksuraf" unicode="&#xfee4;&#xfef0;" horiz-adv-x="1040" 
d="M845 0q-33 0 -65.5 9t-58 27t-41 45t-15.5 63v71h-161q-36 0 -60 -17.5t-24 -59.5v-13h70q33 0 56.5 -23.5t23.5 -56.5v-10q0 -37 -14 -70t-38.5 -57.5t-57.5 -38.5t-70 -14h-145q-37 0 -70 14t-57.5 38.5t-38.5 57.5t-14 70v105q0 8 6 14t14 6h50q8 0 14 -6t6 -14v-105
q0 -17 7 -33t18.5 -29t27 -20.5t32.5 -7.5h150q39 0 64.5 26t25.5 64h-90q-26 0 -43 17.5t-17 42.5v37q0 48 12.5 81.5t35 53.5t53.5 29t67 9h289q33 0 66.5 -9t60.5 -26.5t44 -44.5t17 -63v-72h65v-90h-195zM755 150q0 -29 25 -44.5t60 -15.5h45v65q0 29 -25 44.5t-60 15.5
h-45v-65z" />
    <glyph glyph-name="meemyeh" unicode="&#xfee3;&#xfef2;" horiz-adv-x="1040" 
d="M190 -250.5q0 17.5 16 29t39 11.5t39 -11.5t16 -29t-16 -29t-39 -11.5t-39 11.5t-16 29zM320 -250.5q0 17.5 16 29t39 11.5t39 -11.5t16 -29t-16 -29t-39 -11.5t-39 11.5t-16 29zM975 128q0 -36 -15 -62.5t-40 -44t-57 -26t-65 -8.5q-36 0 -70 10.5t-63 30.5v187h-161
q-36 0 -60 -17.5t-24 -59.5v-13h70q33 0 56.5 -23.5t23.5 -56.5v-10q0 -37 -14 -70t-38.5 -57.5t-57.5 -38.5t-70 -14h-145q-37 0 -70 14t-57.5 38.5t-38.5 57.5t-14 70v105q0 8 6 14t14 6h50q8 0 14 -6t6 -14v-105q0 -38 26.5 -64t63.5 -26h145q45 0 67.5 26.5t22.5 63.5
h-90q-26 0 -43 17.5t-17 42.5v37q0 48 12.5 81.5t35 53.5t53.5 29t67 9h372q22 0 41 -8.5t33 -22.5t22.5 -33t8.5 -41v-72zM755 215v-126q35 -11 55 -11q32 0 53.5 13.5t21.5 41.5v82h-130z" />
    <glyph glyph-name="meemyehf" unicode="&#xfee4;&#xfef2;" horiz-adv-x="1040" 
d="M190 -250.5q0 17.5 16 29t39 11.5t39 -11.5t16 -29t-16 -29t-39 -11.5t-39 11.5t-16 29zM320 -250.5q0 17.5 16 29t39 11.5t39 -11.5t16 -29t-16 -29t-39 -11.5t-39 11.5t-16 29zM845 0q-33 0 -65.5 9t-58 27t-41 45t-15.5 63v71h-161q-36 0 -60 -17.5t-24 -59.5v-13h70
q33 0 56.5 -23.5t23.5 -56.5v-10q0 -37 -14 -70t-38.5 -57.5t-57.5 -38.5t-70 -14h-145q-37 0 -70 14t-57.5 38.5t-38.5 57.5t-14 70v105q0 8 6 14t14 6h50q8 0 14 -6t6 -14v-105q0 -17 7 -33t18.5 -29t27 -20.5t32.5 -7.5h150q39 0 64.5 26t25.5 64h-90q-26 0 -43 17.5
t-17 42.5v37q0 48 12.5 81.5t35 53.5t53.5 29t67 9h289q33 0 66.5 -9t60.5 -26.5t44 -44.5t17 -63v-72h65v-90h-195zM755 150q0 -29 25 -44.5t60 -15.5h45v65q0 29 -25 44.5t-60 15.5h-45v-65z" />
    <glyph glyph-name="meemyehhmz" unicode="&#xfee3;&#xfe8a;" horiz-adv-x="1040" 
d="M152 316q-5 4 -12.5 6.5t-14.5 2.5q-8 0 -13.5 -4t-5.5 -14q0 -8 7 -15t21 -7h38v-45h-124v45h24q-14 12 -14 31q0 23 18 36t42 13q14 0 28.5 -5.5t24.5 -13.5zM975 128q0 -36 -15 -62.5t-40 -44t-57 -26t-65 -8.5q-36 0 -70 10.5t-63 30.5v187h-161q-36 0 -60 -17.5
t-24 -59.5v-13h70q33 0 56.5 -23.5t23.5 -56.5v-10q0 -37 -14 -70t-38.5 -57.5t-57.5 -38.5t-70 -14h-145q-37 0 -70 14t-57.5 38.5t-38.5 57.5t-14 70v105q0 8 6 14t14 6h50q8 0 14 -6t6 -14v-105q0 -38 26.5 -64t63.5 -26h145q45 0 67.5 26.5t22.5 63.5h-90
q-26 0 -43 17.5t-17 42.5v37q0 48 12.5 81.5t35 53.5t53.5 29t67 9h372q22 0 41 -8.5t33 -22.5t22.5 -33t8.5 -41v-72zM755 215v-126q35 -11 55 -11q32 0 53.5 13.5t21.5 41.5v82h-130z" />
    <glyph glyph-name="meemyehhmzf" unicode="&#xfee4;&#xfe8a;" horiz-adv-x="1040" 
d="M152 316q-5 4 -12.5 6.5t-14.5 2.5q-8 0 -13.5 -4t-5.5 -14q0 -8 7 -15t21 -7h38v-45h-124v45h24q-14 12 -14 31q0 23 18 36t42 13q14 0 28.5 -5.5t24.5 -13.5zM845 0q-33 0 -65.5 9t-58 27t-41 45t-15.5 63v71h-161q-36 0 -60 -17.5t-24 -59.5v-13h70q33 0 56.5 -23.5
t23.5 -56.5v-10q0 -37 -14 -70t-38.5 -57.5t-57.5 -38.5t-70 -14h-145q-37 0 -70 14t-57.5 38.5t-38.5 57.5t-14 70v105q0 8 6 14t14 6h50q8 0 14 -6t6 -14v-105q0 -17 7 -33t18.5 -29t27 -20.5t32.5 -7.5h150q39 0 64.5 26t25.5 64h-90q-26 0 -43 17.5t-17 42.5v37
q0 48 12.5 81.5t35 53.5t53.5 29t67 9h289q33 0 66.5 -9t60.5 -26.5t44 -44.5t17 -63v-72h65v-90h-195zM755 150q0 -29 25 -44.5t60 -15.5h45v65q0 29 -25 44.5t-60 15.5h-45v-65z" />
    <glyph glyph-name="sadyehhmz" unicode="&#xfebb;&#xfe8a;" horiz-adv-x="1220" 
d="M152 316q-5 4 -12.5 6.5t-14.5 2.5q-8 0 -13.5 -4t-5.5 -14q0 -8 7 -15t21 -7h38v-45h-124v45h24q-14 12 -14 31q0 23 18 36t42 13q14 0 28.5 -5.5t24.5 -13.5zM938 240l-147 -150h274v150h-127zM570 33q0 -38 -14 -71t-38.5 -57.5t-57.5 -38.5t-70 -14h-145
q-37 0 -70 14t-57.5 39t-38.5 57.5t-14 70.5v105q0 8 6 14t14 6h50q8 0 14 -6t6 -14v-105q0 -17 6.5 -33.5t17.5 -29.5t26 -20.5t32 -7.5h153q39 0 64.5 26.5t25.5 64.5h-90q-26 0 -43 17t-17 43v36q0 48 12.5 81.5t35 54.5t53.5 30.5t67 9.5h195q8 0 15 -3.5t9 -13.5
l26 -122l127 134q28 30 75 30h130q33 0 56.5 -23.5t23.5 -56.5v-170q0 -33 -23.5 -56.5t-56.5 -23.5h-369q-19 0 -24 20l-42 193h-136q-35 0 -59.5 -18t-24.5 -60v-12h90q26 0 43 -17t17 -43v-30z" />
    <glyph glyph-name="sadyehhmzf" unicode="&#xfebc;&#xfe8a;" horiz-adv-x="1220" 
d="M152 316q-5 4 -12.5 6.5t-14.5 2.5q-8 0 -13.5 -4t-5.5 -14q0 -8 7 -15t21 -7h38v-45h-124v45h24q-14 12 -14 31q0 23 18 36t42 13q14 0 28.5 -5.5t24.5 -13.5zM706 0q-19 0 -24 20l-42 193h-136q-35 0 -59.5 -18t-24.5 -60v-12h90q26 0 43 -17t17 -43v-30q0 -38 -14 -71
t-38.5 -57.5t-57.5 -38.5t-70 -14h-145q-37 0 -70 14t-57.5 39t-38.5 57.5t-14 70.5v105q0 8 6 14t14 6h50q8 0 14 -6t6 -14v-105q0 -17 6.5 -33.5t17.5 -29.5t26 -20.5t32 -7.5h153q39 0 64.5 26.5t25.5 64.5h-90q-26 0 -43 17t-17 43v36q0 48 12.5 81.5t35 54.5t53.5 30.5
t67 9.5h195q8 0 15 -3.5t9 -13.5l26 -122l127 134q28 30 75 30h130q33 0 56.5 -23.5t23.5 -56.5v-160h65v-90h-514zM938 240l-147 -150h274v150h-127z" />
    <glyph glyph-name="dadyehhmz" unicode="&#xfebf;&#xfe8a;" horiz-adv-x="1220" 
d="M825 445q0 19 16 32t39 13t39 -13t16 -32t-16 -32t-39 -13t-39 13t-16 32zM152 316q-5 4 -12.5 6.5t-14.5 2.5q-8 0 -13.5 -4t-5.5 -14q0 -8 7 -15t21 -7h38v-45h-124v45h24q-14 12 -14 31q0 23 18 36t42 13q14 0 28.5 -5.5t24.5 -13.5zM938 240l-147 -150h274v150h-127z
M570 33q0 -38 -14 -71t-38.5 -57.5t-57.5 -38.5t-70 -14h-145q-37 0 -70 14t-57.5 39t-38.5 57.5t-14 70.5v105q0 8 6 14t14 6h50q8 0 14 -6t6 -14v-105q0 -17 6.5 -33.5t17.5 -29.5t26 -20.5t32 -7.5h153q39 0 64.5 26.5t25.5 64.5h-90q-26 0 -43 17t-17 43v36
q0 48 12.5 81.5t35 54.5t53.5 30.5t67 9.5h195q8 0 15 -3.5t9 -13.5l26 -122l127 134q28 30 75 30h130q33 0 56.5 -23.5t23.5 -56.5v-170q0 -33 -23.5 -56.5t-56.5 -23.5h-369q-19 0 -24 20l-42 193h-136q-35 0 -59.5 -18t-24.5 -60v-12h90q26 0 43 -17t17 -43v-30z" />
    <glyph glyph-name="dadyehhmzf" unicode="&#xfec0;&#xfe8a;" horiz-adv-x="1220" 
d="M825 445q0 19 16 32t39 13t39 -13t16 -32t-16 -32t-39 -13t-39 13t-16 32zM152 316q-5 4 -12.5 6.5t-14.5 2.5q-8 0 -13.5 -4t-5.5 -14q0 -8 7 -15t21 -7h38v-45h-124v45h24q-14 12 -14 31q0 23 18 36t42 13q14 0 28.5 -5.5t24.5 -13.5zM706 0q-19 0 -24 20l-42 193h-136
q-35 0 -59.5 -18t-24.5 -60v-12h90q26 0 43 -17t17 -43v-30q0 -38 -14 -71t-38.5 -57.5t-57.5 -38.5t-70 -14h-145q-37 0 -70 14t-57.5 39t-38.5 57.5t-14 70.5v105q0 8 6 14t14 6h50q8 0 14 -6t6 -14v-105q0 -17 6.5 -33.5t17.5 -29.5t26 -20.5t32 -7.5h153q39 0 64.5 26.5
t25.5 64.5h-90q-26 0 -43 17t-17 43v36q0 48 12.5 81.5t35 54.5t53.5 30.5t67 9.5h195q8 0 15 -3.5t9 -13.5l26 -122l127 134q28 30 75 30h130q33 0 56.5 -23.5t23.5 -56.5v-160h65v-90h-514zM938 240l-147 -150h274v150h-127z" />
    <glyph glyph-name="alefmd" unicode="&#x622;" horiz-adv-x="220" arabic-form="isolated" 
d="M135 550q8 0 14 -6t6 -14v-510q0 -8 -6 -14t-14 -6h-50q-8 0 -14 6t-6 14v510q0 8 6 14t14 6h50zM185 604q-12 -9 -22.5 -12.5t-19.5 -3.5q-17 0 -31 6.5t-31 6.5q-10 0 -21 -4.5t-25 -16.5v41q14 12 25 16.5t21 4.5q17 0 31 -6.5t31 -6.5q9 0 19.5 3.5t22.5 12.5v-41z
" />
    <glyph glyph-name="alefhmz" unicode="&#x623;" horiz-adv-x="220" arabic-form="isolated" 
d="M135 550q8 0 14 -6t6 -14v-510q0 -8 -6 -14t-14 -6h-50q-8 0 -14 6t-6 14v510q0 8 6 14t14 6h50zM152 656q-5 4 -12.5 6.5t-14.5 2.5q-8 0 -13.5 -4t-5.5 -14q0 -8 7 -15t21 -7h38v-45h-124v45h24q-14 12 -14 31q0 23 18 36t42 13q14 0 28.5 -5.5t24.5 -13.5z" />
    <glyph glyph-name="wawhmz" unicode="&#x624;" horiz-adv-x="440" arabic-form="isolated" 
d="M285 90v140q-26 10 -57 10q-29 0 -51 -19t-22 -61v-70h130zM65 160q0 44 13 76t35 53t51 31t62 10q38 0 76 -12.5t73 -37.5v-280q0 -45 -10.5 -77t-29.5 -52.5t-45 -30t-57 -9.5q-35 0 -71 11t-77 31l29 70q24 -11 50.5 -19t51.5 -8q30 0 49.5 17.5t19.5 66.5h-130
q-38 0 -64 26t-26 64v70zM-38 0v0v0v0zM-38 0v0v0v0v0v0zM-38 0v0v0zM-38 0v0v0zM-38 0zM-38 0zM-38 0zM-38 0v0v0v0zM-38 0v0v0v0v0v0zM-38 0v0v0v0v0v0zM-38 0v0v0v0v0zM-38 0v0v0v0zM-38 0zM-38 0zM-38 0zM-38 0zM-38 0zM-38 0zM-38 0zM262 476q-5 4 -12.5 6.5t-14.5 2.5
q-8 0 -13.5 -4t-5.5 -14q0 -8 7 -15t21 -7h38v-45h-124v45h24q-14 12 -14 31q0 23 18 36t42 13q14 0 28.5 -5.5t24.5 -13.5z" />
    <glyph glyph-name="alefhmz2" unicode="&#x625;" horiz-adv-x="220" arabic-form="isolated" 
d="M135 550q8 0 14 -6t6 -14v-510q0 -8 -6 -14t-14 -6h-50q-8 0 -14 6t-6 14v510q0 8 6 14t14 6h50zM152 -84q-5 4 -12.5 6.5t-14.5 2.5q-8 0 -13.5 -4t-5.5 -14q0 -8 7 -15t21 -7h38v-45h-124v45h24q-14 12 -14 31q0 23 18 36t42 13q14 0 28.5 -5.5t24.5 -13.5z" />
    <glyph glyph-name="yehhmz" unicode="&#x626;" horiz-adv-x="670" arabic-form="isolated" 
d="M589 284q-35 11 -69 11q-21 0 -40 -4.5t-33.5 -14.5t-23 -27t-8.5 -42v-42h110q33 0 56.5 -23.5t23.5 -56.5v-35q0 -37 -14 -70t-38.5 -57.5t-57.5 -38.5t-70 -14h-180q-37 0 -70 14t-57.5 38.5t-38.5 57.5t-14 70v105q0 8 6 14t14 6h50q8 0 14 -6t6 -14v-113
q0 -17 8 -32t20.5 -26t28.5 -17.5t33 -6.5h180q19 0 35.5 7.5t28.5 20t19 29t7 33.5v25h-130q-25 0 -42.5 17.5t-17.5 42.5v73q0 47 13 81t36 56t54.5 32.5t68.5 10.5q27 0 55 -5t58 -15zM152 376q-5 4 -12.5 6.5t-14.5 2.5q-8 0 -13.5 -4t-5.5 -14q0 -8 7 -15t21 -7h38v-45
h-124v45h24q-14 12 -14 31q0 23 18 36t42 13q14 0 28.5 -5.5t24.5 -13.5z" />
    <glyph glyph-name="beh" unicode="&#x628;" horiz-adv-x="770" arabic-form="isolated" 
d="M330 -105q0 19 16 32t39 13t39 -13t16 -32t-16 -32t-39 -13t-39 13t-16 32zM705 80q0 -33 -23.5 -56.5t-56.5 -23.5h-480q-33 0 -56.5 23.5t-23.5 56.5v230q0 8 6 14t14 6h50q8 0 14 -6t6 -14v-220h460v220q0 8 6 14t14 6h50q8 0 14 -6t6 -14v-230z" />
    <glyph glyph-name="marbuta" unicode="&#x629;" horiz-adv-x="440" arabic-form="isolated" 
d="M100 445q0 19 16 32t39 13t39 -13t16 -32t-16 -32t-39 -13t-39 13t-16 32zM230 445q0 19 16 32t39 13t39 -13t16 -32t-16 -32t-39 -13t-39 13t-16 32zM65 0v190q0 36 15.5 62.5t40 43.5t56.5 25.5t65 8.5q36 0 70 -10t63 -30v-290h-310zM285 90v139q-33 11 -55 11
q-30 0 -52.5 -14t-22.5 -41v-95h130z" />
    <glyph glyph-name="teh" unicode="&#x62a;" horiz-adv-x="770" arabic-form="isolated" 
d="M265 445q0 19 16 32t39 13t39 -13t16 -32t-16 -32t-39 -13t-39 13t-16 32zM395 445q0 19 16 32t39 13t39 -13t16 -32t-16 -32t-39 -13t-39 13t-16 32zM705 80q0 -33 -23.5 -56.5t-56.5 -23.5h-480q-33 0 -56.5 23.5t-23.5 56.5v230q0 8 6 14t14 6h50q8 0 14 -6t6 -14
v-220h460v220q0 8 6 14t14 6h50q8 0 14 -6t6 -14v-230z" />
    <glyph glyph-name="theh" unicode="&#x62b;" horiz-adv-x="770" arabic-form="isolated" 
d="M265 425q0 19 16 32t39 13t39 -13t16 -32t-16 -32t-39 -13t-39 13t-16 32zM395 425q0 19 16 32t39 13t39 -13t16 -32t-16 -32t-39 -13t-39 13t-16 32zM330 525q0 19 16 32t39 13t39 -13t16 -32t-16 -32t-39 -13t-39 13t-16 32zM705 80q0 -33 -23.5 -56.5t-56.5 -23.5
h-480q-33 0 -56.5 23.5t-23.5 56.5v230q0 8 6 14t14 6h50q8 0 14 -6t6 -14v-220h460v220q0 8 6 14t14 6h50q8 0 14 -6t6 -14v-230z" />
    <glyph glyph-name="jeem" unicode="&#x62c;" horiz-adv-x="480" arabic-form="isolated" 
d="M260 -65q0 19 16 32t39 13t39 -13t16 -32t-16 -32t-39 -13t-39 13t-16 32zM293 90q-11 24 -21.5 55.5t-25 60t-33.5 48t-47 19.5q-17 0 -33 -7t-33 -18l-30 62q27 22 58.5 36t62.5 14q45 0 72.5 -28t47.5 -69t38 -88t45 -85h46v-90h-211q-33 0 -53.5 -20t-20.5 -43
q0 -21 11.5 -35t29.5 -23t40.5 -12.5t44.5 -3.5q14 0 28 1t26 4v-89q-12 -2 -27.5 -3.5t-30.5 -1.5q-33 0 -70 6t-68.5 23t-52.5 48.5t-21 82.5q0 29 12 57t35 50t56 35.5t75 13.5h50zM-17 0v0v0v0zM-17 0v0v0v0v0v0zM-17 0v0v0zM-17 0v0v0zM-17 0zM-17 0zM-17 0zM-17 0v0v0
v0zM-17 0v0v0v0v0v0zM-17 0v0v0v0v0v0zM-17 0v0v0v0v0zM-17 0v0v0v0zM-17 0zM-17 0zM-17 0zM-17 0zM-17 0zM-17 0zM-17 0zM-5 0v0v0v0zM-5 0v0v0v0v0v0zM-5 0v0v0zM-5 0v0v0zM-5 0zM-5 0zM-5 0zM-5 0v0v0v0zM-5 0v0v0v0v0v0zM-5 0v0v0v0v0v0zM-5 0v0v0v0v0zM-5 0v0v0v0z
M-5 0zM-5 0zM-5 0zM-5 0zM-5 0zM-5 0zM-5 0z" />
    <glyph glyph-name="khah" unicode="&#x62e;" horiz-adv-x="480" arabic-form="isolated" 
d="M135 455q0 19 16 32t39 13t39 -13t16 -32t-16 -32t-39 -13t-39 13t-16 32zM293 90q-11 24 -21.5 55.5t-25 60t-33.5 48t-47 19.5q-17 0 -33 -7t-33 -18l-30 62q27 22 58.5 36t62.5 14q45 0 72.5 -28t47.5 -69t38 -88t45 -85h46v-90h-211q-33 0 -53.5 -20t-20.5 -43
q0 -21 11.5 -35t29.5 -23t40.5 -12.5t44.5 -3.5q14 0 28 1t26 4v-89q-12 -2 -27.5 -3.5t-30.5 -1.5q-33 0 -70 6t-68.5 23t-52.5 48.5t-21 82.5q0 29 12 57t35 50t56 35.5t75 13.5h50zM-17 0v0v0v0zM-17 0v0v0v0v0v0zM-17 0v0v0zM-17 0v0v0zM-17 0zM-17 0zM-17 0zM-17 0v0v0
v0zM-17 0v0v0v0v0v0zM-17 0v0v0v0v0v0zM-17 0v0v0v0v0zM-17 0v0v0v0zM-17 0zM-17 0zM-17 0zM-17 0zM-17 0zM-17 0zM-17 0zM-5 0v0v0v0zM-5 0v0v0v0v0v0zM-5 0v0v0zM-5 0v0v0zM-5 0zM-5 0zM-5 0zM-5 0v0v0v0zM-5 0v0v0v0v0v0zM-5 0v0v0v0v0v0zM-5 0v0v0v0v0zM-5 0v0v0v0z
M-5 0zM-5 0zM-5 0zM-5 0zM-5 0zM-5 0zM-5 0z" />
    <glyph glyph-name="zal" unicode="&#x630;" horiz-adv-x="410" arabic-form="isolated" 
d="M100 485q0 19 16 32t39 13t39 -13t16 -32t-16 -32t-39 -13t-39 13t-16 32zM60 350q31 10 59 15t55 5q37 0 68 -10.5t54 -32.5t36 -56t13 -81v-170q0 -8 -6 -14t-14 -6h-285v90h215v100q0 24 -8.5 41t-22.5 27.5t-33 15t-40 4.5q-17 0 -35 -3t-34 -9z" />
    <glyph glyph-name="zain" unicode="&#x632;" horiz-adv-x="230" arabic-form="isolated" 
d="M75 445q0 19 16 32t39 13t39 -13t16 -32t-16 -32t-39 -13t-39 13t-16 32zM85 310q0 8 6 14t14 6h50q8 0 14 -6t6 -14v-310q0 -45 -10.5 -76.5t-29.5 -52t-45 -30t-57 -9.5q-35 0 -73.5 10.5t-79.5 30.5l29 71q23 -11 52.5 -20t57.5 -9q14 0 26 4t21 13.5t14 26t5 41.5
v310z" />
    <glyph glyph-name="sheen" unicode="&#x634;" horiz-adv-x="920" arabic-form="isolated" 
d="M490 425q0 19 16 32t39 13t39 -13t16 -32t-16 -32t-39 -13t-39 13t-16 32zM620 425q0 19 16 32t39 13t39 -13t16 -32t-16 -32t-39 -13t-39 13t-16 32zM555 525q0 19 16 32t39 13t39 -13t16 -32t-16 -32t-39 -13t-39 13t-16 32zM365 -50v360q0 8 6 14t14 6h50q8 0 14 -6
t6 -14v-220h110v220q0 8 6 14t14 6h50q8 0 14 -6t6 -14v-220h110v220q0 8 6 14t14 6h50q8 0 14 -6t6 -14v-230q0 -33 -23.5 -56.5t-56.5 -23.5h-320v-60q0 -33 -23.5 -56.5t-56.5 -23.5h-130q-37 0 -70 14t-57.5 38.5t-38.5 57.5t-14 70v120q0 8 6 14t14 6h50q8 0 14 -6
t6 -14v-120q0 -37 26.5 -63.5t63.5 -26.5h120z" />
    <glyph glyph-name="dad" unicode="&#x636;" horiz-adv-x="920" arabic-form="isolated" 
d="M555 445q0 19 16 32t39 13t39 -13t16 -32t-16 -32t-39 -13t-39 13t-16 32zM455 200l123 100q16 13 34 21.5t41 8.5h122q33 0 56.5 -23.5t23.5 -56.5v-170q0 -33 -23.5 -56.5t-56.5 -23.5h-320v-60q0 -33 -23.5 -56.5t-56.5 -23.5h-130q-37 0 -70 14t-57.5 38.5
t-38.5 57.5t-14 70v120q0 8 6 14t14 6h50q8 0 14 -6t6 -14v-120q0 -37 26.5 -63.5t63.5 -26.5h120v360q0 8 6 14t14 6h50q8 0 14 -6t6 -14v-110zM453 90h312v150h-127z" />
    <glyph glyph-name="zah" unicode="&#x638;" horiz-adv-x="700" arabic-form="isolated" 
d="M405 445q0 19 16 32t39 13t39 -13t16 -32t-16 -32t-39 -13t-39 13t-16 32zM80 0q-13 0 -21.5 8.5t-8.5 21.5v30q0 13 8.5 21.5t21.5 8.5h65v440q0 8 6 14t14 6h50q8 0 14 -6t6 -14v-330l123 100q16 13 34 21.5t41 8.5h122q33 0 56.5 -23.5t23.5 -56.5v-170
q0 -33 -23.5 -56.5t-56.5 -23.5h-475zM233 90h312v150h-127z" />
    <glyph glyph-name="ghain" unicode="&#x63a;" horiz-adv-x="450" arabic-form="isolated" 
d="M185 445q0 19 16 32t39 13t39 -13t16 -32t-16 -32t-39 -13t-39 13t-16 32zM347 222q-20 8 -44 15t-49 7q-13 0 -27 -3.5t-26 -11.5t-20 -20t-8 -30q0 -15 7 -30t20.5 -27.5t32 -20.5t42.5 -8h110l-17 -93h-141q-33 0 -52.5 -20t-19.5 -43q0 -19 10 -32t26.5 -20.5
t37 -10.5t40.5 -3q40 0 66 8v-100q-12 -2 -27.5 -3.5t-30.5 -1.5q-33 0 -70 6t-68.5 23t-52.5 48.5t-21 82.5q0 41 22.5 77.5t63.5 58.5q-35 26 -51.5 58.5t-16.5 65.5t13 59t35 44t51.5 27.5t63.5 9.5q32 0 66 -8.5t69 -25.5z" />
    <glyph glyph-name="feh" unicode="&#x641;" horiz-adv-x="850" arabic-form="isolated" 
d="M576 445q0 19 16 32t39 13t39 -13t16 -32t-16 -32t-39 -13t-39 13t-16 32zM155 90h327q-9 16 -13 34.5t-4 38.5q0 29 9.5 59t30 54t52.5 39t76 15h72q33 0 56.5 -23.5t23.5 -56.5v-230q0 -8 -6 -14t-14 -6h-620q-33 0 -56.5 23.5t-23.5 56.5v230q0 8 6 14t14 6h50
q8 0 14 -6t6 -14v-220zM695 90v150h-68q-30 0 -51 -21.5t-21 -53.5q0 -29 20.5 -52t49.5 -23h70z" />
    <glyph glyph-name="qaf" unicode="&#x642;" horiz-adv-x="640" arabic-form="isolated" 
d="M300 485q0 19 16 32t39 13t39 -13t16 -32t-16 -32t-39 -13t-39 13t-16 32zM430 485q0 19 16 32t39 13t39 -13t16 -32t-16 -32t-39 -13t-39 13t-16 32zM395 -50q38 0 64 26.5t26 63.5h-145q-31 0 -53 22t-22 53v110q0 37 14.5 64.5t38 45.5t54.5 26.5t64 8.5q36 0 73 -9.5
t66 -27.5v-293q0 -37 -14 -70t-38.5 -57.5t-57.5 -38.5t-70 -14h-150q-37 0 -70 14t-57.5 38.5t-38.5 57.5t-14 70v135q0 8 6 14t14 6h50q8 0 14 -6t6 -14v-135q0 -37 26.5 -63.5t63.5 -26.5h150zM485 130v139q-33 11 -55 11q-30 0 -52.5 -14t-22.5 -41v-95h130z" />
    <glyph glyph-name="noon" unicode="&#x646;" horiz-adv-x="520" arabic-form="isolated" 
d="M205 445q0 19 16 32t39 13t39 -13t16 -32t-16 -32t-39 -13t-39 13t-16 32zM455 -20q0 -33 -23.5 -56.5t-56.5 -23.5h-130q-37 0 -70 14t-57.5 38.5t-38.5 57.5t-14 70v130q0 8 6 14t14 6h50q8 0 14 -6t6 -14v-130q0 -37 26.5 -63.5t63.5 -26.5h120v320q0 8 6 14t14 6h50
q8 0 14 -6t6 -14v-330zM28 0v0v0v0zM28 0v0v0v0v0v0zM28 0v0v0zM28 0v0v0zM28 0zM28 0zM28 0zM28 0v0v0v0zM28 0v0v0v0v0v0zM28 0v0v0v0v0v0zM28 0v0v0v0v0zM28 0v0v0v0zM28 0zM28 0zM28 0zM28 0zM28 0zM28 0zM28 0zM28 0v0v0v0zM28 0v0v0v0v0v0zM28 0v0v0zM28 0v0v0zM28 0z
M28 0zM28 0zM28 0v0v0v0zM28 0v0v0v0v0v0zM28 0v0v0v0v0v0zM28 0v0v0v0v0zM28 0v0v0v0zM28 0zM28 0zM28 0zM28 0zM28 0zM28 0zM28 0z" />
    <glyph glyph-name="yeh" unicode="&#x64a;" horiz-adv-x="670" arabic-form="isolated" 
d="M215 -230.5q0 17.5 16 29t39 11.5t39 -11.5t16 -29t-16 -29t-39 -11.5t-39 11.5t-16 29zM345 -230.5q0 17.5 16 29t39 11.5t39 -11.5t16 -29t-16 -29t-39 -11.5t-39 11.5t-16 29zM589 284q-35 11 -69 11q-21 0 -40 -4.5t-33.5 -14.5t-23 -27t-8.5 -42v-42h110
q33 0 56.5 -23.5t23.5 -56.5v-35q0 -37 -14 -70t-38.5 -57.5t-57.5 -38.5t-70 -14h-180q-37 0 -70 14t-57.5 38.5t-38.5 57.5t-14 70v105q0 8 6 14t14 6h50q8 0 14 -6t6 -14v-113q0 -17 8 -32t20.5 -26t28.5 -17.5t33 -6.5h180q19 0 35.5 7.5t28.5 20t19 29t7 33.5v25h-130
q-25 0 -42.5 17.5t-17.5 42.5v73q0 47 13 81t36 56t54.5 32.5t68.5 10.5q27 0 55 -5t58 -15z" />
    <glyph glyph-name="sennan" unicode="&#x66e;" horiz-adv-x="260" 
d="M-30 60q0 13 8.5 21.5t21.5 8.5h105v220q0 8 6 14t14 6h50q8 0 14 -6t6 -14v-230q0 -33 -23.5 -56.5t-56.5 -23.5h-115q-13 0 -21.5 8.5t-8.5 21.5v30z" />
    <glyph glyph-name="sennam" unicode="&#x66e;" horiz-adv-x="300" 
d="M-30 60q0 13 8.5 21.5t21.5 8.5h105v220q0 8 6 14t14 6h50q8 0 14 -6t6 -14v-220h105v-90h-300q-13 0 -21.5 8.5t-8.5 21.5v30z" />
    <glyph glyph-name="behfc" unicode="&#x66e;" horiz-adv-x="770" 
d="M705 90h65v-90h-625q-33 0 -56.5 23.5t-23.5 56.5v230q0 8 6 14t14 6h50q8 0 14 -6t6 -14v-220h460v220q0 8 6 14t14 6h50q8 0 14 -6t6 -14v-220z" />
    <glyph glyph-name="uni066F.init" unicode="&#x66f;" horiz-adv-x="450" 
d="M-30 60q0 13 8.5 21.5t21.5 8.5h82q-9 16 -13 34.5t-4 38.5q0 29 9.5 59t30 54t52.5 39t76 15h72q33 0 56.5 -23.5t23.5 -56.5v-230q0 -8 -6 -14t-14 -6h-365q-13 0 -21.5 8.5t-8.5 21.5v30zM227 240q-30 0 -51 -21.5t-21 -53.5q0 -29 20 -52t52 -23h68v150h-68z" />
    <glyph glyph-name="uni066F.medi" unicode="&#x66f;" horiz-adv-x="450" 
d="M0 0q-13 0 -21.5 8.5t-8.5 21.5v30q0 13 8.5 21.5t21.5 8.5h82q-9 16 -13 34.5t-4 38.5q0 29 9.5 59t30 54t52.5 39t76 15h72q33 0 56.5 -23.5t23.5 -56.5v-160h65v-90h-450zM295 90v150h-68q-30 0 -51 -21.5t-21 -53.5q0 -29 20 -52t50 -23h70z" />
    <glyph glyph-name="qaffc" unicode="&#x66f;" horiz-adv-x="640" 
d="M395 -90q38 0 64 26.5t26 63.5h-145q-31 0 -53 22t-22 53v110q0 37 14.5 64.5t38 45.5t54.5 26.5t64 8.5q36 0 73 -9.5t66 -27.5v-203h65v-90h-65q0 -37 -14 -70t-38.5 -57.5t-57.5 -38.5t-70 -14h-150q-37 0 -70 14t-57.5 38.5t-38.5 57.5t-14 70v135q0 8 6 14t14 6h50
q8 0 14 -6t6 -14v-135q0 -37 26.5 -63.5t63.5 -26.5h150zM485 90v139q-33 11 -55 11q-30 0 -52.5 -14t-22.5 -41v-95h130z" />
    <glyph glyph-name="wasl" unicode="&#x671;" horiz-adv-x="220" arabic-form="isolated" 
d="M135 550q8 0 14 -6t6 -14v-510q0 -8 -6 -14t-14 -6h-50q-8 0 -14 6t-6 14v510q0 8 6 14t14 6h50zM43 610h15v53h27v-22l14 14q8 8 19 8h32q8 0 14 -6.5t6 -15.5v-41q0 -8 -6 -14t-14 -6h-107v30zM88 610h52v23h-27z" />
    <glyph glyph-name="uni0679" unicode="&#x679;" horiz-adv-x="770" arabic-form="isolated" 
d="M705 80q0 -33 -23.5 -56.5t-56.5 -23.5h-480q-33 0 -56.5 23.5t-23.5 56.5v230q0 8 6 14t14 6h50q8 0 14 -6t6 -14v-220h460v220q0 8 6 14t14 6h50q8 0 14 -6t6 -14v-230zM328 430h15v103h27v-72l14 14q8 8 19 8h32q8 0 14 -6.5t6 -15.5v-41q0 -8 -6 -14t-14 -6h-107v30z
M373 430h52v23h-27z" />
    <glyph glyph-name="uni067E" unicode="&#x67e;" horiz-adv-x="770" arabic-form="isolated" 
d="M265 -95q0 19 16 32t39 13t39 -13t16 -32t-16 -32t-39 -13t-39 13t-16 32zM395 -95q0 19 16 32t39 13t39 -13t16 -32t-16 -32t-39 -13t-39 13t-16 32zM330 -195q0 19 16 32t39 13t39 -13t16 -32t-16 -32t-39 -13t-39 13t-16 32zM705 80q0 -33 -23.5 -56.5t-56.5 -23.5
h-480q-33 0 -56.5 23.5t-23.5 56.5v230q0 8 6 14t14 6h50q8 0 14 -6t6 -14v-220h460v220q0 8 6 14t14 6h50q8 0 14 -6t6 -14v-230z" />
    <glyph glyph-name="uni0686" unicode="&#x686;" horiz-adv-x="490" arabic-form="isolated" 
d="M269 -129q1 -18 1 -29t0.5 -20t0.5 -19.5t1 -28.5q-32 0 -68.5 6.5t-67.5 23.5t-51 48.5t-20 81.5q0 29 12 57t35 50t56 35.5t75 13.5h49q-10 24 -20.5 55.5t-25 60t-33.5 48t-47 19.5q-17 0 -33 -7t-33 -18l-30 62q27 22 58.5 36t62.5 14q30 0 52 -13t39 -34.5t30 -49.5
t25 -58t25.5 -60t31.5 -55h46v-90h-205q-37 0 -58.5 -19.5t-21.5 -43.5q0 -19 10 -31.5t26.5 -20t37 -11t40.5 -3.5zM234 -65q0 19 14.5 32t34.5 13t35 -13t15 -32t-15 -32t-35 -13t-34.5 13t-14.5 32zM351 -65q0 19 14.5 32t34.5 13t35 -13t15 -32t-15 -32t-35 -13
t-34.5 13t-14.5 32zM292 -165q0 19 15 32t35 13t34.5 -13t14.5 -32t-14.5 -32t-34.5 -13t-35 13t-15 32z" />
    <glyph glyph-name="uni0688" unicode="&#x688;" horiz-adv-x="410" arabic-form="isolated" 
d="M60 350q31 10 59 15t55 5q37 0 68 -10.5t54 -32.5t36 -56t13 -81v-170q0 -8 -6 -14t-14 -6h-285v90h215v100q0 24 -8.5 41t-22.5 27.5t-33 15t-40 4.5q-17 0 -35 -3t-34 -9zM103 460h15v103h27v-72l14 14q8 8 19 8h32q8 0 14 -6.5t6 -15.5v-41q0 -8 -6 -14t-14 -6h-107
v30zM148 460h52v23h-27z" />
    <glyph glyph-name="uni0691" unicode="&#x691;" horiz-adv-x="230" arabic-form="isolated" 
d="M85 310q0 8 6 14t14 6h50q8 0 14 -6t6 -14v-310q0 -45 -10.5 -76.5t-29.5 -52t-45 -30t-57 -9.5q-35 0 -73.5 10.5t-79.5 30.5l29 71q23 -11 52.5 -20t57.5 -9q14 0 26 4t21 13.5t14 26t5 41.5v310zM47 430h15v103h27v-72l14 14q8 8 19 8h32q8 0 14 -6.5t6 -15.5v-41
q0 -8 -6 -14t-14 -6h-107v30zM92 430h52v23h-27z" />
    <glyph glyph-name="uni0698" unicode="&#x698;" horiz-adv-x="230" arabic-form="isolated" 
d="M7 425q0 19 14.5 32t35 13t35 -13t14.5 -32t-14.5 -32t-35 -13t-35 13t-14.5 32zM124 425q0 19 14.5 32t35 13t35 -13t14.5 -32t-14.5 -32t-35 -13t-35 13t-14.5 32zM65.5 525q0.5 19 14.5 32t35 13t35.5 -13t14.5 -32t-14.5 -32t-35.5 -13t-35.5 13t-14 32zM85 310
q0 8 6 14t14 6h50q8 0 14 -6t6 -14v-310q0 -45 -10.5 -76.5t-29.5 -52t-45 -30t-57 -9.5q-35 0 -73.5 10.5t-79.5 30.5l29 71q23 -11 52.5 -20t57.5 -9q14 0 26 4t21 13.5t14 26t5 41.5v310z" />
    <glyph glyph-name="uni069C.init" unicode="&#x69c;" horiz-adv-x="660" 
d="M230 425q0 19 16 32t39 13t39 -13t16 -32t-16 -32t-39 -13t-39 13t-16 32zM360 425q0 19 16 32t39 13t39 -13t16 -32t-16 -32t-39 -13t-39 13t-16 32zM295 525q0 19 16 32t39 13t39 -13t16 -32t-16 -32t-39 -13t-39 13t-16 32zM230 -95q0 19 16 32t39 13t39 -13t16 -32
t-16 -32t-39 -13t-39 13t-16 32zM360 -95q0 19 16 32t39 13t39 -13t16 -32t-16 -32t-39 -13t-39 13t-16 32zM295 -195q0 19 16 32t39 13t39 -13t16 -32t-16 -32t-39 -13t-39 13t-16 32zM105 90v220q0 8 6 14t14 6h50q8 0 14 -6t6 -14v-220h110v220q0 8 6 14t14 6h50
q8 0 14 -6t6 -14v-220h110v220q0 8 6 14t14 6h50q8 0 14 -6t6 -14v-230q0 -33 -23.5 -56.5t-56.5 -23.5h-515q-13 0 -21.5 8.5t-8.5 21.5v30q0 13 8.5 21.5t21.5 8.5h105z" />
    <glyph glyph-name="uni069C.medi" unicode="&#x69c;" horiz-adv-x="700" 
d="M230 425q0 19 16 32t39 13t39 -13t16 -32t-16 -32t-39 -13t-39 13t-16 32zM360 425q0 19 16 32t39 13t39 -13t16 -32t-16 -32t-39 -13t-39 13t-16 32zM295 525q0 19 16 32t39 13t39 -13t16 -32t-16 -32t-39 -13t-39 13t-16 32zM230 -95q0 19 16 32t39 13t39 -13t16 -32
t-16 -32t-39 -13t-39 13t-16 32zM360 -95q0 19 16 32t39 13t39 -13t16 -32t-16 -32t-39 -13t-39 13t-16 32zM295 -195q0 19 16 32t39 13t39 -13t16 -32t-16 -32t-39 -13t-39 13t-16 32zM0 0q-13 0 -21.5 8.5t-8.5 21.5v30q0 13 8.5 21.5t21.5 8.5h105v220q0 8 6 14t14 6h50
q8 0 14 -6t6 -14v-220h110v220q0 8 6 14t14 6h50q8 0 14 -6t6 -14v-220h110v220q0 8 6 14t14 6h50q8 0 14 -6t6 -14v-220h105v-90h-700z" />
    <glyph glyph-name="uni069C.fina" unicode="&#x69c;" horiz-adv-x="960" 
d="M490 425q0 19 16 32t39 13t39 -13t16 -32t-16 -32t-39 -13t-39 13t-16 32zM620 425q0 19 16 32t39 13t39 -13t16 -32t-16 -32t-39 -13t-39 13t-16 32zM555 525q0 19 16 32t39 13t39 -13t16 -32t-16 -32t-39 -13t-39 13t-16 32zM538 -95q0 19 16 32t39 13t39 -13t16 -32
t-16 -32t-39 -13t-39 13t-16 32zM668 -95q0 19 16 32t39 13t39 -13t16 -32t-16 -32t-39 -13t-39 13t-16 32zM603 -195q0 19 16 32t39 13t39 -13t16 -32t-16 -32t-39 -13t-39 13t-16 32zM455 -60q0 -33 -23.5 -56.5t-56.5 -23.5h-130q-37 0 -70 14t-57.5 38.5t-38.5 57.5
t-14 70v120q0 8 6 14t14 6h50q8 0 14 -6t6 -14v-120q0 -37 26.5 -63.5t63.5 -26.5h120v360q0 8 6 14t14 6h50q8 0 14 -6t6 -14v-220h110v220q0 8 6 14t14 6h50q8 0 14 -6t6 -14v-220h110v220q0 8 6 14t14 6h50q8 0 14 -6t6 -14v-220h105v-90h-505v-60z" />
    <glyph glyph-name="fehnc" unicode="&#x6a1;" horiz-adv-x="450" 
d="M-30 60q0 13 8.5 21.5t21.5 8.5h82q-9 16 -13 34.5t-4 38.5q0 29 9.5 59t30 54t52.5 39t76 15h72q33 0 56.5 -23.5t23.5 -56.5v-230q0 -8 -6 -14t-14 -6h-365q-13 0 -21.5 8.5t-8.5 21.5v30zM227 240q-30 0 -51 -21.5t-21 -53.5q0 -29 20 -52t52 -23h68v150h-68z" />
    <glyph glyph-name="fehmc" unicode="&#x6a1;" horiz-adv-x="450" 
d="M0 0q-13 0 -21.5 8.5t-8.5 21.5v30q0 13 8.5 21.5t21.5 8.5h82q-9 16 -13 34.5t-4 38.5q0 29 9.5 59t30 54t52.5 39t76 15h72q33 0 56.5 -23.5t23.5 -56.5v-160h65v-90h-450zM295 90v150h-68q-30 0 -51 -21.5t-21 -53.5q0 -29 20 -52t50 -23h70z" />
    <glyph glyph-name="fehfc" unicode="&#x6a1;" horiz-adv-x="850" 
d="M155 90h327q-9 16 -13 34.5t-4 38.5q0 29 9.5 59t30 54t52.5 39t76 15h72q33 0 56.5 -23t23.5 -57v-160h65v-90h-705q-34 0 -57 23.5t-23 56.5v230q0 8 6 14t14 6h50q8 0 14 -6t6 -14v-220zM695 90v150h-68q-30 0 -51 -21.5t-21 -53.5q0 -31 21 -53t51 -22h68z" />
    <glyph glyph-name="uni06A2.init" unicode="&#x6a2;" horiz-adv-x="450" 
d="M170 -105q0 19 16 32t39 13t39 -13t16 -32t-16 -32t-39 -13t-39 13t-16 32zM-30 60q0 13 8.5 21.5t21.5 8.5h82q-9 16 -13 34.5t-4 38.5q0 29 9.5 59t30 54t52.5 39t76 15h72q33 0 56.5 -23.5t23.5 -56.5v-230q0 -8 -6 -14t-14 -6h-365q-13 0 -21.5 8.5t-8.5 21.5v30z
M227 240q-30 0 -51 -21.5t-21 -53.5q0 -29 20 -52t52 -23h68v150h-68z" />
    <glyph glyph-name="uni06A2.medi" unicode="&#x6a2;" horiz-adv-x="450" 
d="M170 -105q0 19 16 32t39 13t39 -13t16 -32t-16 -32t-39 -13t-39 13t-16 32zM0 0q-13 0 -21.5 8.5t-8.5 21.5v30q0 13 8.5 21.5t21.5 8.5h82q-9 16 -13 34.5t-4 38.5q0 29 9.5 59t30 54t52.5 39t76 15h72q33 0 56.5 -23.5t23.5 -56.5v-160h65v-90h-450zM295 90v150h-68
q-30 0 -51 -21.5t-21 -53.5q0 -29 20 -52t50 -23h70z" />
    <glyph glyph-name="uni06A2.fina" unicode="&#x6a2;" horiz-adv-x="850" 
d="M575 -105q0 19 16 32t39 13t39 -13t16 -32t-16 -32t-39 -13t-39 13t-16 32zM155 90h327q-9 16 -13 34.5t-4 38.5q0 29 9.5 59t30 54t52.5 39t76 15h72q33 0 56.5 -23t23.5 -57v-160h65v-90h-705q-34 0 -57 23.5t-23 56.5v230q0 8 6 14t14 6h50q8 0 14 -6t6 -14v-220z
M695 90v150h-68q-30 0 -51 -21.5t-21 -53.5q0 -31 21 -53t51 -22h68z" />
    <glyph glyph-name="uni06A4" unicode="&#x6a4;" horiz-adv-x="850" arabic-form="isolated" 
d="M510 425q0 19 16 32t39 13t39 -13t16 -32t-16 -32t-39 -13t-39 13t-16 32zM640 425q0 19 16 32t39 13t39 -13t16 -32t-16 -32t-39 -13t-39 13t-16 32zM575 525q0 19 16 32t39 13t39 -13t16 -32t-16 -32t-39 -13t-39 13t-16 32zM155 90h327q-9 16 -13 34.5t-4 38.5
q0 29 9.5 59t30 54t52.5 39t76 15h72q33 0 56.5 -23.5t23.5 -56.5v-230q0 -8 -6 -14t-14 -6h-620q-33 0 -56.5 23.5t-23.5 56.5v230q0 8 6 14t14 6h50q8 0 14 -6t6 -14v-220zM695 90v150h-68q-30 0 -51 -21.5t-21 -53.5q0 -29 20.5 -52t49.5 -23h70z" />
    <glyph glyph-name="uni06A5.init" unicode="&#x6a5;" horiz-adv-x="450" 
d="M110 -95q0 19 16 32t39 13t39 -13t16 -32t-16 -32t-39 -13t-39 13t-16 32zM240 -95q0 19 16 32t39 13t39 -13t16 -32t-16 -32t-39 -13t-39 13t-16 32zM175 -195q0 19 16 32t39 13t39 -13t16 -32t-16 -32t-39 -13t-39 13t-16 32zM-30 60q0 13 8.5 21.5t21.5 8.5h82
q-9 16 -13 34.5t-4 38.5q0 29 9.5 59t30 54t52.5 39t76 15h72q33 0 56.5 -23.5t23.5 -56.5v-230q0 -8 -6 -14t-14 -6h-365q-13 0 -21.5 8.5t-8.5 21.5v30zM227 240q-30 0 -51 -21.5t-21 -53.5q0 -29 20 -52t52 -23h68v150h-68z" />
    <glyph glyph-name="uni06A5.medi" unicode="&#x6a5;" horiz-adv-x="450" 
d="M110 -95q0 19 16 32t39 13t39 -13t16 -32t-16 -32t-39 -13t-39 13t-16 32zM240 -95q0 19 16 32t39 13t39 -13t16 -32t-16 -32t-39 -13t-39 13t-16 32zM175 -195q0 19 16 32t39 13t39 -13t16 -32t-16 -32t-39 -13t-39 13t-16 32zM0 0q-13 0 -21.5 8.5t-8.5 21.5v30
q0 13 8.5 21.5t21.5 8.5h82q-9 16 -13 34.5t-4 38.5q0 29 9.5 59t30 54t52.5 39t76 15h72q33 0 56.5 -23.5t23.5 -56.5v-160h65v-90h-450zM295 90v150h-68q-30 0 -51 -21.5t-21 -53.5q0 -29 20 -52t50 -23h70z" />
    <glyph glyph-name="uni06A5.fina" unicode="&#x6a5;" horiz-adv-x="850" 
d="M510 -95q0 19 16 32t39 13t39 -13t16 -32t-16 -32t-39 -13t-39 13t-16 32zM640 -95q0 19 16 32t39 13t39 -13t16 -32t-16 -32t-39 -13t-39 13t-16 32zM575 -195q0 19 16 32t39 13t39 -13t16 -32t-16 -32t-39 -13t-39 13t-16 32zM155 90h327q-9 16 -13 34.5t-4 38.5
q0 29 9.5 59t30 54t52.5 39t76 15h72q33 0 56.5 -23t23.5 -57v-160h65v-90h-705q-34 0 -57 23.5t-23 56.5v230q0 8 6 14t14 6h50q8 0 14 -6t6 -14v-220zM695 90v150h-68q-30 0 -51 -21.5t-21 -53.5q0 -31 21 -53t51 -22h68z" />
    <glyph glyph-name="uni06A7.fina" unicode="&#x6a7;" horiz-adv-x="640" 
d="M365 445q0 19 16 32t39 13t39 -13t16 -32t-16 -32t-39 -13t-39 13t-16 32zM395 -90q38 0 64 26.5t26 63.5h-145q-31 0 -53 22t-22 53v110q0 37 14.5 64.5t38 45.5t54.5 26.5t64 8.5q36 0 73 -9.5t66 -27.5v-203h65v-90h-65q0 -37 -14 -70t-38.5 -57.5t-57.5 -38.5
t-70 -14h-150q-37 0 -70 14t-57.5 38.5t-38.5 57.5t-14 70v135q0 8 6 14t14 6h50q8 0 14 -6t6 -14v-135q0 -37 26.5 -63.5t63.5 -26.5h150zM485 90v139q-33 11 -55 11q-30 0 -52.5 -14t-22.5 -41v-95h130z" />
    <glyph glyph-name="uni06A8.fina" unicode="&#x6a8;" horiz-adv-x="640" 
d="M300 425q0 19 16 32t39 13t39 -13t16 -32t-16 -32t-39 -13t-39 13t-16 32zM430 425q0 19 16 32t39 13t39 -13t16 -32t-16 -32t-39 -13t-39 13t-16 32zM365 525q0 19 16 32t39 13t39 -13t16 -32t-16 -32t-39 -13t-39 13t-16 32zM395 -90q38 0 64 26.5t26 63.5h-145
q-31 0 -53 22t-22 53v110q0 37 14.5 64.5t38 45.5t54.5 26.5t64 8.5q36 0 73 -9.5t66 -27.5v-203h65v-90h-65q0 -37 -14 -70t-38.5 -57.5t-57.5 -38.5t-70 -14h-150q-37 0 -70 14t-57.5 38.5t-38.5 57.5t-14 70v135q0 8 6 14t14 6h50q8 0 14 -6t6 -14v-135q0 -37 26.5 -63.5
t63.5 -26.5h150zM485 90v139q-33 11 -55 11q-30 0 -52.5 -14t-22.5 -41v-95h130z" />
    <glyph glyph-name="uni06A9" unicode="&#x6a9;" horiz-adv-x="920" arabic-form="isolated" 
d="M145 0q-33 0 -56.5 23.5t-23.5 56.5v195q0 8 6 14t14 6h50q8 0 14 -6t6 -14v-185h610v115h-425v90l256 257l64 -64l-191 -193h306q33 0 56.5 -23.5t23.5 -56.5v-135q0 -33 -23.5 -56.5t-56.5 -23.5h-630z" />
    <glyph glyph-name="uni06AF" unicode="&#x6af;" horiz-adv-x="920" arabic-form="isolated" 
d="M145 0q-33 0 -56.5 23.5t-23.5 56.5v195q0 8 6 14t14 6h50q8 0 14 -6t6 -14v-185h610v115h-425v90l256 257l64 -64l-191 -193h306q33 0 56.5 -23.5t23.5 -56.5v-135q0 -33 -23.5 -56.5t-56.5 -23.5h-630zM542 608l-244 -244l-37 51l237 237z" />
    <glyph glyph-name="uni06BA.init" unicode="&#x6ba;" horiz-adv-x="260" 
d="M95 445q0 19 16 32t39 13t39 -13t16 -32t-16 -32t-39 -13t-39 13t-16 32zM-30 60q0 13 8.5 21.5t21.5 8.5h105v220q0 8 6 14t14 6h50q8 0 14 -6t6 -14v-230q0 -33 -23.5 -56.5t-56.5 -23.5h-115q-13 0 -21.5 8.5t-8.5 21.5v30z" />
    <glyph glyph-name="uni06BA.medi" unicode="&#x6ba;" horiz-adv-x="300" 
d="M95 445q0 19 16 32t39 13t39 -13t16 -32t-16 -32t-39 -13t-39 13t-16 32zM-30 60q0 13 8.5 21.5t21.5 8.5h105v220q0 8 6 14t14 6h50q8 0 14 -6t6 -14v-220h105v-90h-300q-13 0 -21.5 8.5t-8.5 21.5v30z" />
    <glyph glyph-name="uni06BE" unicode="&#x6be;" horiz-adv-x="640" arabic-form="isolated" 
d="M20 60q0 13 8.5 21.5t21.5 8.5h72q-9 17 -13 36.5t-4 38.5q0 30 10 59.5t30.5 53t52 38t74.5 14.5h33l-15 60q31 10 59 15.5t55 5.5q37 0 68 -10.5t54 -33t36 -56.5t13 -81v-210q0 -8 -6 -14t-14 -6h-505q-13 0 -21.5 8.5t-8.5 21.5v30zM485 230q0 28 -9 45.5t-25 27
t-38 12.5t-47 3q14 -12 23 -29.5t9 -38.5v-160h87v140zM305 90v150h-36q-30 0 -52 -21.5t-22 -53.5t22 -53.5t52 -21.5h36z" />
    <glyph glyph-name="uni06C0" unicode="&#x6c0;" horiz-adv-x="440" arabic-form="isolated" 
d="M65 0v190q0 36 15.5 62.5t40 43.5t56.5 25.5t65 8.5q36 0 70 -10t63 -30v-290h-310zM285 90v139q-33 11 -55 11q-30 0 -52.5 -14t-22.5 -41v-95h130zM262 476q-5 4 -12.5 6.5t-14.5 2.5q-8 0 -13.5 -4t-5.5 -14q0 -8 7 -15t21 -7h38v-45h-124v45h24q-14 12 -14 31
q0 23 18 36t42 13q14 0 28.5 -5.5t24.5 -13.5z" />
    <glyph glyph-name="uni06C1" unicode="&#x6c1;" horiz-adv-x="440" arabic-form="isolated" 
d="M65 0v190q0 36 15.5 62.5t40 43.5t56.5 25.5t65 8.5q36 0 70 -10t63 -30v-290h-310zM285 90v139q-33 11 -55 11q-30 0 -52.5 -14t-22.5 -41v-95h130z" />
    <glyph glyph-name="uni06C2.fina" unicode="&#x6c2;" horiz-adv-x="500" 
d="M339 476q-5 4 -12.5 6.5t-14.5 2.5q-8 0 -13.5 -4t-5.5 -14q0 -8 7 -15t21 -7h38v-45h-124v45h24q-14 12 -14 31q0 23 18 36t42 13q14 0 28.5 -5.5t24.5 -13.5zM425 0q-33 0 -56.5 23.5t-23.5 56.5v160h-88l-86 -220q-3 -8 -11.5 -14t-17.5 -6h-77l106 266q12 30 37 47
t57 17h150q8 0 14 -6t6 -14v-220h65v-90h-75z" />
    <glyph glyph-name="uni06C3.fina" unicode="&#x6c3;" horiz-adv-x="500" 
d="M178 445q0 19 16 32t39 13t39 -13t16 -32t-16 -32t-39 -13t-39 13t-16 32zM308 445q0 19 16 32t39 13t39 -13t16 -32t-16 -32t-39 -13t-39 13t-16 32zM425 0q-33 0 -56.5 23.5t-23.5 56.5v160h-88l-86 -220q-3 -8 -11.5 -14t-17.5 -6h-77l106 266q12 30 37 47t57 17h150
q8 0 14 -6t6 -14v-220h65v-90h-75z" />
    <glyph glyph-name="uni06CC" unicode="&#x6cc;" horiz-adv-x="670" arabic-form="isolated" 
d="M589 284q-35 11 -69 11q-21 0 -40 -4.5t-33.5 -14.5t-23 -27t-8.5 -42v-42h110q33 0 56.5 -23.5t23.5 -56.5v-35q0 -37 -14 -70t-38.5 -57.5t-57.5 -38.5t-70 -14h-180q-37 0 -70 14t-57.5 38.5t-38.5 57.5t-14 70v105q0 8 6 14t14 6h50q8 0 14 -6t6 -14v-113
q0 -17 8 -32t20.5 -26t28.5 -17.5t33 -6.5h180q19 0 35.5 7.5t28.5 20t19 29t7 33.5v25h-130q-25 0 -42.5 17.5t-17.5 42.5v73q0 47 13 81t36 56t54.5 32.5t68.5 10.5q27 0 55 -5t58 -15z" />
    <glyph glyph-name="uni06D2" unicode="&#x6d2;" horiz-adv-x="620" arabic-form="isolated" 
d="M420 -90q38 0 64 -26t26 -64h-365q-33 0 -56.5 23.5t-23.5 56.5v60q0 27 10.5 50.5t28 41.5t41 28t50.5 10h270v140q38 0 64 -26t26 -64v-120q0 -8 -6 -14t-14 -6h-340q-17 0 -28.5 -11.5t-11.5 -28.5v-50h265z" />
    <glyph glyph-name="uni06D3" unicode="&#x6d3;" horiz-adv-x="620" arabic-form="isolated" 
d="M302 316q-5 4 -12.5 6.5t-14.5 2.5q-8 0 -13.5 -4t-5.5 -14q0 -8 7 -15t21 -7h38v-45h-124v45h24q-14 12 -14 31q0 23 18 36t42 13q14 0 28.5 -5.5t24.5 -13.5zM420 -90q38 0 64 -26t26 -64h-365q-33 0 -56.5 23.5t-23.5 56.5v60q0 27 10.5 50.5t28 41.5t41 28t50.5 10
h270v140q38 0 64 -26t26 -64v-120q0 -8 -6 -14t-14 -6h-340q-17 0 -28.5 -11.5t-11.5 -28.5v-50h265z" />
    <glyph glyph-name="uni06D5.fina" unicode="&#x6d5;" horiz-adv-x="460" 
d="M460 0h-295q-54 0 -77 20.5t-23 52.5q0 24 12 54l55 139q11 28 36.5 46t56.5 18h150q8 0 14 -6t6 -14v-220h65v-90zM305 90v150h-86l-59 -150h145z" />
    <glyph glyph-name="waslf" unicode="&#x671;" horiz-adv-x="220" arabic-form="final" 
d="M135 550q8 0 14 -6t6 -14v-440h65v-90h-135q-8 0 -14 6t-6 14v510q0 8 6 14t14 6h50zM43 610h15v53h27v-22l14 14q8 8 19 8h32q8 0 14 -6.5t6 -15.5v-41q0 -8 -6 -14t-14 -6h-107v30zM88 610h52v23h-27z" />
    <glyph glyph-name="uni067E.fina" unicode="&#x67e;" horiz-adv-x="770" arabic-form="final" 
d="M265 -95q0 19 16 32t39 13t39 -13t16 -32t-16 -32t-39 -13t-39 13t-16 32zM395 -95q0 19 16 32t39 13t39 -13t16 -32t-16 -32t-39 -13t-39 13t-16 32zM330 -195q0 19 16 32t39 13t39 -13t16 -32t-16 -32t-39 -13t-39 13t-16 32zM705 90h65v-90h-625q-33 0 -56.5 23.5
t-23.5 56.5v230q0 8 6 14t14 6h50q8 0 14 -6t6 -14v-220h460v220q0 8 6 14t14 6h50q8 0 14 -6t6 -14v-220z" />
    <glyph glyph-name="uni067E.init" unicode="&#x67e;" horiz-adv-x="260" arabic-form="initial" 
d="M-20 -95q0 19 16 32t39 13t39 -13t16 -32t-16 -32t-39 -13t-39 13t-16 32zM110 -95q0 19 16 32t39 13t39 -13t16 -32t-16 -32t-39 -13t-39 13t-16 32zM45 -195q0 19 16 32t39 13t39 -13t16 -32t-16 -32t-39 -13t-39 13t-16 32zM-30 60q0 13 8.5 21.5t21.5 8.5h105v220
q0 8 6 14t14 6h50q8 0 14 -6t6 -14v-230q0 -33 -23.5 -56.5t-56.5 -23.5h-115q-13 0 -21.5 8.5t-8.5 21.5v30z" />
    <glyph glyph-name="uni067E.medi" unicode="&#x67e;" horiz-adv-x="300" arabic-form="medial" 
d="M5 -95q0 19 16 32t39 13t39 -13t16 -32t-16 -32t-39 -13t-39 13t-16 32zM135 -95q0 19 16 32t39 13t39 -13t16 -32t-16 -32t-39 -13t-39 13t-16 32zM70 -195q0 19 16 32t39 13t39 -13t16 -32t-16 -32t-39 -13t-39 13t-16 32zM-30 60q0 13 8.5 21.5t21.5 8.5h105v220
q0 8 6 14t14 6h50q8 0 14 -6t6 -14v-220h105v-90h-300q-13 0 -21.5 8.5t-8.5 21.5v30z" />
    <glyph glyph-name="uni0679.fina" unicode="&#x679;" horiz-adv-x="770" arabic-form="final" 
d="M705 90h65v-90h-625q-33 0 -56.5 23.5t-23.5 56.5v230q0 8 6 14t14 6h50q8 0 14 -6t6 -14v-220h460v220q0 8 6 14t14 6h50q8 0 14 -6t6 -14v-220zM328 430h15v103h27v-72l14 14q8 8 19 8h32q8 0 14 -6.5t6 -15.5v-41q0 -8 -6 -14t-14 -6h-107v30zM373 430h52v23h-27z" />
    <glyph glyph-name="uni0679.init" unicode="&#x679;" horiz-adv-x="260" arabic-form="initial" 
d="M-30 60q0 13 8.5 21.5t21.5 8.5h105v220q0 8 6 14t14 6h50q8 0 14 -6t6 -14v-230q0 -33 -23.5 -56.5t-56.5 -23.5h-115q-13 0 -21.5 8.5t-8.5 21.5v30zM73 430h15v103h27v-72l14 14q8 8 19 8h32q8 0 14 -6.5t6 -15.5v-41q0 -8 -6 -14t-14 -6h-107v30zM118 430h52v23h-27z
" />
    <glyph glyph-name="uni0679.medi" unicode="&#x679;" horiz-adv-x="300" arabic-form="medial" 
d="M-30 60q0 13 8.5 21.5t21.5 8.5h105v220q0 8 6 14t14 6h50q8 0 14 -6t6 -14v-220h105v-90h-300q-13 0 -21.5 8.5t-8.5 21.5v30zM73 430h15v103h27v-72l14 14q8 8 19 8h32q8 0 14 -6.5t6 -15.5v-41q0 -8 -6 -14t-14 -6h-107v30zM118 430h52v23h-27z" />
    <glyph glyph-name="uni06A4.fina" unicode="&#x6a4;" horiz-adv-x="850" arabic-form="final" 
d="M510 425q0 19 16 32t39 13t39 -13t16 -32t-16 -32t-39 -13t-39 13t-16 32zM640 425q0 19 16 32t39 13t39 -13t16 -32t-16 -32t-39 -13t-39 13t-16 32zM575 525q0 19 16 32t39 13t39 -13t16 -32t-16 -32t-39 -13t-39 13t-16 32zM155 90h327q-9 16 -13 34.5t-4 38.5
q0 29 9.5 59t30 54t52.5 39t76 15h72q33 0 56.5 -23t23.5 -57v-160h65v-90h-705q-34 0 -57 23.5t-23 56.5v230q0 8 6 14t14 6h50q8 0 14 -6t6 -14v-220zM695 90v150h-68q-30 0 -51 -21.5t-21 -53.5q0 -31 21 -53t51 -22h68z" />
    <glyph glyph-name="uni06A4.init" unicode="&#x6a4;" horiz-adv-x="450" arabic-form="initial" 
d="M105 425q0 19 16 32t39 13t39 -13t16 -32t-16 -32t-39 -13t-39 13t-16 32zM235 425q0 19 16 32t39 13t39 -13t16 -32t-16 -32t-39 -13t-39 13t-16 32zM170 525q0 19 16 32t39 13t39 -13t16 -32t-16 -32t-39 -13t-39 13t-16 32zM-30 60q0 13 8.5 21.5t21.5 8.5h82
q-9 16 -13 34.5t-4 38.5q0 29 9.5 59t30 54t52.5 39t76 15h72q33 0 56.5 -23.5t23.5 -56.5v-230q0 -8 -6 -14t-14 -6h-365q-13 0 -21.5 8.5t-8.5 21.5v30zM227 240q-30 0 -51 -21.5t-21 -53.5q0 -29 20 -52t52 -23h68v150h-68z" />
    <glyph glyph-name="uni06A4.medi" unicode="&#x6a4;" horiz-adv-x="450" arabic-form="medial" 
d="M105 425q0 19 16 32t39 13t39 -13t16 -32t-16 -32t-39 -13t-39 13t-16 32zM235 425q0 19 16 32t39 13t39 -13t16 -32t-16 -32t-39 -13t-39 13t-16 32zM170 525q0 19 16 32t39 13t39 -13t16 -32t-16 -32t-39 -13t-39 13t-16 32zM0 0q-13 0 -21.5 8.5t-8.5 21.5v30
q0 13 8.5 21.5t21.5 8.5h82q-9 16 -13 34.5t-4 38.5q0 29 9.5 59t30 54t52.5 39t76 15h72q33 0 56.5 -23.5t23.5 -56.5v-160h65v-90h-450zM295 90v150h-68q-30 0 -51 -21.5t-21 -53.5q0 -29 20 -52t50 -23h70z" />
    <glyph glyph-name="uni0686.fina" unicode="&#x686;" horiz-adv-x="470" arabic-form="final" 
d="M269 -129q1 -18 1 -29t0.5 -20t0.5 -19.5t1 -28.5q-32 0 -68.5 6.5t-67.5 23.5t-51 48.5t-20 81.5q0 29 12 57t35 50t56 35.5t75 13.5h49q-10 24 -20.5 55.5t-25 60t-33.5 48t-47 19.5q-17 0 -33 -7t-33 -18l-30 62q27 22 58.5 36t62.5 14q30 0 52 -13t39 -34.5t30 -49.5
t25 -58t25.5 -60t31.5 -55h76v-90h-235q-37 0 -58.5 -19.5t-21.5 -43.5q0 -19 10 -31.5t26.5 -20t37 -11t40.5 -3.5zM234 -65q0 19 14.5 32t34.5 13t35 -13t15 -32t-15 -32t-35 -13t-34.5 13t-14.5 32zM351 -65q0 19 14.5 32t34.5 13t35 -13t15 -32t-15 -32t-35 -13
t-34.5 13t-14.5 32zM292 -165q0 19 15 32t35 13t34.5 -13t14.5 -32t-14.5 -32t-34.5 -13t-35 13t-15 32z" />
    <glyph glyph-name="uni0686.init" unicode="&#x686;" horiz-adv-x="440" arabic-form="initial" 
d="M100 -95q0 19 16 32t39 13t39 -13t16 -32t-16 -32t-39 -13t-39 13t-16 32zM230 -95q0 19 16 32t39 13t39 -13t16 -32t-16 -32t-39 -13t-39 13t-16 32zM165 -195q0 19 16 32t39 13t39 -13t16 -32t-16 -32t-39 -13t-39 13t-16 32zM-30 60q0 13 8.5 21.5t21.5 8.5h252
q-10 24 -20.5 55.5t-25 60t-33.5 48t-47 19.5q-17 0 -33 -7t-33 -18l-30 62q27 22 58.5 36t62.5 14q30 0 52 -13t38.5 -34.5t29.5 -49.5l26 -58l26 -60q13 -30 31 -55h46v-90h-400q-13 0 -21.5 8.5t-8.5 21.5v30z" />
    <glyph glyph-name="uni0686.medi" unicode="&#x686;" horiz-adv-x="400" arabic-form="medial" 
d="M100 -95q0 19 16 32t39 13t39 -13t16 -32t-16 -32t-39 -13t-39 13t-16 32zM230 -95q0 19 16 32t39 13t39 -13t16 -32t-16 -32t-39 -13t-39 13t-16 32zM165 -195q0 19 16 32t39 13t39 -13t16 -32t-16 -32t-39 -13t-39 13t-16 32zM-30 60q0 13 8.5 21.5t21.5 8.5h252
q-10 24 -20.5 55.5t-25 60t-33.5 48t-47 19.5q-17 0 -33 -7t-33 -18l-30 62q27 22 58.5 36t62.5 14q30 0 52 -13t38.5 -34.5t29.5 -49.5l26 -58l26 -60q13 -30 31 -55h46v-90h-400q-13 0 -21.5 8.5t-8.5 21.5v30z" />
    <glyph glyph-name="uni0688.fina" unicode="&#x688;" horiz-adv-x="410" arabic-form="final" 
d="M40 90h215v100q0 24 -8.5 41t-22.5 27.5t-33 15t-40 4.5q-17 0 -35 -3t-34 -9l-22 84q31 10 59 15t55 5q37 0 68 -10.5t54 -32.5t36 -56t13 -81v-100h65v-90h-370v90zM103 460h15v103h27v-72l14 14q8 8 19 8h32q8 0 14 -6.5t6 -15.5v-41q0 -8 -6 -14t-14 -6h-107v30z
M148 460h52v23h-27z" />
    <glyph glyph-name="uni0698.fina" unicode="&#x698;" horiz-adv-x="240" arabic-form="final" 
d="M7 425q0 19 14.5 32t35 13t35 -13t14.5 -32t-14.5 -32t-35 -13t-35 13t-14.5 32zM124 425q0 19 14.5 32t35 13t35 -13t14.5 -32t-14.5 -32t-35 -13t-35 13t-14.5 32zM65.5 525q0.5 19 14.5 32t35 13t35.5 -13t14.5 -32t-14.5 -32t-35.5 -13t-35.5 13t-14 32zM-91 -56
q23 -11 52.5 -20.5t56.5 -9.5q28 0 47.5 18t19.5 68v310q0 8 6 14t14 6h50q8 0 14 -6t6 -14v-220h65v-90h-65q0 -45 -10.5 -77t-29.5 -52.5t-45 -30t-57 -9.5q-35 0 -73.5 11t-79.5 31z" />
    <glyph glyph-name="uni0691.fina" unicode="&#x691;" horiz-adv-x="240" arabic-form="final" 
d="M-91 -56q23 -11 52.5 -20.5t56.5 -9.5q28 0 47.5 18t19.5 68v310q0 8 6 14t14 6h50q8 0 14 -6t6 -14v-220h65v-90h-65q0 -45 -10.5 -77t-29.5 -52.5t-45 -30t-57 -9.5q-35 0 -73.5 11t-79.5 31zM47 430h15v103h27v-72l14 14q8 8 19 8h32q8 0 14 -6.5t6 -15.5v-41
q0 -8 -6 -14t-14 -6h-107v30zM92 430h52v23h-27z" />
    <glyph glyph-name="uni06A9.fina" unicode="&#x6a9;" horiz-adv-x="920" arabic-form="final" 
d="M145 0q-33 0 -56.5 23.5t-23.5 56.5v195q0 8 6 14t14 6h50q8 0 14 -6t6 -14v-185h610v115h-425v90l256 257l64 -64l-191 -193h306q33 0 56.5 -23.5t23.5 -56.5v-125h65v-90h-775z" />
    <glyph glyph-name="uni06A9.init" unicode="&#x6a9;" horiz-adv-x="410" arabic-form="initial" 
d="M0 0q-13 0 -21.5 8.5t-8.5 21.5v30q0 13 8.5 21.5t21.5 8.5h255v68q0 23 -8 38.5t-22 25.5t-32.5 14t-39.5 4q-17 0 -34.5 -3t-31.5 -8l-30 78l239 240l64 -64l-151 -152q60 -10 98 -52.5t38 -120.5v-138q0 -8 -6 -14t-14 -6h-325z" />
    <glyph glyph-name="uni06A9.medi" unicode="&#x6a9;" horiz-adv-x="410" arabic-form="medial" 
d="M0 0q-13 0 -21.5 8.5t-8.5 21.5v30q0 13 8.5 21.5t21.5 8.5h255v68q0 23 -8 38.5t-22 25.5t-32.5 14t-39.5 4q-17 0 -34.5 -3t-31.5 -8l-30 78l239 240l64 -64l-151 -152q60 -10 98 -52.5t38 -120.5v-68h65v-90h-410z" />
    <glyph glyph-name="uni06AF.fina" unicode="&#x6af;" horiz-adv-x="920" arabic-form="final" 
d="M145 0q-33 0 -56.5 23.5t-23.5 56.5v195q0 8 6 14t14 6h50q8 0 14 -6t6 -14v-185h610v115h-425v90l256 257l64 -64l-191 -193h306q33 0 56.5 -23.5t23.5 -56.5v-125h65v-90h-775zM542 608l-244 -244l-37 51l237 237z" />
    <glyph glyph-name="uni06AF.init" unicode="&#x6af;" horiz-adv-x="410" arabic-form="initial" 
d="M0 0q-13 0 -21.5 8.5t-8.5 21.5v30q0 13 8.5 21.5t21.5 8.5h255v68q0 23 -8 38.5t-22 25.5t-32.5 14t-39.5 4q-17 0 -34.5 -3t-31.5 -8l-30 78l239 240l64 -64l-151 -152q60 -10 98 -52.5t38 -120.5v-138q0 -8 -6 -14t-14 -6h-325zM241 598l-244 -244l-37 51l237 237z
" />
    <glyph glyph-name="uni06AF.medi" unicode="&#x6af;" horiz-adv-x="410" arabic-form="medial" 
d="M0 0q-13 0 -21.5 8.5t-8.5 21.5v30q0 13 8.5 21.5t21.5 8.5h255v68q0 23 -8 38.5t-22 25.5t-32.5 14t-39.5 4q-17 0 -34.5 -3t-31.5 -8l-30 78l239 240l64 -64l-151 -152q60 -10 98 -52.5t38 -120.5v-68h65v-90h-410zM241 598l-244 -244l-37 51l237 237z" />
    <glyph glyph-name="noonfc" unicode="&#x6ba;" horiz-adv-x="520" arabic-form="final" 
d="M455 90h65v-90h-65v-70q0 -33 -23.5 -56.5t-56.5 -23.5h-130q-37 0 -70 14t-57.5 38.5t-38.5 57.5t-14 70v170q0 8 6 14t14 6h50q8 0 14 -6t6 -14v-170q0 -16 6.5 -32t17.5 -29t26 -21t33 -8h127v370q0 8 6 14t14 6h50q8 0 14 -6t6 -14v-220z" />
    <glyph glyph-name="uni06C0.fina" unicode="&#x6c0;" horiz-adv-x="460" arabic-form="final" 
d="M460 0h-295q-54 0 -77 20.5t-23 52.5q0 24 12 54l55 139q11 28 36.5 46t56.5 18h150q8 0 14 -6t6 -14v-220h65v-90zM305 90v150h-86l-59 -150h145zM302 476q-5 4 -12.5 6.5t-14.5 2.5q-8 0 -13.5 -4t-5.5 -14q0 -8 7 -15t21 -7h38v-45h-124v45h24q-14 12 -14 31
q0 23 18 36t42 13q14 0 28.5 -5.5t24.5 -13.5z" />
    <glyph glyph-name="uni06C1.fina" unicode="&#x6c1;" horiz-adv-x="500" arabic-form="final" 
d="M425 0q-33 0 -56.5 23.5t-23.5 56.5v160h-88l-86 -220q-3 -8 -11.5 -14t-17.5 -6h-77l106 266q12 30 37 47t57 17h150q8 0 14 -6t6 -14v-220h65v-90h-75z" />
    <glyph glyph-name="uni06C1.init" unicode="&#x6c1;" horiz-adv-x="470" arabic-form="initial" 
d="M-30 60q0 13 8.5 21.5t21.5 8.5h105v170q0 8 6 14t14 6h50q8 0 14 -6t6 -14v-170h120v220q0 8 6 14t14 6h50q8 0 14 -6t6 -14v-230q0 -33 -23.5 -56.5t-56.5 -23.5h-65q-11 -18 -19 -37t-8 -39q0 -17 6.5 -32.5t21.5 -31.5l-59 -94q-22 20 -32 50t-10 63t10 65t29 56
h-199q-13 0 -21.5 8.5t-8.5 21.5v30z" />
    <glyph glyph-name="uni06C1.medi" unicode="&#x6c1;" horiz-adv-x="340" arabic-form="medial" 
d="M183 280q-33 -107 -33 -204q0 -93 29 -174q-2 14 -2.5 27.5t-0.5 24.5q0 39 10 65.5t26.5 42t36.5 22t41 6.5h50v-90h-40q-39 0 -56.5 -24.5t-17.5 -56.5q0 -35 17 -69l-105 -60q-30 52 -48.5 104t-26.5 106h-63q-13 0 -21.5 8.5t-8.5 21.5v30q0 13 8.5 21.5t21.5 8.5h56
q1 20 4 55t9.5 69.5t17 60t25.5 25.5h54q8 0 12.5 -6t4.5 -14z" />
    <glyph glyph-name="hehf2" unicode="&#x6be;" horiz-adv-x="680" arabic-form="final" 
d="M40 60q0 13 8.5 21.5t21.5 8.5h72q-9 18 -13 37t-4 39q0 30 10 59t30.5 52.5t52 38t74.5 14.5h33l-15 60q31 10 59 15.5t55 5.5q37 0 68 -10.5t54 -33t36 -56.5t13 -81v-140h85v-90h-610q-13 0 -21.5 8.5t-8.5 21.5v30zM505 230q0 27 -9 44t-25 26.5t-38 13.5t-47 4
q14 -12 23 -29.5t9 -38.5v-160h87v140zM289 240q-30 0 -52 -21.5t-22 -53.5q0 -31 20 -51.5t47 -23.5h43v150h-36z" />
    <glyph glyph-name="uni06BE.init" unicode="&#x6be;" horiz-adv-x="600" arabic-form="initial" 
d="M-30 60q0 13 8.5 21.5t21.5 8.5h82q-9 17 -13 36.5t-4 38.5q0 30 10 59.5t30.5 53t52 38t74.5 14.5h33l-15 60q27 9 55 14t55 5q35 0 67 -9.5t56 -31t38 -55.5t14 -83v-210q0 -8 -6 -14t-14 -6h-515q-13 0 -21.5 8.5t-8.5 21.5v30zM445 230q0 28 -9 45.5t-25 27t-38 12.5
t-47 3q14 -12 23 -29.5t9 -38.5v-160h87v140zM265 90v150h-36q-30 0 -52 -21.5t-22 -53.5t22 -53.5t52 -21.5h36z" />
    <glyph glyph-name="uni06BE.medi" unicode="&#x6be;" horiz-adv-x="600" arabic-form="medial" 
d="M-30 60q0 13 8.5 21.5t21.5 8.5h82q-9 17 -13 36.5t-4 38.5q0 30 10 59.5t30.5 53t52 38t74.5 14.5h33l-15 60q28 9 56 14t56 5q35 0 66.5 -9.5t55 -30.5t37.5 -55.5t14 -83.5v-140h65v-90h-600q-13 0 -21.5 8.5t-8.5 21.5v30zM445 230q0 28 -9 45.5t-25 27t-38 12.5
t-47 3q14 -12 23 -29.5t9 -38.5v-160h87v140zM265 90v150h-36q-30 0 -52 -21.5t-22 -53.5t22 -53.5t52 -21.5h36z" />
    <glyph glyph-name="uni06D2.fina" unicode="&#x6d2;" horiz-adv-x="560" arabic-form="final" 
d="M560 90v-90h-365q-17 0 -28.5 -11.5t-11.5 -28.5v-50h265q38 0 64 -26.5t26 -63.5h-365q-33 0 -56.5 23.5t-23.5 56.5v60q0 27 10.5 50.5t28 41.5t41 28t50.5 10h365z" />
    <glyph glyph-name="uni06D3.fina" unicode="&#x6d3;" horiz-adv-x="560" arabic-form="final" 
d="M302 316q-5 4 -12.5 6.5t-14.5 2.5q-8 0 -13.5 -4t-5.5 -14q0 -8 7 -15t21 -7h38v-45h-124v45h24q-14 12 -14 31q0 23 18 36t42 13q14 0 28.5 -5.5t24.5 -13.5zM560 90v-90h-365q-17 0 -28.5 -11.5t-11.5 -28.5v-50h265q38 0 64 -26.5t26 -63.5h-365q-33 0 -56.5 23.5
t-23.5 56.5v60q0 27 10.5 50.5t28 41.5t41 28t50.5 10h365z" />
    <glyph glyph-name="maksuran" unicode="&#x649;" horiz-adv-x="260" arabic-form="initial" 
d="M-30 60q0 13 8.5 21.5t21.5 8.5h105v220q0 8 6 14t14 6h50q8 0 14 -6t6 -14v-230q0 -33 -23.5 -56.5t-56.5 -23.5h-115q-13 0 -21.5 8.5t-8.5 21.5v30z" />
    <glyph glyph-name="maksuram" unicode="&#x649;" horiz-adv-x="300" arabic-form="medial" 
d="M-30 60q0 13 8.5 21.5t21.5 8.5h105v220q0 8 6 14t14 6h50q8 0 14 -6t6 -14v-220h105v-90h-300q-13 0 -21.5 8.5t-8.5 21.5v30z" />
    <glyph glyph-name="uni06CC.fina" unicode="&#x6cc;" horiz-adv-x="550" arabic-form="final" 
d="M313 79q-14 14 -14 34q0 23 14 35t31 12q20 0 34 -14l55 -56h117v-90h-29l29 -30q30 -32 30 -70q0 -32 -22.5 -56t-67.5 -24h-245q-37 0 -70 14t-57.5 38.5t-38.5 57.5t-14 70v120q0 8 6 14t14 6h50q8 0 14 -6t6 -14v-120q0 -38 26.5 -64t63.5 -26h234z" />
    <glyph glyph-name="uni06CC.init" unicode="&#x6cc;" horiz-adv-x="260" arabic-form="initial" 
d="M-22 -105q0 19 16 32t39 13t39 -13t16 -32t-16 -32t-39 -13t-39 13t-16 32zM108 -105q0 19 16 32t39 13t39 -13t16 -32t-16 -32t-39 -13t-39 13t-16 32zM-30 60q0 13 8.5 21.5t21.5 8.5h105v220q0 8 6 14t14 6h50q8 0 14 -6t6 -14v-230q0 -33 -23.5 -56.5t-56.5 -23.5
h-115q-13 0 -21.5 8.5t-8.5 21.5v30z" />
    <glyph glyph-name="uni0651064C" unicode="&#xfc5e;" arabic-form="isolated" 
d="M-10 162q33 18 49 42q-2 0 -4.5 -0.5t-3.5 -0.5q-21 0 -37 12.5t-16 37.5t17 37t33 12q22 0 36 -15.5t14 -35.5q0 -10 -4 -23.5t-13 -29t-23.5 -31t-36.5 -26.5zM-40 171q-19 18 -27.5 38.5t-8.5 41.5q0 36 20 65l22 -14q-16 -24 -16 -49q0 -18 8 -35t26 -30zM54 233
q3 9 3 17q0 11 -8 19.5t-20 8.5q-7 0 -16 -6t-9 -19t9.5 -18.5t21 -5.5t19.5 4zM15 104q-1 -5 -1 -8v-8q0 -21 7.5 -31.5t13.5 -10.5t10.5 8t4.5 29q0 5 -0.5 11.5t-1.5 13.5l29 5q1 -5 1.5 -11.5t0.5 -14.5q0 -12 -2 -25t-7 -23.5t-13.5 -17t-21.5 -6.5q-8 0 -17 5t-14 13
q-6 -13 -16 -20t-20 -7q-17 0 -31.5 13.5t-14.5 43.5q0 11 3 25l30 5q-3 -15 -3 -26q0 -32 16 -32q7 0 14 10.5t7 30.5v11q0 5 -2 12z" />
    <glyph glyph-name="uni0651064D" unicode="&#xfc5f;" arabic-form="isolated" 
d="M-88 46l177 28v-28l-177 -29v29zM-88 103l177 29v-29l-177 -28v28zM15 259q-1 -5 -1 -8v-8q0 -21 7.5 -31.5t13.5 -10.5t10.5 8t4.5 29q0 5 -0.5 11.5t-1.5 13.5l29 5q1 -5 1.5 -11.5t0.5 -14.5q0 -12 -2 -25t-7 -23.5t-13.5 -17t-21.5 -6.5q-8 0 -17 5t-14 13
q-6 -13 -16 -20t-20 -7q-17 0 -31.5 13.5t-14.5 43.5q0 11 3 25l30 5q-3 -15 -3 -26q0 -32 16 -32q7 0 14 10.5t7 30.5v11q0 5 -2 12z" />
    <glyph glyph-name="uni0651064E" unicode="&#xfc60;" arabic-form="isolated" 
d="M-89 171l177 28v-28l-177 -28v28zM15 104q-1 -5 -1 -8v-8q0 -21 7.5 -31.5t13.5 -10.5t10.5 8t4.5 29q0 5 -0.5 11.5t-1.5 13.5l29 5q1 -5 1.5 -11.5t0.5 -14.5q0 -12 -2 -25t-7 -23.5t-13.5 -17t-21.5 -6.5q-8 0 -17 5t-14 13q-6 -13 -16 -20t-20 -7q-17 0 -31.5 13.5
t-14.5 43.5q0 11 3 25l30 5q-3 -15 -3 -26q0 -32 16 -32q7 0 14 10.5t7 30.5v11q0 5 -2 12z" />
    <glyph glyph-name="uni0651064F" unicode="&#xfc61;" arabic-form="isolated" 
d="M-41 156q18 10 31 21t21 23q-4 -1 -10 -1q-22 0 -37.5 12.5t-15.5 38.5t17 39t35 13q23 0 38 -16t15 -39q0 -9 -4 -23t-14 -30.5t-25.5 -32t-38.5 -28.5zM-26 250q0 -13 10 -19t22 -6q16 0 19.5 6.5t3.5 15.5q0 12 -8 21t-20 9q-7 0 -17 -6t-10 -21zM15 104q-1 -5 -1 -8
v-8q0 -21 7.5 -31.5t13.5 -10.5t10.5 8t4.5 29q0 5 -0.5 11.5t-1.5 13.5l29 5q1 -5 1.5 -11.5t0.5 -14.5q0 -12 -2 -25t-7 -23.5t-13.5 -17t-21.5 -6.5q-8 0 -17 5t-14 13q-6 -13 -16 -20t-20 -7q-17 0 -31.5 13.5t-14.5 43.5q0 11 3 25l30 5q-3 -15 -3 -26q0 -32 16 -32
q7 0 14 10.5t7 30.5v11q0 5 -2 12z" />
    <glyph glyph-name="uni06510650" unicode="&#xfc62;" arabic-form="isolated" 
d="M-64 43l147 24v-28l-147 -24v28zM15 195q-1 -5 -1 -8v-8q0 -21 7.5 -31.5t13.5 -10.5t10.5 8t4.5 29q0 5 -0.5 11.5t-1.5 13.5l29 5q1 -5 1.5 -11.5t0.5 -14.5q0 -12 -2 -25t-7 -23.5t-13.5 -17t-21.5 -6.5q-8 0 -17 5t-14 13q-6 -13 -16 -20t-20 -7q-17 0 -31.5 13.5
t-14.5 43.5q0 11 3 25l30 5q-3 -15 -3 -26q0 -32 16 -32q7 0 14 10.5t7 30.5v11q0 5 -2 12z" />
    <glyph glyph-name="uni06510670" unicode="&#xfc63;" arabic-form="isolated" 
d="M15 104q-1 -5 -1 -8v-8q0 -21 7.5 -31.5t13.5 -10.5t10.5 8t4.5 29q0 5 -0.5 11.5t-1.5 13.5l29 5q1 -5 1.5 -11.5t0.5 -14.5q0 -12 -2 -25t-7 -23.5t-13.5 -17t-21.5 -6.5q-8 0 -17 5t-14 13q-6 -13 -16 -20t-20 -7q-17 0 -31.5 13.5t-14.5 43.5q0 11 3 25l30 5
q-3 -15 -3 -26q0 -32 16 -32q7 0 14 10.5t7 30.5v11q0 5 -2 12zM-11 323q11 -29 16.5 -67t5.5 -72v-15q0 -8 -1 -15l-23 -9q0 36 -7.5 71t-21.5 65z" />
    <glyph glyph-name="behmaksuraf" unicode="&#xfc6e;" horiz-adv-x="840" arabic-form="final" 
d="M619 -155q0 19 16 32t39 13t39 -13t16 -32t-16 -32t-39 -13t-39 13t-16 32zM510 123q26 0 43 -17t17 -43v-30q0 -37 -14 -70t-38.5 -57.5t-57.5 -38.5t-70 -14h-145q-37 0 -70 14t-57.5 38.5t-38.5 57.5t-14 70v105q0 8 6 14t14 6h50q8 0 14 -6t6 -14v-113q0 -17 8 -32
t20.5 -26t28.5 -17.5t33 -6.5h154q18 0 33 7.5t25.5 20t16.5 29t6 33.5h-90q-25 0 -42.5 17.5t-17.5 42.5v36q0 48 12.5 81.5t35 54.5t53.5 30.5t67 9.5h195q19 0 24 -20l42 -195h81v-90h-134q-19 0 -24 20l-42 193h-136q-35 0 -59.5 -18t-24.5 -60v-12h90z" />
    <glyph glyph-name="behyehf" unicode="&#xfc6f;" horiz-adv-x="840" arabic-form="final" 
d="M619 -105q0 19 16 32t39 13t39 -13t16 -32t-16 -32t-39 -13t-39 13t-16 32zM190 -250.5q0 17.5 16 29t39 11.5t39 -11.5t16 -29t-16 -29t-39 -11.5t-39 11.5t-16 29zM320 -250.5q0 17.5 16 29t39 11.5t39 -11.5t16 -29t-16 -29t-39 -11.5t-39 11.5t-16 29zM510 123
q26 0 43 -17t17 -43v-30q0 -37 -14 -70t-38.5 -57.5t-57.5 -38.5t-70 -14h-145q-37 0 -70 14t-57.5 38.5t-38.5 57.5t-14 70v105q0 8 6 14t14 6h50q8 0 14 -6t6 -14v-113q0 -17 8 -32t20.5 -26t28.5 -17.5t33 -6.5h154q18 0 33 7.5t25.5 20t16.5 29t6 33.5h-90
q-25 0 -42.5 17.5t-17.5 42.5v36q0 48 12.5 81.5t35 54.5t53.5 30.5t67 9.5h195q19 0 24 -20l42 -195h81v-90h-134q-19 0 -24 20l-42 193h-136q-35 0 -59.5 -18t-24.5 -60v-12h90z" />
    <glyph glyph-name="Salla" unicode="&#xfdfa;" horiz-adv-x="1540" arabic-form="isolated" 
d="M895 210q7 0 11 4.5t4 9.5q0 6 -7 13l-86 87l22 22l46 -46h115v245h30v-245h100v135h30v-81l37 30q23 19 39 29t27.5 15t20 6t16.5 1q29 0 49.5 -20.5t20.5 -49.5v-55q0 -17 -11.5 -28.5t-28.5 -11.5h-415l11 -12q8 -8 11 -18t3 -16q0 -18 -12.5 -31t-32.5 -13h-120
q-38 0 -64 26t-26 64v70h30v-70q0 -25 17.5 -42.5t42.5 -17.5h120zM70 17q0 39 23.5 56t54.5 17q18 0 37 -6t35 -15v-104h66v245h30v-245h76v135h30v-135h75v135h30v-135h65q10 0 10 10v125h30v-125q0 -17 -11.5 -28.5t-28.5 -11.5h-492v-80h-30v162zM1470 -35v-30h-555
q-23 0 -31.5 10.5t-8.5 27.5q0 9 5 22l26 73q5 14 17.5 23t29.5 9h77v-135h76v135h30v-135h91v245h30v-245h106q-17 17 -27.5 39t-10.5 42q0 27 17 45.5t55 18.5q17 0 34 -6t33 -16l-9 -29q-14 10 -29 15.5t-29 5.5q-22 0 -32 -10t-10 -24q0 -11 5.5 -24t14.5 -24.5
t20.5 -20.5t24.5 -12h50zM195 270q-23 0 -31.5 10.5t-8.5 27.5q0 9 5 22l26 73q5 14 17.5 23t29.5 9h77v-135h80v200h30v-200h85v235h30v-265h-340zM729 -65q-21 0 -35.5 14.5t-14.5 35.5v30q0 44 22.5 64.5t54.5 20.5q13 0 31.5 -6t41.5 -19v-140q0 -46 -22.5 -63
t-54.5 -17q-16 0 -35 4t-38 10l12 29q18 -6 34 -9.5t27 -3.5q20 0 33.5 10.5t13.5 39.5h-70zM1160 317v-17h170q10 0 10 10v55q0 16 -11.5 28t-28.5 12q-8 0 -14 -1t-15 -5.5t-21 -13.5l-34 -25zM799 -35v93q-11 5 -23 8.5t-20 3.5q-19 0 -33 -13t-14 -42v-30q0 -8 6 -14
t14 -6h70zM1000 -35v105h-47q-6 0 -11 -4t-7 -9l-27 -73q0 -3 -1.5 -6t-1.5 -5q0 -8 10 -8h85zM280 300v105h-47q-6 0 -11 -4t-7 -9l-27 -73q0 -3 -1.5 -6t-1.5 -5q0 -8 10 -8h85zM190 -35v85q-11 4 -22 7t-20 3q-18 0 -33 -10t-15 -33v-52h90zM630 540v-275h-30v275h30z
M1082 -85l33 -33l-22 -22l-33 33zM1142 -85l33 -33l-22 -22l-33 33z" />
    <glyph glyph-name="alefmdf" unicode="&#x622;" horiz-adv-x="220" arabic-form="final" 
d="M135 550q8 0 14 -6t6 -14v-440h65v-90h-135q-8 0 -14 6t-6 14v510q0 8 6 14t14 6h50zM185 604q-12 -9 -22.5 -12.5t-19.5 -3.5q-17 0 -31 6.5t-31 6.5q-10 0 -21 -4.5t-25 -16.5v41q14 12 25 16.5t21 4.5q17 0 31 -6.5t31 -6.5q9 0 19.5 3.5t22.5 12.5v-41z" />
    <glyph glyph-name="alefhmzf" unicode="&#x623;" horiz-adv-x="220" arabic-form="final" 
d="M135 550q8 0 14 -6t6 -14v-440h65v-90h-135q-8 0 -14 6t-6 14v510q0 8 6 14t14 6h50zM152 656q-5 4 -12.5 6.5t-14.5 2.5q-8 0 -13.5 -4t-5.5 -14q0 -8 7 -15t21 -7h38v-45h-124v45h24q-14 12 -14 31q0 23 18 36t42 13q14 0 28.5 -5.5t24.5 -13.5z" />
    <glyph glyph-name="wawhmzf" unicode="&#x624;" horiz-adv-x="440" arabic-form="final" 
d="M65 160q0 44 13 76t35 53t51 31t62 10q38 0 76 -12.5t73 -37.5v-190h65v-90h-65q0 -45 -10.5 -77t-29.5 -52.5t-45 -30t-57 -9.5q-35 0 -71 11t-77 31l29 70q24 -11 50.5 -19t51.5 -8q30 0 49.5 17.5t19.5 66.5h-130q-38 0 -64 26t-26 64v70zM285 90v140q-26 10 -57 10
q-29 0 -51 -19t-22 -61v-70h130zM262 476q-5 4 -12.5 6.5t-14.5 2.5q-8 0 -13.5 -4t-5.5 -14q0 -8 7 -15t21 -7h38v-45h-124v45h24q-14 12 -14 31q0 23 18 36t42 13q14 0 28.5 -5.5t24.5 -13.5z" />
    <glyph glyph-name="alefhmz2f" unicode="&#x625;" horiz-adv-x="220" arabic-form="final" 
d="M135 550q8 0 14 -6t6 -14v-440h65v-90h-135q-8 0 -14 6t-6 14v510q0 8 6 14t14 6h50zM152 -84q-5 4 -12.5 6.5t-14.5 2.5q-8 0 -13.5 -4t-5.5 -14q0 -8 7 -15t21 -7h38v-45h-124v45h24q-14 12 -14 31q0 23 18 36t42 13q14 0 28.5 -5.5t24.5 -13.5z" />
    <glyph glyph-name="yehhmzf" unicode="&#x626;" horiz-adv-x="550" arabic-form="final" 
d="M152 316q-5 4 -12.5 6.5t-14.5 2.5q-8 0 -13.5 -4t-5.5 -14q0 -8 7 -15t21 -7h38v-45h-124v45h24q-14 12 -14 31q0 23 18 36t42 13q14 0 28.5 -5.5t24.5 -13.5zM313 79q-14 14 -14 34q0 23 14 35t31 12q20 0 34 -14l55 -56h117v-90h-29l29 -30q30 -32 30 -70
q0 -32 -22.5 -56t-67.5 -24h-245q-37 0 -70 14t-57.5 38.5t-38.5 57.5t-14 70v120q0 8 6 14t14 6h50q8 0 14 -6t6 -14v-120q0 -38 26.5 -64t63.5 -26h234z" />
    <glyph glyph-name="hmzn" unicode="&#x626;" horiz-adv-x="260" arabic-form="initial" 
d="M-30 60q0 13 8.5 21.5t21.5 8.5h105v220q0 8 6 14t14 6h50q8 0 14 -6t6 -14v-230q0 -33 -23.5 -56.5t-56.5 -23.5h-115q-13 0 -21.5 8.5t-8.5 21.5v30zM192 476q-5 4 -12.5 6.5t-14.5 2.5q-8 0 -13.5 -4t-5.5 -14q0 -8 7 -15t21 -7h38v-45h-124v45h24q-14 12 -14 31
q0 23 18 36t42 13q14 0 28.5 -5.5t24.5 -13.5z" />
    <glyph glyph-name="hmzm" unicode="&#x626;" horiz-adv-x="300" arabic-form="medial" 
d="M-30 60q0 13 8.5 21.5t21.5 8.5h105v220q0 8 6 14t14 6h50q8 0 14 -6t6 -14v-220h105v-90h-300q-13 0 -21.5 8.5t-8.5 21.5v30zM192 476q-5 4 -12.5 6.5t-14.5 2.5q-8 0 -13.5 -4t-5.5 -14q0 -8 7 -15t21 -7h38v-45h-124v45h24q-14 12 -14 31q0 23 18 36t42 13
q14 0 28.5 -5.5t24.5 -13.5z" />
    <glyph glyph-name="aleff" unicode="&#x627;" horiz-adv-x="220" arabic-form="final" 
d="M135 550q8 0 14 -6t6 -14v-440h65v-90h-135q-8 0 -14 6t-6 14v510q0 8 6 14t14 6h50z" />
    <glyph glyph-name="behf" unicode="&#x628;" horiz-adv-x="770" arabic-form="final" 
d="M705 90h65v-90h-625q-33 0 -56.5 23.5t-23.5 56.5v230q0 8 6 14t14 6h50q8 0 14 -6t6 -14v-220h460v220q0 8 6 14t14 6h50q8 0 14 -6t6 -14v-220zM330 -105q0 19 16 32t39 13t39 -13t16 -32t-16 -32t-39 -13t-39 13t-16 32z" />
    <glyph glyph-name="behn" unicode="&#x628;" horiz-adv-x="260" arabic-form="initial" 
d="M46 -105q0 19 16 32t39 13t39 -13t16 -32t-16 -32t-39 -13t-39 13t-16 32zM-30 60q0 13 8.5 21.5t21.5 8.5h105v220q0 8 6 14t14 6h50q8 0 14 -6t6 -14v-230q0 -33 -23.5 -56.5t-56.5 -23.5h-115q-13 0 -21.5 8.5t-8.5 21.5v30z" />
    <glyph glyph-name="behm" unicode="&#x628;" horiz-adv-x="300" arabic-form="medial" 
d="M95 -105q0 19 16 32t39 13t39 -13t16 -32t-16 -32t-39 -13t-39 13t-16 32zM-30 60q0 13 8.5 21.5t21.5 8.5h105v220q0 8 6 14t14 6h50q8 0 14 -6t6 -14v-220h105v-90h-300q-13 0 -21.5 8.5t-8.5 21.5v30z" />
    <glyph glyph-name="marbutaf" unicode="&#x629;" horiz-adv-x="460" arabic-form="final" 
d="M160 445q0 19 16 32t39 13t39 -13t16 -32t-16 -32t-39 -13t-39 13t-16 32zM290 445q0 19 16 32t39 13t39 -13t16 -32t-16 -32t-39 -13t-39 13t-16 32zM460 0h-295q-54 0 -77 20.5t-23 52.5q0 24 12 54l55 139q11 28 36.5 46t56.5 18h150q8 0 14 -6t6 -14v-220h65v-90z
M305 90v150h-86l-59 -150h145zM-16 0v0v0v0zM-16 0v0v0v0v0v0zM-16 0v0v0zM-16 0v0v0zM-16 0zM-16 0zM-16 0zM-16 0v0v0v0zM-16 0v0v0v0v0v0zM-16 0v0v0v0v0v0zM-16 0v0v0v0v0zM-16 0v0v0v0zM-16 0zM-16 0zM-16 0zM-16 0zM-16 0zM-16 0zM-16 0z" />
    <glyph glyph-name="tehf" unicode="&#x62a;" horiz-adv-x="770" arabic-form="final" 
d="M265 445q0 19 16 32t39 13t39 -13t16 -32t-16 -32t-39 -13t-39 13t-16 32zM395 445q0 19 16 32t39 13t39 -13t16 -32t-16 -32t-39 -13t-39 13t-16 32zM705 90h65v-90h-625q-33 0 -56.5 23.5t-23.5 56.5v230q0 8 6 14t14 6h50q8 0 14 -6t6 -14v-220h460v220q0 8 6 14t14 6
h50q8 0 14 -6t6 -14v-220z" />
    <glyph glyph-name="tehn" unicode="&#x62a;" horiz-adv-x="260" arabic-form="initial" 
d="M5 445q0 19 16 32t39 13t39 -13t16 -32t-16 -32t-39 -13t-39 13t-16 32zM135 445q0 19 16 32t39 13t39 -13t16 -32t-16 -32t-39 -13t-39 13t-16 32zM-30 60q0 13 8.5 21.5t21.5 8.5h105v220q0 8 6 14t14 6h50q8 0 14 -6t6 -14v-230q0 -33 -23.5 -56.5t-56.5 -23.5h-115
q-13 0 -21.5 8.5t-8.5 21.5v30z" />
    <glyph glyph-name="tehm" unicode="&#x62a;" horiz-adv-x="300" arabic-form="medial" 
d="M5 445q0 19 16 32t39 13t39 -13t16 -32t-16 -32t-39 -13t-39 13t-16 32zM135 445q0 19 16 32t39 13t39 -13t16 -32t-16 -32t-39 -13t-39 13t-16 32zM-30 60q0 13 8.5 21.5t21.5 8.5h105v220q0 8 6 14t14 6h50q8 0 14 -6t6 -14v-220h105v-90h-300q-13 0 -21.5 8.5
t-8.5 21.5v30z" />
    <glyph glyph-name="thehf" unicode="&#x62b;" horiz-adv-x="770" arabic-form="final" 
d="M265 425q0 19 16 32t39 13t39 -13t16 -32t-16 -32t-39 -13t-39 13t-16 32zM395 425q0 19 16 32t39 13t39 -13t16 -32t-16 -32t-39 -13t-39 13t-16 32zM330 525q0 19 16 32t39 13t39 -13t16 -32t-16 -32t-39 -13t-39 13t-16 32zM705 90h65v-90h-625q-33 0 -56.5 23.5
t-23.5 56.5v230q0 8 6 14t14 6h50q8 0 14 -6t6 -14v-220h460v220q0 8 6 14t14 6h50q8 0 14 -6t6 -14v-220z" />
    <glyph glyph-name="thehn" unicode="&#x62b;" horiz-adv-x="260" arabic-form="initial" 
d="M5 425q0 19 16 32t39 13t39 -13t16 -32t-16 -32t-39 -13t-39 13t-16 32zM135 425q0 19 16 32t39 13t39 -13t16 -32t-16 -32t-39 -13t-39 13t-16 32zM70 525q0 19 16 32t39 13t39 -13t16 -32t-16 -32t-39 -13t-39 13t-16 32zM-30 60q0 13 8.5 21.5t21.5 8.5h105v220
q0 8 6 14t14 6h50q8 0 14 -6t6 -14v-230q0 -33 -23.5 -56.5t-56.5 -23.5h-115q-13 0 -21.5 8.5t-8.5 21.5v30z" />
    <glyph glyph-name="thehm" unicode="&#x62b;" horiz-adv-x="300" arabic-form="medial" 
d="M5 425q0 19 16 32t39 13t39 -13t16 -32t-16 -32t-39 -13t-39 13t-16 32zM135 425q0 19 16 32t39 13t39 -13t16 -32t-16 -32t-39 -13t-39 13t-16 32zM70 525q0 19 16 32t39 13t39 -13t16 -32t-16 -32t-39 -13t-39 13t-16 32zM-30 60q0 13 8.5 21.5t21.5 8.5h105v220
q0 8 6 14t14 6h50q8 0 14 -6t6 -14v-220h105v-90h-300q-13 0 -21.5 8.5t-8.5 21.5v30z" />
    <glyph glyph-name="jeemf" unicode="&#x62c;" horiz-adv-x="440" arabic-form="final" 
d="M260 -65q0 19 16 32t39 13t39 -13t16 -32t-16 -32t-39 -13t-39 13t-16 32zM292 90q-10 24 -20.5 55.5t-25 60t-33.5 48t-47 19.5q-17 0 -33 -7t-33 -18l-30 62q27 22 58.5 36t62.5 14q45 0 72.5 -28t47.5 -69t38 -88t45 -85h46v-90h-211q-34 0 -54 -20t-20 -43
q0 -21 11.5 -35t29.5 -23t40.5 -12.5t44.5 -3.5q14 0 28 1t26 4v-89q-12 -2 -27.5 -3.5t-30.5 -1.5q-33 0 -70 6t-68.5 23t-52.5 48.5t-21 82.5q0 29 12 57t35 50t56 35.5t75 13.5h49zM-17 0v0v0v0zM-17 0v0v0v0v0v0zM-17 0v0v0zM-17 0v0v0zM-17 0zM-17 0zM-17 0zM-17 0v0v0
v0zM-17 0v0v0v0v0v0zM-17 0v0v0v0v0v0zM-17 0v0v0v0v0zM-17 0v0v0v0zM-17 0zM-17 0zM-17 0zM-17 0zM-17 0zM-17 0zM-17 0zM-17 0v0v0v0zM-17 0v0v0v0v0v0zM-17 0v0v0zM-17 0v0v0zM-17 0zM-17 0zM-17 0zM-17 0v0v0v0zM-17 0v0v0v0v0v0zM-17 0v0v0v0v0v0zM-17 0v0v0v0v0z
M-17 0v0v0v0zM-17 0zM-17 0zM-17 0zM-17 0zM-17 0zM-17 0zM-17 0z" />
    <glyph glyph-name="jeemn" unicode="&#x62c;" horiz-adv-x="440" arabic-form="initial" 
d="M170 -105q0 19 16 32t39 13t39 -13t16 -32t-16 -32t-39 -13t-39 13t-16 32zM-30 60q0 13 8.5 21.5t21.5 8.5h252q-10 24 -20.5 55.5t-25 60t-33.5 48t-47 19.5q-17 0 -33 -7t-33 -18l-30 62q27 22 58.5 36t62.5 14q30 0 52 -13t38.5 -34.5t29.5 -49.5l26 -58l26 -60
q13 -30 31 -55h46v-90h-400q-13 0 -21.5 8.5t-8.5 21.5v30z" />
    <glyph glyph-name="jeemm" unicode="&#x62c;" horiz-adv-x="400" arabic-form="medial" 
d="M170 -105q0 19 16 32t39 13t39 -13t16 -32t-16 -32t-39 -13t-39 13t-16 32zM-30 60q0 13 8.5 21.5t21.5 8.5h252q-10 24 -20.5 55.5t-25 60t-33.5 48t-47 19.5q-17 0 -33 -7t-33 -18l-30 62q27 22 58.5 36t62.5 14q30 0 52 -13t38.5 -34.5t29.5 -49.5l26 -58l26 -60
q13 -30 31 -55h46v-90h-400q-13 0 -21.5 8.5t-8.5 21.5v30z" />
    <glyph glyph-name="hahf" unicode="&#x62d;" horiz-adv-x="440" arabic-form="final" 
d="M292 90q-10 24 -20.5 55.5t-25 60t-33.5 48t-47 19.5q-17 0 -33 -7t-33 -18l-30 62q27 22 58.5 36t62.5 14q45 0 72.5 -28t47.5 -69t38 -88t45 -85h46v-90h-211q-34 0 -54 -20t-20 -43q0 -21 11.5 -35t29.5 -23t40.5 -12.5t44.5 -3.5q14 0 28 1t26 4v-89
q-12 -2 -27.5 -3.5t-30.5 -1.5q-33 0 -70 6t-68.5 23t-52.5 48.5t-21 82.5q0 29 12 57t35 50t56 35.5t75 13.5h49z" />
    <glyph glyph-name="hahn" unicode="&#x62d;" horiz-adv-x="440" arabic-form="initial" 
d="M-30 60q0 13 8.5 21.5t21.5 8.5h252q-10 24 -20.5 55.5t-25 60t-33.5 48t-47 19.5q-17 0 -33 -7t-33 -18l-30 62q27 22 58.5 36t62.5 14q30 0 52 -13t38.5 -34.5t29.5 -49.5l26 -58l26 -60q13 -30 31 -55h46v-90h-400q-13 0 -21.5 8.5t-8.5 21.5v30z" />
    <glyph glyph-name="hahm" unicode="&#x62d;" horiz-adv-x="400" arabic-form="medial" 
d="M-30 60q0 13 8.5 21.5t21.5 8.5h252q-10 24 -20.5 55.5t-25 60t-33.5 48t-47 19.5q-17 0 -33 -7t-33 -18l-30 62q27 22 58.5 36t62.5 14q30 0 52 -13t38.5 -34.5t29.5 -49.5l26 -58l26 -60q13 -30 31 -55h46v-90h-400q-13 0 -21.5 8.5t-8.5 21.5v30z" />
    <glyph glyph-name="khahf" unicode="&#x62e;" horiz-adv-x="440" arabic-form="final" 
d="M135 455q0 19 16 32t39 13t39 -13t16 -32t-16 -32t-39 -13t-39 13t-16 32zM292 90q-10 24 -20.5 55.5t-25 60t-33.5 48t-47 19.5q-17 0 -33 -7t-33 -18l-30 62q27 22 58.5 36t62.5 14q45 0 72.5 -28t47.5 -69t38 -88t45 -85h46v-90h-211q-34 0 -54 -20t-20 -43
q0 -21 11.5 -35t29.5 -23t40.5 -12.5t44.5 -3.5q14 0 28 1t26 4v-89q-12 -2 -27.5 -3.5t-30.5 -1.5q-33 0 -70 6t-68.5 23t-52.5 48.5t-21 82.5q0 29 12 57t35 50t56 35.5t75 13.5h49zM-17 0v0v0v0zM-17 0v0v0v0v0v0zM-17 0v0v0zM-17 0v0v0zM-17 0zM-17 0zM-17 0zM-17 0v0v0
v0zM-17 0v0v0v0v0v0zM-17 0v0v0v0v0v0zM-17 0v0v0v0v0zM-17 0v0v0v0zM-17 0zM-17 0zM-17 0zM-17 0zM-17 0zM-17 0zM-17 0zM-17 0v0v0v0zM-17 0v0v0v0v0v0zM-17 0v0v0zM-17 0v0v0zM-17 0zM-17 0zM-17 0zM-17 0v0v0v0zM-17 0v0v0v0v0v0zM-17 0v0v0v0v0v0zM-17 0v0v0v0v0z
M-17 0v0v0v0zM-17 0zM-17 0zM-17 0zM-17 0zM-17 0zM-17 0zM-17 0z" />
    <glyph glyph-name="khahn" unicode="&#x62e;" horiz-adv-x="440" arabic-form="initial" 
d="M100 455q0 19 16 32t39 13t39 -13t16 -32t-16 -32t-39 -13t-39 13t-16 32zM-30 60q0 13 8.5 21.5t21.5 8.5h252q-10 24 -20.5 55.5t-25 60t-33.5 48t-47 19.5q-17 0 -33 -7t-33 -18l-30 62q27 22 58.5 36t62.5 14q30 0 52 -13t38.5 -34.5t29.5 -49.5l26 -58l26 -60
q13 -30 31 -55h46v-90h-400q-13 0 -21.5 8.5t-8.5 21.5v30zM-4 0v0v0v0zM-4 0v0v0v0v0v0zM-4 0v0v0zM-4 0v0v0zM-4 0zM-4 0zM-4 0zM-4 0v0v0v0zM-4 0v0v0v0v0v0zM-4 0v0v0v0v0v0zM-4 0v0v0v0v0zM-4 0v0v0v0zM-4 0zM-4 0zM-4 0zM-4 0zM-4 0zM-4 0zM-4 0zM-4 0v0v0v0zM-4 0v0
v0v0v0v0zM-4 0v0v0zM-4 0v0v0zM-4 0zM-4 0zM-4 0zM-4 0v0v0v0zM-4 0v0v0v0v0v0zM-4 0v0v0v0v0v0zM-4 0v0v0v0v0zM-4 0v0v0v0zM-4 0zM-4 0zM-4 0zM-4 0zM-4 0zM-4 0zM-4 0z" />
    <glyph glyph-name="khahm" unicode="&#x62e;" horiz-adv-x="400" arabic-form="medial" 
d="M100 455q0 19 16 32t39 13t39 -13t16 -32t-16 -32t-39 -13t-39 13t-16 32zM-30 60q0 13 8.5 21.5t21.5 8.5h252q-10 24 -20.5 55.5t-25 60t-33.5 48t-47 19.5q-17 0 -33 -7t-33 -18l-30 62q27 22 58.5 36t62.5 14q30 0 52 -13t38.5 -34.5t29.5 -49.5l26 -58l26 -60
q13 -30 31 -55h46v-90h-400q-13 0 -21.5 8.5t-8.5 21.5v30zM-2 0v0v0v0zM-2 0v0v0v0v0v0zM-2 0v0v0zM-2 0v0v0zM-2 0zM-2 0zM-2 0zM-2 0v0v0v0zM-2 0v0v0v0v0v0zM-2 0v0v0v0v0v0zM-2 0v0v0v0v0zM-2 0v0v0v0zM-2 0zM-2 0zM-2 0zM-2 0zM-2 0zM-2 0zM-2 0zM-2 0v0v0v0zM-2 0v0
v0v0v0v0zM-2 0v0v0zM-2 0v0v0zM-2 0zM-2 0zM-2 0zM-2 0v0v0v0zM-2 0v0v0v0v0v0zM-2 0v0v0v0v0v0zM-2 0v0v0v0v0zM-2 0v0v0v0zM-2 0zM-2 0zM-2 0zM-2 0zM-2 0zM-2 0zM-2 0zM-2 0v0v0v0zM-2 0v0v0v0v0v0zM-2 0v0v0zM-2 0v0v0zM-2 0zM-2 0zM-2 0zM-2 0v0v0v0zM-2 0v0v0v0v0v0z
M-2 0v0v0v0v0v0zM-2 0v0v0v0v0zM-2 0v0v0v0zM-2 0zM-2 0zM-2 0zM-2 0zM-2 0zM-2 0zM-2 0z" />
    <glyph glyph-name="dalf" unicode="&#x62f;" horiz-adv-x="410" arabic-form="final" 
d="M40 90h215v100q0 24 -8.5 41t-22.5 27.5t-33 15t-40 4.5q-17 0 -35 -3t-34 -9l-22 84q31 10 59 15t55 5q37 0 68 -10.5t54 -32.5t36 -56t13 -81v-100h65v-90h-370v90z" />
    <glyph glyph-name="zalf" unicode="&#x630;" horiz-adv-x="410" arabic-form="final" 
d="M100 485q0 19 16 32t39 13t39 -13t16 -32t-16 -32t-39 -13t-39 13t-16 32zM40 90h215v100q0 24 -8.5 41t-22.5 27.5t-33 15t-40 4.5q-17 0 -35 -3t-34 -9l-22 84q31 10 59 15t55 5q37 0 68 -10.5t54 -32.5t36 -56t13 -81v-100h65v-90h-370v90z" />
    <glyph glyph-name="rehf" unicode="&#x631;" horiz-adv-x="240" arabic-form="final" 
d="M-91 -56q23 -11 52.5 -20.5t56.5 -9.5q28 0 47.5 18t19.5 68v310q0 8 6 14t14 6h50q8 0 14 -6t6 -14v-220h65v-90h-65q0 -45 -10.5 -77t-29.5 -52.5t-45 -30t-57 -9.5q-35 0 -73.5 11t-79.5 31z" />
    <glyph glyph-name="zainf" unicode="&#x632;" horiz-adv-x="240" arabic-form="final" 
d="M75 445q0 19 16 32t39 13t39 -13t16 -32t-16 -32t-39 -13t-39 13t-16 32zM-91 -56q23 -11 52.5 -20.5t56.5 -9.5q28 0 47.5 18t19.5 68v310q0 8 6 14t14 6h50q8 0 14 -6t6 -14v-220h65v-90h-65q0 -45 -10.5 -77t-29.5 -52.5t-45 -30t-57 -9.5q-35 0 -73.5 11t-79.5 31z
" />
    <glyph glyph-name="seenf" unicode="&#x633;" horiz-adv-x="960" arabic-form="final" 
d="M455 -60q0 -33 -23.5 -56.5t-56.5 -23.5h-130q-37 0 -70 14t-57.5 38.5t-38.5 57.5t-14 70v120q0 8 6 14t14 6h50q8 0 14 -6t6 -14v-120q0 -37 26.5 -63.5t63.5 -26.5h120v360q0 8 6 14t14 6h50q8 0 14 -6t6 -14v-220h110v220q0 8 6 14t14 6h50q8 0 14 -6t6 -14v-220h110
v220q0 8 6 14t14 6h50q8 0 14 -6t6 -14v-220h105v-90h-505v-60z" />
    <glyph glyph-name="seenn" unicode="&#x633;" horiz-adv-x="660" arabic-form="initial" 
d="M105 90v220q0 8 6 14t14 6h50q8 0 14 -6t6 -14v-220h110v220q0 8 6 14t14 6h50q8 0 14 -6t6 -14v-220h110v220q0 8 6 14t14 6h50q8 0 14 -6t6 -14v-230q0 -33 -23.5 -56.5t-56.5 -23.5h-515q-13 0 -21.5 8.5t-8.5 21.5v30q0 13 8.5 21.5t21.5 8.5h105z" />
    <glyph glyph-name="seenm" unicode="&#x633;" horiz-adv-x="700" arabic-form="medial" 
d="M0 0q-13 0 -21.5 8.5t-8.5 21.5v30q0 13 8.5 21.5t21.5 8.5h105v220q0 8 6 14t14 6h50q8 0 14 -6t6 -14v-220h110v220q0 8 6 14t14 6h50q8 0 14 -6t6 -14v-220h110v220q0 8 6 14t14 6h50q8 0 14 -6t6 -14v-220h105v-90h-700z" />
    <glyph glyph-name="sheenf" unicode="&#x634;" horiz-adv-x="960" arabic-form="final" 
d="M490 425q0 19 16 32t39 13t39 -13t16 -32t-16 -32t-39 -13t-39 13t-16 32zM620 425q0 19 16 32t39 13t39 -13t16 -32t-16 -32t-39 -13t-39 13t-16 32zM555 525q0 19 16 32t39 13t39 -13t16 -32t-16 -32t-39 -13t-39 13t-16 32zM455 -60q0 -33 -23.5 -56.5t-56.5 -23.5
h-130q-37 0 -70 14t-57.5 38.5t-38.5 57.5t-14 70v120q0 8 6 14t14 6h50q8 0 14 -6t6 -14v-120q0 -37 26.5 -63.5t63.5 -26.5h120v360q0 8 6 14t14 6h50q8 0 14 -6t6 -14v-220h110v220q0 8 6 14t14 6h50q8 0 14 -6t6 -14v-220h110v220q0 8 6 14t14 6h50q8 0 14 -6t6 -14
v-220h105v-90h-505v-60z" />
    <glyph glyph-name="sheenn" unicode="&#x634;" horiz-adv-x="660" arabic-form="initial" 
d="M230 425q0 19 16 32t39 13t39 -13t16 -32t-16 -32t-39 -13t-39 13t-16 32zM360 425q0 19 16 32t39 13t39 -13t16 -32t-16 -32t-39 -13t-39 13t-16 32zM295 525q0 19 16 32t39 13t39 -13t16 -32t-16 -32t-39 -13t-39 13t-16 32zM105 90v220q0 8 6 14t14 6h50q8 0 14 -6
t6 -14v-220h110v220q0 8 6 14t14 6h50q8 0 14 -6t6 -14v-220h110v220q0 8 6 14t14 6h50q8 0 14 -6t6 -14v-230q0 -33 -23.5 -56.5t-56.5 -23.5h-515q-13 0 -21.5 8.5t-8.5 21.5v30q0 13 8.5 21.5t21.5 8.5h105z" />
    <glyph glyph-name="sheenm" unicode="&#x634;" horiz-adv-x="700" arabic-form="medial" 
d="M230 425q0 19 16 32t39 13t39 -13t16 -32t-16 -32t-39 -13t-39 13t-16 32zM360 425q0 19 16 32t39 13t39 -13t16 -32t-16 -32t-39 -13t-39 13t-16 32zM295 525q0 19 16 32t39 13t39 -13t16 -32t-16 -32t-39 -13t-39 13t-16 32zM0 0q-13 0 -21.5 8.5t-8.5 21.5v30
q0 13 8.5 21.5t21.5 8.5h105v220q0 8 6 14t14 6h50q8 0 14 -6t6 -14v-220h110v220q0 8 6 14t14 6h50q8 0 14 -6t6 -14v-220h110v220q0 8 6 14t14 6h50q8 0 14 -6t6 -14v-220h105v-90h-700z" />
    <glyph glyph-name="sadf" unicode="&#x635;" horiz-adv-x="920" arabic-form="final" 
d="M455 -60q0 -33 -23.5 -56.5t-56.5 -23.5h-130q-37 0 -70 14t-57.5 38.5t-38.5 57.5t-14 70v120q0 8 6 14t14 6h50q8 0 14 -6t6 -14v-120q0 -37 26.5 -63.5t63.5 -26.5h120v360q0 8 6 14t14 6h50q8 0 14 -6t6 -14v-110l123 100q16 13 34 21.5t41 8.5h122q33 0 56.5 -23.5
t23.5 -56.5v-160h65v-90h-465v-60zM453 90h312v150h-127z" />
    <glyph glyph-name="sadn" unicode="&#x635;" horiz-adv-x="620" arabic-form="initial" 
d="M0 0q-13 0 -21.5 8.5t-8.5 21.5v30q0 13 8.5 21.5t21.5 8.5h65v220q0 8 6 14t14 6h50q8 0 14 -6t6 -14v-110l123 100q16 13 34 21.5t41 8.5h122q33 0 56.5 -23.5t23.5 -56.5v-170q0 -33 -23.5 -56.5t-56.5 -23.5h-475zM153 90h312v150h-127z" />
    <glyph glyph-name="sadm" unicode="&#x635;" horiz-adv-x="620" arabic-form="medial" 
d="M0 0q-13 0 -21.5 8.5t-8.5 21.5v30q0 13 8.5 21.5t21.5 8.5h65v220q0 8 6 14t14 6h50q8 0 14 -6t6 -14v-110l123 100q16 13 34 21.5t41 8.5h122q33 0 56.5 -23.5t23.5 -56.5v-160h65v-90h-620zM153 90h312v150h-127z" />
    <glyph glyph-name="dadf" unicode="&#x636;" horiz-adv-x="920" arabic-form="final" 
d="M555 445q0 19 16 32t39 13t39 -13t16 -32t-16 -32t-39 -13t-39 13t-16 32zM455 -60q0 -33 -23.5 -56.5t-56.5 -23.5h-130q-37 0 -70 14t-57.5 38.5t-38.5 57.5t-14 70v120q0 8 6 14t14 6h50q8 0 14 -6t6 -14v-120q0 -37 26.5 -63.5t63.5 -26.5h120v360q0 8 6 14t14 6h50
q8 0 14 -6t6 -14v-110l123 100q16 13 34 21.5t41 8.5h122q33 0 56.5 -23.5t23.5 -56.5v-160h65v-90h-465v-60zM453 90h312v150h-127z" />
    <glyph glyph-name="dadn" unicode="&#x636;" horiz-adv-x="620" arabic-form="initial" 
d="M295 445q0 19 16 32t39 13t39 -13t16 -32t-16 -32t-39 -13t-39 13t-16 32zM0 0q-13 0 -21.5 8.5t-8.5 21.5v30q0 13 8.5 21.5t21.5 8.5h65v220q0 8 6 14t14 6h50q8 0 14 -6t6 -14v-110l123 100q16 13 34 21.5t41 8.5h122q33 0 56.5 -23.5t23.5 -56.5v-170
q0 -33 -23.5 -56.5t-56.5 -23.5h-475zM153 90h312v150h-127z" />
    <glyph glyph-name="dadm" unicode="&#x636;" horiz-adv-x="620" arabic-form="medial" 
d="M295 445q0 19 16 32t39 13t39 -13t16 -32t-16 -32t-39 -13t-39 13t-16 32zM0 0q-13 0 -21.5 8.5t-8.5 21.5v30q0 13 8.5 21.5t21.5 8.5h65v220q0 8 6 14t14 6h50q8 0 14 -6t6 -14v-110l123 100q16 13 34 21.5t41 8.5h122q33 0 56.5 -23.5t23.5 -56.5v-160h65v-90h-620z
M153 90h312v150h-127z" />
    <glyph glyph-name="tahf" unicode="&#x637;" horiz-adv-x="700" arabic-form="final" 
d="M80 0q-13 0 -21.5 8.5t-8.5 21.5v30q0 13 8.5 21.5t21.5 8.5h65v440q0 8 6 14t14 6h50q8 0 14 -6t6 -14v-330l123 100q16 13 34 21.5t41 8.5h122q33 0 56.5 -23.5t23.5 -56.5v-160h65v-90h-620zM233 90h312v150h-127z" />
    <glyph glyph-name="tahn" unicode="&#x637;" horiz-adv-x="620" arabic-form="initial" 
d="M0 0q-13 0 -21.5 8.5t-8.5 21.5v30q0 13 8.5 21.5t21.5 8.5h65v440q0 8 6 14t14 6h50q8 0 14 -6t6 -14v-330l123 100q16 13 34 21.5t41 8.5h122q33 0 56.5 -23.5t23.5 -56.5v-170q0 -33 -23.5 -56.5t-56.5 -23.5h-475zM153 90h312v150h-127z" />
    <glyph glyph-name="tahm" unicode="&#x637;" horiz-adv-x="620" arabic-form="medial" 
d="M0 0q-13 0 -21.5 8.5t-8.5 21.5v30q0 13 8.5 21.5t21.5 8.5h65v440q0 8 6 14t14 6h50q8 0 14 -6t6 -14v-330l123 100q16 13 34 21.5t41 8.5h122q33 0 56.5 -23.5t23.5 -56.5v-160h65v-90h-620zM153 90h312v150h-127z" />
    <glyph glyph-name="zahf" unicode="&#x638;" horiz-adv-x="700" arabic-form="final" 
d="M405 445q0 19 16 32t39 13t39 -13t16 -32t-16 -32t-39 -13t-39 13t-16 32zM80 0q-13 0 -21.5 8.5t-8.5 21.5v30q0 13 8.5 21.5t21.5 8.5h65v440q0 8 6 14t14 6h50q8 0 14 -6t6 -14v-330l123 100q16 13 34 21.5t41 8.5h122q33 0 56.5 -23.5t23.5 -56.5v-160h65v-90h-620z
M233 90h312v150h-127z" />
    <glyph glyph-name="zahn" unicode="&#x638;" horiz-adv-x="620" arabic-form="initial" 
d="M325 445q0 19 16 32t39 13t39 -13t16 -32t-16 -32t-39 -13t-39 13t-16 32zM0 0q-13 0 -21.5 8.5t-8.5 21.5v30q0 13 8.5 21.5t21.5 8.5h65v440q0 8 6 14t14 6h50q8 0 14 -6t6 -14v-330l123 100q16 13 34 21.5t41 8.5h122q33 0 56.5 -23.5t23.5 -56.5v-170
q0 -33 -23.5 -56.5t-56.5 -23.5h-475zM153 90h312v150h-127z" />
    <glyph glyph-name="zahm" unicode="&#x638;" horiz-adv-x="620" arabic-form="medial" 
d="M325 445q0 19 16 32t39 13t39 -13t16 -32t-16 -32t-39 -13t-39 13t-16 32zM0 0q-13 0 -21.5 8.5t-8.5 21.5v30q0 13 8.5 21.5t21.5 8.5h65v440q0 8 6 14t14 6h50q8 0 14 -6t6 -14v-330l123 100q16 13 34 21.5t41 8.5h122q33 0 56.5 -23.5t23.5 -56.5v-160h65v-90h-620z
M153 90h312v150h-127z" />
    <glyph glyph-name="ainf" unicode="&#x639;" horiz-adv-x="510" arabic-form="final" 
d="M243 0q-41 0 -64.5 -20t-23.5 -46q0 -20 10.5 -33t27.5 -20.5t37.5 -11t41.5 -3.5q39 0 63 8v-95q-12 -2 -27.5 -3.5t-30.5 -1.5q-33 0 -70 6t-68.5 23t-52.5 48.5t-21 82.5q0 42 23.5 80t65.5 58l-68 120q-6 10 -8.5 22.5t-2.5 24.5q0 17 5 33.5t15 29t25 20.5t35 8h210
q20 0 35 -8t25 -20.5t15 -29t5 -33.5q0 -12 -2.5 -24t-8.5 -23l-58 -102h134v-90h-267zM358 240h-195l91 -150h11z" />
    <glyph glyph-name="ainn" unicode="&#x639;" horiz-adv-x="420" arabic-form="initial" 
d="M-30 60q0 14 9 22t21 8h97q-23 23 -33.5 50t-10.5 54q0 33 13 59t35 44t51.5 27.5t63.5 9.5q32 0 66 -8.5t69 -25.5l-34 -78q-20 8 -44 15t-49 7q-12 0 -26.5 -3.5t-27 -11t-21 -20t-8.5 -31.5q0 -14 6 -29t18 -28.5t29.5 -22t39.5 -8.5h134l-18 -90h-350
q-13 0 -21.5 8.5t-8.5 21.5v30z" />
    <glyph glyph-name="ainm" unicode="&#x639;" horiz-adv-x="500" arabic-form="medial" 
d="M-30 60q0 13 8.5 21.5t21.5 8.5h135l-59 102q-6 10 -8.5 22.5t-2.5 24.5q0 17 5 33.5t15 29t25 20.5t35 8h210q20 0 35 -8t25 -20.5t15 -29t5 -33.5q0 -12 -2.5 -24t-8.5 -23l-58 -102h134v-90h-500q-13 0 -21.5 8.5t-8.5 21.5v30zM348 240h-195l91 -150h11z" />
    <glyph glyph-name="ghainf" unicode="&#x63a;" horiz-adv-x="510" arabic-form="final" 
d="M200 445q0 19 16 32t39 13t39 -13t16 -32t-16 -32t-39 -13t-39 13t-16 32zM243 0q-41 0 -64.5 -20t-23.5 -46q0 -20 10.5 -33t27.5 -20.5t37.5 -11t41.5 -3.5q39 0 63 8v-95q-12 -2 -27.5 -3.5t-30.5 -1.5q-33 0 -70 6t-68.5 23t-52.5 48.5t-21 82.5q0 42 23.5 80
t65.5 58l-68 120q-6 10 -8.5 22.5t-2.5 24.5q0 17 5 33.5t15 29t25 20.5t35 8h210q20 0 35 -8t25 -20.5t15 -29t5 -33.5q0 -12 -2.5 -24t-8.5 -23l-58 -102h134v-90h-267zM358 240h-195l91 -150h11z" />
    <glyph glyph-name="ghainn" unicode="&#x63a;" horiz-adv-x="420" arabic-form="initial" 
d="M135 445q0 19 16 32t39 13t39 -13t16 -32t-16 -32t-39 -13t-39 13t-16 32zM-30 60q0 14 9 22t21 8h97q-23 23 -33.5 50t-10.5 54q0 33 13 59t35 44t51.5 27.5t63.5 9.5q32 0 66 -8.5t69 -25.5l-34 -78q-20 8 -44 15t-49 7q-12 0 -26.5 -3.5t-27 -11t-21 -20t-8.5 -31.5
q0 -14 6 -29t18 -28.5t29.5 -22t39.5 -8.5h134l-18 -90h-350q-13 0 -21.5 8.5t-8.5 21.5v30z" />
    <glyph glyph-name="ghainm" unicode="&#x63a;" horiz-adv-x="500" arabic-form="medial" 
d="M195 445q0 19 16 32t39 13t39 -13t16 -32t-16 -32t-39 -13t-39 13t-16 32zM-30 60q0 13 8.5 21.5t21.5 8.5h135l-59 102q-6 10 -8.5 22.5t-2.5 24.5q0 17 5 33.5t15 29t25 20.5t35 8h210q20 0 35 -8t25 -20.5t15 -29t5 -33.5q0 -12 -2.5 -24t-8.5 -23l-58 -102h134v-90
h-500q-13 0 -21.5 8.5t-8.5 21.5v30zM348 240h-195l91 -150h11z" />
    <glyph glyph-name="fehf" unicode="&#x641;" horiz-adv-x="850" arabic-form="final" 
d="M576 445q0 19 16 32t39 13t39 -13t16 -32t-16 -32t-39 -13t-39 13t-16 32zM155 90h327q-9 16 -13 34.5t-4 38.5q0 29 9.5 59t30 54t52.5 39t76 15h72q33 0 56.5 -23t23.5 -57v-160h65v-90h-705q-34 0 -57 23.5t-23 56.5v230q0 8 6 14t14 6h50q8 0 14 -6t6 -14v-220z
M695 90v150h-68q-30 0 -51 -21.5t-21 -53.5q0 -31 21 -53t51 -22h68z" />
    <glyph glyph-name="fehn" unicode="&#x641;" horiz-adv-x="450" arabic-form="initial" 
d="M170 445q0 19 16 32t39 13t39 -13t16 -32t-16 -32t-39 -13t-39 13t-16 32zM-30 60q0 13 8.5 21.5t21.5 8.5h82q-9 16 -13 34.5t-4 38.5q0 29 9.5 59t30 54t52.5 39t76 15h72q33 0 56.5 -23.5t23.5 -56.5v-230q0 -8 -6 -14t-14 -6h-365q-13 0 -21.5 8.5t-8.5 21.5v30z
M227 240q-30 0 -51 -21.5t-21 -53.5q0 -29 20 -52t52 -23h68v150h-68z" />
    <glyph glyph-name="fehm" unicode="&#x641;" horiz-adv-x="450" arabic-form="medial" 
d="M170 445q0 19 16 32t39 13t39 -13t16 -32t-16 -32t-39 -13t-39 13t-16 32zM0 0q-13 0 -21.5 8.5t-8.5 21.5v30q0 13 8.5 21.5t21.5 8.5h82q-9 16 -13 34.5t-4 38.5q0 29 9.5 59t30 54t52.5 39t76 15h72q33 0 56.5 -23.5t23.5 -56.5v-160h65v-90h-450zM295 90v150h-68
q-30 0 -51 -21.5t-21 -53.5q0 -29 20 -52t50 -23h70z" />
    <glyph glyph-name="qaff" unicode="&#x642;" horiz-adv-x="640" arabic-form="final" 
d="M300 445q0 19 16 32t39 13t39 -13t16 -32t-16 -32t-39 -13t-39 13t-16 32zM430 445q0 19 16 32t39 13t39 -13t16 -32t-16 -32t-39 -13t-39 13t-16 32zM395 -90q38 0 64 26.5t26 63.5h-145q-31 0 -53 22t-22 53v110q0 37 14.5 64.5t38 45.5t54.5 26.5t64 8.5q36 0 73 -9.5
t66 -27.5v-203h65v-90h-65q0 -37 -14 -70t-38.5 -57.5t-57.5 -38.5t-70 -14h-150q-37 0 -70 14t-57.5 38.5t-38.5 57.5t-14 70v135q0 8 6 14t14 6h50q8 0 14 -6t6 -14v-135q0 -37 26.5 -63.5t63.5 -26.5h150zM485 90v139q-33 11 -55 11q-30 0 -52.5 -14t-22.5 -41v-95h130z
" />
    <glyph glyph-name="qafn" unicode="&#x642;" horiz-adv-x="450" arabic-form="initial" 
d="M105 445q0 19 16 32t39 13t39 -13t16 -32t-16 -32t-39 -13t-39 13t-16 32zM235 445q0 19 16 32t39 13t39 -13t16 -32t-16 -32t-39 -13t-39 13t-16 32zM-30 60q0 13 8.5 21.5t21.5 8.5h82q-9 16 -13 34.5t-4 38.5q0 29 9.5 59t30 54t52.5 39t76 15h72q33 0 56.5 -23.5
t23.5 -56.5v-230q0 -8 -6 -14t-14 -6h-365q-13 0 -21.5 8.5t-8.5 21.5v30zM227 240q-30 0 -51 -21.5t-21 -53.5q0 -29 20 -52t52 -23h68v150h-68z" />
    <glyph glyph-name="qafm" unicode="&#x642;" horiz-adv-x="450" arabic-form="medial" 
d="M105 445q0 19 16 32t39 13t39 -13t16 -32t-16 -32t-39 -13t-39 13t-16 32zM235 445q0 19 16 32t39 13t39 -13t16 -32t-16 -32t-39 -13t-39 13t-16 32zM0 0q-13 0 -21.5 8.5t-8.5 21.5v30q0 13 8.5 21.5t21.5 8.5h82q-9 16 -13 34.5t-4 38.5q0 29 9.5 59t30 54t52.5 39
t76 15h72q33 0 56.5 -23.5t23.5 -56.5v-160h65v-90h-450zM295 90v150h-68q-30 0 -51 -21.5t-21 -53.5q0 -29 20 -52t50 -23h70z" />
    <glyph glyph-name="kaff" unicode="&#x643;" horiz-adv-x="670" arabic-form="final" 
d="M145 0q-33 0 -56.5 23.5t-23.5 56.5v200q0 8 6 14t14 6h50q8 0 14 -6t6 -14v-190h360v440q0 8 6 14t14 6h50q8 0 14 -6t6 -14v-440h65v-90h-525zM250 288h113v17q0 19 -18 27t-33 8h-30l-31 51l123 124l34 -51l-76 -74q46 -2 67 -22t21 -58v-80h-170v58z" />
    <glyph glyph-name="kafn" unicode="&#x643;" horiz-adv-x="410" arabic-form="initial" 
d="M0 0q-13 0 -21.5 8.5t-8.5 21.5v30q0 13 8.5 21.5t21.5 8.5h255v68q0 23 -8 38.5t-22 25.5t-32.5 14t-39.5 4q-17 0 -34.5 -3t-31.5 -8l-30 78l239 240l64 -64l-151 -152q60 -10 98 -52.5t38 -120.5v-138q0 -8 -6 -14t-14 -6h-325z" />
    <glyph glyph-name="kafm" unicode="&#x643;" horiz-adv-x="410" arabic-form="medial" 
d="M0 0q-13 0 -21.5 8.5t-8.5 21.5v30q0 13 8.5 21.5t21.5 8.5h255v68q0 23 -8 38.5t-22 25.5t-32.5 14t-39.5 4q-17 0 -34.5 -3t-31.5 -8l-30 78l239 240l64 -64l-151 -152q60 -10 98 -52.5t38 -120.5v-68h65v-90h-410z" />
    <glyph glyph-name="lamf" unicode="&#x644;" horiz-adv-x="520" arabic-form="final" 
d="M455 90h65v-90h-65v-70q0 -33 -23.5 -56.5t-56.5 -23.5h-130q-37 0 -70 14t-57.5 38.5t-38.5 57.5t-14 70v130q0 8 6 14t14 6h50q8 0 14 -6t6 -14v-130q0 -38 26.5 -64t63.5 -26h120v590q0 8 6 14t14 6h50q8 0 14 -6t6 -14v-440z" />
    <glyph glyph-name="lamn" unicode="&#x644;" horiz-adv-x="220" arabic-form="initial" 
d="M65 90v440q0 8 6 14t14 6h50q8 0 14 -6t6 -14v-450q0 -33 -23.5 -56.5t-56.5 -23.5h-75q-13 0 -21.5 8.5t-8.5 21.5v30q0 13 8.5 21.5t21.5 8.5h65z" />
    <glyph glyph-name="lamm" unicode="&#x644;" horiz-adv-x="220" arabic-form="medial" 
d="M-30 60q0 13 8.5 21.5t21.5 8.5h65v440q0 8 6 14t14 6h50q8 0 14 -6t6 -14v-440h65v-90h-220q-13 0 -21.5 8.5t-8.5 21.5v30z" />
    <glyph glyph-name="meemf" unicode="&#x645;" horiz-adv-x="440" arabic-form="final" 
d="M65 190q0 36 15.5 62.5t40 43.5t56.5 25.5t65 8.5q36 0 70 -10t63 -30v-200h65v-90h-285v-120h-90v310zM285 90v139q-33 11 -55 11q-30 0 -52.5 -14t-22.5 -41v-95h130z" />
    <glyph glyph-name="meemn" unicode="&#x645;" horiz-adv-x="440" arabic-form="initial" 
d="M0 0q-13 0 -21.5 8.5t-8.5 21.5v30q0 13 8.5 21.5t21.5 8.5h65v98q0 30 13.5 53.5t36 39.5t52 24t61.5 8q39 0 77.5 -12.5t69.5 -38.5v-170q0 -33 -12.5 -58t-33 -41.5t-47.5 -24.5t-57 -8q-38 0 -65.5 10.5t-59.5 29.5h-100zM155 69q16 -10 34 -14.5t36 -4.5q24 0 42 9
t18 28v123q-9 5 -25 9t-34 4q-26 0 -48.5 -11t-22.5 -39v-104z" />
    <glyph glyph-name="meemm" unicode="&#x645;" horiz-adv-x="440" arabic-form="medial" 
d="M-30 60q0 13 8.5 21.5t21.5 8.5h65v72q0 38 13 66.5t34.5 47t49.5 28t58 9.5t57.5 -9t49.5 -27.5t35 -46.5t13 -65v-75h65v-90h-103q-22 -24 -53.5 -37t-64.5 -13t-63.5 12.5t-52.5 37.5h-103q-13 0 -21.5 8.5t-8.5 21.5v30zM155 80q0 -20 20.5 -30t44.5 -10q25 0 45 10
t20 30v90q0 27 -20 40t-45 13q-24 0 -44.5 -13t-20.5 -40v-90z" />
    <glyph glyph-name="noonf" unicode="&#x646;" horiz-adv-x="520" arabic-form="final" 
d="M205 445q0 19 16 32t39 13t39 -13t16 -32t-16 -32t-39 -13t-39 13t-16 32zM455 90h65v-90h-65v-70q0 -33 -23.5 -56.5t-56.5 -23.5h-130q-37 0 -70 14t-57.5 38.5t-38.5 57.5t-14 70v170q0 8 6 14t14 6h50q8 0 14 -6t6 -14v-170q0 -16 6.5 -32t17.5 -29t26 -21t33 -8h127
v370q0 8 6 14t14 6h50q8 0 14 -6t6 -14v-220z" />
    <glyph glyph-name="noonn" unicode="&#x646;" horiz-adv-x="260" arabic-form="initial" 
d="M95 445q0 19 16 32t39 13t39 -13t16 -32t-16 -32t-39 -13t-39 13t-16 32zM-30 60q0 13 8.5 21.5t21.5 8.5h105v220q0 8 6 14t14 6h50q8 0 14 -6t6 -14v-230q0 -33 -23.5 -56.5t-56.5 -23.5h-115q-13 0 -21.5 8.5t-8.5 21.5v30z" />
    <glyph glyph-name="noonm" unicode="&#x646;" horiz-adv-x="300" arabic-form="medial" 
d="M95 445q0 19 16 32t39 13t39 -13t16 -32t-16 -32t-39 -13t-39 13t-16 32zM-30 60q0 13 8.5 21.5t21.5 8.5h105v220q0 8 6 14t14 6h50q8 0 14 -6t6 -14v-220h105v-90h-300q-13 0 -21.5 8.5t-8.5 21.5v30z" />
    <glyph glyph-name="heh" unicode="&#x647;" horiz-adv-x="440" arabic-form="isolated" 
d="M65 0v190q0 36 15.5 62.5t40 43.5t56.5 25.5t65 8.5q36 0 70 -10t63 -30v-290h-310zM285 90v139q-33 11 -55 11q-30 0 -52.5 -14t-22.5 -41v-95h130z" />
    <glyph glyph-name="hehf" unicode="&#x647;" horiz-adv-x="460" arabic-form="final" 
d="M460 0h-295q-54 0 -77 20.5t-23 52.5q0 24 12 54l55 139q11 28 36.5 46t56.5 18h150q8 0 14 -6t6 -14v-220h65v-90zM305 90v150h-86l-59 -150h145z" />
    <glyph glyph-name="hehn" unicode="&#x647;" horiz-adv-x="600" arabic-form="initial" 
d="M-30 60q0 13 8.5 21.5t21.5 8.5h82q-9 17 -13 36.5t-4 38.5q0 30 10 59.5t30.5 53t52 38t74.5 14.5h33l-15 60q27 9 55 14t55 5q35 0 67 -9.5t56 -31t38 -55.5t14 -83v-210q0 -8 -6 -14t-14 -6h-515q-13 0 -21.5 8.5t-8.5 21.5v30zM445 230q0 28 -9 45.5t-25 27t-38 12.5
t-47 3q14 -12 23 -29.5t9 -38.5v-160h87v140zM265 90v150h-36q-30 0 -52 -21.5t-22 -53.5t22 -53.5t52 -21.5h36z" />
    <glyph glyph-name="hehm" unicode="&#x647;" horiz-adv-x="600" arabic-form="medial" 
d="M-30 60q0 13 8.5 21.5t21.5 8.5h82q-9 17 -13 36.5t-4 38.5q0 30 10 59.5t30.5 53t52 38t74.5 14.5h33l-15 60q28 9 56 14t56 5q35 0 66.5 -9.5t55 -30.5t37.5 -55.5t14 -83.5v-140h65v-90h-600q-13 0 -21.5 8.5t-8.5 21.5v30zM445 230q0 28 -9 45.5t-25 27t-38 12.5
t-47 3q14 -12 23 -29.5t9 -38.5v-160h87v140zM265 90v150h-36q-30 0 -52 -21.5t-22 -53.5t22 -53.5t52 -21.5h36z" />
    <glyph glyph-name="wawf" unicode="&#x648;" horiz-adv-x="440" arabic-form="final" 
d="M65 160q0 44 13 76t35 53t51 31t62 10q38 0 76 -12.5t73 -37.5v-190h65v-90h-65q0 -45 -10.5 -77t-29.5 -52.5t-45 -30t-57 -9.5q-35 0 -71 11t-77 31l29 70q24 -11 50.5 -19t51.5 -8q30 0 49.5 17.5t19.5 66.5h-130q-38 0 -64 26t-26 64v70zM285 90v140q-26 10 -57 10
q-29 0 -51 -19t-22 -61v-70h130z" />
    <glyph glyph-name="maksuraf" unicode="&#x649;" horiz-adv-x="550" arabic-form="final" 
d="M313 79q-14 14 -14 34q0 23 14 35t31 12q20 0 34 -14l55 -56h117v-90h-29l29 -30q30 -32 30 -70q0 -32 -22.5 -56t-67.5 -24h-245q-37 0 -70 14t-57.5 38.5t-38.5 57.5t-14 70v120q0 8 6 14t14 6h50q8 0 14 -6t6 -14v-120q0 -38 26.5 -64t63.5 -26h234z" />
    <glyph glyph-name="yehf" unicode="&#x64a;" horiz-adv-x="550" arabic-form="final" 
d="M215 -280.5q0 17.5 16 29t39 11.5t39 -11.5t16 -29t-16 -29t-39 -11.5t-39 11.5t-16 29zM345 -280.5q0 17.5 16 29t39 11.5t39 -11.5t16 -29t-16 -29t-39 -11.5t-39 11.5t-16 29zM313 79q-14 14 -14 34q0 23 14 35t31 12q20 0 34 -14l55 -56h117v-90h-29l29 -30
q30 -32 30 -70q0 -32 -22.5 -56t-67.5 -24h-245q-37 0 -70 14t-57.5 38.5t-38.5 57.5t-14 70v120q0 8 6 14t14 6h50q8 0 14 -6t6 -14v-120q0 -38 26.5 -64t63.5 -26h234z" />
    <glyph glyph-name="yehn" unicode="&#x64a;" horiz-adv-x="260" arabic-form="initial" 
d="M-20 -105q0 19 16 32t39 13t39 -13t16 -32t-16 -32t-39 -13t-39 13t-16 32zM110 -105q0 19 16 32t39 13t39 -13t16 -32t-16 -32t-39 -13t-39 13t-16 32zM-30 60q0 13 8.5 21.5t21.5 8.5h105v220q0 8 6 14t14 6h50q8 0 14 -6t6 -14v-230q0 -33 -23.5 -56.5t-56.5 -23.5
h-115q-13 0 -21.5 8.5t-8.5 21.5v30z" />
    <glyph glyph-name="yehm" unicode="&#x64a;" horiz-adv-x="300" arabic-form="medial" 
d="M0 -105q0 19 16 32t39 13t39 -13t16 -32t-16 -32t-39 -13t-39 13t-16 32zM130 -105q0 19 16 32t39 13t39 -13t16 -32t-16 -32t-39 -13t-39 13t-16 32zM-30 60q0 13 8.5 21.5t21.5 8.5h105v220q0 8 6 14t14 6h50q8 0 14 -6t6 -14v-220h105v-90h-300q-13 0 -21.5 8.5
t-8.5 21.5v30z" />
    <glyph glyph-name=".notdef" horiz-adv-x="592" 
d="M108 365h-21v-47h-37v146h95v-146h-37v47zM490 -40h-37v87h-21v-87h-37v87h-21v-87h-37v106h153v-106zM165 464h37v-40h58v-106h-95v146zM375 318h-95v106h58v40h37v-146zM490 318h-95v106h95v-106zM235 117h-95v106h95v-106zM317 -40h-95v106h95v-106zM350 117h-37v87
h-21v-87h-37v106h95v-106zM107 66h95v-34h-37v15h-21v-68h21v15h37v-34h-95v106zM484 204v-24h58v-63h-95v19h58v25h-58v62h95v-19h-58zM87 164v-47h-37v146h75v-19h-38v-61h38v-19h-38zM407 204v-87h-37v146h37v-40h25v-19h-25zM317 337h21v68h-21v-68zM177 136h21v68h-21
v-68zM202 337h21v68h-21v-68zM259 -21h21v68h-21v-68zM432 337h21v68h-21v-68zM87 384h21v61h-21v-61zM87 -40h-37v29h37v-29z" />
    <glyph glyph-name=".null" 
 />
    <glyph glyph-name="nonmarkingreturn" horiz-adv-x="439" 
 />
    <glyph glyph-name="space" unicode=" " horiz-adv-x="120" 
 />
    <glyph glyph-name="space" unicode="&#xa0;" horiz-adv-x="120" 
 />
    <glyph glyph-name="exclam" unicode="!" horiz-adv-x="250" 
d="M100 180q-8 0 -14 6t-6 14v310q0 8 6 14t14 6h50q8 0 14 -6t6 -14v-310q0 -8 -6 -14t-14 -6h-50zM100 0q-8 0 -14 6t-6 14v70q0 8 6 14t14 6h50q8 0 14 -6t6 -14v-70q0 -8 -6 -14t-14 -6h-50z" />
    <glyph glyph-name="quotedbl" unicode="&#x22;" horiz-adv-x="423" 
d="M100 370l-20 220h108l-20 -220h-68zM255 370l-20 220h108l-20 -220h-68z" />
    <glyph glyph-name="numbersign" unicode="#" horiz-adv-x="630" 
d="M115 455h85q3 22 7 45t7 45h87l-13 -90h112q3 22 7 45t7 45h87l-13 -90h57v-80h-67l-21 -150h58v-80h-69l-13 -90h-87l12 90h-112l-13 -90h-87l12 90h-73v80h84l21 150h-75v80zM257 225h112l21 150h-112z" />
    <glyph glyph-name="percent" unicode="%" horiz-adv-x="670" 
d="M175 0l219 550h96l-219 -550h-96zM174 550q20 0 37.5 -5.5t30.5 -16.5t20.5 -26.5t7.5 -35.5v-54q0 -20 -7.5 -35.5t-20.5 -26.5t-30.5 -16.5t-37.5 -5.5h-18q-19 0 -36.5 5.5t-31 16.5t-21 26.5t-7.5 35.5v54q0 20 7.5 35.5t21 26.5t31 16.5t36.5 5.5h18zM155 495
q-18 0 -29.5 -5t-11.5 -22v-58q0 -17 12 -22t28 -5h25q17 0 27 6t10 21v58q0 18 -12 22.5t-30 4.5h-19zM514 222q20 0 37.5 -5.5t30.5 -16.5t20.5 -26.5t7.5 -35.5v-54q0 -20 -7.5 -35.5t-20.5 -26.5t-30.5 -16.5t-37.5 -5.5h-18q-19 0 -36.5 5.5t-31 16.5t-21 26.5
t-7.5 35.5v54q0 20 7.5 35.5t21 26.5t31 16.5t36.5 5.5h18zM495 167q-18 0 -29.5 -5t-11.5 -22v-58q0 -17 12 -22t28 -5h25q17 0 27 6t10 21v58q0 18 -12 22.5t-30 4.5h-19z" />
    <glyph glyph-name="ampersand" unicode="&#x26;" horiz-adv-x="580" 
d="M525 160q-20 -20 -43 -38t-48 -35l69 -87h-120l-33 41q-42 -20 -83.5 -30.5t-78.5 -10.5t-65 10.5t-46.5 28.5t-27.5 41t-9 49q0 45 29 89.5t86 70.5q-16 24 -23 48.5t-7 47.5q0 34 11 58t29.5 39.5t43.5 23t53 7.5q41 0 84 -14.5t79 -38.5l-48 -66q-4 2 -16 6t-27.5 7.5
t-33.5 6.5t-34 3q-25 0 -35 -10.5t-10 -25.5q0 -23 18 -46l134 -171q23 15 43.5 31.5t37.5 34.5zM182 96q25 0 52 6t55 17l-67 86q-43 -12 -65 -33.5t-22 -44.5q0 -12 12 -21.5t35 -9.5z" />
    <glyph glyph-name="quotesingle" unicode="'" horiz-adv-x="268" 
d="M100 370l-20 220h108l-20 -220h-68z" />
    <glyph glyph-name="parenleft" unicode="(" horiz-adv-x="399" 
d="M258 -129q-37 42 -69.5 89.5t-56.5 99t-38 106t-14 109.5q0 56 13.5 109t37 102t55 94t68.5 85l62 -40q-64 -88 -100 -179.5t-36 -170.5q0 -45 10.5 -91t29.5 -91t44.5 -89t54.5 -85z" />
    <glyph glyph-name="parenright" unicode=")" horiz-adv-x="399" 
d="M141 -129q37 42 69.5 89.5t56.5 99t38 106t14 109.5q0 56 -13.5 109t-37 102t-55 94t-68.5 85l-62 -40q64 -88 100 -179.5t36 -170.5q0 -45 -10.5 -91t-29.5 -91t-44.5 -89t-54.5 -85z" />
    <glyph glyph-name="asterisk" unicode="*" horiz-adv-x="374" 
d="M257 470l-6 -43l-50 -14l-26 35l11 108l-48 -100l-39 -17l-37 39l17 39l101 45l-110 -12l-34 27l13 53l43 4l91 -65l-65 90l5 43l50 14l27 -35l-12 -110l47 101l40 18l37 -39l-15 -40l-102 -45l111 12l32 -26l-12 -52l-44 -6l-90 64z" />
    <glyph glyph-name="plus" unicode="+" horiz-adv-x="510" 
d="M300 290h130v-90h-130v-130h-90v130h-130v90h130v130h90v-130z" />
    <glyph glyph-name="comma" unicode="," horiz-adv-x="300" 
d="M80 110q69 0 104.5 -36.5t35.5 -88.5q0 -42 -25.5 -87.5t-78.5 -83.5l-28 41q24 18 41.5 44t17.5 50q0 19 -15 33.5t-52 17.5v110z" />
    <glyph glyph-name="hyphen" unicode="-" horiz-adv-x="460" 
d="M80 100v90h300v-90h-300z" />
    <glyph glyph-name="period" unicode="." horiz-adv-x="275" 
d="M100 0q-8 0 -14 6t-6 14v75q0 8 6 14t14 6h75q8 0 14 -6t6 -14v-75q0 -8 -6 -14t-14 -6h-75z" />
    <glyph glyph-name="slash" unicode="/" horiz-adv-x="475" 
d="M80 0l219 550h96l-219 -550h-96z" />
    <glyph glyph-name="zero" unicode="0" horiz-adv-x="450" 
d="M400 179q0 -45 -15 -78.5t-39.5 -56t-55.5 -33.5t-63 -11q-33 0 -65 11.5t-57 34t-40 56t-15 77.5v171q0 46 15 80t39 56.5t55 33.5t63 11q33 0 65 -11.5t57 -34.5t40.5 -57t15.5 -78v-171zM310 350q0 22 -7.5 39t-20 28.5t-28.5 17.5t-32 6q-31 0 -56.5 -22.5
t-25.5 -68.5v-171q0 -44 27 -66.5t60 -22.5q15 0 30 5.5t27 17t19 28t7 38.5v171z" />
    <glyph glyph-name="one" unicode="1" horiz-adv-x="273" 
d="M43 470l100 60h50q8 0 14 -6t6 -14v-490q0 -8 -6 -14t-14 -6h-50q-8 0 -14 6t-6 14v384l-58 -35z" />
    <glyph glyph-name="two" unicode="2" horiz-adv-x="450" 
d="M150 340h-90v60q0 39 11.5 64t33 39.5t52 20.5t68.5 6t70 -6t55.5 -20.5t36.5 -39.5t13 -64v-55q0 -43 -16.5 -73t-42 -50.5t-55.5 -35.5l-60 -29q-28 -13 -50.5 -29t-30.5 -38h245v-90h-320q-8 0 -14 6t-6 14v45q0 45 19.5 74.5t48 50t62.5 35t62.5 30t48 34t19.5 46.5
v70q0 18 -25.5 24t-59.5 6q-32 0 -53.5 -6t-21.5 -24v-65z" />
    <glyph glyph-name="three" unicode="3" horiz-adv-x="476" 
d="M355 269q38 -24 54.5 -53t16.5 -59q0 -38 -16.5 -67t-43 -49t-61 -30.5t-70.5 -10.5t-70 10t-61.5 31t-45 53t-18.5 76h90q0 -19 9 -33t24 -23.5t33.5 -14t37.5 -4.5q16 0 34 4t33 12.5t24.5 21.5t9.5 31q0 21 -19 40.5t-61 19.5h-35v81h35q36 0 53 20t17 40q0 16 -8 29
t-21 22t-29.5 14t-33.5 5q-32 0 -59.5 -17.5t-33.5 -57.5h-90q1 44 18.5 76t44.5 53t60.5 31t67.5 10t65.5 -10t55.5 -28.5t38.5 -46t14.5 -63.5q0 -29 -14 -58t-46 -55z" />
    <glyph glyph-name="four" unicode="4" horiz-adv-x="420" 
d="M198 510q5 7 12.5 13.5t15.5 6.5h114q8 0 14 -6t6 -14v-490q0 -8 -6 -14t-14 -6h-50q-8 0 -14 6t-6 14v160h-250v95zM270 270v198l-151 -198h151z" />
    <glyph glyph-name="five" unicode="5" horiz-adv-x="420" 
d="M60 125q7 -3 23 -8t36 -9.5t43 -8t44 -3.5q42 0 63 23.5t21 51.5q0 25 -19 44.5t-61 19.5h-137q-8 0 -14 6t-6 14l48 255q2 8 6.5 14t13.5 6h244v-92h-187l-20 -110h57q41 0 72 -14t51.5 -37t31 -52.5t10.5 -59.5q0 -31 -10.5 -60.5t-31.5 -53t-52.5 -37.5t-74.5 -14
q-45 0 -92 12.5t-89 35.5z" />
    <glyph glyph-name="six" unicode="6" horiz-adv-x="450" 
d="M230 340q37 0 68.5 -2t54 -13t35 -35t12.5 -69v-102q0 -45 -13.5 -69t-36.5 -35t-55.5 -13t-69.5 -2q-38 0 -70 2.5t-55 14t-36.5 35.5t-13.5 67v216q0 54 14 91t38 60t56.5 33.5t68.5 10.5q42 0 86 -12t86 -33l-27 -79q-25 14 -63.5 26.5t-73.5 12.5q-20 0 -37.5 -4.5
t-30 -16.5t-20 -32.5t-7.5 -51.5h90zM140 119q0 -21 24 -25t61 -4t61 3.5t24 25.5v102q0 22 -22.5 25.5t-57.5 3.5h-90v-131z" />
    <glyph glyph-name="seven" unicode="7" horiz-adv-x="380" 
d="M370 530l-174 -510q-3 -8 -10 -14t-15 -6h-77l150 440h-204v90h330z" />
    <glyph glyph-name="eight" unicode="8" horiz-adv-x="480" 
d="M180 0q-29 0 -54.5 12t-44.5 32t-30 46t-11 55q0 38 19 71t51 53q-31 21 -45.5 51.5t-14.5 62.5q0 27 10 53.5t28 47.5t44 33.5t58 12.5h100q31 0 57 -12.5t44.5 -33t28.5 -46.5t10 -54q0 -32 -14 -62t-46 -53q32 -20 51 -53t19 -71q0 -29 -11 -55t-30 -46t-44.5 -32
t-54.5 -12h-120zM240 225q-19 0 -38.5 -5t-35.5 -16t-26 -27.5t-10 -38.5q0 -19 16.5 -34.5t48.5 -15.5h90q33 0 49 15.5t16 34.5q0 22 -10 38.5t-25.5 27t-35.5 16t-39 5.5zM240 305q39 0 69.5 22t30.5 66q0 18 -16 34t-49 16h-70q-32 0 -48.5 -16t-16.5 -34
q0 -23 8.5 -39.5t22.5 -27t32 -16t37 -5.5z" />
    <glyph glyph-name="nine" unicode="9" horiz-adv-x="458" 
d="M220 190q-38 0 -69 2t-53.5 13t-35 35t-12.5 69v102q0 45 13.5 69t36.5 35t55 13t70 2q37 0 69.5 -2.5t55.5 -14t36.5 -35.5t13.5 -67v-216q0 -54 -14 -91t-38 -60t-56.5 -33.5t-68.5 -10.5q-42 0 -86 12t-86 33l27 79q25 -14 63.5 -26.5t73.5 -12.5q20 0 37.5 4.5
t30 16.5t20 32t7.5 52h-90zM310 411q0 21 -24 25t-61 4t-61 -3.5t-24 -25.5v-102q0 -22 22.5 -25.5t57.5 -3.5h90v131z" />
    <glyph glyph-name="colon" unicode=":" horiz-adv-x="275" 
d="M100 0q-8 0 -14 6t-6 14v75q0 8 6 14t14 6h75q8 0 14 -6t6 -14v-75q0 -8 -6 -14t-14 -6h-75zM100 200q-8 0 -14 6t-6 14v75q0 8 6 14t14 6h75q8 0 14 -6t6 -14v-75q0 -8 -6 -14t-14 -6h-75z" />
    <glyph glyph-name="semicolon" unicode=";" horiz-adv-x="300" 
d="M100 180q-8 0 -14 6t-6 14v80q0 8 6 14t14 6h80q8 0 14 -6t6 -14v-80q0 -8 -6 -14t-14 -6h-80zM80 110q69 0 104.5 -36.5t35.5 -88.5q0 -42 -25.5 -87.5t-78.5 -83.5l-28 41q24 18 41.5 44t17.5 50q0 19 -15 33.5t-52 17.5v110z" />
    <glyph glyph-name="less" unicode="&#x3c;" horiz-adv-x="609" 
d="M80 200v128l449 196v-102l-365 -157l365 -157v-106z" />
    <glyph glyph-name="equal" unicode="=" horiz-adv-x="560" 
d="M80 110v90h400v-90h-400zM80 270v90h400v-90h-400z" />
    <glyph glyph-name="greater" unicode="&#x3e;" horiz-adv-x="609" 
d="M529 200v128l-449 196v-102l365 -157l-365 -157v-106z" />
    <glyph glyph-name="question" unicode="?" horiz-adv-x="480" 
d="M170 380q0 -8 -6 -14t-14 -6h-50q-8 0 -14 6t-6 14v60q0 39 11.5 62.5t33 36t52 17t68.5 4.5t68.5 -4.5t52 -17t33 -36t11.5 -62.5v-105q0 -23 -9.5 -39.5t-24 -30t-31.5 -24.5t-31.5 -21.5t-24 -22.5t-9.5 -27v-10q0 -8 -6 -14t-14 -6h-50q-8 0 -14 6t-6 14v30
q0 23 9.5 38t24 27t31.5 21.5t31.5 20.5t24 24.5t9.5 33.5v90q0 14 -24 19.5t-53 5.5q-28 0 -50.5 -5t-22.5 -20v-65zM210 0q-8 0 -14 6t-6 14v60q0 8 6 14t14 6h50q8 0 14 -6t6 -14v-60q0 -8 -6 -14t-14 -6h-50z" />
    <glyph glyph-name="at" unicode="@" horiz-adv-x="639" 
d="M550 68q-42 -34 -96.5 -51t-113.5 -17q-76 0 -130.5 21t-90 56.5t-52.5 80.5t-17 93q0 53 19 104.5t55 92.5t88 66t117 25q48 0 93 -15t80 -44.5t56 -73.5t21 -103q0 -41 -12.5 -73.5t-33 -55t-45 -34.5t-48.5 -12q-27 0 -44 7.5t-27 21.5q-29 -23 -67 -23q-29 0 -50 9.5
t-34.5 25t-20.5 36t-7 42.5q0 25 9 50.5t26 45t43 32t59 12.5q35 0 58 -18l5 19h70l-34 -139q-4 -15 -4 -28q0 -19 7.5 -27.5t18.5 -8.5t23.5 8t23.5 23t18 37t7 50q0 33 -13 65t-37.5 56.5t-60.5 40t-81 15.5q-49 0 -87 -20t-64.5 -52.5t-40.5 -74t-14 -84.5q0 -41 13 -79
t41 -68t70 -48t101 -18q49 0 98.5 15.5t94.5 46.5zM327 327q-14 0 -24.5 -8t-17.5 -20t-11 -27t-4 -29q0 -20 7.5 -34.5t24.5 -14.5q12 0 22.5 8.5t18 22t12 29t4.5 30.5q0 18 -7.5 30.5t-24.5 12.5z" />
    <glyph glyph-name="A" unicode="A" horiz-adv-x="430" 
d="M390 20q0 -8 -6 -14t-14 -6h-50q-8 0 -14 6t-6 14v155h-170v-155q0 -8 -6 -14t-14 -6h-50q-8 0 -14 6t-6 14v345q0 42 15 73t39.5 51.5t55.5 30.5t63 10q33 0 65 -10.5t56.5 -31.5t40 -52t15.5 -71v-345zM130 265h170v102q0 37 -27 55t-60 18q-32 0 -57.5 -18t-25.5 -55
v-102z" />
    <glyph glyph-name="B" unicode="B" horiz-adv-x="458" 
d="M265 530q29 0 56.5 -11t49 -30t34.5 -44.5t13 -54.5q0 -38 -19 -70t-51 -51q32 -20 51 -53t19 -71q0 -29 -11 -55t-30 -46t-44.5 -32t-54.5 -12h-218q-8 0 -14 6t-6 14v490q0 8 6 14t14 6h205zM276 90q26 0 39 19.5t13 43.5q0 23 -13 42.5t-39 19.5h-146v-125h146z
M276 314q26 0 39 20t13 43q0 24 -13 43.5t-39 19.5h-146v-126h146z" />
    <glyph glyph-name="C" unicode="C" horiz-adv-x="430" 
d="M300 165q0 8 6 14t14 6h50q8 0 14 -6t6 -14v-14q0 -36 -15 -64t-39.5 -47.5t-55.5 -29.5t-64 -10t-64.5 10t-56.5 29.5t-40 47.5t-15 64v229q0 36 15 64t40 47.5t56.5 29.5t64.5 10t64 -10t55.5 -29.5t39.5 -47.5t15 -64v-15q0 -8 -6 -14t-14 -6h-50q-8 0 -14 6t-6 14v23
q0 13 -7 22.5t-19 16t-27.5 10t-31.5 3.5t-31 -3.5t-27 -10t-19.5 -16t-7.5 -22.5v-245q0 -13 7.5 -23t19.5 -16.5t27 -10t31 -3.5t31.5 3.5t27.5 10t19 16.5t7 23v22z" />
    <glyph glyph-name="D" unicode="D" horiz-adv-x="450" 
d="M210 530q37 0 73 -11.5t64.5 -34t45.5 -56t17 -78.5v-171q0 -45 -17 -78.5t-45.5 -56t-64.5 -33.5t-73 -11h-150q-8 0 -14 6t-6 14v490q0 8 6 14t14 6h150zM130 440v-350h80q21 0 40.5 5t35 14.5t25 24t9.5 34.5v193q0 20 -9.5 35t-25 24.5t-35 14.5t-40.5 5h-80z" />
    <glyph glyph-name="E" unicode="E" horiz-adv-x="398" 
d="M358 0h-298q-8 0 -14 6t-6 14v490q0 8 6 14t14 6h298v-90h-228v-122h228v-93h-228v-135h228v-90z" />
    <glyph glyph-name="F" unicode="F" horiz-adv-x="340" 
d="M130 20q0 -8 -6 -14t-14 -6h-50q-8 0 -14 6t-6 14v490q0 8 6 14t14 6h260v-90h-190v-135h170v-92h-170v-193z" />
    <glyph glyph-name="G" unicode="G" horiz-adv-x="455" 
d="M265 190v98h130q8 0 14 -6t6 -14v-124q0 -45 -15.5 -73t-41 -43.5t-60 -21.5t-71.5 -6q-38 0 -71.5 5.5t-59.5 21.5t-41 44t-15 73v241q0 45 15 73.5t41 44t59.5 21.5t71.5 6q37 0 71.5 -6t60 -22t41 -44t15.5 -73v-15q0 -8 -6 -14t-14 -6h-50q-7 0 -13.5 6.5t-6.5 13.5
v24q0 15 -8.5 24t-22.5 14t-31.5 6.5t-35.5 1.5t-35.5 -1.5t-31 -6.5t-22 -14t-8.5 -24v-259q0 -15 8.5 -24t22 -13.5t31 -6t35.5 -1.5t35.5 1.5t31.5 6.5t22.5 14t8.5 23v55h-60z" />
    <glyph glyph-name="H" unicode="H" horiz-adv-x="460" 
d="M400 530q8 0 14 -6t6 -14v-490q0 -8 -6 -14t-14 -6h-50q-8 0 -14 6t-6 14v195h-200v-195q0 -8 -6 -14t-14 -6h-50q-8 0 -14 6t-6 14v490q0 8 6 14t14 6h50q8 0 14 -6t6 -14v-205h200v205q0 8 6 14t14 6h50z" />
    <glyph glyph-name="I" unicode="I" horiz-adv-x="170" 
d="M110 530q8 0 14 -6t6 -14v-490q0 -8 -6 -14t-14 -6h-50q-8 0 -14 6t-6 14v490q0 8 6 14t14 6h50z" />
    <glyph glyph-name="J" unicode="J" horiz-adv-x="285" 
d="M19 104q24 -9 45.5 -14.5t38.5 -5.5q24 0 38 11.5t14 37.5v377q0 8 6 14t14 6h50q8 0 14 -6t6 -14v-370q0 -39 -10 -65t-26.5 -42.5t-39.5 -23.5t-48 -7q-28 0 -60 7t-61 19z" />
    <glyph glyph-name="K" unicode="K" horiz-adv-x="443" 
d="M428 0h-105q-14 0 -19.5 7.5t-10.5 12.5l-163 206v-206q0 -8 -6 -14t-14 -6h-50q-8 0 -14 6t-6 14v490q0 8 6 14t14 6h50q8 0 14 -6t6 -14v-206l165 208q4 5 10.5 11.5t17.5 6.5h105l-210 -265z" />
    <glyph glyph-name="L" unicode="L" horiz-adv-x="315" 
d="M130 90h165v-90h-235q-8 0 -14 6t-6 14v490q0 8 6 14t14 6h50q8 0 14 -6t6 -14v-420z" />
    <glyph glyph-name="M" unicode="M" horiz-adv-x="731" 
d="M309 0q-8 0 -13 6t-7 14l-123 420l-55 -420q-1 -8 -6.5 -14t-13.5 -6h-73l67 510q1 8 6.5 14t13.5 6h115q8 0 13 -6t7 -14l126 -425l125 425q2 8 7 14t13 6h115q8 0 13.5 -6t6.5 -14l67 -510h-72q-8 0 -13.5 6t-6.5 14l-56 420l-123 -420q-2 -8 -7 -14t-13 -6h-113z" />
    <glyph glyph-name="N" unicode="N" horiz-adv-x="540" 
d="M130 384v-364q0 -8 -6 -14t-14 -6h-50q-8 0 -14 6t-6 14v490q0 8 6 14t14 6h68l282 -387v367q0 8 6 14t14 6h50q8 0 14 -6t6 -14v-490q0 -8 -6 -14t-14 -6h-70z" />
    <glyph glyph-name="O" unicode="O" horiz-adv-x="430" 
d="M390 142q0 -45 -13.5 -72.5t-37 -43t-56 -21t-69.5 -5.5q-38 0 -69.5 5.5t-55 20.5t-36.5 43t-13 73v246q0 45 13 73t36.5 43t55 20.5t69.5 5.5q37 0 69.5 -5.5t56 -21t37 -43t13.5 -72.5v-246zM300 393q0 30 -24.5 38.5t-61.5 8.5q-35 0 -59.5 -8.5t-24.5 -38.5v-256
q0 -31 24.5 -38.5t60.5 -7.5t60.5 8t24.5 38v256z" />
    <glyph glyph-name="P" unicode="P" horiz-adv-x="450" 
d="M241 275q46 0 67.5 23t21.5 51q0 17 -6 33.5t-17 29t-28 20.5t-38 8h-111v-165h111zM130 185v-165q0 -8 -6 -14t-14 -6h-50q-8 0 -14 6t-6 14v490q0 8 6 14t14 6h178q44 0 78 -15.5t57 -41t35 -58t12 -66.5q0 -31 -10.5 -60.5t-33 -52.5t-57 -37t-81.5 -14h-108z" />
    <glyph glyph-name="Q" unicode="Q" horiz-adv-x="430" 
d="M390 179q0 -63 -29 -106h69v-73h-216q-32 0 -63.5 11.5t-56 34t-39.5 56t-15 77.5v171q0 46 15 80t39 56.5t55 33.5t63 11q33 0 65 -11.5t57 -34.5t40.5 -57t15.5 -78v-171zM300 350q0 22 -7.5 38.5t-20 28t-28.5 17.5t-32 6q-32 0 -57 -22.5t-25 -67.5v-171
q0 -44 27 -66.5t60 -22.5q15 0 30 5.5t26.5 17t19 28t7.5 38.5v171z" />
    <glyph glyph-name="R" unicode="R" horiz-adv-x="448" 
d="M177 200h-47v-180q0 -8 -6 -14t-14 -6h-50q-8 0 -14 6t-6 14v490q0 8 6 14t14 6h178q45 0 79 -15t57 -39t34.5 -54.5t11.5 -61.5q0 -26 -8 -51.5t-24.5 -47t-42 -37t-59.5 -22.5l160 -205q-1 0 -1 1l-1 2h-102q-9 0 -17 6.5t-13 13.5zM240 293q47 0 68.5 21t21.5 48
q0 14 -6 28t-17.5 25t-28.5 18t-38 7h-110v-147h110z" />
    <glyph glyph-name="S" unicode="S" horiz-adv-x="382" 
d="M352 138q0 -41 -16 -67.5t-41.5 -42.5t-58 -22t-65.5 -6q-34 0 -65.5 5t-53.5 13l26 81l40 -7q29 -5 61 -5q16 0 31 2t26.5 7.5t18.5 15.5t7 25q0 16 -17 33t-43 35l-56 38q-30 20 -56 43t-43 49t-17 56q0 41 15.5 68t40.5 42.5t56.5 22t64.5 6.5q35 0 67.5 -5.5
t55.5 -11.5l-26 -81l-39 7q-28 5 -59 5q-33 0 -59.5 -10.5t-26.5 -40.5q0 -15 17 -30.5t43 -32.5l56 -38q30 -20 56 -43.5t43 -51t17 -59.5z" />
    <glyph glyph-name="T" unicode="T" horiz-adv-x="410" 
d="M250 444v-424q0 -8 -6 -14t-14 -6h-50q-8 0 -14 6t-6 14v424h-120q-8 0 -14 6t-6 14v46q0 8 6 14t14 6h330q8 0 14 -6t6 -14v-46q0 -8 -6 -14t-14 -6h-120z" />
    <glyph glyph-name="U" unicode="U" horiz-adv-x="430" 
d="M390 187q0 -45 -15 -80t-39.5 -58.5t-55.5 -36t-63 -12.5q-30 0 -61.5 12t-57 34.5t-42 55t-16.5 72.5v336q0 8 6 14t14 6h50q8 0 14 -6t6 -14v-340q0 -20 9 -34.5t22 -24t28.5 -14t27.5 -4.5q11 0 25.5 4.5t27 14t21.5 24t9 34.5v340q0 8 6 14t14 6h50q8 0 14 -6t6 -14
v-323z" />
    <glyph glyph-name="V" unicode="V" horiz-adv-x="440" 
d="M203 90h43l81 420q2 8 7 14t13 6h76l-100 -510q-2 -8 -7 -14t-13 -6h-156q-8 0 -13 6t-7 14l-102 510h75q8 0 13 -6t7 -14z" />
    <glyph glyph-name="W" unicode="W" horiz-adv-x="733" 
d="M399 530q8 0 13 -6t7 -14l106 -417l96 417q2 8 7 14t13 6h75l-112 -510q-2 -8 -7 -14t-13 -6h-112q-8 0 -13 6t-7 14l-84 351l-87 -351q-2 -8 -7 -14t-13 -6h-111q-8 0 -13 6t-7 14l-112 510h75q8 0 13 -6t7 -14l96 -417l106 417q2 8 7 14t13 6h64z" />
    <glyph glyph-name="X" unicode="X" horiz-adv-x="470" 
d="M288 266l165 -266h-92q-10 0 -15.5 6.5t-10.5 13.5l-100 160l-99 -160q-5 -7 -10.5 -13.5t-15.5 -6.5h-92l164 266l-164 264h91q8 0 15 -6.5t12 -13.5l99 -159l100 159q5 7 12 13.5t15 6.5h91z" />
    <glyph glyph-name="Y" unicode="Y" horiz-adv-x="485" 
d="M288 210v-190q0 -8 -6 -14t-14 -6h-50q-8 0 -14 6t-6 14v190l-180 320h89q8 0 15.5 -6.5t11.5 -13.5l109 -193l109 193q4 7 11.5 13.5t15.5 6.5h89z" />
    <glyph glyph-name="Z" unicode="Z" horiz-adv-x="445" 
d="M55 0q-19 0 -19 13q0 6 6 17l227 410h-231q-8 0 -14 6t-6 14v50q0 8 6 14t14 6h352q19 0 19 -13q0 -7 -6 -17l-226 -410h231q8 0 14 -6t6 -14v-50q0 -8 -6 -14t-14 -6h-353z" />
    <glyph glyph-name="bracketleft" unicode="[" horiz-adv-x="338" 
d="M80 -90v710h178v-67h-100v-565h100v-78h-178z" />
    <glyph glyph-name="backslash" unicode="\" horiz-adv-x="475" 
d="M395 0l-219 550h-96l219 -550h96z" />
    <glyph glyph-name="bracketright" unicode="]" horiz-adv-x="338" 
d="M258 -90v710h-178v-67h100v-565h-100v-78h178z" />
    <glyph glyph-name="asciicircum" unicode="^" horiz-adv-x="420" 
d="M380 410h-92l-78 69l-78 -69h-92l134 120h72z" />
    <glyph glyph-name="underscore" unicode="_" horiz-adv-x="660" 
d="M620 90v-90h-580v90h580z" />
    <glyph glyph-name="grave" unicode="`" horiz-adv-x="298" 
d="M60 530h97l101 -120h-58z" />
    <glyph glyph-name="a" unicode="a" horiz-adv-x="370" 
d="M30 120q0 22 11.5 42t37 35t65.5 24t96 9q0 32 -19.5 44.5t-51.5 12.5q-29 0 -62 -8.5t-57 -19.5l-20 71q38 17 78.5 28.5t82.5 11.5q28 0 53.5 -7.5t44.5 -24.5t30 -45t11 -70v-203q0 -8 -6 -14t-14 -6h-200q-33 0 -56.5 23.5t-23.5 56.5v40zM240 95v65
q-15 0 -35.5 -1.5t-39.5 -6.5t-32 -15t-13 -27v-15h120z" />
    <glyph glyph-name="b" unicode="b" horiz-adv-x="400" 
d="M130 255v-165h61q21 0 38 8t28 21t17 29.5t6 33.5q0 28 -21.5 50.5t-67.5 22.5h-61zM188 345q47 0 81.5 -14t57 -36.5t33 -52t10.5 -60.5q0 -34 -12 -66.5t-35 -58t-57 -41.5t-78 -16h-128q-8 0 -14 6t-6 14v490q0 8 6 14t14 6h50q8 0 14 -6t6 -14v-165h58z" />
    <glyph glyph-name="c" unicode="c" horiz-adv-x="370" 
d="M340 150v-10q0 -33 -12.5 -59t-34.5 -44t-51 -27.5t-62 -9.5h10q-33 0 -62 9.5t-51 27.5t-34.5 44t-12.5 59v90q0 33 12.5 59t34.5 44t51 27.5t62 9.5h-10q33 0 62 -9.5t51 -27.5t34.5 -44t12.5 -59v-10h-90v14q0 29 -20.5 37t-49.5 8h8q-30 0 -49 -9t-19 -36v-97
q0 -28 22 -36.5t49 -8.5h-13q28 0 50 9.5t22 35.5v13h90z" />
    <glyph glyph-name="d" unicode="d" horiz-adv-x="400" 
d="M210 255q-46 0 -68 -22.5t-22 -50.5q0 -17 6 -33.5t17.5 -29.5t28 -21t38.5 -8h60v165h-60zM270 345v165q0 8 6 14t14 6h50q8 0 14 -6t6 -14v-490q0 -8 -6 -14t-14 -6h-128q-44 0 -78 16t-57 41.5t-35 58t-12 66.5q0 31 10.5 60.5t33 52t57 36.5t81.5 14h58z" />
    <glyph glyph-name="e" unicode="e" horiz-adv-x="370" 
d="M40 280q0 42 26.5 66t63.5 24h110q51 0 75.5 -22.5t24.5 -54.5q0 -25 -13.5 -51.5t-39.5 -51t-64 -45.5t-87 -35q10 -15 26.5 -21.5t37.5 -6.5q31 0 64 9.5t56 20.5l20 -72q-37 -17 -77.5 -28.5t-83.5 -11.5q-28 0 -53.5 7.5t-44.5 25t-30 45.5t-11 70v132zM130 180
q10 2 26 9t33 19t33.5 30t27.5 42h-120v-100z" />
    <glyph glyph-name="f" unicode="f" horiz-adv-x="293" 
d="M130 20q0 -8 -6 -14t-14 -6h-50q-8 0 -14 6t-6 14v391q0 35 11 57.5t28.5 36t39.5 19t45 5.5q28 0 53.5 -5.5t42.5 -13.5v-80q-9 3 -33.5 9.5t-47.5 6.5q-20 0 -34.5 -7.5t-14.5 -28.5v-110h108v-90h-108v-190z" />
    <glyph glyph-name="g" unicode="g" horiz-adv-x="380" 
d="M120 0q-38 0 -64 26t-26 64v110q0 44 13 76t35 53t51 31t62 10q38 0 76 -12.5t73 -37.5v-320q0 -81 -40 -120.5t-109 -39.5q-32 0 -65.5 7t-75.5 21l30 80q22 -9 48 -16t49 -7q31 0 52 15.5t21 59.5h-130zM250 90v180q-26 10 -57 10q-29 0 -51 -19t-22 -61v-110h130z" />
    <glyph glyph-name="h" unicode="h" horiz-adv-x="390" 
d="M110 530q8 0 14 -6t6 -14v-171q26 14 56 23t58 9q24 0 45 -6.5t36.5 -24t25 -46.5t9.5 -74v-200q0 -8 -6 -14t-14 -6h-50q-8 0 -14 6t-6 14v219q0 25 -20.5 35t-42.5 10q-21 0 -42 -6.5t-35 -16.5v-241q0 -8 -6 -14t-14 -6h-50q-8 0 -14 6t-6 14v490q0 8 6 14t14 6h50z
" />
    <glyph glyph-name="i" unicode="i" horiz-adv-x="170" 
d="M110 530q8 0 14 -6t6 -14v-45q0 -8 -6 -14t-14 -6h-50q-8 0 -14 6t-6 14v45q0 8 6 14t14 6h50zM110 370q8 0 14 -6t6 -14v-330q0 -8 -6 -14t-14 -6h-50q-8 0 -14 6t-6 14v330q0 8 6 14t14 6h50z" />
    <glyph glyph-name="j" unicode="j" horiz-adv-x="183" 
d="M-50 -65q19 -4 40 -4q12 0 23.5 3t20.5 11.5t14 23.5t5 39v342q0 8 6 14t14 6h50q8 0 14 -6t6 -14v-342q0 -45 -11 -77.5t-30.5 -52.5t-46 -29.5t-58.5 -9.5t-68 9zM123 530q8 0 14 -6t6 -14v-45q0 -8 -6 -14t-14 -6h-50q-8 0 -14 6t-6 14v45q0 8 6 14t14 6h50z" />
    <glyph glyph-name="k" unicode="k" horiz-adv-x="446" 
d="M446 0h-114q-11 0 -18 6t-14 14l-170 177v-177q0 -8 -6 -14t-14 -6h-50q-8 0 -14 6t-6 14v490q0 8 6 14t14 6h50q8 0 14 -6t6 -14v-266l152 156q7 8 16 14t17 6h112l-193 -200z" />
    <glyph glyph-name="l" unicode="l" horiz-adv-x="170" 
d="M110 530q8 0 14 -6t6 -14v-490q0 -8 -6 -14t-14 -6h-50q-8 0 -14 6t-6 14v490q0 8 6 14t14 6h50z" />
    <glyph glyph-name="m" unicode="m" horiz-adv-x="610" 
d="M130 370v-56q32 22 69 39t70 17q26 0 45 -13.5t29 -45.5q34 22 73.5 40.5t74.5 18.5q34 0 56.5 -26.5t22.5 -93.5v-230q0 -8 -6 -14t-14 -6h-50q-8 0 -14 6t-6 14v213q0 26 -14.5 36t-34.5 10q-21 0 -43 -7.5t-38 -17.5v-234q0 -8 -6 -14t-14 -6h-50q-8 0 -14 6t-6 14
v213q0 26 -14.5 36t-34.5 10q-21 0 -43 -7.5t-38 -17.5v-234q0 -8 -6 -14t-14 -6h-50q-8 0 -14 6t-6 14v330q0 8 6 14t14 6h70z" />
    <glyph glyph-name="n" unicode="n" horiz-adv-x="403" 
d="M130 370v-45q28 20 61 32.5t65 12.5q21 0 40 -7t33 -23t22.5 -42.5t8.5 -64.5v-213q0 -8 -6 -14t-14 -6h-50q-8 0 -14 6t-6 14v212q0 29 -18.5 40.5t-44.5 11.5q-21 0 -42 -5.5t-35 -13.5v-245q0 -8 -6 -14t-14 -6h-50q-8 0 -14 6t-6 14v330q0 8 6 14t14 6h70z" />
    <glyph glyph-name="o" unicode="o" horiz-adv-x="408" 
d="M219 370q33 0 62 -9.5t51 -27.5t34.5 -44t12.5 -59v-90q0 -33 -12.5 -59t-34.5 -44t-51 -27.5t-62 -9.5h-30q-33 0 -62 9.5t-51 27.5t-34.5 44t-12.5 59v90q0 33 12.5 59t34.5 44t51 27.5t62 9.5h30zM187 279q-30 0 -49 -9t-19 -36v-97q0 -28 19.5 -36.5t46.5 -8.5h42
q28 0 45 9.5t17 35.5v97q0 29 -20.5 37t-49.5 8h-32z" />
    <glyph glyph-name="p" unicode="p" horiz-adv-x="400" 
d="M191 115q46 0 67.5 23t21.5 51q0 17 -6 33.5t-17 29t-28 20.5t-38 8h-61v-165h61zM130 25v-165q0 -8 -6 -14t-14 -6h-50q-8 0 -14 6t-6 14v490q0 8 6 14t14 6h128q44 0 78 -15.5t57 -41t35 -58t12 -66.5q0 -31 -10.5 -60.5t-33 -52.5t-57 -37t-81.5 -14h-58z" />
    <glyph glyph-name="q" unicode="q" horiz-adv-x="400" 
d="M270 115v165h-60q-22 0 -38.5 -8t-28 -20.5t-17.5 -29t-6 -33.5q0 -28 22 -51t68 -23h60zM212 25q-47 0 -81.5 14t-57 37t-33 52.5t-10.5 60.5q0 34 12 66.5t35 58t57 41t78 15.5h128q8 0 14 -6t6 -14v-490q0 -8 -6 -14t-14 -6h-50q-8 0 -14 6t-6 14v165h-58z" />
    <glyph glyph-name="r" unicode="r" horiz-adv-x="358" 
d="M130 370v-65q-2 -1 15 8.5t41.5 21t50.5 21.5t44 10q20 0 32 -13t12 -48v-75q0 -8 -6 -14t-14 -6h-70v45q0 17 -18 17q-11 0 -24.5 -4t-26 -9.5t-22.5 -11t-14 -8.5v-219q0 -8 -6 -14t-14 -6h-50q-8 0 -14 6t-6 14v330q0 8 6 14t14 6h70z" />
    <glyph glyph-name="s" unicode="s" horiz-adv-x="414" 
d="M331 252q-38 13 -76 21.5t-76 8.5q-23 0 -39 -4t-16 -14t19 -17t47 -15l62 -17q33 -9 61.5 -22.5t47.5 -33.5t19 -49q0 -31 -12.5 -52t-34 -34t-50 -18.5t-59.5 -5.5q-51 0 -102 11.5t-89 28.5l31 79q12 -7 31.5 -13.5t42.5 -11.5t47 -8t45 -3q29 0 45 5.5t16 13.5
q0 10 -19 17.5t-48 15.5l-62 19q-33 10 -61.5 25t-47.5 35.5t-19 50.5q0 29 13.5 49t36 32.5t53 18t63.5 5.5q42 0 75 -8t73 -22z" />
    <glyph glyph-name="t" unicode="t" horiz-adv-x="288" 
d="M110 530q8 0 14 -6t6 -14v-62h93q8 0 14 -6t6 -14v-55q0 -8 -6 -14t-14 -6h-93v-184q0 -22 6.5 -36.5t17 -23t24.5 -12t30 -3.5q6 0 12.5 1t12.5 1l20 -87q-36 -9 -67 -9q-32 0 -58.5 9.5t-46 29.5t-30.5 52.5t-11 77.5v341q0 8 6 14t14 6h50z" />
    <glyph glyph-name="u" unicode="u" horiz-adv-x="400" 
d="M270 0v44q-32 -18 -65 -31t-62 -13q-20 0 -39 7t-33 23t-22.5 42.5t-8.5 64.5v213q0 8 6 14t14 6h50q8 0 14 -6t6 -14v-212q0 -29 19 -40.5t45 -11.5q20 0 40.5 4.5t35.5 13.5v246q0 8 6 14t14 6h50q8 0 14 -6t6 -14v-330q0 -8 -6 -14t-14 -6h-70z" />
    <glyph glyph-name="v" unicode="v" horiz-adv-x="365" 
d="M133 0q-8 0 -13 6t-7 14l-95 350h74q8 0 13 -6t7 -14l71 -256l70 256q2 8 7 14t13 6h75l-96 -350q-2 -8 -7 -14t-13 -6h-99z" />
    <glyph glyph-name="w" unicode="w" horiz-adv-x="611" 
d="M352 370q8 0 13 -6t7 -14l59 -250l65 250q2 8 7 14t13 6h78l-90 -350q-2 -8 -7 -14t-13 -6h-115q-8 0 -13 6t-7 14l-43 184l-43 -184q-2 -8 -7 -14t-13 -6h-115q-8 0 -13 6t-7 14l-90 350h78q8 0 13 -6t7 -14l64 -250l59 250q2 8 7 14t13 6h93z" />
    <glyph glyph-name="x" unicode="x" horiz-adv-x="450" 
d="M284 194l146 -194h-101q-10 0 -18.5 7t-13.5 13l-72 96l-71 -97q-3 -5 -9.5 -12t-14.5 -7h-110l147 194l-132 176h101q9 0 18 -7.5t13 -12.5l58 -77l59 77q4 5 13 12.5t18 7.5h100z" />
    <glyph glyph-name="y" unicode="y" horiz-adv-x="390" 
d="M350 0q0 -81 -40 -120.5t-109 -39.5q-32 0 -65.5 7t-75.5 21l30 80q22 -9 48 -16t49 -7q30 0 51.5 16t21.5 59v31q-61 -35 -114 -35q-47 0 -76.5 34.5t-29.5 109.5v210q0 8 6 14t14 6h50q8 0 14 -6t6 -14v-225q0 -23 13 -32t33 -9q22 0 46 7.5t38 17.5v241q0 8 6 14t14 6
h50q8 0 14 -6t6 -14v-350z" />
    <glyph glyph-name="z" unicode="z" horiz-adv-x="373" 
d="M52 0q-19 0 -19 13q0 6 6 17l149 248h-138q-8 0 -14 6t-6 14v52q0 8 6 14t14 6h274q19 0 19 -13q0 -7 -6 -17l-151 -247h134q8 0 14 -6t6 -14v-53q0 -8 -6 -14t-14 -6h-268z" />
    <glyph glyph-name="braceleft" unicode="{" horiz-adv-x="337" 
d="M80 290q36 2 49 30t13 66q0 26 -4.5 55t-9.5 53q-6 28 -14 56l122 92l21 -78l-59 -45q11 -43 15.5 -76t4.5 -59q0 -40 -10 -69t-30 -55q20 -26 30 -55t10 -68q0 -26 -4.5 -59t-15.5 -76l59 -45l-21 -78l-122 92q8 28 14 56q5 24 9.5 53t4.5 55q0 38 -13 65.5t-49 29.5v60
z" />
    <glyph glyph-name="braceright" unicode="}" horiz-adv-x="337" 
d="M257 290q-36 2 -49 30t-13 66q0 26 4.5 55t9.5 53q6 28 14 56l-122 92l-21 -78l59 -45q-11 -43 -15.5 -76t-4.5 -59q0 -40 10 -69t30 -55q-20 -26 -30 -55t-10 -68q0 -26 4.5 -59t15.5 -76l-59 -45l21 -78l122 92q-8 28 -14 56q-5 24 -9.5 53t-4.5 55q0 38 13 65.5
t49 29.5v60z" />
    <glyph glyph-name="asciitilde" unicode="~" horiz-adv-x="612" 
d="M532 349q-41 -41 -77 -56t-69 -15q-27 0 -51 7t-45 15l-42 15q-21 7 -40 7q-20 0 -41 -9.5t-45 -33.5l-42 42q35 35 66.5 48t61.5 13q24 0 46.5 -7t44.5 -15t43.5 -15t43.5 -7q23 0 48.5 11.5t55.5 41.5z" />
    <glyph glyph-name="copyright" unicode="&#xa9;" horiz-adv-x="569" 
d="M290 246q21 0 35 6t14 29q0 20 -17.5 25.5t-34.5 5.5h-42v-66h45zM290 351q48 0 73.5 -16.5t25.5 -58.5q0 -35 -19 -50t-47 -17l67 -110h-52l-61 108h-32v-108h-49v252h94zM63 222q0 46 17.5 86.5t47.5 70.5t70.5 47.5t86.5 17.5t86.5 -17.5t70.5 -47.5t47.5 -70.5
t17.5 -86.5t-17.5 -86.5t-47.5 -70.5t-70.5 -47.5t-86.5 -17.5t-86.5 17.5t-70.5 47.5t-47.5 70.5t-17.5 86.5zM105 222q0 -38 14 -70.5t38.5 -57t57 -38.5t70.5 -14q37 0 70 14t57.5 38.5t38.5 57t14 70.5q0 37 -14 70t-38.5 57.5t-57.5 38.5t-70 14q-38 0 -70.5 -14
t-57 -38.5t-38.5 -57.5t-14 -70z" />
    <glyph glyph-name="guillemotleft" unicode="&#xab;" horiz-adv-x="604" 
d="M205 10l-125 188l124 182h108l-124 -184l126 -186h-109zM415 10l-125 188l124 182h108l-124 -184l126 -186h-109z" />
    <glyph glyph-name="registered" unicode="&#xae;" horiz-adv-x="549" 
d="M392 185q-8 -45 -38 -70t-72 -25q-29 0 -52.5 10.5t-40.5 28.5t-26.5 42t-9.5 52t9 53t25.5 43t40 28.5t53.5 10.5q42 0 72.5 -24t36.5 -69h-47q-5 21 -21.5 33t-40.5 12q-34 0 -52 -24t-18 -61q0 -36 19.5 -61.5t51.5 -25.5q26 0 42 12.5t19 34.5h49zM53 222
q0 46 17.5 86.5t47.5 70.5t70.5 47.5t86.5 17.5t86.5 -17.5t70.5 -47.5t47.5 -70.5t17.5 -86.5t-17.5 -86.5t-47.5 -70.5t-70.5 -47.5t-86.5 -17.5t-86.5 17.5t-70.5 47.5t-47.5 70.5t-17.5 86.5zM95 222q0 -38 14 -70.5t38.5 -57t57 -38.5t70.5 -14q37 0 70 14t57.5 38.5
t38.5 57t14 70.5q0 37 -14 70t-38.5 57.5t-57.5 38.5t-70 14q-38 0 -70.5 -14t-57 -38.5t-38.5 -57.5t-14 -70z" />
    <glyph glyph-name="degree" unicode="&#xb0;" horiz-adv-x="332" 
d="M170 574q25 0 48 -8t39.5 -23t26.5 -36.5t10 -47.5q0 -28 -10 -49.5t-26.5 -36.5t-39.5 -23t-48 -8q-51 0 -85.5 30.5t-34.5 86.5q0 53 34.5 84t85.5 31zM172 524q-23 0 -39.5 -18t-16.5 -47t16 -47.5t40 -18.5q25 0 40 18t15 44q0 32 -15.5 50.5t-39.5 18.5z" />
    <glyph glyph-name="paragraph" unicode="&#xb6;" horiz-adv-x="493" 
d="M178 0v320q-41 1 -71 14.5t-49.5 34.5t-29.5 47.5t-10 53.5t10 53.5t29.5 47t49 33t68.5 12.5h300v-56h-50v-560h-77v560h-83v-560h-87z" />
    <glyph glyph-name="periodcentered" unicode="&#xb7;" horiz-adv-x="238" 
d="M117 133q-29 0 -48 19t-19 54q0 29 19 49t48 20q31 0 51 -20t20 -49q0 -35 -20 -54t-51 -19z" />
    <glyph glyph-name="guillemotright" unicode="&#xbb;" horiz-adv-x="604" 
d="M399 10l125 188l-124 182h-108l124 -184l-126 -186h109zM189 10l125 188l-124 182h-108l124 -184l-126 -186h109z" />
    <glyph glyph-name="multiply" unicode="&#xd7;" horiz-adv-x="472" 
d="M236 309l92 92l64 -64l-92 -92l92 -92l-64 -64l-92 92l-92 -92l-64 64l92 92l-92 92l64 64z" />
    <glyph glyph-name="divide" unicode="&#xf7;" horiz-adv-x="560" 
d="M80 190v90h400v-90h-400zM249 0q-7 0 -12.5 5.5t-5.5 12.5v68q0 7 5.5 12.5t12.5 5.5h68q7 0 12.5 -5.5t5.5 -12.5v-68q0 -7 -5.5 -12.5t-12.5 -5.5h-68zM249 354q-7 0 -12.5 5.5t-5.5 12.5v68q0 7 5.5 12.5t12.5 5.5h68q7 0 12.5 -5.5t5.5 -12.5v-68q0 -7 -5.5 -12.5
t-12.5 -5.5h-68z" />
    <glyph glyph-name="uni060C" unicode="&#x60c;" horiz-adv-x="302" 
d="M222 0q-35 0 -61.5 10t-44.5 27t-27 39.5t-9 48.5q0 42 25.5 87.5t78.5 83.5l28 -41q-34 -24 -47 -49t-13 -45q0 -28 19 -46.5t51 -20.5v-94z" />
    <glyph glyph-name="uni0615" unicode="&#x615;" 
d="M-57 30h15v103h27v-72l14 14q8 8 19 8h32q8 0 14 -6.5t6 -15.5v-41q0 -8 -6 -14t-14 -6h-107v30zM-12 30h52v23h-27z" />
    <glyph glyph-name="uni061B" unicode="&#x61b;" horiz-adv-x="302" 
d="M120 0q-8 0 -14 6t-6 14v80q0 8 6 14t14 6h80q8 0 14 -6t6 -14v-80q0 -8 -6 -14t-14 -6h-80zM222 200q-35 0 -61.5 10t-44.5 27t-27 39.5t-9 48.5q0 42 25.5 87.5t78.5 83.5l28 -41q-32 -23 -46 -48t-14 -46q0 -26 18.5 -44t51.5 -20v-97z" />
    <glyph glyph-name="uni061F" unicode="&#x61f;" horiz-adv-x="490" 
d="M320 445q0 15 -22.5 20t-50.5 5q-29 0 -53 -5.5t-24 -19.5v-90q0 -20 9.5 -33.5t24 -24.5t31.5 -20.5t31.5 -21.5t24 -27.5t9.5 -37.5v-30q0 -8 -6 -14t-14 -6h-50q-8 0 -14 6t-6 14v10q0 15 -9.5 27t-24 22.5t-31.5 21.5t-31.5 24.5t-24 30t-9.5 39.5v105
q0 39 11.5 62.5t33 36t52 17t68.5 4.5t68.5 -4.5t52 -17t33 -36t11.5 -62.5v-60q0 -8 -6 -14t-14 -6h-50q-8 0 -14 6t-6 14v65zM230 0q-8 0 -14 6t-6 14v60q0 8 6 14t14 6h50q8 0 14 -6t6 -14v-60q0 -8 -6 -14t-14 -6h-50z" />
    <glyph glyph-name="hmz" unicode="&#x621;" horiz-adv-x="380" 
d="M73 0q-8 0 -14 6t-6 14v40q0 8 6 14t14 6h50q-24 36 -37 66t-13 62q0 27 8.5 45t22 28.5t31 14.5t36.5 4q33 0 67.5 -10.5t60.5 -26.5l-31 -63q-8 5 -29.5 12t-42.5 7q-13 0 -22.5 -5t-9.5 -21q0 -15 9 -32.5t20 -33.5t22 -29t14 -18h79q8 0 14 -6t6 -14v-40q0 -8 -6 -14
t-14 -6h-235z" />
    <glyph glyph-name="aalef" unicode="&#x627;" horiz-adv-x="220" 
d="M135 550q8 0 14 -6t6 -14v-510q0 -8 -6 -14t-14 -6h-50q-8 0 -14 6t-6 14v510q0 8 6 14t14 6h50z" />
    <glyph glyph-name="hah" unicode="&#x62d;" horiz-adv-x="480" 
d="M293 90q-11 24 -21.5 55.5t-25 60t-33.5 48t-47 19.5q-17 0 -33 -7t-33 -18l-30 62q27 22 58.5 36t62.5 14q45 0 72.5 -28t47.5 -69t38 -88t45 -85h46v-90h-211q-33 0 -53.5 -20t-20.5 -43q0 -21 11.5 -35t29.5 -23t40.5 -12.5t44.5 -3.5q14 0 28 1t26 4v-89
q-12 -2 -27.5 -3.5t-30.5 -1.5q-33 0 -70 6t-68.5 23t-52.5 48.5t-21 82.5q0 29 12 57t35 50t56 35.5t75 13.5h50z" />
    <glyph glyph-name="dal" unicode="&#x62f;" horiz-adv-x="410" 
d="M60 350q31 10 59 15t55 5q37 0 68 -10.5t54 -32.5t36 -56t13 -81v-170q0 -8 -6 -14t-14 -6h-285v90h215v100q0 24 -8.5 41t-22.5 27.5t-33 15t-40 4.5q-17 0 -35 -3t-34 -9z" />
    <glyph glyph-name="reh" unicode="&#x631;" horiz-adv-x="240" 
d="M85 310q0 8 6 14t14 6h50q8 0 14 -6t6 -14v-310q0 -45 -10.5 -76.5t-29.5 -52t-45 -30t-57 -9.5q-35 0 -73.5 10.5t-79.5 30.5l29 71q23 -11 52.5 -20t57.5 -9q14 0 26 4t21 13.5t14 26t5 41.5v310z" />
    <glyph glyph-name="seen" unicode="&#x633;" horiz-adv-x="920" 
d="M365 -50v360q0 8 6 14t14 6h50q8 0 14 -6t6 -14v-220h110v220q0 8 6 14t14 6h50q8 0 14 -6t6 -14v-220h110v220q0 8 6 14t14 6h50q8 0 14 -6t6 -14v-230q0 -33 -23.5 -56.5t-56.5 -23.5h-320v-60q0 -33 -23.5 -56.5t-56.5 -23.5h-130q-37 0 -70 14t-57.5 38.5t-38.5 57.5
t-14 70v120q0 8 6 14t14 6h50q8 0 14 -6t6 -14v-120q0 -37 26.5 -63.5t63.5 -26.5h120z" />
    <glyph glyph-name="sad" unicode="&#x635;" horiz-adv-x="920" 
d="M455 200l123 100q16 13 34 21.5t41 8.5h122q33 0 56.5 -23.5t23.5 -56.5v-170q0 -33 -23.5 -56.5t-56.5 -23.5h-320v-60q0 -33 -23.5 -56.5t-56.5 -23.5h-130q-37 0 -70 14t-57.5 38.5t-38.5 57.5t-14 70v120q0 8 6 14t14 6h50q8 0 14 -6t6 -14v-120q0 -37 26.5 -63.5
t63.5 -26.5h120v360q0 8 6 14t14 6h50q8 0 14 -6t6 -14v-110zM453 90h312v150h-127z" />
    <glyph glyph-name="tah" unicode="&#x637;" horiz-adv-x="700" 
d="M80 0q-13 0 -21.5 8.5t-8.5 21.5v30q0 13 8.5 21.5t21.5 8.5h65v440q0 8 6 14t14 6h50q8 0 14 -6t6 -14v-330l123 100q16 13 34 21.5t41 8.5h122q33 0 56.5 -23.5t23.5 -56.5v-170q0 -33 -23.5 -56.5t-56.5 -23.5h-475zM233 90h312v150h-127z" />
    <glyph glyph-name="ain" unicode="&#x639;" horiz-adv-x="450" 
d="M347 222q-20 8 -44 15t-49 7q-13 0 -27 -3.5t-26 -11.5t-20 -20t-8 -30q0 -15 7 -30t20.5 -27.5t32 -20.5t42.5 -8h110l-17 -93h-141q-33 0 -52.5 -20t-19.5 -43q0 -19 10 -32t26.5 -20.5t37 -10.5t40.5 -3q40 0 66 8v-100q-12 -2 -27.5 -3.5t-30.5 -1.5q-33 0 -70 6
t-68.5 23t-52.5 48.5t-21 82.5q0 41 22.5 77.5t63.5 58.5q-35 26 -51.5 58.5t-16.5 65.5t13 59t35 44t51.5 27.5t63.5 9.5q32 0 66 -8.5t69 -25.5z" />
    <glyph glyph-name="tatweel" unicode="&#x640;" horiz-adv-x="200" 
d="M-30 60q0 13 8.5 21.5t21.5 8.5h200v-90h-200q-13 0 -21.5 8.5t-8.5 21.5v30z" />
    <glyph glyph-name="kaf" unicode="&#x643;" horiz-adv-x="670" 
d="M605 80q0 -33 -23.5 -56.5t-56.5 -23.5h-380q-33 0 -56.5 23.5t-23.5 56.5v200q0 8 6 14t14 6h50q8 0 14 -6t6 -14v-190h360v440q0 8 6 14t14 6h50q8 0 14 -6t6 -14v-450zM250 288h113v17q0 19 -18 27t-33 8h-30l-31 51l123 124l34 -51l-76 -74q46 -2 67 -22t21 -58v-80
h-170v58z" />
    <glyph glyph-name="lam" unicode="&#x644;" horiz-adv-x="520" 
d="M455 -20q0 -33 -23.5 -56.5t-56.5 -23.5h-130q-37 0 -70 14t-57.5 38.5t-38.5 57.5t-14 70v118q0 8 6 14t14 6h50q8 0 14 -6t6 -14v-118q0 -38 26.5 -64t63.5 -26h120v540q0 8 6 14t14 6h50q8 0 14 -6t6 -14v-550z" />
    <glyph glyph-name="meem" unicode="&#x645;" horiz-adv-x="440" 
d="M65 190q0 36 15.5 62.5t40 43.5t56.5 25.5t65 8.5q36 0 70 -10t63 -30v-290h-220v-120h-90v310zM285 90v139q-33 11 -55 11q-30 0 -52.5 -14t-22.5 -41v-95h130z" />
    <glyph glyph-name="heh2" unicode="&#x647;" horiz-adv-x="660" 
d="M40 60q0 13 8.5 21.5t21.5 8.5h72q-9 17 -13 36.5t-4 38.5q0 30 10 59.5t30.5 53t52 38t74.5 14.5h33l-15 60q31 10 59 15.5t55 5.5q37 0 68 -10.5t54 -33t36 -56.5t13 -81v-210q0 -8 -6 -14t-14 -6h-505q-13 0 -21.5 8.5t-8.5 21.5v30zM505 230q0 28 -9 45.5t-25 27
t-38 12.5t-47 3q14 -12 23 -29.5t9 -38.5v-160h87v140zM325 90v150h-36q-30 0 -52 -21.5t-22 -53.5t22 -53.5t52 -21.5h36z" />
    <glyph glyph-name="waw" unicode="&#x648;" horiz-adv-x="440" 
d="M285 90v140q-26 10 -57 10q-29 0 -51 -19t-22 -61v-70h130zM65 160q0 44 13 76t35 53t51 31t62 10q38 0 76 -12.5t73 -37.5v-280q0 -45 -10.5 -77t-29.5 -52.5t-45 -30t-57 -9.5q-35 0 -71 11t-77 31l29 70q24 -11 50.5 -19t51.5 -8q30 0 49.5 17.5t19.5 66.5h-130
q-38 0 -64 26t-26 64v70z" />
    <glyph glyph-name="maksura" unicode="&#x649;" horiz-adv-x="670" 
d="M589 284q-35 11 -69 11q-21 0 -40 -4.5t-33.5 -14.5t-23 -27t-8.5 -42v-42h110q33 0 56.5 -23.5t23.5 -56.5v-35q0 -37 -14 -70t-38.5 -57.5t-57.5 -38.5t-70 -14h-180q-37 0 -70 14t-57.5 38.5t-38.5 57.5t-14 70v105q0 8 6 14t14 6h50q8 0 14 -6t6 -14v-113
q0 -17 8 -32t20.5 -26t28.5 -17.5t33 -6.5h180q19 0 35.5 7.5t28.5 20t19 29t7 33.5v25h-130q-25 0 -42.5 17.5t-17.5 42.5v73q0 47 13 81t36 56t54.5 32.5t68.5 10.5q27 0 55 -5t58 -15z" />
    <glyph glyph-name="uni064B" unicode="&#x64b;" 
d="M-89 46l177 28v-28l-177 -29v29zM-89 103l177 29v-29l-177 -28v28z" />
    <glyph glyph-name="uni064C" unicode="&#x64c;" 
d="M-11 37q36 20 54 46q-2 0 -4.5 -0.5t-4.5 -0.5q-23 0 -40.5 14t-17.5 42q0 27 18.5 40.5t36.5 13.5q25 0 40.5 -17t15.5 -40q0 -11 -4.5 -26t-14.5 -32t-26.5 -34t-40.5 -30zM-44 47q-22 20 -31.5 42.5t-9.5 46.5q0 40 23 72l24 -16q-18 -27 -18 -54q0 -20 9 -39t29 -34z
M60 115q3 10 3 19q0 13 -9 22t-22 9q-8 0 -18 -6.5t-10 -20.5q0 -15 10.5 -21t23.5 -6t22 4z" />
    <glyph glyph-name="uni064D" unicode="&#x64d;" 
d="M-88 -86l177 28v-28l-177 -29v29zM-88 -29l177 29v-29l-177 -28v28z" />
    <glyph glyph-name="uni064E" unicode="&#x64e;" 
d="M-89 32l177 28v-28l-177 -28v28z" />
    <glyph glyph-name="uni064F" unicode="&#x64f;" 
d="M-46 24q21 11 35 23.5t23 25.5q-4 -1 -11 -1q-24 0 -41.5 14t-17.5 43t19 43.5t39 14.5q26 0 42.5 -18t16.5 -43q0 -11 -4.5 -26.5t-15.5 -33.5t-28.5 -35.5t-42.5 -31.5zM-29 129q0 -15 11 -21.5t25 -6.5q17 0 21 7t4 17q0 14 -8.5 24t-22.5 10q-8 0 -19 -7t-11 -23z
" />
    <glyph glyph-name="uni0650" unicode="&#x650;" 
d="M-74 -24l147 24v-28l-147 -24v28z" />
    <glyph glyph-name="uni0651" unicode="&#x651;" 
d="M15 104q-1 -5 -1 -8v-8q0 -21 7.5 -31.5t13.5 -10.5t10.5 8t4.5 29q0 5 -0.5 11.5t-1.5 13.5l29 5q1 -5 1.5 -11.5t0.5 -14.5q0 -12 -2 -25t-7 -23.5t-13.5 -17t-21.5 -6.5q-8 0 -17 5t-14 13q-6 -13 -16 -20t-20 -7q-17 0 -31.5 13.5t-14.5 43.5q0 11 3 25l30 5
q-3 -15 -3 -26q0 -32 16 -32q7 0 14 10.5t7 30.5v11q0 5 -2 12z" />
    <glyph glyph-name="uni0652" unicode="&#x652;" 
d="M-64 64q0 26 19 44.5t45 18.5t44.5 -18.5t18.5 -44.5t-18.5 -45t-44.5 -19t-45 19t-19 45zM-34 64q0 -14 10 -24t24 -10t24 10t10 24t-10 24t-24 10t-24 -10t-10 -24z" />
    <glyph glyph-name="uni0653" unicode="&#x653;" 
d="M74 24q-12 -9 -22.5 -12.5t-19.5 -3.5q-17 0 -31 6.5t-31 6.5q-10 0 -21 -4.5t-25 -16.5v41q14 12 25 16.5t21 4.5q17 0 31 -6.5t31 -6.5q9 0 19.5 3.5t22.5 12.5v-41z" />
    <glyph glyph-name="uni0654" unicode="&#x654;" 
d="M42 76q-5 4 -12.5 6.5t-14.5 2.5q-8 0 -13.5 -4t-5.5 -14q0 -8 7 -15t21 -7h38v-45h-124v45h24q-14 12 -14 31q0 23 18 36t42 13q14 0 28.5 -5.5t24.5 -13.5z" />
    <glyph glyph-name="uni0655" unicode="&#x655;" 
d="M42 -89q-5 4 -12.5 6.5t-14.5 2.5q-8 0 -13.5 -4t-5.5 -14q0 -8 7 -15t21 -7h38v-45h-124v45h24q-14 12 -14 31q0 23 18 36t42 13q14 0 28.5 -5.5t24.5 -13.5z" />
    <glyph glyph-name="uni0656" unicode="&#x656;" 
d="M-4 -39q11 -29 16.5 -67t5.5 -72v-16q0 -7 -1 -14l-23 -9q0 36 -7.5 71t-21.5 65z" />
    <glyph glyph-name="uni0657" unicode="&#x657;" 
d="M46 163q-21 -12 -35 -24.5t-23 -24.5q2 0 4.5 0.5t4.5 0.5q24 0 42.5 -14.5t18.5 -42.5q0 -29 -19 -43.5t-39 -14.5q-26 0 -42.5 18t-16.5 43q0 10 4.5 26t15.5 34t28 35.5t43 31.5zM29 58q0 15 -11 21.5t-25 6.5q-19 0 -22 -8.5t-3 -16.5q0 -13 9 -23t22 -10q8 0 19 7
t11 23z" />
    <glyph glyph-name="uni0658" unicode="&#x658;" 
d="M-41 93q2 -31 15.5 -46.5t28.5 -15.5q14 0 24.5 13.5t10.5 40.5v8q0 4 -1 9l33 8q1 -5 1 -10v-11q0 -43 -22.5 -66t-49.5 -23q-25 0 -46.5 21.5t-23.5 68.5z" />
    <glyph glyph-name="uni0660" unicode="&#x660;" horiz-adv-x="270" 
d="M170 275q8 0 14 -6t6 -14v-70q0 -8 -6 -14t-14 -6h-70q-8 0 -14 6t-6 14v70q0 8 6 14t14 6h70z" />
    <glyph glyph-name="uni0661" unicode="&#x661;" horiz-adv-x="250" 
d="M150 530q8 0 14 -6t6 -14v-490q0 -8 -6 -14t-14 -6h-50q-8 0 -14 6t-6 14v490q0 8 6 14t14 6h50z" />
    <glyph glyph-name="uni0662" unicode="&#x662;" horiz-adv-x="416" 
d="M181 0q-8 0 -14 6t-8 14l-93 324q-4 12 -5 23t-1 22q0 28 11 53.5t31 45t48.5 31t64.5 11.5t72.5 -10t68.5 -30l-7 -93q-38 20 -74 31t-65 11q-27 0 -44 -12.5t-17 -39.5q0 -7 2 -16l4 -18l104 -353h-78z" />
    <glyph glyph-name="uni0663" unicode="&#x663;" horiz-adv-x="670" 
d="M610 345q0 -66 -31 -93t-76 -27q-32 0 -65.5 11t-65.5 29q-12 -24 -35.5 -34.5t-51.5 -10.5q-29 0 -59.5 9.5t-55.5 26.5v-236q0 -8 -6 -14t-14 -6h-50q-8 0 -14 6t-6 14v490q0 8 6 14t14 6h50q8 0 14 -6t6 -14v-156q0 -11 8 -19.5t20.5 -14t27.5 -8.5t29 -3q18 0 31.5 5
t13.5 16v180q0 8 6 14t14 6h50q8 0 14 -6t6 -14v-166q1 -9 9.5 -15.5t20 -11t25.5 -6.5t28 -2q19 0 33 5t14 16v180q0 8 6 14t14 6h50q8 0 14 -6t6 -14v-165z" />
    <glyph glyph-name="uni0664" unicode="&#x664;" horiz-adv-x="386" 
d="M221 0q-40 0 -70 11.5t-50.5 31t-30.5 44t-10 51.5q0 34 16.5 67t49.5 57q-34 25 -49.5 55.5t-15.5 62.5q0 29 12 56t34.5 48t55 33.5t72.5 12.5q20 0 38 -1.5t33 -3.5l-5 -82q-9 1 -22 3t-28 2q-18 0 -36 -3t-32.5 -11t-23 -21t-8.5 -32q0 -14 8 -28.5t22.5 -26.5
t35.5 -19.5t47 -7.5q5 0 10 0.5t10 0.5v-71q-5 1 -10 1h-9q-25 0 -46 -8t-36 -20t-23.5 -27t-8.5 -30q0 -16 5.5 -26t15 -15.5t21.5 -7.5t26 -2q27 0 53.5 6t37.5 8l16 -91q-19 -5 -48 -11t-57 -6z" />
    <glyph glyph-name="uni0665" unicode="&#x665;" horiz-adv-x="510" 
d="M430 310q4 -53 6 -84q2 -30 3 -46.5t1 -21.5v-9q0 -38 -16 -63t-42 -39.5t-59.5 -20.5t-68.5 -6t-68.5 6t-59 20.5t-41 39.5t-15.5 63v7q0 4 1 20l3 47q2 31 6 87q6 91 52.5 135t121.5 44t122.5 -44.5t53.5 -134.5zM340 304q-5 48 -27.5 71.5t-58.5 23.5q-37 0 -59.5 -23
t-22.5 -72l-1 -11q-1 -12 -2 -29.5t-3 -38t-3 -38.5t-2 -30.5t-1 -13.5q0 -9 8 -15t21.5 -10t31 -6t35.5 -2q36 0 65 8t29 25q0 3 -1 24t-2.5 48t-3.5 52.5t-3 36.5z" />
    <glyph glyph-name="uni0666" unicode="&#x666;" horiz-adv-x="420" 
d="M250 440h-200v90h270q8 0 14 -6t6 -14v-490q0 -8 -6 -14t-14 -6h-50q-8 0 -14 6t-6 14v420z" />
    <glyph glyph-name="uni0667" unicode="&#x667;" horiz-adv-x="498" 
d="M161 0q-8 0 -13 6t-7 14l-91 510h76q8 0 13 -6t7 -14l74 -420h58l75 420q2 8 7 14t13 6h75l-91 -510q-2 -8 -7 -14t-13 -6h-176z" />
    <glyph glyph-name="uni0668" unicode="&#x668;" horiz-adv-x="498" 
d="M337 530q8 0 13 -6t7 -14l91 -510h-75q-8 0 -13 6t-7 14l-75 420h-58l-74 -420q-2 -8 -7 -14t-13 -6h-76l91 510q2 8 7 14t13 6h176z" />
    <glyph glyph-name="uni0669" unicode="&#x669;" horiz-adv-x="480" 
d="M150 299q0 -13 9 -21t21 -8h130v170h-130q-12 0 -21 -7.5t-9 -20.5v-113zM400 20q0 -8 -6 -14t-14 -6h-50q-8 0 -14 6t-6 14v160h-125q-27 0 -50 9.5t-39.5 26.5t-26 39.5t-9.5 49.5v100q0 27 9.5 50t26 39.5t39.5 26t50 9.5h195q8 0 14 -6t6 -14v-490z" />
    <glyph glyph-name="uni066A" unicode="&#x66a;" horiz-adv-x="502" 
d="M92 0l219 550h96l-219 -550h-96zM78 397q-7 0 -12.5 5.5t-5.5 12.5v68q0 7 5.5 12.5t12.5 5.5h68q7 0 12.5 -5.5t5.5 -12.5v-68q0 -7 -5.5 -12.5t-12.5 -5.5h-68zM357 50q-7 0 -12.5 5.5t-5.5 12.5v68q0 7 5.5 12.5t12.5 5.5h68q7 0 12.5 -5.5t5.5 -12.5v-68
q0 -7 -5.5 -12.5t-12.5 -5.5h-68z" />
    <glyph glyph-name="uni066B" unicode="&#x66b;" horiz-adv-x="300" 
d="M80 110q69 0 104.5 -36.5t35.5 -88.5q0 -42 -25.5 -87.5t-78.5 -83.5l-28 41q24 18 41.5 44t17.5 50q0 19 -15 33.5t-52 17.5v110z" />
    <glyph glyph-name="uni066C" unicode="&#x66c;" horiz-adv-x="302" 
d="M222 0q-35 0 -61.5 10t-44.5 27t-27 39.5t-9 48.5q0 42 25.5 87.5t78.5 83.5l28 -41q-32 -23 -46 -48t-14 -46q0 -26 18.5 -44t51.5 -20v-97z" />
    <glyph glyph-name="uni066D" unicode="&#x66d;" horiz-adv-x="509" 
d="M443 284l-108 -84l36 -131l-5 -3l-113 75l-112 -75l-6 3l38 131l-107 84l2 7l136 6l47 128h6l48 -128l136 -6z" />
    <glyph glyph-name="behc" unicode="&#x66e;" horiz-adv-x="770" 
d="M705 80q0 -33 -23.5 -56.5t-56.5 -23.5h-480q-33 0 -56.5 23.5t-23.5 56.5v230q0 8 6 14t14 6h50q8 0 14 -6t6 -14v-220h460v220q0 8 6 14t14 6h50q8 0 14 -6t6 -14v-230z" />
    <glyph glyph-name="qafc" unicode="&#x66f;" horiz-adv-x="640" 
d="M395 -50q38 0 64 26.5t26 63.5h-145q-31 0 -53 22t-22 53v110q0 37 14.5 64.5t38 45.5t54.5 26.5t64 8.5q36 0 73 -9.5t66 -27.5v-293q0 -37 -14 -70t-38.5 -57.5t-57.5 -38.5t-70 -14h-150q-37 0 -70 14t-57.5 38.5t-38.5 57.5t-14 70v135q0 8 6 14t14 6h50q8 0 14 -6
t6 -14v-135q0 -37 26.5 -63.5t63.5 -26.5h150zM485 130v139q-33 11 -55 11q-30 0 -52.5 -14t-22.5 -41v-95h130z" />
    <glyph glyph-name="uni0670" unicode="&#x670;" 
d="M0 173q11 -29 16.5 -67t5.5 -72v-16q0 -7 -1 -14l-23 -9q0 36 -7.5 71t-21.5 65z" />
    <glyph glyph-name="uni0674" unicode="&#x674;" horiz-adv-x="214" 
d="M149 635q-5 4 -12.5 6.5t-14.5 2.5q-8 0 -13.5 -4t-5.5 -14q0 -8 7 -15t21 -7h38v-45h-124v45h24q-14 12 -14 31q0 23 18 36t42 13q14 0 28.5 -5.5t24.5 -13.5z" />
    <glyph glyph-name="uni069C" unicode="&#x69c;" horiz-adv-x="920" 
d="M490 425q0 19 16 32t39 13t39 -13t16 -32t-16 -32t-39 -13t-39 13t-16 32zM620 425q0 19 16 32t39 13t39 -13t16 -32t-16 -32t-39 -13t-39 13t-16 32zM555 525q0 19 16 32t39 13t39 -13t16 -32t-16 -32t-39 -13t-39 13t-16 32zM538 -95q0 19 16 32t39 13t39 -13t16 -32
t-16 -32t-39 -13t-39 13t-16 32zM668 -95q0 19 16 32t39 13t39 -13t16 -32t-16 -32t-39 -13t-39 13t-16 32zM603 -195q0 19 16 32t39 13t39 -13t16 -32t-16 -32t-39 -13t-39 13t-16 32zM365 -50v360q0 8 6 14t14 6h50q8 0 14 -6t6 -14v-220h110v220q0 8 6 14t14 6h50
q8 0 14 -6t6 -14v-220h110v220q0 8 6 14t14 6h50q8 0 14 -6t6 -14v-230q0 -33 -23.5 -56.5t-56.5 -23.5h-320v-60q0 -33 -23.5 -56.5t-56.5 -23.5h-130q-37 0 -70 14t-57.5 38.5t-38.5 57.5t-14 70v120q0 8 6 14t14 6h50q8 0 14 -6t6 -14v-120q0 -37 26.5 -63.5t63.5 -26.5
h120z" />
    <glyph glyph-name="fehc" unicode="&#x6a1;" horiz-adv-x="850" 
d="M155 90h327q-9 16 -13 34.5t-4 38.5q0 29 9.5 59t30 54t52.5 39t76 15h72q33 0 56.5 -23.5t23.5 -56.5v-230q0 -8 -6 -14t-14 -6h-620q-33 0 -56.5 23.5t-23.5 56.5v230q0 8 6 14t14 6h50q8 0 14 -6t6 -14v-220zM695 90v150h-68q-30 0 -51 -21.5t-21 -53.5
q0 -29 20.5 -52t49.5 -23h70z" />
    <glyph glyph-name="uni06A2" unicode="&#x6a2;" horiz-adv-x="850" 
d="M575 -105q0 19 16 32t39 13t39 -13t16 -32t-16 -32t-39 -13t-39 13t-16 32zM155 90h327q-9 16 -13 34.5t-4 38.5q0 29 9.5 59t30 54t52.5 39t76 15h72q33 0 56.5 -23.5t23.5 -56.5v-230q0 -8 -6 -14t-14 -6h-620q-33 0 -56.5 23.5t-23.5 56.5v230q0 8 6 14t14 6h50
q8 0 14 -6t6 -14v-220zM695 90v150h-68q-30 0 -51 -21.5t-21 -53.5q0 -29 20.5 -52t49.5 -23h70z" />
    <glyph glyph-name="uni06A5" unicode="&#x6a5;" horiz-adv-x="850" 
d="M510 -95q0 19 16 32t39 13t39 -13t16 -32t-16 -32t-39 -13t-39 13t-16 32zM640 -95q0 19 16 32t39 13t39 -13t16 -32t-16 -32t-39 -13t-39 13t-16 32zM575 -195q0 19 16 32t39 13t39 -13t16 -32t-16 -32t-39 -13t-39 13t-16 32zM155 90h327q-9 16 -13 34.5t-4 38.5
q0 29 9.5 59t30 54t52.5 39t76 15h72q33 0 56.5 -23.5t23.5 -56.5v-230q0 -8 -6 -14t-14 -6h-620q-33 0 -56.5 23.5t-23.5 56.5v230q0 8 6 14t14 6h50q8 0 14 -6t6 -14v-220zM695 90v150h-68q-30 0 -51 -21.5t-21 -53.5q0 -29 20.5 -52t49.5 -23h70z" />
    <glyph glyph-name="uni06A7" unicode="&#x6a7;" horiz-adv-x="640" 
d="M365 475q0 19 16 32t39 13t39 -13t16 -32t-16 -32t-39 -13t-39 13t-16 32zM395 -50q38 0 64 26.5t26 63.5h-145q-31 0 -53 22t-22 53v110q0 37 14.5 64.5t38 45.5t54.5 26.5t64 8.5q36 0 73 -9.5t66 -27.5v-293q0 -37 -14 -70t-38.5 -57.5t-57.5 -38.5t-70 -14h-150
q-37 0 -70 14t-57.5 38.5t-38.5 57.5t-14 70v135q0 8 6 14t14 6h50q8 0 14 -6t6 -14v-135q0 -37 26.5 -63.5t63.5 -26.5h150zM485 130v139q-33 11 -55 11q-30 0 -52.5 -14t-22.5 -41v-95h130z" />
    <glyph glyph-name="uni06A8" unicode="&#x6a8;" horiz-adv-x="640" 
d="M300 475q0 19 16 32t39 13t39 -13t16 -32t-16 -32t-39 -13t-39 13t-16 32zM430 475q0 19 16 32t39 13t39 -13t16 -32t-16 -32t-39 -13t-39 13t-16 32zM365 575q0 19 16 32t39 13t39 -13t16 -32t-16 -32t-39 -13t-39 13t-16 32zM395 -50q38 0 64 26.5t26 63.5h-145
q-31 0 -53 22t-22 53v110q0 37 14.5 64.5t38 45.5t54.5 26.5t64 8.5q36 0 73 -9.5t66 -27.5v-293q0 -37 -14 -70t-38.5 -57.5t-57.5 -38.5t-70 -14h-150q-37 0 -70 14t-57.5 38.5t-38.5 57.5t-14 70v135q0 8 6 14t14 6h50q8 0 14 -6t6 -14v-135q0 -37 26.5 -63.5t63.5 -26.5
h150zM485 130v139q-33 11 -55 11q-30 0 -52.5 -14t-22.5 -41v-95h130z" />
    <glyph glyph-name="noonc" unicode="&#x6ba;" horiz-adv-x="520" 
d="M455 -20q0 -33 -23.5 -56.5t-56.5 -23.5h-130q-37 0 -70 14t-57.5 38.5t-38.5 57.5t-14 70v130q0 8 6 14t14 6h50q8 0 14 -6t6 -14v-130q0 -37 26.5 -63.5t63.5 -26.5h120v320q0 8 6 14t14 6h50q8 0 14 -6t6 -14v-330z" />
    <glyph glyph-name="uni06C2" unicode="&#x6c2;" horiz-adv-x="440" 
d="M65 0v190q0 36 15.5 62.5t40 43.5t56.5 25.5t65 8.5q36 0 70 -10t63 -30v-290h-310zM285 90v139q-33 11 -55 11q-30 0 -52.5 -14t-22.5 -41v-95h130zM262 476q-5 4 -12.5 6.5t-14.5 2.5q-8 0 -13.5 -4t-5.5 -14q0 -8 7 -15t21 -7h38v-45h-124v45h24q-14 12 -14 31
q0 23 18 36t42 13q14 0 28.5 -5.5t24.5 -13.5z" />
    <glyph glyph-name="uni06C3" unicode="&#x6c3;" horiz-adv-x="440" 
d="M100 445q0 19 16 32t39 13t39 -13t16 -32t-16 -32t-39 -13t-39 13t-16 32zM230 445q0 19 16 32t39 13t39 -13t16 -32t-16 -32t-39 -13t-39 13t-16 32zM65 0v190q0 36 15.5 62.5t40 43.5t56.5 25.5t65 8.5q36 0 70 -10t63 -30v-290h-310zM285 90v139q-33 11 -55 11
q-30 0 -52.5 -14t-22.5 -41v-95h130z" />
    <glyph glyph-name="uni06D4" unicode="&#x6d4;" horiz-adv-x="556" 
d="M80 90h350v-90h-350v90z" />
    <glyph glyph-name="uni06D5" unicode="&#x6d5;" horiz-adv-x="440" 
d="M65 0v190q0 36 15.5 62.5t40 43.5t56.5 25.5t65 8.5q36 0 70 -10t63 -30v-290h-310zM285 90v139q-33 11 -55 11q-30 0 -52.5 -14t-22.5 -41v-95h130z" />
    <glyph glyph-name="uni06F0" unicode="&#x6f0;" horiz-adv-x="270" 
d="M170 275q8 0 14 -6t6 -14v-70q0 -8 -6 -14t-14 -6h-70q-8 0 -14 6t-6 14v70q0 8 6 14t14 6h70z" />
    <glyph glyph-name="uni06F1" unicode="&#x6f1;" horiz-adv-x="250" 
d="M150 530q8 0 14 -6t6 -14v-490q0 -8 -6 -14t-14 -6h-50q-8 0 -14 6t-6 14v490q0 8 6 14t14 6h50z" />
    <glyph glyph-name="uni06F2" unicode="&#x6f2;" horiz-adv-x="416" 
d="M181 0q-8 0 -14 6t-8 14l-93 324q-4 12 -5 23t-1 22q0 28 11 53.5t31 45t48.5 31t64.5 11.5t72.5 -10t68.5 -30l-7 -93q-38 20 -74 31t-65 11q-27 0 -44 -12.5t-17 -39.5q0 -7 2 -16l4 -18l104 -353h-78z" />
    <glyph glyph-name="uni06F3" unicode="&#x6f3;" horiz-adv-x="670" 
d="M610 345q0 -66 -31 -93t-76 -27q-32 0 -65.5 11t-65.5 29q-12 -24 -35.5 -34.5t-51.5 -10.5q-29 0 -59.5 9.5t-55.5 26.5v-236q0 -8 -6 -14t-14 -6h-50q-8 0 -14 6t-6 14v490q0 8 6 14t14 6h50q8 0 14 -6t6 -14v-156q0 -11 8 -19.5t20.5 -14t27.5 -8.5t29 -3q18 0 31.5 5
t13.5 16v180q0 8 6 14t14 6h50q8 0 14 -6t6 -14v-166q1 -9 9.5 -15.5t20 -11t25.5 -6.5t28 -2q19 0 33 5t14 16v180q0 8 6 14t14 6h50q8 0 14 -6t6 -14v-165z" />
    <glyph glyph-name="uni06F4" unicode="&#x6f4;" horiz-adv-x="608" 
d="M513 427q-15 6 -32 9.5t-34 3.5q-20 0 -34.5 -6.5t-24 -17t-14 -23.5t-4.5 -25q0 -13 4.5 -26t13 -23.5t21.5 -17t31 -6.5h100v-90h-370v-185q0 -8 -6 -14t-14 -6h-50q-8 0 -14 6t-6 14v490q0 8 6 14t14 6h50q8 0 14 -6t6 -14v-215h126q-8 17 -12 35t-4 38q0 37 12 67
t33.5 51.5t50.5 33t63 11.5q55 0 109 -29z" />
    <glyph glyph-name="uni06F5" unicode="&#x6f5;" horiz-adv-x="600" 
d="M347 520q63 0 101 -37.5t49 -99.5q16 -86 24.5 -136.5t12.5 -77.5t5 -36t1 -12q0 -56 -30.5 -88t-87.5 -32q-32 0 -59.5 11.5t-62.5 37.5q-35 -26 -62.5 -37.5t-59.5 -11.5q-57 0 -87.5 32t-30.5 88q0 3 1 12t5 36t12.5 77.5t24.5 136.5q11 62 49 99.5t101 37.5h94z
M251 430q-23 0 -39 -19t-20 -40l-25 -140q-9 -51 -13 -76t-4.5 -31t-0.5 -9q0 -23 26 -23q12 0 36.5 10t73.5 45q5 4 8.5 5t6.5 1q4 0 8.5 -1t9.5 -5q48 -35 72.5 -45t35.5 -10q10 0 18.5 6.5t8.5 17.5q0 3 -1.5 13.5t-6.5 37.5l-13 74l-22 124q-5 26 -21 45.5t-39 19.5h-99
z" />
    <glyph glyph-name="uni06F6" unicode="&#x6f6;" horiz-adv-x="453" 
d="M354 419q-20 8 -44.5 15t-49.5 7q-14 0 -28.5 -3.5t-26.5 -11.5t-20 -20.5t-8 -30.5q0 -14 7 -28t20 -25.5t32.5 -19t45.5 -7.5h111v-90h-145q-41 0 -64.5 -20t-23.5 -46v-119q0 -8 -6 -14t-14 -6h-50q-8 0 -14 6t-6 14v119q0 42 23.5 79.5t65.5 59.5q-37 23 -54.5 52.5
t-17.5 61.5q0 33 12.5 58t34 42t51 26t63.5 9q67 0 138 -34z" />
    <glyph glyph-name="uni06F7" unicode="&#x6f7;" horiz-adv-x="498" 
d="M161 0q-8 0 -13 6t-7 14l-91 510h76q8 0 13 -6t7 -14l74 -420h58l75 420q2 8 7 14t13 6h75l-91 -510q-2 -8 -7 -14t-13 -6h-176z" />
    <glyph glyph-name="uni06F8" unicode="&#x6f8;" horiz-adv-x="498" 
d="M337 530q8 0 13 -6t7 -14l91 -510h-75q-8 0 -13 6t-7 14l-75 420h-58l-74 -420q-2 -8 -7 -14t-13 -6h-76l91 510q2 8 7 14t13 6h176z" />
    <glyph glyph-name="uni06F9" unicode="&#x6f9;" horiz-adv-x="480" 
d="M150 299q0 -13 9 -21t21 -8h130v170h-130q-12 0 -21 -7.5t-9 -20.5v-113zM400 20q0 -8 -6 -14t-14 -6h-50q-8 0 -14 6t-6 14v160h-125q-27 0 -50 9.5t-39.5 26.5t-26 39.5t-9.5 49.5v100q0 27 9.5 50t26 39.5t39.5 26t50 9.5h195q8 0 14 -6t6 -14v-490z" />
    <glyph glyph-name="uni0763" unicode="&#x763;" horiz-adv-x="920" 
d="M180 553q0 19 16 32t39 13t39 -13t16 -32t-16 -32t-39 -13t-39 13t-16 32zM310 553q0 19 16 32t39 13t39 -13t16 -32t-16 -32t-39 -13t-39 13t-16 32zM245 453q0 19 16 32t39 13t39 -13t16 -32t-16 -32t-39 -13t-39 13t-16 32zM145 0q-33 0 -56.5 23.5t-23.5 56.5v195
q0 8 6 14t14 6h50q8 0 14 -6t6 -14v-185h610v115h-425v90l256 257l64 -64l-191 -193h306q33 0 56.5 -23.5t23.5 -56.5v-135q0 -33 -23.5 -56.5t-56.5 -23.5h-630z" />
    <glyph glyph-name="uni200C" unicode="&#x200c;" horiz-adv-x="36" 
d="M36 -508h-36v1292h36v-1292z" />
    <glyph glyph-name="uni200D" unicode="&#x200d;" horiz-adv-x="32" 
d="M116 608l-22 -23l-61 60v-1153h-35v1153l-61 -60l-22 23l77 77q-5 4 -16 15l-23 23l-23 23q-11 11 -15 16l22 25l79 -79l78 79l22 -25l-78 -77z" />
    <glyph glyph-name="uni200E" unicode="&#x200e;" horiz-adv-x="35" 
d="M222 683l-99 -101l-24 24l59 62h-122v-1176h-36v1211h156l-57 57l24 24z" />
    <glyph glyph-name="uni200F" unicode="&#x200f;" horiz-adv-x="33" 
d="M34 -508h-36v1176h-122l59 -62l-23 -24l-99 101l99 101l23 -24l-57 -57h156v-1211z" />
    <glyph glyph-name="endash" unicode="&#x2013;" horiz-adv-x="560" 
d="M80 190v90h400v-90h-400z" />
    <glyph glyph-name="emdash" unicode="&#x2014;" horiz-adv-x="830" 
d="M80 190v90h670v-90h-670z" />
    <glyph glyph-name="quoteleft" unicode="&#x2018;" horiz-adv-x="326" 
d="M166 470h-66l60 170h66z" />
    <glyph glyph-name="quoteright" unicode="&#x2019;" horiz-adv-x="326" 
d="M160 470h66l-60 170h-66z" />
    <glyph glyph-name="quotedblleft" unicode="&#x201c;" horiz-adv-x="440" 
d="M166 470h-66l60 170h66zM280 470h-66l60 170h66z" />
    <glyph glyph-name="quotedblright" unicode="&#x201d;" horiz-adv-x="440" 
d="M160 470h66l-60 170h-66zM274 470h66l-60 170h-66z" />
    <glyph glyph-name="abdofonts.com" unicode="&#x2020;" horiz-adv-x="592" 
d="M108 365h-21v-47h-37v146h95v-146h-37v47zM490 -40h-37v87h-21v-87h-37v87h-21v-87h-37v106h153v-106zM165 464h37v-40h58v-106h-95v146zM375 318h-95v106h58v40h37v-146zM490 318h-95v106h95v-106zM235 117h-95v106h95v-106zM317 -40h-95v106h95v-106zM350 117h-37v87
h-21v-87h-37v106h95v-106zM107 66h95v-34h-37v15h-21v-68h21v15h37v-34h-95v106zM484 204v-24h58v-63h-95v19h58v25h-58v62h95v-19h-58zM87 164v-47h-37v146h75v-19h-38v-61h38v-19h-38zM407 204v-87h-37v146h37v-40h25v-19h-25zM317 337h21v68h-21v-68zM177 136h21v68h-21
v-68zM202 337h21v68h-21v-68zM259 -21h21v68h-21v-68zM432 337h21v68h-21v-68zM87 384h21v61h-21v-61zM87 -40h-37v29h37v-29z" />
    <glyph glyph-name="bullet" unicode="&#x2022;" horiz-adv-x="344" 
d="M172 318q25 0 47.5 -9.5t39 -26t26 -39.5t9.5 -50t-9.5 -50t-26 -40t-39 -26.5t-47.5 -9.5t-47 9.5t-38.5 26.5t-26.5 40t-10 50t10 50t26.5 39.5t38.5 26t47 9.5z" />
    <glyph glyph-name="uni2026" unicode="&#x2026;" horiz-adv-x="600" 
d="M70 0q-8 0 -14 6t-6 14v75q0 8 6 14t14 6h75q8 0 14 -6t6 -14v-75q0 -8 -6 -14t-14 -6h-75zM250 0q-8 0 -14 6t-6 14v75q0 8 6 14t14 6h75q8 0 14 -6t6 -14v-75q0 -8 -6 -14t-14 -6h-75zM430 0q-8 0 -14 6t-6 14v75q0 8 6 14t14 6h75q8 0 14 -6t6 -14v-75q0 -8 -6 -14
t-14 -6h-75z" />
    <glyph glyph-name="guilsinglleft" unicode="&#x2039;" horiz-adv-x="394" 
d="M205 10l-125 188l124 182h108l-124 -184l126 -186h-109z" />
    <glyph glyph-name="guilsinglright" unicode="&#x203a;" horiz-adv-x="394" 
d="M189 10l125 188l-124 182h-108l124 -184l-126 -186h109z" />
    <glyph glyph-name="trademark" unicode="&#x2122;" horiz-adv-x="625" 
d="M185 380v-199h-62v199h-70v48h202v-48h-70zM515 181v175l-65 -175h-41l-65 175v-175h-57v247h81l62 -162l62 162h81v-247h-58z" />
    <glyph glyph-name="minus" unicode="&#x2212;" horiz-adv-x="560" 
d="M80 190v100h400v-100h-400z" />
    <glyph glyph-name="uni25CC" unicode="&#x25cc;" horiz-adv-x="715" 
d="M105 168q-10 20 -15 41t-5 45l32 3q1 -19 5 -38t15 -41zM177 68q-19 16 -32.5 33t-25.5 35l29 17q18 -33 50 -61zM286 9q-23 8 -43.5 17t-40.5 24l18 24q18 -11 35.5 -18.5t37.5 -13.5zM406 3q-14 -2 -25 -2.5t-21 -0.5q-9 0 -19.5 0.5t-24.5 2.5l3 32q14 -2 21 -2h16
q8 0 19 1t24 3zM520 51q-22 -14 -42.5 -23t-40.5 -16l-11 32q38 13 71 35zM598 143q-11 -19 -26 -37l-28 -35l-24 26q16 14 27 30l24 32zM631 263q-1 -23 -5.5 -45.5t-12.5 -43.5l-30 12l8 38q5 19 7 39h33zM609 382q8 -20 13.5 -42t5.5 -46l-30 -4q-2 19 -8 39.5t-13 41.5z
M538 480q17 -17 30 -33.5t26 -36.5l-31 -16q-8 19 -20.5 33.5t-27.5 29.5zM429 538q23 -7 43.5 -15.5t39.5 -24.5l-20 -26q-18 14 -35 21.5t-37 14.5zM307 542q24 7 49 7q10 0 21 -1t19 -2l-2 -33q-12 2 -21 2.5t-17 0.5q-10 0 -20 -0.5t-23 -5.5zM195 496q22 15 41.5 24.5
t38.5 16.5l12 -33q-20 -7 -38.5 -15t-32.5 -19zM117 404q11 20 23.5 38.5t29.5 32.5l24 -25q-16 -13 -28.5 -28.5t-21.5 -32.5zM84 287q1 23 5 45t12 42l31 -10q-7 -19 -10.5 -39t-4.5 -38h-33z" />
    <glyph glyph-name="uni2639" unicode="&#x2639;" horiz-adv-x="698" 
d="M349 538q55 0 103.5 -21.5t85.5 -58t58.5 -85.5t21.5 -104q0 -56 -21.5 -104.5t-58.5 -85.5t-85.5 -58t-103.5 -21t-104 21.5t-85.5 58t-58 85.5t-21.5 104t21.5 104t58 85.5t85.5 58t104 21.5zM349 26q49 0 93 19.5t77 52.5t52.5 77t19.5 94t-19.5 94t-52.5 77t-77 52.5
t-93 19.5q-50 0 -94 -19.5t-77 -52.5t-52.5 -77.5t-19.5 -93.5q0 -50 19.5 -94t52.5 -77t77 -52.5t94 -19.5zM444 368q14 0 24 -10t10 -24t-10.5 -24.5t-23.5 -10.5q-14 0 -24.5 10t-10.5 25q0 14 10.5 24t24.5 10zM254 368q14 0 24 -10t10 -24t-10 -24.5t-24 -10.5
t-24.5 10t-10.5 25q0 14 10.5 24t24.5 10zM461 129q-19 29 -49.5 45t-62.5 16q-33 0 -64 -16t-48 -45l-19 11q43 86 131 86q87 0 131 -86z" />
    <glyph glyph-name="uni263A" unicode="&#x263a;" horiz-adv-x="698" 
d="M349 538q55 0 103.5 -21.5t85.5 -58t58.5 -85.5t21.5 -104q0 -56 -21.5 -104.5t-58.5 -85.5t-85.5 -58t-103.5 -21t-104 21.5t-85.5 58t-58 85.5t-21.5 104t21.5 104t58 85.5t85.5 58t104 21.5zM349 26q49 0 93 19.5t77 52.5t52.5 77t19.5 94t-19.5 94t-52.5 77t-77 52.5
t-93 19.5q-50 0 -94 -19.5t-77 -52.5t-52.5 -77.5t-19.5 -93.5q0 -50 19.5 -94t52.5 -77t77 -52.5t94 -19.5zM444 368q14 0 24 -10t10 -24t-10.5 -24.5t-23.5 -10.5q-14 0 -24.5 10t-10.5 25q0 14 10.5 24t24.5 10zM254 368q14 0 24 -10t10 -24t-10 -24.5t-24 -10.5
t-24.5 10t-10.5 25q0 14 10.5 24t24.5 10zM480 196q-45 -86 -131 -86q-87 0 -131 86l19 11q17 -29 48 -45t64 -16t63.5 16t48.5 45z" />
    <glyph glyph-name="uni0654064E" unicode="&#xe832;" 
d="M-60 -46h120v-29h-120v29zM42 76q-5 4 -12.5 6.5t-14.5 2.5q-8 0 -13.5 -4t-5.5 -14q0 -8 7 -15t21 -7h38v-45h-124v45h24q-14 12 -14 31q0 23 18 36t42 13q14 0 28.5 -5.5t24.5 -13.5z" />
    <glyph glyph-name="uni0654064B" unicode="&#xe833;" 
d="M-60 -40h120v-29h-120v29zM-60 -98h120v-29h-120v29zM42 76q-5 4 -12.5 6.5t-14.5 2.5q-8 0 -13.5 -4t-5.5 -14q0 -8 7 -15t21 -7h38v-45h-124v45h24q-14 12 -14 31q0 23 18 36t42 13q14 0 28.5 -5.5t24.5 -13.5z" />
    <glyph glyph-name="uni06540652" unicode="&#xe834;" 
d="M-57 212.5q0 23.5 17.5 40t40.5 16.5t40 -16.5t17 -40t-17 -40.5t-40 -17t-40.5 17t-17.5 40.5zM-30 212.5q0 -12.5 9 -21.5t22 -9t22 9t9 21.5t-9 21.5t-22 9t-22 -9t-9 -21.5zM42 76q-5 4 -12.5 6.5t-14.5 2.5q-8 0 -13.5 -4t-5.5 -14q0 -8 7 -15t21 -7h38v-45h-124v45
h24q-14 12 -14 31q0 23 18 36t42 13q14 0 28.5 -5.5t24.5 -13.5z" />
    <glyph glyph-name="uni0654064F" unicode="&#xe835;" 
d="M-41 167q18 10 31 21t21 23q-4 -1 -10 -1q-22 0 -37.5 12.5t-15.5 38.5t17 39t35 13q23 0 38 -16t15 -39q0 -9 -4 -23t-14 -30.5t-25.5 -32t-38.5 -28.5zM-26 261q0 -13 10 -19t22 -6q16 0 19.5 6.5t3.5 15.5q0 12 -8 21t-20 9q-7 0 -17 -6t-10 -21zM42 76
q-5 4 -12.5 6.5t-14.5 2.5q-8 0 -13.5 -4t-5.5 -14q0 -8 7 -15t21 -7h38v-45h-124v45h24q-14 12 -14 31q0 23 18 36t42 13q14 0 28.5 -5.5t24.5 -13.5z" />
    <glyph glyph-name="uni0654064C" unicode="&#xe836;" 
d="M-10 160q33 18 49 42q-2 0 -4.5 -0.5t-3.5 -0.5q-21 0 -37 12.5t-16 37.5t17 37t33 12q22 0 36 -15.5t14 -35.5q0 -10 -4 -23.5t-13 -29t-23.5 -31t-36.5 -26.5zM-40 169q-19 18 -27.5 38.5t-8.5 41.5q0 36 20 65l22 -14q-16 -24 -16 -49q0 -18 8 -35t26 -30zM54 231
q3 9 3 17q0 11 -8 19.5t-20 8.5q-7 0 -16 -6t-9 -19t9.5 -18.5t21 -5.5t19.5 4zM42 76q-5 4 -12.5 6.5t-14.5 2.5q-8 0 -13.5 -4t-5.5 -14q0 -8 7 -15t21 -7h38v-45h-124v45h24q-14 12 -14 31q0 23 18 36t42 13q14 0 28.5 -5.5t24.5 -13.5z" />
    <glyph glyph-name="uni06550650" unicode="&#xe837;" 
d="M-60 -208h120v-29h-120v29zM42 -89q-5 4 -12.5 6.5t-14.5 2.5q-8 0 -13.5 -4t-5.5 -14q0 -8 7 -15t21 -7h38v-45h-124v45h24q-14 12 -14 31q0 23 18 36t42 13q14 0 28.5 -5.5t24.5 -13.5z" />
    <glyph glyph-name="uni0654064D" unicode="&#xe838;" 
d="M-48 -389h120v-29h-120v29zM-48 -451h120v-29h-120v29zM42 -89q-5 4 -12.5 6.5t-14.5 2.5q-8 0 -13.5 -4t-5.5 -14q0 -8 7 -15t21 -7h38v-45h-124v45h24q-14 12 -14 31q0 23 18 36t42 13q14 0 28.5 -5.5t24.5 -13.5z" />
    <glyph glyph-name="logo" unicode="&#xf8ff;" horiz-adv-x="648" 
d="M598 -55h-548v548h548v-548zM534 279q3 -15 3 -30q0 -39 -14.5 -72.5t-39.5 -58.5t-59 -39.5t-72 -14.5q-39 0 -72.5 14.5t-58.5 39.5t-39.5 58.5t-14.5 72.5q0 37 14 70.5t38.5 58.5t57.5 40t71 16q-5 0 -12 1t-12 1q-45 0 -85 -17t-70 -47t-47 -70t-17 -85t17 -85
t47 -70t70 -47.5t85 -17.5t85 17.5t70 47.5t47 70t17 85q0 32 -9 62zM445 182q0 19 -7.5 36.5t-20 30t-29.5 20t-36 7.5q-20 0 -37 -7.5t-29.5 -20t-20 -30t-7.5 -36.5t7.5 -36t20 -29.5t29.5 -20t37 -7.5q19 0 36 7.5t29.5 20t20 29.5t7.5 36z" />
    <glyph glyph-name="p1" unicode="&#xfbb2;" 
d="M-55 45q0 19 16 32t39 13t39 -13t16 -32t-16 -32t-39 -13t-39 13t-16 32z" />
    <glyph glyph-name="p2" unicode="&#xfbb4;" 
d="M-120 45q0 19 16 32t39 13t39 -13t16 -32t-16 -32t-39 -13t-39 13t-16 32zM10 45q0 19 16 32t39 13t39 -13t16 -32t-16 -32t-39 -13t-39 13t-16 32z" />
    <glyph glyph-name="p3" unicode="&#xfbb6;" 
d="M-120 45q0 19 16 32t39 13t39 -13t16 -32t-16 -32t-39 -13t-39 13t-16 32zM10 45q0 19 16 32t39 13t39 -13t16 -32t-16 -32t-39 -13t-39 13t-16 32zM-55 145q0 19 16 32t39 13t39 -13t16 -32t-16 -32t-39 -13t-39 13t-16 32z" />
    <glyph glyph-name="uniFD3E" unicode="&#xfd3e;" horiz-adv-x="636" 
d="M50 220q11 6 20.5 18t20.5 24.5t23.5 21.5t29.5 9q9 0 24 -5q0 23 9 44.5t30 41.5q0 29 9 47.5t22 29t28 14.5t26 4q14 0 18 -4q0 39 11 64t29 41.5t41 28.5l46 23q24 11 46 25.5t39 37.5l14 -12l-50 -72q-24 -37 -44 -76t-32.5 -80t-12.5 -85v-280q0 -44 12.5 -85.5
t32.5 -80.5t44 -75l50 -72l-14 -12q-17 23 -39 37.5t-46 25.5l-46 22q-23 11 -41 28t-29 42t-11 65q-3 -4 -18 -4q-11 0 -26 4t-28 14.5t-22 29t-9 47.5q-21 20 -30 41.5t-9 44.5q-11 -5 -24 -5q-17 0 -29.5 9t-23.5 21t-20.5 24.5t-20.5 18.5zM216 70q9 -13 19.5 -18.5
t21.5 -5.5q13 0 25.5 7.5t22 20.5t15.5 28.5t6 32.5q0 34 -26 59q0 -21 -14 -31.5t-30.5 -19t-30.5 -19t-14 -31.5q0 -8 5 -23zM216 370q-5 -15 -5 -24q0 -21 14 -31.5t30.5 -19.5t30.5 -19.5t14 -30.5q26 25 26 59q0 17 -6 33t-15.5 29t-22 20.5t-25.5 7.5
q-11 0 -21.5 -5.5t-19.5 -18.5zM218 220q-23 12 -37 30q-11 -2 -21 -10.5t-13 -19.5q3 -11 13 -19.5t21 -10.5q7 8 16 16t21 14z" />
    <glyph glyph-name="uniFD3F" unicode="&#xfd3f;" horiz-adv-x="636" 
d="M586 220q-11 6 -20.5 18t-20.5 24.5t-23.5 21.5t-29.5 9q-9 0 -24 -5q0 23 -9 44.5t-30 41.5q0 29 -9 47.5t-22 29t-28 14.5t-26 4q-14 0 -18 -4q0 39 -11 64t-29 41.5t-41 28.5l-46 23q-24 11 -46 25.5t-39 37.5l-14 -12l50 -72q24 -37 44 -76t32.5 -80t12.5 -85v-280
q0 -44 -12.5 -85.5t-32.5 -80.5t-44 -75l-50 -72l14 -12q17 23 39 37.5t46 25.5l46 22q23 11 41 28t29 42t11 65q3 -4 18 -4q11 0 26 4t28 14.5t22 29t9 47.5q21 20 30 41.5t9 44.5q11 -5 24 -5q17 0 29.5 9t23.5 21t20.5 24.5t20.5 18.5zM420 70q-9 -13 -19.5 -18.5
t-21.5 -5.5q-13 0 -25.5 7.5t-22 20.5t-15.5 28.5t-6 32.5q0 34 26 59q0 -21 14 -31.5t30.5 -19t30.5 -19t14 -31.5q0 -8 -5 -23zM420 370q5 -15 5 -24q0 -21 -14 -31.5t-30.5 -19.5t-30.5 -19.5t-14 -30.5q-26 25 -26 59q0 17 6 33t15.5 29t22 20.5t25.5 7.5
q11 0 21.5 -5.5t19.5 -18.5zM418 220q23 12 37 30q11 -2 21 -10.5t13 -19.5q-3 -11 -13 -19.5t-21 -10.5q-7 8 -16 16t-21 14z" />
    <glyph glyph-name="alef2" horiz-adv-x="220" 
d="M135 550q8 0 14 -6t6 -14v-510q0 -8 -6 -14t-14 -6h-50q-8 0 -14 6t-6 14v510q0 8 6 14t14 6h50z" />
    <glyph glyph-name="aleff2" horiz-adv-x="220" 
d="M135 550q8 0 14 -6t6 -14v-440h65v-90h-135q-8 0 -14 6t-6 14v510q0 8 6 14t14 6h50z" />
    <glyph glyph-name="uni06A7.init" horiz-adv-x="450" 
d="M170 445q0 19 16 32t39 13t39 -13t16 -32t-16 -32t-39 -13t-39 13t-16 32zM-30 60q0 13 8.5 21.5t21.5 8.5h82q-9 16 -13 34.5t-4 38.5q0 29 9.5 59t30 54t52.5 39t76 15h72q33 0 56.5 -23.5t23.5 -56.5v-230q0 -8 -6 -14t-14 -6h-365q-13 0 -21.5 8.5t-8.5 21.5v30z
M227 240q-30 0 -51 -21.5t-21 -53.5q0 -29 20 -52t52 -23h68v150h-68z" />
    <glyph glyph-name="uni06A7.medi" horiz-adv-x="450" 
d="M170 445q0 19 16 32t39 13t39 -13t16 -32t-16 -32t-39 -13t-39 13t-16 32zM0 0q-13 0 -21.5 8.5t-8.5 21.5v30q0 13 8.5 21.5t21.5 8.5h82q-9 16 -13 34.5t-4 38.5q0 29 9.5 59t30 54t52.5 39t76 15h72q33 0 56.5 -23.5t23.5 -56.5v-160h65v-90h-450zM295 90v150h-68
q-30 0 -51 -21.5t-21 -53.5q0 -29 20 -52t50 -23h70z" />
    <glyph glyph-name="uni06A8.init" horiz-adv-x="450" 
d="M105 425q0 19 16 32t39 13t39 -13t16 -32t-16 -32t-39 -13t-39 13t-16 32zM235 425q0 19 16 32t39 13t39 -13t16 -32t-16 -32t-39 -13t-39 13t-16 32zM170 525q0 19 16 32t39 13t39 -13t16 -32t-16 -32t-39 -13t-39 13t-16 32zM-30 60q0 13 8.5 21.5t21.5 8.5h82
q-9 16 -13 34.5t-4 38.5q0 29 9.5 59t30 54t52.5 39t76 15h72q33 0 56.5 -23.5t23.5 -56.5v-230q0 -8 -6 -14t-14 -6h-365q-13 0 -21.5 8.5t-8.5 21.5v30zM227 240q-30 0 -51 -21.5t-21 -53.5q0 -29 20 -52t52 -23h68v150h-68z" />
    <glyph glyph-name="uni06A8.medi" horiz-adv-x="450" 
d="M105 425q0 19 16 32t39 13t39 -13t16 -32t-16 -32t-39 -13t-39 13t-16 32zM235 425q0 19 16 32t39 13t39 -13t16 -32t-16 -32t-39 -13t-39 13t-16 32zM170 525q0 19 16 32t39 13t39 -13t16 -32t-16 -32t-39 -13t-39 13t-16 32zM0 0q-13 0 -21.5 8.5t-8.5 21.5v30
q0 13 8.5 21.5t21.5 8.5h82q-9 16 -13 34.5t-4 38.5q0 29 9.5 59t30 54t52.5 39t76 15h72q33 0 56.5 -23.5t23.5 -56.5v-160h65v-90h-450zM295 90v150h-68q-30 0 -51 -21.5t-21 -53.5q0 -29 20 -52t50 -23h70z" />
    <glyph glyph-name="uni06CC.medi" horiz-adv-x="300" 
d="M30 -105q0 19 16 32t39 13t39 -13t16 -32t-16 -32t-39 -13t-39 13t-16 32zM160 -105q0 19 16 32t39 13t39 -13t16 -32t-16 -32t-39 -13t-39 13t-16 32zM-30 60q0 13 8.5 21.5t21.5 8.5h105v220q0 8 6 14t14 6h50q8 0 14 -6t6 -14v-220h105v-90h-300q-13 0 -21.5 8.5
t-8.5 21.5v30z" />
    <glyph glyph-name="uni0763.fina" horiz-adv-x="920" 
d="M180 553q0 19 16 32t39 13t39 -13t16 -32t-16 -32t-39 -13t-39 13t-16 32zM310 553q0 19 16 32t39 13t39 -13t16 -32t-16 -32t-39 -13t-39 13t-16 32zM245 453q0 19 16 32t39 13t39 -13t16 -32t-16 -32t-39 -13t-39 13t-16 32zM145 0q-33 0 -56.5 23.5t-23.5 56.5v195
q0 8 6 14t14 6h50q8 0 14 -6t6 -14v-185h610v115h-425v90l256 257l64 -64l-191 -193h306q33 0 56.5 -23.5t23.5 -56.5v-125h65v-90h-775z" />
    <glyph glyph-name="uni0763.init" horiz-adv-x="410" 
d="M8 632q0 19 16 32t39 13t39 -13t16 -32t-16 -32t-39 -13t-39 13t-16 32zM138 632q0 19 16 32t39 13t39 -13t16 -32t-16 -32t-39 -13t-39 13t-16 32zM73 532q0 19 16 32t39 13t39 -13t16 -32t-16 -32t-39 -13t-39 13t-16 32zM0 0q-13 0 -21.5 8.5t-8.5 21.5v30
q0 13 8.5 21.5t21.5 8.5h255v68q0 23 -8 38.5t-22 25.5t-32.5 14t-39.5 4q-17 0 -34.5 -3t-31.5 -8l-30 78l239 240l64 -64l-151 -152q60 -10 98 -52.5t38 -120.5v-138q0 -8 -6 -14t-14 -6h-325z" />
    <glyph glyph-name="uni0763.medi" horiz-adv-x="410" 
d="M8 632q0 19 16 32t39 13t39 -13t16 -32t-16 -32t-39 -13t-39 13t-16 32zM138 632q0 19 16 32t39 13t39 -13t16 -32t-16 -32t-39 -13t-39 13t-16 32zM73 532q0 19 16 32t39 13t39 -13t16 -32t-16 -32t-39 -13t-39 13t-16 32zM0 0q-13 0 -21.5 8.5t-8.5 21.5v30
q0 13 8.5 21.5t21.5 8.5h255v68q0 23 -8 38.5t-22 25.5t-32.5 14t-39.5 4q-17 0 -34.5 -3t-31.5 -8l-30 78l239 240l64 -64l-151 -152q60 -10 98 -52.5t38 -120.5v-68h65v-90h-410z" />
    <glyph glyph-name="uni0651064B" 
d="M-89 172l177 28v-28l-177 -29v29zM-89 229l177 29v-29l-177 -28v28zM15 104q-1 -5 -1 -8v-8q0 -21 7.5 -31.5t13.5 -10.5t10.5 8t4.5 29q0 5 -0.5 11.5t-1.5 13.5l29 5q1 -5 1.5 -11.5t0.5 -14.5q0 -12 -2 -25t-7 -23.5t-13.5 -17t-21.5 -6.5q-8 0 -17 5t-14 13
q-6 -13 -16 -20t-20 -7q-17 0 -31.5 13.5t-14.5 43.5q0 11 3 25l30 5q-3 -15 -3 -26q0 -32 16 -32q7 0 14 10.5t7 30.5v11q0 5 -2 12z" />
    <glyph glyph-name="uni06F4.urdu" horiz-adv-x="510" 
d="M430 530q8 0 14 -6t6 -14v-187q0 -30 -11.5 -50t-30.5 -31.5t-44.5 -16t-52.5 -4.5q-37 0 -74.5 6.5t-66.5 16.5v-224q0 -8 -6 -14t-14 -6h-50q-8 0 -14 6t-6 14v490q0 8 6 14t14 6h50q8 0 14 -6t6 -14v-165q0 -5 14.5 -11t36 -11t46.5 -9t46 -4q20 0 33.5 4.5t13.5 15.5
v180q0 8 6 14t14 6h50z" />
    <glyph glyph-name="uni06F7.urdu" horiz-adv-x="430" 
d="M50 0l174 510q3 8 10 14t15 6h78l-151 -440h204v-90h-330z" />
    <glyph glyph-name="bar" horiz-adv-x="238" 
d="M80 -210v860h78v-860h-78z" />
    <glyph glyph-name="p32" 
d="M-120 85q0 19 16 32t39 13t39 -13t16 -32t-16 -32t-39 -13t-39 13t-16 32zM10 85q0 19 16 32t39 13t39 -13t16 -32t-16 -32t-39 -13t-39 13t-16 32zM-55 -15q0 19 16 32t39 13t39 -13t16 -32t-16 -32t-39 -13t-39 13t-16 32z" />
    <glyph glyph-name="x.1dot.small" 
d="M-55 110h110v-110h-110v110z" />
    <glyph glyph-name="p22" 
d="M-55 45q0 19 16 32t39 13t39 -13t16 -32t-16 -32t-39 -13t-39 13t-16 32zM-55 -55q0 19 16 32t39 13t39 -13t16 -32t-16 -32t-39 -13t-39 13t-16 32z" />
    <glyph glyph-name="p3s" 
d="M-117 110h107v-110h-107v110zM11 110h107v-110h-107v110zM-55 235h110v-107h-110v107z" />
    <glyph glyph-name="x.3dots.dsmall" 
d="M118 125h-107v110h107v-110zM-10 125h-107v110h107v-110zM56 0h-110v107h110v-107z" />
    <glyph glyph-name="x.wasla" 
d="M-57 30h15v53h27v-22l14 14q8 8 19 8h32q8 0 14 -6.5t6 -15.5v-41q0 -8 -6 -14t-14 -6h-107v30zM-12 30h52v23h-27z" />
    <glyph glyph-name="x.hehgoalcomma" 
d="M-1 0q-4 -11 -15 -33.5t-11 -44.5q0 -11 4.5 -19t17.5 -8q11 0 21 11t24 43l31 -14q-17 -42 -38 -60.5t-42 -18.5q-30 0 -42 18t-12 41q0 16 3.5 31.5t8.5 27.5q5 14 13 26h37z" />
    <glyph glyph-name="x.ghehstroke" 
d="M651 463l-244 -244l-37 51l237 237z" />
    <glyph glyph-name="uni0691_2" horiz-adv-x="240" 
d="M-17 -72q17 -7 35 -7q28 0 47.5 19t19.5 60v310q0 8 6 14t14 6h50q8 0 14 -6t6 -14v-310q0 -45 -10.5 -76.5t-29.5 -51.5t-45 -29.5t-57 -9.5q-37 0 -71 10zM57 430h15v103h27v-72l14 14q8 8 19 8h32q8 0 14 -6.5t6 -15.5v-41q0 -8 -6 -14t-14 -6h-107v30zM102 430h52v23
h-27z" />
    <glyph glyph-name="uni0698_2" horiz-adv-x="240" 
d="M17 425q0 19 14.5 32t35 13t35 -13t14.5 -32t-14.5 -32t-35 -13t-35 13t-14.5 32zM134 425q0 19 14.5 32t35 13t35 -13t14.5 -32t-14.5 -32t-35 -13t-35 13t-14.5 32zM75 525q0 19 14.5 32t35.5 13t35.5 -13t14.5 -32t-14.5 -32t-35.5 -13t-35.5 13t-14.5 32zM-17 -72
q17 -7 35 -7q28 0 47.5 19t19.5 60v310q0 8 6 14t14 6h50q8 0 14 -6t6 -14v-310q0 -45 -10.5 -76.5t-29.5 -51.5t-45 -29.5t-57 -9.5q-37 0 -71 10z" />
    <glyph glyph-name="uni0698.fina2" horiz-adv-x="240" 
d="M17 425q0 19 14.5 32t35 13t35 -13t14.5 -32t-14.5 -32t-35 -13t-35 13t-14.5 32zM134 425q0 19 14.5 32t35 13t35 -13t14.5 -32t-14.5 -32t-35 -13t-35 13t-14.5 32zM75 525q0 19 14.5 32t35.5 13t35.5 -13t14.5 -32t-14.5 -32t-35.5 -13t-35.5 13t-14.5 32zM155 330
q8 0 14 -6t6 -14v-220h65v-90h-65q0 -45 -10.5 -76.5t-29.5 -51.5t-45 -29.5t-57 -9.5q-36 0 -72 10l22 85q9 -3 18 -4t17 -1q29 0 48 16.5t19 60.5v310q0 8 6 14t14 6h50z" />
    <glyph glyph-name="rehf2" horiz-adv-x="240" 
d="M155 330q8 0 14 -6t6 -14v-220h65v-90h-65q0 -45 -10.5 -76.5t-29.5 -51.5t-45 -29.5t-57 -9.5q-36 0 -72 10l22 85q9 -3 18 -4t17 -1q29 0 48 16.5t19 60.5v310q0 8 6 14t14 6h50z" />
    <glyph glyph-name="reh2" horiz-adv-x="240" 
d="M-17 -72q17 -7 35 -7q28 0 47.5 19t19.5 60v310q0 8 6 14t14 6h50q8 0 14 -6t6 -14v-310q0 -45 -10.5 -76.5t-29.5 -51.5t-45 -29.5t-57 -9.5q-37 0 -71 10z" />
    <glyph glyph-name="zainf2" horiz-adv-x="240" 
d="M75 445q0 19 16 32t39 13t39 -13t16 -32t-16 -32t-39 -13t-39 13t-16 32zM155 330q8 0 14 -6t6 -14v-220h65v-90h-65q0 -45 -10.5 -76.5t-29.5 -51.5t-45 -29.5t-57 -9.5q-36 0 -72 10l22 85q9 -3 18 -4t17 -1q29 0 48 16.5t19 60.5v310q0 8 6 14t14 6h50z" />
    <glyph glyph-name="zain2" horiz-adv-x="240" 
d="M75 445q0 19 16 32t39 13t39 -13t16 -32t-16 -32t-39 -13t-39 13t-16 32zM-17 -72q17 -7 35 -7q28 0 47.5 19t19.5 60v310q0 8 6 14t14 6h50q8 0 14 -6t6 -14v-310q0 -45 -10.5 -76.5t-29.5 -51.5t-45 -29.5t-57 -9.5q-37 0 -71 10z" />
    <glyph glyph-name="uni0691.fina2" horiz-adv-x="240" 
d="M155 330q8 0 14 -6t6 -14v-220h65v-90h-65q0 -45 -10.5 -76.5t-29.5 -51.5t-45 -29.5t-57 -9.5q-36 0 -72 10l22 85q9 -3 18 -4t17 -1q29 0 48 16.5t19 60.5v310q0 8 6 14t14 6h50zM57 430h15v103h27v-72l14 14q8 8 19 8h32q8 0 14 -6.5t6 -15.5v-41q0 -8 -6 -14t-14 -6
h-107v30zM102 430h52v23h-27z" />
    <glyph glyph-name="sennam2" horiz-adv-x="235" 
 />
    <glyph glyph-name="sennan2" horiz-adv-x="310" 
d="M-30 60q0 13 8.5 21.5t21.5 8.5h155v220q0 8 6 14t14 6h50q8 0 14 -6t6 -14v-230q0 -33 -23.5 -56.5t-56.5 -23.5h-165q-13 0 -21.5 8.5t-8.5 21.5v30z" />
    <glyph glyph-name="hmzn2" horiz-adv-x="300" 
 />
    <glyph glyph-name="hmzm2" horiz-adv-x="235" 
 />
    <glyph glyph-name="behn2" horiz-adv-x="300" 
 />
    <glyph glyph-name="behm2" horiz-adv-x="235" 
 />
    <glyph glyph-name="tehn2" horiz-adv-x="300" 
 />
    <glyph glyph-name="tehm2" horiz-adv-x="235" 
 />
    <glyph glyph-name="thehn2" horiz-adv-x="300" 
 />
    <glyph glyph-name="thehm2" horiz-adv-x="235" 
 />
    <glyph glyph-name="noonn2" horiz-adv-x="300" 
 />
    <glyph glyph-name="noonm2" horiz-adv-x="235" 
 />
    <glyph glyph-name="yehn2" horiz-adv-x="310" 
d="M-20 -135q0 19 16 32t39 13t39 -13t16 -32t-16 -32t-39 -13t-39 13t-16 32zM110 -135q0 19 16 32t39 13t39 -13t16 -32t-16 -32t-39 -13t-39 13t-16 32zM-30 60q0 13 8.5 21.5t21.5 8.5h155v220q0 8 6 14t14 6h50q8 0 14 -6t6 -14v-230q0 -33 -23.5 -56.5t-56.5 -23.5
h-165q-13 0 -21.5 8.5t-8.5 21.5v30z" />
    <glyph glyph-name="yehm2" horiz-adv-x="235" 
 />
    <glyph glyph-name="uni0679.init2" horiz-adv-x="300" 
 />
    <glyph glyph-name="uni0679.medi2" horiz-adv-x="310" 
d="M-20 -95q0 19 16 32t39 13t39 -13t16 -32t-16 -32t-39 -13t-39 13t-16 32zM110 -95q0 19 16 32t39 13t39 -13t16 -32t-16 -32t-39 -13t-39 13t-16 32zM45 -195q0 19 16 32t39 13t39 -13t16 -32t-16 -32t-39 -13t-39 13t-16 32zM-30 60q0 13 8.5 21.5t21.5 8.5h155v220
q0 8 6 14t14 6h50q8 0 14 -6t6 -14v-230q0 -33 -23.5 -56.5t-56.5 -23.5h-165q-13 0 -21.5 8.5t-8.5 21.5v30z" />
    <glyph glyph-name="uni067E.init2" horiz-adv-x="235" 
 />
    <glyph glyph-name="uni067E.medi2" horiz-adv-x="235" 
 />
    <glyph glyph-name="sennayehf" horiz-adv-x="840" 
d="M510 123q26 0 43 -17t17 -43v-30q0 -37 -14 -70t-38.5 -57.5t-57.5 -38.5t-70 -14h-145q-37 0 -70 14t-57.5 38.5t-38.5 57.5t-14 70v105q0 8 6 14t14 6h50q8 0 14 -6t6 -14v-113q0 -17 8 -32t20.5 -26t28.5 -17.5t33 -6.5h154q18 0 33 7.5t25.5 20t16.5 29t6 33.5h-90
q-25 0 -42.5 17.5t-17.5 42.5v36q0 48 12.5 81.5t35 54.5t53.5 30.5t67 9.5h195q19 0 24 -20l42 -195h81v-90h-134q-19 0 -24 20l-42 193h-136q-35 0 -59.5 -18t-24.5 -60v-12h90z" />
    <glyph glyph-name="yehyehf" horiz-adv-x="840" 
d="M190 -250.5q0 17.5 16 29t39 11.5t39 -11.5t16 -29t-16 -29t-39 -11.5t-39 11.5t-16 29zM320 -250.5q0 17.5 16 29t39 11.5t39 -11.5t16 -29t-16 -29t-39 -11.5t-39 11.5t-16 29zM620 -105q0 19 16 32t39 13t39 -13t16 -32t-16 -32t-39 -13t-39 13t-16 32zM620 -205
q0 19 16 32t39 13t39 -13t16 -32t-16 -32t-39 -13t-39 13t-16 32zM510 123q26 0 43 -17t17 -43v-30q0 -37 -14 -70t-38.5 -57.5t-57.5 -38.5t-70 -14h-145q-37 0 -70 14t-57.5 38.5t-38.5 57.5t-14 70v105q0 8 6 14t14 6h50q8 0 14 -6t6 -14v-113q0 -17 8 -32t20.5 -26
t28.5 -17.5t33 -6.5h154q18 0 33 7.5t25.5 20t16.5 29t6 33.5h-90q-25 0 -42.5 17.5t-17.5 42.5v36q0 48 12.5 81.5t35 54.5t53.5 30.5t67 9.5h195q19 0 24 -20l42 -195h81v-90h-134q-19 0 -24 20l-42 193h-136q-35 0 -59.5 -18t-24.5 -60v-12h90z" />
    <glyph glyph-name="uni067Eyehf" horiz-adv-x="840" 
d="M190 -250.5q0 17.5 16 29t39 11.5t39 -11.5t16 -29t-16 -29t-39 -11.5t-39 11.5t-16 29zM320 -250.5q0 17.5 16 29t39 11.5t39 -11.5t16 -29t-16 -29t-39 -11.5t-39 11.5t-16 29zM551 -205q0 19 16 32t39 13t39 -13t16 -32t-16 -32t-39 -13t-39 13t-16 32zM681 -205
q0 19 16 32t39 13t39 -13t16 -32t-16 -32t-39 -13t-39 13t-16 32zM616 -105q0 19 16 32t39 13t39 -13t16 -32t-16 -32t-39 -13t-39 13t-16 32zM510 123q26 0 43 -17t17 -43v-30q0 -37 -14 -70t-38.5 -57.5t-57.5 -38.5t-70 -14h-145q-37 0 -70 14t-57.5 38.5t-38.5 57.5
t-14 70v105q0 8 6 14t14 6h50q8 0 14 -6t6 -14v-113q0 -17 8 -32t20.5 -26t28.5 -17.5t33 -6.5h154q18 0 33 7.5t25.5 20t16.5 29t6 33.5h-90q-25 0 -42.5 17.5t-17.5 42.5v36q0 48 12.5 81.5t35 54.5t53.5 30.5t67 9.5h195q19 0 24 -20l42 -195h81v-90h-134q-19 0 -24 20
l-42 193h-136q-35 0 -59.5 -18t-24.5 -60v-12h90z" />
    <glyph glyph-name="behyehhmzf" horiz-adv-x="840" 
d="M619 -155q0 19 16 32t39 13t39 -13t16 -32t-16 -32t-39 -13t-39 13t-16 32zM152 316q-5 4 -12.5 6.5t-14.5 2.5q-8 0 -13.5 -4t-5.5 -14q0 -8 7 -15t21 -7h38v-45h-124v45h24q-14 12 -14 31q0 23 18 36t42 13q14 0 28.5 -5.5t24.5 -13.5zM510 123q26 0 43 -17t17 -43v-30
q0 -37 -14 -70t-38.5 -57.5t-57.5 -38.5t-70 -14h-145q-37 0 -70 14t-57.5 38.5t-38.5 57.5t-14 70v105q0 8 6 14t14 6h50q8 0 14 -6t6 -14v-113q0 -17 8 -32t20.5 -26t28.5 -17.5t33 -6.5h154q18 0 33 7.5t25.5 20t16.5 29t6 33.5h-90q-25 0 -42.5 17.5t-17.5 42.5v36
q0 48 12.5 81.5t35 54.5t53.5 30.5t67 9.5h195q19 0 24 -20l42 -195h81v-90h-134q-19 0 -24 20l-42 193h-136q-35 0 -59.5 -18t-24.5 -60v-12h90z" />
    </font>
</defs>
</svg>
